<?xml version="1.0" standalone="no"?>
<!DOCTYPE svg PUBLIC "-//W3C//DTD SVG 1.1//EN" "http://www.w3.org/Graphics/SVG/1.1/DTD/svg11.dtd" >
<svg xmlns="http://www.w3.org/2000/svg" xmlns:xlink="http://www.w3.org/1999/xlink" version="1.1">
<metadata>
Created by FontForge 20170731 at Thu Jun 30 20:48:54 2016
 By Aleksey,,,
Copyright (c) 2015 by Reto Moser. All rights reserved.
</metadata>
<defs>
<font id="GTEestiDisplay-Bold" horiz-adv-x="600" >
  <font-face 
    font-family="GT Eesti Display Bold"
    font-weight="700"
    font-stretch="normal"
    units-per-em="1000"
    panose-1="0 0 8 0 0 0 0 0 0 0"
    ascent="750"
    descent="-250"
    x-height="462"
    cap-height="700"
    bbox="-453 -252 1202 900"
    underline-thickness="50"
    underline-position="-150"
    unicode-range="U+0020-FB02"
  />
<missing-glyph horiz-adv-x="770" 
d="M197.5 32q-83.5 47 -130.5 130.5t-47 187.5q0 105 47 188t130.5 130t187.5 47q105 0 188 -47t130 -130t47 -188q0 -104 -47 -187.5t-130 -130.5t-188 -47q-104 0 -187.5 47zM560 54.5q78 44.5 122.5 123.5t44.5 177l-51 65l-70 -30l-68 90l-79 -44l-74 118l-74 -118
l-79 44l-68 -90l-70 30l-51 -65q0 -98 44.5 -177t122.5 -123.5t175 -44.5t175 44.5zM257 328q-10 10 -10 25t10 25t25 10t25 -10t10 -25t-10 -25t-25 -10t-25 10zM462 328q-10 10 -10 25t10 25t25 10t25 -10t10 -25t-10 -25t-25 -10t-25 10zM379 356q1 4 4 5.5t7 -0.5
q3 -1 4.5 -4t0.5 -7l-28 -78h34q4 0 6.5 -2.5t2.5 -6.5q0 -3 -2.5 -5.5t-6.5 -2.5h-58zM138.5 190.5q-19.5 19.5 -19.5 49.5t19.5 49.5t49.5 19.5t49.5 -19.5t19.5 -49.5t-19.5 -49.5t-49.5 -19.5t-49.5 19.5zM531.5 190.5q-19.5 19.5 -19.5 49.5t19.5 49.5t49.5 19.5
t49.5 -19.5t19.5 -49.5t-19.5 -49.5t-49.5 -19.5t-49.5 19.5zM346.5 185q-16.5 -8 -23.5 -22q-3 -6 -9 -6q-8 0 -8 9q0 17 24.5 31t54.5 14t54.5 -14t24.5 -31q0 -9 -8 -9q-6 0 -9 6q-7 14 -23.5 22t-38.5 8t-38.5 -8z" />
    <glyph glyph-name="fi" unicode="fi" horiz-adv-x="599" 
d="M262.5 552q-19.5 -18 -19.5 -68v-22h98v-126h-98v-336h-151v336h-81v126h81v27q0 114 54.5 167.5t167.5 53.5h31v-140h-13q-50 0 -69.5 -18zM402 462h151v-462h-151v462zM558 547h-162v152h162v-152z" />
    <glyph glyph-name="fl" unicode="fl" horiz-adv-x="599" 
d="M262.5 552q-19.5 -18 -19.5 -68v-22h98v-126h-98v-336h-151v336h-81v126h81v27q0 114 54.5 167.5t167.5 53.5h31v-140h-13q-50 0 -69.5 -18zM553 0h-151v700h151v-700z" />
    <glyph glyph-name="f_f" unicode="ff" horiz-adv-x="715" 
d="M262.5 552q-19.5 -18 -19.5 -68v-22h98v-126h-98v-336h-151v336h-81v126h81v27q0 114 54.5 167.5t167.5 53.5h31v-140h-13q-50 0 -69.5 -18zM622.5 552q-19.5 -18 -19.5 -68v-22h98v-126h-98v-336h-151v336h-81v126h81v27q0 114 54.5 167.5t167.5 53.5h31v-140h-13
q-50 0 -69.5 -18z" />
    <glyph glyph-name="f_f_i" unicode="ffi" horiz-adv-x="959" 
d="M262.5 552q-19.5 -18 -19.5 -68v-22h98v-126h-98v-336h-151v336h-81v126h81v27q0 114 54.5 167.5t167.5 53.5h31v-140h-13q-50 0 -69.5 -18zM622.5 552q-19.5 -18 -19.5 -68v-22h98v-126h-98v-336h-151v336h-81v126h81v27q0 114 54.5 167.5t167.5 53.5h31v-140h-13
q-50 0 -69.5 -18zM762 462h151v-462h-151v462zM918 547h-162v152h162v-152z" />
    <glyph glyph-name="f_f_l" unicode="ffl" horiz-adv-x="959" 
d="M262.5 552q-19.5 -18 -19.5 -68v-22h98v-126h-98v-336h-151v336h-81v126h81v27q0 114 54.5 167.5t167.5 53.5h31v-140h-13q-50 0 -69.5 -18zM622.5 552q-19.5 -18 -19.5 -68v-22h98v-126h-98v-336h-151v336h-81v126h81v27q0 114 54.5 167.5t167.5 53.5h31v-140h-13
q-50 0 -69.5 -18zM913 0h-151v700h151v-700z" />
    <glyph glyph-name=".notdef" horiz-adv-x="770" 
d="M197.5 32q-83.5 47 -130.5 130.5t-47 187.5q0 105 47 188t130.5 130t187.5 47q105 0 188 -47t130 -130t47 -188q0 -104 -47 -187.5t-130 -130.5t-188 -47q-104 0 -187.5 47zM560 54.5q78 44.5 122.5 123.5t44.5 177l-51 65l-70 -30l-68 90l-79 -44l-74 118l-74 -118
l-79 44l-68 -90l-70 30l-51 -65q0 -98 44.5 -177t122.5 -123.5t175 -44.5t175 44.5zM257 328q-10 10 -10 25t10 25t25 10t25 -10t10 -25t-10 -25t-25 -10t-25 10zM462 328q-10 10 -10 25t10 25t25 10t25 -10t10 -25t-10 -25t-25 -10t-25 10zM379 356q1 4 4 5.5t7 -0.5
q3 -1 4.5 -4t0.5 -7l-28 -78h34q4 0 6.5 -2.5t2.5 -6.5q0 -3 -2.5 -5.5t-6.5 -2.5h-58zM138.5 190.5q-19.5 19.5 -19.5 49.5t19.5 49.5t49.5 19.5t49.5 -19.5t19.5 -49.5t-19.5 -49.5t-49.5 -19.5t-49.5 19.5zM531.5 190.5q-19.5 19.5 -19.5 49.5t19.5 49.5t49.5 19.5
t49.5 -19.5t19.5 -49.5t-19.5 -49.5t-49.5 -19.5t-49.5 19.5zM346.5 185q-16.5 -8 -23.5 -22q-3 -6 -9 -6q-8 0 -8 9q0 17 24.5 31t54.5 14t54.5 -14t24.5 -31q0 -9 -8 -9q-6 0 -9 6q-7 14 -23.5 22t-38.5 8t-38.5 -8z" />
    <glyph glyph-name=".null" horiz-adv-x="0" 
 />
    <glyph glyph-name="nonmarkingreturn" horiz-adv-x="348" 
 />
    <glyph glyph-name="space" unicode=" " horiz-adv-x="263" 
 />
    <glyph glyph-name="exclam" unicode="!" horiz-adv-x="327" 
d="M77 700h173l-32 -471h-108zM244 0h-160v161h160v-161z" />
    <glyph glyph-name="quotedbl" unicode="&#x22;" horiz-adv-x="354" 
d="M50 715h111l-23 -253h-65zM193 715h111l-23 -253h-65z" />
    <glyph glyph-name="numbersign" unicode="#" horiz-adv-x="644" 
d="M476 441l-30 -164h107v-68h-119l-38 -209h-73l38 209h-131l-38 -209h-73l38 209h-107v68h119l30 164h-108v68h120l35 191h73l-35 -191h131l35 191h73l-35 -191h106v-68h-118zM403 441h-131l-30 -164h131z" />
    <glyph glyph-name="dollar" unicode="$" horiz-adv-x="561" 
d="M469.5 45.5q-61.5 -55.5 -167.5 -60.5v-62h-28v62q-76 2 -131 31.5t-84 80.5t-29 117h155q4 -45 26 -67.5t63 -25.5v158q-71 28 -110.5 49.5t-70.5 64.5t-31 111q0 86 58 134.5t154 51.5v72h28v-72q100 -5 159.5 -60t59.5 -159h-154q-1 39 -17.5 58t-47.5 23v-127
q12 -5 22 -8q64 -24 105.5 -47t71.5 -66t30 -109q0 -94 -61.5 -149.5zM227 465q16 -15 47 -29v117q-63 -4 -63 -52q0 -21 16 -36zM361.5 140q19.5 17 19.5 44q0 28 -20 47t-59 36v-147q40 3 59.5 20z" />
    <glyph glyph-name="percent" unicode="%" horiz-adv-x="793" 
d="M333 645q46 -45 46 -120q0 -74 -46 -119t-118 -45t-118.5 45t-46.5 119q0 75 46.5 120t118.5 45t118 -45zM553 675h78l-396 -675h-78zM150 593.5q-25 -25.5 -25 -68.5q0 -42 25.5 -68t64.5 -26t64 26t25 68q0 43 -25 68.5t-64 25.5q-40 0 -65 -25.5zM697 279
q46 -45 46 -119q0 -75 -46 -120t-118 -45t-118.5 45t-46.5 120q0 74 46.5 119t118.5 45t118 -45zM515 228q-25 -26 -25 -68q0 -43 25 -68.5t64 -25.5t64 25.5t25 68.5q0 42 -25 68t-64 26t-64 -26z" />
    <glyph glyph-name="ampersand" unicode="&#x26;" horiz-adv-x="729" 
d="M591 140l104 -140h-178l-30 41q-82 -56 -186 -56q-118 0 -191.5 62t-73.5 181q0 77 40 134.5t114 79.5q-27 50 -27 101q0 69 46.5 108t136.5 39q76 0 167 -29l-39 -131q-73 23 -107 23q-43 0 -43 -34q0 -19 21 -48l155 -208q32 45 76 121l127 -75q-63 -108 -112 -169z
M396 162l-125 167q-37 -9 -59 -34.5t-22 -61.5q0 -46 29.5 -72.5t78.5 -26.5q51 0 98 28z" />
    <glyph glyph-name="quotesingle" unicode="'" horiz-adv-x="221" 
d="M148 462h-75l-23 253h121z" />
    <glyph glyph-name="parenleft" unicode="(" horiz-adv-x="334" 
d="M309 723q-61 -94 -97 -191.5t-36 -226.5q0 -136 37.5 -247.5t95.5 -208.5l-107 -64q-72 123 -112.5 242.5t-40.5 277.5q0 105 20.5 190t52.5 150.5t81 141.5z" />
    <glyph glyph-name="parenright" unicode=")" horiz-adv-x="334" 
d="M24 -151q58 96 95.5 208t37.5 248q0 130 -36 227.5t-97 190.5l107 64q49 -77 80.5 -142t52 -150t20.5 -190q0 -158 -40.5 -277.5t-112.5 -242.5z" />
    <glyph glyph-name="asterisk" unicode="*" horiz-adv-x="435" 
d="M282 514l83 -94l-83 -61l-64 109l-65 -110l-83 62l83 94l-123 28l32 97l116 -50l-12 126h103l-12 -126l116 50l32 -97z" />
    <glyph glyph-name="plus" unicode="+" 
d="M334 329h211v-63h-211v-212h-68v212h-211v63h211v212h68v-212z" />
    <glyph glyph-name="comma" unicode="," horiz-adv-x="243" 
d="M201 0l-91 -164h-64l57 164h-62v161h160v-161z" />
    <glyph glyph-name="hyphen" unicode="-" horiz-adv-x="366" 
d="M326 198h-286v135h286v-135z" />
    <glyph glyph-name="period" unicode="." horiz-adv-x="243" 
d="M201 0h-160v161h160v-161z" />
    <glyph glyph-name="slash" unicode="/" horiz-adv-x="638" 
d="M608 734l-472 -859l-106 58l472 858z" />
    <glyph glyph-name="zero" unicode="0" horiz-adv-x="621" 
d="M516.5 598.5q72.5 -91.5 72.5 -260.5t-73 -261t-206 -92t-206 92t-73 261t72.5 260.5t206.5 91.5t206.5 -91.5zM220 492.5q-32 -54.5 -32 -154.5t32 -155t90 -55t90.5 55t32.5 155t-32 154.5t-91 54.5q-58 0 -90 -54.5z" />
    <glyph glyph-name="one" unicode="1" horiz-adv-x="339" 
d="M239 0h-153v530h-38v145h191v-675z" />
    <glyph glyph-name="two" unicode="2" horiz-adv-x="534" 
d="M37 119l227 225q46 46 65 76.5t19 59.5q0 34 -20 52.5t-57 18.5q-43 0 -65.5 -22.5t-22.5 -66.5h-153q0 108 64.5 168t180.5 60q108 0 169 -53t61 -146q0 -58 -27.5 -108t-93.5 -112l-146 -139l269 2v-134h-470v119z" />
    <glyph glyph-name="three" unicode="3" horiz-adv-x="544" 
d="M436.5 644q60.5 -46 60.5 -132q0 -59 -31.5 -98.5t-88.5 -52.5v-2q68 -11 104.5 -53.5t36.5 -112.5q0 -98 -66 -153t-184 -55q-124 0 -190 57t-66 164h158q3 -40 28 -61t71 -21q92 0 92 85q0 45 -30.5 63t-104.5 18h-23v114h23q56 0 81.5 19t25.5 60q0 33 -19.5 50.5
t-55.5 17.5q-37 0 -58 -18t-22 -49h-155q1 98 63.5 152t177.5 54q112 0 172.5 -46z" />
    <glyph glyph-name="four" unicode="4" horiz-adv-x="581" 
d="M551 113h-61v-113h-142v113h-333v115l318 447h157v-431h61v-131zM348 244v247h-4l-175 -247h179z" />
    <glyph glyph-name="five" unicode="5" horiz-adv-x="547" 
d="M418 419.5q50 -27.5 77 -77.5t27 -116q0 -112 -71.5 -176.5t-196.5 -64.5q-139 0 -238 85l89 121q67 -67 148 -67q52 0 81.5 28.5t29.5 78.5q0 46 -25.5 72.5t-71.5 26.5q-58 0 -90 -50h-119l35 395h362v-134h-255l-13 -127h3q42 33 112 33q66 0 116 -27.5z" />
    <glyph glyph-name="six" unicode="6" horiz-adv-x="572" 
d="M148 16.5q-61 31.5 -94 90.5t-33 138q0 69 29 136.5t89 138.5l132 159h182l-236 -268l3 -2q29 26 54.5 36.5t60.5 10.5q64 0 113.5 -28.5t76.5 -79.5t27 -118q0 -71 -33 -127t-92 -87t-135 -31q-83 0 -144 31.5zM365.5 153q30.5 29 30.5 75q0 47 -30 75.5t-79 28.5
t-79 -29t-30 -75t30.5 -75t78.5 -29t78.5 29z" />
    <glyph glyph-name="seven" unicode="7" horiz-adv-x="489" 
d="M473 540l-263 -540h-160l265 534h-291v141h449v-135z" />
    <glyph glyph-name="eight" unicode="8" horiz-adv-x="586" 
d="M103 37.5q-68 52.5 -68 146.5q0 66 35 112t94 60v3q-51 14 -80 54t-29 95q0 85 64 133.5t174 48.5q111 0 175 -48.5t64 -133.5q0 -55 -29.5 -95t-80.5 -54v-3q60 -13 94.5 -59.5t34.5 -112.5q0 -94 -68 -146.5t-190 -52.5t-190 52.5zM349.5 438q21.5 20 21.5 51
q0 32 -21.5 52t-56.5 20t-56.5 -20t-21.5 -52q0 -31 21.5 -51t56.5 -20t56.5 20zM362.5 145.5q26.5 25.5 26.5 66.5t-27 67t-69 26t-69 -26t-27 -67t26.5 -66.5t69.5 -25.5t69.5 25.5z" />
    <glyph glyph-name="nine" unicode="9" horiz-adv-x="556" 
d="M335 251l-2 2q-55 -35 -109 -35q-58 0 -107 31t-77.5 84t-28.5 116q0 70 33.5 125t93.5 85.5t137 30.5q81 0 140.5 -31.5t92 -89.5t32.5 -136q0 -77 -34.5 -151t-108.5 -156l-114 -126h-183zM354.5 370q30.5 29 30.5 75t-31 75.5t-78 29.5t-77.5 -29.5t-30.5 -75.5
t30.5 -75t77.5 -29q48 0 78.5 29z" />
    <glyph glyph-name="colon" unicode=":" horiz-adv-x="243" 
d="M201 0h-160v161h160v-161zM201 301h-160v161h160v-161z" />
    <glyph glyph-name="semicolon" unicode=";" horiz-adv-x="243" 
d="M201 0l-91 -164h-64l57 164h-62v161h160v-161zM201 301h-160v161h160v-161z" />
    <glyph glyph-name="less" unicode="&#x3c;" 
d="M534 467l-391 -168l391 -167v-76l-468 208v71l468 208v-76z" />
    <glyph glyph-name="equal" unicode="=" 
d="M553 374h-506v66h506v-66zM553 161h-506v66h506v-66z" />
    <glyph glyph-name="greater" unicode="&#x3e;" 
d="M534 335v-71l-468 -208v76l391 167l-391 168v76z" />
    <glyph glyph-name="question" unicode="?" horiz-adv-x="491" 
d="M402.5 661.5q52.5 -53.5 52.5 -135.5q0 -47 -18 -80.5t-50 -68.5q-29 -29 -42.5 -44.5t-24 -38.5t-10.5 -51v-14h-149v29q0 57 22.5 95t63.5 79q31 30 44 47t13 37q0 27 -15 41.5t-45 14.5q-35 0 -54 -20t-19 -52h-146q0 100 57.5 157.5t166.5 57.5q101 0 153.5 -53.5z
M315 0h-160v161h160v-161z" />
    <glyph glyph-name="at" unicode="@" horiz-adv-x="934" 
d="M696 643q94 -47 145.5 -133t51.5 -200q0 -70 -20.5 -130t-63.5 -97t-108 -37q-47 0 -79 22.5t-47 59.5h-2q-46 -77 -138 -77q-53 0 -96.5 25t-69.5 74t-26 118t26 118.5t70 75t97 25.5q84 0 127 -70h2v55h115v-278q0 -26 10.5 -38t26.5 -12q18 0 35 16t28 49.5t11 83.5
q0 102 -41.5 170t-111 100t-157.5 32q-98 0 -174.5 -37.5t-120.5 -112t-44 -182.5q0 -105 47 -176.5t124 -106.5t168 -35q83 0 170 32l33 -90q-103 -37 -205 -37q-111 0 -211.5 45t-163.5 138t-63 229q0 133 55 229.5t153.5 147.5t228.5 51q124 0 218 -47zM402.5 338.5
q-26.5 -26.5 -26.5 -69.5t26.5 -69.5t66.5 -26.5t66.5 26.5t26.5 69.5t-26.5 69.5t-66.5 26.5t-66.5 -26.5z" />
    <glyph glyph-name="A" unicode="A" horiz-adv-x="716" 
d="M493 142h-269l-50 -142h-174l276 700h164l276 -700h-173zM445 280l-87 248l-86 -248h173z" />
    <glyph glyph-name="B" unicode="B" horiz-adv-x="625" 
d="M599 197q0 -101 -67 -149t-171 -48h-300v700h290q98 0 157 -43.5t59 -130.5q0 -119 -111 -155v-2q143 -24 143 -172zM216 559v-137h116q36 0 57.5 18.5t21.5 51.5q0 31 -21.5 49t-56.5 18h-117zM411 160.5q27 19.5 27 56.5q0 38 -26.5 57t-74.5 19h-121v-152h122
q46 0 73 19.5z" />
    <glyph glyph-name="C" unicode="C" horiz-adv-x="667" 
d="M207.5 30q-87.5 45 -137 128t-49.5 192t49.5 192t137 128t197.5 45q140 0 251 -78l-84 -136q-81 54 -167 54q-61 0 -109.5 -25t-76 -71.5t-27.5 -108.5t27.5 -108.5t76 -71.5t109.5 -25q86 0 167 54l84 -136q-111 -78 -251 -78q-110 0 -197.5 45z" />
    <glyph glyph-name="D" unicode="D" horiz-adv-x="683" 
d="M480 657.5q86 -42.5 134 -121.5t48 -186t-48 -186t-134 -121.5t-196 -42.5h-223v700h223q110 0 196 -42.5zM216 559v-418h81q88 0 143 55.5t55 153.5q0 99 -55 154t-143 55h-81z" />
    <glyph glyph-name="E" unicode="E" horiz-adv-x="530" 
d="M499 145v-145h-438v700h433v-145h-278v-110h250v-141h-250v-159h283z" />
    <glyph glyph-name="F" unicode="F" horiz-adv-x="515" 
d="M216 555v-143h253v-141h-253v-271h-155v700h447v-145h-292z" />
    <glyph glyph-name="G" unicode="G" horiz-adv-x="751" 
d="M735 369q0 -113 -37.5 -199.5t-114.5 -135.5t-191 -49q-108 0 -192 44.5t-131.5 127.5t-47.5 195q0 108 46 190.5t132.5 127.5t203.5 45q157 0 276 -92l-101 -133q-42 32 -85.5 48.5t-93.5 16.5q-65 0 -111.5 -26.5t-71 -72.5t-24.5 -105q0 -92 56 -149t155 -57
q78 0 119.5 36t48.5 85h-180v139h343q1 -12 1 -36z" />
    <glyph glyph-name="H" unicode="H" horiz-adv-x="723" 
d="M662 700v-700h-155v294h-291v-294h-155v700h155v-260h291v260h155z" />
    <glyph glyph-name="I" unicode="I" horiz-adv-x="277" 
d="M216 0h-155v700h155v-700z" />
    <glyph glyph-name="J" unicode="J" horiz-adv-x="301" 
d="M240 177q0 -93 -44 -136.5t-136 -43.5h-50v145h34q19 0 30 12.5t11 36.5v509h155v-523z" />
    <glyph glyph-name="K" unicode="K" horiz-adv-x="726" 
d="M505 0l-289 335v-335h-155v700h155v-309l249 309h211l-289 -328l339 -372h-221z" />
    <glyph glyph-name="L" unicode="L" horiz-adv-x="496" 
d="M216 146h279v-146h-434v700h155v-554z" />
    <glyph glyph-name="M" unicode="M" horiz-adv-x="887" 
d="M887 0h-161l-95 403h-2l-130 -303h-111l-129 303h-2l-95 -403h-162l179 700h117l147 -362h2l147 362h117z" />
    <glyph glyph-name="N" unicode="N" horiz-adv-x="744" 
d="M683 0h-132l-334 431h-1v-431h-155v700h131l335 -433h1v433h155v-700z" />
    <glyph glyph-name="O" unicode="O" horiz-adv-x="780" 
d="M578 669q84 -46 132.5 -129t48.5 -190t-48.5 -190t-132.5 -129t-188 -46t-188 46t-132.5 129t-48.5 190t48.5 190t132.5 129t188 46t188 -46zM289 530q-45 -25 -71 -71.5t-26 -108.5t26 -108.5t71 -71.5t101 -25t101 25t71 71.5t26 108.5t-26 108.5t-71 71.5t-101 25
t-101 -25z" />
    <glyph glyph-name="P" unicode="P" horiz-adv-x="575" 
d="M503.5 638q65.5 -62 65.5 -162q0 -107 -65 -171.5t-193 -64.5h-95v-240h-155v700h250q127 0 192.5 -62zM375.5 404q28.5 24 28.5 69q0 44 -28 65t-78 21h-82v-179h82q49 0 77.5 24z" />
    <glyph glyph-name="Q" unicode="Q" horiz-adv-x="794" 
d="M623 0l-36 36q-88 -51 -197 -51q-104 0 -188 46t-132.5 129t-48.5 190t48.5 190t132.5 129t188 46t188 -46t132.5 -129t48.5 -190q0 -136 -77 -232l119 -118h-178zM464 158l-154 153h177l73 -73q28 48 28 112q0 62 -26 108.5t-71 71.5t-101 25t-101 -25t-71 -71.5
t-26 -108.5t26 -108.5t71 -71.5t101 -25q41 0 74 13z" />
    <glyph glyph-name="R" unicode="R" horiz-adv-x="617" 
d="M246 265h-30v-265h-155v700h280q76 0 129.5 -29t81 -78.5t27.5 -111.5q0 -79 -42 -134.5t-121 -73.5l200 -273h-194zM216 395h102q97 0 97 82q0 39 -25.5 60.5t-71.5 21.5h-102v-164z" />
    <glyph glyph-name="S" unicode="S" horiz-adv-x="544" 
d="M507 664l-65 -137q-49 23 -86.5 33.5t-71.5 10.5q-64 0 -64 -41q0 -16 11.5 -28.5t41.5 -30.5l116 -73q67 -41 100 -88t33 -117q0 -101 -66 -154.5t-189 -53.5q-141 0 -261 70l70 139q105 -64 197 -64q42 0 64 14t22 42q0 22 -16 38t-50 37l-107 67q-129 77 -129 200
q0 87 57 137t166 50t227 -51z" />
    <glyph glyph-name="T" unicode="T" horiz-adv-x="534" 
d="M529 555h-184v-555h-155v555h-185v145h524v-145z" />
    <glyph glyph-name="U" unicode="U" horiz-adv-x="706" 
d="M650 283q0 -139 -76 -217.5t-221 -78.5q-146 0 -222 78.5t-76 217.5v417h165v-403q0 -68 34.5 -109t98.5 -41t98.5 41t34.5 109v403h164v-417z" />
    <glyph glyph-name="V" unicode="V" horiz-adv-x="696" 
d="M431 0h-166l-265 700h185l162 -500h2l162 500h185z" />
    <glyph glyph-name="W" unicode="W" horiz-adv-x="1066" 
d="M825 0h-137l-154 454h-2l-154 -454h-137l-235 700h181l125 -450h2l151 450h136l151 -450h2l125 450h181z" />
    <glyph glyph-name="X" unicode="X" horiz-adv-x="722" 
d="M523 0l-162 244l-162 -244h-198l261 369l-237 331h197l139 -207l139 207h197l-237 -331l261 -369h-198z" />
    <glyph glyph-name="Y" unicode="Y" horiz-adv-x="659" 
d="M407 253v-253h-155v251l-252 449h186l142 -293h2l143 293h186z" />
    <glyph glyph-name="Z" unicode="Z" horiz-adv-x="568" 
d="M548 145v-145h-528v145l329 410h-303v145h492v-145l-326 -410h336z" />
    <glyph glyph-name="bracketleft" unicode="[" horiz-adv-x="341" 
d="M331 656h-130v-763h130v-108h-257v979h257v-108z" />
    <glyph glyph-name="backslash" unicode="\" horiz-adv-x="638" 
d="M30 734l106 57l472 -858l-106 -58z" />
    <glyph glyph-name="bracketright" unicode="]" horiz-adv-x="341" 
d="M10 -107h130v763h-130v108h257v-979h-257v108z" />
    <glyph glyph-name="asciicircum" unicode="^" 
d="M516 393h-105l-111 254l-111 -254h-105l144 322h144z" />
    <glyph glyph-name="underscore" unicode="_" horiz-adv-x="533" 
d="M523 -127h-513v112h513v-112z" />
    <glyph glyph-name="grave" unicode="`" horiz-adv-x="380" 
d="M330 553h-118l-162 154h165z" />
    <glyph glyph-name="a" unicode="a" horiz-adv-x="586" 
d="M129 13.5q-50 28.5 -79 84t-29 133.5t29 133.5t79 84t111 28.5q103 0 151 -78h2v63h151v-462h-151v63h-2q-48 -78 -151 -78q-61 0 -111 28.5zM359 152.5q30 29.5 30 78.5t-30 78.5t-77 29.5q-46 0 -76 -29.5t-30 -78.5t30 -78.5t76 -29.5q47 0 77 29.5z" />
    <glyph glyph-name="b" unicode="b" horiz-adv-x="591" 
d="M200 63h-2v-63h-151v700h151v-301h2q48 78 150 78q61 0 111 -28.5t79.5 -84t29.5 -133.5t-29.5 -133.5t-79.5 -84t-111 -28.5q-102 0 -150 78zM385 152.5q30 29.5 30 78.5t-30 78.5t-77 29.5q-46 0 -76 -29.5t-30 -78.5t30 -78.5t76 -29.5q47 0 77 29.5z" />
    <glyph glyph-name="c" unicode="c" horiz-adv-x="451" 
d="M145.5 15.5q-58.5 30.5 -91.5 86.5t-33 129t33 129t91.5 86.5t132.5 30.5q89 0 167 -45l-62 -121q-44 28 -98 28q-47 0 -80 -29t-33 -79t33 -79t80 -29q54 0 98 28l62 -121q-78 -45 -167 -45q-74 0 -132.5 30.5z" />
    <glyph glyph-name="d" unicode="d" horiz-adv-x="591" 
d="M129 13.5q-50 28.5 -79 84t-29 133.5t29 133.5t79 84t111 28.5q103 0 151 -78h2v301h151v-700h-151v63h-2q-48 -78 -151 -78q-61 0 -111 28.5zM359 152.5q30 29.5 30 78.5t-30 78.5t-77 29.5q-46 0 -76 -29.5t-30 -78.5t30 -78.5t76 -29.5q47 0 77 29.5z" />
    <glyph glyph-name="e" unicode="e" horiz-adv-x="511" 
d="M433 413.5q61 -62.5 61 -184.5v-34h-331q7 -42 38.5 -63t79.5 -21q38 0 73 12.5t61 29.5l55 -114q-88 -54 -191 -54q-77 0 -135.5 30.5t-90.5 85.5t-32 128q0 76 31 132t86.5 85.5t126.5 29.5q107 0 168 -62.5zM194.5 348q-25.5 -21 -30.5 -64h184q-1 40 -25.5 62.5
t-62.5 22.5q-40 0 -65.5 -21z" />
    <glyph glyph-name="f" unicode="f" horiz-adv-x="355" 
d="M262.5 552q-19.5 -18 -19.5 -68v-22h98v-126h-98v-336h-151v336h-81v126h81v27q0 114 54.5 167.5t167.5 53.5h31v-140h-13q-50 0 -69.5 -18z" />
    <glyph glyph-name="g" unicode="g" horiz-adv-x="586" 
d="M97 -192l25 141q97 -23 162 -23q58 0 83.5 23.5t25.5 82.5v30h-2q-52 -70 -152 -70q-62 0 -111.5 27t-78 81.5t-28.5 131.5q0 78 29 133.5t79 83.5t111 28q103 0 151 -78h2v63h151v-462q-1 -108 -64.5 -161.5t-184.5 -53.5q-86 0 -198 23zM359 152.5q30 29.5 30 78.5
t-30 78.5t-77 29.5q-46 0 -76 -29.5t-30 -78.5t30 -78.5t76 -29.5q47 0 77 29.5z" />
    <glyph glyph-name="h" unicode="h" horiz-adv-x="563" 
d="M198 401h2q50 76 148 76q80 0 127 -48t47 -143v-286h-151v244q0 100 -84 100q-41 0 -65 -27t-24 -85v-232h-151v700h151v-299z" />
    <glyph glyph-name="i" unicode="i" horiz-adv-x="244" 
d="M47 462h151v-462h-151v462zM203 547h-162v152h162v-152z" />
    <glyph glyph-name="j" unicode="j" horiz-adv-x="244" 
d="M-14 -63q31 0 46 16t15 50v459h151v-458q0 -104 -46.5 -155.5t-140.5 -51.5h-50v140h25zM203 547h-162v152h162v-152z" />
    <glyph glyph-name="k" unicode="k" horiz-adv-x="555" 
d="M355 0l-157 212v-212h-151v700h151v-420l135 182h187l-183 -210l213 -252h-195z" />
    <glyph glyph-name="l" unicode="l" horiz-adv-x="244" 
d="M198 0h-151v700h151v-700z" />
    <glyph glyph-name="m" unicode="m" horiz-adv-x="848" 
d="M46 462h148v-68h2q20 39 57 61t87 22q52 0 89.5 -23.5t55.5 -66.5h2q24 43 64 66.5t91 23.5q74 0 119.5 -47t45.5 -129v-301h-151v251q0 93 -75 93q-82 0 -82 -115v-229h-145v251q0 93 -75 93q-82 0 -82 -115v-229h-151v462z" />
    <glyph glyph-name="n" unicode="n" horiz-adv-x="563" 
d="M474 429q47 -48 47 -143v-286h-150v244q0 51 -21 75.5t-64 24.5q-41 0 -65 -27t-24 -85v-232h-151v462h148v-70h2q24 41 63 63t88 22q80 0 127 -48z" />
    <glyph glyph-name="o" unicode="o" horiz-adv-x="561" 
d="M414 446.5q59 -30.5 92.5 -86.5t33.5 -129t-33.5 -129t-92.5 -86.5t-134 -30.5q-74 0 -133 30.5t-92.5 86.5t-33.5 129t33.5 129t92.5 86.5t133 30.5q75 0 134 -30.5zM203 309q-31 -30 -31 -78t31 -78t77 -30q47 0 77.5 29.5t30.5 78.5t-30.5 78.5t-77.5 29.5
q-46 0 -77 -30z" />
    <glyph glyph-name="p" unicode="p" horiz-adv-x="590" 
d="M46 462h151v-63h2q48 78 151 78q61 0 111 -28.5t79 -84t29 -133.5t-29 -133.5t-79 -84t-111 -28.5q-103 0 -151 78h-2v-263h-151v662zM384 152.5q30 29.5 30 78.5t-30 78.5t-76 29.5q-47 0 -77 -29.5t-30 -78.5t30 -78.5t77 -29.5q46 0 76 29.5z" />
    <glyph glyph-name="q" unicode="q" horiz-adv-x="586" 
d="M393 63h-2q-48 -78 -151 -78q-61 0 -111 28.5t-79 84t-29 133.5t29 133.5t79 84t111 28.5q103 0 151 -78h2v63h151v-662h-151v263zM359 152.5q30 29.5 30 78.5t-30 78.5t-77 29.5q-46 0 -76 -29.5t-30 -78.5t30 -78.5t76 -29.5q47 0 77 29.5z" />
    <glyph glyph-name="r" unicode="r" horiz-adv-x="362" 
d="M352 325h-13q-52 0 -82.5 -14.5t-45 -48t-14.5 -92.5v-170h-151v462h148v-94h2q38 108 153 108h3v-151z" />
    <glyph glyph-name="s" unicode="s" horiz-adv-x="434" 
d="M114 -3.5q-55 11.5 -104 36.5l57 124q91 -53 164 -53q42 0 42 21q0 10 -6 15t-14 7.5t-12 4.5l-81 32q-57 22 -85 57t-28 86q0 72 50 111t148 39q80 0 167 -28l-42 -122q-83 34 -137 34q-21 0 -29 -5t-8 -15t8 -15.5t27 -13.5l80 -30q56 -21 84 -53t28 -88
q0 -80 -54 -118t-150 -38q-50 0 -105 11.5z" />
    <glyph glyph-name="t" unicode="t" horiz-adv-x="362" 
d="M251 336v-139q0 -33 10.5 -45t39.5 -12h17v-140h-63q-74 0 -114.5 38t-40.5 118v180h-90v126h90v185h151v-185h95v-126h-95z" />
    <glyph glyph-name="u" unicode="u" horiz-adv-x="557" 
d="M89.5 33.5q-48.5 48.5 -48.5 143.5v285h156v-252q0 -48 20 -70.5t56 -22.5q41 0 64 30t23 92v223h151v-462h-148v72h-2q-26 -42 -61 -64.5t-84 -22.5q-78 0 -126.5 48.5z" />
    <glyph glyph-name="v" unicode="v" horiz-adv-x="545" 
d="M540 462l-192 -462h-151l-192 462h167l100 -292l101 292h167z" />
    <glyph glyph-name="w" unicode="w" horiz-adv-x="808" 
d="M803 462l-168 -462h-129l-102 270l-101 -270h-129l-169 462h150l86 -271l94 271h139l93 -271l87 271h149z" />
    <glyph glyph-name="x" unicode="x" horiz-adv-x="563" 
d="M282 144l-103 -144h-174l185 242l-168 220h175l85 -122l84 122h175l-168 -220l185 -242h-174z" />
    <glyph glyph-name="y" unicode="y" horiz-adv-x="560" 
d="M555 462l-307 -662h-152l116 244l-207 418h174l108 -255l115 255h153z" />
    <glyph glyph-name="z" unicode="z" horiz-adv-x="451" 
d="M436 127v-127h-420v114l216 221h-200v127h389v-111l-221 -224h236z" />
    <glyph glyph-name="braceleft" unicode="{" horiz-adv-x="416" 
d="M406 639h-30q-44 0 -67 -18.5t-23 -68.5v-114q0 -67 -29.5 -107t-93.5 -55v-2q64 -15 93.5 -55t29.5 -107v-116q0 -50 23 -68.5t67 -18.5h30v-124h-39q-87 0 -145.5 50t-58.5 155v118q0 49 -33.5 74t-94.5 28v130q61 3 94.5 28t33.5 74v116q0 105 58.5 155t145.5 50h39
v-124z" />
    <glyph glyph-name="bar" unicode="|" horiz-adv-x="328" 
d="M218 -215h-108v942h108v-942z" />
    <glyph glyph-name="braceright" unicode="}" horiz-adv-x="416" 
d="M10 -91h31q44 0 67 18.5t23 68.5v116q0 67 29.5 107t92.5 55v2q-63 15 -92.5 55t-29.5 107v114q0 50 -23.5 68.5t-67.5 18.5h-30v124h40q87 0 145 -49.5t58 -155.5v-116q0 -49 33.5 -74t94.5 -28v-130q-61 -3 -94.5 -28t-33.5 -74v-118q0 -106 -58 -155.5t-145 -49.5h-40
v124z" />
    <glyph glyph-name="asciitilde" unicode="~" 
d="M258.5 394.5q26.5 -8.5 63.5 -25.5q29 -14 47.5 -20.5t39.5 -6.5q32 0 54 12t60 41l64 -99q-48 -39 -92 -59t-90 -20q-34 0 -60 8.5t-61 24.5q-30 14 -49 20.5t-42 6.5q-33 0 -55 -11.5t-62 -41.5l-63 98q49 41 92.5 61t91.5 20q35 0 61.5 -8.5z" />
    <glyph glyph-name="exclamdown" unicode="&#xa1;" horiz-adv-x="327" 
d="M84 500h160v-161h-160v161zM110 271h108l32 -471h-173z" />
    <glyph glyph-name="cent" unicode="&#xa2;" horiz-adv-x="441" 
d="M341.5 328.5q-26.5 6.5 -54.5 6.5v-208q27 0 53.5 7t70.5 24v-143q-57 -27 -124 -30v-49h-28v49q-70 3 -124.5 34.5t-85 86.5t-30.5 125t30.5 125t85 86.5t124.5 34.5v55h28v-55q65 -2 124 -29v-144q-43 18 -69.5 24.5zM198 164q23 -27 61 -35v204q-38 -8 -61 -35
t-23 -67t23 -67z" />
    <glyph glyph-name="sterling" unicode="&#xa3;" horiz-adv-x="558" 
d="M220 132h286v-132h-446v111q51 28 81.5 62.5t30.5 73.5q0 24 -10.5 44.5t-33.5 53.5h-88v30h68q-35 57 -35 115q0 95 62 147.5t177 52.5q105 0 167.5 -54t62.5 -166h-155q-2 37 -23 58t-58 21q-35 0 -55.5 -18.5t-20.5 -48.5q0 -24 12 -47t38 -60h154v-30h-134
q29 -49 29 -85q0 -41 -29.5 -70t-81.5 -53z" />
    <glyph glyph-name="currency" unicode="&#xa4;" 
d="M522.5 236.5q-15.5 -40.5 -44.5 -71.5l55 -55l-20 -20l-56 56q-31 -26 -71.5 -40.5t-85.5 -14.5q-92 0 -158 55l-56 -56l-19 20l55 55q-29 31 -44.5 71.5t-15.5 86.5t16 86.5t45 71.5l-56 56l20 19l56 -56q31 26 71.5 40.5t85.5 14.5t85.5 -14.5t71.5 -40.5l56 56l20 -20
l-55 -55q29 -31 44.5 -71.5t15.5 -86.5t-15.5 -86.5zM373.5 250q28.5 29 28.5 73t-28.5 73t-73.5 29t-73.5 -29t-28.5 -73t28.5 -73t73.5 -29t73.5 29z" />
    <glyph glyph-name="yen" unicode="&#xa5;" horiz-adv-x="652" 
d="M446 319h117v-30h-133l-29 -56h162v-30h-164v-203h-146v203h-164v30h162l-29 56h-133v30h117l-186 356h181l125 -284l125 284h181z" />
    <glyph glyph-name="brokenbar" unicode="&#xa6;" horiz-adv-x="328" 
d="M218 339h-108v388h108v-388zM218 -215h-108v396h108v-396z" />
    <glyph glyph-name="section" unicode="&#xa7;" horiz-adv-x="584" 
d="M510.5 179q-23.5 -41 -64.5 -71q36 -43 36 -98q0 -78 -53 -123.5t-149 -45.5q-107 0 -190 57l68 113q30 -20 66 -31.5t68 -11.5q27 0 40.5 10t13.5 26q0 20 -23 35t-75 38q-61 27 -100.5 50.5t-68.5 63t-29 95.5q0 50 23 91t64 71q-36 43 -36 98q0 78 53.5 123.5
t149.5 45.5q105 0 189 -53l-68 -117q-30 20 -66 31.5t-68 11.5q-26 0 -39.5 -10t-13.5 -26q0 -20 23 -35t75 -38q61 -27 100.5 -50.5t68.5 -63t29 -95.5q0 -50 -23.5 -91zM214.5 247q27.5 -20 86.5 -47l36 -17q59 35 59 78q0 29 -27 48t-87 47l-36 17q-26 -15 -42.5 -35
t-16.5 -42q0 -29 27.5 -49z" />
    <glyph glyph-name="dieresis" unicode="&#xa8;" horiz-adv-x="412" 
d="M174 555h-124v135h124v-135zM362 555h-124v135h124v-135z" />
    <glyph glyph-name="copyright" unicode="&#xa9;" horiz-adv-x="828" 
d="M228.5 31.5q-83.5 46.5 -131 129.5t-47.5 189t47.5 189t131 129.5t185.5 46.5t185.5 -46.5t131 -129.5t47.5 -189t-47.5 -189t-131 -129.5t-185.5 -46.5t-185.5 46.5zM559.5 95.5q65.5 36.5 103 102.5t37.5 152t-37.5 152t-103 102.5t-145.5 36.5t-145.5 -36.5
t-103 -102.5t-37.5 -152t37.5 -152t103 -102.5t145.5 -36.5t145.5 36.5zM301.5 156.5q-53.5 29.5 -83.5 81.5t-30 116t30 116t83.5 81.5t120.5 29.5q45 0 81.5 -12.5t70.5 -35.5l-50 -83q-24 15 -49 24t-55 9q-56 0 -91 -35.5t-35 -93.5t35 -93.5t91 -35.5q52 0 104 34
l50 -84q-34 -23 -70.5 -35.5t-81.5 -12.5q-67 0 -120.5 29.5z" />
    <glyph glyph-name="ordfeminine" unicode="&#xaa;" horiz-adv-x="444" 
d="M118.5 357q-33.5 19 -53 56t-19.5 88t19.5 88t53 56t72.5 19q34 0 58.5 -14t37.5 -40h2v44h110v-306h-110v44h-2q-13 -26 -37.5 -40t-58.5 -14q-39 0 -72.5 19zM271 456q18 17 18 45t-18 45t-46 17q-29 0 -47 -17t-18 -45t18 -45t47 -17q28 0 46 17z" />
    <glyph glyph-name="guillemotleft" unicode="&#xab;" horiz-adv-x="578" 
d="M177 238l164 -176h-162l-164 176l164 175h162zM404 238l164 -176h-162l-164 176l164 175h162z" />
    <glyph glyph-name="logicalnot" unicode="&#xac;" 
d="M529 432v-265h-68v199h-390v66h458z" />
    <glyph glyph-name="uni00AD" unicode="&#xad;" horiz-adv-x="366" 
d="M326 198h-286v135h286v-135z" />
    <glyph glyph-name="registered" unicode="&#xae;" horiz-adv-x="560" 
d="M402.5 684q54.5 -31 85.5 -86t31 -124t-31 -124t-85.5 -86t-122.5 -31t-122.5 31t-85.5 86t-31 124t31 124t85.5 86t122.5 31t122.5 -31zM372.5 314.5q40.5 23.5 63 65t22.5 94.5t-22.5 94.5t-63 65t-92.5 23.5t-92.5 -23.5t-63 -65t-22.5 -94.5t22.5 -94.5t63 -65
t92.5 -23.5t92.5 23.5zM370.5 482q-14.5 -21 -41.5 -29l62 -101h-62l-54 96h-24v-96h-53v260h98q41 0 65 -22t24 -58q0 -29 -14.5 -50zM251 498h41q17 0 26.5 8.5t9.5 23.5t-9.5 23.5t-26.5 8.5h-41v-64z" />
    <glyph glyph-name="macron" unicode="&#xaf;" horiz-adv-x="425" 
d="M375 574h-325v99h325v-99z" />
    <glyph glyph-name="degree" unicode="&#xb0;" horiz-adv-x="370" 
d="M289 649.5q41 -40.5 41 -104.5q0 -65 -40.5 -105t-104.5 -40q-63 0 -104 40t-41 105q0 64 41 104.5t104 40.5t104 -40.5zM129.5 602q-22.5 -22 -22.5 -57t22 -57t56 -22t56 22t22 57t-22.5 57t-55.5 22t-55.5 -22z" />
    <glyph glyph-name="plusminus" unicode="&#xb1;" 
d="M334 391h205v-63h-205v-128h-68v128h-205v63h205v128h68v-128zM539 90h-478v66h478v-66z" />
    <glyph glyph-name="uni00B2" unicode="&#xb2;" horiz-adv-x="413" 
d="M38 452l149 130q31 27 44 42.5t13 33.5q0 15 -10.5 23.5t-29.5 8.5q-44 0 -47 -46h-127q2 72 45.5 115.5t133.5 43.5q80 0 123.5 -34.5t43.5 -101.5q0 -43 -21 -77t-64 -67l-70 -55h157v-120h-340v104z" />
    <glyph glyph-name="uni00B3" unicode="&#xb3;" horiz-adv-x="412" 
d="M26 495h123q2 -20 14 -31t40 -11q27 0 41.5 10.5t14.5 28.5q0 23 -20 31.5t-64 8.5v80q69 0 69 44q0 19 -12 28.5t-33 9.5t-33 -11t-14 -29h-120q1 68 44 108.5t130 40.5q77 0 122 -33t45 -88q0 -39 -22.5 -65t-60.5 -34v-2q47 -6 72 -33.5t25 -72.5q0 -61 -44.5 -99
t-131.5 -38q-181 0 -185 157z" />
    <glyph glyph-name="acute" unicode="&#xb4;" horiz-adv-x="380" 
d="M168 553h-118l115 154h165z" />
    <glyph glyph-name="uni00B5" unicode="&#xb5;" 
d="M535 462v-462h-148v72h-2q-26 -42 -61 -64.5t-84 -22.5q-17 0 -25 1v-186h-146v328q-4 20 -4 49v285h156v-252q0 -48 20 -70.5t56 -22.5q41 0 64 30t23 92v223h151z" />
    <glyph glyph-name="paragraph" unicode="&#xb6;" horiz-adv-x="663" 
d="M613 589h-65v-695h-107v695h-90v-695h-107v416q-55 0 -99 25t-69.5 70.5t-25.5 103.5q0 56 26.5 99.5t73 67.5t104.5 24h359v-111z" />
    <glyph glyph-name="periodcentered" unicode="&#xb7;" horiz-adv-x="243" 
d="M201 301h-160v161h160v-161z" />
    <glyph glyph-name="cedilla" unicode="&#xb8;" horiz-adv-x="284" 
d="M145 -38q45 -8 67 -21t22 -41q0 -25 -20.5 -43.5t-52 -32t-95.5 -36.5l-16 37q44 19 62.5 30t18.5 23q0 13 -12 19.5t-44 13.5l48 128h54z" />
    <glyph glyph-name="uni00B9" unicode="&#xb9;" horiz-adv-x="257" 
d="M68 670h-18v123h146v-445h-128v322z" />
    <glyph glyph-name="ordmasculine" unicode="&#xba;" horiz-adv-x="437" 
d="M343.5 618.5q48.5 -45.5 48.5 -117.5t-48.5 -117.5t-124.5 -45.5t-124.5 45.5t-48.5 117.5t48.5 117.5t124.5 45.5t124.5 -45.5zM174.5 545.5q-17.5 -16.5 -17.5 -44.5t17.5 -44.5t44.5 -16.5t44.5 16.5t17.5 44.5t-17.5 44.5t-44.5 16.5t-44.5 -16.5z" />
    <glyph glyph-name="guillemotright" unicode="&#xbb;" horiz-adv-x="578" 
d="M172 413l164 -175l-164 -176h-162l164 176l-164 175h162zM399 413l164 -175l-164 -176h-162l164 176l-164 175h162z" />
    <glyph glyph-name="onequarter" unicode="&#xbc;" horiz-adv-x="682" 
d="M152 289h-80v305h-27v81h107v-386zM459 675h78l-396 -675h-78zM657 65h-37v-65h-77v65h-200v65l199 256h78v-251h37v-70zM543 135v144h-2l-114 -144h116z" />
    <glyph glyph-name="onehalf" unicode="&#xbd;" horiz-adv-x="696" 
d="M152 289h-80v305h-27v81h107v-386zM459 675h78l-396 -675h-78zM633 364.5q35 -30.5 35 -82.5q0 -35 -16.5 -64.5t-49.5 -60.5l-82 -79h154v-78h-277l-1 64l138 132q25 25 37 42.5t12 35.5q0 21 -13.5 33.5t-37.5 12.5q-25 0 -41.5 -14t-17.5 -42h-80q1 57 37 94t106 37
q62 0 97 -30.5z" />
    <glyph glyph-name="threequarters" unicode="&#xbe;" horiz-adv-x="801" 
d="M271 656q35 -28 35 -72q0 -35 -19.5 -58.5t-54.5 -31.5v-1q41 -7 64.5 -29.5t23.5 -67.5q0 -51 -36 -83.5t-106 -32.5q-69 0 -107 32.5t-41 93.5h81q2 -24 18.5 -38.5t47.5 -14.5q28 0 43.5 12.5t15.5 36.5q0 27 -21.5 38t-69.5 11v71q78 -2 78 47q0 44 -53 44
q-24 0 -39.5 -12.5t-16.5 -35.5h-77q2 54 37 86.5t101 32.5q61 0 96 -28zM578 675h78l-396 -675h-78zM776 65h-37v-65h-77v65h-200v65l199 256h78v-251h37v-70zM662 135v144h-2l-114 -144h116z" />
    <glyph glyph-name="questiondown" unicode="&#xbf;" horiz-adv-x="440" 
d="M151 500h160v-161h-160v161zM63.5 -161.5q-52.5 53.5 -52.5 135.5q0 47 18 80.5t51 68.5q5 5 29 29.5t36 50.5t12 54v14h149v-29q0 -57 -23 -95t-64 -79q-32 -32 -44.5 -48t-12.5 -36q0 -27 15.5 -41.5t45.5 -14.5q34 0 53 20t19 52h146q0 -100 -57 -157.5t-167 -57.5
q-101 0 -153.5 53.5z" />
    <glyph glyph-name="Agrave" unicode="&#xc0;" horiz-adv-x="716" 
d="M493 142h-269l-50 -142h-174l276 700h164l276 -700h-173zM445 280l-87 248l-86 -248h173zM416 743h-108l-172 120h165z" />
    <glyph glyph-name="Aacute" unicode="&#xc1;" horiz-adv-x="716" 
d="M493 142h-269l-50 -142h-174l276 700h164l276 -700h-173zM445 280l-87 248l-86 -248h173zM409 743h-109l115 120h165z" />
    <glyph glyph-name="Acircumflex" unicode="&#xc2;" horiz-adv-x="716" 
d="M493 142h-269l-50 -142h-174l276 700h164l276 -700h-173zM445 280l-87 248l-86 -248h173zM549 743h-125l-67 62l-67 -62h-125l120 120h144z" />
    <glyph glyph-name="Atilde" unicode="&#xc3;" horiz-adv-x="716" 
d="M493 142h-269l-50 -142h-174l276 700h164l276 -700h-173zM445 280l-87 248l-86 -248h173zM393.5 743.5q-24.5 5.5 -59.5 15.5q-54 15 -72 15q-17 0 -30 -9.5t-24 -28.5l-47 15q16 58 42.5 89t73.5 31q21 0 45.5 -5.5t59.5 -15.5q53 -15 72 -15q31 0 54 39l47 -16
q-17 -58 -43.5 -89t-72.5 -31q-21 0 -45.5 5.5z" />
    <glyph glyph-name="Adieresis" unicode="&#xc4;" horiz-adv-x="716" 
d="M493 142h-269l-50 -142h-174l276 700h164l276 -700h-173zM445 280l-87 248l-86 -248h173zM316 743h-133v114h133v-114zM534 743h-134v114h134v-114z" />
    <glyph glyph-name="Aring" unicode="&#xc5;" horiz-adv-x="716" 
d="M493 142h-269l-50 -142h-174l266 676q-29 32 -29 79q0 51 34 84t87 33q52 0 86 -33t34 -84q0 -45 -29 -79l267 -676h-173zM316.5 795q-15.5 -16 -15.5 -40t15.5 -39.5t41.5 -15.5q25 0 41 15.5t16 39.5t-16 40t-41 16q-26 0 -41.5 -16zM445 280l-87 248l-86 -248h173z
" />
    <glyph glyph-name="AE" unicode="&#xc6;" horiz-adv-x="999" 
d="M967 141v-141h-412v142h-267l-86 -142h-202l463 700h500v-141h-258v-114h231v-141h-231v-163h262zM555 280v303l-183 -303h183z" />
    <glyph glyph-name="Ccedilla" unicode="&#xc7;" horiz-adv-x="667" 
d="M418 -15l-10 -23q45 -8 67 -21t22 -41q0 -25 -20.5 -43.5t-52 -32t-95.5 -36.5l-16 37q44 19 62.5 30t18.5 23q0 13 -12 19.5t-44 13.5l28 75q-101 8 -179 55t-122 126.5t-44 182.5q0 109 49.5 192t137 128t197.5 45q140 0 251 -78l-84 -136q-81 54 -167 54
q-61 0 -109.5 -25t-76 -71.5t-27.5 -108.5t27.5 -108.5t76 -71.5t109.5 -25q86 0 167 54l84 -136q-107 -74 -238 -78z" />
    <glyph glyph-name="Egrave" unicode="&#xc8;" horiz-adv-x="530" 
d="M499 145v-145h-438v700h433v-145h-278v-110h250v-141h-250v-159h283zM350 743h-108l-172 120h165z" />
    <glyph glyph-name="Eacute" unicode="&#xc9;" horiz-adv-x="530" 
d="M499 145v-145h-438v700h433v-145h-278v-110h250v-141h-250v-159h283zM343 743h-109l115 120h165z" />
    <glyph glyph-name="Ecircumflex" unicode="&#xca;" horiz-adv-x="530" 
d="M499 145v-145h-438v700h433v-145h-278v-110h250v-141h-250v-159h283zM483 743h-125l-67 62l-67 -62h-125l120 120h144z" />
    <glyph glyph-name="Edieresis" unicode="&#xcb;" horiz-adv-x="530" 
d="M499 145v-145h-438v700h433v-145h-278v-110h250v-141h-250v-159h283zM250 743h-133v114h133v-114zM468 743h-134v114h134v-114z" />
    <glyph glyph-name="Igrave" unicode="&#xcc;" horiz-adv-x="277" 
d="M216 0h-155v700h155v-700zM196 743h-108l-172 120h165z" />
    <glyph glyph-name="Iacute" unicode="&#xcd;" horiz-adv-x="277" 
d="M216 0h-155v700h155v-700zM189 743h-109l115 120h165z" />
    <glyph glyph-name="Icircumflex" unicode="&#xce;" horiz-adv-x="277" 
d="M216 0h-155v700h155v-700zM329 743h-125l-67 62l-67 -62h-125l120 120h144z" />
    <glyph glyph-name="Idieresis" unicode="&#xcf;" horiz-adv-x="277" 
d="M216 0h-155v700h155v-700zM96 743h-133v114h133v-114zM314 743h-134v114h134v-114z" />
    <glyph glyph-name="Eth" unicode="&#xd0;" horiz-adv-x="684" 
d="M481 657.5q86 -42.5 134 -121.5t48 -186t-48 -186t-134 -121.5t-196 -42.5h-223v293h-71v126h71v281h223q110 0 196 -42.5zM441 196.5q55 55.5 55 153.5q0 99 -55 154t-143 55h-81v-140h131v-126h-131v-152h81q88 0 143 55.5z" />
    <glyph glyph-name="Ntilde" unicode="&#xd1;" horiz-adv-x="744" 
d="M683 0h-132l-334 431h-1v-431h-155v700h131l335 -433h1v433h155v-700zM407.5 743.5q-24.5 5.5 -59.5 15.5q-54 15 -72 15q-17 0 -30 -9.5t-24 -28.5l-47 15q16 58 42.5 89t73.5 31q21 0 45.5 -5.5t59.5 -15.5q53 -15 72 -15q31 0 54 39l47 -16q-17 -58 -43.5 -89
t-72.5 -31q-21 0 -45.5 5.5z" />
    <glyph glyph-name="Ograve" unicode="&#xd2;" horiz-adv-x="780" 
d="M578 669q84 -46 132.5 -129t48.5 -190t-48.5 -190t-132.5 -129t-188 -46t-188 46t-132.5 129t-48.5 190t48.5 190t132.5 129t188 46t188 -46zM289 530q-45 -25 -71 -71.5t-26 -108.5t26 -108.5t71 -71.5t101 -25t101 25t71 71.5t26 108.5t-26 108.5t-71 71.5t-101 25
t-101 -25zM448 743h-108l-172 120h165z" />
    <glyph glyph-name="Oacute" unicode="&#xd3;" horiz-adv-x="780" 
d="M578 669q84 -46 132.5 -129t48.5 -190t-48.5 -190t-132.5 -129t-188 -46t-188 46t-132.5 129t-48.5 190t48.5 190t132.5 129t188 46t188 -46zM289 530q-45 -25 -71 -71.5t-26 -108.5t26 -108.5t71 -71.5t101 -25t101 25t71 71.5t26 108.5t-26 108.5t-71 71.5t-101 25
t-101 -25zM441 743h-109l115 120h165z" />
    <glyph glyph-name="Ocircumflex" unicode="&#xd4;" horiz-adv-x="780" 
d="M578 669q84 -46 132.5 -129t48.5 -190t-48.5 -190t-132.5 -129t-188 -46t-188 46t-132.5 129t-48.5 190t48.5 190t132.5 129t188 46t188 -46zM289 530q-45 -25 -71 -71.5t-26 -108.5t26 -108.5t71 -71.5t101 -25t101 25t71 71.5t26 108.5t-26 108.5t-71 71.5t-101 25
t-101 -25zM581 743h-125l-67 62l-67 -62h-125l120 120h144z" />
    <glyph glyph-name="Otilde" unicode="&#xd5;" horiz-adv-x="780" 
d="M578 669q84 -46 132.5 -129t48.5 -190t-48.5 -190t-132.5 -129t-188 -46t-188 46t-132.5 129t-48.5 190t48.5 190t132.5 129t188 46t188 -46zM289 530q-45 -25 -71 -71.5t-26 -108.5t26 -108.5t71 -71.5t101 -25t101 25t71 71.5t26 108.5t-26 108.5t-71 71.5t-101 25
t-101 -25zM425.5 743.5q-24.5 5.5 -59.5 15.5q-54 15 -72 15q-17 0 -30 -9.5t-24 -28.5l-47 15q16 58 42.5 89t73.5 31q21 0 45.5 -5.5t59.5 -15.5q53 -15 72 -15q31 0 54 39l47 -16q-17 -58 -43.5 -89t-72.5 -31q-21 0 -45.5 5.5z" />
    <glyph glyph-name="Odieresis" unicode="&#xd6;" horiz-adv-x="780" 
d="M578 669q84 -46 132.5 -129t48.5 -190t-48.5 -190t-132.5 -129t-188 -46t-188 46t-132.5 129t-48.5 190t48.5 190t132.5 129t188 46t188 -46zM289 530q-45 -25 -71 -71.5t-26 -108.5t26 -108.5t71 -71.5t101 -25t101 25t71 71.5t26 108.5t-26 108.5t-71 71.5t-101 25
t-101 -25zM348 743h-133v114h133v-114zM566 743h-134v114h134v-114z" />
    <glyph glyph-name="multiply" unicode="&#xd7;" 
d="M522 473l-174 -175l174 -175l-47 -47l-175 174l-175 -174l-47 47l174 175l-174 175l47 47l175 -174l175 174z" />
    <glyph glyph-name="Oslash" unicode="&#xd8;" horiz-adv-x="780" 
d="M726 509.5q33 -72.5 33 -159.5q0 -107 -48.5 -190t-132.5 -129t-188 -46q-113 0 -201 54l-40 -53l-43 30l40 53q-59 49 -92 121.5t-33 159.5q0 107 48.5 190t132.5 129t188 46q113 0 201 -54l40 53l43 -30l-40 -53q59 -49 92 -121.5zM247 203l245 326q-44 26 -102 26
q-56 0 -101 -25t-71 -71.5t-26 -108.5q0 -92 55 -147zM491 170q45 25 71 71.5t26 108.5q0 92 -55 147l-245 -326q44 -26 102 -26q56 0 101 25z" />
    <glyph glyph-name="Ugrave" unicode="&#xd9;" horiz-adv-x="706" 
d="M650 283q0 -139 -76 -217.5t-221 -78.5q-146 0 -222 78.5t-76 217.5v417h165v-403q0 -68 34.5 -109t98.5 -41t98.5 41t34.5 109v403h164v-417zM411 743h-108l-172 120h165z" />
    <glyph glyph-name="Uacute" unicode="&#xda;" horiz-adv-x="706" 
d="M650 283q0 -139 -76 -217.5t-221 -78.5q-146 0 -222 78.5t-76 217.5v417h165v-403q0 -68 34.5 -109t98.5 -41t98.5 41t34.5 109v403h164v-417zM404 743h-109l115 120h165z" />
    <glyph glyph-name="Ucircumflex" unicode="&#xdb;" horiz-adv-x="706" 
d="M650 283q0 -139 -76 -217.5t-221 -78.5q-146 0 -222 78.5t-76 217.5v417h165v-403q0 -68 34.5 -109t98.5 -41t98.5 41t34.5 109v403h164v-417zM544 743h-125l-67 62l-67 -62h-125l120 120h144z" />
    <glyph glyph-name="Udieresis" unicode="&#xdc;" horiz-adv-x="706" 
d="M650 283q0 -139 -76 -217.5t-221 -78.5q-146 0 -222 78.5t-76 217.5v417h165v-403q0 -68 34.5 -109t98.5 -41t98.5 41t34.5 109v403h164v-417zM311 743h-133v114h133v-114zM529 743h-134v114h134v-114z" />
    <glyph glyph-name="Yacute" unicode="&#xdd;" horiz-adv-x="659" 
d="M407 253v-253h-155v251l-252 449h186l142 -293h2l143 293h186zM380 743h-109l115 120h165z" />
    <glyph glyph-name="Thorn" unicode="&#xde;" horiz-adv-x="603" 
d="M217 587h101q130 0 197 -65t67 -170q0 -106 -67 -171.5t-197 -65.5h-101v-115h-156v700h156v-113zM217 449v-196h101q51 0 80.5 25t29.5 74q0 48 -29.5 72.5t-80.5 24.5h-101z" />
    <glyph glyph-name="germandbls" unicode="&#xdf;" horiz-adv-x="594" 
d="M524.5 344.5q48.5 -48.5 48.5 -132.5q0 -105 -74.5 -161t-209.5 -56h-49v130h40q76 0 108.5 24t32.5 76q0 61 -41 86.5t-123 25.5v112q105 0 105 72q0 33 -21 49.5t-55 16.5q-42 0 -65 -23.5t-23 -70.5v-623h-151v610q0 109 61 172t185 63q105 0 162 -45t57 -122
q0 -57 -32.5 -95.5t-99.5 -51.5v-2q96 -6 144.5 -54.5z" />
    <glyph glyph-name="agrave" unicode="&#xe0;" horiz-adv-x="586" 
d="M129 13.5q-50 28.5 -79 84t-29 133.5t29 133.5t79 84t111 28.5q103 0 151 -78h2v63h151v-462h-151v63h-2q-48 -78 -151 -78q-61 0 -111 28.5zM359 152.5q30 29.5 30 78.5t-30 78.5t-77 29.5q-46 0 -76 -29.5t-30 -78.5t30 -78.5t76 -29.5q47 0 77 29.5zM336 553h-118
l-162 154h165z" />
    <glyph glyph-name="aacute" unicode="&#xe1;" horiz-adv-x="586" 
d="M129 13.5q-50 28.5 -79 84t-29 133.5t29 133.5t79 84t111 28.5q103 0 151 -78h2v63h151v-462h-151v63h-2q-48 -78 -151 -78q-61 0 -111 28.5zM359 152.5q30 29.5 30 78.5t-30 78.5t-77 29.5q-46 0 -76 -29.5t-30 -78.5t30 -78.5t76 -29.5q47 0 77 29.5zM333 553h-118
l115 154h165z" />
    <glyph glyph-name="acircumflex" unicode="&#xe2;" horiz-adv-x="586" 
d="M129 13.5q-50 28.5 -79 84t-29 133.5t29 133.5t79 84t111 28.5q103 0 151 -78h2v63h151v-462h-151v63h-2q-48 -78 -151 -78q-61 0 -111 28.5zM359 152.5q30 29.5 30 78.5t-30 78.5t-77 29.5q-46 0 -76 -29.5t-30 -78.5t30 -78.5t76 -29.5q47 0 77 29.5zM471 553h-125
l-68 82l-67 -82h-125l122 154h141z" />
    <glyph glyph-name="atilde" unicode="&#xe3;" horiz-adv-x="586" 
d="M129 13.5q-50 28.5 -79 84t-29 133.5t29 133.5t79 84t111 28.5q103 0 151 -78h2v63h151v-462h-151v63h-2q-48 -78 -151 -78q-61 0 -111 28.5zM359 152.5q30 29.5 30 78.5t-30 78.5t-77 29.5q-46 0 -76 -29.5t-30 -78.5t30 -78.5t76 -29.5q47 0 77 29.5zM243.5 700
q23.5 -7 55.5 -20q19 -7 37 -13t29 -6q32 0 54 46l57 -19q-17 -63 -44 -98t-72 -35q-22 0 -45 7t-55 20q-49 19 -67 19q-17 0 -30 -12t-24 -34l-56 19q16 63 43 98t73 35q21 0 44.5 -7z" />
    <glyph glyph-name="adieresis" unicode="&#xe4;" horiz-adv-x="586" 
d="M129 13.5q-50 28.5 -79 84t-29 133.5t29 133.5t79 84t111 28.5q103 0 151 -78h2v63h151v-462h-151v63h-2q-48 -78 -151 -78q-61 0 -111 28.5zM359 152.5q30 29.5 30 78.5t-30 78.5t-77 29.5q-46 0 -76 -29.5t-30 -78.5t30 -78.5t76 -29.5q47 0 77 29.5zM247 555h-124v135
h124v-135zM435 555h-124v135h124v-135z" />
    <glyph glyph-name="aring" unicode="&#xe5;" horiz-adv-x="586" 
d="M129 13.5q-50 28.5 -79 84t-29 133.5t29 133.5t79 84t111 28.5q103 0 151 -78h2v63h151v-462h-151v63h-2q-48 -78 -151 -78q-61 0 -111 28.5zM359 152.5q30 29.5 30 78.5t-30 78.5t-77 29.5q-46 0 -76 -29.5t-30 -78.5t30 -78.5t76 -29.5q47 0 77 29.5zM364 714
q34 -33 34 -84t-34 -84t-86 -33t-86 33t-34 84t34 84t86 33t86 -33zM237.5 669.5q-15.5 -15.5 -15.5 -39.5t15.5 -39.5t40.5 -15.5t40.5 15.5t15.5 39.5t-15.5 39.5t-40.5 15.5t-40.5 -15.5z" />
    <glyph glyph-name="ae" unicode="&#xe6;" horiz-adv-x="828" 
d="M74 29.5q-50 44.5 -50 120.5q0 75 49 118.5t134 43.5q42 0 78 -11.5t58 -30.5h2v20q0 29 -24.5 50.5t-78.5 21.5q-48 0 -132 -20l-30 115q95 20 163 20q64 0 105 -18.5t64 -66.5h2q27 39 71.5 61.5t103.5 22.5q102 0 162 -62.5t60 -184.5v-34h-328q10 -43 40.5 -63.5
t75.5 -20.5q38 0 73 12t60 30l55 -114q-88 -54 -188 -54q-67 0 -115.5 24t-76.5 69h-2q-36 -49 -86 -71t-108 -22q-87 0 -137 44.5zM665 284q-1 40 -25.5 62.5t-61.5 22.5q-36 0 -62.5 -21.5t-31.5 -63.5h181zM325 113.5q23 15.5 23 42.5t-23 43t-58 16t-56 -16t-21 -43
t20.5 -42.5t55.5 -15.5q36 0 59 15.5z" />
    <glyph glyph-name="ccedilla" unicode="&#xe7;" horiz-adv-x="451" 
d="M300 -14l-10 -24q45 -8 67 -21t22 -41q0 -25 -20.5 -43.5t-52 -32t-95.5 -36.5l-16 37q44 19 62.5 30t18.5 23q0 13 -12 19.5t-44 13.5l28 75q-66 6 -117.5 38t-80.5 85.5t-29 121.5q0 73 33 129t91.5 86.5t132.5 30.5q89 0 167 -45l-62 -121q-44 28 -98 28
q-47 0 -80 -29t-33 -79t33 -79t80 -29q54 0 98 28l62 -121q-67 -40 -145 -44z" />
    <glyph glyph-name="egrave" unicode="&#xe8;" horiz-adv-x="511" 
d="M433 413.5q61 -62.5 61 -184.5v-34h-331q7 -42 38.5 -63t79.5 -21q38 0 73 12.5t61 29.5l55 -114q-88 -54 -191 -54q-77 0 -135.5 30.5t-90.5 85.5t-32 128q0 76 31 132t86.5 85.5t126.5 29.5q107 0 168 -62.5zM194.5 348q-25.5 -21 -30.5 -64h184q-1 40 -25.5 62.5
t-62.5 22.5q-40 0 -65.5 -21zM322 553h-118l-162 154h165z" />
    <glyph glyph-name="eacute" unicode="&#xe9;" horiz-adv-x="511" 
d="M433 413.5q61 -62.5 61 -184.5v-34h-331q7 -42 38.5 -63t79.5 -21q38 0 73 12.5t61 29.5l55 -114q-88 -54 -191 -54q-77 0 -135.5 30.5t-90.5 85.5t-32 128q0 76 31 132t86.5 85.5t126.5 29.5q107 0 168 -62.5zM194.5 348q-25.5 -21 -30.5 -64h184q-1 40 -25.5 62.5
t-62.5 22.5q-40 0 -65.5 -21zM319 553h-118l115 154h165z" />
    <glyph glyph-name="ecircumflex" unicode="&#xea;" horiz-adv-x="511" 
d="M433 413.5q61 -62.5 61 -184.5v-34h-331q7 -42 38.5 -63t79.5 -21q38 0 73 12.5t61 29.5l55 -114q-88 -54 -191 -54q-77 0 -135.5 30.5t-90.5 85.5t-32 128q0 76 31 132t86.5 85.5t126.5 29.5q107 0 168 -62.5zM194.5 348q-25.5 -21 -30.5 -64h184q-1 40 -25.5 62.5
t-62.5 22.5q-40 0 -65.5 -21zM457 553h-125l-68 82l-67 -82h-125l122 154h141z" />
    <glyph glyph-name="edieresis" unicode="&#xeb;" horiz-adv-x="511" 
d="M433 413.5q61 -62.5 61 -184.5v-34h-331q7 -42 38.5 -63t79.5 -21q38 0 73 12.5t61 29.5l55 -114q-88 -54 -191 -54q-77 0 -135.5 30.5t-90.5 85.5t-32 128q0 76 31 132t86.5 85.5t126.5 29.5q107 0 168 -62.5zM194.5 348q-25.5 -21 -30.5 -64h184q-1 40 -25.5 62.5
t-62.5 22.5q-40 0 -65.5 -21zM233 555h-124v135h124v-135zM421 555h-124v135h124v-135z" />
    <glyph glyph-name="igrave" unicode="&#xec;" horiz-adv-x="244" 
d="M181 553h-118l-93 154h136zM47 462h151v-462h-151v462z" />
    <glyph glyph-name="iacute" unicode="&#xed;" horiz-adv-x="244" 
d="M138 707h136l-93 -154h-118zM47 462h151v-462h-151v462z" />
    <glyph glyph-name="icircumflex" unicode="&#xee;" horiz-adv-x="244" 
d="M280 553h-116l-42 91l-42 -91h-116l87 154h142zM47 462h151v-462h-151v462z" />
    <glyph glyph-name="idieresis" unicode="&#xef;" horiz-adv-x="244" 
d="M105 555h-105v135h105v-135zM244 555h-105v135h105v-135zM47 462h151v-462h-151v462z" />
    <glyph glyph-name="eth" unicode="&#xf0;" horiz-adv-x="567" 
d="M536 309q0 -114 -37.5 -186.5t-97.5 -105t-131 -32.5q-77 0 -133 32.5t-86 88.5t-30 126q0 75 31.5 131t83 85t110.5 29q51 0 91.5 -20.5t65.5 -64.5h2q-14 125 -104 189l-91 -81l-61 65l66 58q-41 15 -102 23l24 115q101 -12 180 -48l77 68l60 -66l-58 -51
q140 -112 140 -355zM354 152q32 31 32 80q0 51 -31.5 81t-81.5 30t-80.5 -30.5t-30.5 -80.5t31.5 -80.5t80.5 -30.5q48 0 80 31z" />
    <glyph glyph-name="ntilde" unicode="&#xf1;" horiz-adv-x="563" 
d="M474 429q47 -48 47 -143v-286h-150v244q0 51 -21 75.5t-64 24.5q-41 0 -65 -27t-24 -85v-232h-151v462h148v-70h2q24 41 63 63t88 22q80 0 127 -48zM253.5 700q23.5 -7 55.5 -20q19 -7 37 -13t29 -6q32 0 54 46l57 -19q-17 -63 -44 -98t-72 -35q-22 0 -45 7t-55 20
q-49 19 -67 19q-17 0 -30 -12t-24 -34l-56 19q16 63 43 98t73 35q21 0 44.5 -7z" />
    <glyph glyph-name="ograve" unicode="&#xf2;" horiz-adv-x="561" 
d="M414 446.5q59 -30.5 92.5 -86.5t33.5 -129t-33.5 -129t-92.5 -86.5t-134 -30.5q-74 0 -133 30.5t-92.5 86.5t-33.5 129t33.5 129t92.5 86.5t133 30.5q75 0 134 -30.5zM203 309q-31 -30 -31 -78t31 -78t77 -30q47 0 77.5 29.5t30.5 78.5t-30.5 78.5t-77.5 29.5
q-46 0 -77 -30zM337 553h-118l-162 154h165z" />
    <glyph glyph-name="oacute" unicode="&#xf3;" horiz-adv-x="561" 
d="M414 446.5q59 -30.5 92.5 -86.5t33.5 -129t-33.5 -129t-92.5 -86.5t-134 -30.5q-74 0 -133 30.5t-92.5 86.5t-33.5 129t33.5 129t92.5 86.5t133 30.5q75 0 134 -30.5zM203 309q-31 -30 -31 -78t31 -78t77 -30q47 0 77.5 29.5t30.5 78.5t-30.5 78.5t-77.5 29.5
q-46 0 -77 -30zM334 553h-118l115 154h165z" />
    <glyph glyph-name="ocircumflex" unicode="&#xf4;" horiz-adv-x="561" 
d="M414 446.5q59 -30.5 92.5 -86.5t33.5 -129t-33.5 -129t-92.5 -86.5t-134 -30.5q-74 0 -133 30.5t-92.5 86.5t-33.5 129t33.5 129t92.5 86.5t133 30.5q75 0 134 -30.5zM203 309q-31 -30 -31 -78t31 -78t77 -30q47 0 77.5 29.5t30.5 78.5t-30.5 78.5t-77.5 29.5
q-46 0 -77 -30zM472 553h-125l-68 82l-67 -82h-125l122 154h141z" />
    <glyph glyph-name="otilde" unicode="&#xf5;" horiz-adv-x="561" 
d="M414 446.5q59 -30.5 92.5 -86.5t33.5 -129t-33.5 -129t-92.5 -86.5t-134 -30.5q-74 0 -133 30.5t-92.5 86.5t-33.5 129t33.5 129t92.5 86.5t133 30.5q75 0 134 -30.5zM203 309q-31 -30 -31 -78t31 -78t77 -30q47 0 77.5 29.5t30.5 78.5t-30.5 78.5t-77.5 29.5
q-46 0 -77 -30zM244.5 700q23.5 -7 55.5 -20q19 -7 37 -13t29 -6q32 0 54 46l57 -19q-17 -63 -44 -98t-72 -35q-22 0 -45 7t-55 20q-49 19 -67 19q-17 0 -30 -12t-24 -34l-56 19q16 63 43 98t73 35q21 0 44.5 -7z" />
    <glyph glyph-name="odieresis" unicode="&#xf6;" horiz-adv-x="561" 
d="M414 446.5q59 -30.5 92.5 -86.5t33.5 -129t-33.5 -129t-92.5 -86.5t-134 -30.5q-74 0 -133 30.5t-92.5 86.5t-33.5 129t33.5 129t92.5 86.5t133 30.5q75 0 134 -30.5zM203 309q-31 -30 -31 -78t31 -78t77 -30q47 0 77.5 29.5t30.5 78.5t-30.5 78.5t-77.5 29.5
q-46 0 -77 -30zM248 555h-124v135h124v-135zM436 555h-124v135h124v-135z" />
    <glyph glyph-name="divide" unicode="&#xf7;" 
d="M348 415h-96v98h96v-98zM559 267h-518v63h518v-63zM348 84h-96v98h96v-98z" />
    <glyph glyph-name="oslash" unicode="&#xf8;" horiz-adv-x="561" 
d="M520 333.5q20 -46.5 20 -102.5q0 -73 -33.5 -129t-92.5 -86.5t-134 -30.5q-88 0 -156 44l-38 -43l-27 23l37 42q-36 33 -55.5 79t-19.5 101q0 73 33.5 129t92.5 86.5t133 30.5q87 0 154 -42l37 42l27 -24l-35 -40q37 -33 57 -79.5zM194 163l143 162q-25 14 -57 14
q-46 0 -77 -30t-31 -78q0 -41 22 -68zM357.5 152.5q30.5 29.5 30.5 78.5q0 41 -24 71l-143 -163q27 -16 59 -16q47 0 77.5 29.5z" />
    <glyph glyph-name="ugrave" unicode="&#xf9;" horiz-adv-x="557" 
d="M89.5 33.5q-48.5 48.5 -48.5 143.5v285h156v-252q0 -48 20 -70.5t56 -22.5q41 0 64 30t23 92v223h151v-462h-148v72h-2q-26 -42 -61 -64.5t-84 -22.5q-78 0 -126.5 48.5zM338 553h-118l-162 154h165z" />
    <glyph glyph-name="uacute" unicode="&#xfa;" horiz-adv-x="557" 
d="M89.5 33.5q-48.5 48.5 -48.5 143.5v285h156v-252q0 -48 20 -70.5t56 -22.5q41 0 64 30t23 92v223h151v-462h-148v72h-2q-26 -42 -61 -64.5t-84 -22.5q-78 0 -126.5 48.5zM335 553h-118l115 154h165z" />
    <glyph glyph-name="ucircumflex" unicode="&#xfb;" horiz-adv-x="557" 
d="M89.5 33.5q-48.5 48.5 -48.5 143.5v285h156v-252q0 -48 20 -70.5t56 -22.5q41 0 64 30t23 92v223h151v-462h-148v72h-2q-26 -42 -61 -64.5t-84 -22.5q-78 0 -126.5 48.5zM473 553h-125l-68 82l-67 -82h-125l122 154h141z" />
    <glyph glyph-name="udieresis" unicode="&#xfc;" horiz-adv-x="557" 
d="M89.5 33.5q-48.5 48.5 -48.5 143.5v285h156v-252q0 -48 20 -70.5t56 -22.5q41 0 64 30t23 92v223h151v-462h-148v72h-2q-26 -42 -61 -64.5t-84 -22.5q-78 0 -126.5 48.5zM249 555h-124v135h124v-135zM437 555h-124v135h124v-135z" />
    <glyph glyph-name="yacute" unicode="&#xfd;" horiz-adv-x="560" 
d="M555 462l-307 -662h-152l116 244l-207 418h174l108 -255l115 255h153zM342 553h-118l115 154h165z" />
    <glyph glyph-name="thorn" unicode="&#xfe;" horiz-adv-x="590" 
d="M47 700h151v-301h2q48 78 150 78q61 0 111 -28.5t79.5 -84t29.5 -133.5t-29.5 -133.5t-79.5 -84t-111 -28.5q-102 0 -150 78h-2v-263h-151v900zM385 152.5q30 29.5 30 78.5t-30 78.5t-77 29.5q-46 0 -76 -29.5t-30 -78.5t30 -78.5t76 -29.5q47 0 77 29.5z" />
    <glyph glyph-name="ydieresis" unicode="&#xff;" horiz-adv-x="560" 
d="M555 462l-307 -662h-152l116 244l-207 418h174l108 -255l115 255h153zM256 555h-124v135h124v-135zM444 555h-124v135h124v-135z" />
    <glyph glyph-name="Amacron" unicode="&#x100;" horiz-adv-x="716" 
d="M493 142h-269l-50 -142h-174l276 700h164l276 -700h-173zM445 280l-87 248l-86 -248h173zM520 749h-324v95h324v-95z" />
    <glyph glyph-name="amacron" unicode="&#x101;" horiz-adv-x="586" 
d="M129 13.5q-50 28.5 -79 84t-29 133.5t29 133.5t79 84t111 28.5q103 0 151 -78h2v63h151v-462h-151v63h-2q-48 -78 -151 -78q-61 0 -111 28.5zM359 152.5q30 29.5 30 78.5t-30 78.5t-77 29.5q-46 0 -76 -29.5t-30 -78.5t30 -78.5t76 -29.5q47 0 77 29.5zM442 574h-325v99
h325v-99z" />
    <glyph glyph-name="Abreve" unicode="&#x102;" horiz-adv-x="716" 
d="M493 142h-269l-50 -142h-174l276 700h164l276 -700h-173zM445 280l-87 248l-86 -248h173zM471.5 769.5q-43.5 -34.5 -113.5 -34.5t-113 34.5t-51 94.5h103q2 -19 18.5 -31.5t42.5 -12.5q27 0 43 12t18 32h103q-7 -60 -50.5 -94.5z" />
    <glyph glyph-name="abreve" unicode="&#x103;" horiz-adv-x="586" 
d="M129 13.5q-50 28.5 -79 84t-29 133.5t29 133.5t79 84t111 28.5q103 0 151 -78h2v63h151v-462h-151v63h-2q-48 -78 -151 -78q-61 0 -111 28.5zM359 152.5q30 29.5 30 78.5t-30 78.5t-77 29.5q-46 0 -76 -29.5t-30 -78.5t30 -78.5t76 -29.5q47 0 77 29.5zM396.5 583
q-46.5 -45 -117.5 -45q-46 0 -83.5 20.5t-59 57t-21.5 84.5h95q2 -30 18 -50t51 -20t51 20t18 50h95q0 -72 -46.5 -117z" />
    <glyph glyph-name="Aogonek" unicode="&#x104;" horiz-adv-x="716" 
d="M612 -110l12 -94q-52 -9 -70 -9q-53 0 -82 21t-29 65q0 32 24 64.5t72 74.5l-46 130h-269l-50 -142h-174l276 700h164l276 -700h-98q-36 -34 -53.5 -57t-17.5 -37q0 -10 7.5 -16t18.5 -6t39 6zM445 280l-87 248l-86 -248h173z" />
    <glyph glyph-name="aogonek" unicode="&#x105;" horiz-adv-x="586" 
d="M420.5 -57q-17.5 -23 -17.5 -37q0 -10 7.5 -16t18.5 -6t39 6l12 -94q-52 -9 -70 -9q-53 0 -82 21t-29 65q0 32 23.5 64t70.5 74v52h-2q-48 -78 -151 -78q-61 0 -111 28.5t-79 84t-29 133.5t29 133.5t79 84t111 28.5q103 0 151 -78h2v63h151v-462h-70q-36 -34 -53.5 -57z
M359 152.5q30 29.5 30 78.5t-30 78.5t-77 29.5q-46 0 -76 -29.5t-30 -78.5t30 -78.5t76 -29.5q47 0 77 29.5z" />
    <glyph glyph-name="Cacute" unicode="&#x106;" horiz-adv-x="667" 
d="M207.5 30q-87.5 45 -137 128t-49.5 192t49.5 192t137 128t197.5 45q140 0 251 -78l-84 -136q-81 54 -167 54q-61 0 -109.5 -25t-76 -71.5t-27.5 -108.5t27.5 -108.5t76 -71.5t109.5 -25q86 0 167 54l84 -136q-111 -78 -251 -78q-110 0 -197.5 45zM452 743h-109l115 120
h165z" />
    <glyph glyph-name="cacute" unicode="&#x107;" horiz-adv-x="451" 
d="M145.5 15.5q-58.5 30.5 -91.5 86.5t-33 129t33 129t91.5 86.5t132.5 30.5q89 0 167 -45l-62 -121q-44 28 -98 28q-47 0 -80 -29t-33 -79t33 -79t80 -29q54 0 98 28l62 -121q-78 -45 -167 -45q-74 0 -132.5 30.5zM324 553h-118l115 154h165z" />
    <glyph glyph-name="Ccircumflex" unicode="&#x108;" horiz-adv-x="667" 
d="M207.5 30q-87.5 45 -137 128t-49.5 192t49.5 192t137 128t197.5 45q140 0 251 -78l-84 -136q-81 54 -167 54q-61 0 -109.5 -25t-76 -71.5t-27.5 -108.5t27.5 -108.5t76 -71.5t109.5 -25q86 0 167 54l84 -136q-111 -78 -251 -78q-110 0 -197.5 45zM592 743h-125l-67 62
l-67 -62h-125l120 120h144z" />
    <glyph glyph-name="ccircumflex" unicode="&#x109;" horiz-adv-x="451" 
d="M145.5 15.5q-58.5 30.5 -91.5 86.5t-33 129t33 129t91.5 86.5t132.5 30.5q89 0 167 -45l-62 -121q-44 28 -98 28q-47 0 -80 -29t-33 -79t33 -79t80 -29q54 0 98 28l62 -121q-78 -45 -167 -45q-74 0 -132.5 30.5zM462 553h-125l-68 82l-67 -82h-125l122 154h141z" />
    <glyph glyph-name="Cdotaccent" unicode="&#x10a;" horiz-adv-x="667" 
d="M207.5 30q-87.5 45 -137 128t-49.5 192t49.5 192t137 128t197.5 45q140 0 251 -78l-84 -136q-81 54 -167 54q-61 0 -109.5 -25t-76 -71.5t-27.5 -108.5t27.5 -108.5t76 -71.5t109.5 -25q86 0 167 54l84 -136q-111 -78 -251 -78q-110 0 -197.5 45zM472 743h-142v128h142
v-128z" />
    <glyph glyph-name="cdotaccent" unicode="&#x10b;" horiz-adv-x="451" 
d="M145.5 15.5q-58.5 30.5 -91.5 86.5t-33 129t33 129t91.5 86.5t132.5 30.5q89 0 167 -45l-62 -121q-44 28 -98 28q-47 0 -80 -29t-33 -79t33 -79t80 -29q54 0 98 28l62 -121q-78 -45 -167 -45q-74 0 -132.5 30.5zM351 547h-162v152h162v-152z" />
    <glyph glyph-name="Ccaron" unicode="&#x10c;" horiz-adv-x="667" 
d="M207.5 30q-87.5 45 -137 128t-49.5 192t49.5 192t137 128t197.5 45q140 0 251 -78l-84 -136q-81 54 -167 54q-61 0 -109.5 -25t-76 -71.5t-27.5 -108.5t27.5 -108.5t76 -71.5t109.5 -25q86 0 167 54l84 -136q-111 -78 -251 -78q-110 0 -197.5 45zM328 743l-120 120h125
l67 -62l67 62h125l-120 -120h-144z" />
    <glyph glyph-name="ccaron" unicode="&#x10d;" horiz-adv-x="451" 
d="M145.5 15.5q-58.5 30.5 -91.5 86.5t-33 129t33 129t91.5 86.5t132.5 30.5q89 0 167 -45l-62 -121q-44 28 -98 28q-47 0 -80 -29t-33 -79t33 -79t80 -29q54 0 98 28l62 -121q-78 -45 -167 -45q-74 0 -132.5 30.5zM340 546h-141l-122 154h125l67 -82l68 82h125z" />
    <glyph glyph-name="Dcaron" unicode="&#x10e;" horiz-adv-x="683" 
d="M480 657.5q86 -42.5 134 -121.5t48 -186t-48 -186t-134 -121.5t-196 -42.5h-223v700h223q110 0 196 -42.5zM216 559v-418h81q88 0 143 55.5t55 153.5q0 99 -55 154t-143 55h-81zM210 743l-120 120h125l67 -62l67 62h125l-120 -120h-144z" />
    <glyph glyph-name="dcaron" unicode="&#x10f;" horiz-adv-x="727" 
d="M721 715v-140l-82 -82h-54l45 82h-48v140h139zM393 700h151v-700h-151v63h-2q-48 -78 -151 -78q-61 0 -111 28.5t-79 84t-29 133.5t29 133.5t79 84t111 28.5q103 0 151 -78h2v301zM359 152.5q30 29.5 30 78.5t-30 78.5t-77 29.5q-46 0 -76 -29.5t-30 -78.5t30 -78.5
t76 -29.5q47 0 77 29.5z" />
    <glyph glyph-name="Dcroat" unicode="&#x110;" horiz-adv-x="684" 
d="M481 657.5q86 -42.5 134 -121.5t48 -186t-48 -186t-134 -121.5t-196 -42.5h-223v293h-71v126h71v281h223q110 0 196 -42.5zM441 196.5q55 55.5 55 153.5q0 99 -55 154t-143 55h-81v-140h131v-126h-131v-152h81q88 0 143 55.5z" />
    <glyph glyph-name="dcroat" unicode="&#x111;" horiz-adv-x="613" 
d="M613 546h-69v-546h-151v63h-2q-48 -78 -151 -78q-61 0 -111 28.5t-79 84t-29 133.5t29 133.5t79 84t111 28.5q103 0 151 -78h2v147h-135v87h135v67h151v-67h69v-87zM359 152.5q30 29.5 30 78.5t-30 78.5t-77 29.5q-46 0 -76 -29.5t-30 -78.5t30 -78.5t76 -29.5
q47 0 77 29.5z" />
    <glyph glyph-name="Emacron" unicode="&#x112;" horiz-adv-x="530" 
d="M499 145v-145h-438v700h433v-145h-278v-110h250v-141h-250v-159h283zM454 749h-324v95h324v-95z" />
    <glyph glyph-name="emacron" unicode="&#x113;" horiz-adv-x="511" 
d="M433 413.5q61 -62.5 61 -184.5v-34h-331q7 -42 38.5 -63t79.5 -21q38 0 73 12.5t61 29.5l55 -114q-88 -54 -191 -54q-77 0 -135.5 30.5t-90.5 85.5t-32 128q0 76 31 132t86.5 85.5t126.5 29.5q107 0 168 -62.5zM194.5 348q-25.5 -21 -30.5 -64h184q-1 40 -25.5 62.5
t-62.5 22.5q-40 0 -65.5 -21zM428 574h-325v99h325v-99z" />
    <glyph glyph-name="Ebreve" unicode="&#x114;" horiz-adv-x="530" 
d="M499 145v-145h-438v700h433v-145h-278v-110h250v-141h-250v-159h283zM405.5 769.5q-43.5 -34.5 -113.5 -34.5t-113 34.5t-51 94.5h103q2 -19 18.5 -31.5t42.5 -12.5q27 0 43 12t18 32h103q-7 -60 -50.5 -94.5z" />
    <glyph glyph-name="ebreve" unicode="&#x115;" horiz-adv-x="511" 
d="M433 413.5q61 -62.5 61 -184.5v-34h-331q7 -42 38.5 -63t79.5 -21q38 0 73 12.5t61 29.5l55 -114q-88 -54 -191 -54q-77 0 -135.5 30.5t-90.5 85.5t-32 128q0 76 31 132t86.5 85.5t126.5 29.5q107 0 168 -62.5zM194.5 348q-25.5 -21 -30.5 -64h184q-1 40 -25.5 62.5
t-62.5 22.5q-40 0 -65.5 -21zM382.5 583q-46.5 -45 -117.5 -45q-46 0 -83.5 20.5t-59 57t-21.5 84.5h95q2 -30 18 -50t51 -20t51 20t18 50h95q0 -72 -46.5 -117z" />
    <glyph glyph-name="Edotaccent" unicode="&#x116;" horiz-adv-x="530" 
d="M499 145v-145h-438v700h433v-145h-278v-110h250v-141h-250v-159h283zM363 743h-142v128h142v-128z" />
    <glyph glyph-name="edotaccent" unicode="&#x117;" horiz-adv-x="511" 
d="M433 413.5q61 -62.5 61 -184.5v-34h-331q7 -42 38.5 -63t79.5 -21q38 0 73 12.5t61 29.5l55 -114q-88 -54 -191 -54q-77 0 -135.5 30.5t-90.5 85.5t-32 128q0 76 31 132t86.5 85.5t126.5 29.5q107 0 168 -62.5zM194.5 348q-25.5 -21 -30.5 -64h184q-1 40 -25.5 62.5
t-62.5 22.5q-40 0 -65.5 -21zM346 547h-162v152h162v-152z" />
    <glyph glyph-name="Eogonek" unicode="&#x118;" horiz-adv-x="530" 
d="M419.5 -57q-17.5 -23 -17.5 -37q0 -10 7.5 -16t18.5 -6t39 6l12 -94q-52 -9 -70 -9q-53 0 -82 21t-29 65q0 30 20.5 60t61.5 67h-319v700h433v-145h-278v-110h250v-141h-250v-159h283v-145h-26q-36 -34 -53.5 -57z" />
    <glyph glyph-name="eogonek" unicode="&#x119;" horiz-adv-x="511" 
d="M494 195h-331q7 -42 38.5 -63t79.5 -21q38 0 73 12.5t61 29.5l55 -114q-21 -14 -57 -29h2q-82 -76 -82 -104q0 -10 7.5 -16t18.5 -6t39 6l12 -94q-52 -9 -70 -9q-53 0 -82 21t-29 65q0 26 16.5 53t49.5 59h-16q-77 0 -135.5 30.5t-90.5 85.5t-32 128q0 76 31 132
t86.5 85.5t126.5 29.5q107 0 168 -62.5t61 -184.5v-34zM348 284q-1 40 -25.5 62.5t-62.5 22.5q-40 0 -65.5 -21t-30.5 -64h184z" />
    <glyph glyph-name="Ecaron" unicode="&#x11a;" horiz-adv-x="530" 
d="M499 145v-145h-438v700h433v-145h-278v-110h250v-141h-250v-159h283zM219 743l-120 120h125l67 -62l67 62h125l-120 -120h-144z" />
    <glyph glyph-name="ecaron" unicode="&#x11b;" horiz-adv-x="511" 
d="M433 413.5q61 -62.5 61 -184.5v-34h-331q7 -42 38.5 -63t79.5 -21q38 0 73 12.5t61 29.5l55 -114q-88 -54 -191 -54q-77 0 -135.5 30.5t-90.5 85.5t-32 128q0 76 31 132t86.5 85.5t126.5 29.5q107 0 168 -62.5zM194.5 348q-25.5 -21 -30.5 -64h184q-1 40 -25.5 62.5
t-62.5 22.5q-40 0 -65.5 -21zM335 546h-141l-122 154h125l67 -82l68 82h125z" />
    <glyph glyph-name="Gcircumflex" unicode="&#x11c;" horiz-adv-x="751" 
d="M735 369q0 -113 -37.5 -199.5t-114.5 -135.5t-191 -49q-108 0 -192 44.5t-131.5 127.5t-47.5 195q0 108 46 190.5t132.5 127.5t203.5 45q157 0 276 -92l-101 -133q-42 32 -85.5 48.5t-93.5 16.5q-65 0 -111.5 -26.5t-71 -72.5t-24.5 -105q0 -92 56 -149t155 -57
q78 0 119.5 36t48.5 85h-180v139h343q1 -12 1 -36zM580 743h-125l-67 62l-67 -62h-125l120 120h144z" />
    <glyph glyph-name="gcircumflex" unicode="&#x11d;" horiz-adv-x="586" 
d="M97 -192l25 141q97 -23 162 -23q58 0 83.5 23.5t25.5 82.5v30h-2q-52 -70 -152 -70q-62 0 -111.5 27t-78 81.5t-28.5 131.5q0 78 29 133.5t79 83.5t111 28q103 0 151 -78h2v63h151v-462q-1 -108 -64.5 -161.5t-184.5 -53.5q-86 0 -198 23zM359 152.5q30 29.5 30 78.5
t-30 78.5t-77 29.5q-46 0 -76 -29.5t-30 -78.5t30 -78.5t76 -29.5q47 0 77 29.5zM480 553h-125l-68 82l-67 -82h-125l122 154h141z" />
    <glyph glyph-name="Gbreve" unicode="&#x11e;" horiz-adv-x="751" 
d="M735 369q0 -113 -37.5 -199.5t-114.5 -135.5t-191 -49q-108 0 -192 44.5t-131.5 127.5t-47.5 195q0 108 46 190.5t132.5 127.5t203.5 45q157 0 276 -92l-101 -133q-42 32 -85.5 48.5t-93.5 16.5q-65 0 -111.5 -26.5t-71 -72.5t-24.5 -105q0 -92 56 -149t155 -57
q78 0 119.5 36t48.5 85h-180v139h343q1 -12 1 -36zM502.5 769.5q-43.5 -34.5 -113.5 -34.5t-113 34.5t-51 94.5h103q2 -19 18.5 -31.5t42.5 -12.5q27 0 43 12t18 32h103q-7 -60 -50.5 -94.5z" />
    <glyph glyph-name="gbreve" unicode="&#x11f;" horiz-adv-x="586" 
d="M97 -192l25 141q97 -23 162 -23q58 0 83.5 23.5t25.5 82.5v30h-2q-52 -70 -152 -70q-62 0 -111.5 27t-78 81.5t-28.5 131.5q0 78 29 133.5t79 83.5t111 28q103 0 151 -78h2v63h151v-462q-1 -108 -64.5 -161.5t-184.5 -53.5q-86 0 -198 23zM359 152.5q30 29.5 30 78.5
t-30 78.5t-77 29.5q-46 0 -76 -29.5t-30 -78.5t30 -78.5t76 -29.5q47 0 77 29.5zM405.5 583q-46.5 -45 -117.5 -45q-46 0 -83.5 20.5t-59 57t-21.5 84.5h95q2 -30 18 -50t51 -20t51 20t18 50h95q0 -72 -46.5 -117z" />
    <glyph glyph-name="Gdotaccent" unicode="&#x120;" horiz-adv-x="751" 
d="M735 369q0 -113 -37.5 -199.5t-114.5 -135.5t-191 -49q-108 0 -192 44.5t-131.5 127.5t-47.5 195q0 108 46 190.5t132.5 127.5t203.5 45q157 0 276 -92l-101 -133q-42 32 -85.5 48.5t-93.5 16.5q-65 0 -111.5 -26.5t-71 -72.5t-24.5 -105q0 -92 56 -149t155 -57
q78 0 119.5 36t48.5 85h-180v139h343q1 -12 1 -36zM460 743h-142v128h142v-128z" />
    <glyph glyph-name="gdotaccent" unicode="&#x121;" horiz-adv-x="586" 
d="M97 -192l25 141q97 -23 162 -23q58 0 83.5 23.5t25.5 82.5v30h-2q-52 -70 -152 -70q-62 0 -111.5 27t-78 81.5t-28.5 131.5q0 78 29 133.5t79 83.5t111 28q103 0 151 -78h2v63h151v-462q-1 -108 -64.5 -161.5t-184.5 -53.5q-86 0 -198 23zM359 152.5q30 29.5 30 78.5
t-30 78.5t-77 29.5q-46 0 -76 -29.5t-30 -78.5t30 -78.5t76 -29.5q47 0 77 29.5zM369 547h-162v152h162v-152z" />
    <glyph glyph-name="Gcommaaccent" unicode="&#x122;" horiz-adv-x="751" 
d="M735 369q0 -113 -37.5 -199.5t-114.5 -135.5t-191 -49q-108 0 -192 44.5t-131.5 127.5t-47.5 195q0 108 46 190.5t132.5 127.5t203.5 45q157 0 276 -92l-101 -133q-42 32 -85.5 48.5t-93.5 16.5q-65 0 -111.5 -26.5t-71 -72.5t-24.5 -105q0 -92 56 -149t155 -57
q78 0 119.5 36t48.5 85h-180v139h343q1 -12 1 -36zM470 -47v-101l-65 -62h-52l33 62h-53v101h137z" />
    <glyph glyph-name="gcommaaccent" unicode="&#x123;" horiz-adv-x="586" 
d="M97 -192l25 141q97 -23 162 -23q58 0 83.5 23.5t25.5 82.5v30h-2q-52 -70 -152 -70q-62 0 -111.5 27t-78 81.5t-28.5 131.5q0 78 29 133.5t79 83.5t111 28q103 0 151 -78h2v63h151v-462q-1 -108 -64.5 -161.5t-184.5 -53.5q-86 0 -198 23zM359 152.5q30 29.5 30 78.5
t-30 78.5t-77 29.5q-46 0 -76 -29.5t-30 -78.5t30 -78.5t76 -29.5q47 0 77 29.5zM360 641v-101h-137v101l65 62h52l-33 -62h53z" />
    <glyph glyph-name="Hcircumflex" unicode="&#x124;" horiz-adv-x="723" 
d="M662 700v-700h-155v294h-291v-294h-155v700h155v-260h291v260h155zM553 743h-125l-67 62l-67 -62h-125l120 120h144z" />
    <glyph glyph-name="hcircumflex" unicode="&#x125;" horiz-adv-x="563" 
d="M198 401h2q50 76 148 76q80 0 127 -48t47 -143v-286h-151v244q0 100 -84 100q-41 0 -65 -27t-24 -85v-232h-151v700h151v-299zM313 743h-125l-67 62l-67 -62h-125l120 120h144z" />
    <glyph glyph-name="Hbar" unicode="&#x126;" horiz-adv-x="741" 
d="M741 508h-70v-508h-155v294h-291v-294h-155v508h-70v117h70v75h155v-75h291v75h155v-75h70v-117zM516 508h-291v-68h291v68z" />
    <glyph glyph-name="hbar" unicode="&#x127;" horiz-adv-x="563" 
d="M475 429q47 -48 47 -143v-286h-151v244q0 100 -84 100q-41 0 -65 -27t-24 -85v-232h-151v546h-65v87h65v67h151v-67h132v-87h-132v-145h2q50 76 148 76q80 0 127 -48z" />
    <glyph glyph-name="Itilde" unicode="&#x128;" horiz-adv-x="277" 
d="M216 0h-155v700h155v-700zM173.5 743.5q-24.5 5.5 -59.5 15.5q-54 15 -72 15q-17 0 -30 -9.5t-24 -28.5l-47 15q16 58 42.5 89t73.5 31q21 0 45.5 -5.5t59.5 -15.5q53 -15 72 -15q31 0 54 39l47 -16q-17 -58 -43.5 -89t-72.5 -31q-21 0 -45.5 5.5z" />
    <glyph glyph-name="itilde" unicode="&#x129;" horiz-adv-x="244" 
d="M96 700.5q17 -6.5 43 -19.5q36 -20 53 -20q14 0 22.5 12t13.5 34l53 -19q-11 -62 -36 -97.5t-62 -35.5q-17 0 -35 7t-42 20q-14 7 -28.5 13t-23.5 6q-15 0 -23.5 -12t-13.5 -34l-53 19q12 62 36.5 97.5t61.5 35.5q17 0 34 -6.5zM47 462h151v-462h-151v462z" />
    <glyph glyph-name="Imacron" unicode="&#x12a;" horiz-adv-x="277" 
d="M216 0h-155v700h155v-700zM300 749h-324v95h324v-95z" />
    <glyph glyph-name="imacron" unicode="&#x12b;" horiz-adv-x="244" 
d="M235 574h-225v99h225v-99zM47 462h151v-462h-151v462z" />
    <glyph glyph-name="Ibreve" unicode="&#x12c;" horiz-adv-x="277" 
d="M216 0h-155v700h155v-700zM251.5 769.5q-43.5 -34.5 -113.5 -34.5t-113 34.5t-51 94.5h103q2 -19 18.5 -31.5t42.5 -12.5q27 0 43 12t18 32h103q-7 -60 -50.5 -94.5z" />
    <glyph glyph-name="ibreve" unicode="&#x12d;" horiz-adv-x="244" 
d="M220.5 577.5q-36.5 -39.5 -98.5 -39.5t-98.5 39.5t-36.5 122.5h92q0 -37 9.5 -53.5t33.5 -16.5t33.5 16.5t9.5 53.5h92q0 -83 -36.5 -122.5zM47 462h151v-462h-151v462z" />
    <glyph glyph-name="Iogonek" unicode="&#x12e;" horiz-adv-x="277" 
d="M125.5 -57q-17.5 -23 -17.5 -37q0 -10 7.5 -16t18.5 -6t39 6l12 -94q-52 -9 -70 -9q-53 0 -82 21t-29 65q0 30 20.5 60t61.5 67h-25v700h155v-700h-37q-36 -34 -53.5 -57z" />
    <glyph glyph-name="iogonek" unicode="&#x12f;" horiz-adv-x="244" 
d="M203 699v-152h-162v152h162zM47 462h151v-462h-44q-36 -34 -53.5 -57t-17.5 -37q0 -10 7.5 -16t18.5 -6t39 6l12 -94q-52 -9 -70 -9q-53 0 -82 21t-29 65q0 30 20.5 60t61.5 67h-14v462z" />
    <glyph glyph-name="Idotaccent" unicode="&#x130;" horiz-adv-x="277" 
d="M216 0h-155v700h155v-700zM209 743h-142v128h142v-128z" />
    <glyph glyph-name="dotlessi" unicode="&#x131;" horiz-adv-x="244" 
d="M47 462h151v-462h-151v462z" />
    <glyph glyph-name="IJ" unicode="&#x132;" horiz-adv-x="578" 
d="M216 0h-155v700h155v-700zM517 177q0 -93 -44 -136.5t-136 -43.5h-50v145h34q19 0 30 12.5t11 36.5v509h155v-523z" />
    <glyph glyph-name="ij" unicode="&#x133;" horiz-adv-x="488" 
d="M47 462h151v-462h-151v462zM203 547h-162v152h162v-152zM230 -63q31 0 46 16t15 50v459h151v-458q0 -104 -46.5 -155.5t-140.5 -51.5h-50v140h25zM447 547h-162v152h162v-152z" />
    <glyph glyph-name="Jcircumflex" unicode="&#x134;" horiz-adv-x="301" 
d="M240 177q0 -93 -44 -136.5t-136 -43.5h-50v145h34q19 0 30 12.5t11 36.5v509h155v-523zM354 743h-125l-67 62l-67 -62h-125l120 120h144z" />
    <glyph glyph-name="jcircumflex" unicode="&#x135;" horiz-adv-x="244" 
d="M280 553h-116l-42 91l-42 -91h-116l87 154h142zM-14 -63q31 0 46 16t15 50v459h151v-458q0 -104 -46.5 -155.5t-140.5 -51.5h-50v140h25z" />
    <glyph glyph-name="Kcommaaccent" unicode="&#x136;" horiz-adv-x="726" 
d="M505 0l-289 335v-335h-155v700h155v-309l249 309h211l-289 -328l339 -372h-221zM417 -47v-101l-65 -62h-52l33 62h-53v101h137z" />
    <glyph glyph-name="kcommaaccent" unicode="&#x137;" horiz-adv-x="555" 
d="M355 0l-157 212v-212h-151v700h151v-420l135 182h187l-183 -210l213 -252h-195zM335 -47v-101l-65 -62h-52l33 62h-53v101h137z" />
    <glyph glyph-name="kgreenlandic" unicode="&#x138;" horiz-adv-x="555" 
d="M355 0l-158 212v-212h-151v462h151v-182l136 182h186l-183 -210l214 -252h-195z" />
    <glyph glyph-name="Lacute" unicode="&#x139;" horiz-adv-x="496" 
d="M216 146h279v-146h-434v700h155v-554zM193 743h-109l115 120h165z" />
    <glyph glyph-name="lacute" unicode="&#x13a;" horiz-adv-x="244" 
d="M198 0h-151v700h151v-700zM176 743h-109l115 120h165z" />
    <glyph glyph-name="Lcommaaccent" unicode="&#x13b;" horiz-adv-x="496" 
d="M216 146h279v-146h-434v700h155v-554zM348 -47v-101l-65 -62h-52l33 62h-53v101h137z" />
    <glyph glyph-name="lcommaaccent" unicode="&#x13c;" horiz-adv-x="244" 
d="M198 0h-151v700h151v-700zM194 -47v-101l-65 -62h-52l33 62h-53v101h137z" />
    <glyph glyph-name="Lcaron" unicode="&#x13d;" horiz-adv-x="496" 
d="M216 146h279v-146h-434v700h155v-554zM459 715v-140l-83 -156h-54l53 156h-56v140h140z" />
    <glyph glyph-name="lcaron" unicode="&#x13e;" horiz-adv-x="389" 
d="M383 715v-140l-82 -82h-54l45 82h-48v140h139zM47 700h151v-700h-151v700z" />
    <glyph glyph-name="Ldot" unicode="&#x13f;" horiz-adv-x="496" 
d="M216 146h279v-146h-434v700h155v-554zM447 301h-160v161h160v-161z" />
    <glyph glyph-name="ldot" unicode="&#x140;" horiz-adv-x="398" 
d="M198 0h-151v700h151v-700zM388 302h-160v161h160v-161z" />
    <glyph glyph-name="Lslash" unicode="&#x141;" horiz-adv-x="496" 
d="M495 146v-146h-434v277l-71 -37v91l71 37v332h155v-252l172 89v-91l-172 -89v-211h279z" />
    <glyph glyph-name="lslash" unicode="&#x142;" horiz-adv-x="313" 
d="M303 418l-71 -37v-381h-151v304l-71 -37v91l71 37v305h151v-227l71 37v-92z" />
    <glyph glyph-name="Nacute" unicode="&#x143;" horiz-adv-x="744" 
d="M683 0h-132l-334 431h-1v-431h-155v700h131l335 -433h1v433h155v-700zM423 743h-109l115 120h165z" />
    <glyph glyph-name="nacute" unicode="&#x144;" horiz-adv-x="563" 
d="M474 429q47 -48 47 -143v-286h-150v244q0 51 -21 75.5t-64 24.5q-41 0 -65 -27t-24 -85v-232h-151v462h148v-70h2q24 41 63 63t88 22q80 0 127 -48zM343 553h-118l115 154h165z" />
    <glyph glyph-name="Ncommaaccent" unicode="&#x145;" horiz-adv-x="744" 
d="M683 0h-132l-334 431h-1v-431h-155v700h131l335 -433h1v433h155v-700zM441 -47v-101l-65 -62h-52l33 62h-53v101h137z" />
    <glyph glyph-name="ncommaaccent" unicode="&#x146;" horiz-adv-x="563" 
d="M474 429q47 -48 47 -143v-286h-150v244q0 51 -21 75.5t-64 24.5q-41 0 -65 -27t-24 -85v-232h-151v462h148v-70h2q24 41 63 63t88 22q80 0 127 -48zM357 -47v-101l-65 -62h-52l33 62h-53v101h137z" />
    <glyph glyph-name="Ncaron" unicode="&#x147;" horiz-adv-x="744" 
d="M683 0h-132l-334 431h-1v-431h-155v700h131l335 -433h1v433h155v-700zM299 743l-120 120h125l67 -62l67 62h125l-120 -120h-144z" />
    <glyph glyph-name="ncaron" unicode="&#x148;" horiz-adv-x="563" 
d="M474 429q47 -48 47 -143v-286h-150v244q0 51 -21 75.5t-64 24.5q-41 0 -65 -27t-24 -85v-232h-151v462h148v-70h2q24 41 63 63t88 22q80 0 127 -48zM359 546h-141l-122 154h125l67 -82l68 82h125z" />
    <glyph glyph-name="napostrophe" unicode="&#x149;" horiz-adv-x="663" 
d="M574 429q47 -48 47 -143v-286h-150v244q0 51 -21 75.5t-64 24.5q-41 0 -65 -27t-24 -85v-232h-151v462h148v-70h2q24 41 63 63t88 22q80 0 127 -48zM151 715v-140l-83 -156h-54l53 156h-56v140h140z" />
    <glyph glyph-name="Eng" unicode="&#x14a;" horiz-adv-x="744" 
d="M683 700v-721q0 -95 -48 -137t-139 -42h-71v146h43q32 0 46 12.5t14 44.5v27l-311 401h-1v-431h-155v700h131l335 -432h1v432h155z" />
    <glyph glyph-name="eng" unicode="&#x14b;" horiz-adv-x="563" 
d="M474 429q47 -48 47 -143v-309q0 -93 -44 -135t-126 -42h-68v135h40q24 0 35.5 9.5t11.5 40.5v16h1v243q0 51 -21 75.5t-64 24.5q-41 0 -65 -27t-24 -85v-232h-151v462h148v-70h2q24 41 63 63t88 22q80 0 127 -48z" />
    <glyph glyph-name="Omacron" unicode="&#x14c;" horiz-adv-x="780" 
d="M578 669q84 -46 132.5 -129t48.5 -190t-48.5 -190t-132.5 -129t-188 -46t-188 46t-132.5 129t-48.5 190t48.5 190t132.5 129t188 46t188 -46zM289 530q-45 -25 -71 -71.5t-26 -108.5t26 -108.5t71 -71.5t101 -25t101 25t71 71.5t26 108.5t-26 108.5t-71 71.5t-101 25
t-101 -25zM552 749h-324v95h324v-95z" />
    <glyph glyph-name="omacron" unicode="&#x14d;" horiz-adv-x="561" 
d="M414 446.5q59 -30.5 92.5 -86.5t33.5 -129t-33.5 -129t-92.5 -86.5t-134 -30.5q-74 0 -133 30.5t-92.5 86.5t-33.5 129t33.5 129t92.5 86.5t133 30.5q75 0 134 -30.5zM203 309q-31 -30 -31 -78t31 -78t77 -30q47 0 77.5 29.5t30.5 78.5t-30.5 78.5t-77.5 29.5
q-46 0 -77 -30zM443 574h-325v99h325v-99z" />
    <glyph glyph-name="Obreve" unicode="&#x14e;" horiz-adv-x="780" 
d="M578 669q84 -46 132.5 -129t48.5 -190t-48.5 -190t-132.5 -129t-188 -46t-188 46t-132.5 129t-48.5 190t48.5 190t132.5 129t188 46t188 -46zM289 530q-45 -25 -71 -71.5t-26 -108.5t26 -108.5t71 -71.5t101 -25t101 25t71 71.5t26 108.5t-26 108.5t-71 71.5t-101 25
t-101 -25zM503.5 769.5q-43.5 -34.5 -113.5 -34.5t-113 34.5t-51 94.5h103q2 -19 18.5 -31.5t42.5 -12.5q27 0 43 12t18 32h103q-7 -60 -50.5 -94.5z" />
    <glyph glyph-name="obreve" unicode="&#x14f;" horiz-adv-x="561" 
d="M414 446.5q59 -30.5 92.5 -86.5t33.5 -129t-33.5 -129t-92.5 -86.5t-134 -30.5q-74 0 -133 30.5t-92.5 86.5t-33.5 129t33.5 129t92.5 86.5t133 30.5q75 0 134 -30.5zM203 309q-31 -30 -31 -78t31 -78t77 -30q47 0 77.5 29.5t30.5 78.5t-30.5 78.5t-77.5 29.5
q-46 0 -77 -30zM397.5 583q-46.5 -45 -117.5 -45q-46 0 -83.5 20.5t-59 57t-21.5 84.5h95q2 -30 18 -50t51 -20t51 20t18 50h95q0 -72 -46.5 -117z" />
    <glyph glyph-name="Ohungarumlaut" unicode="&#x150;" horiz-adv-x="780" 
d="M578 669q84 -46 132.5 -129t48.5 -190t-48.5 -190t-132.5 -129t-188 -46t-188 46t-132.5 129t-48.5 190t48.5 190t132.5 129t188 46t188 -46zM289 530q-45 -25 -71 -71.5t-26 -108.5t26 -108.5t71 -71.5t101 -25t101 25t71 71.5t26 108.5t-26 108.5t-71 71.5t-101 25
t-101 -25zM380 743h-102l98 120h117zM538 743h-102l98 120h117z" />
    <glyph glyph-name="ohungarumlaut" unicode="&#x151;" horiz-adv-x="561" 
d="M414 446.5q59 -30.5 92.5 -86.5t33.5 -129t-33.5 -129t-92.5 -86.5t-134 -30.5q-74 0 -133 30.5t-92.5 86.5t-33.5 129t33.5 129t92.5 86.5t133 30.5q75 0 134 -30.5zM203 309q-31 -30 -31 -78t31 -78t77 -30q47 0 77.5 29.5t30.5 78.5t-30.5 78.5t-77.5 29.5
q-46 0 -77 -30zM251 553h-102l122 154h122zM410 553h-102l122 154h122z" />
    <glyph glyph-name="OE" unicode="&#x152;" horiz-adv-x="1057" 
d="M1026 141v-141h-438v48q-75 -63 -198 -63q-104 0 -188 46t-132.5 129t-48.5 190t48.5 190t132.5 129t188 46q123 0 198 -63v48h432v-141h-277v-114h250v-141h-250v-163h283zM493 170q46 25 72.5 71.5t26.5 108.5t-26.5 108.5t-72.5 71.5t-103 25q-56 0 -101 -25
t-71 -71.5t-26 -108.5t26 -108.5t71 -71.5t101 -25q57 0 103 25z" />
    <glyph glyph-name="oe" unicode="&#x153;" horiz-adv-x="861" 
d="M783.5 412q61.5 -64 61.5 -179v-40h-331q10 -39 40.5 -58.5t76.5 -19.5q38 0 73 11.5t61 27.5l54 -118q-44 -25 -88.5 -38t-100.5 -13q-126 0 -187 79h-2q-61 -79 -173 -79q-71 0 -127 31.5t-88 87.5t-32 127t32 127t88 87.5t127 31.5q112 0 173 -78h2q29 37 73 57t99 20
q107 0 168.5 -64zM512 284h183q-1 37 -24.5 57t-59.5 20q-82 0 -99 -77zM192.5 311q-30.5 -30 -30.5 -80t30.5 -80t75.5 -30t75 30t30 80t-30 80t-75 30t-75.5 -30z" />
    <glyph glyph-name="Racute" unicode="&#x154;" horiz-adv-x="617" 
d="M246 265h-30v-265h-155v700h280q76 0 129.5 -29t81 -78.5t27.5 -111.5q0 -79 -42 -134.5t-121 -73.5l200 -273h-194zM216 395h102q97 0 97 82q0 39 -25.5 60.5t-71.5 21.5h-102v-164zM327 743h-109l115 120h165z" />
    <glyph glyph-name="racute" unicode="&#x155;" horiz-adv-x="362" 
d="M352 325h-13q-52 0 -82.5 -14.5t-45 -48t-14.5 -92.5v-170h-151v462h148v-94h2q38 108 153 108h3v-151zM239 553h-118l115 154h165z" />
    <glyph glyph-name="Rcommaaccent" unicode="&#x156;" horiz-adv-x="617" 
d="M246 265h-30v-265h-155v700h280q76 0 129.5 -29t81 -78.5t27.5 -111.5q0 -79 -42 -134.5t-121 -73.5l200 -273h-194zM216 395h102q97 0 97 82q0 39 -25.5 60.5t-71.5 21.5h-102v-164zM393 -47v-101l-65 -62h-52l33 62h-53v101h137z" />
    <glyph glyph-name="rcommaaccent" unicode="&#x157;" horiz-adv-x="362" 
d="M352 325h-13q-52 0 -82.5 -14.5t-45 -48t-14.5 -92.5v-170h-151v462h148v-94h2q38 108 153 108h3v-151zM193 -47v-101l-65 -62h-52l33 62h-53v101h137z" />
    <glyph glyph-name="Rcaron" unicode="&#x158;" horiz-adv-x="617" 
d="M246 265h-30v-265h-155v700h280q76 0 129.5 -29t81 -78.5t27.5 -111.5q0 -79 -42 -134.5t-121 -73.5l200 -273h-194zM216 395h102q97 0 97 82q0 39 -25.5 60.5t-71.5 21.5h-102v-164zM203 743l-120 120h125l67 -62l67 62h125l-120 -120h-144z" />
    <glyph glyph-name="rcaron" unicode="&#x159;" horiz-adv-x="362" 
d="M352 325h-13q-52 0 -82.5 -14.5t-45 -48t-14.5 -92.5v-170h-151v462h148v-94h2q38 108 153 108h3v-151zM255 546h-141l-122 154h125l67 -82l68 82h125z" />
    <glyph glyph-name="Sacute" unicode="&#x15a;" horiz-adv-x="544" 
d="M507 664l-65 -137q-49 23 -86.5 33.5t-71.5 10.5q-64 0 -64 -41q0 -16 11.5 -28.5t41.5 -30.5l116 -73q67 -41 100 -88t33 -117q0 -101 -66 -154.5t-189 -53.5q-141 0 -261 70l70 139q105 -64 197 -64q42 0 64 14t22 42q0 22 -16 38t-50 37l-107 67q-129 77 -129 200
q0 87 57 137t166 50t227 -51zM341 743h-109l115 120h165z" />
    <glyph glyph-name="sacute" unicode="&#x15b;" horiz-adv-x="434" 
d="M114 -3.5q-55 11.5 -104 36.5l57 124q91 -53 164 -53q42 0 42 21q0 10 -6 15t-14 7.5t-12 4.5l-81 32q-57 22 -85 57t-28 86q0 72 50 111t148 39q80 0 167 -28l-42 -122q-83 34 -137 34q-21 0 -29 -5t-8 -15t8 -15.5t27 -13.5l80 -30q56 -21 84 -53t28 -88
q0 -80 -54 -118t-150 -38q-50 0 -105 11.5zM293 553h-118l115 154h165z" />
    <glyph glyph-name="Scircumflex" unicode="&#x15c;" horiz-adv-x="544" 
d="M507 664l-65 -137q-49 23 -86.5 33.5t-71.5 10.5q-64 0 -64 -41q0 -16 11.5 -28.5t41.5 -30.5l116 -73q67 -41 100 -88t33 -117q0 -101 -66 -154.5t-189 -53.5q-141 0 -261 70l70 139q105 -64 197 -64q42 0 64 14t22 42q0 22 -16 38t-50 37l-107 67q-129 77 -129 200
q0 87 57 137t166 50t227 -51zM481 743h-125l-67 62l-67 -62h-125l120 120h144z" />
    <glyph glyph-name="scircumflex" unicode="&#x15d;" horiz-adv-x="434" 
d="M114 -3.5q-55 11.5 -104 36.5l57 124q91 -53 164 -53q42 0 42 21q0 10 -6 15t-14 7.5t-12 4.5l-81 32q-57 22 -85 57t-28 86q0 72 50 111t148 39q80 0 167 -28l-42 -122q-83 34 -137 34q-21 0 -29 -5t-8 -15t8 -15.5t27 -13.5l80 -30q56 -21 84 -53t28 -88
q0 -80 -54 -118t-150 -38q-50 0 -105 11.5zM431 553h-125l-68 82l-67 -82h-125l122 154h141z" />
    <glyph glyph-name="Scedilla" unicode="&#x15e;" horiz-adv-x="544" 
d="M464.5 46q-57.5 -53 -165.5 -60l-10 -24q45 -8 67 -21t22 -41q0 -25 -20.5 -43.5t-52 -32t-95.5 -36.5l-16 37q44 19 62.5 30t18.5 23q0 13 -12 19.5t-44 13.5l28 74q-133 6 -241 70l70 139q105 -64 197 -64q42 0 64 14t22 42q0 22 -16 38t-50 37l-107 67
q-129 77 -129 200q0 87 57 137t166 50t227 -51l-65 -137q-49 23 -86.5 33.5t-71.5 10.5q-64 0 -64 -41q0 -16 11.5 -28.5t41.5 -30.5l116 -73q67 -41 100 -88t33 -117q0 -94 -57.5 -147z" />
    <glyph glyph-name="scedilla" unicode="&#x15f;" horiz-adv-x="434" 
d="M376.5 29q-46.5 -38 -130.5 -43l-10 -24q45 -8 67 -21t22 -41q0 -25 -20.5 -43.5t-52 -32t-95.5 -36.5l-16 37q44 19 62.5 30t18.5 23q0 13 -12 19.5t-44 13.5l28 75q-99 5 -184 47l57 124q91 -53 164 -53q42 0 42 21q0 10 -6 15t-14 7.5t-12 4.5l-81 32q-57 22 -85 57
t-28 86q0 72 50 111t148 39q80 0 167 -28l-42 -122q-83 34 -137 34q-21 0 -29 -5t-8 -15t8 -15.5t27 -13.5l80 -30q56 -21 84 -53t28 -88q0 -74 -46.5 -112z" />
    <glyph glyph-name="Scaron" unicode="&#x160;" horiz-adv-x="544" 
d="M507 664l-65 -137q-49 23 -86.5 33.5t-71.5 10.5q-64 0 -64 -41q0 -16 11.5 -28.5t41.5 -30.5l116 -73q67 -41 100 -88t33 -117q0 -101 -66 -154.5t-189 -53.5q-141 0 -261 70l70 139q105 -64 197 -64q42 0 64 14t22 42q0 22 -16 38t-50 37l-107 67q-129 77 -129 200
q0 87 57 137t166 50t227 -51zM217 743l-120 120h125l67 -62l67 62h125l-120 -120h-144z" />
    <glyph glyph-name="scaron" unicode="&#x161;" horiz-adv-x="434" 
d="M114 -3.5q-55 11.5 -104 36.5l57 124q91 -53 164 -53q42 0 42 21q0 10 -6 15t-14 7.5t-12 4.5l-81 32q-57 22 -85 57t-28 86q0 72 50 111t148 39q80 0 167 -28l-42 -122q-83 34 -137 34q-21 0 -29 -5t-8 -15t8 -15.5t27 -13.5l80 -30q56 -21 84 -53t28 -88
q0 -80 -54 -118t-150 -38q-50 0 -105 11.5zM309 546h-141l-122 154h125l67 -82l68 82h125z" />
    <glyph glyph-name="uni0162" unicode="&#x162;" horiz-adv-x="534" 
d="M286 0l-16 -38q45 -8 67 -21t22 -41q0 -25 -20.5 -43.5t-52 -32t-95.5 -36.5l-16 37q44 19 62.5 30t18.5 23q0 13 -12 19.5t-44 13.5l33 89h-43v555h-185v145h524v-145h-184v-555h-59z" />
    <glyph glyph-name="uni0163" unicode="&#x163;" horiz-adv-x="362" 
d="M251 336v-139q0 -33 10.5 -45t39.5 -12h17v-140h-63h-4l-16 -38q45 -8 67 -21t22 -41q0 -25 -20.5 -43.5t-52 -32t-95.5 -36.5l-16 37q44 19 62.5 30t18.5 23q0 13 -12 19.5t-44 13.5l36 95q-101 26 -101 150v180h-90v126h90v185h151v-185h95v-126h-95z" />
    <glyph glyph-name="Tcaron" unicode="&#x164;" horiz-adv-x="534" 
d="M529 555h-184v-555h-155v555h-185v145h524v-145zM194 743l-120 120h125l67 -62l67 62h125l-120 -120h-144z" />
    <glyph glyph-name="tcaron" unicode="&#x165;" horiz-adv-x="463" 
d="M453 715v-140l-82 -82h-54l45 82h-48v140h139zM251 462h95v-126h-95v-139q0 -33 10.5 -45t39.5 -12h17v-140h-63q-74 0 -114.5 38t-40.5 118v180h-90v126h90v185h151v-185z" />
    <glyph glyph-name="Tbar" unicode="&#x166;" horiz-adv-x="534" 
d="M345 555v-93h116v-117h-116v-345h-155v345h-116v117h116v93h-185v145h524v-145h-184z" />
    <glyph glyph-name="tbar" unicode="&#x167;" horiz-adv-x="373" 
d="M251 336v-46h86v-76h-86v-17q0 -33 10.5 -45t39.5 -12h17v-140h-63q-74 0 -114.5 38t-40.5 118v58h-76v76h76v46h-90v126h90v185h151v-185h95v-126h-95z" />
    <glyph glyph-name="Utilde" unicode="&#x168;" horiz-adv-x="706" 
d="M650 283q0 -139 -76 -217.5t-221 -78.5q-146 0 -222 78.5t-76 217.5v417h165v-403q0 -68 34.5 -109t98.5 -41t98.5 41t34.5 109v403h164v-417zM388.5 743.5q-24.5 5.5 -59.5 15.5q-54 15 -72 15q-17 0 -30 -9.5t-24 -28.5l-47 15q16 58 42.5 89t73.5 31q21 0 45.5 -5.5
t59.5 -15.5q53 -15 72 -15q31 0 54 39l47 -16q-17 -58 -43.5 -89t-72.5 -31q-21 0 -45.5 5.5z" />
    <glyph glyph-name="utilde" unicode="&#x169;" horiz-adv-x="557" 
d="M89.5 33.5q-48.5 48.5 -48.5 143.5v285h156v-252q0 -48 20 -70.5t56 -22.5q41 0 64 30t23 92v223h151v-462h-148v72h-2q-26 -42 -61 -64.5t-84 -22.5q-78 0 -126.5 48.5zM245.5 700q23.5 -7 55.5 -20q19 -7 37 -13t29 -6q32 0 54 46l57 -19q-17 -63 -44 -98t-72 -35
q-22 0 -45 7t-55 20q-49 19 -67 19q-17 0 -30 -12t-24 -34l-56 19q16 63 43 98t73 35q21 0 44.5 -7z" />
    <glyph glyph-name="Umacron" unicode="&#x16a;" horiz-adv-x="706" 
d="M650 283q0 -139 -76 -217.5t-221 -78.5q-146 0 -222 78.5t-76 217.5v417h165v-403q0 -68 34.5 -109t98.5 -41t98.5 41t34.5 109v403h164v-417zM515 749h-324v95h324v-95z" />
    <glyph glyph-name="umacron" unicode="&#x16b;" horiz-adv-x="557" 
d="M89.5 33.5q-48.5 48.5 -48.5 143.5v285h156v-252q0 -48 20 -70.5t56 -22.5q41 0 64 30t23 92v223h151v-462h-148v72h-2q-26 -42 -61 -64.5t-84 -22.5q-78 0 -126.5 48.5zM444 574h-325v99h325v-99z" />
    <glyph glyph-name="Ubreve" unicode="&#x16c;" horiz-adv-x="706" 
d="M650 283q0 -139 -76 -217.5t-221 -78.5q-146 0 -222 78.5t-76 217.5v417h165v-403q0 -68 34.5 -109t98.5 -41t98.5 41t34.5 109v403h164v-417zM466.5 769.5q-43.5 -34.5 -113.5 -34.5t-113 34.5t-51 94.5h103q2 -19 18.5 -31.5t42.5 -12.5q27 0 43 12t18 32h103
q-7 -60 -50.5 -94.5z" />
    <glyph glyph-name="ubreve" unicode="&#x16d;" horiz-adv-x="557" 
d="M89.5 33.5q-48.5 48.5 -48.5 143.5v285h156v-252q0 -48 20 -70.5t56 -22.5q41 0 64 30t23 92v223h151v-462h-148v72h-2q-26 -42 -61 -64.5t-84 -22.5q-78 0 -126.5 48.5zM398.5 583q-46.5 -45 -117.5 -45q-46 0 -83.5 20.5t-59 57t-21.5 84.5h95q2 -30 18 -50t51 -20
t51 20t18 50h95q0 -72 -46.5 -117z" />
    <glyph glyph-name="Uring" unicode="&#x16e;" horiz-adv-x="706" 
d="M650 283q0 -139 -76 -217.5t-221 -78.5q-146 0 -222 78.5t-76 217.5v417h165v-403q0 -68 34.5 -109t98.5 -41t98.5 41t34.5 109v403h164v-417zM439 839q34 -33 34 -84t-34 -84t-86 -33q-53 0 -87 33t-34 84t34 84t87 33q52 0 86 -33zM311.5 795q-15.5 -16 -15.5 -40
t15.5 -39.5t41.5 -15.5q25 0 41 15.5t16 39.5t-16 40t-41 16q-26 0 -41.5 -16z" />
    <glyph glyph-name="uring" unicode="&#x16f;" horiz-adv-x="557" 
d="M89.5 33.5q-48.5 48.5 -48.5 143.5v285h156v-252q0 -48 20 -70.5t56 -22.5q41 0 64 30t23 92v223h151v-462h-148v72h-2q-26 -42 -61 -64.5t-84 -22.5q-78 0 -126.5 48.5zM366 714q34 -33 34 -84t-34 -84t-86 -33t-86 33t-34 84t34 84t86 33t86 -33zM239.5 669.5
q-15.5 -15.5 -15.5 -39.5t15.5 -39.5t40.5 -15.5t40.5 15.5t15.5 39.5t-15.5 39.5t-40.5 15.5t-40.5 -15.5z" />
    <glyph glyph-name="Uhungarumlaut" unicode="&#x170;" horiz-adv-x="706" 
d="M650 283q0 -139 -76 -217.5t-221 -78.5q-146 0 -222 78.5t-76 217.5v417h165v-403q0 -68 34.5 -109t98.5 -41t98.5 41t34.5 109v403h164v-417zM343 743h-102l98 120h117zM501 743h-102l98 120h117z" />
    <glyph glyph-name="uhungarumlaut" unicode="&#x171;" horiz-adv-x="557" 
d="M89.5 33.5q-48.5 48.5 -48.5 143.5v285h156v-252q0 -48 20 -70.5t56 -22.5q41 0 64 30t23 92v223h151v-462h-148v72h-2q-26 -42 -61 -64.5t-84 -22.5q-78 0 -126.5 48.5zM252 553h-102l122 154h122zM411 553h-102l122 154h122z" />
    <glyph glyph-name="Uogonek" unicode="&#x172;" horiz-adv-x="706" 
d="M650 700v-417q0 -121 -58.5 -197t-170.5 -94q-63 -61 -63 -86q0 -10 7.5 -16t18.5 -6t39 6l12 -94q-52 -9 -70 -9q-53 0 -82 21t-29 65q0 27 17.5 54.5t51.5 60.5q-131 8 -199.5 86t-68.5 209v417h165v-403q0 -68 34.5 -109t98.5 -41t98.5 41t34.5 109v403h164z" />
    <glyph glyph-name="uogonek" unicode="&#x173;" horiz-adv-x="557" 
d="M390.5 -57q-17.5 -23 -17.5 -37q0 -10 7.5 -16t18.5 -6t39 6l12 -94q-52 -9 -70 -9q-53 0 -82 21t-29 65q0 32 23.5 64t70.5 74v61h-2q-26 -42 -61 -64.5t-84 -22.5q-78 0 -126.5 48.5t-48.5 143.5v285h156v-252q0 -48 20 -70.5t56 -22.5q41 0 64 30t23 92v223h151v-462
h-67q-36 -34 -53.5 -57z" />
    <glyph glyph-name="Wcircumflex" unicode="&#x174;" horiz-adv-x="1066" 
d="M825 0h-137l-154 454h-2l-154 -454h-137l-235 700h181l125 -450h2l151 450h136l151 -450h2l125 450h181zM724 743h-125l-67 62l-67 -62h-125l120 120h144z" />
    <glyph glyph-name="wcircumflex" unicode="&#x175;" horiz-adv-x="808" 
d="M803 462l-168 -462h-129l-102 270l-101 -270h-129l-169 462h150l86 -271l94 271h139l93 -271l87 271h149zM597 553h-125l-68 82l-67 -82h-125l122 154h141z" />
    <glyph glyph-name="Ycircumflex" unicode="&#x176;" horiz-adv-x="659" 
d="M407 253v-253h-155v251l-252 449h186l142 -293h2l143 293h186zM520 743h-125l-67 62l-67 -62h-125l120 120h144z" />
    <glyph glyph-name="ycircumflex" unicode="&#x177;" horiz-adv-x="560" 
d="M555 462l-307 -662h-152l116 244l-207 418h174l108 -255l115 255h153zM480 553h-125l-68 82l-67 -82h-125l122 154h141z" />
    <glyph glyph-name="Ydieresis" unicode="&#x178;" horiz-adv-x="659" 
d="M407 253v-253h-155v251l-252 449h186l142 -293h2l143 293h186zM287 743h-133v114h133v-114zM505 743h-134v114h134v-114z" />
    <glyph glyph-name="Zacute" unicode="&#x179;" horiz-adv-x="568" 
d="M548 145v-145h-528v145l329 410h-303v145h492v-145l-326 -410h336zM338 743h-109l115 120h165z" />
    <glyph glyph-name="zacute" unicode="&#x17a;" horiz-adv-x="451" 
d="M436 127v-127h-420v114l216 221h-200v127h389v-111l-221 -224h236zM291 553h-118l115 154h165z" />
    <glyph glyph-name="Zdotaccent" unicode="&#x17b;" horiz-adv-x="568" 
d="M548 145v-145h-528v145l329 410h-303v145h492v-145l-326 -410h336zM358 743h-142v128h142v-128z" />
    <glyph glyph-name="zdotaccent" unicode="&#x17c;" horiz-adv-x="451" 
d="M436 127v-127h-420v114l216 221h-200v127h389v-111l-221 -224h236zM318 547h-162v152h162v-152z" />
    <glyph glyph-name="Zcaron" unicode="&#x17d;" horiz-adv-x="568" 
d="M548 145v-145h-528v145l329 410h-303v145h492v-145l-326 -410h336zM214 743l-120 120h125l67 -62l67 62h125l-120 -120h-144z" />
    <glyph glyph-name="zcaron" unicode="&#x17e;" horiz-adv-x="451" 
d="M436 127v-127h-420v114l216 221h-200v127h389v-111l-221 -224h236zM307 546h-141l-122 154h125l67 -82l68 82h125z" />
    <glyph glyph-name="florin" unicode="&#x192;" horiz-adv-x="405" 
d="M287.5 526q-19.5 -17 -19.5 -55v-9h116v-30h-116v-415q0 -102 -49.5 -159.5t-140.5 -57.5h-58v133h41q28 0 45 18t17 56v425h-95v30h95v8q0 97 53.5 151t160.5 54h47v-132h-36q-41 0 -60.5 -17z" />
    <glyph glyph-name="AEacute" unicode="&#x1fc;" horiz-adv-x="999" 
d="M967 141v-141h-412v142h-267l-86 -142h-202l463 700h500v-141h-258v-114h231v-141h-231v-163h262zM555 280v303l-183 -303h183zM746 743h-109l115 120h165z" />
    <glyph glyph-name="aeacute" unicode="&#x1fd;" horiz-adv-x="828" 
d="M74 29.5q-50 44.5 -50 120.5q0 75 49 118.5t134 43.5q42 0 78 -11.5t58 -30.5h2v20q0 29 -24.5 50.5t-78.5 21.5q-48 0 -132 -20l-30 115q95 20 163 20q64 0 105 -18.5t64 -66.5h2q27 39 71.5 61.5t103.5 22.5q102 0 162 -62.5t60 -184.5v-34h-328q10 -43 40.5 -63.5
t75.5 -20.5q38 0 73 12t60 30l55 -114q-88 -54 -188 -54q-67 0 -115.5 24t-76.5 69h-2q-36 -49 -86 -71t-108 -22q-87 0 -137 44.5zM665 284q-1 40 -25.5 62.5t-61.5 22.5q-36 0 -62.5 -21.5t-31.5 -63.5h181zM325 113.5q23 15.5 23 42.5t-23 43t-58 16t-56 -16t-21 -43
t20.5 -42.5t55.5 -15.5q36 0 59 15.5zM477 553h-118l115 154h165z" />
    <glyph glyph-name="Oslashacute" unicode="&#x1fe;" horiz-adv-x="780" 
d="M726 509.5q33 -72.5 33 -159.5q0 -107 -48.5 -190t-132.5 -129t-188 -46q-113 0 -201 54l-40 -53l-43 30l40 53q-59 49 -92 121.5t-33 159.5q0 107 48.5 190t132.5 129t188 46q113 0 201 -54l40 53l43 -30l-40 -53q59 -49 92 -121.5zM247 203l245 326q-44 26 -102 26
q-56 0 -101 -25t-71 -71.5t-26 -108.5q0 -92 55 -147zM491 170q45 25 71 71.5t26 108.5q0 92 -55 147l-245 -326q44 -26 102 -26q56 0 101 25zM441 743h-109l115 120h165z" />
    <glyph glyph-name="oslashacute" unicode="&#x1ff;" horiz-adv-x="561" 
d="M520 333.5q20 -46.5 20 -102.5q0 -73 -33.5 -129t-92.5 -86.5t-134 -30.5q-88 0 -156 44l-38 -43l-27 23l37 42q-36 33 -55.5 79t-19.5 101q0 73 33.5 129t92.5 86.5t133 30.5q87 0 154 -42l37 42l27 -24l-35 -40q37 -33 57 -79.5zM194 163l143 162q-25 14 -57 14
q-46 0 -77 -30t-31 -78q0 -41 22 -68zM357.5 152.5q30.5 29.5 30.5 78.5q0 41 -24 71l-143 -163q27 -16 59 -16q47 0 77.5 29.5zM335 553h-118l115 154h165z" />
    <glyph glyph-name="Scommaaccent" unicode="&#x218;" horiz-adv-x="544" 
d="M507 664l-65 -137q-49 23 -86.5 33.5t-71.5 10.5q-64 0 -64 -41q0 -16 11.5 -28.5t41.5 -30.5l116 -73q67 -41 100 -88t33 -117q0 -101 -66 -154.5t-189 -53.5q-141 0 -261 70l70 139q105 -64 197 -64q42 0 64 14t22 42q0 22 -16 38t-50 37l-107 67q-129 77 -129 200
q0 87 57 137t166 50t227 -51zM355 -47v-101l-65 -62h-52l33 62h-53v101h137z" />
    <glyph glyph-name="scommaaccent" unicode="&#x219;" horiz-adv-x="434" 
d="M114 -3.5q-55 11.5 -104 36.5l57 124q91 -53 164 -53q42 0 42 21q0 10 -6 15t-14 7.5t-12 4.5l-81 32q-57 22 -85 57t-28 86q0 72 50 111t148 39q80 0 167 -28l-42 -122q-83 34 -137 34q-21 0 -29 -5t-8 -15t8 -15.5t27 -13.5l80 -30q56 -21 84 -53t28 -88
q0 -80 -54 -118t-150 -38q-50 0 -105 11.5zM302 -47v-101l-65 -62h-52l33 62h-53v101h137z" />
    <glyph glyph-name="uni021A" unicode="&#x21a;" horiz-adv-x="534" 
d="M529 555h-184v-555h-155v555h-185v145h524v-145zM336 -47v-101l-65 -62h-52l33 62h-53v101h137z" />
    <glyph glyph-name="uni021B" unicode="&#x21b;" horiz-adv-x="362" 
d="M251 336v-139q0 -33 10.5 -45t39.5 -12h17v-140h-63q-74 0 -114.5 38t-40.5 118v180h-90v126h90v185h151v-185h95v-126h-95zM301 -47v-101l-65 -62h-52l33 62h-53v101h137z" />
    <glyph glyph-name="uni0237" unicode="&#x237;" horiz-adv-x="244" 
d="M-14 -63q31 0 46 16t15 50v459h151v-458q0 -104 -46.5 -155.5t-140.5 -51.5h-50v140h25z" />
    <glyph glyph-name="uni02BC" unicode="&#x2bc;" horiz-adv-x="187" 
d="M162 715v-140l-83 -156h-54l53 156h-56v140h140z" />
    <glyph glyph-name="circumflex" unicode="&#x2c6;" horiz-adv-x="485" 
d="M435 553h-125l-68 82l-67 -82h-125l122 154h141z" />
    <glyph glyph-name="caron" unicode="&#x2c7;" horiz-adv-x="485" 
d="M313 546h-141l-122 154h125l67 -82l68 82h125z" />
    <glyph glyph-name="breve" unicode="&#x2d8;" horiz-adv-x="428" 
d="M331.5 583q-46.5 -45 -117.5 -45q-46 0 -83.5 20.5t-59 57t-21.5 84.5h95q2 -30 18 -50t51 -20t51 20t18 50h95q0 -72 -46.5 -117z" />
    <glyph glyph-name="dotaccent" unicode="&#x2d9;" horiz-adv-x="262" 
d="M212 547h-162v152h162v-152z" />
    <glyph glyph-name="ring" unicode="&#x2da;" horiz-adv-x="340" 
d="M256 714q34 -33 34 -84t-34 -84t-86 -33t-86 33t-34 84t34 84t86 33t86 -33zM129.5 669.5q-15.5 -15.5 -15.5 -39.5t15.5 -39.5t40.5 -15.5t40.5 15.5t15.5 39.5t-15.5 39.5t-40.5 15.5t-40.5 -15.5z" />
    <glyph glyph-name="ogonek" unicode="&#x2db;" horiz-adv-x="287" 
d="M236 10q-82 -76 -82 -104q0 -10 7.5 -16t18.5 -6t39 6l12 -94q-52 -9 -70 -9q-53 0 -82 21t-29 65q0 34 26.5 68.5t82.5 82.5z" />
    <glyph glyph-name="tilde" unicode="&#x2dc;" horiz-adv-x="493" 
d="M210.5 700q23.5 -7 55.5 -20q19 -7 37 -13t29 -6q32 0 54 46l57 -19q-17 -63 -44 -98t-72 -35q-22 0 -45 7t-55 20q-49 19 -67 19q-17 0 -30 -12t-24 -34l-56 19q16 63 43 98t73 35q21 0 44.5 -7z" />
    <glyph glyph-name="hungarumlaut" unicode="&#x2dd;" horiz-adv-x="503" 
d="M152 553h-102l122 154h122zM311 553h-102l122 154h122z" />
    <glyph glyph-name="gravecomb" unicode="&#x300;" horiz-adv-x="0" 
d="M-50 553h-118l-162 154h165z" />
    <glyph glyph-name="acutecomb" unicode="&#x301;" horiz-adv-x="0" 
d="M-212 553h-118l115 154h165z" />
    <glyph glyph-name="uni0302" unicode="&#x302;" horiz-adv-x="0" 
d="M-50 553h-125l-68 82l-67 -82h-125l122 154h141z" />
    <glyph glyph-name="tildecomb" unicode="&#x303;" horiz-adv-x="0" 
d="M-282.5 700q23.5 -7 55.5 -20q19 -7 37 -13t29 -6q32 0 54 46l57 -19q-17 -63 -44 -98t-72 -35q-22 0 -45 7t-55 20q-49 19 -67 19q-17 0 -30 -12t-24 -34l-56 19q16 63 43 98t73 35q21 0 44.5 -7z" />
    <glyph glyph-name="uni0304" unicode="&#x304;" horiz-adv-x="0" 
d="M-50 574h-325v99h325v-99z" />
    <glyph glyph-name="uni0306" unicode="&#x306;" horiz-adv-x="0" 
d="M-96.5 583q-46.5 -45 -117.5 -45q-46 0 -83.5 20.5t-59 57t-21.5 84.5h95q2 -30 18 -50t51 -20t51 20t18 50h95q0 -72 -46.5 -117z" />
    <glyph glyph-name="uni0307" unicode="&#x307;" horiz-adv-x="0" 
d="M-50 547h-162v152h162v-152z" />
    <glyph glyph-name="uni0308" unicode="&#x308;" horiz-adv-x="0" 
d="M-238 555h-124v135h124v-135zM-50 555h-124v135h124v-135z" />
    <glyph glyph-name="uni030A" unicode="&#x30a;" horiz-adv-x="0" 
d="M-84 714q34 -33 34 -84t-34 -84t-86 -33t-86 33t-34 84t34 84t86 33t86 -33zM-210.5 669.5q-15.5 -15.5 -15.5 -39.5t15.5 -39.5t40.5 -15.5t40.5 15.5t15.5 39.5t-15.5 39.5t-40.5 15.5t-40.5 -15.5z" />
    <glyph glyph-name="uni030B" unicode="&#x30b;" horiz-adv-x="0" 
d="M-351 553h-102l122 154h122zM-192 553h-102l122 154h122z" />
    <glyph glyph-name="uni030C" unicode="&#x30c;" horiz-adv-x="0" 
d="M-172 546h-141l-122 154h125l67 -82l68 82h125z" />
    <glyph glyph-name="uni0312" unicode="&#x312;" horiz-adv-x="0" 
d="M-50 641v-101h-137v101l65 62h52l-33 -62h53z" />
    <glyph glyph-name="uni0326" unicode="&#x326;" horiz-adv-x="0" 
d="M-50 -47v-101l-65 -62h-52l33 62h-53v101h137z" />
    <glyph glyph-name="uni0327" unicode="&#x327;" horiz-adv-x="0" 
d="M-139 -38q45 -8 67 -21t22 -41q0 -25 -20.5 -43.5t-52 -32t-95.5 -36.5l-16 37q44 19 62.5 30t18.5 23q0 13 -12 19.5t-44 13.5l48 128h54z" />
    <glyph glyph-name="uni0328" unicode="&#x328;" horiz-adv-x="0" 
d="M-51 10q-82 -76 -82 -104q0 -10 7.5 -16t18.5 -6t39 6l12 -94q-52 -9 -70 -9q-53 0 -82 21t-29 65q0 34 26.5 68.5t82.5 82.5z" />
    <glyph glyph-name="uni0394" unicode="&#x394;" horiz-adv-x="628" 
d="M608 0h-588l249 700h90zM195 100h238l-119 373z" />
    <glyph glyph-name="uni03A9" unicode="&#x3a9;" horiz-adv-x="741" 
d="M551 675q77 -40 118.5 -112t41.5 -166q0 -66 -26.5 -121.5t-71.5 -92t-100 -49.5v-3h188v-131h-290v218q66 8 108 57.5t42 116.5q0 82 -50.5 130t-139.5 48t-140 -48t-51 -130q0 -67 42 -116.5t109 -57.5v-218h-291v131h188v3q-55 13 -100 49.5t-71.5 92t-26.5 121.5
q0 94 41.5 166t119 112t180.5 40t180 -40z" />
    <glyph glyph-name="uni03BC" unicode="&#x3bc;" horiz-adv-x="557" 
d="M511 462v-462h-148v72h-2q-26 -42 -61 -64.5t-84 -22.5q-17 0 -25 1v-186h-145v322q-5 28 -5 55v285h156v-252q0 -48 20 -70.5t56 -22.5q41 0 64 30t23 92v223h151z" />
    <glyph glyph-name="pi" unicode="&#x3c0;" horiz-adv-x="639" 
d="M609 346h-90v-346h-136v346h-97l-79 -346h-137l78 345q-64 -3 -118 -19v131q60 20 156 20h423v-131z" />
    <glyph glyph-name="uni0E3F" unicode="&#xe3f;" horiz-adv-x="538" 
d="M473 285q32 -39 32 -102q0 -92 -61 -137.5t-164 -45.5h-12v-87h-28v87h-209v675h209v87h28v-87h21q97 0 156.5 -46t59.5 -128q0 -65 -32 -107t-88 -55v-3q56 -12 88 -51zM176 544v-147h64v147h-64zM329 418q22 20 22 57q0 32 -22.5 50t-60.5 19v-147q39 1 61 21zM240 131
v147h-64v-147h64zM328.5 151.5q22.5 19.5 22.5 52.5q0 36 -21.5 54.5t-61.5 19.5v-147q38 1 60.5 20.5z" />
    <glyph glyph-name="Wgrave" unicode="&#x1e80;" horiz-adv-x="1066" 
d="M825 0h-137l-154 454h-2l-154 -454h-137l-235 700h181l125 -450h2l151 450h136l151 -450h2l125 450h181zM591 743h-108l-172 120h165z" />
    <glyph glyph-name="wgrave" unicode="&#x1e81;" horiz-adv-x="808" 
d="M803 462l-168 -462h-129l-102 270l-101 -270h-129l-169 462h150l86 -271l94 271h139l93 -271l87 271h149zM462 553h-118l-162 154h165z" />
    <glyph glyph-name="Wacute" unicode="&#x1e82;" horiz-adv-x="1066" 
d="M825 0h-137l-154 454h-2l-154 -454h-137l-235 700h181l125 -450h2l151 450h136l151 -450h2l125 450h181zM584 743h-109l115 120h165z" />
    <glyph glyph-name="wacute" unicode="&#x1e83;" horiz-adv-x="808" 
d="M803 462l-168 -462h-129l-102 270l-101 -270h-129l-169 462h150l86 -271l94 271h139l93 -271l87 271h149zM459 553h-118l115 154h165z" />
    <glyph glyph-name="Wdieresis" unicode="&#x1e84;" horiz-adv-x="1066" 
d="M825 0h-137l-154 454h-2l-154 -454h-137l-235 700h181l125 -450h2l151 450h136l151 -450h2l125 450h181zM491 743h-133v114h133v-114zM709 743h-134v114h134v-114z" />
    <glyph glyph-name="wdieresis" unicode="&#x1e85;" horiz-adv-x="808" 
d="M803 462l-168 -462h-129l-102 270l-101 -270h-129l-169 462h150l86 -271l94 271h139l93 -271l87 271h149zM373 555h-124v135h124v-135zM561 555h-124v135h124v-135z" />
    <glyph glyph-name="Ygrave" unicode="&#x1ef2;" horiz-adv-x="659" 
d="M407 253v-253h-155v251l-252 449h186l142 -293h2l143 293h186zM387 743h-108l-172 120h165z" />
    <glyph glyph-name="ygrave" unicode="&#x1ef3;" horiz-adv-x="560" 
d="M555 462l-307 -662h-152l116 244l-207 418h174l108 -255l115 255h153zM345 553h-118l-162 154h165z" />
    <glyph glyph-name="endash" unicode="&#x2013;" horiz-adv-x="734" 
d="M693 211h-652v117h652v-117z" />
    <glyph glyph-name="emdash" unicode="&#x2014;" horiz-adv-x="1154" 
d="M1104 215h-1054v113h1054v-113z" />
    <glyph glyph-name="quoteleft" unicode="&#x2018;" horiz-adv-x="187" 
d="M165 612v-140h-140v140l83 156h54l-53 -156h56z" />
    <glyph glyph-name="quoteright" unicode="&#x2019;" horiz-adv-x="187" 
d="M162 715v-140l-83 -156h-54l53 156h-56v140h140z" />
    <glyph glyph-name="quotesinglbase" unicode="&#x201a;" horiz-adv-x="187" 
d="M162 140v-140l-83 -156h-54l53 156h-56v140h140z" />
    <glyph glyph-name="quotedblleft" unicode="&#x201c;" horiz-adv-x="369" 
d="M109 612h56v-140h-140v140l83 156h54zM347 612v-140h-140v140l83 156h54l-53 -156h56z" />
    <glyph glyph-name="quotedblright" unicode="&#x201d;" horiz-adv-x="369" 
d="M162 715v-140l-83 -156h-54l53 156h-56v140h140zM343 715v-140l-83 -156h-54l53 156h-56v140h140z" />
    <glyph glyph-name="quotedblbase" unicode="&#x201e;" horiz-adv-x="369" 
d="M162 140v-140l-83 -156h-54l53 156h-56v140h140zM343 140v-140l-83 -156h-54l53 156h-56v140h140z" />
    <glyph glyph-name="dagger" unicode="&#x2020;" horiz-adv-x="544" 
d="M494 368h-160v-461h-124v461h-160v116h160v216h124v-216h160v-116z" />
    <glyph glyph-name="daggerdbl" unicode="&#x2021;" horiz-adv-x="544" 
d="M334 401v-175h160v-116h-160v-203h-124v203h-160v116h160v175h-160v116h160v183h124v-183h160v-116h-160z" />
    <glyph glyph-name="bullet" unicode="&#x2022;" horiz-adv-x="390" 
d="M288 458q37 -37 37 -93t-37 -93t-93 -37t-93 37t-37 93t37 93t93 37t93 -37z" />
    <glyph glyph-name="ellipsis" unicode="&#x2026;" horiz-adv-x="757" 
d="M201 0h-160v161h160v-161zM715 0h-160v161h160v-161zM458 0h-160v161h160v-161z" />
    <glyph glyph-name="perthousand" unicode="&#x2030;" horiz-adv-x="1160" 
d="M333 645q46 -45 46 -120q0 -74 -46 -119t-118 -45t-118.5 45t-46.5 119q0 75 46.5 120t118.5 45t118 -45zM553 675h78l-396 -675h-78zM150 593.5q-25 -25.5 -25 -68.5q0 -42 25.5 -68t64.5 -26t64 26t25 68q0 43 -25 68.5t-64 25.5q-40 0 -65 -25.5zM697 279
q46 -45 46 -119q0 -75 -46 -120t-118 -45t-118.5 45t-46.5 120q0 74 46.5 119t118.5 45t118 -45zM1064 279q46 -45 46 -119q0 -75 -46 -120t-118 -45t-118.5 45t-46.5 120q0 74 46.5 119t118.5 45t118 -45zM515 228q-25 -26 -25 -68q0 -43 25 -68.5t64 -25.5t64 25.5
t25 68.5q0 42 -25 68t-64 26t-64 -26zM882 228q-25 -26 -25 -68q0 -43 25 -68.5t64 -25.5t64 25.5t25 68.5q0 42 -25 68t-64 26t-64 -26z" />
    <glyph glyph-name="guilsinglleft" unicode="&#x2039;" horiz-adv-x="351" 
d="M177 238l164 -176h-162l-164 176l164 175h162z" />
    <glyph glyph-name="guilsinglright" unicode="&#x203a;" horiz-adv-x="351" 
d="M172 413l164 -175l-164 -176h-162l164 176l-164 175h162z" />
    <glyph glyph-name="fraction" unicode="&#x2044;" horiz-adv-x="134" 
d="M226 675h78l-396 -675h-78z" />
    <glyph glyph-name="uni2070" unicode="&#x2070;" horiz-adv-x="457" 
d="M87 399.5q-52 61.5 -52 171.5q0 109 52 170.5t142 61.5q89 0 141 -61.5t52 -170.5t-52 -171t-141 -62q-90 0 -142 61.5zM276 486q16 30 16 85q0 53 -16.5 83.5t-46.5 30.5t-46.5 -30.5t-16.5 -83.5t16.5 -84t46.5 -31q31 0 47 30z" />
    <glyph glyph-name="uni2074" unicode="&#x2074;" horiz-adv-x="420" 
d="M399 422h-47v-74h-119v74h-218v90l215 281h122v-268h47v-103zM233 525v126h-3l-98 -126h101z" />
    <glyph glyph-name="uni2075" unicode="&#x2075;" horiz-adv-x="400" 
d="M26 388l66 101q41 -33 90 -33q28 0 46 12.5t18 36.5q0 20 -11.5 32.5t-33.5 12.5q-14 0 -26 -6t-19 -16h-101l22 265h253v-107l-162 -1l-5 -57h1q27 15 66 15q61 0 100 -38.5t39 -106.5q0 -74 -49.5 -117t-136.5 -43q-93 0 -157 50z" />
    <glyph glyph-name="uni2076" unicode="&#x2076;" horiz-adv-x="413" 
d="M80 385q-50 47 -50 132q0 57 22 100.5t63 94.5l73 87h152l-167 -176l2 -1q34 32 80 32q36 0 67 -16.5t50.5 -50.5t19.5 -83q0 -70 -45.5 -118t-131.5 -48q-85 0 -135 47zM249 465q15 15 15 37t-15 36.5t-39 14.5t-38.5 -14.5t-14.5 -36.5t14.5 -37t38.5 -15t39 15z" />
    <glyph glyph-name="uni2077" unicode="&#x2077;" horiz-adv-x="344" 
d="M193 670h-183v123h323v-114l-175 -331h-138z" />
    <glyph glyph-name="uni2078" unicode="&#x2078;" horiz-adv-x="419" 
d="M74 373.5q-48 35.5 -48 97.5q0 48 27 77t69 35v2q-39 5 -60.5 33t-21.5 64q0 54 45.5 87.5t123.5 33.5t123.5 -33.5t45.5 -87.5q0 -36 -21.5 -64t-61.5 -33v-2q43 -6 70 -35t27 -77q0 -62 -47.5 -97.5t-135.5 -35.5q-87 0 -135 35.5zM238.5 642.5q11.5 9.5 11.5 25.5
t-11.5 25.5t-29.5 9.5q-17 0 -28.5 -9.5t-11.5 -25.5t11 -25.5t29 -9.5t29.5 9.5zM245 460q14 12 14 31t-14 31t-36 12t-36 -12t-14 -31t14 -31t36 -12t36 12z" />
    <glyph glyph-name="uni2079" unicode="&#x2079;" horiz-adv-x="401" 
d="M235 513l-2 2q-13 -12 -32 -20.5t-37 -8.5q-38 0 -71 20.5t-52.5 56t-19.5 78.5q0 72 48 117t126 45q85 0 135 -45t50 -129q0 -61 -23 -113t-80 -111l-57 -57h-155zM240 604q15 15 15 37t-15 37t-39 15t-39 -15t-15 -37t15 -37t39 -15t39 15z" />
    <glyph glyph-name="uni2080" unicode="&#x2080;" horiz-adv-x="457" 
d="M87 -58.5q-52 61.5 -52 171.5q0 109 52 170.5t142 61.5q89 0 141 -61.5t52 -170.5t-52 -171t-141 -62q-90 0 -142 61.5zM276 28q16 30 16 85q0 53 -16.5 83.5t-46.5 30.5t-46.5 -30.5t-16.5 -83.5t16.5 -84t46.5 -31q31 0 47 30z" />
    <glyph glyph-name="uni2081" unicode="&#x2081;" horiz-adv-x="257" 
d="M68 212h-18v123h146v-445h-128v322z" />
    <glyph glyph-name="uni2082" unicode="&#x2082;" horiz-adv-x="413" 
d="M38 -6l149 130q31 27 44 42.5t13 33.5q0 15 -10.5 23.5t-29.5 8.5q-44 0 -47 -46h-127q2 72 45.5 115.5t133.5 43.5q80 0 123.5 -34.5t43.5 -101.5q0 -43 -21 -77t-64 -67l-70 -55h157v-120h-340v104z" />
    <glyph glyph-name="uni2083" unicode="&#x2083;" horiz-adv-x="412" 
d="M26 37h123q2 -20 14 -31t40 -11q27 0 41.5 10.5t14.5 28.5q0 23 -20 31.5t-64 8.5v80q69 0 69 44q0 19 -12 28.5t-33 9.5t-33 -11t-14 -29h-120q1 68 44 108.5t130 40.5q77 0 122 -33t45 -88q0 -39 -22.5 -65t-60.5 -34v-2q47 -6 72 -33.5t25 -72.5q0 -61 -44.5 -99
t-131.5 -38q-181 0 -185 157z" />
    <glyph glyph-name="uni2084" unicode="&#x2084;" horiz-adv-x="420" 
d="M399 -36h-47v-74h-119v74h-218v90l215 281h122v-268h47v-103zM233 67v126h-3l-98 -126h101z" />
    <glyph glyph-name="uni2085" unicode="&#x2085;" horiz-adv-x="400" 
d="M26 -70l66 101q41 -33 90 -33q28 0 46 12.5t18 36.5q0 20 -11.5 32.5t-33.5 12.5q-14 0 -26 -6t-19 -16h-101l22 265h253v-107l-162 -1l-5 -57h1q27 15 66 15q61 0 100 -38.5t39 -106.5q0 -74 -49.5 -117t-136.5 -43q-93 0 -157 50z" />
    <glyph glyph-name="uni2086" unicode="&#x2086;" horiz-adv-x="413" 
d="M80 -73q-50 47 -50 132q0 57 22 100.5t63 94.5l73 87h152l-167 -176l2 -1q34 32 80 32q36 0 67 -16.5t50.5 -50.5t19.5 -83q0 -70 -45.5 -118t-131.5 -48q-85 0 -135 47zM249 7q15 15 15 37t-15 36.5t-39 14.5t-38.5 -14.5t-14.5 -36.5t14.5 -37t38.5 -15t39 15z" />
    <glyph glyph-name="uni2087" unicode="&#x2087;" horiz-adv-x="344" 
d="M193 212h-183v123h323v-114l-175 -331h-138z" />
    <glyph glyph-name="uni2088" unicode="&#x2088;" horiz-adv-x="419" 
d="M74 -84.5q-48 35.5 -48 97.5q0 48 27 77t69 35v2q-39 5 -60.5 33t-21.5 64q0 54 45.5 87.5t123.5 33.5t123.5 -33.5t45.5 -87.5q0 -36 -21.5 -64t-61.5 -33v-2q43 -6 70 -35t27 -77q0 -62 -47.5 -97.5t-135.5 -35.5q-87 0 -135 35.5zM238.5 184.5q11.5 9.5 11.5 25.5
t-11.5 25.5t-29.5 9.5q-17 0 -28.5 -9.5t-11.5 -25.5t11 -25.5t29 -9.5t29.5 9.5zM245 2q14 12 14 31t-14 31t-36 12t-36 -12t-14 -31t14 -31t36 -12t36 12z" />
    <glyph glyph-name="uni2089" unicode="&#x2089;" horiz-adv-x="401" 
d="M235 55l-2 2q-13 -12 -32 -20.5t-37 -8.5q-38 0 -71 20.5t-52.5 56t-19.5 78.5q0 72 48 117t126 45q85 0 135 -45t50 -129q0 -61 -23 -113t-80 -111l-57 -57h-155zM240 146q15 15 15 37t-15 37t-39 15t-39 -15t-15 -37t15 -37t39 -15t39 15z" />
    <glyph glyph-name="TRY" unicode="&#x20a4;" horiz-adv-x="580" 
d="M549 327q0 -97 -41.5 -171.5t-115.5 -115t-168 -40.5h-103v292l-108 -49v31l108 49v56l-108 -49v31l108 49v265h145v-199l163 74v-31l-163 -74v-56l163 74v-31l-163 -74v-197q59 0 97 45t38 121h148z" />
    <glyph glyph-name="uni20A9" unicode="&#x20a9;" horiz-adv-x="1004" 
d="M903 386l-18 -68h99v-30h-107l-74 -288h-160l-85 288h-112l-85 -288h-160l-74 288h-107v30h99l-18 68h-81v30h74l-67 259h168l50 -259h105l74 259h156l74 -259h106l50 259h167l-67 -259h74v-30h-81zM484 416h37l-17 57h-3zM264 318h58l19 68h-91zM550 318l-20 68h-55
l-20 -68h95zM754 386h-91l19 -68h59zM313 288h-44l17 -87h2zM735 288h-44l25 -87h2z" />
    <glyph glyph-name="Euro" unicode="&#x20ac;" horiz-adv-x="676" 
d="M315.5 169q47.5 -41 124.5 -41q82 0 164 45v-151q-69 -37 -166 -37q-154 0 -240.5 81.5t-101.5 216.5h-91l15 30h74q-1 9 -1 26q0 22 1 33h-84l15 30h72q17 131 103.5 209.5t241.5 78.5q112 0 204 -46l-65 -130q-78 33 -141 33q-75 0 -122 -38.5t-62 -106.5h280l-15 -30
h-269q-2 -22 -2 -34q0 -17 1 -25h244l-15 -30h-225q13 -73 60.5 -114z" />
    <glyph glyph-name="uni20AE" unicode="&#x20ae;" horiz-adv-x="563" 
d="M350 544v-105l112 54v-31l-112 -54v-56l112 54v-31l-112 -54v-321h-146v249l-112 -54v31l112 54v56l-112 -54v31l112 54v177h-184v131h514v-131h-184z" />
    <glyph glyph-name="uni20B4" unicode="&#x20b4;" horiz-adv-x="556" 
d="M385 346l-26 -19h168v-30h-210l-29 -21q-44 -33 -61.5 -52t-17.5 -39q0 -56 89 -56q88 0 203 54v-154q-109 -44 -220 -44q-114 0 -172 48t-58 136q0 73 45 128h-67v30h97q22 20 62 47l30 21h-189v30h231l46 33q42 30 42 56q0 18 -14.5 27.5t-49.5 9.5q-81 0 -192 -37v141
q123 35 217 35q196 0 196 -162q0 -61 -32 -103h54v-30h-81q-20 -20 -61 -49z" />
    <glyph glyph-name="uni20B8" unicode="&#x20b8;" horiz-adv-x="554" 
d="M534 675v-131h-514v131h514zM20 489h514v-131h-184v-358h-146v358h-184v131z" />
    <glyph glyph-name="uni20B9" unicode="&#x20b9;" horiz-adv-x="528" 
d="M376 579q26 -41 30 -92h82l-22 -30h-59q-5 -78 -59 -130.5t-133 -58.5l231 -268h-186l-220 267v131h123q38 0 60 16t27 43h-210v30h209q-6 26 -27.5 41.5t-58.5 15.5h-123v131h448l-22 -30h-158q42 -25 68 -66z" />
    <glyph glyph-name="uni20BD" unicode="&#x20bd;" horiz-adv-x="613" 
d="M269 262v-52h183v-30h-183v-180h-145v180h-93v30h93v52h-93v131h93v282h226q111 0 171.5 -56t60.5 -150q0 -95 -60.5 -151t-171.5 -56h-81zM269 393h64q46 0 69.5 17.5t23.5 59.5q0 40 -24 57t-69 17h-64v-151z" />
    <glyph glyph-name="uni2113" unicode="&#x2113;" horiz-adv-x="524" 
d="M264.5 152.5q20.5 -31.5 62.5 -31.5q21 0 45.5 7t66.5 24v-137q-42 -15 -69.5 -21t-62.5 -6q-94 0 -143.5 52.5t-62.5 171.5q-24 -7 -61 -16v136q38 8 56 13q4 188 61.5 266.5t160.5 78.5q80 0 123 -42.5t43 -118.5q0 -95 -64 -161t-181 -112q5 -72 25.5 -103.5z
M266.5 533.5q-22.5 -40.5 -27.5 -142.5q118 55 118 134q0 24 -10 36.5t-27 12.5q-31 0 -53.5 -40.5z" />
    <glyph glyph-name="uni2116" unicode="&#x2116;" horiz-adv-x="1213" 
d="M683 0h-132l-334 431h-1v-431h-155v700h131l335 -433h1v433h155v-700zM1065.5 559q48.5 -26 75.5 -73t27 -109t-27 -109t-75.5 -73t-109.5 -26t-109.5 26t-76 73t-27.5 109t27.5 109t76 73t109.5 26t109.5 -26zM893.5 438.5q-24.5 -23.5 -24.5 -61.5t24.5 -61.5
t62.5 -23.5t62 23.5t24 61.5t-24 61.5t-62 23.5t-62.5 -23.5zM1155 0h-398v120h398v-120z" />
    <glyph glyph-name="trademark" unicode="&#x2122;" horiz-adv-x="927" 
d="M254 588v-309h-114v309h-110v112h334v-112h-110zM897 279h-116l-53 222l-69 -167h-87l-69 167l-52 -222h-116l105 421h94l82 -224l82 224h93z" />
    <glyph glyph-name="estimated" unicode="&#x212e;" horiz-adv-x="746" 
d="M68 462.5q47 72.5 128 115t176 42.5q96 0 177 -42.5t128 -115t47 -158.5v-9h-574v-140q0 -33 13.5 -60.5t38.5 -43.5q68 -45 172 -45q73 0 138.5 27.5t109.5 77.5h29q-50 -58 -123.5 -90.5t-155.5 -32.5q-95 0 -176 42.5t-128 115t-47 158.5t47 158.5zM374 602
q-106 0 -172 -46q-52 -35 -52 -85v-158h445v152q0 53 -44 87q-65 50 -177 50z" />
    <glyph glyph-name="uni2153" unicode="&#x2153;" horiz-adv-x="709" 
d="M152 289h-80v305h-27v81h107v-386zM459 675h78l-396 -675h-78zM629 367q35 -28 35 -72q0 -35 -19.5 -58.5t-54.5 -31.5v-1q41 -7 64.5 -29.5t23.5 -67.5q0 -51 -36 -83.5t-106 -32.5q-69 0 -107 32.5t-41 93.5h81q2 -24 18.5 -38.5t47.5 -14.5q28 0 43.5 12.5t15.5 36.5
q0 27 -21.5 38t-69.5 11v71q78 -2 78 47q0 44 -53 44q-24 0 -39.5 -12.5t-16.5 -35.5h-77q2 54 37 86.5t101 32.5q61 0 96 -28z" />
    <glyph glyph-name="uni2154" unicode="&#x2154;" horiz-adv-x="855" 
d="M267 653.5q35 -30.5 35 -82.5q0 -35 -16.5 -64.5t-49.5 -60.5l-82 -79h154v-78h-277l-1 64l138 132q25 25 37 42.5t12 35.5q0 21 -13.5 33.5t-37.5 12.5q-25 0 -41.5 -14t-17.5 -42h-80q1 57 37 94t106 37q62 0 97 -30.5zM605 675h78l-396 -675h-78zM775 367
q35 -28 35 -72q0 -35 -19.5 -58.5t-54.5 -31.5v-1q41 -7 64.5 -29.5t23.5 -67.5q0 -51 -36 -83.5t-106 -32.5q-69 0 -107 32.5t-41 93.5h81q2 -24 18.5 -38.5t47.5 -14.5q28 0 43.5 12.5t15.5 36.5q0 27 -21.5 38t-69.5 11v71q78 -2 78 47q0 44 -53 44q-24 0 -39.5 -12.5
t-16.5 -35.5h-77q2 54 37 86.5t101 32.5q61 0 96 -28z" />
    <glyph glyph-name="oneeighth" unicode="&#x215b;" horiz-adv-x="721" 
d="M152 289h-80v305h-27v81h107v-386zM459 675h78l-396 -675h-78zM430.5 23q-37.5 32 -37.5 82q0 41 20.5 66.5t56.5 34.5v2q-30 9 -47.5 30.5t-17.5 53.5q0 46 35.5 74.5t98.5 28.5t98.5 -28.5t35.5 -74.5q0 -33 -17 -54.5t-48 -29.5v-2q35 -9 56 -34.5t21 -66.5
q0 -50 -38 -82t-108 -32q-71 0 -108.5 32zM575 251.5q13 11.5 13 30.5q0 18 -13.5 29t-35.5 11t-36.5 -11.5t-14.5 -28.5q0 -19 14 -30.5t37 -11.5t36 11.5zM584.5 82q16.5 15 16.5 38t-17 37.5t-45 14.5t-45 -14.5t-17 -37.5q0 -24 16 -38.5t46 -14.5q29 0 45.5 15z" />
    <glyph glyph-name="threeeighths" unicode="&#x215c;" horiz-adv-x="840" 
d="M271 656q35 -28 35 -72q0 -35 -19.5 -58.5t-54.5 -31.5v-1q41 -7 64.5 -29.5t23.5 -67.5q0 -51 -36 -83.5t-106 -32.5q-69 0 -107 32.5t-41 93.5h81q2 -24 18.5 -38.5t47.5 -14.5q28 0 43.5 12.5t15.5 36.5q0 27 -21.5 38t-69.5 11v71q78 -2 78 47q0 44 -53 44
q-24 0 -39.5 -12.5t-16.5 -35.5h-77q2 54 37 86.5t101 32.5q61 0 96 -28zM578 675h78l-396 -675h-78zM549.5 23q-37.5 32 -37.5 82q0 41 20.5 66.5t56.5 34.5v2q-30 9 -47.5 30.5t-17.5 53.5q0 46 35.5 74.5t98.5 28.5t98.5 -28.5t35.5 -74.5q0 -33 -17 -54.5t-48 -29.5v-2
q35 -9 56 -34.5t21 -66.5q0 -50 -38 -82t-108 -32q-71 0 -108.5 32zM694 251.5q13 11.5 13 30.5q0 18 -13.5 29t-35.5 11t-36.5 -11.5t-14.5 -28.5q0 -19 14 -30.5t37 -11.5t36 11.5zM703.5 82q16.5 15 16.5 38t-17 37.5t-45 14.5t-45 -14.5t-17 -37.5q0 -24 16 -38.5
t46 -14.5q29 0 45.5 15z" />
    <glyph glyph-name="fiveeighths" unicode="&#x215d;" horiz-adv-x="823" 
d="M276 511q33 -32 33 -92q0 -65 -39.5 -102t-107.5 -37q-43 0 -79.5 14.5t-61.5 41.5l50 62q15 -17 38.5 -28t49.5 -11q32 0 50 17t18 44t-17 42.5t-43 15.5q-19 0 -32.5 -6.5t-20.5 -15.5h-69l22 219h212v-78h-151l-9 -81h2q24 27 71 27q51 0 84 -32zM561 675h78
l-396 -675h-78zM532.5 23q-37.5 32 -37.5 82q0 41 20.5 66.5t56.5 34.5v2q-30 9 -47.5 30.5t-17.5 53.5q0 46 35.5 74.5t98.5 28.5t98.5 -28.5t35.5 -74.5q0 -33 -17 -54.5t-48 -29.5v-2q35 -9 56 -34.5t21 -66.5q0 -50 -38 -82t-108 -32q-71 0 -108.5 32zM677 251.5
q13 11.5 13 30.5q0 18 -13.5 29t-35.5 11t-36.5 -11.5t-14.5 -28.5q0 -19 14 -30.5t37 -11.5t36 11.5zM686.5 82q16.5 15 16.5 38t-17 37.5t-45 14.5t-45 -14.5t-17 -37.5q0 -24 16 -38.5t46 -14.5q29 0 45.5 15z" />
    <glyph glyph-name="seveneighths" unicode="&#x215e;" horiz-adv-x="757" 
d="M284 601l-161 -312h-88l162 307h-182v79h269v-74zM495 675h78l-396 -675h-78zM466.5 23q-37.5 32 -37.5 82q0 41 20.5 66.5t56.5 34.5v2q-30 9 -47.5 30.5t-17.5 53.5q0 46 35.5 74.5t98.5 28.5t98.5 -28.5t35.5 -74.5q0 -33 -17 -54.5t-48 -29.5v-2q35 -9 56 -34.5
t21 -66.5q0 -50 -38 -82t-108 -32q-71 0 -108.5 32zM611 251.5q13 11.5 13 30.5q0 18 -13.5 29t-35.5 11t-36.5 -11.5t-14.5 -28.5q0 -19 14 -30.5t37 -11.5t36 11.5zM620.5 82q16.5 15 16.5 38t-17 37.5t-45 14.5t-45 -14.5t-17 -37.5q0 -24 16 -38.5t46 -14.5
q29 0 45.5 15z" />
    <glyph glyph-name="arrowleft" unicode="&#x2190;" horiz-adv-x="813" 
d="M763 228h-478l170 -166l-95 -96l-310 324l310 324l95 -96l-170 -166h478v-124z" />
    <glyph glyph-name="arrowup" unicode="&#x2191;" horiz-adv-x="748" 
d="M602 229l-166 170v-478h-124v478l-166 -170l-96 95l324 310l324 -310z" />
    <glyph glyph-name="arrowright" unicode="&#x2192;" horiz-adv-x="813" 
d="M763 291l-310 -324l-95 96l170 166h-478v124h478l-170 166l95 96z" />
    <glyph glyph-name="arrowdown" unicode="&#x2193;" horiz-adv-x="748" 
d="M698 257l-324 -310l-324 310l96 95l166 -170v478h124v-478l166 170z" />
    <glyph glyph-name="arrowboth" unicode="&#x2194;" horiz-adv-x="1252" 
d="M1202 290l-310 -324l-95 96l170 166h-682l170 -166l-95 -96l-310 324l310 324l95 -96l-170 -166h682l-170 166l95 96z" />
    <glyph glyph-name="arrowupdn" unicode="&#x2195;" horiz-adv-x="749" 
d="M699 84l-324 -310l-324 310l96 95l166 -170v102h-1v478l-166 -170l-96 95l324 310l324 -310l-96 -95l-166 170v-102h1v-478l166 170z" />
    <glyph glyph-name="uni2196" unicode="&#x2196;" horiz-adv-x="658" 
d="M521 -15l-338 338l2 -236l-135 -1l11 447l447 11v-136l-237 3l337 -337z" />
    <glyph glyph-name="uni2197" unicode="&#x2197;" horiz-adv-x="659" 
d="M473 86l3 237l-338 -338l-88 88l338 337l-237 -2l-1 135l448 -11l11 -446h-136z" />
    <glyph glyph-name="uni2198" unicode="&#x2198;" horiz-adv-x="658" 
d="M608 494l-11 -447l-447 -11v136l237 -3l-337 337l88 89l337 -338l-2 236z" />
    <glyph glyph-name="uni2199" unicode="&#x2199;" horiz-adv-x="659" 
d="M508 172l1 -135l-448 11l-11 446h136l-3 -237l338 338l88 -88l-338 -337z" />
    <glyph glyph-name="partialdiff" unicode="&#x2202;" horiz-adv-x="581" 
d="M397.5 676.5q70.5 -38.5 111.5 -119t41 -201.5q0 -104 -30 -188t-92.5 -133.5t-153.5 -49.5q-72 0 -127.5 30t-85.5 83t-30 118q0 68 31 122t82.5 83.5t111.5 29.5q94 0 157 -58q-10 87 -59 134.5t-124 47.5q-68 0 -132 -29l-44 132q34 16 81.5 26.5t100.5 10.5
q91 0 161.5 -38.5zM406 252q-28 28 -59 45t-73 17q-46 0 -72 -26.5t-26 -67.5q0 -43 29 -69t76 -26q96 0 125 127z" />
    <glyph glyph-name="emptyset" unicode="&#x2205;" 
d="M522.5 409.5q15.5 -40.5 15.5 -86.5q0 -66 -31 -119t-85.5 -83t-121.5 -30q-92 0 -158 55l-56 -56l-19 20l55 55q-29 31 -44.5 71.5t-15.5 86.5q0 66 31 119t85.5 83t121.5 30q45 0 85.5 -14.5t71.5 -40.5l56 56l20 -20l-55 -55q29 -31 44.5 -71.5zM218 261l144 144
q-25 20 -62 20q-45 0 -73.5 -29t-28.5 -73q0 -36 20 -62zM373.5 250q28.5 29 28.5 73q0 35 -20 63l-145 -145q26 -20 63 -20q45 0 73.5 29z" />
    <glyph glyph-name="product" unicode="&#x220f;" horiz-adv-x="728" 
d="M708 569h-111v-647h-135v647h-195v-647h-136v647h-111v131h688v-131z" />
    <glyph glyph-name="summation" unicode="&#x2211;" horiz-adv-x="556" 
d="M525 560h-316l228 -265l-228 -265h316v-140h-494v140l232 265l-232 265v140h494v-140z" />
    <glyph glyph-name="minus" unicode="&#x2212;" 
d="M539 264h-478v68h478v-68z" />
    <glyph glyph-name="radical" unicode="&#x221a;" horiz-adv-x="670" 
d="M650 715l-244 -715h-136l-140 331h-110v131h203l109 -275l176 528h142z" />
    <glyph glyph-name="infinity" unicode="&#x221e;" horiz-adv-x="760" 
d="M695.5 407.5q44.5 -42.5 44.5 -110.5t-44.5 -110.5t-117.5 -42.5q-60 0 -105.5 29t-92.5 82q-47 -53 -92.5 -82t-105.5 -29q-73 0 -117.5 42.5t-44.5 110.5t44.5 110.5t117.5 42.5q60 0 105.5 -29t92.5 -82q47 53 92.5 82t105.5 29q73 0 117.5 -42.5zM107 366
q-28 -27 -28 -69t28 -69t75 -27q45 0 81.5 24.5t78.5 71.5q-42 47 -78.5 71.5t-81.5 24.5q-47 0 -75 -27zM497 368q-37 -25 -79 -71q42 -46 79 -71t81 -25q47 0 75 27t28 69t-28 69t-75 27q-44 0 -81 -25z" />
    <glyph glyph-name="integral" unicode="&#x222b;" horiz-adv-x="437" 
d="M397 589q-60 0 -86 -24.5t-26 -82.5v-494q0 -99 -61.5 -151t-183.5 -52v126q58 1 83.5 25t25.5 82v494q0 203 248 203v-126z" />
    <glyph glyph-name="approxequal" unicode="&#x2248;" 
d="M236.5 465.5q32.5 -12.5 78.5 -36.5q39 -20 64.5 -30.5t46.5 -10.5q31 0 51 17.5t34 56.5h62q-19 -75 -58 -108.5t-88 -33.5q-31 0 -63.5 12.5t-78.5 36.5q-39 20 -64.5 30.5t-46.5 10.5q-31 0 -51 -18t-34 -57h-62q19 76 58 109.5t88 33.5q31 0 63.5 -12.5zM236.5 283.5
q32.5 -12.5 78.5 -36.5q39 -20 64.5 -30.5t46.5 -10.5q31 0 51 18t34 57h62q-19 -76 -58 -109.5t-88 -33.5q-31 0 -63.5 12.5t-78.5 36.5q-39 20 -64.5 30.5t-46.5 10.5q-31 0 -51 -18t-34 -57h-62q19 76 58 109.5t88 33.5q31 0 63.5 -12.5z" />
    <glyph glyph-name="notequal" unicode="&#x2260;" 
d="M379 374l-90 -147h264v-66h-305l-53 -87h-66l53 87h-135v66h176l90 147h-266v66h307l51 83h66l-51 -83h133v-66h-174z" />
    <glyph glyph-name="lessequal" unicode="&#x2264;" 
d="M534 419l-376 -83l376 -81v-70l-468 116v71l468 117v-70zM538 90h-476v63h476v-63z" />
    <glyph glyph-name="greaterequal" unicode="&#x2265;" 
d="M534 372v-71l-468 -116v70l376 81l-376 83v70zM538 153v-63h-476v63h476z" />
    <glyph glyph-name="uni2460" unicode="&#x2460;" horiz-adv-x="830" 
d="M226 32q-83 47 -129.5 130.5t-46.5 187.5t46.5 187.5t129.5 130.5t189 47t189 -47t129.5 -130.5t46.5 -187.5t-46.5 -187.5t-129.5 -130.5t-189 -47t-189 47zM562 97q65 38 102 104t37 149t-37 149t-102 104t-147 38t-147 -38t-102 -104t-37 -149t37 -149t102 -104
t147 -38t147 38zM385 466h-27v81h108v-386h-81v305z" />
    <glyph glyph-name="uni2461" unicode="&#x2461;" horiz-adv-x="830" 
d="M226 32q-83 47 -129.5 130.5t-46.5 187.5t46.5 187.5t129.5 130.5t189 47t189 -47t129.5 -130.5t46.5 -187.5t-46.5 -187.5t-129.5 -130.5t-189 -47t-189 47zM562 97q65 38 102 104t37 149t-37 149t-102 104t-147 38t-147 -38t-102 -104t-37 -149t37 -149t102 -104
t147 -38t147 38zM282 240l138 132q27 27 39 43.5t12 34.5q0 21 -14.5 33.5t-38.5 12.5q-26 0 -42 -14t-17 -42h-80q1 57 36.5 94t104.5 37q63 0 99.5 -31t36.5 -82q0 -35 -17.5 -64.5t-50.5 -60.5l-87 -79h159v-78h-278v64z" />
    <glyph glyph-name="uni2462" unicode="&#x2462;" horiz-adv-x="830" 
d="M226 32q-83 47 -129.5 130.5t-46.5 187.5t46.5 187.5t129.5 130.5t189 47t189 -47t129.5 -130.5t46.5 -187.5t-46.5 -187.5t-129.5 -130.5t-189 -47t-189 47zM562 97q65 38 102 104t37 149t-37 149t-102 104t-147 38t-147 -38t-102 -104t-37 -149t37 -149t102 -104
t147 -38t147 38zM317.5 184q-39.5 33 -42.5 93h81q1 -24 18 -38.5t47 -14.5q28 0 43.5 12.5t15.5 36.5q0 26 -22 37.5t-69 11.5v71q35 -1 56.5 10.5t21.5 36.5q0 22 -14.5 33t-38.5 11q-25 0 -39.5 -12t-15.5 -35h-77q2 54 37 86t100 32q61 0 96 -28t35 -73q0 -33 -19.5 -57
t-53.5 -32v-1q38 -6 62.5 -31.5t24.5 -65.5q0 -49 -36.5 -82.5t-105.5 -33.5q-65 0 -104.5 33z" />
    <glyph glyph-name="uni2463" unicode="&#x2463;" horiz-adv-x="830" 
d="M604 668q83 -47 129.5 -130.5t46.5 -187.5t-46.5 -187.5t-129.5 -130.5t-189 -47t-189 47t-129.5 130.5t-46.5 187.5t46.5 187.5t129.5 130.5t189 47t189 -47zM562 97q65 38 102 104t37 149t-37 149t-102 104t-147 38t-147 -38t-102 -104t-37 -149t37 -149t102 -104
t147 -38t147 38zM510 298h36v-70h-36v-65h-77v65h-201v65l200 256h78v-251zM433 298v144h-2l-114 -144h116z" />
    <glyph glyph-name="uni2464" unicode="&#x2464;" horiz-adv-x="830" 
d="M226 32q-83 47 -129.5 130.5t-46.5 187.5t46.5 187.5t129.5 130.5t189 47t189 -47t129.5 -130.5t46.5 -187.5t-46.5 -187.5t-129.5 -130.5t-189 -47t-189 47zM562 97q65 38 102 104t37 149t-37 149t-102 104t-147 38t-147 -38t-102 -104t-37 -149t37 -149t102 -104
t147 -38t147 38zM272 210l50 60q15 -17 38.5 -28t49.5 -11q32 0 50 17t18 44t-17.5 42.5t-42.5 15.5q-17 0 -32 -6.5t-22 -15.5h-68l21 219h213v-78h-151l-10 -81h3q24 27 67 27q31 0 59 -15t45 -43.5t17 -67.5q0 -62 -39.5 -99.5t-105.5 -37.5q-91 0 -143 58z" />
    <glyph glyph-name="uni2465" unicode="&#x2465;" horiz-adv-x="830" 
d="M226 32q-83 47 -129.5 130.5t-46.5 187.5t46.5 187.5t129.5 130.5t189 47t189 -47t129.5 -130.5t46.5 -187.5t-46.5 -187.5t-129.5 -130.5t-189 -47t-189 47zM562 97q65 38 102 104t37 149t-37 149t-102 104t-147 38t-147 -38t-102 -104t-37 -149t37 -149t102 -104
t147 -38t147 38zM303 190.5q-43 39.5 -43 109.5q0 48 21 89t60 85l71 80h98l-150 -164l2 -1q29 32 73 32q52 0 88.5 -36t36.5 -95t-39.5 -99t-107.5 -40q-67 0 -110 39.5zM458 244.5q19 16.5 19 44.5t-19 44.5t-48 16.5t-48 -16.5t-19 -44.5t19 -44.5t48 -16.5t48 16.5z" />
    <glyph glyph-name="uni2466" unicode="&#x2466;" horiz-adv-x="830" 
d="M226 32q-83 47 -129.5 130.5t-46.5 187.5t46.5 187.5t129.5 130.5t189 47t189 -47t129.5 -130.5t46.5 -187.5t-46.5 -187.5t-129.5 -130.5t-189 -47t-189 47zM562 97q65 38 102 104t37 149t-37 149t-102 104t-147 38t-147 -38t-102 -104t-37 -149t37 -149t102 -104
t147 -38t147 38zM472 460h-181v79h268v-74l-161 -312h-87z" />
    <glyph glyph-name="uni2467" unicode="&#x2467;" horiz-adv-x="830" 
d="M226 32q-83 47 -129.5 130.5t-46.5 187.5t46.5 187.5t129.5 130.5t189 47t189 -47t129.5 -130.5t46.5 -187.5t-46.5 -187.5t-129.5 -130.5t-189 -47t-189 47zM562 97q65 38 102 104t37 149t-37 149t-102 104t-147 38t-147 -38t-102 -104t-37 -149t37 -149t102 -104
t147 -38t147 38zM307 186q-38 32 -38 82q0 76 77 101v2q-30 10 -47 31t-17 53q0 46 35.5 74.5t97.5 28.5q64 0 99.5 -28.5t35.5 -74.5q0 -63 -65 -84v-2q77 -26 77 -101q0 -50 -38 -82t-109 -32q-70 0 -108 32zM451.5 414q13.5 11 13.5 31q0 18 -13.5 29t-36.5 11
q-22 0 -36.5 -11.5t-14.5 -28.5q0 -19 14 -30.5t37 -11.5t36.5 11zM460.5 245q16.5 15 16.5 38t-16.5 37.5t-45.5 14.5q-28 0 -45 -14.5t-17 -37.5t16 -38t46 -15q29 0 45.5 15z" />
    <glyph glyph-name="uni2468" unicode="&#x2468;" horiz-adv-x="830" 
d="M226 32q-83 47 -129.5 130.5t-46.5 187.5t46.5 187.5t129.5 130.5t189 47t189 -47t129.5 -130.5t46.5 -187.5t-46.5 -187.5t-129.5 -130.5t-189 -47t-189 47zM562 97q65 38 102 104t37 149t-37 149t-102 104t-147 38t-147 -38t-102 -104t-37 -149t37 -149t102 -104
t147 -38t147 38zM466 305h-2q-26 -23 -67 -23q-54 0 -90 36t-36 91q0 63 40.5 101t108.5 38q62 0 103.5 -38.5t41.5 -107.5q0 -48 -18.5 -90.5t-62.5 -92.5l-61 -66h-100zM466.5 368.5q18.5 16.5 18.5 44.5t-18.5 44.5t-47.5 16.5q-28 0 -47 -16.5t-19 -44.5t18.5 -44.5
t47.5 -16.5t47.5 16.5z" />
    <glyph glyph-name="uni24EA" unicode="&#x24ea;" horiz-adv-x="830" 
d="M226 32q-83 47 -129.5 130.5t-46.5 187.5t46.5 187.5t129.5 130.5t189 47t189 -47t129.5 -130.5t46.5 -187.5t-46.5 -187.5t-129.5 -130.5t-189 -47t-189 47zM562 97q65 38 102 104t37 149t-37 149t-102 104t-147 38t-147 -38t-102 -104t-37 -149t37 -149t102 -104
t147 -38t147 38zM292 203q-44 53 -44 150q0 96 44 148.5t124 52.5q78 0 122 -52.5t44 -148.5t-44 -149.5t-122 -53.5q-80 0 -124 53zM476 260q21 33 21 93q0 57 -21.5 90.5t-59.5 33.5q-39 0 -60.5 -33.5t-21.5 -90.5q0 -59 21.5 -92.5t60.5 -33.5t60 33z" />
    <glyph glyph-name="uni24FF" unicode="&#x24ff;" horiz-adv-x="830" 
d="M228.5 32.5q-83.5 47.5 -131 131t-47.5 186.5t47.5 186.5t131 131t186.5 47.5t186.5 -47.5t131 -131t47.5 -186.5t-47.5 -186.5t-131 -131t-186.5 -47.5t-186.5 47.5zM538 203.5q44 53.5 44 149.5t-44 148.5t-122 52.5q-80 0 -124 -52.5t-44 -148.5q0 -97 44 -150
t124 -53q78 0 122 53.5zM355.5 260.5q-21.5 33.5 -21.5 92.5q0 57 21.5 90.5t60.5 33.5q38 0 59.5 -33.5t21.5 -90.5q0 -60 -21 -93t-60 -33t-60.5 33.5z" />
    <glyph glyph-name="lozenge" unicode="&#x25ca;" horiz-adv-x="620" 
d="M600 350l-235 -365h-110l-235 365l235 365h110zM179 350l131 -209l131 209l-131 209z" />
    <glyph glyph-name="uni2776" unicode="&#x2776;" horiz-adv-x="830" 
d="M228.5 32.5q-83.5 47.5 -131 131t-47.5 186.5t47.5 186.5t131 131t186.5 47.5t186.5 -47.5t131 -131t47.5 -186.5t-47.5 -186.5t-131 -131t-186.5 -47.5t-186.5 47.5zM467 163v386h-108v-81h27v-305h81z" />
    <glyph glyph-name="uni2777" unicode="&#x2777;" horiz-adv-x="830" 
d="M228.5 32.5q-83.5 47.5 -131 131t-47.5 186.5t47.5 186.5t131 131t186.5 47.5t186.5 -47.5t131 -131t47.5 -186.5t-47.5 -186.5t-131 -131t-186.5 -47.5t-186.5 47.5zM553 172v78h-158l87 79q33 31 50.5 60.5t17.5 64.5q0 51 -36.5 82t-99.5 31q-69 0 -104.5 -37
t-37.5 -94h80q1 28 17.5 42t42.5 14q24 0 38 -12.5t14 -33.5q0 -18 -12 -35t-38 -43l-138 -132v-64h277z" />
    <glyph glyph-name="uni2778" unicode="&#x2778;" horiz-adv-x="830" 
d="M228.5 32.5q-83.5 47.5 -131 131t-47.5 186.5t47.5 186.5t131 131t186.5 47.5t186.5 -47.5t131 -131t47.5 -186.5t-47.5 -186.5t-131 -131t-186.5 -47.5t-186.5 47.5zM520 189.5q37 33.5 37 82.5q0 40 -24.5 65.5t-63.5 31.5v1q35 8 54.5 32t19.5 57q0 45 -35 73t-97 28
q-65 0 -100 -32t-37 -86h77q1 23 16 35t40 12q23 0 38 -11.5t15 -32.5q0 -25 -22 -36.5t-57 -10.5v-71q47 0 69 -11.5t22 -37.5q0 -24 -15 -36.5t-43 -12.5q-31 0 -47.5 14t-18.5 39h-81q3 -60 42.5 -93t105.5 -33q68 0 105 33.5z" />
    <glyph glyph-name="uni2779" unicode="&#x2779;" horiz-adv-x="830" 
d="M228.5 32.5q-83.5 47.5 -131 131t-47.5 186.5t47.5 186.5t131 131t186.5 47.5t186.5 -47.5t131 -131t47.5 -186.5t-47.5 -186.5t-131 -131t-186.5 -47.5t-186.5 47.5zM505 170v65h36v70h-36v251h-78l-200 -256v-65h201v-65h77zM426 449h2v-144h-117z" />
    <glyph glyph-name="uni277A" unicode="&#x277a;" horiz-adv-x="830" 
d="M228.5 32.5q-83.5 47.5 -131 131t-47.5 186.5t47.5 186.5t131 131t186.5 47.5t186.5 -47.5t131 -131t47.5 -186.5t-47.5 -186.5t-131 -131t-186.5 -47.5t-186.5 47.5zM509.5 189.5q39.5 37.5 39.5 99.5q0 58 -36 92t-84 34q-44 0 -68 -27h-2l9 81h152v78h-214l-20 -219
h68q7 9 22 15.5t31 6.5q26 0 43.5 -15.5t17.5 -42.5t-18.5 -44t-50.5 -17q-25 0 -49 11t-38 28l-51 -60q52 -58 144 -58q65 0 104.5 37.5z" />
    <glyph glyph-name="uni277B" unicode="&#x277b;" horiz-adv-x="830" 
d="M228.5 32.5q-83.5 47.5 -131 131t-47.5 186.5t47.5 186.5t131 131t186.5 47.5t186.5 -47.5t131 -131t47.5 -186.5t-47.5 -186.5t-131 -131t-186.5 -47.5t-186.5 47.5zM521.5 197q39.5 40 39.5 99t-37 95t-89 36q-42 0 -73 -32l-1 1l149 164h-97l-71 -80q-39 -44 -60 -85
t-21 -89q0 -70 43 -109.5t110 -39.5q68 0 107.5 40zM363 250.5q-19 16.5 -19 44.5t19 44.5t48 16.5t48 -16.5t19 -44.5t-19 -44.5t-48 -16.5t-48 16.5z" />
    <glyph glyph-name="uni277C" unicode="&#x277c;" horiz-adv-x="830" 
d="M228.5 32.5q-83.5 47.5 -131 131t-47.5 186.5t47.5 186.5t131 131t186.5 47.5t186.5 -47.5t131 -131t47.5 -186.5t-47.5 -186.5t-131 -131t-186.5 -47.5t-186.5 47.5zM398 153l162 312v74h-269v-79h182l-162 -307h87z" />
    <glyph glyph-name="uni277D" unicode="&#x277d;" horiz-adv-x="830" 
d="M228.5 32.5q-83.5 47.5 -131 131t-47.5 186.5t47.5 186.5t131 131t186.5 47.5t186.5 -47.5t131 -131t47.5 -186.5t-47.5 -186.5t-131 -131t-186.5 -47.5t-186.5 47.5zM524 186q38 32 38 82q0 75 -77 101v2q65 21 65 84q0 46 -35.5 74.5t-99.5 28.5q-62 0 -97.5 -28.5
t-35.5 -74.5q0 -32 17 -53t47 -31v-2q-77 -25 -77 -101q0 -50 38 -82t108 -32q71 0 109 32zM378 414.5q-14 11.5 -14 30.5q0 17 14.5 28.5t36.5 11.5q23 0 36.5 -11t13.5 -29q0 -20 -13.5 -31t-36.5 -11t-37 11.5zM369 245q-16 15 -16 38t17 37.5t45 14.5q29 0 45.5 -14.5
t16.5 -37.5t-16.5 -38t-45.5 -15q-30 0 -46 15z" />
    <glyph glyph-name="uni277E" unicode="&#x277e;" horiz-adv-x="830" 
d="M228.5 32.5q-83.5 47.5 -131 131t-47.5 186.5t47.5 186.5t131 131t186.5 47.5t186.5 -47.5t131 -131t47.5 -186.5t-47.5 -186.5t-131 -131t-186.5 -47.5t-186.5 47.5zM420 154l61 66q45 49 63.5 92t18.5 91q0 69 -42 107.5t-104 38.5q-67 0 -107.5 -38t-40.5 -101
q0 -55 35.5 -91t89.5 -36q41 0 67 23h3l-144 -152h100zM369 369.5q-19 16.5 -19 44.5t19 44.5t47 16.5q29 0 48 -16.5t19 -44.5t-19 -44.5t-48 -16.5q-28 0 -47 16.5z" />
    <glyph glyph-name="uniF8FF" unicode="&#xf8ff;" horiz-adv-x="865" 
d="M60.5 702q10.5 10 26.5 10q15 0 26 -10.5t11 -25.5q0 -10 -4.5 -19.5t-13.5 -14.5v-24q49 20 88.5 31t84.5 11t76 -21.5t31 -61.5v-25q55 12 104 12q57 0 96.5 -19t39.5 -64v-48q48 12 81 12q55 0 81.5 -21.5t26.5 -57.5v-240q-52 32 -107 32q-16 0 -34 -3.5t-33 -7.5
q-32 -9 -53 -9q-51 0 -51 46v86q-23 5 -47 5q-26 0 -76 -10q-46 -8 -64 -8q-54 0 -54 46v68h-14q-62 0 -176 -44v-327h-39v643q-8 5 -12.5 14t-4.5 19q0 16 10.5 26zM334.5 618.5q-22.5 13.5 -54.5 13.5q-43 0 -81.5 -11.5t-92.5 -33.5v-230q110 42 175 42q45 0 76 -14v192
q0 28 -22.5 41.5zM247 485v-68h-30v68l-65 95h38l42 -64l42 64h38zM578.5 517.5q-19.5 18.5 -86.5 18.5q-45 0 -106 -12v-171q0 -12 -8.5 -18t-25.5 -12q-15 -5 -22.5 -10t-7.5 -14q0 -7 6.5 -10.5t20.5 -3.5q16 0 60 8q56 9 81 9q28 0 57.5 -6.5t50.5 -18.5v197
q0 25 -19.5 43.5zM422.5 472q22.5 23 57.5 23t57.5 -23t22.5 -58t-22.5 -58t-57.5 -23t-57.5 23t-22.5 58t22.5 58zM516 451.5q-14 14.5 -36 14.5t-36 -14.5t-14 -37.5t14 -37.5t36 -14.5t36 14.5t14 37.5t-14 37.5zM767 404.5q-21 11.5 -59 11.5q-34 0 -82 -12v-167
q0 -13 -8.5 -19t-25.5 -14q-14 -5 -21 -9.5t-7 -13.5q0 -16 25 -16q17 0 48 9q44 12 70 12q39 0 81 -15v194q0 28 -21 39.5zM699 273h-16l-10 100h36zM347 361.5q-9 4.5 -23 6.5v-32q5 3 13.5 5.5t13.5 4.5t5 6q0 5 -9 9.5zM564 264v-47q6 4 15 7.5t14 7t5 8.5q0 13 -34 24z
M676.5 244.5q5.5 5.5 14.5 5.5t14.5 -5.5t5.5 -13.5q0 -9 -5.5 -14.5t-14.5 -5.5t-14.5 5.5t-5.5 14.5q0 8 5.5 13.5z" />
    <glyph glyph-name="i.loclTRK" horiz-adv-x="244" 
d="M47 462h151v-462h-151v462zM203 547h-162v152h162v-152z" />
    <glyph glyph-name="XBT" horiz-adv-x="536" 
d="M473 285q32 -39 32 -102q0 -90 -58 -135.5t-157 -47.5v-87h-28v87h-49v-87h-28v87h-154v675h154v87h28v-87h49v87h28v-87q96 0 155.5 -46t59.5 -127q0 -66 -32 -108t-88 -55v-3q56 -12 88 -51zM328 417.5q23 20.5 23 57.5q0 33 -23.5 51t-63.5 18h-88v-147h88
q41 0 64 20.5zM327.5 150.5q23.5 19.5 23.5 53.5q0 37 -23 55.5t-64 18.5h-88v-147h88q40 0 63.5 19.5z" />
    <glyph glyph-name="dollar.tf" 
d="M489.5 45.5q-61.5 -55.5 -167.5 -60.5v-62h-28v62q-76 2 -131 31.5t-84 80.5t-29 117h155q4 -45 26 -67.5t63 -25.5v158q-71 28 -110.5 49.5t-70.5 64.5t-31 111q0 86 58 134.5t154 51.5v72h28v-72q100 -5 159.5 -60t59.5 -159h-154q-1 39 -17.5 58t-47.5 23v-127
q12 -5 22 -8q64 -24 105.5 -47t71.5 -66t30 -109q0 -94 -61.5 -149.5zM247 465q16 -15 47 -29v117q-63 -4 -63 -52q0 -21 16 -36zM381.5 140q19.5 17 19.5 44q0 28 -20 47t-59 36v-147q40 3 59.5 20z" />
    <glyph glyph-name="cent.tf" 
d="M426.5 328.5q-26.5 6.5 -54.5 6.5v-208q27 0 53.5 7t70.5 24v-143q-57 -27 -124 -30v-49h-28v49q-70 3 -124.5 34.5t-85 86.5t-30.5 125t30.5 125t85 86.5t124.5 34.5v55h28v-55q65 -2 124 -29v-144q-43 18 -69.5 24.5zM283 164q23 -27 61 -35v204q-38 -8 -61 -35
t-23 -67t23 -67z" />
    <glyph glyph-name="sterling.tf" 
d="M229 132h286v-132h-446v111q51 28 81.5 62.5t30.5 73.5q0 24 -10.5 44.5t-33.5 53.5h-88v30h68q-35 57 -35 115q0 95 62 147.5t177 52.5q105 0 167.5 -54t62.5 -166h-155q-2 37 -23 58t-58 21q-35 0 -55.5 -18.5t-20.5 -48.5q0 -24 12 -47t38 -60h154v-30h-134
q29 -49 29 -85q0 -41 -29.5 -70t-81.5 -53z" />
    <glyph glyph-name="florin.tf" 
d="M383.5 526q-19.5 -17 -19.5 -55v-9h116v-30h-116v-415q0 -102 -49.5 -159.5t-140.5 -57.5h-58v133h41q28 0 45 18t17 56v425h-95v30h95v8q0 97 53.5 151t160.5 54h47v-132h-36q-41 0 -60.5 -17z" />
    <glyph glyph-name="yen.tf" 
d="M395 289h133v-30h-147l-13 -27v-29h160v-30h-160v-173h-136v173h-160v30h160v29l-13 27h-147v30h133l-183 386h168l110 -296l110 296h168z" />
    <glyph glyph-name="Euro.tf" 
d="M275 160q45 -44 117 -44q80 0 157 49v-143q-65 -37 -156 -37q-95 0 -163.5 40.5t-107 107.5t-48.5 150h-66l15 30h49q-1 9 -1 26q0 22 1 33h-59l15 30h47q11 80 49.5 145t107.5 104t166 39q108 0 193 -50l-56 -117q-76 36 -139 36q-72 0 -117.5 -41t-59.5 -116h251
l-15 -30h-240q-1 -11 -1 -33q0 -18 1 -26h217l-15 -30h-199q12 -79 57 -123z" />
    <glyph glyph-name="Indianrupeesign.tf" 
d="M412 579q26 -41 30 -92h82l-22 -30h-59q-5 -78 -59 -130.5t-133 -58.5l231 -268h-186l-220 267v131h123q38 0 60 16t27 43h-210v30h209q-6 26 -27.5 41.5t-58.5 15.5h-123v131h448l-22 -30h-158q42 -25 68 -66z" />
    <glyph glyph-name="THB.tf" 
d="M505 285q32 -39 32 -102q0 -92 -61 -137.5t-164 -45.5h-12v-87h-28v87h-209v675h209v87h28v-87h21q97 0 156.5 -46t59.5 -128q0 -65 -32 -107t-88 -55v-3q56 -12 88 -51zM208 544v-147h64v147h-64zM361 418q22 20 22 57q0 32 -22.5 50t-60.5 19v-147q39 1 61 21zM272 131
v147h-64v-147h64zM360.5 151.5q22.5 19.5 22.5 52.5q0 36 -21.5 54.5t-61.5 19.5v-147q38 1 60.5 20.5z" />
    <glyph glyph-name="RUB.tf" 
d="M262 262v-52h183v-30h-183v-180h-145v180h-93v30h93v52h-93v131h93v282h226q111 0 171.5 -56t60.5 -150q0 -95 -60.5 -151t-171.5 -56h-81zM262 393h64q46 0 69.5 17.5t23.5 59.5q0 40 -24 57t-69 17h-64v-151z" />
    <glyph glyph-name="TRY.tf" 
d="M568 327q0 -97 -41.5 -171.5t-115.5 -115t-168 -40.5h-103v292l-108 -49v31l108 49v56l-108 -49v31l108 49v265h145v-199l163 74v-31l-163 -74v-56l163 74v-31l-163 -74v-197q59 0 97 45t38 121h148z" />
    <glyph glyph-name="uni20A9.tf" 
d="M554 391l-9 -68h55v-30h-59l-36 -293h-147l-32 293h-52l-32 -293h-147l-36 293h-59v30h55l-9 68h-46v30h43l-32 254h122l20 -254h52l28 254h134l29 -254h52l19 254h122l-32 -254h43v-30h-46zM288 421h24l-10 88h-4zM160 323h34l7 68h-46zM322 323l-7 68h-30l-7 -68h44z
M445 391h-46l7 -68h34zM190 293h-28l10 -126h4zM438 293h-28l14 -126h4z" />
    <glyph glyph-name="uni20B4.tf" 
d="M407 346l-26 -19h168v-30h-210l-29 -21q-44 -33 -61.5 -52t-17.5 -39q0 -56 89 -56q88 0 203 54v-154q-109 -44 -220 -44q-114 0 -172 48t-58 136q0 73 45 128h-67v30h97q22 20 62 47l30 21h-189v30h231l46 33q42 30 42 56q0 18 -14.5 27.5t-49.5 9.5q-81 0 -192 -37v141
q123 35 217 35q196 0 196 -162q0 -61 -32 -103h54v-30h-81q-20 -20 -61 -49z" />
    <glyph glyph-name="XBT.tf" 
d="M505 285q32 -39 32 -102q0 -90 -58 -135.5t-157 -47.5v-87h-28v87h-49v-87h-28v87h-154v675h154v87h28v-87h49v87h28v-87q96 0 155.5 -46t59.5 -127q0 -66 -32 -108t-88 -55v-3q56 -12 88 -51zM360 417.5q23 20.5 23 57.5q0 33 -23.5 51t-63.5 18h-88v-147h88
q41 0 64 20.5zM359.5 150.5q23.5 19.5 23.5 53.5q0 37 -23 55.5t-64 18.5h-88v-147h88q40 0 63.5 19.5z" />
    <glyph glyph-name="uni20B8.tf" 
d="M557 675v-131h-514v131h514zM43 489h514v-131h-184v-358h-146v358h-184v131z" />
    <glyph glyph-name="uni20AE.tf" 
d="M369 544v-105l112 54v-31l-112 -54v-56l112 54v-31l-112 -54v-321h-146v249l-112 -54v31l112 54v56l-112 -54v31l112 54v177h-184v131h514v-131h-184z" />
    <glyph glyph-name="perthousand.tf" 
d="M58.5 423q-37.5 43 -37.5 112t37.5 112t94.5 43t94.5 -43t37.5 -112t-37.5 -112t-94.5 -43t-94.5 43zM109 600q-19 -23 -19 -65t19 -65t44 -23q26 0 45 23t19 65t-19 65t-45 23q-25 0 -44 -23zM545 479l-500 -232l-12 25l500 232zM541.5 252q37.5 -43 37.5 -112
t-37.5 -112t-94.5 -43q-29 0 -54.5 12t-43.5 35q-18 -23 -43.5 -35t-54.5 -12q-57 0 -94.5 43t-37.5 112t37.5 112t94.5 43q29 0 54.5 -12t43.5 -35q18 23 43.5 35t54.5 12q57 0 94.5 -43zM296 75q19 23 19 65t-19 65t-45 23q-25 0 -44 -23t-19 -65t19 -65t44 -23
q26 0 45 23zM491 75q19 23 19 65t-19 65t-44 23q-26 0 -45 -23t-19 -65t19 -65t45 -23q25 0 44 23z" />
    <glyph glyph-name="zero.zero" horiz-adv-x="621" 
d="M561 518q28 -75 28 -180q0 -169 -73 -261t-206 -92q-82 0 -141 35l-26 -51l-26 11l28 56q-56 43 -85 119.5t-29 182.5q0 169 72.5 260.5t206.5 91.5q83 0 145 -37l22 43l26 -11l-24 -48q54 -44 82 -119zM220 184l165 330q-28 33 -75 33q-58 0 -90 -54.5t-32 -154.5
q0 -99 32 -154zM400.5 183q32.5 55 32.5 155q0 96 -29 149l-166 -328q29 -31 72 -31q58 0 90.5 55z" />
    <glyph glyph-name="zero.tf.zero" 
d="M551 518q28 -75 28 -180q0 -169 -73 -261t-206 -92q-82 0 -141 35l-26 -51l-26 11l28 56q-56 43 -85 119.5t-29 182.5q0 169 72.5 260.5t206.5 91.5q83 0 145 -37l22 43l26 -11l-24 -48q54 -44 82 -119zM210 184l165 330q-28 33 -75 33q-58 0 -90 -54.5t-32 -154.5
q0 -99 32 -154zM390.5 183q32.5 55 32.5 155q0 96 -29 149l-166 -328q29 -31 72 -31q58 0 90.5 55z" />
    <glyph glyph-name="zero.tf" 
d="M506.5 598.5q72.5 -91.5 72.5 -260.5t-73 -261t-206 -92t-206 92t-73 261t72.5 260.5t206.5 91.5t206.5 -91.5zM210 492.5q-32 -54.5 -32 -154.5t32 -155t90 -55t90.5 55t32.5 155t-32 154.5t-91 54.5q-58 0 -90 -54.5z" />
    <glyph glyph-name="one.tf" 
d="M522 141v-141h-444v141h154v389h-93v145h239v-534h144z" />
    <glyph glyph-name="two.tf" 
d="M64 119l227 225q46 46 65 76.5t19 59.5q0 34 -20 52.5t-57 18.5q-43 0 -65.5 -22.5t-22.5 -66.5h-153q0 108 64.5 168t180.5 60q108 0 169 -53t61 -146q0 -58 -27.5 -108t-93.5 -112l-146 -139l269 2v-134h-470v119z" />
    <glyph glyph-name="three.tf" 
d="M456.5 644q60.5 -46 60.5 -132q0 -59 -31.5 -98.5t-88.5 -52.5v-2q68 -11 104.5 -53.5t36.5 -112.5q0 -98 -66 -153t-184 -55q-124 0 -190 57t-66 164h158q3 -40 28 -61t71 -21q92 0 92 85q0 45 -30.5 63t-104.5 18h-23v114h23q56 0 81.5 19t25.5 60q0 33 -19.5 50.5
t-55.5 17.5q-37 0 -58 -18t-22 -49h-155q1 98 63.5 152t177.5 54q112 0 172.5 -46z" />
    <glyph glyph-name="four.tf" 
d="M568 113h-61v-113h-142v113h-333v115l318 447h157v-431h61v-131zM365 244v247h-4l-175 -247h179z" />
    <glyph glyph-name="five.tf" 
d="M430 419.5q50 -27.5 77 -77.5t27 -116q0 -112 -71.5 -176.5t-196.5 -64.5q-139 0 -238 85l89 121q67 -67 148 -67q52 0 81.5 28.5t29.5 78.5q0 46 -25.5 72.5t-71.5 26.5q-58 0 -90 -50h-119l35 395h362v-134h-255l-13 -127h3q42 33 112 33q66 0 116 -27.5z" />
    <glyph glyph-name="six.tf" 
d="M160 16.5q-61 31.5 -94 90.5t-33 138q0 69 29 136.5t89 138.5l132 159h182l-236 -268l3 -2q29 26 54.5 36.5t60.5 10.5q64 0 113.5 -28.5t76.5 -79.5t27 -118q0 -71 -33 -127t-92 -87t-135 -31q-83 0 -144 31.5zM377.5 153q30.5 29 30.5 75q0 47 -30 75.5t-79 28.5
t-79 -29t-30 -75t30.5 -75t78.5 -29t78.5 29z" />
    <glyph glyph-name="seven.tf" 
d="M524 540l-263 -540h-160l265 534h-291v141h449v-135z" />
    <glyph glyph-name="eight.tf" 
d="M110 37.5q-68 52.5 -68 146.5q0 66 35 112t94 60v3q-51 14 -80 54t-29 95q0 85 64 133.5t174 48.5q111 0 175 -48.5t64 -133.5q0 -55 -29.5 -95t-80.5 -54v-3q60 -13 94.5 -59.5t34.5 -112.5q0 -94 -68 -146.5t-190 -52.5t-190 52.5zM356.5 438q21.5 20 21.5 51
q0 32 -21.5 52t-56.5 20t-56.5 -20t-21.5 -52q0 -31 21.5 -51t56.5 -20t56.5 20zM369.5 145.5q26.5 25.5 26.5 66.5t-27 67t-69 26t-69 -26t-27 -67t26.5 -66.5t69.5 -25.5t69.5 25.5z" />
    <glyph glyph-name="nine.tf" 
d="M359 251l-2 2q-55 -35 -109 -35q-58 0 -107 31t-77.5 84t-28.5 116q0 70 33.5 125t93.5 85.5t137 30.5q81 0 140.5 -31.5t92 -89.5t32.5 -136q0 -77 -34.5 -151t-108.5 -156l-114 -126h-183zM378.5 370q30.5 29 30.5 75t-31 75.5t-78 29.5t-77.5 -29.5t-30.5 -75.5
t30.5 -75t77.5 -29q48 0 78.5 29z" />
    <glyph glyph-name="dot" horiz-adv-x="236" 
d="M198 0h-160v161h160v-161z" />
    <glyph glyph-name="Adieresis.ss01" horiz-adv-x="716" 
d="M493 142h-269l-50 -142h-174l276 700h164l276 -700h-173zM445 280l-87 248l-86 -248h173zM302 867.5q23 -23.5 23 -57.5t-23 -57t-57 -23q-35 0 -58 23t-23 57q0 35 23.5 58t57.5 23t57 -23.5zM530 867.5q23 -23.5 23 -57.5t-23 -57t-57 -23q-35 0 -58 23t-23 57
q0 35 23.5 58t57.5 23t57 -23.5z" />
    <glyph glyph-name="Cdotaccent.ss01" horiz-adv-x="667" 
d="M207.5 30q-87.5 45 -137 128t-49.5 192t49.5 192t137 128t197.5 45q140 0 251 -78l-84 -136q-81 54 -167 54q-61 0 -109.5 -25t-76 -71.5t-27.5 -108.5t27.5 -108.5t76 -71.5t109.5 -25q86 0 167 54l84 -136q-111 -78 -251 -78q-110 0 -197.5 45zM459 876.5
q23 -23.5 23 -57.5t-23 -57t-57 -23q-35 0 -58 23t-23 57q0 35 23 58t58 23q34 0 57 -23.5z" />
    <glyph glyph-name="Edieresis.ss01" horiz-adv-x="530" 
d="M499 145v-145h-438v700h433v-145h-278v-110h250v-141h-250v-159h283zM236 867.5q23 -23.5 23 -57.5t-23 -57t-57 -23q-35 0 -58 23t-23 57q0 35 23.5 58t57.5 23t57 -23.5zM464 867.5q23 -23.5 23 -57.5t-23 -57t-57 -23q-35 0 -58 23t-23 57q0 35 23.5 58t57.5 23
t57 -23.5z" />
    <glyph glyph-name="Edotaccent.ss01" horiz-adv-x="530" 
d="M499 145v-145h-438v700h433v-145h-278v-110h250v-141h-250v-159h283zM350 876.5q23 -23.5 23 -57.5t-23 -57t-57 -23q-35 0 -58 23t-23 57q0 35 23 58t58 23q34 0 57 -23.5z" />
    <glyph glyph-name="Gcommaaccent.ss01" horiz-adv-x="751" 
d="M735 369q0 -113 -37.5 -199.5t-114.5 -135.5t-191 -49q-108 0 -192 44.5t-131.5 127.5t-47.5 195q0 108 46 190.5t132.5 127.5t203.5 45q157 0 276 -92l-101 -133q-42 32 -85.5 48.5t-93.5 16.5q-65 0 -111.5 -26.5t-71 -72.5t-24.5 -105q0 -92 56 -149t155 -57
q78 0 119.5 36t48.5 85h-180v139h343q1 -12 1 -36zM448 -158l-57 -52h-45l28 48q-17 9 -26.5 25.5t-9.5 35.5q0 30 19.5 49t48.5 19t48.5 -19t19.5 -49q0 -33 -26 -57z" />
    <glyph glyph-name="Gdotaccent.ss01" horiz-adv-x="751" 
d="M735 369q0 -113 -37.5 -199.5t-114.5 -135.5t-191 -49q-108 0 -192 44.5t-131.5 127.5t-47.5 195q0 108 46 190.5t132.5 127.5t203.5 45q157 0 276 -92l-101 -133q-42 32 -85.5 48.5t-93.5 16.5q-65 0 -111.5 -26.5t-71 -72.5t-24.5 -105q0 -92 56 -149t155 -57
q78 0 119.5 36t48.5 85h-180v139h343q1 -12 1 -36zM447 876.5q23 -23.5 23 -57.5t-23 -57t-57 -23q-35 0 -58 23t-23 57q0 35 23 58t58 23q34 0 57 -23.5z" />
    <glyph glyph-name="Idieresis.ss01" horiz-adv-x="277" 
d="M216 0h-155v700h155v-700zM82 867.5q23 -23.5 23 -57.5t-23 -57t-57 -23q-35 0 -58 23t-23 57q0 35 23.5 58t57.5 23t57 -23.5zM310 867.5q23 -23.5 23 -57.5t-23 -57t-57 -23q-35 0 -58 23t-23 57q0 35 23.5 58t57.5 23t57 -23.5z" />
    <glyph glyph-name="Idotaccent.ss01" horiz-adv-x="277" 
d="M216 0h-155v700h155v-700zM196 876.5q23 -23.5 23 -57.5t-23 -57t-57 -23q-35 0 -58 23t-23 57q0 35 23 58t58 23q34 0 57 -23.5z" />
    <glyph glyph-name="Kcommaaccent.ss01" horiz-adv-x="726" 
d="M505 0l-289 335v-335h-155v700h155v-309l249 309h211l-289 -328l339 -372h-221zM395 -158l-57 -52h-45l28 48q-17 9 -26.5 25.5t-9.5 35.5q0 30 19.5 49t48.5 19t48.5 -19t19.5 -49q0 -33 -26 -57z" />
    <glyph glyph-name="Lcaron.ss01" horiz-adv-x="496" 
d="M216 146h279v-146h-434v700h155v-554zM480 696.5q24 -23.5 24 -60.5q0 -29 -16 -51l-94 -167h-58l49 140q-24 8 -37.5 29t-13.5 49q0 37 23.5 60.5t61.5 23.5q37 0 61 -23.5z" />
    <glyph glyph-name="Lcommaaccent.ss01" horiz-adv-x="496" 
d="M216 146h279v-146h-434v700h155v-554zM326 -158l-57 -52h-45l28 48q-17 9 -26.5 25.5t-9.5 35.5q0 30 19.5 49t48.5 19t48.5 -19t19.5 -49q0 -33 -26 -57z" />
    <glyph glyph-name="Ldot.ss01" horiz-adv-x="496" 
d="M216 146h279v-146h-434v700h155v-554zM445 450q27 -27 27 -67t-27 -67t-67 -27t-67 27t-27 67t27 67t67 27t67 -27z" />
    <glyph glyph-name="Ncommaaccent.ss01" horiz-adv-x="744" 
d="M683 0h-132l-334 431h-1v-431h-155v700h131l335 -433h1v433h155v-700zM419 -158l-57 -52h-45l28 48q-17 9 -26.5 25.5t-9.5 35.5q0 30 19.5 49t48.5 19t48.5 -19t19.5 -49q0 -33 -26 -57z" />
    <glyph glyph-name="Odieresis.ss01" horiz-adv-x="780" 
d="M578 669q84 -46 132.5 -129t48.5 -190t-48.5 -190t-132.5 -129t-188 -46t-188 46t-132.5 129t-48.5 190t48.5 190t132.5 129t188 46t188 -46zM289 530q-45 -25 -71 -71.5t-26 -108.5t26 -108.5t71 -71.5t101 -25t101 25t71 71.5t26 108.5t-26 108.5t-71 71.5t-101 25
t-101 -25zM334 867.5q23 -23.5 23 -57.5t-23 -57t-57 -23q-35 0 -58 23t-23 57q0 35 23.5 58t57.5 23t57 -23.5zM562 867.5q23 -23.5 23 -57.5t-23 -57t-57 -23q-35 0 -58 23t-23 57q0 35 23.5 58t57.5 23t57 -23.5z" />
    <glyph glyph-name="Rcommaaccent.ss01" horiz-adv-x="617" 
d="M246 265h-30v-265h-155v700h280q76 0 129.5 -29t81 -78.5t27.5 -111.5q0 -79 -42 -134.5t-121 -73.5l200 -273h-194zM216 395h102q97 0 97 82q0 39 -25.5 60.5t-71.5 21.5h-102v-164zM371 -158l-57 -52h-45l28 48q-17 9 -26.5 25.5t-9.5 35.5q0 30 19.5 49t48.5 19
t48.5 -19t19.5 -49q0 -33 -26 -57z" />
    <glyph glyph-name="Scommaaccent.ss01" horiz-adv-x="544" 
d="M507 664l-65 -137q-49 23 -86.5 33.5t-71.5 10.5q-64 0 -64 -41q0 -16 11.5 -28.5t41.5 -30.5l116 -73q67 -41 100 -88t33 -117q0 -101 -66 -154.5t-189 -53.5q-141 0 -261 70l70 139q105 -64 197 -64q42 0 64 14t22 42q0 22 -16 38t-50 37l-107 67q-129 77 -129 200
q0 87 57 137t166 50t227 -51zM333 -158l-57 -52h-45l28 48q-17 9 -26.5 25.5t-9.5 35.5q0 30 19.5 49t48.5 19t48.5 -19t19.5 -49q0 -33 -26 -57z" />
    <glyph glyph-name="uni021A.ss01" horiz-adv-x="534" 
d="M529 555h-184v-555h-155v555h-185v145h524v-145zM314 -158l-57 -52h-45l28 48q-17 9 -26.5 25.5t-9.5 35.5q0 30 19.5 49t48.5 19t48.5 -19t19.5 -49q0 -33 -26 -57z" />
    <glyph glyph-name="Udieresis.ss01" horiz-adv-x="706" 
d="M650 283q0 -139 -76 -217.5t-221 -78.5q-146 0 -222 78.5t-76 217.5v417h165v-403q0 -68 34.5 -109t98.5 -41t98.5 41t34.5 109v403h164v-417zM297 867.5q23 -23.5 23 -57.5t-23 -57t-57 -23q-35 0 -58 23t-23 57q0 35 23.5 58t57.5 23t57 -23.5zM525 867.5
q23 -23.5 23 -57.5t-23 -57t-57 -23q-35 0 -58 23t-23 57q0 35 23.5 58t57.5 23t57 -23.5z" />
    <glyph glyph-name="Wdieresis.ss01" horiz-adv-x="1066" 
d="M825 0h-137l-154 454h-2l-154 -454h-137l-235 700h181l125 -450h2l151 450h136l151 -450h2l125 450h181zM477 867.5q23 -23.5 23 -57.5t-23 -57t-57 -23q-35 0 -58 23t-23 57q0 35 23.5 58t57.5 23t57 -23.5zM705 867.5q23 -23.5 23 -57.5t-23 -57t-57 -23q-35 0 -58 23
t-23 57q0 35 23.5 58t57.5 23t57 -23.5z" />
    <glyph glyph-name="Ydieresis.ss01" horiz-adv-x="659" 
d="M407 253v-253h-155v251l-252 449h186l142 -293h2l143 293h186zM273 867.5q23 -23.5 23 -57.5t-23 -57t-57 -23q-35 0 -58 23t-23 57q0 35 23.5 58t57.5 23t57 -23.5zM501 867.5q23 -23.5 23 -57.5t-23 -57t-57 -23q-35 0 -58 23t-23 57q0 35 23.5 58t57.5 23t57 -23.5z
" />
    <glyph glyph-name="Zdotaccent.ss01" horiz-adv-x="568" 
d="M548 145v-145h-528v145l329 410h-303v145h492v-145l-326 -410h336zM345 876.5q23 -23.5 23 -57.5t-23 -57t-57 -23q-35 0 -58 23t-23 57q0 35 23 58t58 23q34 0 57 -23.5z" />
    <glyph glyph-name="adieresis.ss01" horiz-adv-x="586" 
d="M129 13.5q-50 28.5 -79 84t-29 133.5t29 133.5t79 84t111 28.5q103 0 151 -78h2v63h151v-462h-151v63h-2q-48 -78 -151 -78q-61 0 -111 28.5zM359 152.5q30 29.5 30 78.5t-30 78.5t-77 29.5q-46 0 -76 -29.5t-30 -78.5t30 -78.5t76 -29.5q47 0 77 29.5zM233 682
q23 -23 23 -58q0 -34 -23 -57.5t-58 -23.5q-34 0 -57.5 23.5t-23.5 57.5q0 35 23.5 58t57.5 23q35 0 58 -23zM442 682q23 -23 23 -58q0 -34 -23 -57.5t-58 -23.5q-34 0 -57.5 23.5t-23.5 57.5q0 35 23.5 58t57.5 23q35 0 58 -23z" />
    <glyph glyph-name="cdotaccent.ss01" horiz-adv-x="451" 
d="M145.5 15.5q-58.5 30.5 -91.5 86.5t-33 129t33 129t91.5 86.5t132.5 30.5q89 0 167 -45l-62 -121q-44 28 -98 28q-47 0 -80 -29t-33 -79t33 -79t80 -29q54 0 98 28l62 -121q-78 -45 -167 -45q-74 0 -132.5 30.5zM337.5 683q26.5 -26 26.5 -67q0 -42 -26.5 -68t-67.5 -26
q-42 0 -68 26t-26 68q0 41 26 67t68 26q41 0 67.5 -26z" />
    <glyph glyph-name="dcaron.ss01" horiz-adv-x="727" 
d="M624 558q-23 8 -37 29t-14 49q0 38 23.5 61t61.5 23t61.5 -23.5t23.5 -59.5q0 -20 -8 -37.5t-26 -35.5l-75 -75h-59zM129 13.5q-50 28.5 -79 84t-29 133.5t29 133.5t79 84t111 28.5q103 0 151 -78h2v301h151v-700h-151v63h-2q-48 -78 -151 -78q-61 0 -111 28.5z
M359 152.5q30 29.5 30 78.5t-30 78.5t-77 29.5q-46 0 -76 -29.5t-30 -78.5t30 -78.5t76 -29.5q47 0 77 29.5z" />
    <glyph glyph-name="edieresis.ss01" horiz-adv-x="511" 
d="M433 413.5q61 -62.5 61 -184.5v-34h-331q7 -42 38.5 -63t79.5 -21q38 0 73 12.5t61 29.5l55 -114q-88 -54 -191 -54q-77 0 -135.5 30.5t-90.5 85.5t-32 128q0 76 31 132t86.5 85.5t126.5 29.5q107 0 168 -62.5zM194.5 348q-25.5 -21 -30.5 -64h184q-1 40 -25.5 62.5
t-62.5 22.5q-40 0 -65.5 -21zM219 682q23 -23 23 -58q0 -34 -23 -57.5t-58 -23.5q-34 0 -57.5 23.5t-23.5 57.5q0 35 23.5 58t57.5 23q35 0 58 -23zM428 682q23 -23 23 -58q0 -34 -23 -57.5t-58 -23.5q-34 0 -57.5 23.5t-23.5 57.5q0 35 23.5 58t57.5 23q35 0 58 -23z" />
    <glyph glyph-name="edotaccent.ss01" horiz-adv-x="511" 
d="M433 413.5q61 -62.5 61 -184.5v-34h-331q7 -42 38.5 -63t79.5 -21q38 0 73 12.5t61 29.5l55 -114q-88 -54 -191 -54q-77 0 -135.5 30.5t-90.5 85.5t-32 128q0 76 31 132t86.5 85.5t126.5 29.5q107 0 168 -62.5zM194.5 348q-25.5 -21 -30.5 -64h184q-1 40 -25.5 62.5
t-62.5 22.5q-40 0 -65.5 -21zM332.5 683q26.5 -26 26.5 -67q0 -42 -26.5 -68t-67.5 -26q-42 0 -68 26t-26 68q0 41 26 67t68 26q41 0 67.5 -26z" />
    <glyph glyph-name="gcommaaccent.ss01" horiz-adv-x="586" 
d="M97 -192l25 141q97 -23 162 -23q58 0 83.5 23.5t25.5 82.5v30h-2q-52 -70 -152 -70q-62 0 -111.5 27t-78 81.5t-28.5 131.5q0 78 29 133.5t79 83.5t111 28q103 0 151 -78h2v63h151v-462q-1 -108 -64.5 -161.5t-184.5 -53.5q-86 0 -198 23zM359 152.5q30 29.5 30 78.5
t-30 78.5t-77 29.5q-46 0 -76 -29.5t-30 -78.5t30 -78.5t76 -29.5q47 0 77 29.5zM244 659l57 52h45l-28 -48q17 -9 26.5 -25.5t9.5 -35.5q0 -30 -19.5 -49t-48.5 -19t-48.5 19t-19.5 49q0 33 26 57z" />
    <glyph glyph-name="gdotaccent.ss01" horiz-adv-x="586" 
d="M97 -192l25 141q97 -23 162 -23q58 0 83.5 23.5t25.5 82.5v30h-2q-52 -70 -152 -70q-62 0 -111.5 27t-78 81.5t-28.5 131.5q0 78 29 133.5t79 83.5t111 28q103 0 151 -78h2v63h151v-462q-1 -108 -64.5 -161.5t-184.5 -53.5q-86 0 -198 23zM359 152.5q30 29.5 30 78.5
t-30 78.5t-77 29.5q-46 0 -76 -29.5t-30 -78.5t30 -78.5t76 -29.5q47 0 77 29.5zM355.5 683q26.5 -26 26.5 -67q0 -42 -26.5 -68t-67.5 -26q-42 0 -68 26t-26 68q0 41 26 67t68 26q41 0 67.5 -26z" />
    <glyph glyph-name="i.ss01" horiz-adv-x="244" 
d="M47 462h151v-462h-151v462zM189.5 683q26.5 -26 26.5 -67q0 -42 -26.5 -68t-67.5 -26q-42 0 -68 26t-26 68q0 41 26 67t68 26q41 0 67.5 -26z" />
    <glyph glyph-name="idieresis.ss01" horiz-adv-x="244" 
d="M86 682q23 -23 23 -58q0 -34 -23 -57.5t-58 -23.5t-58 23.5t-23 57.5q0 35 23 58t58 23t58 -23zM273 682q23 -23 23 -58q0 -34 -23 -57.5t-58 -23.5q-34 0 -57.5 23.5t-23.5 57.5q0 35 23.5 58t57.5 23q35 0 58 -23zM47 462h151v-462h-151v462z" />
    <glyph glyph-name="i.loclTRK.ss01" horiz-adv-x="244" 
d="M47 462h151v-462h-151v462zM189.5 683q26.5 -26 26.5 -67q0 -42 -26.5 -68t-67.5 -26q-42 0 -68 26t-26 68q0 41 26 67t68 26q41 0 67.5 -26z" />
    <glyph glyph-name="ij.ss01" horiz-adv-x="488" 
d="M47 462h151v-462h-151v462zM189.5 683q26.5 -26 26.5 -67q0 -42 -26.5 -68t-67.5 -26q-42 0 -68 26t-26 68q0 41 26 67t68 26q41 0 67.5 -26zM230 -63q31 0 46 16t15 50v459h151v-458q0 -104 -46.5 -155.5t-140.5 -51.5h-50v140h25zM433.5 683q26.5 -26 26.5 -67
q0 -42 -26.5 -68t-67.5 -26q-42 0 -68 26t-26 68q0 41 26 67t68 26q41 0 67.5 -26z" />
    <glyph glyph-name="iogonek.ss01" horiz-adv-x="244" 
d="M54 548q-26 26 -26 68q0 41 26 67t68 26q41 0 67.5 -26t26.5 -67q0 -42 -26.5 -68t-67.5 -26q-42 0 -68 26zM47 462h151v-462h-44q-36 -34 -53.5 -57t-17.5 -37q0 -10 7.5 -16t18.5 -6t39 6l12 -94q-52 -9 -70 -9q-53 0 -82 21t-29 65q0 30 20.5 60t61.5 67h-14v462z" />
    <glyph glyph-name="j.ss01" horiz-adv-x="244" 
d="M-14 -63q31 0 46 16t15 50v459h151v-458q0 -104 -46.5 -155.5t-140.5 -51.5h-50v140h25zM189.5 683q26.5 -26 26.5 -67q0 -42 -26.5 -68t-67.5 -26q-42 0 -68 26t-26 68q0 41 26 67t68 26q41 0 67.5 -26z" />
    <glyph glyph-name="kcommaaccent.ss01" horiz-adv-x="555" 
d="M355 0l-157 212v-212h-151v700h151v-420l135 182h187l-183 -210l213 -252h-195zM313 -158l-57 -52h-45l28 48q-17 9 -26.5 25.5t-9.5 35.5q0 30 19.5 49t48.5 19t48.5 -19t19.5 -49q0 -33 -26 -57z" />
    <glyph glyph-name="lcaron.ss01" horiz-adv-x="389" 
d="M280 558q-23 8 -37 29t-14 49q0 38 23.5 61t61.5 23t61.5 -23.5t23.5 -59.5q0 -20 -8 -37.5t-27 -35.5l-74 -75h-59zM198 0h-151v700h151v-700z" />
    <glyph glyph-name="lcommaaccent.ss01" horiz-adv-x="244" 
d="M198 0h-151v700h151v-700zM172 -158l-57 -52h-45l28 48q-17 9 -26.5 25.5t-9.5 35.5q0 30 19.5 49t48.5 19t48.5 -19t19.5 -49q0 -33 -26 -57z" />
    <glyph glyph-name="ldot.ss01" horiz-adv-x="421" 
d="M198 0h-151v700h151v-700zM386 450q27 -27 27 -67t-27 -67t-67 -27t-67 27t-27 67t27 67t67 27t67 -27z" />
    <glyph glyph-name="napostrophe.ss01" horiz-adv-x="642" 
d="M554 429q47 -48 47 -143v-286h-150v244q0 51 -21 75.5t-64 24.5q-41 0 -65 -27t-24 -85v-232h-151v462h148v-70h2q24 41 63 63t88 22q80 0 127 -48zM152 696.5q24 -23.5 24 -60.5q0 -29 -16 -51l-94 -167h-58l49 140q-24 8 -37.5 29t-13.5 49q0 37 23.5 60.5t61.5 23.5
q37 0 61 -23.5z" />
    <glyph glyph-name="ncommaaccent.ss01" horiz-adv-x="563" 
d="M474 429q47 -48 47 -143v-286h-150v244q0 51 -21 75.5t-64 24.5q-41 0 -65 -27t-24 -85v-232h-151v462h148v-70h2q24 41 63 63t88 22q80 0 127 -48zM335 -158l-57 -52h-45l28 48q-17 9 -26.5 25.5t-9.5 35.5q0 30 19.5 49t48.5 19t48.5 -19t19.5 -49q0 -33 -26 -57z" />
    <glyph glyph-name="odieresis.ss01" horiz-adv-x="561" 
d="M414 446.5q59 -30.5 92.5 -86.5t33.5 -129t-33.5 -129t-92.5 -86.5t-134 -30.5q-74 0 -133 30.5t-92.5 86.5t-33.5 129t33.5 129t92.5 86.5t133 30.5q75 0 134 -30.5zM203 309q-31 -30 -31 -78t31 -78t77 -30q47 0 77.5 29.5t30.5 78.5t-30.5 78.5t-77.5 29.5
q-46 0 -77 -30zM234 682q23 -23 23 -58q0 -34 -23 -57.5t-58 -23.5q-34 0 -57.5 23.5t-23.5 57.5q0 35 23.5 58t57.5 23q35 0 58 -23zM443 682q23 -23 23 -58q0 -34 -23 -57.5t-58 -23.5q-34 0 -57.5 23.5t-23.5 57.5q0 35 23.5 58t57.5 23q35 0 58 -23z" />
    <glyph glyph-name="rcommaaccent.ss01" horiz-adv-x="362" 
d="M352 325h-13q-52 0 -82.5 -14.5t-45 -48t-14.5 -92.5v-170h-151v462h148v-94h2q38 108 153 108h3v-151zM171 -158l-57 -52h-45l28 48q-17 9 -26.5 25.5t-9.5 35.5q0 30 19.5 49t48.5 19t48.5 -19t19.5 -49q0 -33 -26 -57z" />
    <glyph glyph-name="scommaaccent.ss01" horiz-adv-x="434" 
d="M114 -3.5q-55 11.5 -104 36.5l57 124q91 -53 164 -53q42 0 42 21q0 10 -6 15t-14 7.5t-12 4.5l-81 32q-57 22 -85 57t-28 86q0 72 50 111t148 39q80 0 167 -28l-42 -122q-83 34 -137 34q-21 0 -29 -5t-8 -15t8 -15.5t27 -13.5l80 -30q56 -21 84 -53t28 -88
q0 -80 -54 -118t-150 -38q-50 0 -105 11.5zM280 -158l-57 -52h-45l28 48q-17 9 -26.5 25.5t-9.5 35.5q0 30 19.5 49t48.5 19t48.5 -19t19.5 -49q0 -33 -26 -57z" />
    <glyph glyph-name="tcaron.ss01" horiz-adv-x="463" 
d="M435.5 696.5q23.5 -23.5 23.5 -59.5q0 -21 -8 -38t-26 -35l-75 -75h-59l50 69q-24 8 -38 29t-14 49q0 38 23.5 61t61.5 23t61.5 -23.5zM251 462h95v-126h-95v-139q0 -33 10.5 -45t39.5 -12h17v-140h-63q-74 0 -114.5 38t-40.5 118v180h-90v126h90v185h151v-185z" />
    <glyph glyph-name="uni021B.ss01" horiz-adv-x="362" 
d="M251 336v-139q0 -33 10.5 -45t39.5 -12h17v-140h-63q-74 0 -114.5 38t-40.5 118v180h-90v126h90v185h151v-185h95v-126h-95zM279 -158l-57 -52h-45l28 48q-17 9 -26.5 25.5t-9.5 35.5q0 30 19.5 49t48.5 19t48.5 -19t19.5 -49q0 -33 -26 -57z" />
    <glyph glyph-name="udieresis.ss01" horiz-adv-x="557" 
d="M89.5 33.5q-48.5 48.5 -48.5 143.5v285h156v-252q0 -48 20 -70.5t56 -22.5q41 0 64 30t23 92v223h151v-462h-148v72h-2q-26 -42 -61 -64.5t-84 -22.5q-78 0 -126.5 48.5zM235 682q23 -23 23 -58q0 -34 -23 -57.5t-58 -23.5q-34 0 -57.5 23.5t-23.5 57.5q0 35 23.5 58
t57.5 23q35 0 58 -23zM444 682q23 -23 23 -58q0 -34 -23 -57.5t-58 -23.5q-34 0 -57.5 23.5t-23.5 57.5q0 35 23.5 58t57.5 23q35 0 58 -23z" />
    <glyph glyph-name="wdieresis.ss01" horiz-adv-x="808" 
d="M803 462l-168 -462h-129l-102 270l-101 -270h-129l-169 462h150l86 -271l94 271h139l93 -271l87 271h149zM359 682q23 -23 23 -58q0 -34 -23 -57.5t-58 -23.5q-34 0 -57.5 23.5t-23.5 57.5q0 35 23.5 58t57.5 23q35 0 58 -23zM568 682q23 -23 23 -58q0 -34 -23 -57.5
t-58 -23.5q-34 0 -57.5 23.5t-23.5 57.5q0 35 23.5 58t57.5 23q35 0 58 -23z" />
    <glyph glyph-name="ydieresis.ss01" horiz-adv-x="560" 
d="M555 462l-307 -662h-152l116 244l-207 418h174l108 -255l115 255h153zM242 682q23 -23 23 -58q0 -34 -23 -57.5t-58 -23.5q-34 0 -57.5 23.5t-23.5 57.5q0 35 23.5 58t57.5 23q35 0 58 -23zM451 682q23 -23 23 -58q0 -34 -23 -57.5t-58 -23.5q-34 0 -57.5 23.5
t-23.5 57.5q0 35 23.5 58t57.5 23q35 0 58 -23z" />
    <glyph glyph-name="zdotaccent.ss01" horiz-adv-x="451" 
d="M436 127v-127h-420v114l216 221h-200v127h389v-111l-221 -224h236zM304.5 683q26.5 -26 26.5 -67q0 -42 -26.5 -68t-67.5 -26q-42 0 -68 26t-26 68q0 41 26 67t68 26q41 0 67.5 -26z" />
    <glyph glyph-name="fi.ss01" horiz-adv-x="599" 
d="M262.5 552q-19.5 -18 -19.5 -68v-22h98v-126h-98v-336h-151v336h-81v126h81v27q0 114 54.5 167.5t167.5 53.5h31v-140h-13q-50 0 -69.5 -18zM402 462h151v-462h-151v462zM544.5 683q26.5 -26 26.5 -67q0 -42 -26.5 -68t-67.5 -26q-42 0 -68 26t-26 68q0 41 26 67t68 26
q41 0 67.5 -26z" />
    <glyph glyph-name="f_f_i.ss01" horiz-adv-x="959" 
d="M262.5 552q-19.5 -18 -19.5 -68v-22h98v-126h-98v-336h-151v336h-81v126h81v27q0 114 54.5 167.5t167.5 53.5h31v-140h-13q-50 0 -69.5 -18zM622.5 552q-19.5 -18 -19.5 -68v-22h98v-126h-98v-336h-151v336h-81v126h81v27q0 114 54.5 167.5t167.5 53.5h31v-140h-13
q-50 0 -69.5 -18zM762 462h151v-462h-151v462zM904.5 683q26.5 -26 26.5 -67q0 -42 -26.5 -68t-67.5 -26q-42 0 -68 26t-26 68q0 41 26 67t68 26q41 0 67.5 -26z" />
    <glyph glyph-name="periodcentered.ss01" horiz-adv-x="270" 
d="M202 450q27 -27 27 -67t-27 -67t-67 -27t-67 27t-27 67t27 67t67 27t67 -27z" />
    <glyph glyph-name="colon.ss01" horiz-adv-x="243" 
d="M188 148q27 -27 27 -67t-27 -67t-67 -27t-67 27t-27 67t27 67t67 27t67 -27zM188 450q27 -27 27 -67t-27 -67t-67 -27t-67 27t-27 67t27 67t67 27t67 -27z" />
    <glyph glyph-name="comma.ss01" horiz-adv-x="243" 
d="M200 20l-103 -182h-59l50 154q-25 9 -39 30.5t-14 52.5q0 41 24 65.5t66 24.5t66 -24.5t24 -65.5q0 -31 -15 -55z" />
    <glyph glyph-name="ellipsis.ss01" horiz-adv-x="757" 
d="M191 148q27 -27 27 -67t-27 -67t-67 -27t-67 27t-27 67t27 67t67 27t67 -27zM700 148q27 -27 27 -67t-27 -67t-67 -27t-67 27t-27 67t27 67t67 27t67 -27zM445 148q27 -27 27 -67t-27 -67t-67 -27t-67 27t-27 67t27 67t67 27t67 -27z" />
    <glyph glyph-name="exclam.ss01" horiz-adv-x="327" 
d="M218 225h-108l-33 475h173zM231 148q27 -27 27 -67t-27 -67t-67 -27t-67 27t-27 67t27 67t67 27t67 -27z" />
    <glyph glyph-name="exclamdown.ss01" horiz-adv-x="327" 
d="M96 351q-27 27 -27 67t27 67t67 27t67 -27t27 -67t-27 -67t-67 -27t-67 27zM109 274h108l33 -475h-173z" />
    <glyph glyph-name="period.ss01" horiz-adv-x="243" 
d="M188 148q27 -27 27 -67t-27 -67t-67 -27t-67 27t-27 67t27 67t67 27t67 -27z" />
    <glyph glyph-name="question.ss01" horiz-adv-x="491" 
d="M402.5 661.5q52.5 -53.5 52.5 -135.5q0 -47 -18 -80.5t-50 -68.5q-29 -29 -42.5 -44.5t-24 -38.5t-10.5 -51v-14h-149v29q0 57 22.5 95t63.5 79q31 30 44 47t13 37q0 27 -15.5 41.5t-44.5 14.5q-35 0 -54 -22t-19 -56h-146q0 102 57 161.5t167 59.5q101 0 153.5 -53.5z
M303 148q27 -27 27 -67t-27 -67t-67 -27t-67 27t-27 67t27 67t67 27t67 -27z" />
    <glyph glyph-name="questiondown.ss01" horiz-adv-x="440" 
d="M163 351q-27 27 -27 67t27 67t67 27t67 -27t27 -67t-27 -67t-67 -27t-67 27zM63.5 -162.5q-52.5 53.5 -52.5 135.5q0 47 18 80.5t50 68.5q29 29 42.5 44.5t24 38.5t10.5 51v14h149v-29q0 -57 -22.5 -95t-63.5 -79q-31 -30 -44 -47t-13 -37q0 -27 15.5 -41.5t44.5 -14.5
q35 0 54 22t19 56h146q0 -102 -57 -161.5t-167 -59.5q-101 0 -153.5 53.5z" />
    <glyph glyph-name="semicolon.ss01" horiz-adv-x="243" 
d="M200 20l-103 -182h-59l50 154q-25 9 -39 30.5t-14 52.5q0 41 24 65.5t66 24.5t66 -24.5t24 -65.5q0 -31 -15 -55zM188 450q27 -27 27 -67t-27 -67t-67 -27t-67 27t-27 67t27 67t67 27t67 -27z" />
    <glyph glyph-name="quotedblbase.ss01" horiz-adv-x="369" 
d="M149 124.5q24 -23.5 24 -60.5q0 -29 -16 -51l-94 -167h-58l49 140q-24 8 -37.5 29t-13.5 49q0 37 23.5 60.5t61.5 23.5q37 0 61 -23.5zM341 124.5q24 -23.5 24 -60.5q0 -29 -16 -51l-94 -167h-58l49 140q-24 8 -37.5 29t-13.5 49q0 37 23.5 60.5t61.5 23.5q37 0 61 -23.5
z" />
    <glyph glyph-name="quotedblleft.ss01" horiz-adv-x="369" 
d="M26 487.5q-24 23.5 -24 60.5q0 29 16 51l94 167h58l-49 -140q24 -8 37.5 -29t13.5 -49q0 -37 -23.5 -60.5t-61.5 -23.5q-37 0 -61 23.5zM218 487.5q-24 23.5 -24 60.5q0 29 16 51l94 167h58l-49 -140q24 -8 37.5 -29t13.5 -49q0 -37 -23.5 -60.5t-61.5 -23.5
q-37 0 -61 23.5z" />
    <glyph glyph-name="quotedblright.ss01" horiz-adv-x="369" 
d="M149 696.5q24 -23.5 24 -60.5q0 -29 -16 -51l-94 -167h-58l49 140q-24 8 -37.5 29t-13.5 49q0 37 23.5 60.5t61.5 23.5q37 0 61 -23.5zM341 696.5q24 -23.5 24 -60.5q0 -29 -16 -51l-94 -167h-58l49 140q-24 8 -37.5 29t-13.5 49q0 37 23.5 60.5t61.5 23.5q37 0 61 -23.5
z" />
    <glyph glyph-name="quoteleft.ss01" horiz-adv-x="187" 
d="M32 487.5q-24 23.5 -24 60.5q0 29 16 51l94 167h58l-49 -140q24 -8 37.5 -29t13.5 -49q0 -37 -23.5 -60.5t-61.5 -23.5q-37 0 -61 23.5z" />
    <glyph glyph-name="quoteright.ss01" horiz-adv-x="187" 
d="M155 696.5q24 -23.5 24 -60.5q0 -29 -16 -51l-94 -167h-58l49 140q-24 8 -37.5 29t-13.5 49q0 37 23.5 60.5t61.5 23.5q37 0 61 -23.5z" />
    <glyph glyph-name="quotesinglbase.ss01" horiz-adv-x="187" 
d="M155 124.5q24 -23.5 24 -60.5q0 -29 -16 -51l-94 -167h-58l49 140q-24 8 -37.5 29t-13.5 49q0 37 23.5 60.5t61.5 23.5q37 0 61 -23.5z" />
    <glyph glyph-name="divide.ss01" 
d="M262 418q-15 15 -15 38t15 38t38 15t38 -15t15 -38t-15 -38t-38 -15t-38 15zM41 330h518v-63h-518v63zM262 103q-15 15 -15 38t15 38t38 15t38 -15t15 -38t-15 -38t-38 -15t-38 15z" />
    <glyph glyph-name="uni02BC.ss01" horiz-adv-x="187" 
d="M155 696.5q24 -23.5 24 -60.5q0 -29 -16 -51l-94 -167h-58l49 140q-24 8 -37.5 29t-13.5 49q0 37 23.5 60.5t61.5 23.5q37 0 61 -23.5z" />
    <glyph glyph-name="dot.ss01" horiz-adv-x="288" 
d="M211 148q27 -27 27 -67t-27 -67t-67 -27t-67 27t-27 67t27 67t67 27t67 -27z" />
    <glyph glyph-name="Adieresis.ss02" horiz-adv-x="716" 
d="M229 690h-124v114h124v-114zM611 690h-125v114h125v-114zM493 142h-269l-50 -142h-174l276 700h164l276 -700h-173zM445 280l-87 248l-86 -248h173z" />
    <glyph glyph-name="Idieresis.ss02" horiz-adv-x="277" 
d="M29 690h-124v114h124v-114zM370 690h-124v114h124v-114zM216 0h-155v700h155v-700z" />
    <glyph glyph-name="Odieresis.ss02" horiz-adv-x="780" 
d="M170 690h-124v114h124v-114zM733 690h-124v114h124v-114zM578 669q84 -46 132.5 -129t48.5 -190t-48.5 -190t-132.5 -129t-188 -46t-188 46t-132.5 129t-48.5 190t48.5 190t132.5 129t188 46t188 -46zM289 530q-45 -25 -71 -71.5t-26 -108.5t26 -108.5t71 -71.5t101 -25
t101 25t71 71.5t26 108.5t-26 108.5t-71 71.5t-101 25t-101 -25z" />
    <glyph glyph-name="Udieresis.ss02" horiz-adv-x="706" 
d="M336 690h-92v114h92v-114zM462 690h-92v114h92v-114zM650 283q0 -139 -76 -217.5t-221 -78.5q-146 0 -222 78.5t-76 217.5v417h165v-403q0 -68 34.5 -109t98.5 -41t98.5 41t34.5 109v403h164v-417z" />
    <glyph glyph-name="Wdieresis.ss02" horiz-adv-x="1066" 
d="M413 690h-124v114h124v-114zM776 690h-124v114h124v-114zM825 0h-137l-154 454h-2l-154 -454h-137l-235 700h181l125 -450h2l151 450h136l151 -450h2l125 450h181z" />
    <glyph glyph-name="Ydieresis.ss02" horiz-adv-x="659" 
d="M317 690h-105v114h105v-114zM445 690h-104v114h104v-114zM407 253v-253h-155v251l-252 449h186l142 -293h2l143 293h186z" />
    <glyph glyph-name="Adieresis.ss01.ss02" horiz-adv-x="716" 
d="M112 672q-23 23 -23 57q0 35 23 58t57 23t57 -23t23 -58q0 -34 -22.5 -57t-57.5 -23q-34 0 -57 23zM490 672q-23 23 -23 57q0 35 23 58t57 23q35 0 58 -23t23 -58q0 -34 -23 -57t-58 -23q-34 0 -57 23zM493 142h-269l-50 -142h-174l276 700h164l276 -700h-173zM445 280
l-87 248l-86 -248h173z" />
    <glyph glyph-name="Idieresis.ss01.ss02" horiz-adv-x="277" 
d="M25 787q23 -23 23 -58q0 -34 -22.5 -57t-57.5 -23t-57.5 23t-22.5 57q0 35 23 58t57 23t57 -23zM366 787q23 -23 23 -58q0 -34 -23 -57t-58 -23q-34 0 -57 23t-23 57q0 35 23 58t57 23q35 0 58 -23zM216 0h-155v700h155v-700z" />
    <glyph glyph-name="Odieresis.ss01.ss02" horiz-adv-x="780" 
d="M153 787q23 -23 23 -58q0 -34 -22.5 -57t-57.5 -23q-34 0 -57 23t-23 57q0 35 23 58t57 23t57 -23zM740 787q23 -23 23 -58q0 -34 -22.5 -57t-57.5 -23q-34 0 -57 23t-23 57q0 35 23 58t57 23t57 -23zM578 669q84 -46 132.5 -129t48.5 -190t-48.5 -190t-132.5 -129
t-188 -46t-188 46t-132.5 129t-48.5 190t48.5 190t132.5 129t188 46t188 -46zM289 530q-45 -25 -71 -71.5t-26 -108.5t26 -108.5t71 -71.5t101 -25t101 25t71 71.5t26 108.5t-26 108.5t-71 71.5t-101 25t-101 -25z" />
    <glyph glyph-name="Udieresis.ss01.ss02" horiz-adv-x="706" 
d="M410.5 784.5q22.5 -22.5 22.5 -57.5q0 -34 -22.5 -57t-57.5 -23q-34 0 -57 23t-23 57q0 35 23 57.5t57 22.5q35 0 57.5 -22.5zM650 283q0 -139 -76 -217.5t-221 -78.5q-146 0 -222 78.5t-76 217.5v417h165v-403q0 -68 34.5 -109t98.5 -41t98.5 41t34.5 109v403h164v-417z
M410.5 579.5q22.5 -22.5 22.5 -57.5t-23 -58t-57 -23t-57 23t-23 58t23 57.5t57 22.5q35 0 57.5 -22.5z" />
    <glyph glyph-name="Wdieresis.ss01.ss02" horiz-adv-x="1066" 
d="M418 787q23 -23 23 -58q0 -34 -22.5 -57t-57.5 -23q-34 0 -57 23t-23 57q0 35 23 58t57 23t57 -23zM762 787q23 -23 23 -58q0 -34 -22.5 -57t-57.5 -23t-58 23t-23 57q0 35 23.5 58t57.5 23t57 -23zM825 0h-137l-154 454h-2l-154 -454h-137l-235 700h181l125 -450h2
l151 450h136l151 -450h2l125 450h181z" />
    <glyph glyph-name="Ydieresis.ss01.ss02" horiz-adv-x="659" 
d="M182 715q-23 23 -23 57q0 35 23 57.5t57 22.5q35 0 57.5 -22.5t22.5 -57.5q0 -34 -22.5 -57t-57.5 -23q-34 0 -57 23zM360 715q-23 23 -23 57q0 35 23 57.5t57 22.5q35 0 57.5 -22.5t22.5 -57.5q0 -34 -22.5 -57t-57.5 -23q-34 0 -57 23zM407 253v-253h-155v251l-252 449
h186l142 -293h2l143 293h186z" />
    <glyph glyph-name="germandbls.ss03" horiz-adv-x="574" 
d="M516.5 212q30.5 -37 30.5 -101q0 -68 -33.5 -127t-76.5 -100.5t-99 -85.5l-17 -13l-88 110q80 63 123 110t43 90q0 63 -110 102l-20 8l80 131h-151v-336h-151v489q0 114 54.5 167.5t167.5 53.5h30v-140h-12q-50 0 -69.5 -18t-19.5 -68v-104l55 82h306l-117 -191
q44 -22 74.5 -59z" />
    <glyph glyph-name="a.subs" horiz-adv-x="414" 
d="M93.5 -101q-33.5 19 -53 56t-19.5 88t19.5 88t53 56t72.5 19q34 0 58.5 -14t37.5 -40h2v44h110v-306h-110v44h-2q-13 -26 -37.5 -40t-58.5 -14q-39 0 -72.5 19zM246 -2q18 17 18 45t-18 45t-46 17q-29 0 -47 -17t-18 -45t18 -45t47 -17q28 0 46 17z" />
    <glyph glyph-name="b.subs" horiz-adv-x="414" 
d="M190 -105.5q-25 14.5 -38 39.5h-2v-44h-110v462h110v-200h2q13 25 38 39.5t59 14.5q39 0 72 -19t52.5 -56t19.5 -88t-19.5 -88t-52.5 -56t-72 -19q-34 0 -59 14.5zM262 -2q18 17 18 45t-18 45t-47 17t-47 -17t-18 -45t18 -45t47 -17t47 17z" />
    <glyph glyph-name="c.subs" horiz-adv-x="317" 
d="M306 178l-40 -89q-34 16 -62 16q-31 0 -50.5 -16t-19.5 -46t19.5 -46t50.5 -16q28 0 62 16l40 -89q-51 -28 -112 -28q-77 0 -125 44t-48 119t48 119t125 44q61 0 112 -28z" />
    <glyph glyph-name="d.subs" horiz-adv-x="414" 
d="M93.5 -101q-33.5 19 -53 56t-19.5 88t19.5 88t53 56t72.5 19q34 0 58.5 -14.5t37.5 -39.5h2v200h110v-462h-110v44h-2q-13 -25 -37.5 -39.5t-58.5 -14.5q-39 0 -72.5 19zM246 -2q18 17 18 45t-18 45t-46 17q-29 0 -47 -17t-18 -45t18 -45t47 -17q28 0 46 17z" />
    <glyph glyph-name="e.subs" horiz-adv-x="361" 
d="M298.5 167q41.5 -39 41.5 -111v-36h-215q3 -24 24.5 -36.5t55.5 -12.5q25 0 43.5 5.5t43.5 16.5l35 -86q-59 -27 -126 -27q-84 0 -132 44t-48 119q0 73 45.5 118t120.5 45q70 0 111.5 -39zM145.5 118q-16.5 -13 -17.5 -38h107q-1 25 -15.5 38t-35.5 13q-22 0 -38.5 -13z
" />
    <glyph glyph-name="f.subs" horiz-adv-x="251" 
d="M240 106h-63v-216h-109v216h-58v90h58v12q0 151 153 151h18v-102h-10q-25 0 -38.5 -10.5t-13.5 -35.5v-15h63v-90z" />
    <glyph glyph-name="g.subs" horiz-adv-x="413" 
d="M75 -238l17 93q70 -14 112 -14q27 0 39.5 6.5t16.5 20.5t4 43v23h-2q-13 -25 -37.5 -39.5t-58.5 -14.5q-39 0 -72.5 19t-53 56t-19.5 88t19.5 88t53 56t72.5 19q34 0 58.5 -14.5t37.5 -39.5h2v44h110v-306q0 -71 -40.5 -106.5t-117.5 -35.5q-60 0 -141 14zM246 -2
q18 17 18 45t-18 45t-46 17q-29 0 -47 -17t-18 -45t18 -45t47 -17q28 0 46 17z" />
    <glyph glyph-name="h.subs" horiz-adv-x="401" 
d="M150 150h2q15 27 40.5 41.5t59.5 14.5q49 0 79 -30t30 -89v-197h-110v160q0 30 -12 44.5t-36 14.5q-53 0 -53 -70v-149h-110v462h110v-202z" />
    <glyph glyph-name="i.subs" horiz-adv-x="205" 
d="M160 245h-115v107h115v-107zM157 -110h-109v306h109v-306z" />
    <glyph glyph-name="j.subs" horiz-adv-x="216" 
d="M176 245h-115v107h115v-107zM173 -110q0 -134 -124 -134h-31v101h12q18 0 26 7.5t8 27.5v304h109v-306z" />
    <glyph glyph-name="k.subs" horiz-adv-x="396" 
d="M150 71l84 125h135l-113 -143l130 -163h-138l-98 138v-138h-110v462h110v-281z" />
    <glyph glyph-name="l.subs" horiz-adv-x="190" 
d="M149 -110h-109v462h109v-462z" />
    <glyph glyph-name="m.subs" horiz-adv-x="588" 
d="M520.5 175q27.5 -31 27.5 -89v-196h-109v161q0 28 -11.5 43t-33.5 15q-23 0 -35 -15.5t-12 -43.5v-160h-106v160q0 29 -11 44t-33 15q-23 0 -35 -15.5t-12 -44.5v-159h-110v306h108v-53h2q27 63 96 63q38 0 60.5 -17t31.5 -47h2q19 32 43.5 48t62.5 16q47 0 74.5 -31z
" />
    <glyph glyph-name="n.subs" horiz-adv-x="397" 
d="M326.5 175.5q30.5 -30.5 30.5 -89.5v-196h-110v160q0 59 -45 59q-53 0 -53 -70v-149h-109v306h107v-47h2q28 57 100 57q47 0 77.5 -30.5z" />
    <glyph glyph-name="o.subs" horiz-adv-x="388" 
d="M318.5 160.5q48.5 -45.5 48.5 -117.5t-48.5 -117.5t-124.5 -45.5t-124.5 45.5t-48.5 117.5t48.5 117.5t124.5 45.5t124.5 -45.5zM149.5 87.5q-17.5 -16.5 -17.5 -44.5t17.5 -44.5t44.5 -16.5t44.5 16.5t17.5 44.5t-17.5 44.5t-44.5 16.5t-44.5 -16.5z" />
    <glyph glyph-name="p.subs" horiz-adv-x="414" 
d="M40 196h110v-44h2q13 26 37.5 40t58.5 14q39 0 72.5 -19t53 -56t19.5 -88t-19.5 -88t-53 -56t-72.5 -19q-34 0 -58.5 14t-37.5 40h-2v-176h-110v438zM261 -2q18 17 18 45t-18 45t-47 17q-28 0 -46 -17t-18 -45t18 -45t46 -17q29 0 47 17z" />
    <glyph glyph-name="q.subs" horiz-adv-x="414" 
d="M264 -66h-2q-13 -25 -37.5 -39.5t-58.5 -14.5q-39 0 -72.5 19t-53 56t-19.5 88t19.5 88t53 56t72.5 19q34 0 58.5 -14.5t37.5 -39.5h2v44h110v-438h-110v176zM246 -2q18 17 18 45t-18 45t-46 17q-29 0 -47 -17t-18 -45t18 -45t47 -17q28 0 46 17z" />
    <glyph glyph-name="r.subs" horiz-adv-x="263" 
d="M248 89h-10q-48 0 -68.5 -17t-20.5 -62v-120h-109v306h107v-66h2q10 38 34 57t60 19h5v-117z" />
    <glyph glyph-name="s.subs" horiz-adv-x="314" 
d="M293 188l-35 -89q-50 22 -90 22q-17 0 -17 -8q0 -6 13 -13l62 -26q35 -14 51 -37t16 -59q0 -48 -35.5 -73t-97.5 -25q-79 0 -144 31l40 86q60 -31 110 -31q10 0 14.5 2t4.5 7q0 7 -15 14l-51 23q-41 17 -57.5 39.5t-16.5 55.5q0 48 33 73.5t96 25.5q59 0 119 -18z" />
    <glyph glyph-name="t.subs" horiz-adv-x="260" 
d="M183 105v-84q0 -18 5 -24t21 -6h15v-101h-45q-106 0 -106 104v111h-58v91h58v121h110v-121h62v-91h-62z" />
    <glyph glyph-name="u.subs" horiz-adv-x="403" 
d="M358 -110h-107v50h-2q-32 -60 -101 -60q-48 0 -78 30t-30 92v194h112v-159q0 -31 12 -45.5t36 -14.5q25 0 37 16t12 51v152h109v-306z" />
    <glyph glyph-name="v.subs" horiz-adv-x="376" 
d="M242 -110h-108l-129 306h122l61 -194l61 194h121z" />
    <glyph glyph-name="w.subs" horiz-adv-x="547" 
d="M430 -110h-95l-61 173l-62 -173h-94l-113 306h110l52 -173l58 173h97l59 -173l51 173h110z" />
    <glyph glyph-name="x.subs" horiz-adv-x="386" 
d="M194 -27l-67 -83h-122l127 154l-120 152h122l60 -79l58 79h122l-119 -152l126 -154h-122z" />
    <glyph glyph-name="y.subs" horiz-adv-x="392" 
d="M387 196l-210 -439h-111l79 166l-140 273h130l64 -159l76 159h112z" />
    <glyph glyph-name="z.subs" horiz-adv-x="331" 
d="M297 113l-140 -129h149v-94h-281v85l139 128h-131v93h264v-83z" />
    <glyph glyph-name="t_z" horiz-adv-x="687" 
d="M629 212q30 -37 30 -101q0 -73 -38 -135t-79 -100t-109 -91l-87 110q80 63 122.5 110t42.5 90q0 62 -109 102l-20 8l79 131h-210v-139q0 -33 10.5 -45t39.5 -12h17v-140h-63q-74 0 -114.5 38t-40.5 118v180h-90v126h90v185h151v-185h420l-116 -191q44 -22 74 -59z" />
    <glyph glyph-name="a.sups" horiz-adv-x="414" 
d="M93.5 357q-33.5 19 -53 56t-19.5 88t19.5 88t53 56t72.5 19q34 0 58.5 -14t37.5 -40h2v44h110v-306h-110v44h-2q-13 -26 -37.5 -40t-58.5 -14q-39 0 -72.5 19zM246 456q18 17 18 45t-18 45t-46 17q-29 0 -47 -17t-18 -45t18 -45t47 -17q28 0 46 17z" />
    <glyph glyph-name="b.sups" horiz-adv-x="414" 
d="M190 352.5q-25 14.5 -38 39.5h-2v-44h-110v462h110v-200h2q13 25 38 39.5t59 14.5q39 0 72 -19t52.5 -56t19.5 -88t-19.5 -88t-52.5 -56t-72 -19q-34 0 -59 14.5zM262 456q18 17 18 45t-18 45t-47 17t-47 -17t-18 -45t18 -45t47 -17t47 17z" />
    <glyph glyph-name="c.sups" horiz-adv-x="317" 
d="M306 636l-40 -89q-34 16 -62 16q-31 0 -50.5 -16t-19.5 -46t19.5 -46t50.5 -16q28 0 62 16l40 -89q-51 -28 -112 -28q-77 0 -125 44t-48 119t48 119t125 44q61 0 112 -28z" />
    <glyph glyph-name="d.sups" horiz-adv-x="414" 
d="M93.5 357q-33.5 19 -53 56t-19.5 88t19.5 88t53 56t72.5 19q34 0 58.5 -14.5t37.5 -39.5h2v200h110v-462h-110v44h-2q-13 -25 -37.5 -39.5t-58.5 -14.5q-39 0 -72.5 19zM246 456q18 17 18 45t-18 45t-46 17q-29 0 -47 -17t-18 -45t18 -45t47 -17q28 0 46 17z" />
    <glyph glyph-name="e.sups" horiz-adv-x="361" 
d="M298.5 625q41.5 -39 41.5 -111v-36h-215q3 -24 24.5 -36.5t55.5 -12.5q25 0 43.5 5.5t43.5 16.5l35 -86q-59 -27 -126 -27q-84 0 -132 44t-48 119q0 73 45.5 118t120.5 45q70 0 111.5 -39zM145.5 576q-16.5 -13 -17.5 -38h107q-1 25 -15.5 38t-35.5 13q-22 0 -38.5 -13z
" />
    <glyph glyph-name="f.sups" horiz-adv-x="251" 
d="M240 564h-63v-216h-109v216h-58v90h58v12q0 151 153 151h18v-102h-10q-25 0 -38.5 -10.5t-13.5 -35.5v-15h63v-90z" />
    <glyph glyph-name="g.sups" horiz-adv-x="413" 
d="M75 220l17 93q70 -14 112 -14q27 0 39.5 6.5t16.5 20.5t4 43v23h-2q-13 -25 -37.5 -39.5t-58.5 -14.5q-39 0 -72.5 19t-53 56t-19.5 88t19.5 88t53 56t72.5 19q34 0 58.5 -14.5t37.5 -39.5h2v44h110v-306q0 -71 -40.5 -106.5t-117.5 -35.5q-60 0 -141 14zM246 456
q18 17 18 45t-18 45t-46 17q-29 0 -47 -17t-18 -45t18 -45t47 -17q28 0 46 17z" />
    <glyph glyph-name="h.sups" horiz-adv-x="401" 
d="M150 608h2q15 27 40.5 41.5t59.5 14.5q49 0 79 -30t30 -89v-197h-110v160q0 30 -12 44.5t-36 14.5q-53 0 -53 -70v-149h-110v462h110v-202z" />
    <glyph glyph-name="i.sups" horiz-adv-x="205" 
d="M160 703h-115v107h115v-107zM157 348h-109v306h109v-306z" />
    <glyph glyph-name="j.sups" horiz-adv-x="216" 
d="M176 703h-115v107h115v-107zM173 348q0 -134 -124 -134h-31v101h12q18 0 26 7.5t8 27.5v304h109v-306z" />
    <glyph glyph-name="k.sups" horiz-adv-x="396" 
d="M150 529l84 125h135l-113 -143l130 -163h-138l-98 138v-138h-110v462h110v-281z" />
    <glyph glyph-name="l.sups" horiz-adv-x="190" 
d="M149 348h-109v462h109v-462z" />
    <glyph glyph-name="m.sups" horiz-adv-x="588" 
d="M520.5 633q27.5 -31 27.5 -89v-196h-109v161q0 28 -11.5 43t-33.5 15q-23 0 -35 -15.5t-12 -43.5v-160h-106v160q0 29 -11 44t-33 15q-23 0 -35 -15.5t-12 -44.5v-159h-110v306h108v-53h2q27 63 96 63q38 0 60.5 -17t31.5 -47h2q19 32 43.5 48t62.5 16q47 0 74.5 -31z
" />
    <glyph glyph-name="n.sups" horiz-adv-x="397" 
d="M326.5 633.5q30.5 -30.5 30.5 -89.5v-196h-110v160q0 59 -45 59q-53 0 -53 -70v-149h-109v306h107v-47h2q28 57 100 57q47 0 77.5 -30.5z" />
    <glyph glyph-name="o.sups" horiz-adv-x="388" 
d="M318.5 618.5q48.5 -45.5 48.5 -117.5t-48.5 -117.5t-124.5 -45.5t-124.5 45.5t-48.5 117.5t48.5 117.5t124.5 45.5t124.5 -45.5zM149.5 545.5q-17.5 -16.5 -17.5 -44.5t17.5 -44.5t44.5 -16.5t44.5 16.5t17.5 44.5t-17.5 44.5t-44.5 16.5t-44.5 -16.5z" />
    <glyph glyph-name="p.sups" horiz-adv-x="414" 
d="M40 654h110v-44h2q13 26 37.5 40t58.5 14q39 0 72.5 -19t53 -56t19.5 -88t-19.5 -88t-53 -56t-72.5 -19q-34 0 -58.5 14t-37.5 40h-2v-176h-110v438zM261 456q18 17 18 45t-18 45t-47 17q-28 0 -46 -17t-18 -45t18 -45t46 -17q29 0 47 17z" />
    <glyph glyph-name="q.sups" horiz-adv-x="414" 
d="M264 392h-2q-13 -25 -37.5 -39.5t-58.5 -14.5q-39 0 -72.5 19t-53 56t-19.5 88t19.5 88t53 56t72.5 19q34 0 58.5 -14.5t37.5 -39.5h2v44h110v-438h-110v176zM246 456q18 17 18 45t-18 45t-46 17q-29 0 -47 -17t-18 -45t18 -45t47 -17q28 0 46 17z" />
    <glyph glyph-name="r.sups" horiz-adv-x="263" 
d="M248 547h-10q-48 0 -68.5 -17t-20.5 -62v-120h-109v306h107v-66h2q10 38 34 57t60 19h5v-117z" />
    <glyph glyph-name="s.sups" horiz-adv-x="314" 
d="M293 646l-35 -89q-50 22 -90 22q-17 0 -17 -8q0 -6 13 -13l62 -26q35 -14 51 -37t16 -59q0 -48 -35.5 -73t-97.5 -25q-79 0 -144 31l40 86q60 -31 110 -31q10 0 14.5 2t4.5 7q0 7 -15 14l-51 23q-41 17 -57.5 39.5t-16.5 55.5q0 48 33 73.5t96 25.5q59 0 119 -18z" />
    <glyph glyph-name="t.sups" horiz-adv-x="260" 
d="M183 563v-84q0 -18 5 -24t21 -6h15v-101h-45q-106 0 -106 104v111h-58v91h58v121h110v-121h62v-91h-62z" />
    <glyph glyph-name="u.sups" horiz-adv-x="403" 
d="M358 348h-107v50h-2q-32 -60 -101 -60q-48 0 -78 30t-30 92v194h112v-159q0 -31 12 -45.5t36 -14.5q25 0 37 16t12 51v152h109v-306z" />
    <glyph glyph-name="v.sups" horiz-adv-x="376" 
d="M242 348h-108l-129 306h122l61 -194l61 194h121z" />
    <glyph glyph-name="w.sups" horiz-adv-x="547" 
d="M430 348h-95l-61 173l-62 -173h-94l-113 306h110l52 -173l58 173h97l59 -173l51 173h110z" />
    <glyph glyph-name="x.sups" horiz-adv-x="386" 
d="M194 431l-67 -83h-122l127 154l-120 152h122l60 -79l58 79h122l-119 -152l126 -154h-122z" />
    <glyph glyph-name="y.sups" horiz-adv-x="392" 
d="M387 654l-210 -439h-111l79 166l-140 273h130l64 -159l76 159h112z" />
    <glyph glyph-name="z.sups" horiz-adv-x="331" 
d="M297 571l-140 -129h149v-94h-281v85l139 128h-131v93h264v-83z" />
    <glyph glyph-name="zero.dnom" horiz-adv-x="377" 
d="M311 342.5q44 -52.5 44 -148.5t-44 -149.5t-122 -53.5q-79 0 -123.5 53.5t-44.5 149.5t44.5 148.5t123.5 52.5q78 0 122 -52.5zM128.5 284.5q-21.5 -33.5 -21.5 -90.5q0 -59 21.5 -92.5t60.5 -33.5t60 33t21 93q0 57 -21 90.5t-60 33.5t-60.5 -33.5z" />
    <glyph glyph-name="one.dnom" horiz-adv-x="213" 
d="M152 0h-80v305h-27v81h107v-386z" />
    <glyph glyph-name="two.dnom" horiz-adv-x="330" 
d="M267 364.5q35 -30.5 35 -82.5q0 -35 -16.5 -64.5t-49.5 -60.5l-82 -79h154v-78h-277l-1 64l138 132q25 25 37 42.5t12 35.5q0 21 -13.5 33.5t-37.5 12.5q-25 0 -41.5 -14t-17.5 -42h-80q1 57 37 94t106 37q62 0 97 -30.5z" />
    <glyph glyph-name="three.dnom" horiz-adv-x="351" 
d="M271 367q35 -28 35 -72q0 -35 -19.5 -58.5t-54.5 -31.5v-1q41 -7 64.5 -29.5t23.5 -67.5q0 -51 -36 -83.5t-106 -32.5q-69 0 -107 32.5t-41 93.5h81q2 -24 18.5 -38.5t47.5 -14.5q28 0 43.5 12.5t15.5 36.5q0 27 -21.5 38t-69.5 11v71q78 -2 78 47q0 44 -53 44
q-24 0 -39.5 -12.5t-16.5 -35.5h-77q2 54 37 86.5t101 32.5q61 0 96 -28z" />
    <glyph glyph-name="four.dnom" horiz-adv-x="355" 
d="M330 65h-37v-65h-77v65h-200v65l199 256h78v-251h37v-70zM216 135v144h-2l-114 -144h116z" />
    <glyph glyph-name="five.dnom" horiz-adv-x="335" 
d="M276 222q33 -32 33 -92q0 -65 -39.5 -102t-107.5 -37q-43 0 -79.5 14.5t-61.5 41.5l50 62q15 -17 38.5 -28t49.5 -11q32 0 50 17t18 44t-17 42.5t-43 15.5q-19 0 -32.5 -6.5t-20.5 -15.5h-69l22 219h212v-78h-151l-9 -81h2q24 27 71 27q51 0 84 -32z" />
    <glyph glyph-name="six.dnom" horiz-adv-x="343" 
d="M69 30.5q-43 39.5 -43 109.5q0 48 21 89t60 85l71 80h97l-150 -164l2 -1q31 32 73 32q56 0 91 -35.5t35 -95.5q0 -59 -39.5 -99t-107.5 -40q-67 0 -110 39.5zM224 84.5q19 16.5 19 44.5t-19 44.5t-48 16.5t-48 -16.5t-19 -44.5t19 -44.5t48 -16.5t48 16.5z" />
    <glyph glyph-name="seven.dnom" horiz-adv-x="299" 
d="M284 312l-161 -312h-88l162 307h-182v79h269v-74z" />
    <glyph glyph-name="eight.dnom" horiz-adv-x="364" 
d="M73.5 23q-37.5 32 -37.5 82q0 41 20.5 66.5t56.5 34.5v2q-30 9 -47.5 30.5t-17.5 53.5q0 46 35.5 74.5t98.5 28.5t98.5 -28.5t35.5 -74.5q0 -33 -17 -54.5t-48 -29.5v-2q35 -9 56 -34.5t21 -66.5q0 -50 -38 -82t-108 -32q-71 0 -108.5 32zM218 251.5q13 11.5 13 30.5
q0 18 -13.5 29t-35.5 11t-36.5 -11.5t-14.5 -28.5q0 -19 14 -30.5t37 -11.5t36 11.5zM227.5 82q16.5 15 16.5 38t-17 37.5t-45 14.5t-45 -14.5t-17 -37.5q0 -24 16 -38.5t46 -14.5q29 0 45.5 15z" />
    <glyph glyph-name="nine.dnom" horiz-adv-x="337" 
d="M216 152h-3q-26 -23 -67 -23q-53 0 -89 36t-36 91q0 63 40.5 101t107.5 38q63 0 104.5 -37t41.5 -109q0 -48 -18.5 -90.5t-62.5 -92.5l-62 -66h-99zM216.5 215.5q18.5 16.5 18.5 44.5t-18.5 44.5t-47.5 16.5t-47.5 -16.5t-18.5 -44.5t18.5 -44.5t47.5 -16.5t47.5 16.5z
" />
    <glyph glyph-name="zero.numr" horiz-adv-x="377" 
d="M311 631.5q44 -52.5 44 -148.5t-44 -149.5t-122 -53.5q-79 0 -123.5 53.5t-44.5 149.5t44.5 148.5t123.5 52.5q78 0 122 -52.5zM128.5 573.5q-21.5 -33.5 -21.5 -90.5q0 -59 21.5 -92.5t60.5 -33.5t60 33t21 93q0 57 -21 90.5t-60 33.5t-60.5 -33.5z" />
    <glyph glyph-name="one.numr" horiz-adv-x="213" 
d="M152 289h-80v305h-27v81h107v-386z" />
    <glyph glyph-name="two.numr" horiz-adv-x="330" 
d="M267 653.5q35 -30.5 35 -82.5q0 -35 -16.5 -64.5t-49.5 -60.5l-82 -79h154v-78h-277l-1 64l138 132q25 25 37 42.5t12 35.5q0 21 -13.5 33.5t-37.5 12.5q-25 0 -41.5 -14t-17.5 -42h-80q1 57 37 94t106 37q62 0 97 -30.5z" />
    <glyph glyph-name="three.numr" horiz-adv-x="351" 
d="M271 656q35 -28 35 -72q0 -35 -19.5 -58.5t-54.5 -31.5v-1q41 -7 64.5 -29.5t23.5 -67.5q0 -51 -36 -83.5t-106 -32.5q-69 0 -107 32.5t-41 93.5h81q2 -24 18.5 -38.5t47.5 -14.5q28 0 43.5 12.5t15.5 36.5q0 27 -21.5 38t-69.5 11v71q78 -2 78 47q0 44 -53 44
q-24 0 -39.5 -12.5t-16.5 -35.5h-77q2 54 37 86.5t101 32.5q61 0 96 -28z" />
    <glyph glyph-name="four.numr" horiz-adv-x="355" 
d="M330 354h-37v-65h-77v65h-200v65l199 256h78v-251h37v-70zM216 424v144h-2l-114 -144h116z" />
    <glyph glyph-name="five.numr" horiz-adv-x="335" 
d="M276 511q33 -32 33 -92q0 -65 -39.5 -102t-107.5 -37q-43 0 -79.5 14.5t-61.5 41.5l50 62q15 -17 38.5 -28t49.5 -11q32 0 50 17t18 44t-17 42.5t-43 15.5q-19 0 -32.5 -6.5t-20.5 -15.5h-69l22 219h212v-78h-151l-9 -81h2q24 27 71 27q51 0 84 -32z" />
    <glyph glyph-name="six.numr" horiz-adv-x="343" 
d="M69 319.5q-43 39.5 -43 109.5q0 48 21 89t60 85l71 80h97l-150 -164l2 -1q31 32 73 32q56 0 91 -35.5t35 -95.5q0 -59 -39.5 -99t-107.5 -40q-67 0 -110 39.5zM224 373.5q19 16.5 19 44.5t-19 44.5t-48 16.5t-48 -16.5t-19 -44.5t19 -44.5t48 -16.5t48 16.5z" />
    <glyph glyph-name="seven.numr" horiz-adv-x="299" 
d="M284 601l-161 -312h-88l162 307h-182v79h269v-74z" />
    <glyph glyph-name="eight.numr" horiz-adv-x="364" 
d="M73.5 312q-37.5 32 -37.5 82q0 41 20.5 66.5t56.5 34.5v2q-30 9 -47.5 30.5t-17.5 53.5q0 46 35.5 74.5t98.5 28.5t98.5 -28.5t35.5 -74.5q0 -33 -17 -54.5t-48 -29.5v-2q35 -9 56 -34.5t21 -66.5q0 -50 -38 -82t-108 -32q-71 0 -108.5 32zM218 540.5q13 11.5 13 30.5
q0 18 -13.5 29t-35.5 11t-36.5 -11.5t-14.5 -28.5q0 -19 14 -30.5t37 -11.5t36 11.5zM227.5 371q16.5 15 16.5 38t-17 37.5t-45 14.5t-45 -14.5t-17 -37.5q0 -24 16 -38.5t46 -14.5q29 0 45.5 15z" />
    <glyph glyph-name="nine.numr" horiz-adv-x="337" 
d="M216 441h-3q-26 -23 -67 -23q-53 0 -89 36t-36 91q0 63 40.5 101t107.5 38q63 0 104.5 -37t41.5 -109q0 -48 -18.5 -90.5t-62.5 -92.5l-62 -66h-99zM216.5 504.5q18.5 16.5 18.5 44.5t-18.5 44.5t-47.5 16.5t-47.5 -16.5t-18.5 -44.5t18.5 -44.5t47.5 -16.5t47.5 16.5z
" />
    <glyph glyph-name="colon.case" horiz-adv-x="243" 
d="M201 362h-160v161h160v-161zM201 0h-160v161h160v-161z" />
    <glyph glyph-name="exclamdown.case" horiz-adv-x="327" 
d="M84 701h160v-161h-160v161zM110 472h108l32 -471h-173z" />
    <glyph glyph-name="questiondown.case" horiz-adv-x="442" 
d="M151 700h160v-161h-160v161zM63.5 38.5q-52.5 53.5 -52.5 135.5q0 47 18 80.5t51 68.5q5 5 29 29.5t36 50.5t12 54v14h149v-29q0 -57 -23 -95t-64 -79q-32 -32 -44.5 -48t-12.5 -36q0 -27 15.5 -41.5t45.5 -14.5q34 0 53 20t19 52h146q0 -100 -57 -157.5t-167 -57.5
q-101 0 -153.5 53.5z" />
    <glyph glyph-name="semicolon.case" horiz-adv-x="243" 
d="M201 0l-91 -164h-64l57 164h-62v161h160v-161zM201 362h-160v161h160v-161z" />
    <glyph glyph-name="colon.case.ss01" horiz-adv-x="243" 
d="M188 148q27 -27 27 -67t-27 -67t-67 -27t-67 27t-27 67t27 67t67 27t67 -27zM188 515q27 -27 27 -67t-27 -67t-67 -27t-67 27t-27 67t27 67t67 27t67 -27z" />
    <glyph glyph-name="exclamdown.case.ss01" horiz-adv-x="327" 
d="M96 552q-27 27 -27 67t27 67t67 27t67 -27t27 -67t-27 -67t-67 -27t-67 27zM109 475h108l33 -475h-173z" />
    <glyph glyph-name="questiondown.case.ss01" horiz-adv-x="442" 
d="M163 552q-27 27 -27 67t27 67t67 27t67 -27t27 -67t-27 -67t-67 -27t-67 27zM63.5 38.5q-52.5 53.5 -52.5 135.5q0 47 18 80.5t50 68.5q29 29 42.5 44.5t24 38.5t10.5 51v14h149v-29q0 -57 -22.5 -95t-63.5 -79q-31 -30 -44 -47t-13 -37q0 -27 15.5 -41.5t44.5 -14.5
q35 0 54 22t19 56h146q0 -102 -57 -161.5t-167 -59.5q-101 0 -153.5 53.5z" />
    <glyph glyph-name="semicolon.case.ss01" horiz-adv-x="243" 
d="M189 515q27 -27 27 -67t-27 -67t-67 -27t-67 27t-27 67t27 67t67 27t67 -27zM200 20l-103 -182h-59l50 154q-25 9 -39 30.5t-14 52.5q0 41 24 65.5t66 24.5t66 -24.5t24 -65.5q0 -31 -15 -55z" />
    <glyph glyph-name="braceleft.case" horiz-adv-x="416" 
d="M406 709h-30q-44 0 -67 -18.5t-23 -68.5v-114q0 -67 -29.5 -107t-93.5 -55v-2q64 -15 93.5 -55t29.5 -107v-116q0 -50 23 -68.5t67 -18.5h30v-124h-39q-87 0 -145.5 50t-58.5 155v118q0 49 -33.5 74t-94.5 28v130q61 3 94.5 28t33.5 74v116q0 105 58.5 155t145.5 50h39
v-124z" />
    <glyph glyph-name="braceright.case" horiz-adv-x="416" 
d="M10 -21h31q44 0 67 18.5t23 68.5v116q0 67 29.5 107t92.5 55v2q-63 15 -92.5 55t-29.5 107v114q0 50 -23.5 68.5t-67.5 18.5h-30v124h40q87 0 145 -49.5t58 -155.5v-116q0 -49 33.5 -74t94.5 -28v-130q-61 -3 -94.5 -28t-33.5 -74v-118q0 -106 -58 -155.5t-145 -49.5h-40
v124z" />
    <glyph glyph-name="bracketleft.case" horiz-adv-x="341" 
d="M331 726h-130v-763h130v-108h-257v979h257v-108z" />
    <glyph glyph-name="bracketright.case" horiz-adv-x="341" 
d="M10 -37h130v763h-130v108h257v-979h-257v108z" />
    <glyph glyph-name="parenleft.case" horiz-adv-x="334" 
d="M309 793q-61 -94 -97 -191.5t-36 -226.5q0 -136 37.5 -247.5t95.5 -208.5l-107 -64q-72 123 -112.5 242.5t-40.5 277.5q0 105 20.5 190t52.5 150.5t81 141.5z" />
    <glyph glyph-name="parenright.case" horiz-adv-x="334" 
d="M24 -81q58 96 95.5 208t37.5 248q0 130 -36 227.5t-97 190.5l107 64q49 -77 80.5 -142t52 -150t20.5 -190q0 -158 -40.5 -277.5t-112.5 -242.5z" />
    <glyph glyph-name="emdash.case" horiz-adv-x="1154" 
d="M1104 295h-1054v113h1054v-113z" />
    <glyph glyph-name="endash.case" horiz-adv-x="734" 
d="M693 291h-652v117h652v-117z" />
    <glyph glyph-name="hyphen.case" horiz-adv-x="366" 
d="M326 278h-286v135h286v-135z" />
    <glyph glyph-name="guillemotleft.case" horiz-adv-x="578" 
d="M177 318l164 -176h-162l-164 176l164 175h162zM404 318l164 -176h-162l-164 176l164 175h162z" />
    <glyph glyph-name="guillemotright.case" horiz-adv-x="578" 
d="M172 493l164 -175l-164 -176h-162l164 176l-164 175h162zM399 493l164 -175l-164 -176h-162l164 176l-164 175h162z" />
    <glyph glyph-name="guilsinglleft.case" horiz-adv-x="351" 
d="M177 318l164 -176h-162l-164 176l164 175h162z" />
    <glyph glyph-name="guilsinglright.case" horiz-adv-x="351" 
d="M172 493l164 -175l-164 -176h-162l164 176l-164 175h162z" />
    <glyph glyph-name="approxequal.case" 
d="M236.5 505.5q32.5 -12.5 78.5 -36.5q39 -20 64.5 -30.5t46.5 -10.5q31 0 51 17.5t34 56.5h62q-19 -75 -58 -108.5t-88 -33.5q-31 0 -63.5 12.5t-78.5 36.5q-39 20 -64.5 30.5t-46.5 10.5q-31 0 -51 -18t-34 -57h-62q19 76 58 109.5t88 33.5q31 0 63.5 -12.5zM236.5 323.5
q32.5 -12.5 78.5 -36.5q39 -20 64.5 -30.5t46.5 -10.5q31 0 51 18t34 57h62q-19 -76 -58 -109.5t-88 -33.5q-31 0 -63.5 12.5t-78.5 36.5q-39 20 -64.5 30.5t-46.5 10.5q-31 0 -51 -18t-34 -57h-62q19 76 58 109.5t88 33.5q31 0 63.5 -12.5z" />
    <glyph glyph-name="divide.case" 
d="M348 455h-96v98h96v-98zM559 307h-518v63h518v-63zM348 124h-96v98h96v-98z" />
    <glyph glyph-name="equal.case" 
d="M553 414h-506v66h506v-66zM553 201h-506v66h506v-66z" />
    <glyph glyph-name="greater.case" 
d="M534 375v-71l-468 -208v76l391 167l-391 168v76z" />
    <glyph glyph-name="less.case" 
d="M534 507l-391 -168l391 -167v-76l-468 208v71l468 208v-76z" />
    <glyph glyph-name="logicalnot.case" 
d="M529 472v-265h-68v199h-390v66h458z" />
    <glyph glyph-name="minus.case" 
d="M539 304h-478v68h478v-68z" />
    <glyph glyph-name="multiply.case" 
d="M522 513l-174 -175l174 -175l-47 -47l-175 174l-175 -174l-47 47l174 175l-174 175l47 47l175 -174l175 174z" />
    <glyph glyph-name="notequal.case" 
d="M379 414l-90 -147h264v-66h-305l-53 -87h-66l53 87h-135v66h176l90 147h-266v66h307l51 83h66l-51 -83h133v-66h-174z" />
    <glyph glyph-name="plus.case" 
d="M334 369h211v-63h-211v-212h-68v212h-211v63h211v212h68v-212z" />
    <glyph glyph-name="divide.ss01.case" 
d="M262 458q-15 15 -15 38t15 38t38 15t38 -15t15 -38t-15 -38t-38 -15t-38 15zM41 370h518v-63h-518v63zM262 143q-15 15 -15 38t15 38t38 15t38 -15t15 -38t-15 -38t-38 -15t-38 15z" />
    <glyph glyph-name="arrowup.case" horiz-adv-x="748" 
d="M602 309l-166 170v-478h-124v478l-166 -170l-96 95l324 310l324 -310z" />
    <glyph glyph-name="uni2197.case" horiz-adv-x="659" 
d="M473 166l3 237l-338 -338l-88 88l338 337l-237 -2l-1 135l448 -11l11 -446h-136z" />
    <glyph glyph-name="arrowright.case" horiz-adv-x="813" 
d="M763 371l-310 -324l-95 96l170 166h-478v124h478l-170 166l95 96z" />
    <glyph glyph-name="uni2198.case" horiz-adv-x="658" 
d="M608 574l-11 -447l-447 -11v136l237 -3l-337 337l88 89l337 -338l-2 236z" />
    <glyph glyph-name="arrowdown.case" horiz-adv-x="748" 
d="M698 337l-324 -310l-324 310l96 95l166 -170v478h124v-478l166 170z" />
    <glyph glyph-name="uni2199.case" horiz-adv-x="659" 
d="M508 252l1 -135l-448 11l-11 446h136l-3 -237l338 338l88 -88l-338 -337z" />
    <glyph glyph-name="arrowleft.case" horiz-adv-x="813" 
d="M763 308h-478l170 -166l-95 -96l-310 324l310 324l95 -96l-170 -166h478v-124z" />
    <glyph glyph-name="uni2196.case" horiz-adv-x="658" 
d="M521 65l-338 338l2 -236l-135 -1l11 447l447 11v-136l-237 3l337 -337z" />
    <glyph glyph-name="arrowboth.case" horiz-adv-x="1252" 
d="M1202 370l-310 -324l-95 96l170 166h-682l170 -166l-95 -96l-310 324l310 324l95 -96l-170 -166h682l-170 166l95 96z" />
    <glyph glyph-name="bar.case" horiz-adv-x="328" 
d="M218 -135h-108v942h108v-942z" />
    <glyph glyph-name="brokenbar.case" horiz-adv-x="328" 
d="M218 419h-108v388h108v-388zM218 -135h-108v396h108v-396z" />
    <glyph glyph-name="at.case" horiz-adv-x="934" 
d="M696 713q94 -47 145.5 -133t51.5 -200q0 -70 -20.5 -130t-63.5 -97t-108 -37q-47 0 -79 22.5t-47 59.5h-2q-46 -77 -138 -77q-53 0 -96.5 25t-69.5 74t-26 118t26 118.5t70 75t97 25.5q84 0 127 -70h2v55h115v-278q0 -26 10.5 -38t26.5 -12q18 0 35 16t28 49.5t11 83.5
q0 102 -41.5 170t-111 100t-157.5 32q-98 0 -174.5 -37.5t-120.5 -112t-44 -182.5q0 -105 47 -176.5t124 -106.5t168 -35q83 0 170 32l33 -90q-103 -37 -205 -37q-111 0 -211.5 45t-163.5 138t-63 229q0 133 55 229.5t153.5 147.5t228.5 51q124 0 218 -47zM402.5 408.5
q-26.5 -26.5 -26.5 -69.5t26.5 -69.5t66.5 -26.5t66.5 26.5t26.5 69.5t-26.5 69.5t-66.5 26.5t-66.5 -26.5z" />
    <glyph glyph-name="uniF8FF.ss01" horiz-adv-x="770" 
d="M197 32q-83 47 -130 130.5t-47 187.5t47 187.5t130 130.5t188 47t188 -47t130 -130.5t47 -187.5t-47 -187.5t-130 -130.5t-188 -47t-188 47zM558.5 54q78.5 44 123.5 122.5t45 178.5l-51 65l-70 -30l-68 90l-79 -44l-74 118l-74 -118l-79 44l-68 -90l-70 30l-51 -65
q0 -100 45 -178.5t123.5 -122.5t173.5 -44t173.5 44zM257 328q-10 10 -10 25t10 25t25 10t25 -10t10 -25t-10 -25t-25 -10t-25 10zM462 328q-10 10 -10 25t10 25t25 10t25 -10t10 -25t-10 -25t-25 -10t-25 10zM379 356q1 4 4 5.5t7 -0.5q3 -1 4.5 -4t0.5 -7l-28 -78h34
q4 0 6.5 -2.5t2.5 -6.5q0 -3 -2.5 -5.5t-6.5 -2.5h-58zM138.5 190.5q-19.5 19.5 -19.5 49.5t19.5 49.5t49.5 19.5t49.5 -19.5t19.5 -49.5t-19.5 -49.5t-49.5 -19.5t-49.5 19.5zM531.5 190.5q-19.5 19.5 -19.5 49.5t19.5 49.5t49.5 19.5t49.5 -19.5t19.5 -49.5t-19.5 -49.5
t-49.5 -19.5t-49.5 19.5zM447 225q3 6 9 6q8 0 8 -9q0 -8 -8.5 -18.5t-26.5 -18.5t-44 -8t-44 8t-26.5 18.5t-8.5 18.5q0 9 8 9q6 0 9 -6q17 -30 62 -30t62 30z" />
    <glyph glyph-name="uni0308.case" horiz-adv-x="0" 
d="M-268 743h-133v114h133v-114zM-50 743h-134v114h134v-114z" />
    <glyph glyph-name="uni0307.case" horiz-adv-x="0" 
d="M-50 743h-142v128h142v-128z" />
    <glyph glyph-name="gravecomb.case" horiz-adv-x="0" 
d="M-50 743h-108l-172 120h165z" />
    <glyph glyph-name="acutecomb.case" horiz-adv-x="0" 
d="M-221 743h-109l115 120h165z" />
    <glyph glyph-name="uni030B.case" horiz-adv-x="0" 
d="M-321 743h-102l98 120h117zM-163 743h-102l98 120h117z" />
    <glyph glyph-name="uni0302.case" horiz-adv-x="0" 
d="M-50 743h-125l-67 62l-67 -62h-125l120 120h144z" />
    <glyph glyph-name="uni030C.case" horiz-adv-x="0" 
d="M-314 743l-120 120h125l67 -62l67 62h125l-120 -120h-144z" />
    <glyph glyph-name="uni0306.case" horiz-adv-x="0" 
d="M-100.5 768.5q-43.5 -34.5 -113.5 -34.5t-113 34.5t-51 94.5h103q2 -19 18.5 -31.5t42.5 -12.5q27 0 43 12t18 32h103q-7 -60 -50.5 -94.5z" />
    <glyph glyph-name="uni030A.case" horiz-adv-x="0" 
d="M-84 839q34 -33 34 -84t-34 -84t-86 -33q-53 0 -87 33t-34 84t34 84t87 33q52 0 86 -33zM-211.5 795q-15.5 -16 -15.5 -40t15.5 -39.5t41.5 -15.5q25 0 41 15.5t16 39.5t-16 40t-41 16q-26 0 -41.5 -16z" />
    <glyph glyph-name="tildecomb.case" horiz-adv-x="0" 
d="M-211.5 743.5q-24.5 5.5 -59.5 15.5q-54 15 -72 15q-17 0 -30 -9.5t-24 -28.5l-47 15q16 58 42.5 89t73.5 31q21 0 45.5 -5.5t59.5 -15.5q53 -15 72 -15q31 0 54 39l47 -16q-17 -58 -43.5 -89t-72.5 -31q-21 0 -45.5 5.5z" />
    <glyph glyph-name="uni0304.case" horiz-adv-x="0" 
d="M-50 749h-324v95h324v-95z" />
    <glyph glyph-name="uni0308.ss01" horiz-adv-x="0" 
d="M-282 682q23 -23 23 -58q0 -34 -23 -57.5t-58 -23.5q-34 0 -57.5 23.5t-23.5 57.5q0 35 23.5 58t57.5 23q35 0 58 -23zM-73 682q23 -23 23 -58q0 -34 -23 -57.5t-58 -23.5q-34 0 -57.5 23.5t-23.5 57.5q0 35 23.5 58t57.5 23q35 0 58 -23z" />
    <glyph glyph-name="uni0307.ss01" horiz-adv-x="0" 
d="M-76.5 683q26.5 -26 26.5 -67q0 -42 -26.5 -68t-67.5 -26q-42 0 -68 26t-26 68q0 41 26 67t68 26q41 0 67.5 -26z" />
    <glyph glyph-name="uni0312.ss01" horiz-adv-x="0" 
d="M-160 659l57 52h45l-28 -48q17 -9 26.5 -25.5t9.5 -35.5q0 -30 -19.5 -49t-48.5 -19t-48.5 19t-19.5 49q0 33 26 57z" />
    <glyph glyph-name="uni0326.ss01" horiz-adv-x="0" 
d="M-76 -158l-57 -52h-45l28 48q-17 9 -26.5 25.5t-9.5 35.5q0 30 19.5 49t48.5 19t48.5 -19t19.5 -49q0 -33 -26 -57z" />
    <glyph glyph-name="uni0308.case.ss01" horiz-adv-x="0" 
d="M-301 867.5q23 -23.5 23 -57.5t-23 -57t-57 -23q-35 0 -58 23t-23 57q0 35 23.5 58t57.5 23t57 -23.5zM-73 867.5q23 -23.5 23 -57.5t-23 -57t-57 -23q-35 0 -58 23t-23 57q0 35 23.5 58t57.5 23t57 -23.5z" />
    <glyph glyph-name="uni0307.case.ss01" horiz-adv-x="0" 
d="M-72 876.5q23 -23.5 23 -57.5t-23 -57t-57 -23q-35 0 -58 23t-23 57q0 35 23 58t58 23q34 0 57 -23.5z" />
    <glyph glyph-name="dieresiscasecomb.ss01" horiz-adv-x="233" 
d="M174 867.5q23 -23.5 23 -57.5t-23 -57t-57 -23q-35 0 -58 23t-23 57q0 35 23.5 58t57.5 23t57 -23.5z" />
    <glyph glyph-name="dieresisdotcomb.ss01" horiz-adv-x="262" 
d="M189 677q23 -23 23 -58q0 -34 -23 -57.5t-58 -23.5q-34 0 -57.5 23.5t-23.5 57.5q0 35 23.5 58t57.5 23q35 0 58 -23z" />
    <glyph glyph-name="circlecomb" horiz-adv-x="830" 
d="M226 32q-83 47 -129.5 130.5t-46.5 187.5t46.5 187.5t129.5 130.5t189 47t189 -47t129.5 -130.5t46.5 -187.5t-46.5 -187.5t-129.5 -130.5t-189 -47t-189 47zM562 97q65 38 102 104t37 149t-37 149t-102 104t-147 38t-147 -38t-102 -104t-37 -149t37 -149t102 -104
t147 -38t147 38z" />
    <glyph glyph-name="circleinvertcomb" horiz-adv-x="830" 
d="M228.5 32.5q-83.5 47.5 -131 131t-47.5 186.5t47.5 186.5t131 131t186.5 47.5t186.5 -47.5t131 -131t47.5 -186.5t-47.5 -186.5t-131 -131t-186.5 -47.5t-186.5 47.5z" />
    </font>
</defs>
</svg>
