<?xml version="1.0" standalone="no"?>
<!DOCTYPE svg PUBLIC "-//W3C//DTD SVG 1.1//EN" "http://www.w3.org/Graphics/SVG/1.1/DTD/svg11.dtd" >
<svg xmlns="http://www.w3.org/2000/svg" xmlns:xlink="http://www.w3.org/1999/xlink" version="1.1">
<metadata>
Created by FontForge 20170731 at Thu Jun 30 21:13:27 2016
 By Aleksey,,,
Copyright (c) 2015 by Reto Moser. All rights reserved.
</metadata>
<defs>
<font id="GTEestiDisplay-MediumItalic" horiz-adv-x="600" >
  <font-face 
    font-family="GT Eesti Display Medium"
    font-weight="500"
    font-style="italic"
    font-stretch="normal"
    units-per-em="1000"
    panose-1="0 0 6 0 0 0 0 0 0 0"
    ascent="750"
    descent="-250"
    x-height="462"
    cap-height="700"
    bbox="-356 -260 1233 881"
    underline-thickness="50"
    underline-position="-150"
    slope="-11"
    unicode-range="U+000D-FB02"
  />
<missing-glyph horiz-adv-x="786" 
d="M228.5 32q-83.5 47 -130.5 130.5t-47 187.5q0 105 47 188t130.5 130t187.5 47q105 0 188 -47t130 -130t47 -188q0 -104 -47 -187.5t-130 -130.5t-188 -47q-104 0 -187.5 47zM591 54.5q78 44.5 122.5 123.5t44.5 177l-51 65l-70 -30l-68 90l-79 -44l-74 118l-74 -118
l-79 44l-68 -90l-70 30l-51 -65q0 -98 44.5 -177t122.5 -123.5t175 -44.5t175 44.5zM288 328q-10 10 -10 25t10 25t25 10t25 -10t10 -25t-10 -25t-25 -10t-25 10zM493 328q-10 10 -10 25t10 25t25 10t25 -10t10 -25t-10 -25t-25 -10t-25 10zM410 356q1 4 4 5.5t7 -0.5
q3 -1 4.5 -4t0.5 -7l-28 -78h34q4 0 6.5 -2.5t2.5 -6.5q0 -3 -2.5 -5.5t-6.5 -2.5h-58zM169.5 190.5q-19.5 19.5 -19.5 49.5t19.5 49.5t49.5 19.5t49.5 -19.5t19.5 -49.5t-19.5 -49.5t-49.5 -19.5t-49.5 19.5zM562.5 190.5q-19.5 19.5 -19.5 49.5t19.5 49.5t49.5 19.5
t49.5 -19.5t19.5 -49.5t-19.5 -49.5t-49.5 -19.5t-49.5 19.5zM377.5 185q-16.5 -8 -23.5 -22q-3 -6 -9 -6q-8 0 -8 9q0 17 24.5 31t54.5 14t54.5 -14t24.5 -31q0 -9 -8 -9q-6 0 -9 6q-7 14 -23.5 22t-38.5 8t-38.5 -8z" />
    <glyph glyph-name="fi" unicode="fi" horiz-adv-x="569" 
d="M406 710l-22 -115h-9q-43 0 -67.5 -19.5t-33.5 -67.5l-9 -46h93l-20 -103h-93l-70 -359h-123l70 359h-78l20 103h78l12 62q17 93 73 139.5t154 46.5h25zM434 462h123l-90 -462h-123zM584 559h-140l26 135h140z" />
    <glyph glyph-name="fl" unicode="fl" horiz-adv-x="569" 
d="M406 710l-22 -115h-9q-43 0 -67.5 -19.5t-33.5 -67.5l-9 -46h93l-20 -103h-93l-70 -359h-123l70 359h-78l20 103h78l12 62q17 93 73 139.5t154 46.5h25zM480 700h123l-136 -700h-123z" />
    <glyph glyph-name="f_f" unicode="ff" horiz-adv-x="666" 
d="M406 710l-22 -115h-9q-43 0 -67.5 -19.5t-33.5 -67.5l-9 -46h93l-20 -103h-93l-70 -359h-123l70 359h-78l20 103h78l12 62q17 93 73 139.5t154 46.5h25zM739 710l-22 -115h-9q-43 0 -67.5 -19.5t-33.5 -67.5l-9 -46h93l-20 -103h-93l-70 -359h-123l70 359h-78l20 103h78
l12 62q17 93 73 139.5t154 46.5h25z" />
    <glyph glyph-name="f_f_i" unicode="ffi" horiz-adv-x="902" 
d="M406 710l-22 -115h-9q-43 0 -67.5 -19.5t-33.5 -67.5l-9 -46h93l-20 -103h-93l-70 -359h-123l70 359h-78l20 103h78l12 62q17 93 73 139.5t154 46.5h25zM739 710l-22 -115h-9q-43 0 -67.5 -19.5t-33.5 -67.5l-9 -46h93l-20 -103h-93l-70 -359h-123l70 359h-78l20 103h78
l12 62q17 93 73 139.5t154 46.5h25zM767 462h123l-90 -462h-123zM917 559h-140l26 135h140z" />
    <glyph glyph-name="f_f_l" unicode="ffl" horiz-adv-x="902" 
d="M406 710l-22 -115h-9q-43 0 -67.5 -19.5t-33.5 -67.5l-9 -46h93l-20 -103h-93l-70 -359h-123l70 359h-78l20 103h78l12 62q17 93 73 139.5t154 46.5h25zM739 710l-22 -115h-9q-43 0 -67.5 -19.5t-33.5 -67.5l-9 -46h93l-20 -103h-93l-70 -359h-123l70 359h-78l20 103h78
l12 62q17 93 73 139.5t154 46.5h25zM813 700h123l-136 -700h-123z" />
    <glyph glyph-name=".notdef" horiz-adv-x="786" 
d="M228.5 32q-83.5 47 -130.5 130.5t-47 187.5q0 105 47 188t130.5 130t187.5 47q105 0 188 -47t130 -130t47 -188q0 -104 -47 -187.5t-130 -130.5t-188 -47q-104 0 -187.5 47zM591 54.5q78 44.5 122.5 123.5t44.5 177l-51 65l-70 -30l-68 90l-79 -44l-74 118l-74 -118
l-79 44l-68 -90l-70 30l-51 -65q0 -98 44.5 -177t122.5 -123.5t175 -44.5t175 44.5zM288 328q-10 10 -10 25t10 25t25 10t25 -10t10 -25t-10 -25t-25 -10t-25 10zM493 328q-10 10 -10 25t10 25t25 10t25 -10t10 -25t-10 -25t-25 -10t-25 10zM410 356q1 4 4 5.5t7 -0.5
q3 -1 4.5 -4t0.5 -7l-28 -78h34q4 0 6.5 -2.5t2.5 -6.5q0 -3 -2.5 -5.5t-6.5 -2.5h-58zM169.5 190.5q-19.5 19.5 -19.5 49.5t19.5 49.5t49.5 19.5t49.5 -19.5t19.5 -49.5t-19.5 -49.5t-49.5 -19.5t-49.5 19.5zM562.5 190.5q-19.5 19.5 -19.5 49.5t19.5 49.5t49.5 19.5
t49.5 -19.5t19.5 -49.5t-19.5 -49.5t-49.5 -19.5t-49.5 19.5zM377.5 185q-16.5 -8 -23.5 -22q-3 -6 -9 -6q-8 0 -8 9q0 17 24.5 31t54.5 14t54.5 -14t24.5 -31q0 -9 -8 -9q-6 0 -9 6q-7 14 -23.5 22t-38.5 8t-38.5 -8z" />
    <glyph glyph-name=".null" horiz-adv-x="0" 
 />
    <glyph glyph-name="nonmarkingreturn" unicode="&#xd;" horiz-adv-x="0" 
 />
    <glyph glyph-name="space" unicode=" " horiz-adv-x="277" 
 />
    <glyph glyph-name="exclam" unicode="!" horiz-adv-x="325" 
d="M204 220h-86l62 480h145zM77 139h139l-27 -139h-138z" />
    <glyph glyph-name="quotedbl" unicode="&#x22;" horiz-adv-x="321" 
d="M144 715h96l-72 -253h-50zM269 715h96l-72 -253h-50z" />
    <glyph glyph-name="numbersign" unicode="#" horiz-adv-x="637" 
d="M511 447l-65 -174h111l-12 -58h-121l-81 -215h-65l81 215h-135l-81 -215h-64l81 215h-113l12 58h123l65 174h-117l12 58h127l73 195h64l-73 -195h135l73 195h65l-73 -195h107l-11 -58h-118zM446 447h-135l-65 -174h135z" />
    <glyph glyph-name="dollar" unicode="$" horiz-adv-x="546" 
d="M428 481l1 18q0 31 -18 49.5t-53 23.5l-31 -161q61 -32 93.5 -53t58.5 -62t26 -102q0 -97 -66.5 -153t-183.5 -56h-11l-12 -62h-28l12 64q-91 8 -142.5 56t-51.5 122q0 14 1 24.5t2 17.5h127q-1 -7 -1 -20q0 -77 88 -85l38 195q-54 28 -85 49.5t-54 58.5t-23 92
q0 89 61.5 141t169.5 52h7l14 72h28l-14 -74q81 -7 128.5 -50t47.5 -116q0 -18 -3 -41h-126zM257.5 459.5q15.5 -17.5 44.5 -34.5l28 148q-43 -2 -65.5 -22t-22.5 -50q0 -24 15.5 -41.5zM357.5 239q-19.5 22 -55.5 44l-35 -182q57 1 83.5 24.5t26.5 59.5q0 32 -19.5 54z" />
    <glyph glyph-name="percent" unicode="%" horiz-adv-x="814" 
d="M154.5 418.5q-44.5 37.5 -44.5 105.5q0 46 22 87.5t63 67.5t95 26q65 0 109.5 -38t44.5 -105q0 -46 -22 -88t-62.5 -67.5t-94.5 -25.5q-66 0 -110.5 37.5zM635 675h67l-499 -675h-67zM330 461.5q25 17.5 37 44t12 53.5q0 39 -26 61t-67 22q-37 0 -62 -17.5t-37 -44
t-12 -53.5q0 -40 26 -61.5t67 -21.5q37 0 62 17.5zM460.5 33q-44.5 38 -44.5 105q0 46 22 88t62.5 67.5t94.5 25.5q66 0 110.5 -37.5t44.5 -105.5q0 -46 -22 -87.5t-63 -67.5t-95 -26q-65 0 -109.5 38zM636 75.5q25 17.5 37 44t12 53.5q0 40 -26 61.5t-67 21.5
q-37 0 -62 -17.5t-37 -44t-12 -53.5q0 -39 26 -61t67 -22q37 0 62 17.5z" />
    <glyph glyph-name="ampersand" unicode="&#x26;" horiz-adv-x="718" 
d="M563 131l72 -131h-146l-24 42q-85 -57 -188 -57q-106 0 -171.5 55.5t-65.5 157.5q0 93 54.5 153t151.5 87q-23 52 -23 94q0 71 46 114.5t134 43.5q86 0 169 -46l-56 -103q-63 34 -108 34q-28 0 -41 -13t-13 -33q0 -11 5.5 -25t18.5 -39l124 -224q41 53 83 129l104 -59
q-69 -115 -126 -180zM407 146l-106 191q-135 -26 -135 -127q0 -51 32 -79t85 -28q64 0 124 43z" />
    <glyph glyph-name="quotesingle" unicode="'" horiz-adv-x="206" 
d="M178 462h-60l26 253h106z" />
    <glyph glyph-name="parenleft" unicode="(" horiz-adv-x="345" 
d="M64 152q0 149 43 266.5t98 193.5t134 163l84 -68q-76 -82 -127 -153.5t-85.5 -170t-34.5 -222.5q0 -181 73 -329l-100 -47q-85 170 -85 367z" />
    <glyph glyph-name="parenright" unicode=")" horiz-adv-x="345" 
d="M296 384q0 -149 -43 -266.5t-98 -193.5t-134 -163l-84 68q76 82 127 153.5t85.5 170t34.5 222.5q0 181 -73 329l100 47q85 -170 85 -367z" />
    <glyph glyph-name="asterisk" unicode="*" horiz-adv-x="420" 
d="M329 522l82 -98l-70 -52l-68 108l-68 -109l-70 53l82 98l-125 31l28 82l118 -48l-9 128h88l-9 -127l118 47l27 -82z" />
    <glyph glyph-name="plus" unicode="+" 
d="M342 325h215v-54h-215v-217h-58v217h-215v54h215v216h58v-216z" />
    <glyph glyph-name="comma" unicode="," horiz-adv-x="249" 
d="M72 0h-54l27 139h137l-26 -139l-128 -153h-54z" />
    <glyph glyph-name="hyphen" unicode="-" horiz-adv-x="357" 
d="M61 322h271l-22 -114h-272z" />
    <glyph glyph-name="period" unicode="." horiz-adv-x="235" 
d="M30 139h139l-27 -139h-138z" />
    <glyph glyph-name="slash" unicode="/" horiz-adv-x="623" 
d="M-26 -57l636 849l81 -59l-635 -848z" />
    <glyph glyph-name="zero" unicode="0" horiz-adv-x="605" 
d="M115.5 52q-60.5 67 -60.5 195q0 118 35.5 219.5t104.5 162.5t165 61q111 0 171 -67t60 -195q0 -118 -35.5 -219.5t-104.5 -162.5t-164 -61q-111 0 -171.5 67zM385 151q38 46 57 119.5t19 154.5q0 72 -29 108.5t-77 36.5q-55 0 -93 -46t-57 -119.5t-19 -154.5
q0 -72 29 -108.5t77 -36.5q55 0 93 46z" />
    <glyph glyph-name="one" unicode="1" horiz-adv-x="333" 
d="M188 0h-126l107 555h-36l24 120h162z" />
    <glyph glyph-name="two" unicode="2" horiz-adv-x="544" 
d="M489.5 641q56.5 -49 56.5 -130q0 -66 -37 -120t-111 -115l-196 -164l277 1l-22 -113h-468l19 97l286 241q63 51 92 86.5t29 73.5q0 32 -24 53t-69 21q-48 0 -79.5 -24t-38.5 -72h-125q12 100 78.5 157t175.5 57q100 0 156.5 -49z" />
    <glyph glyph-name="three" unicode="3" horiz-adv-x="546" 
d="M73.5 28q-61.5 43 -61.5 123q0 12 4 42h124v-9q0 -39 28 -60t84 -21q59 0 92.5 27.5t33.5 77.5t-37 71t-122 22l19 99q174 0 174 97q0 37 -25 56t-69 19t-73.5 -20t-35.5 -58h-127q9 90 73 143t173 53q103 0 161 -46.5t58 -122.5q0 -67 -41.5 -109t-117.5 -54v-2
q55 -9 87 -48.5t32 -102.5q0 -60 -29.5 -110t-89.5 -80t-146 -30q-107 0 -168.5 43z" />
    <glyph glyph-name="four" unicode="4" horiz-adv-x="566" 
d="M461 234h83l-23 -110h-81l-24 -124h-114l24 124h-329l19 96l415 455h116zM347 234l52 267h-4l-241 -267h193z" />
    <glyph glyph-name="five" unicode="5" horiz-adv-x="536" 
d="M457 390.5q52 -53.5 52 -149.5q0 -74 -31 -132t-91.5 -91t-145.5 -33q-163 0 -242 119l90 82q33 -42 69.5 -62.5t85.5 -20.5q69 0 102 38t33 95q0 51 -27 78t-72 27q-66 0 -105 -48h-113l117 382h347l-24 -114h-247l-52 -159h2q45 42 116 42q84 0 136 -53.5z" />
    <glyph glyph-name="six" unicode="6" horiz-adv-x="565" 
d="M89.5 43q-64.5 58 -64.5 166q0 78 37.5 145.5t127.5 156.5l175 173h164l-302 -282l2 -2q33 28 63.5 41t66.5 13q49 0 92 -24.5t68.5 -71t25.5 -110.5q0 -73 -34.5 -133t-98 -95t-146.5 -35q-112 0 -176.5 58zM374.5 142q39.5 39 39.5 97q0 50 -32 78t-86 28
q-64 0 -103.5 -39t-39.5 -96q0 -50 32.5 -78.5t85.5 -28.5q64 0 103.5 39z" />
    <glyph glyph-name="seven" unicode="7" horiz-adv-x="464" 
d="M514 566l-375 -566h-143l377 558h-299l23 117h438z" />
    <glyph glyph-name="eight" unicode="8" horiz-adv-x="567" 
d="M88.5 36q-61.5 51 -61.5 136q0 76 48.5 128t122.5 64l1 3q-41 14 -64.5 47t-23.5 82q0 54 29 98.5t84.5 70t129.5 25.5q100 0 156.5 -46t56.5 -122q0 -65 -39 -105.5t-107 -55.5l-1 -3q50 -15 77 -51.5t27 -94.5q0 -62 -30.5 -114t-90.5 -82.5t-143 -30.5
q-110 0 -171.5 51zM405.5 439q30.5 26 30.5 67q0 33 -23 51.5t-65 18.5q-49 0 -79.5 -25t-30.5 -65q0 -34 23 -53.5t65 -19.5q49 0 79.5 26zM360.5 135.5q35.5 32.5 35.5 81.5q0 43 -27.5 67.5t-78.5 24.5q-59 0 -94.5 -33.5t-35.5 -82.5q0 -42 28 -66t78 -24
q59 0 94.5 32.5z" />
    <glyph glyph-name="nine" unicode="9" horiz-adv-x="553" 
d="M377 274l-2 2q-61 -47 -128 -47q-53 0 -94.5 26.5t-64.5 73t-23 104.5q0 71 34 129.5t96.5 93t143.5 34.5q105 0 171.5 -53.5t66.5 -159.5q0 -83 -40.5 -155.5t-131.5 -158.5l-173 -163h-157zM410 376q40 38 40 94q0 48 -30.5 74.5t-82.5 26.5q-62 0 -102 -37.5
t-40 -93.5q0 -48 30.5 -75t82.5 -27q62 0 102 38z" />
    <glyph glyph-name="colon" unicode=":" horiz-adv-x="238" 
d="M30 139h139l-27 -139h-138zM96 462h139l-27 -139h-138z" />
    <glyph glyph-name="semicolon" unicode=";" horiz-adv-x="249" 
d="M72 0h-54l27 139h137l-26 -139l-128 -153h-54zM99 462h139l-27 -139h-138z" />
    <glyph glyph-name="less" unicode="&#x3c;" 
d="M522 468l-391 -169l391 -168v-64l-458 202v61l458 202v-64z" />
    <glyph glyph-name="equal" unicode="=" 
d="M566 373h-506v54h506v-54zM566 173h-506v54h506v-54z" />
    <glyph glyph-name="greater" unicode="&#x3e;" 
d="M562 330v-61l-458 -202v64l391 168l-391 169v64z" />
    <glyph glyph-name="question" unicode="?" horiz-adv-x="492" 
d="M176 249q13 62 46 103.5t87 79.5q37 26 56 50.5t19 53.5q0 28 -18.5 44.5t-56.5 16.5q-42 0 -70.5 -22.5t-35.5 -68.5h-123q15 106 77 157.5t161 51.5q93 0 143 -43.5t50 -120.5q0 -55 -28.5 -98.5t-79.5 -81.5q-38 -28 -56.5 -44t-32 -38t-20.5 -52l-3 -17h-121z
M146 139h139l-27 -139h-138z" />
    <glyph glyph-name="at" unicode="@" horiz-adv-x="959" 
d="M256.5 -105.5q-91.5 44.5 -145.5 132t-54 212.5q0 132 60.5 234.5t167 159.5t241.5 57q120 0 211.5 -43t141.5 -120.5t50 -176.5q0 -80 -30 -148.5t-83 -109.5t-118 -41q-47 0 -77 21t-39 59h-2q-54 -80 -142 -80q-78 0 -126.5 53t-48.5 142q0 71 30.5 126t82 85
t111.5 30q101 0 136 -85h2l12 70h101l-54 -279q-3 -13 -3 -21q0 -19 9.5 -28t26.5 -9q33 0 59.5 29.5t42 77.5t15.5 100q0 84 -38.5 143.5t-107.5 89.5t-159 30q-107 0 -193.5 -44t-136 -126.5t-49.5 -191.5q0 -101 42 -170.5t113.5 -103.5t162.5 -34q99 0 190 36l16 -83
q-109 -38 -214 -38q-112 0 -203.5 44.5zM567.5 194q35.5 39 35.5 94q0 45 -25.5 70.5t-71.5 25.5q-57 0 -92.5 -39t-35.5 -94q0 -45 26 -70.5t72 -25.5q56 0 91.5 39z" />
    <glyph glyph-name="A" unicode="A" horiz-adv-x="697" 
d="M487 160h-291l-89 -160h-149l413 700h134l144 -700h-133zM467 273l-51 280l-156 -280h207z" />
    <glyph glyph-name="B" unicode="B" horiz-adv-x="628" 
d="M587 218q0 -106 -75 -162t-193 -56h-298l136 700h268q86 0 135.5 -42.5t49.5 -118.5q0 -61 -36 -105t-103 -62v-2q116 -26 116 -152zM262 582l-33 -168h136q46 0 78 25t32 66q0 35 -22.5 56t-66.5 21h-124zM421 146q34 28 34 71q0 41 -26.5 64t-80.5 23h-141l-36 -186
h153q63 0 97 28z" />
    <glyph glyph-name="C" unicode="C" horiz-adv-x="688" 
d="M215.5 27q-77.5 42 -119.5 118t-42 177q0 110 51 200t145 141.5t216 51.5q148 0 254 -76l-78 -111q-41 27 -83.5 42.5t-96.5 15.5q-82 0 -142.5 -35t-93 -94.5t-32.5 -133.5q0 -96 56 -152.5t150 -56.5q85 0 174 53l61 -111q-115 -71 -241 -71q-101 0 -178.5 42z" />
    <glyph glyph-name="D" unicode="D" horiz-adv-x="692" 
d="M157 700h212q93 0 165 -38t112 -108.5t40 -164.5q0 -114 -53.5 -202.5t-152.5 -137.5t-230 -49h-229zM269 118q81 0 144.5 33.5t99.5 94.5t36 141q0 92 -51.5 143.5t-139.5 51.5h-96l-90 -464h97z" />
    <glyph glyph-name="E" unicode="E" horiz-adv-x="524" 
d="M262 580l-27 -140h261l-23 -118h-261l-40 -202h291l-23 -120h-419l136 700h415l-23 -120h-287z" />
    <glyph glyph-name="F" unicode="F" horiz-adv-x="503" 
d="M262 579l-33 -171h266l-23 -118h-266l-57 -290h-128l136 700h424l-23 -121h-296z" />
    <glyph glyph-name="G" unicode="G" horiz-adv-x="786" 
d="M791 393l-8 -52q-23 -162 -115.5 -258.5t-256.5 -96.5q-106 0 -187 41t-125 117t-44 178q0 113 51.5 202t144 139.5t211.5 50.5q89 0 164 -26.5t129 -73.5l-91 -103q-88 75 -205 75q-83 0 -143 -36t-91 -96.5t-31 -132.5q0 -98 59.5 -152.5t162.5 -54.5q91 0 144 44
t69 118h-202l27 117h337z" />
    <glyph glyph-name="H" unicode="H" horiz-adv-x="719" 
d="M744 700l-136 -700h-128l60 307h-331l-60 -307h-128l136 700h128l-53 -272h331l53 272h128z" />
    <glyph glyph-name="I" unicode="I" horiz-adv-x="261" 
d="M157 700h129l-136 -700h-129z" />
    <glyph glyph-name="J" unicode="J" horiz-adv-x="297" 
d="M-5 118h30q27 0 44 13.5t24 46.5l102 522h127l-105 -544q-16 -84 -63.5 -122t-130.5 -38h-50z" />
    <glyph glyph-name="K" unicode="K" horiz-adv-x="672" 
d="M352 359l272 -359h-168l-240 345l-67 -345h-128l136 700h128l-60 -311l317 311h181z" />
    <glyph glyph-name="L" unicode="L" horiz-adv-x="488" 
d="M157 700h128l-112 -579h291l-23 -121h-420z" />
    <glyph glyph-name="M" unicode="M" horiz-adv-x="885" 
d="M254 700h103l88 -406h2l237 406h103l50 -700h-127l-28 460h-2l-213 -355h-96l-85 352h-2l-183 -457h-143z" />
    <glyph glyph-name="N" unicode="N" horiz-adv-x="716" 
d="M157 700h118l243 -489h2l93 489h128l-136 -700h-119l-242 489h-1l-94 -489h-128z" />
    <glyph glyph-name="O" unicode="O" horiz-adv-x="814" 
d="M221 26q-79 41 -123 116t-44 175q0 110 51 201t143 144t210 53q102 0 181 -41t123.5 -116t44.5 -175q0 -110 -51 -201t-143.5 -144t-210.5 -53q-102 0 -181 41zM549.5 150q59.5 37 90 99t30.5 135q0 63 -28.5 109t-78 70t-111.5 24q-82 0 -141.5 -37t-90 -99t-30.5 -135
q0 -63 28.5 -109t78 -70t111.5 -24q82 0 141.5 37z" />
    <glyph glyph-name="P" unicode="P" horiz-adv-x="568" 
d="M541 644q59 -56 59 -144q0 -69 -34 -123.5t-100.5 -86t-161.5 -31.5h-105l-50 -259h-128l136 700h212q113 0 172 -56zM425 407.5q37 30.5 37 84.5q0 46 -29 68t-79 22h-92l-40 -205h103q63 0 100 30.5z" />
    <glyph glyph-name="Q" unicode="Q" horiz-adv-x="823" 
d="M779 232q-28 -71 -79 -125l104 -113h-153l-40 43q-93 -52 -209 -52q-102 0 -181 41t-123 116t-44 175q0 110 51 201t143 144t210 53q102 0 181 -41t123.5 -116t44.5 -175q0 -80 -28 -151zM522 136l-128 139h151l65 -71q30 36 45 82.5t15 97.5q0 63 -28.5 109t-78 70
t-111.5 24q-82 0 -141.5 -37t-90 -99t-30.5 -135q0 -63 28.5 -109t78 -70t111.5 -24q63 0 114 23z" />
    <glyph glyph-name="R" unicode="R" horiz-adv-x="604" 
d="M550.5 360.5q-54.5 -60.5 -148.5 -77.5l154 -283h-147l-140 278h-66l-54 -278h-128l136 700h228q105 0 162.5 -51.5t57.5 -141.5q0 -86 -54.5 -146.5zM225 391h109q61 0 96.5 27.5t35.5 76.5q0 87 -109 87h-95z" />
    <glyph glyph-name="S" unicode="S" horiz-adv-x="517" 
d="M105 11.5q-67 26.5 -122 73.5l77 108q46 -38 94.5 -59.5t91.5 -21.5q42 0 65.5 19.5t23.5 52.5q0 20 -11 40t-41 47l-101 92q-82 74 -82 168q0 83 55.5 133.5t153.5 50.5q107 0 219 -69l-72 -113q-37 25 -76 40.5t-73 15.5q-36 0 -53 -16.5t-17 -40.5q0 -20 12 -37.5
t40 -42.5l99 -89q47 -43 67 -84.5t20 -89.5q0 -98 -61.5 -151t-167.5 -53q-74 0 -141 26.5z" />
    <glyph glyph-name="T" unicode="T" horiz-adv-x="526" 
d="M586 579h-192l-112 -579h-128l112 579h-190l23 121h510z" />
    <glyph glyph-name="U" unicode="U" horiz-adv-x="691" 
d="M643 276q-27 -137 -107.5 -213.5t-220.5 -76.5q-123 0 -189 60t-66 169q0 39 9 84l78 401h136l-79 -407q-6 -28 -6 -51q0 -61 34.5 -93.5t96.5 -32.5q74 0 119.5 46t60.5 122l81 416h136z" />
    <glyph glyph-name="V" unicode="V" horiz-adv-x="654" 
d="M94 700h140l72 -528h2l275 528h159l-395 -700h-129z" />
    <glyph glyph-name="W" unicode="W" horiz-adv-x="1039" 
d="M752 0h-119l-61 490h-2l-251 -490h-118l-91 700h141l43 -493h2l249 493h119l60 -493h2l232 493h153z" />
    <glyph glyph-name="X" unicode="X" horiz-adv-x="669" 
d="M444 362l175 -362h-143l-124 263l-224 -263h-167l328 377l-158 323h143l106 -226l193 226h166z" />
    <glyph glyph-name="Y" unicode="Y" horiz-adv-x="597" 
d="M369 267l-52 -267h-128l52 267l-150 433h140l87 -307h2l209 307h159z" />
    <glyph glyph-name="Z" unicode="Z" horiz-adv-x="556" 
d="M590 580l-429 -460h352l-23 -120h-514l23 120l430 460h-312l24 120h472z" />
    <glyph glyph-name="bracketleft" unicode="[" horiz-adv-x="348" 
d="M421 661h-133l-151 -779h132l-18 -97h-245l190 974h244z" />
    <glyph glyph-name="backslash" unicode="\" horiz-adv-x="616" 
d="M129 739l92 35l307 -841l-93 -34z" />
    <glyph glyph-name="bracketright" unicode="]" horiz-adv-x="348" 
d="M-58 -117h133l151 779h-132l18 97h245l-190 -974h-244z" />
    <glyph glyph-name="asciicircum" unicode="^" 
d="M532 393h-90l-111 254l-112 -254h-90l144 322h115z" />
    <glyph glyph-name="underscore" unicode="_" horiz-adv-x="533" 
d="M-38 -15h513l-19 -97h-513z" />
    <glyph glyph-name="grave" unicode="`" horiz-adv-x="339" 
d="M352 553h-86l-123 154h136z" />
    <glyph glyph-name="a" unicode="a" horiz-adv-x="590" 
d="M123 12.5q-46 27.5 -71 78t-25 116.5q0 77 32 139t88.5 96.5t127.5 34.5q59 0 102.5 -25t64.5 -71h3l15 81h123l-90 -462h-122l12 63h-2q-61 -78 -153 -78q-59 0 -105 27.5zM379 140q40 41 40 104q0 54 -33 86.5t-88 32.5q-61 0 -101 -41.5t-40 -105.5q0 -53 33 -85
t88 -32q61 0 101 41z" />
    <glyph glyph-name="b" unicode="b" horiz-adv-x="594" 
d="M215.5 10q-41.5 25 -63.5 70h-2l-15 -80h-123l136 700h123l-58 -297h2q29 35 68.5 54.5t86.5 19.5q55 0 99.5 -24t71.5 -73.5t27 -121.5q0 -76 -31.5 -138.5t-89 -98.5t-131.5 -36q-59 0 -100.5 25zM370.5 120q32.5 21 50 55t17.5 73q0 54 -32.5 84.5t-85.5 30.5
q-44 0 -77 -21t-50 -55t-17 -73q0 -54 32.5 -84.5t85.5 -30.5q44 0 76.5 21z" />
    <glyph glyph-name="c" unicode="c" horiz-adv-x="477" 
d="M145.5 13q-54.5 28 -85.5 80.5t-31 123.5q0 75 33 134t95 92.5t147 33.5q103 0 188 -57l-66 -100q-63 43 -127 43t-103 -39.5t-39 -100.5q0 -55 34 -89.5t88 -34.5q49 0 104 29l44 -103q-39 -21 -76.5 -30.5t-80.5 -9.5q-70 0 -124.5 28z" />
    <glyph glyph-name="d" unicode="d" horiz-adv-x="595" 
d="M629 700l-136 -700h-122l12 63h-2q-61 -78 -153 -78q-59 0 -105 27.5t-71 78t-25 116.5q0 77 32 139t88.5 96.5t127.5 34.5q59 0 102.5 -25t64.5 -71h3l61 319h123zM379 140q40 41 40 104q0 54 -33 86.5t-88 32.5q-61 0 -101 -41.5t-40 -105.5q0 -53 33 -85t88 -32
q61 0 101 41z" />
    <glyph glyph-name="e" unicode="e" horiz-adv-x="533" 
d="M501 205h-356q6 -111 119 -111q83 0 155 58l52 -94q-96 -72 -211 -72q-108 0 -170.5 58.5t-62.5 160.5q0 74 32.5 136t93.5 99t145 37q99 0 156 -50.5t57 -141.5q0 -31 -10 -80zM391 297q0 40 -26 62.5t-72 22.5q-49 0 -84.5 -25.5t-52.5 -70.5h234z" />
    <glyph glyph-name="f" unicode="f" horiz-adv-x="333" 
d="M406 710l-22 -115h-9q-43 0 -67.5 -19.5t-33.5 -67.5l-9 -46h93l-20 -103h-93l-70 -359h-123l70 359h-78l20 103h78l12 62q17 93 73 139.5t154 46.5h25z" />
    <glyph glyph-name="g" unicode="g" horiz-adv-x="590" 
d="M583 462l-87 -450q-16 -83 -46.5 -132.5t-80.5 -72t-126 -22.5q-109 0 -213 40l42 110q89 -37 171 -37q58 0 87.5 25t41.5 83l11 57h-2q-61 -78 -153 -78q-59 0 -105 27.5t-71 78t-25 116.5q0 77 32 139t88.5 96.5t127.5 34.5q59 0 102.5 -25t64.5 -71h3l15 81h123z
M379 140q40 41 40 104q0 54 -33 86.5t-88 32.5q-61 0 -101 -41.5t-40 -105.5q0 -53 33 -85t88 -32q61 0 101 41z" />
    <glyph glyph-name="h" unicode="h" horiz-adv-x="554" 
d="M147 700h123l-59 -304h2q62 81 157 81q66 0 106.5 -37t40.5 -115q0 -30 -8 -73l-49 -252h-123l48 245q4 19 4 38q0 40 -21 61t-58 21q-50 0 -84 -34t-48 -105l-44 -226h-123z" />
    <glyph glyph-name="i" unicode="i" horiz-adv-x="236" 
d="M101 462h123l-90 -462h-123zM251 559h-140l26 135h140z" />
    <glyph glyph-name="j" unicode="j" horiz-adv-x="233" 
d="M-60 -90q29 0 44.5 14t20.5 43l96 495h124l-100 -512q-15 -80 -63 -116.5t-127 -36.5h-47l22 113h30zM251 559h-140l26 135h140z" />
    <glyph glyph-name="k" unicode="k" horiz-adv-x="514" 
d="M301 241l163 -241h-151l-136 220l-43 -220h-123l136 700h123l-83 -428l182 190h162z" />
    <glyph glyph-name="l" unicode="l" horiz-adv-x="236" 
d="M147 700h123l-136 -700h-123z" />
    <glyph glyph-name="m" unicode="m" horiz-adv-x="824" 
d="M99 462h121l-14 -70h2q52 85 151 85q52 0 86.5 -25t44.5 -71h2q57 96 158 96q61 0 100 -36t39 -111q0 -31 -11 -82l-49 -248h-123l47 243q6 24 6 45q0 78 -72 78q-44 0 -72 -31.5t-41 -99.5l-45 -235h-121l48 241q6 27 6 48q0 77 -72 77q-89 0 -114 -132l-45 -234h-122z
" />
    <glyph glyph-name="n" unicode="n" horiz-adv-x="551" 
d="M99 462h121l-14 -70h2q31 43 70.5 64t90.5 21q68 0 106.5 -38.5t38.5 -110.5q0 -40 -8 -81l-49 -247h-123l46 235q5 28 5 53q0 81 -82 81q-51 0 -82 -33.5t-46 -109.5l-44 -226h-122z" />
    <glyph glyph-name="o" unicode="o" horiz-adv-x="565" 
d="M90.5 43q-64.5 58 -64.5 162q0 77 35 139t98.5 97.5t144.5 35.5q106 0 170.5 -58t64.5 -162q0 -77 -35 -139t-98.5 -97.5t-144.5 -35.5q-106 0 -170.5 58zM373.5 143.5q39.5 42.5 39.5 105.5q0 54 -32.5 83t-85.5 29q-64 0 -103.5 -42.5t-39.5 -105.5q0 -54 32.5 -83
t85.5 -29q64 0 103.5 42.5z" />
    <glyph glyph-name="p" unicode="p" horiz-adv-x="592" 
d="M99 462h123l-12 -59h3q29 35 68.5 54.5t86.5 19.5q55 0 99.5 -25t71 -74.5t26.5 -119.5q0 -77 -32 -139.5t-89 -98t-130 -35.5q-59 0 -101 24.5t-63 70.5h-3l-54 -281h-123zM365.5 119q32.5 20 51 54t18.5 75q0 54 -32 84.5t-85 30.5q-42 0 -74.5 -20t-51 -54t-18.5 -75
q0 -54 32 -84.5t85 -30.5q42 0 74.5 20z" />
    <glyph glyph-name="q" unicode="q" horiz-adv-x="590" 
d="M583 462l-129 -662h-122l51 263h-2q-61 -78 -153 -78q-59 0 -105 27.5t-71 78t-25 116.5q0 77 32 139t88.5 96.5t127.5 34.5q59 0 102.5 -25t64.5 -71h3l15 81h123zM379 140q40 41 40 104q0 54 -33 86.5t-88 32.5q-61 0 -101 -41.5t-40 -105.5q0 -53 33 -85t88 -32
q61 0 101 41z" />
    <glyph glyph-name="r" unicode="r" horiz-adv-x="351" 
d="M99 462h121l-19 -96h2q46 110 165 110q12 0 18 -1l-27 -136q-6 1 -24 1q-71 0 -111 -35t-56 -116l-37 -189h-122z" />
    <glyph glyph-name="s" unicode="s" horiz-adv-x="407" 
d="M192 90q23 0 36 9t13 24q0 12 -8 22t-26 21l-64 40q-41 26 -61.5 58t-20.5 74q0 64 43.5 101.5t119.5 37.5q91 0 183 -52l-52 -94q-67 42 -124 42q-45 0 -45 -32q0 -12 9 -22t31 -24l59 -36q43 -26 63 -55.5t20 -74.5q0 -69 -46 -106.5t-129 -37.5q-120 0 -213 76l63 91
q84 -62 149 -62z" />
    <glyph glyph-name="t" unicode="t" horiz-adv-x="337" 
d="M206 165q-2 -14 -2 -19q0 -18 9.5 -25.5t32.5 -7.5h20l-23 -114h-48q-57 0 -88.5 26.5t-31.5 78.5q0 22 4 42l42 213h-83l20 103h83l36 185h123l-36 -185h100l-20 -103h-100z" />
    <glyph glyph-name="u" unicode="u" horiz-adv-x="540" 
d="M72 22.5q-40 37.5 -40 108.5q0 23 8 71l52 260h126l-48 -244q-5 -28 -5 -46q0 -38 20 -56t55 -18q96 0 124 142l43 222h124l-90 -462h-121l13 72h-2q-29 -45 -65 -66t-86 -21q-68 0 -108 37.5z" />
    <glyph glyph-name="v" unicode="v" horiz-adv-x="507" 
d="M547 462l-279 -462h-120l-98 462h132l47 -320l171 320h147z" />
    <glyph glyph-name="w" unicode="w" horiz-adv-x="774" 
d="M811 462l-252 -462h-109l-47 303l-165 -303h-108l-71 462h122l31 -302l159 302h116l41 -303l150 303h133z" />
    <glyph glyph-name="x" unicode="x" horiz-adv-x="511" 
d="M331 238l130 -238h-130l-82 150l-140 -150h-149l233 250l-116 212h131l68 -124l115 124h149z" />
    <glyph glyph-name="y" unicode="y" horiz-adv-x="507" 
d="M547 462l-406 -663h-131l158 253l-118 410h132l65 -278l164 278h136z" />
    <glyph glyph-name="z" unicode="z" horiz-adv-x="443" 
d="M432 364l-282 -256h249l-21 -108h-402l19 99l281 255h-218l21 108h372z" />
    <glyph glyph-name="braceleft" unicode="{" horiz-adv-x="408" 
d="M479 650h-36q-45 0 -71 -20t-38 -79l-24 -125q-13 -64 -48.5 -98.5t-104.5 -45.5v-2q52 -11 75 -37t23 -73q0 -25 -6 -57l-23 -118q-4 -20 -4 -38q0 -39 19.5 -53.5t53.5 -14.5h36l-20 -104h-39q-72 0 -117.5 34.5t-45.5 110.5q0 26 6 59l24 121q4 20 4 31q0 42 -28 62.5
t-81 23.5l22 114q129 5 146 92l26 137q18 98 78.5 141t143.5 43h49z" />
    <glyph glyph-name="bar" unicode="|" horiz-adv-x="318" 
d="M207 727h97l-184 -942h-97z" />
    <glyph glyph-name="braceright" unicode="}" horiz-adv-x="408" 
d="M-56 -111h36q45 0 71 20t38 79l24 125q13 64 48.5 98.5t104.5 45.5v2q-52 11 -75 37t-23 73q0 26 6 57l23 118q4 20 4 38q0 39 -19.5 53.5t-53.5 14.5h-36l20 104h39q72 0 117.5 -34.5t45.5 -110.5q0 -26 -6 -59l-24 -121q-4 -20 -4 -31q0 -42 28 -62.5t81 -23.5
l-22 -114q-129 -5 -146 -92l-26 -137q-18 -98 -78.5 -141t-143.5 -43h-49z" />
    <glyph glyph-name="asciitilde" unicode="~" 
d="M271 381.5q26 -8.5 60 -25.5q28 -13 48 -20t43 -7q33 0 57 13t60 42l53 -84q-45 -38 -87 -56.5t-87 -18.5q-33 0 -58 8t-58 24q-31 15 -50.5 21.5t-44.5 6.5q-34 0 -57.5 -13t-61.5 -43l-52 84q47 39 88 58t87 19q34 0 60 -8.5z" />
    <glyph glyph-name="exclamdown" unicode="&#xa1;" horiz-adv-x="325" 
d="M255 361h-139l27 139h138zM128 280h86l-62 -480h-145z" />
    <glyph glyph-name="cent" unicode="&#xa2;" horiz-adv-x="462" 
d="M322 357l-49 -252h5q53 0 135 31l-25 -127q-61 -24 -127 -24h-11l-10 -49h-28l10 51q-86 12 -137 70t-51 152q0 78 35.5 139t100 95t147.5 34l11 54h28l-11 -55q36 -3 69.5 -11t56.5 -18l-27 -120q-71 29 -122 30zM187 142.5q22 -26.5 59 -34.5l48 248q-60 -7 -94.5 -45
t-34.5 -98q0 -44 22 -70.5z" />
    <glyph glyph-name="sterling" unicode="&#xa3;" horiz-adv-x="539" 
d="M439 485v9q0 77 -85 77q-48 0 -74 -25t-26 -68q0 -22 7 -46t20 -57h167l-6 -30h-150q17 -51 17 -79q0 -51 -37.5 -87t-102.5 -63l1 -3h299l-22 -113h-434l18 92q65 33 106.5 75.5t41.5 93.5q0 19 -5.5 38.5t-16.5 45.5h-95l6 30h78q-21 57 -21 104q0 94 61.5 152.5
t176.5 58.5q94 0 149.5 -41.5t55.5 -126.5q0 -13 -2 -37h-127z" />
    <glyph glyph-name="currency" unicode="&#xa4;" 
d="M84 111l56 56q-58 64 -58 157q0 45 15.5 85.5t43.5 70.5l-57 57l20 20l57 -57q31 27 71 41.5t85 14.5t85 -14.5t71 -41.5l57 57l20 -20l-56 -57q58 -64 58 -156q0 -46 -15 -86.5t-43 -70.5l56 -57l-20 -19l-57 56q-64 -55 -156 -55q-46 0 -86 14.5t-71 41.5l-57 -57z
M403 236q33 34 33 88q0 53 -33 87.5t-86 34.5t-86 -34.5t-33 -87.5q0 -54 33 -88t86 -34t86 34z" />
    <glyph glyph-name="yen" unicode="&#xa5;" horiz-adv-x="609" 
d="M437 337h115l-6 -30h-130l-39 -56h158l-6 -30h-168l-43 -221h-120l43 221h-166l6 30h159l-17 56h-131l6 30h115l-104 338h135l78 -312l198 312h152z" />
    <glyph glyph-name="brokenbar" unicode="&#xa6;" horiz-adv-x="318" 
d="M228 339h-97l76 388h97zM121 -215h-97l77 396h97z" />
    <glyph glyph-name="section" unicode="&#xa7;" horiz-adv-x="574" 
d="M302.5 506.5q22.5 -17.5 71.5 -41.5t80 -45t53.5 -56t22.5 -86q0 -118 -130 -176q31 -39 31 -94q0 -72 -49 -119.5t-154 -47.5q-60 0 -108 16t-93 43l65 95q67 -45 137 -45q41 0 62.5 15.5t21.5 39.5q0 27 -23 45.5t-71 43.5q-49 25 -79.5 46t-53 56.5t-22.5 86.5
q0 116 129 172q-31 39 -31 94q0 72 50 119t153 47q106 0 202 -58l-68 -96q-65 45 -136 45q-40 0 -61.5 -15.5t-21.5 -39.5q0 -27 22.5 -44.5zM410 267q0 36 -25.5 58.5t-78.5 49.5l-33 18q-38 -17 -64 -42.5t-26 -61.5t26 -58.5t80 -49.5q9 -5 17 -9t15 -8q89 40 89 103z
" />
    <glyph glyph-name="dieresis" unicode="&#xa8;" horiz-adv-x="400" 
d="M139 690h112l-25 -127h-111zM327 690h112l-25 -127h-111z" />
    <glyph glyph-name="copyright" unicode="&#xa9;" horiz-adv-x="843" 
d="M260.5 32.5q-83.5 47.5 -131.5 130.5t-48 187t48 187t131.5 130.5t184.5 47.5t184.5 -47.5t131.5 -130.5t48 -187t-48 -187t-131.5 -130.5t-184.5 -47.5t-184.5 47.5zM595 89.5q67 38.5 105.5 106.5t38.5 154t-38.5 154t-105.5 106.5t-150 38.5t-150 -38.5t-105.5 -106.5
t-38.5 -154t38.5 -154t105.5 -106.5t150 -38.5t150 38.5zM331.5 157.5q-53.5 29.5 -83.5 81t-30 116.5q0 64 30.5 116t83.5 81.5t119 29.5q82 0 151 -48l-43 -75q-56 35 -111 35q-60 0 -97.5 -38.5t-37.5 -100.5t37.5 -100.5t97.5 -38.5q56 0 111 34l43 -75
q-67 -47 -151 -47q-66 0 -119.5 29.5z" />
    <glyph glyph-name="ordfeminine" unicode="&#xaa;" horiz-adv-x="430" 
d="M128.5 377q-38.5 39 -38.5 108q0 49 20.5 90t59 65t89.5 24q38 0 67 -17t43 -48h1l10 55h96l-59 -306h-96l9 44h-1q-39 -54 -105 -54q-57 0 -95.5 39zM328 451q23 24 23 57q0 32 -20.5 49.5t-53.5 17.5q-40 0 -62.5 -24t-22.5 -57q0 -32 20.5 -49.5t53.5 -17.5
q39 0 62 24z" />
    <glyph glyph-name="guillemotleft" unicode="&#xab;" horiz-adv-x="518" 
d="M19 236l187 166h134l-200 -175l118 -158h-117zM219 236l187 166h134l-200 -175l118 -158h-117z" />
    <glyph glyph-name="logicalnot" unicode="&#xac;" 
d="M542 432v-265h-53v211h-404v54h457z" />
    <glyph glyph-name="uni00AD" unicode="&#xad;" horiz-adv-x="357" 
d="M61 322h271l-22 -114h-272z" />
    <glyph glyph-name="registered" unicode="&#xae;" horiz-adv-x="579" 
d="M458.5 685q53.5 -30 83.5 -83.5t30 -122.5t-30 -123t-83.5 -84t-121.5 -30q-67 0 -120.5 30t-83.5 84t-30 123t30 122.5t83.5 83.5t120.5 30q68 0 121.5 -30zM433.5 312q42.5 24 66.5 67.5t24 99.5t-24 99t-66.5 67t-96.5 24t-96 -24t-66 -67t-24 -99t24 -99.5t66 -67.5
t96 -24t96.5 24zM422 490.5q-16 -20.5 -43 -28.5l68 -105h-52l-62 102h-31v-102h-44v260h96q37 0 60.5 -21t23.5 -56q0 -29 -16 -49.5zM302 500h46q21 0 32 10.5t11 27.5q0 18 -11 28t-32 10h-46v-76z" />
    <glyph glyph-name="macron" unicode="&#xaf;" horiz-adv-x="406" 
d="M425 582h-307l17 85h306z" />
    <glyph glyph-name="degree" unicode="&#xb0;" horiz-adv-x="367" 
d="M346 651q40 -39 40 -101t-40 -101.5t-101 -39.5t-100.5 39.5t-39.5 101.5t39.5 101t100.5 39t101 -39zM185.5 610.5q-23.5 -23.5 -23.5 -60.5q0 -38 23.5 -61.5t59.5 -23.5t59.5 23.5t23.5 61.5q0 37 -23.5 60.5t-59.5 23.5t-59.5 -23.5z" />
    <glyph glyph-name="plusminus" unicode="&#xb1;" 
d="M331 389h210v-56h-210v-133h-58v133h-209v56h209v133h58v-133zM541 99h-477v54h477v-54z" />
    <glyph glyph-name="uni00B2" unicode="&#xb2;" horiz-adv-x="412" 
d="M413 770.5q42 -33.5 42 -93.5q0 -47 -28.5 -84t-85.5 -75l-102 -69h174l-20 -101h-331l18 91l182 133q45 32 63 51.5t18 39.5q0 21 -15 31.5t-41 10.5q-27 0 -45 -13.5t-22 -39.5h-108q25 152 183 152q76 0 118 -33.5z" />
    <glyph glyph-name="uni00B3" unicode="&#xb3;" horiz-adv-x="400" 
d="M115 367q-45 29 -45 86q0 16 3 32h105l-1 -10q0 -19 16 -28.5t45 -9.5q37 0 56 14.5t19 39.5t-20.5 36t-66.5 11l14 76q48 1 69 14.5t21 38.5q0 39 -52 39q-27 0 -44 -10.5t-19 -29.5h-104q7 64 52 100.5t123 36.5q69 0 112 -29.5t43 -84.5q0 -42 -26.5 -68.5
t-73.5 -34.5v-2q78 -14 78 -95q0 -63 -45 -107t-142 -44q-72 0 -117 29z" />
    <glyph glyph-name="acute" unicode="&#xb4;" horiz-adv-x="355" 
d="M251 707h147l-186 -154h-99z" />
    <glyph glyph-name="uni00B5" unicode="&#xb5;" 
d="M564 462l-89 -462h-121l13 72h-2q-30 -45 -66 -66t-85 -21q-38 0 -64 15l-39 -200h-115l130 662h125l-47 -244q-5 -28 -5 -46q0 -38 20 -56t55 -18q96 0 124 142l43 222h123z" />
    <glyph glyph-name="paragraph" unicode="&#xb6;" horiz-adv-x="644" 
d="M666 608h-62l-139 -714h-92l139 714h-98l-138 -714h-92l80 416q-45 0 -81 22t-57 62.5t-21 93.5q0 62 29.5 110t85 75t131.5 27h334z" />
    <glyph glyph-name="periodcentered" unicode="&#xb7;" horiz-adv-x="235" 
d="M93 462h139l-27 -139h-138z" />
    <glyph glyph-name="cedilla" unicode="&#xb8;" horiz-adv-x="264" 
d="M-29 -178q45 19 64.5 31t19.5 26q0 12 -13 19t-41 15l72 122h46l-45 -71q35 -11 54.5 -25.5t19.5 -41.5q0 -36 -42.5 -60.5t-120.5 -48.5z" />
    <glyph glyph-name="uni00B9" unicode="&#xb9;" horiz-adv-x="303" 
d="M226 348h-111l66 341h-21l20 105h132z" />
    <glyph glyph-name="ordmasculine" unicode="&#xba;" horiz-adv-x="427" 
d="M399 623.5q44 -40.5 44 -107.5q0 -49 -23.5 -89.5t-67 -64.5t-100.5 -24q-75 0 -119 40.5t-44 107.5q0 49 23.5 89.5t67 64.5t100.5 24q75 0 119 -40.5zM211.5 550q-23.5 -25 -23.5 -59q0 -30 19 -47t50 -17q40 0 63 25t23 59q0 30 -18.5 47t-49.5 17q-40 0 -63.5 -25z
" />
    <glyph glyph-name="guillemotright" unicode="&#xbb;" horiz-adv-x="522" 
d="M299 231l-187 -166h-134l200 175l-118 158h117zM504 231l-187 -166h-134l200 175l-118 158h117z" />
    <glyph glyph-name="onequarter" unicode="&#xbc;" horiz-adv-x="753" 
d="M186 607h-32l13 68h101l-75 -386h-68zM576 675h67l-499 -675h-67zM657 132h44l-13 -63h-44l-13 -69h-67l13 69h-202l11 59l242 258h78zM589 132l33 169h-2l-157 -169h126z" />
    <glyph glyph-name="onehalf" unicode="&#xbd;" horiz-adv-x="781" 
d="M186 607h-32l13 68h101l-75 -386h-68zM576 675h67l-499 -675h-67zM420 57l167 134q38 30 55.5 49t17.5 44q0 22 -15 34.5t-42 12.5q-29 0 -47.5 -14.5t-23.5 -42.5h-68q6 54 43 87.5t100 33.5q54 0 89.5 -26.5t35.5 -77.5q0 -41 -23 -71.5t-75 -70.5l-108 -83h172
l-13 -66h-276z" />
    <glyph glyph-name="threequarters" unicode="&#xbe;" horiz-adv-x="852" 
d="M101 305.5q-37 25.5 -37 72.5q0 9 2 23h68v-7q0 -51 72 -51q39 0 57 17.5t18 42.5q0 30 -22 43.5t-75 12.5l13 61q51 0 76 14t25 44q0 24 -15.5 34t-39.5 10q-29 0 -47 -13.5t-22 -36.5h-67q7 55 42.5 83.5t96.5 28.5q56 0 90 -22.5t34 -70.5q0 -38 -23.5 -64t-66.5 -34
v-1q34 -5 53.5 -27.5t19.5 -60.5q0 -51 -36 -87.5t-114 -36.5q-65 0 -102 25.5zM675 675h67l-499 -675h-67zM756 132h44l-13 -63h-44l-13 -69h-67l13 69h-202l11 59l242 258h78zM688 132l33 169h-2l-157 -169h126z" />
    <glyph glyph-name="questiondown" unicode="&#xbf;" horiz-adv-x="430" 
d="M331 360h-139l27 139h138zM301 250q-13 -62 -46 -103.5t-87 -79.5q-37 -26 -56 -50.5t-19 -53.5q0 -28 18.5 -44.5t56.5 -16.5q42 0 70.5 22.5t35.5 68.5h123q-15 -106 -77 -157.5t-161 -51.5q-93 0 -143 43.5t-50 120.5q0 55 28.5 98.5t79.5 81.5q38 28 56.5 44t32 38
t20.5 52l3 17h121z" />
    <glyph glyph-name="Agrave" unicode="&#xc0;" horiz-adv-x="697" 
d="M487 160h-291l-89 -160h-149l413 700h134l144 -700h-133zM467 273l-51 280l-156 -280h207zM491 743h-82l-135 120h140z" />
    <glyph glyph-name="Aacute" unicode="&#xc1;" horiz-adv-x="697" 
d="M487 160h-291l-89 -160h-149l413 700h134l144 -700h-133zM467 273l-51 280l-156 -280h207zM520 863h145l-182 -120h-90z" />
    <glyph glyph-name="Acircumflex" unicode="&#xc2;" horiz-adv-x="697" 
d="M487 160h-291l-89 -160h-149l413 700h134l144 -700h-133zM467 273l-51 280l-156 -280h207zM405 863h122l94 -120h-103l-56 70l-89 -70h-116z" />
    <glyph glyph-name="Atilde" unicode="&#xc3;" horiz-adv-x="697" 
d="M487 160h-291l-89 -160h-149l413 700h134l144 -700h-133zM467 273l-51 280l-156 -280h207zM492.5 742.5q-20.5 6.5 -46.5 17.5q-25 10 -39.5 15t-29.5 5q-18 0 -32.5 -9.5t-29.5 -29.5l-41 13q22 51 52 82t75 31q22 0 43 -6.5t46 -17.5q26 -11 40 -15.5t28 -4.5
q18 0 32.5 9t30.5 30l41 -13q-22 -51 -52.5 -82t-75.5 -31q-21 0 -41.5 6.5z" />
    <glyph glyph-name="Adieresis" unicode="&#xc4;" horiz-adv-x="697" 
d="M487 160h-291l-89 -160h-149l413 700h134l144 -700h-133zM467 273l-51 280l-156 -280h207zM302 852h119l-21 -109h-119zM510 852h118l-20 -109h-119z" />
    <glyph glyph-name="Aring" unicode="&#xc5;" horiz-adv-x="697" 
d="M487 160h-291l-89 -160h-149l398 674q-29 29 -29 75q0 55 37.5 93.5t96.5 38.5q49 0 77.5 -28.5t28.5 -74.5q0 -33 -15 -61.5t-41 -46.5l138 -670h-133zM402 804q-19 -23 -19 -51q0 -24 14.5 -38.5t40.5 -14.5q35 0 54 23t19 51q0 24 -14 38.5t-41 14.5q-35 0 -54 -23z
M467 273l-51 280l-156 -280h207z" />
    <glyph glyph-name="AE" unicode="&#xc6;" horiz-adv-x="969" 
d="M729 582l-28 -142h239l-22 -118h-239l-40 -204h269l-23 -118h-393l31 159h-265l-131 -159h-169l594 700h465l-23 -118h-265zM545 275l60 306l-252 -306h192z" />
    <glyph glyph-name="Ccedilla" unicode="&#xc7;" horiz-adv-x="688" 
d="M319.5 551q-60.5 -35 -93 -94.5t-32.5 -133.5q0 -96 56 -152.5t150 -56.5q85 0 174 53l61 -111q-115 -71 -241 -71h-9l-13 -21q35 -11 54.5 -25.5t19.5 -41.5q0 -36 -42.5 -60.5t-120.5 -48.5l-14 34q46 19 65 31t19 26q0 12 -13 19t-41 15l44 75q-87 10 -152.5 54
t-101 116t-35.5 164q0 110 51 200t145 141.5t216 51.5q148 0 254 -76l-78 -111q-41 27 -83.5 42.5t-96.5 15.5q-82 0 -142.5 -35z" />
    <glyph glyph-name="Egrave" unicode="&#xc8;" horiz-adv-x="524" 
d="M262 580l-27 -140h261l-23 -118h-261l-40 -202h291l-23 -120h-419l136 700h415l-23 -120h-287zM428 743h-82l-135 120h140z" />
    <glyph glyph-name="Eacute" unicode="&#xc9;" horiz-adv-x="524" 
d="M262 580l-27 -140h261l-23 -118h-261l-40 -202h291l-23 -120h-419l136 700h415l-23 -120h-287zM457 863h145l-182 -120h-90z" />
    <glyph glyph-name="Ecircumflex" unicode="&#xca;" horiz-adv-x="524" 
d="M262 580l-27 -140h261l-23 -118h-261l-40 -202h291l-23 -120h-419l136 700h415l-23 -120h-287zM342 863h122l94 -120h-103l-56 70l-89 -70h-116z" />
    <glyph glyph-name="Edieresis" unicode="&#xcb;" horiz-adv-x="524" 
d="M262 580l-27 -140h261l-23 -118h-261l-40 -202h291l-23 -120h-419l136 700h415l-23 -120h-287zM239 852h119l-21 -109h-119zM447 852h118l-20 -109h-119z" />
    <glyph glyph-name="Igrave" unicode="&#xcc;" horiz-adv-x="261" 
d="M157 700h129l-136 -700h-129zM275 743h-82l-135 120h140z" />
    <glyph glyph-name="Iacute" unicode="&#xcd;" horiz-adv-x="261" 
d="M157 700h129l-136 -700h-129zM304 863h145l-182 -120h-90z" />
    <glyph glyph-name="Icircumflex" unicode="&#xce;" horiz-adv-x="261" 
d="M157 700h129l-136 -700h-129zM189 863h122l94 -120h-103l-56 70l-89 -70h-116z" />
    <glyph glyph-name="Idieresis" unicode="&#xcf;" horiz-adv-x="261" 
d="M157 700h129l-136 -700h-129zM86 852h119l-21 -109h-119zM294 852h118l-20 -109h-119z" />
    <glyph glyph-name="Eth" unicode="&#xd0;" horiz-adv-x="692" 
d="M157 700h212q93 0 165 -38t112 -108.5t40 -164.5q0 -114 -53.5 -202.5t-152.5 -137.5t-230 -49h-229zM269 118q81 0 144.5 33.5t99.5 94.5t36 141q0 92 -51.5 143.5t-139.5 51.5h-96l-90 -464h97zM176 360h29l-1 3h-29z" />
    <glyph glyph-name="Ntilde" unicode="&#xd1;" horiz-adv-x="716" 
d="M157 700h118l243 -489h2l93 489h128l-136 -700h-119l-242 489h-1l-94 -489h-128zM499.5 742.5q-20.5 6.5 -46.5 17.5q-25 10 -39.5 15t-29.5 5q-18 0 -32.5 -9.5t-29.5 -29.5l-41 13q22 51 52 82t75 31q22 0 43 -6.5t46 -17.5q26 -11 40 -15.5t28 -4.5q18 0 32.5 9
t30.5 30l41 -13q-22 -51 -52.5 -82t-75.5 -31q-21 0 -41.5 6.5z" />
    <glyph glyph-name="Ograve" unicode="&#xd2;" horiz-adv-x="814" 
d="M221 26q-79 41 -123 116t-44 175q0 110 51 201t143 144t210 53q102 0 181 -41t123.5 -116t44.5 -175q0 -110 -51 -201t-143.5 -144t-210.5 -53q-102 0 -181 41zM549.5 150q59.5 37 90 99t30.5 135q0 63 -28.5 109t-78 70t-111.5 24q-82 0 -141.5 -37t-90 -99t-30.5 -135
q0 -63 28.5 -109t78 -70t111.5 -24q82 0 141.5 37zM517 743h-82l-135 120h140z" />
    <glyph glyph-name="Oacute" unicode="&#xd3;" horiz-adv-x="814" 
d="M221 26q-79 41 -123 116t-44 175q0 110 51 201t143 144t210 53q102 0 181 -41t123.5 -116t44.5 -175q0 -110 -51 -201t-143.5 -144t-210.5 -53q-102 0 -181 41zM549.5 150q59.5 37 90 99t30.5 135q0 63 -28.5 109t-78 70t-111.5 24q-82 0 -141.5 -37t-90 -99t-30.5 -135
q0 -63 28.5 -109t78 -70t111.5 -24q82 0 141.5 37zM546 863h145l-182 -120h-90z" />
    <glyph glyph-name="Ocircumflex" unicode="&#xd4;" horiz-adv-x="814" 
d="M221 26q-79 41 -123 116t-44 175q0 110 51 201t143 144t210 53q102 0 181 -41t123.5 -116t44.5 -175q0 -110 -51 -201t-143.5 -144t-210.5 -53q-102 0 -181 41zM549.5 150q59.5 37 90 99t30.5 135q0 63 -28.5 109t-78 70t-111.5 24q-82 0 -141.5 -37t-90 -99t-30.5 -135
q0 -63 28.5 -109t78 -70t111.5 -24q82 0 141.5 37zM431 863h122l94 -120h-103l-56 70l-89 -70h-116z" />
    <glyph glyph-name="Otilde" unicode="&#xd5;" horiz-adv-x="814" 
d="M221 26q-79 41 -123 116t-44 175q0 110 51 201t143 144t210 53q102 0 181 -41t123.5 -116t44.5 -175q0 -110 -51 -201t-143.5 -144t-210.5 -53q-102 0 -181 41zM549.5 150q59.5 37 90 99t30.5 135q0 63 -28.5 109t-78 70t-111.5 24q-82 0 -141.5 -37t-90 -99t-30.5 -135
q0 -63 28.5 -109t78 -70t111.5 -24q82 0 141.5 37zM518.5 742.5q-20.5 6.5 -46.5 17.5q-25 10 -39.5 15t-29.5 5q-18 0 -32.5 -9.5t-29.5 -29.5l-41 13q22 51 52 82t75 31q22 0 43 -6.5t46 -17.5q26 -11 40 -15.5t28 -4.5q18 0 32.5 9t30.5 30l41 -13q-22 -51 -52.5 -82
t-75.5 -31q-21 0 -41.5 6.5z" />
    <glyph glyph-name="Odieresis" unicode="&#xd6;" horiz-adv-x="814" 
d="M221 26q-79 41 -123 116t-44 175q0 110 51 201t143 144t210 53q102 0 181 -41t123.5 -116t44.5 -175q0 -110 -51 -201t-143.5 -144t-210.5 -53q-102 0 -181 41zM549.5 150q59.5 37 90 99t30.5 135q0 63 -28.5 109t-78 70t-111.5 24q-82 0 -141.5 -37t-90 -99t-30.5 -135
q0 -63 28.5 -109t78 -70t111.5 -24q82 0 141.5 37zM328 852h119l-21 -109h-119zM536 852h118l-20 -109h-119z" />
    <glyph glyph-name="multiply" unicode="&#xd7;" 
d="M531 476l-178 -178l178 -178l-41 -40l-177 177l-178 -178l-42 42l178 178l-177 177l40 41l178 -178l178 178z" />
    <glyph glyph-name="Oslash" unicode="&#xd8;" horiz-adv-x="814" 
d="M782.5 517.5q24.5 -60.5 24.5 -134.5q0 -110 -51 -201t-143.5 -144t-210.5 -53q-131 0 -222 66l-62 -67l-33 29l62 66q-45 43 -69 104t-24 134q0 110 51 201t143 144t210 53q65 0 121.5 -17t100.5 -49l62 66l32 -29l-61 -65q45 -43 69.5 -103.5zM240 179l347 370
q-56 38 -135 38q-82 0 -141.5 -37t-90 -99t-30.5 -135q0 -84 50 -137zM549.5 150q59.5 37 90 99t30.5 135q0 82 -50 137l-347 -371q57 -37 135 -37q82 0 141.5 37z" />
    <glyph glyph-name="Ugrave" unicode="&#xd9;" horiz-adv-x="691" 
d="M643 276q-27 -137 -107.5 -213.5t-220.5 -76.5q-123 0 -189 60t-66 169q0 39 9 84l78 401h136l-79 -407q-6 -28 -6 -51q0 -61 34.5 -93.5t96.5 -32.5q74 0 119.5 46t60.5 122l81 416h136zM485 743h-82l-135 120h140z" />
    <glyph glyph-name="Uacute" unicode="&#xda;" horiz-adv-x="691" 
d="M643 276q-27 -137 -107.5 -213.5t-220.5 -76.5q-123 0 -189 60t-66 169q0 39 9 84l78 401h136l-79 -407q-6 -28 -6 -51q0 -61 34.5 -93.5t96.5 -32.5q74 0 119.5 46t60.5 122l81 416h136zM514 863h145l-182 -120h-90z" />
    <glyph glyph-name="Ucircumflex" unicode="&#xdb;" horiz-adv-x="691" 
d="M643 276q-27 -137 -107.5 -213.5t-220.5 -76.5q-123 0 -189 60t-66 169q0 39 9 84l78 401h136l-79 -407q-6 -28 -6 -51q0 -61 34.5 -93.5t96.5 -32.5q74 0 119.5 46t60.5 122l81 416h136zM399 863h122l94 -120h-103l-56 70l-89 -70h-116z" />
    <glyph glyph-name="Udieresis" unicode="&#xdc;" horiz-adv-x="691" 
d="M643 276q-27 -137 -107.5 -213.5t-220.5 -76.5q-123 0 -189 60t-66 169q0 39 9 84l78 401h136l-79 -407q-6 -28 -6 -51q0 -61 34.5 -93.5t96.5 -32.5q74 0 119.5 46t60.5 122l81 416h136zM296 852h119l-21 -109h-119zM504 852h118l-20 -109h-119z" />
    <glyph glyph-name="Yacute" unicode="&#xdd;" horiz-adv-x="597" 
d="M369 267l-52 -267h-128l52 267l-150 433h140l87 -307h2l209 307h159zM458 863h145l-182 -120h-90z" />
    <glyph glyph-name="Thorn" unicode="&#xde;" horiz-adv-x="591" 
d="M480 538.5q52 -26.5 77.5 -71.5t25.5 -102q0 -69 -34 -123.5t-100.5 -86t-161.5 -31.5h-114l-24 -124h-128l136 700h127l-26 -135h94q76 0 128 -26.5zM407 272q37 30 37 84q0 46 -28.5 68.5t-78.5 22.5h-102l-39 -205h112q62 0 99 30z" />
    <glyph glyph-name="germandbls" unicode="&#xdf;" horiz-adv-x="581" 
d="M551 233q0 -74 -37.5 -127.5t-104.5 -82t-155 -28.5h-69l22 110h39q92 0 135.5 31t43.5 95q0 56 -37.5 83t-124.5 27l20 98q67 0 104.5 24t37.5 72q0 70 -79 70q-93 0 -113 -103l-123 -632h-123l120 623q21 106 80 164t170 58q91 0 143 -43t52 -117q0 -63 -41.5 -105.5
t-126.5 -50.5v-2q167 -13 167 -164z" />
    <glyph glyph-name="agrave" unicode="&#xe0;" horiz-adv-x="590" 
d="M123 12.5q-46 27.5 -71 78t-25 116.5q0 77 32 139t88.5 96.5t127.5 34.5q59 0 102.5 -25t64.5 -71h3l15 81h123l-90 -462h-122l12 63h-2q-61 -78 -153 -78q-59 0 -105 27.5zM379 140q40 41 40 104q0 54 -33 86.5t-88 32.5q-61 0 -101 -41.5t-40 -105.5q0 -53 33 -85
t88 -32q61 0 101 41zM371 553h-86l-123 154h136z" />
    <glyph glyph-name="aacute" unicode="&#xe1;" horiz-adv-x="590" 
d="M123 12.5q-46 27.5 -71 78t-25 116.5q0 77 32 139t88.5 96.5t127.5 34.5q59 0 102.5 -25t64.5 -71h3l15 81h123l-90 -462h-122l12 63h-2q-61 -78 -153 -78q-59 0 -105 27.5zM379 140q40 41 40 104q0 54 -33 86.5t-88 32.5q-61 0 -101 -41.5t-40 -105.5q0 -53 33 -85
t88 -32q61 0 101 41zM431 707h147l-186 -154h-99z" />
    <glyph glyph-name="acircumflex" unicode="&#xe2;" horiz-adv-x="590" 
d="M123 12.5q-46 27.5 -71 78t-25 116.5q0 77 32 139t88.5 96.5t127.5 34.5q59 0 102.5 -25t64.5 -71h3l15 81h123l-90 -462h-122l12 63h-2q-61 -78 -153 -78q-59 0 -105 27.5zM379 140q40 41 40 104q0 54 -33 86.5t-88 32.5q-61 0 -101 -41.5t-40 -105.5q0 -53 33 -85
t88 -32q61 0 101 41zM301 707h117l93 -154h-102l-55 94l-92 -94h-115z" />
    <glyph glyph-name="atilde" unicode="&#xe3;" horiz-adv-x="590" 
d="M123 12.5q-46 27.5 -71 78t-25 116.5q0 77 32 139t88.5 96.5t127.5 34.5q59 0 102.5 -25t64.5 -71h3l15 81h123l-90 -462h-122l12 63h-2q-61 -78 -153 -78q-59 0 -105 27.5zM379 140q40 41 40 104q0 54 -33 86.5t-88 32.5q-61 0 -101 -41.5t-40 -105.5q0 -53 33 -85
t88 -32q61 0 101 41zM381 570q-21 8 -49 22q-23 12 -37 17.5t-27 5.5q-33 0 -62 -46l-46 15q23 56 54 88.5t76 32.5q24 0 46 -8t47 -22q25 -12 38 -17t26 -5q17 0 32 11.5t30 33.5l45 -15q-23 -56 -53.5 -88.5t-75.5 -32.5q-23 0 -44 8z" />
    <glyph glyph-name="adieresis" unicode="&#xe4;" horiz-adv-x="590" 
d="M123 12.5q-46 27.5 -71 78t-25 116.5q0 77 32 139t88.5 96.5t127.5 34.5q59 0 102.5 -25t64.5 -71h3l15 81h123l-90 -462h-122l12 63h-2q-61 -78 -153 -78q-59 0 -105 27.5zM379 140q40 41 40 104q0 54 -33 86.5t-88 32.5q-61 0 -101 -41.5t-40 -105.5q0 -53 33 -85
t88 -32q61 0 101 41zM214 690h112l-25 -127h-111zM402 690h112l-25 -127h-111z" />
    <glyph glyph-name="aring" unicode="&#xe5;" horiz-adv-x="590" 
d="M123 12.5q-46 27.5 -71 78t-25 116.5q0 77 32 139t88.5 96.5t127.5 34.5q59 0 102.5 -25t64.5 -71h3l15 81h123l-90 -462h-122l12 63h-2q-61 -78 -153 -78q-59 0 -105 27.5zM379 140q40 41 40 104q0 54 -33 86.5t-88 32.5q-61 0 -101 -41.5t-40 -105.5q0 -53 33 -85
t88 -32q61 0 101 41zM437.5 717.5q31.5 -29.5 31.5 -76.5q0 -33 -16 -62.5t-45.5 -47.5t-68.5 -18q-49 0 -79.5 29.5t-30.5 76.5q0 34 15.5 63t44.5 47t68 18q49 0 80.5 -29.5zM302.5 672q-17.5 -22 -17.5 -50q0 -25 15 -40.5t43 -15.5q34 0 51.5 22t17.5 50q0 25 -15 40.5
t-43 15.5q-34 0 -51.5 -22z" />
    <glyph glyph-name="ae" unicode="&#xe6;" horiz-adv-x="830" 
d="M53.5 25q-50.5 40 -50.5 114q0 49 23.5 88t68 61t105.5 22q49 0 85.5 -14.5t58.5 -41.5h2q11 41 11 62q0 28 -23.5 44t-68.5 16q-67 0 -149 -22l-19 99q45 11 93 17.5t86 6.5q62 0 102 -19.5t53 -66.5h2q28 40 75 63t106 23q84 0 138 -48.5t54 -138.5q0 -27 -11 -85h-342
q-1 -4 -1 -15q0 -39 29 -68t86 -29q77 0 148 58l53 -86q-94 -80 -204 -80q-68 0 -116 28t-67 74h-2q-34 -52 -83.5 -77t-110.5 -25q-81 0 -131.5 40zM683 285q1 6 1 16q0 36 -23 56t-65 20q-46 0 -77.5 -24.5t-46.5 -67.5h211zM300 105q29 22 29 55q0 30 -24 45.5t-64 15.5
q-48 0 -76.5 -20.5t-28.5 -54.5q0 -31 23.5 -47t63.5 -16q48 0 77 22z" />
    <glyph glyph-name="ccedilla" unicode="&#xe7;" horiz-adv-x="477" 
d="M354.5 -5q-35.5 -9 -76.5 -10l-13 -21q35 -11 54.5 -25.5t19.5 -41.5q0 -36 -42.5 -60.5t-120.5 -48.5l-14 34q46 20 65 31.5t19 25.5q0 12 -13 19t-41 15l44 74q-94 10 -150.5 71t-56.5 159q0 75 33 134t95 92.5t147 33.5q103 0 188 -57l-66 -100q-63 43 -127 43
t-103 -39.5t-39 -100.5q0 -55 34 -89.5t88 -34.5q49 0 104 29l44 -103q-37 -21 -72.5 -30z" />
    <glyph glyph-name="egrave" unicode="&#xe8;" horiz-adv-x="533" 
d="M501 205h-356q6 -111 119 -111q83 0 155 58l52 -94q-96 -72 -211 -72q-108 0 -170.5 58.5t-62.5 160.5q0 74 32.5 136t93.5 99t145 37q99 0 156 -50.5t57 -141.5q0 -31 -10 -80zM391 297q0 40 -26 62.5t-72 22.5q-49 0 -84.5 -25.5t-52.5 -70.5h234zM361 553h-86
l-123 154h136z" />
    <glyph glyph-name="eacute" unicode="&#xe9;" horiz-adv-x="533" 
d="M501 205h-356q6 -111 119 -111q83 0 155 58l52 -94q-96 -72 -211 -72q-108 0 -170.5 58.5t-62.5 160.5q0 74 32.5 136t93.5 99t145 37q99 0 156 -50.5t57 -141.5q0 -31 -10 -80zM391 297q0 40 -26 62.5t-72 22.5q-49 0 -84.5 -25.5t-52.5 -70.5h234zM421 707h147
l-186 -154h-99z" />
    <glyph glyph-name="ecircumflex" unicode="&#xea;" horiz-adv-x="533" 
d="M501 205h-356q6 -111 119 -111q83 0 155 58l52 -94q-96 -72 -211 -72q-108 0 -170.5 58.5t-62.5 160.5q0 74 32.5 136t93.5 99t145 37q99 0 156 -50.5t57 -141.5q0 -31 -10 -80zM391 297q0 40 -26 62.5t-72 22.5q-49 0 -84.5 -25.5t-52.5 -70.5h234zM291 707h117l93 -154
h-102l-55 94l-92 -94h-115z" />
    <glyph glyph-name="edieresis" unicode="&#xeb;" horiz-adv-x="533" 
d="M501 205h-356q6 -111 119 -111q83 0 155 58l52 -94q-96 -72 -211 -72q-108 0 -170.5 58.5t-62.5 160.5q0 74 32.5 136t93.5 99t145 37q99 0 156 -50.5t57 -141.5q0 -31 -10 -80zM391 297q0 40 -26 62.5t-72 22.5q-49 0 -84.5 -25.5t-52.5 -70.5h234zM204 690h112
l-25 -127h-111zM392 690h112l-25 -127h-111z" />
    <glyph glyph-name="igrave" unicode="&#xec;" horiz-adv-x="236" 
d="M224 553h-90l-55 154h111zM101 462h123l-90 -462h-123z" />
    <glyph glyph-name="iacute" unicode="&#xed;" horiz-adv-x="236" 
d="M225 707h125l-121 -154h-98zM101 462h123l-90 -462h-123z" />
    <glyph glyph-name="icircumflex" unicode="&#xee;" horiz-adv-x="236" 
d="M146 707h117l51 -154h-94l-19 103l-61 -103h-107zM101 462h123l-90 -462h-123z" />
    <glyph glyph-name="idieresis" unicode="&#xef;" horiz-adv-x="236" 
d="M82 690h107l-24 -127h-107zM228 690h107l-25 -127h-107zM101 462h123l-90 -462h-123z" />
    <glyph glyph-name="eth" unicode="&#xf0;" horiz-adv-x="590" 
d="M571 388q0 -136 -40 -226t-108.5 -133.5t-155.5 -43.5q-71 0 -125 30t-83.5 83t-29.5 121q0 70 30.5 129t87.5 94t132 35q64 0 111.5 -26.5t67.5 -81.5h2q2 28 2 40q0 121 -81 185l-105 -75l-37 50l84 60q-50 22 -115 31l27 98q115 -17 186 -59l98 70l35 -51l-80 -57
q97 -91 97 -273zM351.5 121q33.5 20 51 53t17.5 72q0 55 -33.5 85t-86.5 30q-47 0 -80 -20.5t-49 -53.5t-16 -70q0 -55 32.5 -85.5t85.5 -30.5q45 0 78.5 20z" />
    <glyph glyph-name="ntilde" unicode="&#xf1;" horiz-adv-x="551" 
d="M99 462h121l-14 -70h2q31 43 70.5 64t90.5 21q68 0 106.5 -38.5t38.5 -110.5q0 -40 -8 -81l-49 -247h-123l46 235q5 28 5 53q0 81 -82 81q-51 0 -82 -33.5t-46 -109.5l-44 -226h-122zM385 570q-21 8 -49 22q-23 12 -37 17.5t-27 5.5q-33 0 -62 -46l-46 15q23 56 54 88.5
t76 32.5q24 0 46 -8t47 -22q25 -12 38 -17t26 -5q17 0 32 11.5t30 33.5l45 -15q-23 -56 -53.5 -88.5t-75.5 -32.5q-23 0 -44 8z" />
    <glyph glyph-name="ograve" unicode="&#xf2;" horiz-adv-x="565" 
d="M90.5 43q-64.5 58 -64.5 162q0 77 35 139t98.5 97.5t144.5 35.5q106 0 170.5 -58t64.5 -162q0 -77 -35 -139t-98.5 -97.5t-144.5 -35.5q-106 0 -170.5 58zM373.5 143.5q39.5 42.5 39.5 105.5q0 54 -32.5 83t-85.5 29q-64 0 -103.5 -42.5t-39.5 -105.5q0 -54 32.5 -83
t85.5 -29q64 0 103.5 42.5zM362 553h-86l-123 154h136z" />
    <glyph glyph-name="oacute" unicode="&#xf3;" horiz-adv-x="565" 
d="M90.5 43q-64.5 58 -64.5 162q0 77 35 139t98.5 97.5t144.5 35.5q106 0 170.5 -58t64.5 -162q0 -77 -35 -139t-98.5 -97.5t-144.5 -35.5q-106 0 -170.5 58zM373.5 143.5q39.5 42.5 39.5 105.5q0 54 -32.5 83t-85.5 29q-64 0 -103.5 -42.5t-39.5 -105.5q0 -54 32.5 -83
t85.5 -29q64 0 103.5 42.5zM422 707h147l-186 -154h-99z" />
    <glyph glyph-name="ocircumflex" unicode="&#xf4;" horiz-adv-x="565" 
d="M90.5 43q-64.5 58 -64.5 162q0 77 35 139t98.5 97.5t144.5 35.5q106 0 170.5 -58t64.5 -162q0 -77 -35 -139t-98.5 -97.5t-144.5 -35.5q-106 0 -170.5 58zM373.5 143.5q39.5 42.5 39.5 105.5q0 54 -32.5 83t-85.5 29q-64 0 -103.5 -42.5t-39.5 -105.5q0 -54 32.5 -83
t85.5 -29q64 0 103.5 42.5zM292 707h117l93 -154h-102l-55 94l-92 -94h-115z" />
    <glyph glyph-name="otilde" unicode="&#xf5;" horiz-adv-x="565" 
d="M90.5 43q-64.5 58 -64.5 162q0 77 35 139t98.5 97.5t144.5 35.5q106 0 170.5 -58t64.5 -162q0 -77 -35 -139t-98.5 -97.5t-144.5 -35.5q-106 0 -170.5 58zM373.5 143.5q39.5 42.5 39.5 105.5q0 54 -32.5 83t-85.5 29q-64 0 -103.5 -42.5t-39.5 -105.5q0 -54 32.5 -83
t85.5 -29q64 0 103.5 42.5zM372 570q-21 8 -49 22q-23 12 -37 17.5t-27 5.5q-33 0 -62 -46l-46 15q23 56 54 88.5t76 32.5q24 0 46 -8t47 -22q25 -12 38 -17t26 -5q17 0 32 11.5t30 33.5l45 -15q-23 -56 -53.5 -88.5t-75.5 -32.5q-23 0 -44 8z" />
    <glyph glyph-name="odieresis" unicode="&#xf6;" horiz-adv-x="565" 
d="M90.5 43q-64.5 58 -64.5 162q0 77 35 139t98.5 97.5t144.5 35.5q106 0 170.5 -58t64.5 -162q0 -77 -35 -139t-98.5 -97.5t-144.5 -35.5q-106 0 -170.5 58zM373.5 143.5q39.5 42.5 39.5 105.5q0 54 -32.5 83t-85.5 29q-64 0 -103.5 -42.5t-39.5 -105.5q0 -54 32.5 -83
t85.5 -29q64 0 103.5 42.5zM205 690h112l-25 -127h-111zM393 690h112l-25 -127h-111z" />
    <glyph glyph-name="divide" unicode="&#xf7;" 
d="M356 414h-85v91h85v-91zM572 271h-518v55h518v-55zM356 91h-85v92h85v-92z" />
    <glyph glyph-name="oslash" unicode="&#xf8;" horiz-adv-x="565" 
d="M539 257q0 -77 -35 -139t-98.5 -97.5t-144.5 -35.5q-102 0 -164 53l-58 -54l-26 26l58 54q-45 56 -45 141q0 77 35 139t98.5 97.5t144.5 35.5q95 0 156 -46l50 47l27 -27l-49 -46q51 -57 51 -148zM166 154l200 189q-28 18 -71 18q-64 0 -103.5 -42.5t-39.5 -105.5
q0 -34 14 -59zM373.5 143.5q39.5 42.5 39.5 105.5q0 40 -19 68l-204 -192q30 -24 80 -24q64 0 103.5 42.5z" />
    <glyph glyph-name="ugrave" unicode="&#xf9;" horiz-adv-x="540" 
d="M72 22.5q-40 37.5 -40 108.5q0 23 8 71l52 260h126l-48 -244q-5 -28 -5 -46q0 -38 20 -56t55 -18q96 0 124 142l43 222h124l-90 -462h-121l13 72h-2q-29 -45 -65 -66t-86 -21q-68 0 -108 37.5zM348 553h-86l-123 154h136z" />
    <glyph glyph-name="uacute" unicode="&#xfa;" horiz-adv-x="540" 
d="M72 22.5q-40 37.5 -40 108.5q0 23 8 71l52 260h126l-48 -244q-5 -28 -5 -46q0 -38 20 -56t55 -18q96 0 124 142l43 222h124l-90 -462h-121l13 72h-2q-29 -45 -65 -66t-86 -21q-68 0 -108 37.5zM408 707h147l-186 -154h-99z" />
    <glyph glyph-name="ucircumflex" unicode="&#xfb;" horiz-adv-x="540" 
d="M72 22.5q-40 37.5 -40 108.5q0 23 8 71l52 260h126l-48 -244q-5 -28 -5 -46q0 -38 20 -56t55 -18q96 0 124 142l43 222h124l-90 -462h-121l13 72h-2q-29 -45 -65 -66t-86 -21q-68 0 -108 37.5zM278 707h117l93 -154h-102l-55 94l-92 -94h-115z" />
    <glyph glyph-name="udieresis" unicode="&#xfc;" horiz-adv-x="540" 
d="M72 22.5q-40 37.5 -40 108.5q0 23 8 71l52 260h126l-48 -244q-5 -28 -5 -46q0 -38 20 -56t55 -18q96 0 124 142l43 222h124l-90 -462h-121l13 72h-2q-29 -45 -65 -66t-86 -21q-68 0 -108 37.5zM191 690h112l-25 -127h-111zM379 690h112l-25 -127h-111z" />
    <glyph glyph-name="yacute" unicode="&#xfd;" horiz-adv-x="507" 
d="M547 462l-406 -663h-131l158 253l-118 410h132l65 -278l164 278h136zM399 707h147l-186 -154h-99z" />
    <glyph glyph-name="thorn" unicode="&#xfe;" horiz-adv-x="595" 
d="M470.5 452q44.5 -25 71 -74.5t26.5 -119.5q0 -77 -32 -139.5t-89 -98t-130 -35.5q-59 0 -101 24.5t-63 70.5h-3l-54 -281h-123l129 663l46 238h123l-46 -238l-12 -59h3q29 35 68.5 54.5t86.5 19.5q55 0 99.5 -25zM368.5 119q32.5 20 51 54t18.5 75q0 54 -32 84.5
t-85 30.5q-42 0 -74.5 -20t-51 -54t-18.5 -75q0 -54 32 -84.5t85 -30.5q42 0 74.5 20z" />
    <glyph glyph-name="ydieresis" unicode="&#xff;" horiz-adv-x="507" 
d="M547 462l-406 -663h-131l158 253l-118 410h132l65 -278l164 278h136zM182 690h112l-25 -127h-111zM370 690h112l-25 -127h-111z" />
    <glyph glyph-name="Amacron" unicode="&#x100;" horiz-adv-x="697" 
d="M487 160h-291l-89 -160h-149l413 700h134l144 -700h-133zM467 273l-51 280l-156 -280h207zM598 755h-306l16 83h306z" />
    <glyph glyph-name="amacron" unicode="&#x101;" horiz-adv-x="590" 
d="M123 12.5q-46 27.5 -71 78t-25 116.5q0 77 32 139t88.5 96.5t127.5 34.5q59 0 102.5 -25t64.5 -71h3l15 81h123l-90 -462h-122l12 63h-2q-61 -78 -153 -78q-59 0 -105 27.5zM379 140q40 41 40 104q0 54 -33 86.5t-88 32.5q-61 0 -101 -41.5t-40 -105.5q0 -53 33 -85
t88 -32q61 0 101 41zM498 582h-307l17 85h306z" />
    <glyph glyph-name="Abreve" unicode="&#x102;" horiz-adv-x="697" 
d="M487 160h-291l-89 -160h-149l413 700h134l144 -700h-133zM467 273l-51 280l-156 -280h207zM352.5 767.5q-33.5 28.5 -33.5 79.5q0 10 1 16h79v-6q0 -21 14.5 -33t41.5 -12q54 0 76 51h86q-17 -58 -62.5 -91t-109.5 -33q-59 0 -92.5 28.5z" />
    <glyph glyph-name="abreve" unicode="&#x103;" horiz-adv-x="590" 
d="M123 12.5q-46 27.5 -71 78t-25 116.5q0 77 32 139t88.5 96.5t127.5 34.5q59 0 102.5 -25t64.5 -71h3l15 81h123l-90 -462h-122l12 63h-2q-61 -78 -153 -78q-59 0 -105 27.5zM379 140q40 41 40 104q0 54 -33 86.5t-88 32.5q-61 0 -101 -41.5t-40 -105.5q0 -53 33 -85
t88 -32q61 0 101 41zM463.5 587.5q-44.5 -41.5 -114.5 -41.5q-59 0 -95 30.5t-36 82.5q0 12 5 39h73q-3 -9 -3 -20q0 -26 15 -41.5t45 -15.5q38 0 57 20.5t28 56.5h82q-12 -69 -56.5 -110.5z" />
    <glyph glyph-name="Aogonek" unicode="&#x104;" horiz-adv-x="697" 
d="M503.5 -113q6.5 -5 17.5 -5q16 0 39 5v-76q-42 -10 -69 -10q-40 0 -64.5 18t-24.5 50q0 35 27.5 69.5t84.5 72.5l-27 149h-291l-89 -160h-149l413 700h134l144 -700h-68q-84 -72 -84 -100q0 -8 6.5 -13zM467 273l-51 280l-156 -280h207z" />
    <glyph glyph-name="aogonek" unicode="&#x105;" horiz-adv-x="590" 
d="M346 -100q0 -8 6.5 -13t17.5 -5q16 0 39 5v-76q-42 -10 -69 -10q-40 0 -64.5 18t-24.5 50q0 37 30.5 72.5t92.5 76.5l9 45h-2q-61 -78 -153 -78q-59 0 -105 27.5t-71 78t-25 116.5q0 77 32 139t88.5 96.5t127.5 34.5q59 0 102.5 -25t64.5 -71h3l15 81h123l-90 -462h-63
q-84 -72 -84 -100zM379 140q40 41 40 104q0 54 -33 86.5t-88 32.5q-61 0 -101 -41.5t-40 -105.5q0 -53 33 -85t88 -32q61 0 101 41z" />
    <glyph glyph-name="Cacute" unicode="&#x106;" horiz-adv-x="688" 
d="M215.5 27q-77.5 42 -119.5 118t-42 177q0 110 51 200t145 141.5t216 51.5q148 0 254 -76l-78 -111q-41 27 -83.5 42.5t-96.5 15.5q-82 0 -142.5 -35t-93 -94.5t-32.5 -133.5q0 -96 56 -152.5t150 -56.5q85 0 174 53l61 -111q-115 -71 -241 -71q-101 0 -178.5 42zM549 863
h145l-182 -120h-90z" />
    <glyph glyph-name="cacute" unicode="&#x107;" horiz-adv-x="477" 
d="M145.5 13q-54.5 28 -85.5 80.5t-31 123.5q0 75 33 134t95 92.5t147 33.5q103 0 188 -57l-66 -100q-63 43 -127 43t-103 -39.5t-39 -100.5q0 -55 34 -89.5t88 -34.5q49 0 104 29l44 -103q-39 -21 -76.5 -30.5t-80.5 -9.5q-70 0 -124.5 28zM410 707h147l-186 -154h-99z" />
    <glyph glyph-name="Ccircumflex" unicode="&#x108;" horiz-adv-x="688" 
d="M215.5 27q-77.5 42 -119.5 118t-42 177q0 110 51 200t145 141.5t216 51.5q148 0 254 -76l-78 -111q-41 27 -83.5 42.5t-96.5 15.5q-82 0 -142.5 -35t-93 -94.5t-32.5 -133.5q0 -96 56 -152.5t150 -56.5q85 0 174 53l61 -111q-115 -71 -241 -71q-101 0 -178.5 42zM434 863
h122l94 -120h-103l-56 70l-89 -70h-116z" />
    <glyph glyph-name="ccircumflex" unicode="&#x109;" horiz-adv-x="477" 
d="M145.5 13q-54.5 28 -85.5 80.5t-31 123.5q0 75 33 134t95 92.5t147 33.5q103 0 188 -57l-66 -100q-63 43 -127 43t-103 -39.5t-39 -100.5q0 -55 34 -89.5t88 -34.5q49 0 104 29l44 -103q-39 -21 -76.5 -30.5t-80.5 -9.5q-70 0 -124.5 28zM280 707h117l93 -154h-102
l-55 94l-92 -94h-115z" />
    <glyph glyph-name="Cdotaccent" unicode="&#x10a;" horiz-adv-x="688" 
d="M215.5 27q-77.5 42 -119.5 118t-42 177q0 110 51 200t145 141.5t216 51.5q148 0 254 -76l-78 -111q-41 27 -83.5 42.5t-96.5 15.5q-82 0 -142.5 -35t-93 -94.5t-32.5 -133.5q0 -96 56 -152.5t150 -56.5q85 0 174 53l61 -111q-115 -71 -241 -71q-101 0 -178.5 42zM537 743
h-123l22 115h123z" />
    <glyph glyph-name="cdotaccent" unicode="&#x10b;" horiz-adv-x="477" 
d="M145.5 13q-54.5 28 -85.5 80.5t-31 123.5q0 75 33 134t95 92.5t147 33.5q103 0 188 -57l-66 -100q-63 43 -127 43t-103 -39.5t-39 -100.5q0 -55 34 -89.5t88 -34.5q49 0 104 29l44 -103q-39 -21 -76.5 -30.5t-80.5 -9.5q-70 0 -124.5 28zM394 559h-140l26 135h140z" />
    <glyph glyph-name="Ccaron" unicode="&#x10c;" horiz-adv-x="688" 
d="M215.5 27q-77.5 42 -119.5 118t-42 177q0 110 51 200t145 141.5t216 51.5q148 0 254 -76l-78 -111q-41 27 -83.5 42.5t-96.5 15.5q-82 0 -142.5 -35t-93 -94.5t-32.5 -133.5q0 -96 56 -152.5t150 -56.5q85 0 174 53l61 -111q-115 -71 -241 -71q-101 0 -178.5 42zM363 812
l7 51l86 -44l77 17l94 27l-31 -69l-117 -51z" />
    <glyph glyph-name="ccaron" unicode="&#x10d;" horiz-adv-x="477" 
d="M145.5 13q-54.5 28 -85.5 80.5t-31 123.5q0 75 33 134t95 92.5t147 33.5q103 0 188 -57l-66 -100q-63 43 -127 43t-103 -39.5t-39 -100.5q0 -55 34 -89.5t88 -34.5q49 0 104 29l44 -103q-39 -21 -76.5 -30.5t-80.5 -9.5q-70 0 -124.5 28zM165 700h102l54 -95l93 95h115
l-154 -154h-117z" />
    <glyph glyph-name="Dcaron" unicode="&#x10e;" horiz-adv-x="692" 
d="M157 700h212q93 0 165 -38t112 -108.5t40 -164.5q0 -114 -53.5 -202.5t-152.5 -137.5t-230 -49h-229zM269 118q81 0 144.5 33.5t99.5 94.5t36 141q0 92 -51.5 143.5t-139.5 51.5h-96l-90 -464h97zM256 812l7 51l86 -44l77 17l94 27l-31 -69l-117 -51z" />
    <glyph glyph-name="dcaron" unicode="&#x10f;" horiz-adv-x="718" 
d="M808 715l-23 -121l-109 -96h-45l74 96h-41l23 121h121zM506 700h123l-136 -700h-122l12 63h-2q-61 -78 -153 -78q-59 0 -105 27.5t-71 78t-25 116.5q0 77 32 139t88.5 96.5t127.5 34.5q59 0 102.5 -25t64.5 -71h3zM379 140q40 41 40 104q0 54 -33 86.5t-88 32.5
q-61 0 -101 -41.5t-40 -105.5q0 -53 33 -85t88 -32q61 0 101 41z" />
    <glyph glyph-name="Dcroat" unicode="&#x110;" horiz-adv-x="692" 
d="M157 700h212q93 0 165 -38t112 -108.5t40 -164.5q0 -114 -53.5 -202.5t-152.5 -137.5t-230 -49h-229zM269 118q81 0 144.5 33.5t99.5 94.5t36 141q0 92 -51.5 143.5t-139.5 51.5h-96l-90 -464h97zM176 360h29l-1 3h-29z" />
    <glyph glyph-name="dcroat" unicode="&#x111;" horiz-adv-x="601" 
d="M673 556h-72l-108 -556h-122l12 63h-2q-61 -78 -153 -78q-59 0 -105 27.5t-71 78t-25 116.5q0 77 32 139t88.5 96.5t127.5 34.5q59 0 102.5 -25t64.5 -71h3l33 175h-142l14 73h142l14 71h123l-14 -71h72zM379 140q40 41 40 104q0 54 -33 86.5t-88 32.5q-61 0 -101 -41.5
t-40 -105.5q0 -53 33 -85t88 -32q61 0 101 41z" />
    <glyph glyph-name="Emacron" unicode="&#x112;" horiz-adv-x="524" 
d="M262 580l-27 -140h261l-23 -118h-261l-40 -202h291l-23 -120h-419l136 700h415l-23 -120h-287zM535 755h-306l16 83h306z" />
    <glyph glyph-name="emacron" unicode="&#x113;" horiz-adv-x="533" 
d="M501 205h-356q6 -111 119 -111q83 0 155 58l52 -94q-96 -72 -211 -72q-108 0 -170.5 58.5t-62.5 160.5q0 74 32.5 136t93.5 99t145 37q99 0 156 -50.5t57 -141.5q0 -31 -10 -80zM391 297q0 40 -26 62.5t-72 22.5q-49 0 -84.5 -25.5t-52.5 -70.5h234zM488 582h-307l17 85
h306z" />
    <glyph glyph-name="Ebreve" unicode="&#x114;" horiz-adv-x="524" 
d="M262 580l-27 -140h261l-23 -118h-261l-40 -202h291l-23 -120h-419l136 700h415l-23 -120h-287zM289.5 767.5q-33.5 28.5 -33.5 79.5q0 10 1 16h79v-6q0 -21 14.5 -33t41.5 -12q54 0 76 51h86q-17 -58 -62.5 -91t-109.5 -33q-59 0 -92.5 28.5z" />
    <glyph glyph-name="ebreve" unicode="&#x115;" horiz-adv-x="533" 
d="M501 205h-356q6 -111 119 -111q83 0 155 58l52 -94q-96 -72 -211 -72q-108 0 -170.5 58.5t-62.5 160.5q0 74 32.5 136t93.5 99t145 37q99 0 156 -50.5t57 -141.5q0 -31 -10 -80zM391 297q0 40 -26 62.5t-72 22.5q-49 0 -84.5 -25.5t-52.5 -70.5h234zM453.5 587.5
q-44.5 -41.5 -114.5 -41.5q-59 0 -95 30.5t-36 82.5q0 12 5 39h73q-3 -9 -3 -20q0 -26 15 -41.5t45 -15.5q38 0 57 20.5t28 56.5h82q-12 -69 -56.5 -110.5z" />
    <glyph glyph-name="Edotaccent" unicode="&#x116;" horiz-adv-x="524" 
d="M262 580l-27 -140h261l-23 -118h-261l-40 -202h291l-23 -120h-419l136 700h415l-23 -120h-287zM445 743h-123l22 115h123z" />
    <glyph glyph-name="edotaccent" unicode="&#x117;" horiz-adv-x="533" 
d="M501 205h-356q6 -111 119 -111q83 0 155 58l52 -94q-96 -72 -211 -72q-108 0 -170.5 58.5t-62.5 160.5q0 74 32.5 136t93.5 99t145 37q99 0 156 -50.5t57 -141.5q0 -31 -10 -80zM391 297q0 40 -26 62.5t-72 22.5q-49 0 -84.5 -25.5t-52.5 -70.5h234zM405 559h-140l26 135
h140z" />
    <glyph glyph-name="Eogonek" unicode="&#x118;" horiz-adv-x="524" 
d="M262 580l-27 -140h261l-23 -118h-261l-40 -202h291l-23 -120h-16q-84 -72 -84 -100q0 -8 6.5 -13t17.5 -5q16 0 39 5v-76q-42 -10 -69 -10q-40 0 -64.5 18t-24.5 50q0 33 24 65t73 66h-321l136 700h415l-23 -120h-287z" />
    <glyph glyph-name="eogonek" unicode="&#x119;" horiz-adv-x="533" 
d="M501 205h-356q6 -111 119 -111q83 0 155 58l52 -94q-42 -31 -86 -49q-95 -78 -95 -109q0 -8 6.5 -13t17.5 -5q16 0 39 5v-76q-42 -10 -69 -10q-40 0 -64.5 18t-24.5 50q0 30 19 58.5t59 58.5h-13q-108 0 -170.5 58.5t-62.5 160.5q0 74 32.5 136t93.5 99t145 37
q99 0 156 -50.5t57 -141.5q0 -31 -10 -80zM391 297q0 40 -26 62.5t-72 22.5q-49 0 -84.5 -25.5t-52.5 -70.5h234z" />
    <glyph glyph-name="Ecaron" unicode="&#x11a;" horiz-adv-x="524" 
d="M262 580l-27 -140h261l-23 -118h-261l-40 -202h291l-23 -120h-419l136 700h415l-23 -120h-287zM271 812l7 51l86 -44l77 17l94 27l-31 -69l-117 -51z" />
    <glyph glyph-name="ecaron" unicode="&#x11b;" horiz-adv-x="533" 
d="M501 205h-356q6 -111 119 -111q83 0 155 58l52 -94q-96 -72 -211 -72q-108 0 -170.5 58.5t-62.5 160.5q0 74 32.5 136t93.5 99t145 37q99 0 156 -50.5t57 -141.5q0 -31 -10 -80zM391 297q0 40 -26 62.5t-72 22.5q-49 0 -84.5 -25.5t-52.5 -70.5h234zM176 700h102l54 -95
l93 95h115l-154 -154h-117z" />
    <glyph glyph-name="Gcircumflex" unicode="&#x11c;" horiz-adv-x="786" 
d="M791 393l-8 -52q-23 -162 -115.5 -258.5t-256.5 -96.5q-106 0 -187 41t-125 117t-44 178q0 113 51.5 202t144 139.5t211.5 50.5q89 0 164 -26.5t129 -73.5l-91 -103q-88 75 -205 75q-83 0 -143 -36t-91 -96.5t-31 -132.5q0 -98 59.5 -152.5t162.5 -54.5q91 0 144 44
t69 118h-202l27 117h337zM442 863h122l94 -120h-103l-56 70l-89 -70h-116z" />
    <glyph glyph-name="gcircumflex" unicode="&#x11d;" horiz-adv-x="590" 
d="M583 462l-87 -450q-16 -83 -46.5 -132.5t-80.5 -72t-126 -22.5q-109 0 -213 40l42 110q89 -37 171 -37q58 0 87.5 25t41.5 83l11 57h-2q-61 -78 -153 -78q-59 0 -105 27.5t-71 78t-25 116.5q0 77 32 139t88.5 96.5t127.5 34.5q59 0 102.5 -25t64.5 -71h3l15 81h123z
M379 140q40 41 40 104q0 54 -33 86.5t-88 32.5q-61 0 -101 -41.5t-40 -105.5q0 -53 33 -85t88 -32q61 0 101 41zM306 707h117l93 -154h-102l-55 94l-92 -94h-115z" />
    <glyph glyph-name="Gbreve" unicode="&#x11e;" horiz-adv-x="786" 
d="M791 393l-8 -52q-23 -162 -115.5 -258.5t-256.5 -96.5q-106 0 -187 41t-125 117t-44 178q0 113 51.5 202t144 139.5t211.5 50.5q89 0 164 -26.5t129 -73.5l-91 -103q-88 75 -205 75q-83 0 -143 -36t-91 -96.5t-31 -132.5q0 -98 59.5 -152.5t162.5 -54.5q91 0 144 44
t69 118h-202l27 117h337zM389.5 767.5q-33.5 28.5 -33.5 79.5q0 10 1 16h79v-6q0 -21 14.5 -33t41.5 -12q54 0 76 51h86q-17 -58 -62.5 -91t-109.5 -33q-59 0 -92.5 28.5z" />
    <glyph glyph-name="gbreve" unicode="&#x11f;" horiz-adv-x="590" 
d="M583 462l-87 -450q-16 -83 -46.5 -132.5t-80.5 -72t-126 -22.5q-109 0 -213 40l42 110q89 -37 171 -37q58 0 87.5 25t41.5 83l11 57h-2q-61 -78 -153 -78q-59 0 -105 27.5t-71 78t-25 116.5q0 77 32 139t88.5 96.5t127.5 34.5q59 0 102.5 -25t64.5 -71h3l15 81h123z
M379 140q40 41 40 104q0 54 -33 86.5t-88 32.5q-61 0 -101 -41.5t-40 -105.5q0 -53 33 -85t88 -32q61 0 101 41zM468.5 587.5q-44.5 -41.5 -114.5 -41.5q-59 0 -95 30.5t-36 82.5q0 12 5 39h73q-3 -9 -3 -20q0 -26 15 -41.5t45 -15.5q38 0 57 20.5t28 56.5h82
q-12 -69 -56.5 -110.5z" />
    <glyph glyph-name="Gdotaccent" unicode="&#x120;" horiz-adv-x="786" 
d="M791 393l-8 -52q-23 -162 -115.5 -258.5t-256.5 -96.5q-106 0 -187 41t-125 117t-44 178q0 113 51.5 202t144 139.5t211.5 50.5q89 0 164 -26.5t129 -73.5l-91 -103q-88 75 -205 75q-83 0 -143 -36t-91 -96.5t-31 -132.5q0 -98 59.5 -152.5t162.5 -54.5q91 0 144 44
t69 118h-202l27 117h337zM545 743h-123l22 115h123z" />
    <glyph glyph-name="gdotaccent" unicode="&#x121;" horiz-adv-x="590" 
d="M583 462l-87 -450q-16 -83 -46.5 -132.5t-80.5 -72t-126 -22.5q-109 0 -213 40l42 110q89 -37 171 -37q58 0 87.5 25t41.5 83l11 57h-2q-61 -78 -153 -78q-59 0 -105 27.5t-71 78t-25 116.5q0 77 32 139t88.5 96.5t127.5 34.5q59 0 102.5 -25t64.5 -71h3l15 81h123z
M379 140q40 41 40 104q0 54 -33 86.5t-88 32.5q-61 0 -101 -41.5t-40 -105.5q0 -53 33 -85t88 -32q61 0 101 41zM420 559h-140l26 135h140z" />
    <glyph glyph-name="Gcommaaccent" unicode="&#x122;" horiz-adv-x="786" 
d="M791 393l-8 -52q-23 -162 -115.5 -258.5t-256.5 -96.5q-106 0 -187 41t-125 117t-44 178q0 113 51.5 202t144 139.5t211.5 50.5q89 0 164 -26.5t129 -73.5l-91 -103q-88 75 -205 75q-83 0 -143 -36t-91 -96.5t-31 -132.5q0 -98 59.5 -152.5t162.5 -54.5q91 0 144 44
t69 118h-202l27 117h337zM459 -47l-19 -95l-82 -68h-43l55 68h-46l19 95h116z" />
    <glyph glyph-name="gcommaaccent" unicode="&#x123;" horiz-adv-x="590" 
d="M583 462l-87 -450q-16 -83 -46.5 -132.5t-80.5 -72t-126 -22.5q-109 0 -213 40l42 110q89 -37 171 -37q58 0 87.5 25t41.5 83l11 57h-2q-61 -78 -153 -78q-59 0 -105 27.5t-71 78t-25 116.5q0 77 32 139t88.5 96.5t127.5 34.5q59 0 102.5 -25t64.5 -71h3l15 81h123z
M379 140q40 41 40 104q0 54 -33 86.5t-88 32.5q-61 0 -101 -41.5t-40 -105.5q0 -53 33 -85t88 -32q61 0 101 41zM375 635h46l-19 -95h-116l19 95l82 68h43z" />
    <glyph glyph-name="Hcircumflex" unicode="&#x124;" horiz-adv-x="719" 
d="M744 700l-136 -700h-128l60 307h-331l-60 -307h-128l136 700h128l-53 -272h331l53 272h128zM417 863h122l94 -120h-103l-56 70l-89 -70h-116z" />
    <glyph glyph-name="hcircumflex" unicode="&#x125;" horiz-adv-x="554" 
d="M147 700h123l-59 -304h2q62 81 157 81q66 0 106.5 -37t40.5 -115q0 -30 -8 -73l-49 -252h-123l48 245q4 19 4 38q0 40 -21 61t-58 21q-50 0 -84 -34t-48 -105l-44 -226h-123zM175 863h122l94 -120h-103l-56 70l-89 -70h-116z" />
    <glyph glyph-name="Hbar" unicode="&#x126;" horiz-adv-x="728" 
d="M782 507h-70l-99 -507h-128l60 307h-331l-60 -307h-128l99 507h-71l17 88h71l20 105h128l-20 -105h331l20 105h128l-20 -105h70zM584 507h-331l-16 -79h331z" />
    <glyph glyph-name="hbar" unicode="&#x127;" horiz-adv-x="555" 
d="M477.5 440q40.5 -37 40.5 -115q0 -30 -8 -73l-49 -252h-123l48 245q4 19 4 38q0 40 -21 61t-58 21q-50 0 -84 -34t-48 -105l-44 -226h-123l108 556h-65l14 73h65l14 71h123l-14 -71h149l-14 -73h-149l-31 -160h2q62 81 157 81q66 0 106.5 -37z" />
    <glyph glyph-name="Itilde" unicode="&#x128;" horiz-adv-x="261" 
d="M157 700h129l-136 -700h-129zM276.5 742.5q-20.5 6.5 -46.5 17.5q-25 10 -39.5 15t-29.5 5q-18 0 -32.5 -9.5t-29.5 -29.5l-41 13q22 51 52 82t75 31q22 0 43 -6.5t46 -17.5q26 -11 40 -15.5t28 -4.5q18 0 32.5 9t30.5 30l41 -13q-22 -51 -52.5 -82t-75.5 -31
q-21 0 -41.5 6.5z" />
    <glyph glyph-name="itilde" unicode="&#x129;" horiz-adv-x="236" 
d="M184.5 697.5q16.5 -7.5 36.5 -20.5q16 -10 26 -15t19 -5q13 0 23.5 11.5t21.5 33.5l43 -15q-43 -121 -112 -121q-18 0 -34 7.5t-37 21.5q-3 2 -12.5 8t-17.5 9t-14 3q-13 0 -24 -12t-22 -34l-43 15q45 121 112 121q18 0 34.5 -7.5zM101 462h123l-90 -462h-123z" />
    <glyph glyph-name="Imacron" unicode="&#x12a;" horiz-adv-x="261" 
d="M157 700h129l-136 -700h-129zM382 755h-306l16 83h306z" />
    <glyph glyph-name="imacron" unicode="&#x12b;" horiz-adv-x="236" 
d="M299 582h-227l17 85h226zM101 462h123l-90 -462h-123z" />
    <glyph glyph-name="Ibreve" unicode="&#x12c;" horiz-adv-x="261" 
d="M157 700h129l-136 -700h-129zM136.5 767.5q-33.5 28.5 -33.5 79.5q0 10 1 16h79v-6q0 -21 14.5 -33t41.5 -12q54 0 76 51h86q-17 -58 -62.5 -91t-109.5 -33q-59 0 -92.5 28.5z" />
    <glyph glyph-name="ibreve" unicode="&#x12d;" horiz-adv-x="236" 
d="M187 546q-52 0 -80 28t-28 81q0 23 4 43h73q-3 -16 -3 -30q0 -23 8.5 -35t27.5 -12q30 0 42 20t19 57h83q-25 -152 -146 -152zM101 462h123l-90 -462h-123z" />
    <glyph glyph-name="Iogonek" unicode="&#x12e;" horiz-adv-x="261" 
d="M26 -100q0 -8 6.5 -13t17.5 -5q16 0 39 5v-76q-42 -10 -69 -10q-40 0 -64.5 18t-24.5 50q0 33 24 65t73 66h-7l136 700h129l-136 -700h-40q-84 -72 -84 -100z" />
    <glyph glyph-name="iogonek" unicode="&#x12f;" horiz-adv-x="236" 
d="M277 694l-26 -135h-140l26 135h140zM101 462h123l-90 -462h-62q-84 -72 -84 -100q0 -8 6.5 -13t17.5 -5q16 0 39 5v-76q-42 -10 -69 -10q-40 0 -64.5 18t-24.5 50q0 37 30 72.5t91 75.5z" />
    <glyph glyph-name="Idotaccent" unicode="&#x130;" horiz-adv-x="261" 
d="M157 700h129l-136 -700h-129zM292 743h-123l22 115h123z" />
    <glyph glyph-name="dotlessi" unicode="&#x131;" horiz-adv-x="236" 
d="M101 462h123l-90 -462h-123z" />
    <glyph glyph-name="IJ" unicode="&#x132;" horiz-adv-x="558" 
d="M157 700h129l-136 -700h-129zM256 118h30q27 0 44 13.5t24 46.5l102 522h127l-105 -544q-16 -84 -63.5 -122t-130.5 -38h-50z" />
    <glyph glyph-name="ij" unicode="&#x133;" horiz-adv-x="469" 
d="M101 462h123l-90 -462h-123zM251 559h-140l26 135h140zM176 -90q29 0 44.5 14t20.5 43l96 495h124l-100 -512q-15 -80 -63 -116.5t-127 -36.5h-47l22 113h30zM487 559h-140l26 135h140z" />
    <glyph glyph-name="Jcircumflex" unicode="&#x134;" horiz-adv-x="297" 
d="M-5 118h30q27 0 44 13.5t24 46.5l102 522h127l-105 -544q-16 -84 -63.5 -122t-130.5 -38h-50zM226 863h122l94 -120h-103l-56 70l-89 -70h-116z" />
    <glyph glyph-name="jcircumflex" unicode="&#x135;" horiz-adv-x="233" 
d="M146 707h117l51 -154h-94l-19 103l-61 -103h-107zM-60 -90q29 0 44.5 14t20.5 43l96 495h124l-100 -512q-15 -80 -63 -116.5t-127 -36.5h-47l22 113h30z" />
    <glyph glyph-name="Kcommaaccent" unicode="&#x136;" horiz-adv-x="672" 
d="M352 359l272 -359h-168l-240 345l-67 -345h-128l136 700h128l-60 -311l317 311h181zM358 -47l-19 -95l-82 -68h-43l55 68h-46l19 95h116z" />
    <glyph glyph-name="kcommaaccent" unicode="&#x137;" horiz-adv-x="514" 
d="M301 241l163 -241h-151l-136 220l-43 -220h-123l136 700h123l-83 -428l182 190h162zM275 -47l-19 -95l-82 -68h-43l55 68h-46l19 95h116z" />
    <glyph glyph-name="kgreenlandic" unicode="&#x138;" horiz-adv-x="512" 
d="M299 241l163 -241h-152l-136 220l-42 -220h-123l90 462h122l-37 -190l182 190h163z" />
    <glyph glyph-name="Lacute" unicode="&#x139;" horiz-adv-x="488" 
d="M157 700h128l-112 -579h291l-23 -121h-420zM304 863h145l-182 -120h-90z" />
    <glyph glyph-name="lacute" unicode="&#x13a;" horiz-adv-x="236" 
d="M147 700h123l-136 -700h-123zM291 863h145l-182 -120h-90z" />
    <glyph glyph-name="Lcommaaccent" unicode="&#x13b;" horiz-adv-x="488" 
d="M157 700h128l-112 -579h291l-23 -121h-420zM282 -47l-19 -95l-82 -68h-43l55 68h-46l19 95h116z" />
    <glyph glyph-name="lcommaaccent" unicode="&#x13c;" horiz-adv-x="236" 
d="M147 700h123l-136 -700h-123zM124 -47l-19 -95l-82 -68h-43l55 68h-46l19 95h116z" />
    <glyph glyph-name="Lcaron" unicode="&#x13d;" horiz-adv-x="488" 
d="M157 700h128l-112 -579h291l-23 -121h-420zM525 715l-23 -121l-123 -152h-45l90 152h-43l23 121h121z" />
    <glyph glyph-name="lcaron" unicode="&#x13e;" horiz-adv-x="360" 
d="M446 715l-23 -121l-109 -96h-45l73 96h-41l23 121h122zM270 700l-136 -700h-123l136 700h123z" />
    <glyph glyph-name="Ldot" unicode="&#x13f;" horiz-adv-x="488" 
d="M157 700h128l-112 -579h291l-23 -121h-420zM346 462h139l-27 -139h-138z" />
    <glyph glyph-name="ldot" unicode="&#x140;" horiz-adv-x="368" 
d="M147 700h123l-136 -700h-123zM267 461h139l-27 -139h-138z" />
    <glyph glyph-name="Lslash" unicode="&#x141;" horiz-adv-x="488" 
d="M464 121l-23 -121h-420l54 280l-70 -27l16 88l72 28l64 331h128l-54 -278l196 76l-17 -88l-196 -76l-41 -213h291z" />
    <glyph glyph-name="lslash" unicode="&#x142;" horiz-adv-x="295" 
d="M320 409l-85 -40l-72 -369h-123l59 304l-81 -38l16 88l82 39l60 307h123l-47 -243l84 40z" />
    <glyph glyph-name="Nacute" unicode="&#x143;" horiz-adv-x="716" 
d="M157 700h118l243 -489h2l93 489h128l-136 -700h-119l-242 489h-1l-94 -489h-128zM527 863h145l-182 -120h-90z" />
    <glyph glyph-name="nacute" unicode="&#x144;" horiz-adv-x="551" 
d="M99 462h121l-14 -70h2q31 43 70.5 64t90.5 21q68 0 106.5 -38.5t38.5 -110.5q0 -40 -8 -81l-49 -247h-123l46 235q5 28 5 53q0 81 -82 81q-51 0 -82 -33.5t-46 -109.5l-44 -226h-122zM435 707h147l-186 -154h-99z" />
    <glyph glyph-name="Ncommaaccent" unicode="&#x145;" horiz-adv-x="716" 
d="M157 700h118l243 -489h2l93 489h128l-136 -700h-119l-242 489h-1l-94 -489h-128zM368 -47l-19 -95l-82 -68h-43l55 68h-46l19 95h116z" />
    <glyph glyph-name="ncommaaccent" unicode="&#x146;" horiz-adv-x="551" 
d="M99 462h121l-14 -70h2q31 43 70.5 64t90.5 21q68 0 106.5 -38.5t38.5 -110.5q0 -40 -8 -81l-49 -247h-123l46 235q5 28 5 53q0 81 -82 81q-51 0 -82 -33.5t-46 -109.5l-44 -226h-122zM284 -47l-19 -95l-82 -68h-43l55 68h-46l19 95h116z" />
    <glyph glyph-name="Ncaron" unicode="&#x147;" horiz-adv-x="716" 
d="M157 700h118l243 -489h2l93 489h128l-136 -700h-119l-242 489h-1l-94 -489h-128zM341 812l7 51l86 -44l77 17l94 27l-31 -69l-117 -51z" />
    <glyph glyph-name="ncaron" unicode="&#x148;" horiz-adv-x="551" 
d="M99 462h121l-14 -70h2q31 43 70.5 64t90.5 21q68 0 106.5 -38.5t38.5 -110.5q0 -40 -8 -81l-49 -247h-123l46 235q5 28 5 53q0 81 -82 81q-51 0 -82 -33.5t-46 -109.5l-44 -226h-122zM190 700h102l54 -95l93 95h115l-154 -154h-117z" />
    <glyph glyph-name="napostrophe" unicode="&#x149;" horiz-adv-x="551" 
d="M99 462h121l-14 -70h2q31 43 70.5 64t90.5 21q68 0 106.5 -38.5t38.5 -110.5q0 -40 -8 -81l-49 -247h-123l46 235q5 28 5 53q0 81 -82 81q-51 0 -82 -33.5t-46 -109.5l-44 -226h-122zM182 715l-23 -121l-123 -152h-45l90 152h-43l23 121h121z" />
    <glyph glyph-name="Eng" unicode="&#x14a;" horiz-adv-x="715" 
d="M741 700l-136 -700l-8 -39q-18 -84 -64 -123t-123 -38l-74 1l23 120h50q26 0 40.5 10t20.5 40l9 45l-235 473h-1l-95 -489h-127l136 700h118l243 -489h2l93 489h128z" />
    <glyph glyph-name="eng" unicode="&#x14b;" horiz-adv-x="551" 
d="M475.5 438.5q38.5 -38.5 38.5 -110.5q0 -40 -8 -81l-49 -247l-11 -56q-29 -146 -180 -146h-57l21 111h36q27 0 41 11.5t20 41.5l7 38l46 235q5 28 5 53q0 81 -82 81q-51 0 -82 -33.5t-46 -109.5l-44 -226h-122l90 462h121l-14 -70h2q31 43 70.5 64t90.5 21
q68 0 106.5 -38.5z" />
    <glyph glyph-name="Omacron" unicode="&#x14c;" horiz-adv-x="814" 
d="M221 26q-79 41 -123 116t-44 175q0 110 51 201t143 144t210 53q102 0 181 -41t123.5 -116t44.5 -175q0 -110 -51 -201t-143.5 -144t-210.5 -53q-102 0 -181 41zM549.5 150q59.5 37 90 99t30.5 135q0 63 -28.5 109t-78 70t-111.5 24q-82 0 -141.5 -37t-90 -99t-30.5 -135
q0 -63 28.5 -109t78 -70t111.5 -24q82 0 141.5 37zM624 755h-306l16 83h306z" />
    <glyph glyph-name="omacron" unicode="&#x14d;" horiz-adv-x="565" 
d="M90.5 43q-64.5 58 -64.5 162q0 77 35 139t98.5 97.5t144.5 35.5q106 0 170.5 -58t64.5 -162q0 -77 -35 -139t-98.5 -97.5t-144.5 -35.5q-106 0 -170.5 58zM373.5 143.5q39.5 42.5 39.5 105.5q0 54 -32.5 83t-85.5 29q-64 0 -103.5 -42.5t-39.5 -105.5q0 -54 32.5 -83
t85.5 -29q64 0 103.5 42.5zM489 582h-307l17 85h306z" />
    <glyph glyph-name="Obreve" unicode="&#x14e;" horiz-adv-x="814" 
d="M221 26q-79 41 -123 116t-44 175q0 110 51 201t143 144t210 53q102 0 181 -41t123.5 -116t44.5 -175q0 -110 -51 -201t-143.5 -144t-210.5 -53q-102 0 -181 41zM549.5 150q59.5 37 90 99t30.5 135q0 63 -28.5 109t-78 70t-111.5 24q-82 0 -141.5 -37t-90 -99t-30.5 -135
q0 -63 28.5 -109t78 -70t111.5 -24q82 0 141.5 37zM378.5 767.5q-33.5 28.5 -33.5 79.5q0 10 1 16h79v-6q0 -21 14.5 -33t41.5 -12q54 0 76 51h86q-17 -58 -62.5 -91t-109.5 -33q-59 0 -92.5 28.5z" />
    <glyph glyph-name="obreve" unicode="&#x14f;" horiz-adv-x="565" 
d="M90.5 43q-64.5 58 -64.5 162q0 77 35 139t98.5 97.5t144.5 35.5q106 0 170.5 -58t64.5 -162q0 -77 -35 -139t-98.5 -97.5t-144.5 -35.5q-106 0 -170.5 58zM373.5 143.5q39.5 42.5 39.5 105.5q0 54 -32.5 83t-85.5 29q-64 0 -103.5 -42.5t-39.5 -105.5q0 -54 32.5 -83
t85.5 -29q64 0 103.5 42.5zM454.5 587.5q-44.5 -41.5 -114.5 -41.5q-59 0 -95 30.5t-36 82.5q0 12 5 39h73q-3 -9 -3 -20q0 -26 15 -41.5t45 -15.5q38 0 57 20.5t28 56.5h82q-12 -69 -56.5 -110.5z" />
    <glyph glyph-name="Ohungarumlaut" unicode="&#x150;" horiz-adv-x="814" 
d="M221 26q-79 41 -123 116t-44 175q0 110 51 201t143 144t210 53q102 0 181 -41t123.5 -116t44.5 -175q0 -110 -51 -201t-143.5 -144t-210.5 -53q-102 0 -181 41zM549.5 150q59.5 37 90 99t30.5 135q0 63 -28.5 109t-78 70t-111.5 24q-82 0 -141.5 -37t-90 -99t-30.5 -135
q0 -63 28.5 -109t78 -70t111.5 -24q82 0 141.5 37zM434 743h-84l135 120h101zM571 743h-84l135 120h101z" />
    <glyph glyph-name="ohungarumlaut" unicode="&#x151;" horiz-adv-x="565" 
d="M90.5 43q-64.5 58 -64.5 162q0 77 35 139t98.5 97.5t144.5 35.5q106 0 170.5 -58t64.5 -162q0 -77 -35 -139t-98.5 -97.5t-144.5 -35.5q-106 0 -170.5 58zM373.5 143.5q39.5 42.5 39.5 105.5q0 54 -32.5 83t-85.5 29q-64 0 -103.5 -42.5t-39.5 -105.5q0 -54 32.5 -83
t85.5 -29q64 0 103.5 42.5zM282 553h-85l138 154h105zM429 553h-85l138 154h105z" />
    <glyph glyph-name="OE" unicode="&#x152;" horiz-adv-x="1103" 
d="M839 582l-28 -142h264l-22 -118h-265l-40 -204h294l-23 -118h-419l10 53q-88 -68 -214 -68q-99 0 -177 41t-121.5 116t-43.5 175q0 110 51.5 201t144 144t210.5 53q84 0 149 -28.5t108 -83.5l19 97h415l-23 -118h-289zM547.5 152q59.5 37 90 98.5t30.5 133.5
q0 63 -28 108.5t-76.5 69t-109.5 23.5q-82 0 -141.5 -37t-90 -98.5t-30.5 -133.5q0 -63 28 -108.5t77 -69t110 -23.5q81 0 140.5 37z" />
    <glyph glyph-name="oe" unicode="&#x153;" horiz-adv-x="924" 
d="M892 205h-356q6 -111 119 -111q83 0 155 58l52 -94q-96 -72 -211 -72q-62 0 -110 20t-78 58q-38 -38 -89.5 -58.5t-112.5 -20.5q-106 0 -170.5 58t-64.5 162q0 77 35 139t98.5 97.5t144.5 35.5q61 0 109 -19.5t80 -57.5q36 37 85.5 57t110.5 20q99 0 156 -50.5t57 -141.5
q0 -31 -10 -80zM782 297q0 40 -26 62.5t-72 22.5q-49 0 -84.5 -25.5t-52.5 -70.5h234zM373.5 143.5q39.5 42.5 39.5 105.5q0 54 -32.5 83t-85.5 29q-64 0 -103.5 -42.5t-39.5 -105.5q0 -54 32.5 -83t85.5 -29q64 0 103.5 42.5z" />
    <glyph glyph-name="Racute" unicode="&#x154;" horiz-adv-x="604" 
d="M550.5 360.5q-54.5 -60.5 -148.5 -77.5l154 -283h-147l-140 278h-66l-54 -278h-128l136 700h228q105 0 162.5 -51.5t57.5 -141.5q0 -86 -54.5 -146.5zM225 391h109q61 0 96.5 27.5t35.5 76.5q0 87 -109 87h-95zM440 863h145l-182 -120h-90z" />
    <glyph glyph-name="racute" unicode="&#x155;" horiz-adv-x="351" 
d="M99 462h121l-19 -96h2q46 110 165 110q12 0 18 -1l-27 -136q-6 1 -24 1q-71 0 -111 -35t-56 -116l-37 -189h-122zM352 707h147l-186 -154h-99z" />
    <glyph glyph-name="Rcommaaccent" unicode="&#x156;" horiz-adv-x="604" 
d="M550.5 360.5q-54.5 -60.5 -148.5 -77.5l154 -283h-147l-140 278h-66l-54 -278h-128l136 700h228q105 0 162.5 -51.5t57.5 -141.5q0 -86 -54.5 -146.5zM225 391h109q61 0 96.5 27.5t35.5 76.5q0 87 -109 87h-95zM342 -47l-19 -95l-82 -68h-43l55 68h-46l19 95h116z" />
    <glyph glyph-name="rcommaaccent" unicode="&#x157;" horiz-adv-x="351" 
d="M99 462h121l-19 -96h2q46 110 165 110q12 0 18 -1l-27 -136q-6 1 -24 1q-71 0 -111 -35t-56 -116l-37 -189h-122zM121 -47l-19 -95l-82 -68h-43l55 68h-46l19 95h116z" />
    <glyph glyph-name="Rcaron" unicode="&#x158;" horiz-adv-x="604" 
d="M550.5 360.5q-54.5 -60.5 -148.5 -77.5l154 -283h-147l-140 278h-66l-54 -278h-128l136 700h228q105 0 162.5 -51.5t57.5 -141.5q0 -86 -54.5 -146.5zM225 391h109q61 0 96.5 27.5t35.5 76.5q0 87 -109 87h-95zM254 812l7 51l86 -44l77 17l94 27l-31 -69l-117 -51z" />
    <glyph glyph-name="rcaron" unicode="&#x159;" horiz-adv-x="351" 
d="M99 462h121l-19 -96h2q46 110 165 110q12 0 18 -1l-27 -136q-6 1 -24 1q-71 0 -111 -35t-56 -116l-37 -189h-122zM107 700h102l54 -95l93 95h115l-154 -154h-117z" />
    <glyph glyph-name="Sacute" unicode="&#x15a;" horiz-adv-x="517" 
d="M105 11.5q-67 26.5 -122 73.5l77 108q46 -38 94.5 -59.5t91.5 -21.5q42 0 65.5 19.5t23.5 52.5q0 20 -11 40t-41 47l-101 92q-82 74 -82 168q0 83 55.5 133.5t153.5 50.5q107 0 219 -69l-72 -113q-37 25 -76 40.5t-73 15.5q-36 0 -53 -16.5t-17 -40.5q0 -20 12 -37.5
t40 -42.5l99 -89q47 -43 67 -84.5t20 -89.5q0 -98 -61.5 -151t-167.5 -53q-74 0 -141 26.5zM402 863h145l-182 -120h-90z" />
    <glyph glyph-name="sacute" unicode="&#x15b;" horiz-adv-x="407" 
d="M192 90q23 0 36 9t13 24q0 12 -8 22t-26 21l-64 40q-41 26 -61.5 58t-20.5 74q0 64 43.5 101.5t119.5 37.5q91 0 183 -52l-52 -94q-67 42 -124 42q-45 0 -45 -32q0 -12 9 -22t31 -24l59 -36q43 -26 63 -55.5t20 -74.5q0 -69 -46 -106.5t-129 -37.5q-120 0 -213 76l63 91
q84 -62 149 -62zM367 707h147l-186 -154h-99z" />
    <glyph glyph-name="Scircumflex" unicode="&#x15c;" horiz-adv-x="517" 
d="M105 11.5q-67 26.5 -122 73.5l77 108q46 -38 94.5 -59.5t91.5 -21.5q42 0 65.5 19.5t23.5 52.5q0 20 -11 40t-41 47l-101 92q-82 74 -82 168q0 83 55.5 133.5t153.5 50.5q107 0 219 -69l-72 -113q-37 25 -76 40.5t-73 15.5q-36 0 -53 -16.5t-17 -40.5q0 -20 12 -37.5
t40 -42.5l99 -89q47 -43 67 -84.5t20 -89.5q0 -98 -61.5 -151t-167.5 -53q-74 0 -141 26.5zM287 863h122l94 -120h-103l-56 70l-89 -70h-116z" />
    <glyph glyph-name="scircumflex" unicode="&#x15d;" horiz-adv-x="407" 
d="M192 90q23 0 36 9t13 24q0 12 -8 22t-26 21l-64 40q-41 26 -61.5 58t-20.5 74q0 64 43.5 101.5t119.5 37.5q91 0 183 -52l-52 -94q-67 42 -124 42q-45 0 -45 -32q0 -12 9 -22t31 -24l59 -36q43 -26 63 -55.5t20 -74.5q0 -69 -46 -106.5t-129 -37.5q-120 0 -213 76l63 91
q84 -62 149 -62zM237 707h117l93 -154h-102l-55 94l-92 -94h-115z" />
    <glyph glyph-name="Scedilla" unicode="&#x15e;" horiz-adv-x="517" 
d="M455 278.5q20 -41.5 20 -89.5q0 -97 -61 -150t-166 -54l-13 -21q35 -11 54.5 -25.5t19.5 -41.5q0 -36 -42.5 -60.5t-120.5 -48.5l-14 34q45 20 64.5 31.5t19.5 25.5q0 12 -13 19t-41 15l44 74q-125 13 -223 98l77 108q46 -38 94.5 -59.5t91.5 -21.5q42 0 65.5 19.5
t23.5 52.5q0 20 -11 40t-41 47l-101 92q-82 74 -82 168q0 83 55.5 133.5t153.5 50.5q107 0 219 -69l-72 -113q-37 25 -76 40.5t-73 15.5q-36 0 -53 -16.5t-17 -40.5q0 -20 12 -37.5t40 -42.5l99 -89q47 -43 67 -84.5z" />
    <glyph glyph-name="scedilla" unicode="&#x15f;" horiz-adv-x="407" 
d="M348 203.5q20 -29.5 20 -74.5q0 -69 -46 -106.5t-129 -37.5h-2l-13 -21q35 -11 54.5 -25.5t19.5 -41.5q0 -36 -42.5 -60.5t-120.5 -48.5l-14 34q46 19 65 31t19 26q0 12 -13 19t-41 15l44 75q-94 12 -169 73l63 91q84 -62 149 -62q23 0 36 9t13 24q0 12 -8 22t-26 21
l-64 40q-41 26 -61.5 58t-20.5 74q0 64 43.5 101.5t119.5 37.5q91 0 183 -52l-52 -94q-67 42 -124 42q-45 0 -45 -32q0 -12 9 -22t31 -24l59 -36q43 -26 63 -55.5z" />
    <glyph glyph-name="Scaron" unicode="&#x160;" horiz-adv-x="517" 
d="M105 11.5q-67 26.5 -122 73.5l77 108q46 -38 94.5 -59.5t91.5 -21.5q42 0 65.5 19.5t23.5 52.5q0 20 -11 40t-41 47l-101 92q-82 74 -82 168q0 83 55.5 133.5t153.5 50.5q107 0 219 -69l-72 -113q-37 25 -76 40.5t-73 15.5q-36 0 -53 -16.5t-17 -40.5q0 -20 12 -37.5
t40 -42.5l99 -89q47 -43 67 -84.5t20 -89.5q0 -98 -61.5 -151t-167.5 -53q-74 0 -141 26.5zM216 812l7 51l86 -44l77 17l94 27l-31 -69l-117 -51z" />
    <glyph glyph-name="scaron" unicode="&#x161;" horiz-adv-x="407" 
d="M192 90q23 0 36 9t13 24q0 12 -8 22t-26 21l-64 40q-41 26 -61.5 58t-20.5 74q0 64 43.5 101.5t119.5 37.5q91 0 183 -52l-52 -94q-67 42 -124 42q-45 0 -45 -32q0 -12 9 -22t31 -24l59 -36q43 -26 63 -55.5t20 -74.5q0 -69 -46 -106.5t-129 -37.5q-120 0 -213 76l63 91
q84 -62 149 -62zM122 700h102l54 -95l93 95h115l-154 -154h-117z" />
    <glyph glyph-name="uni0162" unicode="&#x162;" horiz-adv-x="526" 
d="M244 0l-23 -36q35 -11 54.5 -25.5t19.5 -41.5q0 -36 -42.5 -60.5t-120.5 -48.5l-14 34q46 20 65 31.5t19 25.5q0 12 -13 19t-41 15l51 87h-45l112 579h-190l23 121h510l-23 -121h-192l-112 -579h-38z" />
    <glyph glyph-name="uni0163" unicode="&#x163;" horiz-adv-x="337" 
d="M206 165q-2 -14 -2 -19q0 -18 9.5 -25.5t32.5 -7.5h20l-23 -114h-44l-22 -35q35 -11 54.5 -25.5t19.5 -41.5q0 -36 -42.5 -60.5t-120.5 -48.5l-14 34q45 19 64.5 31t19.5 26q0 12 -13 19t-41 15l53 90q-39 8 -60.5 33t-21.5 68q0 22 4 42l42 213h-83l20 103h83l36 185
h123l-36 -185h100l-20 -103h-100z" />
    <glyph glyph-name="Tcaron" unicode="&#x164;" horiz-adv-x="526" 
d="M586 579h-192l-112 -579h-128l112 579h-190l23 121h510zM250 812l7 51l86 -44l77 17l94 27l-31 -69l-117 -51z" />
    <glyph glyph-name="tcaron" unicode="&#x165;" horiz-adv-x="432" 
d="M505 715l-23 -121l-109 -96h-45l74 96h-41l23 121h121zM264 462h100l-20 -103h-100l-38 -194q-2 -14 -2 -19q0 -18 9.5 -25.5t32.5 -7.5h20l-23 -114h-48q-57 0 -88.5 26.5t-31.5 78.5q0 22 4 42l42 213h-83l20 103h83l36 185h123z" />
    <glyph glyph-name="Tbar" unicode="&#x166;" horiz-adv-x="526" 
d="M394 579l-23 -117h125l-17 -88h-125l-72 -374h-128l72 374h-128l17 88h128l23 117h-190l23 121h510l-23 -121h-192z" />
    <glyph glyph-name="tbar" unicode="&#x167;" horiz-adv-x="342" 
d="M211 165q-2 -14 -2 -19q0 -18 9.5 -25.5t32.5 -7.5h20l-23 -114h-48q-57 0 -88.5 26.5t-31.5 78.5q0 22 4 42l42 213h-83l20 103h83l36 185h123l-36 -185h100l-20 -103h-100z" />
    <glyph glyph-name="Utilde" unicode="&#x168;" horiz-adv-x="691" 
d="M643 276q-27 -137 -107.5 -213.5t-220.5 -76.5q-123 0 -189 60t-66 169q0 39 9 84l78 401h136l-79 -407q-6 -28 -6 -51q0 -61 34.5 -93.5t96.5 -32.5q74 0 119.5 46t60.5 122l81 416h136zM486.5 742.5q-20.5 6.5 -46.5 17.5q-25 10 -39.5 15t-29.5 5q-18 0 -32.5 -9.5
t-29.5 -29.5l-41 13q22 51 52 82t75 31q22 0 43 -6.5t46 -17.5q26 -11 40 -15.5t28 -4.5q18 0 32.5 9t30.5 30l41 -13q-22 -51 -52.5 -82t-75.5 -31q-21 0 -41.5 6.5z" />
    <glyph glyph-name="utilde" unicode="&#x169;" horiz-adv-x="540" 
d="M72 22.5q-40 37.5 -40 108.5q0 23 8 71l52 260h126l-48 -244q-5 -28 -5 -46q0 -38 20 -56t55 -18q96 0 124 142l43 222h124l-90 -462h-121l13 72h-2q-29 -45 -65 -66t-86 -21q-68 0 -108 37.5zM358 570q-21 8 -49 22q-23 12 -37 17.5t-27 5.5q-33 0 -62 -46l-46 15
q23 56 54 88.5t76 32.5q24 0 46 -8t47 -22q25 -12 38 -17t26 -5q17 0 32 11.5t30 33.5l45 -15q-23 -56 -53.5 -88.5t-75.5 -32.5q-23 0 -44 8z" />
    <glyph glyph-name="Umacron" unicode="&#x16a;" horiz-adv-x="691" 
d="M643 276q-27 -137 -107.5 -213.5t-220.5 -76.5q-123 0 -189 60t-66 169q0 39 9 84l78 401h136l-79 -407q-6 -28 -6 -51q0 -61 34.5 -93.5t96.5 -32.5q74 0 119.5 46t60.5 122l81 416h136zM592 755h-306l16 83h306z" />
    <glyph glyph-name="umacron" unicode="&#x16b;" horiz-adv-x="540" 
d="M72 22.5q-40 37.5 -40 108.5q0 23 8 71l52 260h126l-48 -244q-5 -28 -5 -46q0 -38 20 -56t55 -18q96 0 124 142l43 222h124l-90 -462h-121l13 72h-2q-29 -45 -65 -66t-86 -21q-68 0 -108 37.5zM475 582h-307l17 85h306z" />
    <glyph glyph-name="Ubreve" unicode="&#x16c;" horiz-adv-x="691" 
d="M643 276q-27 -137 -107.5 -213.5t-220.5 -76.5q-123 0 -189 60t-66 169q0 39 9 84l78 401h136l-79 -407q-6 -28 -6 -51q0 -61 34.5 -93.5t96.5 -32.5q74 0 119.5 46t60.5 122l81 416h136zM346.5 767.5q-33.5 28.5 -33.5 79.5q0 10 1 16h79v-6q0 -21 14.5 -33t41.5 -12
q54 0 76 51h86q-17 -58 -62.5 -91t-109.5 -33q-59 0 -92.5 28.5z" />
    <glyph glyph-name="ubreve" unicode="&#x16d;" horiz-adv-x="540" 
d="M72 22.5q-40 37.5 -40 108.5q0 23 8 71l52 260h126l-48 -244q-5 -28 -5 -46q0 -38 20 -56t55 -18q96 0 124 142l43 222h124l-90 -462h-121l13 72h-2q-29 -45 -65 -66t-86 -21q-68 0 -108 37.5zM440.5 587.5q-44.5 -41.5 -114.5 -41.5q-59 0 -95 30.5t-36 82.5q0 12 5 39
h73q-3 -9 -3 -20q0 -26 15 -41.5t45 -15.5q38 0 57 20.5t28 56.5h82q-12 -69 -56.5 -110.5z" />
    <glyph glyph-name="Uring" unicode="&#x16e;" horiz-adv-x="691" 
d="M643 276q-27 -137 -107.5 -213.5t-220.5 -76.5q-123 0 -189 60t-66 169q0 39 9 84l78 401h136l-79 -407q-6 -28 -6 -51q0 -61 34.5 -93.5t96.5 -32.5q74 0 119.5 46t60.5 122l81 416h136zM349.5 675q-28.5 28 -28.5 74q0 55 37.5 93.5t96.5 38.5q49 0 77.5 -28.5
t28.5 -74.5q0 -55 -37.5 -93t-96.5 -38q-49 0 -77.5 28zM486 723q19 23 19 51q0 24 -14 38.5t-41 14.5q-35 0 -54 -23t-19 -51q0 -24 14.5 -38.5t40.5 -14.5q35 0 54 23z" />
    <glyph glyph-name="uring" unicode="&#x16f;" horiz-adv-x="540" 
d="M72 22.5q-40 37.5 -40 108.5q0 23 8 71l52 260h126l-48 -244q-5 -28 -5 -46q0 -38 20 -56t55 -18q96 0 124 142l43 222h124l-90 -462h-121l13 72h-2q-29 -45 -65 -66t-86 -21q-68 0 -108 37.5zM414.5 717.5q31.5 -29.5 31.5 -76.5q0 -33 -16 -62.5t-45.5 -47.5t-68.5 -18
q-49 0 -79.5 29.5t-30.5 76.5q0 34 15.5 63t44.5 47t68 18q49 0 80.5 -29.5zM279.5 672q-17.5 -22 -17.5 -50q0 -25 15 -40.5t43 -15.5q34 0 51.5 22t17.5 50q0 25 -15 40.5t-43 15.5q-34 0 -51.5 -22z" />
    <glyph glyph-name="Uhungarumlaut" unicode="&#x170;" horiz-adv-x="691" 
d="M643 276q-27 -137 -107.5 -213.5t-220.5 -76.5q-123 0 -189 60t-66 169q0 39 9 84l78 401h136l-79 -407q-6 -28 -6 -51q0 -61 34.5 -93.5t96.5 -32.5q74 0 119.5 46t60.5 122l81 416h136zM402 743h-84l135 120h101zM539 743h-84l135 120h101z" />
    <glyph glyph-name="uhungarumlaut" unicode="&#x171;" horiz-adv-x="540" 
d="M72 22.5q-40 37.5 -40 108.5q0 23 8 71l52 260h126l-48 -244q-5 -28 -5 -46q0 -38 20 -56t55 -18q96 0 124 142l43 222h124l-90 -462h-121l13 72h-2q-29 -45 -65 -66t-86 -21q-68 0 -108 37.5zM268 553h-85l138 154h105zM415 553h-85l138 154h105z" />
    <glyph glyph-name="Uogonek" unicode="&#x172;" horiz-adv-x="691" 
d="M726 700l-83 -424q-26 -134 -104 -210t-212 -80q-68 -59 -68 -86q0 -8 6.5 -13t17.5 -5q16 0 39 5v-76q-42 -10 -69 -10q-40 0 -64.5 18t-24.5 50q0 30 21 60t64 62q-92 16 -140.5 73.5t-48.5 150.5q0 39 9 84l78 401h136l-79 -407q-6 -28 -6 -51q0 -61 34.5 -93.5
t96.5 -32.5q74 0 119.5 46t60.5 122l81 416h136z" />
    <glyph glyph-name="uogonek" unicode="&#x173;" horiz-adv-x="540" 
d="M298 -100q0 -8 6.5 -13t17.5 -5q16 0 39 5v-76q-42 -10 -69 -10q-40 0 -64.5 18t-24.5 50q0 36 29.5 71.5t90.5 75.5l10 56h-2q-29 -45 -65 -66t-86 -21q-68 0 -108 37.5t-40 108.5q0 23 8 71l52 260h126l-48 -244q-5 -28 -5 -46q0 -38 20 -56t55 -18q96 0 124 142
l43 222h124l-90 -462h-59q-84 -72 -84 -100z" />
    <glyph glyph-name="Wcircumflex" unicode="&#x174;" horiz-adv-x="1039" 
d="M752 0h-119l-61 490h-2l-251 -490h-118l-91 700h141l43 -493h2l249 493h119l60 -493h2l232 493h153zM572 863h122l94 -120h-103l-56 70l-89 -70h-116z" />
    <glyph glyph-name="wcircumflex" unicode="&#x175;" horiz-adv-x="774" 
d="M811 462l-252 -462h-109l-47 303l-165 -303h-108l-71 462h122l31 -302l159 302h116l41 -303l150 303h133zM404 707h117l93 -154h-102l-55 94l-92 -94h-115z" />
    <glyph glyph-name="Ycircumflex" unicode="&#x176;" horiz-adv-x="597" 
d="M369 267l-52 -267h-128l52 267l-150 433h140l87 -307h2l209 307h159zM343 863h122l94 -120h-103l-56 70l-89 -70h-116z" />
    <glyph glyph-name="ycircumflex" unicode="&#x177;" horiz-adv-x="507" 
d="M547 462l-406 -663h-131l158 253l-118 410h132l65 -278l164 278h136zM269 707h117l93 -154h-102l-55 94l-92 -94h-115z" />
    <glyph glyph-name="Ydieresis" unicode="&#x178;" horiz-adv-x="597" 
d="M369 267l-52 -267h-128l52 267l-150 433h140l87 -307h2l209 307h159zM240 852h119l-21 -109h-119zM448 852h118l-20 -109h-119z" />
    <glyph glyph-name="Zacute" unicode="&#x179;" horiz-adv-x="556" 
d="M590 580l-429 -460h352l-23 -120h-514l23 120l430 460h-312l24 120h472zM459 863h145l-182 -120h-90z" />
    <glyph glyph-name="zacute" unicode="&#x17a;" horiz-adv-x="443" 
d="M432 364l-282 -256h249l-21 -108h-402l19 99l281 255h-218l21 108h372zM366 707h147l-186 -154h-99z" />
    <glyph glyph-name="Zdotaccent" unicode="&#x17b;" horiz-adv-x="556" 
d="M590 580l-429 -460h352l-23 -120h-514l23 120l430 460h-312l24 120h472zM447 743h-123l22 115h123z" />
    <glyph glyph-name="zdotaccent" unicode="&#x17c;" horiz-adv-x="443" 
d="M432 364l-282 -256h249l-21 -108h-402l19 99l281 255h-218l21 108h372zM350 559h-140l26 135h140z" />
    <glyph glyph-name="Zcaron" unicode="&#x17d;" horiz-adv-x="556" 
d="M590 580l-429 -460h352l-23 -120h-514l23 120l430 460h-312l24 120h472zM273 812l7 51l86 -44l77 17l94 27l-31 -69l-117 -51z" />
    <glyph glyph-name="zcaron" unicode="&#x17e;" horiz-adv-x="443" 
d="M432 364l-282 -256h249l-21 -108h-402l19 99l281 255h-218l21 108h372zM121 700h102l54 -95l93 95h115l-154 -154h-117z" />
    <glyph glyph-name="florin" unicode="&#x192;" horiz-adv-x="403" 
d="M337.5 555q-26.5 -20 -35.5 -68l-5 -25h120l-6 -30h-120l-87 -449q-19 -98 -70.5 -140.5t-132.5 -42.5h-64l21 110h40q32 0 55 18.5t31 59.5l87 444h-98l6 30h98l6 32q37 191 220 191h60l-21 -110h-34q-44 0 -70.5 -20z" />
    <glyph glyph-name="AEacute" unicode="&#x1fc;" horiz-adv-x="969" 
d="M729 582l-28 -142h239l-22 -118h-239l-40 -204h269l-23 -118h-393l31 159h-265l-131 -159h-169l594 700h465l-23 -118h-265zM545 275l60 306l-252 -306h192zM879 863h145l-182 -120h-90z" />
    <glyph glyph-name="aeacute" unicode="&#x1fd;" horiz-adv-x="830" 
d="M53.5 25q-50.5 40 -50.5 114q0 49 23.5 88t68 61t105.5 22q49 0 85.5 -14.5t58.5 -41.5h2q11 41 11 62q0 28 -23.5 44t-68.5 16q-67 0 -149 -22l-19 99q45 11 93 17.5t86 6.5q62 0 102 -19.5t53 -66.5h2q28 40 75 63t106 23q84 0 138 -48.5t54 -138.5q0 -27 -11 -85h-342
q-1 -4 -1 -15q0 -39 29 -68t86 -29q77 0 148 58l53 -86q-94 -80 -204 -80q-68 0 -116 28t-67 74h-2q-34 -52 -83.5 -77t-110.5 -25q-81 0 -131.5 40zM683 285q1 6 1 16q0 36 -23 56t-65 20q-46 0 -77.5 -24.5t-46.5 -67.5h211zM300 105q29 22 29 55q0 30 -24 45.5t-64 15.5
q-48 0 -76.5 -20.5t-28.5 -54.5q0 -31 23.5 -47t63.5 -16q48 0 77 22zM555 707h147l-186 -154h-99z" />
    <glyph glyph-name="Oslashacute" unicode="&#x1fe;" horiz-adv-x="814" 
d="M782.5 517.5q24.5 -60.5 24.5 -134.5q0 -110 -51 -201t-143.5 -144t-210.5 -53q-131 0 -222 66l-62 -67l-33 29l62 66q-45 43 -69 104t-24 134q0 110 51 201t143 144t210 53q65 0 121.5 -17t100.5 -49l62 66l32 -29l-61 -65q45 -43 69.5 -103.5zM240 179l347 370
q-56 38 -135 38q-82 0 -141.5 -37t-90 -99t-30.5 -135q0 -84 50 -137zM549.5 150q59.5 37 90 99t30.5 135q0 82 -50 137l-347 -371q57 -37 135 -37q82 0 141.5 37zM563 863h145l-182 -120h-90z" />
    <glyph glyph-name="oslashacute" unicode="&#x1ff;" horiz-adv-x="565" 
d="M539 257q0 -77 -35 -139t-98.5 -97.5t-144.5 -35.5q-102 0 -164 53l-58 -54l-26 26l58 54q-45 56 -45 141q0 77 35 139t98.5 97.5t144.5 35.5q95 0 156 -46l50 47l27 -27l-49 -46q51 -57 51 -148zM166 154l200 189q-28 18 -71 18q-64 0 -103.5 -42.5t-39.5 -105.5
q0 -34 14 -59zM373.5 143.5q39.5 42.5 39.5 105.5q0 40 -19 68l-204 -192q30 -24 80 -24q64 0 103.5 42.5zM429 707h147l-186 -154h-99z" />
    <glyph glyph-name="Scommaaccent" unicode="&#x218;" horiz-adv-x="517" 
d="M105 11.5q-67 26.5 -122 73.5l77 108q46 -38 94.5 -59.5t91.5 -21.5q42 0 65.5 19.5t23.5 52.5q0 20 -11 40t-41 47l-101 92q-82 74 -82 168q0 83 55.5 133.5t153.5 50.5q107 0 219 -69l-72 -113q-37 25 -76 40.5t-73 15.5q-36 0 -53 -16.5t-17 -40.5q0 -20 12 -37.5
t40 -42.5l99 -89q47 -43 67 -84.5t20 -89.5q0 -98 -61.5 -151t-167.5 -53q-74 0 -141 26.5zM287 -47l-19 -95l-82 -68h-43l55 68h-46l19 95h116z" />
    <glyph glyph-name="scommaaccent" unicode="&#x219;" horiz-adv-x="407" 
d="M192 90q23 0 36 9t13 24q0 12 -8 22t-26 21l-64 40q-41 26 -61.5 58t-20.5 74q0 64 43.5 101.5t119.5 37.5q91 0 183 -52l-52 -94q-67 42 -124 42q-45 0 -45 -32q0 -12 9 -22t31 -24l59 -36q43 -26 63 -55.5t20 -74.5q0 -69 -46 -106.5t-129 -37.5q-120 0 -213 76l63 91
q84 -62 149 -62zM230 -47l-19 -95l-82 -68h-43l55 68h-46l19 95h116z" />
    <glyph glyph-name="uni021A" unicode="&#x21a;" horiz-adv-x="526" 
d="M586 579h-192l-112 -579h-128l112 579h-190l23 121h510zM273 -47l-19 -95l-82 -68h-43l55 68h-46l19 95h116z" />
    <glyph glyph-name="uni021B" unicode="&#x21b;" horiz-adv-x="337" 
d="M206 165q-2 -14 -2 -19q0 -18 9.5 -25.5t32.5 -7.5h20l-23 -114h-48q-57 0 -88.5 26.5t-31.5 78.5q0 22 4 42l42 213h-83l20 103h83l36 185h123l-36 -185h100l-20 -103h-100zM229 -47l-19 -95l-82 -68h-43l55 68h-46l19 95h116z" />
    <glyph glyph-name="uni0237" unicode="&#x237;" horiz-adv-x="233" 
d="M-60 -90q29 0 44.5 14t20.5 43l96 495h124l-100 -512q-15 -80 -63 -116.5t-127 -36.5h-47l22 113h30z" />
    <glyph glyph-name="uni02BC" unicode="&#x2bc;" horiz-adv-x="195" 
d="M261 715l-23 -121l-123 -152h-45l90 152h-43l23 121h121z" />
    <glyph glyph-name="circumflex" unicode="&#x2c6;" horiz-adv-x="464" 
d="M267 707h117l93 -154h-102l-55 94l-92 -94h-115z" />
    <glyph glyph-name="caron" unicode="&#x2c7;" horiz-adv-x="464" 
d="M141 700h102l54 -95l93 95h115l-154 -154h-117z" />
    <glyph glyph-name="breve" unicode="&#x2d8;" horiz-adv-x="397" 
d="M381.5 587.5q-44.5 -41.5 -114.5 -41.5q-59 0 -95 30.5t-36 82.5q0 12 5 39h73q-3 -9 -3 -20q0 -26 15 -41.5t45 -15.5q38 0 57 20.5t28 56.5h82q-12 -69 -56.5 -110.5z" />
    <glyph glyph-name="dotaccent" unicode="&#x2d9;" horiz-adv-x="240" 
d="M254 559h-140l26 135h140z" />
    <glyph glyph-name="ring" unicode="&#x2da;" horiz-adv-x="340" 
d="M336.5 717.5q31.5 -29.5 31.5 -76.5q0 -33 -16 -62.5t-45.5 -47.5t-68.5 -18q-49 0 -79.5 29.5t-30.5 76.5q0 34 15.5 63t44.5 47t68 18q49 0 80.5 -29.5zM201.5 672q-17.5 -22 -17.5 -50q0 -25 15 -40.5t43 -15.5q34 0 51.5 22t17.5 50q0 25 -15 40.5t-43 15.5
q-34 0 -51.5 -22z" />
    <glyph glyph-name="ogonek" unicode="&#x2db;" horiz-adv-x="271" 
d="M172 10q-96 -79 -96 -110q0 -8 6.5 -13t17.5 -5q16 0 39 5v-76q-42 -10 -69 -10q-40 0 -64.5 18t-24.5 50q0 38 32.5 75.5t100.5 79.5z" />
    <glyph glyph-name="tilde" unicode="&#x2dc;" horiz-adv-x="474" 
d="M339 570q-21 8 -49 22q-23 12 -37 17.5t-27 5.5q-33 0 -62 -46l-46 15q23 56 54 88.5t76 32.5q24 0 46 -8t47 -22q25 -12 38 -17t26 -5q17 0 32 11.5t30 33.5l45 -15q-23 -56 -53.5 -88.5t-75.5 -32.5q-23 0 -44 8z" />
    <glyph glyph-name="hungarumlaut" unicode="&#x2dd;" horiz-adv-x="460" 
d="M198 553h-85l138 154h105zM345 553h-85l138 154h105z" />
    <glyph glyph-name="gravecomb" unicode="&#x300;" horiz-adv-x="0" 
d="M13 553h-86l-123 154h136z" />
    <glyph glyph-name="acutecomb" unicode="&#x301;" horiz-adv-x="0" 
d="M-104 707h147l-186 -154h-99z" />
    <glyph glyph-name="uni0302" unicode="&#x302;" horiz-adv-x="0" 
d="M-197 707h117l93 -154h-102l-55 94l-92 -94h-115z" />
    <glyph glyph-name="tildecomb" unicode="&#x303;" horiz-adv-x="0" 
d="M-135 570q-21 8 -49 22q-23 12 -37 17.5t-27 5.5q-33 0 -62 -46l-46 15q23 56 54 88.5t76 32.5q24 0 46 -8t47 -22q25 -12 38 -17t26 -5q17 0 32 11.5t30 33.5l45 -15q-23 -56 -53.5 -88.5t-75.5 -32.5q-23 0 -44 8z" />
    <glyph glyph-name="uni0304" unicode="&#x304;" horiz-adv-x="0" 
d="M19 582h-307l17 85h306z" />
    <glyph glyph-name="uni0306" unicode="&#x306;" horiz-adv-x="0" 
d="M-15.5 587.5q-44.5 -41.5 -114.5 -41.5q-59 0 -95 30.5t-36 82.5q0 12 5 39h73q-3 -9 -3 -20q0 -26 15 -41.5t45 -15.5q38 0 57 20.5t28 56.5h82q-12 -69 -56.5 -110.5z" />
    <glyph glyph-name="uni0307" unicode="&#x307;" horiz-adv-x="0" 
d="M14 559h-140l26 135h140z" />
    <glyph glyph-name="uni0308" unicode="&#x308;" horiz-adv-x="0" 
d="M-261 690h112l-25 -127h-111zM-73 690h112l-25 -127h-111z" />
    <glyph glyph-name="uni030A" unicode="&#x30a;" horiz-adv-x="0" 
d="M-3.5 717.5q31.5 -29.5 31.5 -76.5q0 -33 -16 -62.5t-45.5 -47.5t-68.5 -18q-49 0 -79.5 29.5t-30.5 76.5q0 34 15.5 63t44.5 47t68 18q49 0 80.5 -29.5zM-138.5 672q-17.5 -22 -17.5 -50q0 -25 15 -40.5t43 -15.5q34 0 51.5 22t17.5 50q0 25 -15 40.5t-43 15.5
q-34 0 -51.5 -22z" />
    <glyph glyph-name="uni030B" unicode="&#x30b;" horiz-adv-x="0" 
d="M-262 553h-85l138 154h105zM-115 553h-85l138 154h105z" />
    <glyph glyph-name="uni030C" unicode="&#x30c;" horiz-adv-x="0" 
d="M-323 700h102l54 -95l93 95h115l-154 -154h-117z" />
    <glyph glyph-name="uni0312" unicode="&#x312;" horiz-adv-x="0" 
d="M-18 635h46l-19 -95h-116l19 95l82 68h43z" />
    <glyph glyph-name="uni0326" unicode="&#x326;" horiz-adv-x="0" 
d="M-104 -47l-19 -95l-82 -68h-43l55 68h-46l19 95h116z" />
    <glyph glyph-name="uni0327" unicode="&#x327;" horiz-adv-x="0" 
d="M-293 -178q45 19 64.5 31t19.5 26q0 12 -13 19t-41 15l72 122h46l-45 -71q35 -11 54.5 -25.5t19.5 -41.5q0 -36 -42.5 -60.5t-120.5 -48.5z" />
    <glyph glyph-name="uni0328" unicode="&#x328;" horiz-adv-x="0" 
d="M-99 10q-96 -79 -96 -110q0 -8 6.5 -13t17.5 -5q16 0 39 5v-76q-42 -10 -69 -10q-40 0 -64.5 18t-24.5 50q0 38 32.5 75.5t100.5 79.5z" />
    <glyph glyph-name="uni0394" unicode="&#x394;" horiz-adv-x="628" 
d="M563 0h-588l250 700h88zM121 70h296l-148 453z" />
    <glyph glyph-name="uni03A9" unicode="&#x3a9;" horiz-adv-x="818" 
d="M592 674q77 -41 118.5 -114t41.5 -167q0 -71 -27 -128.5t-73.5 -96t-102.5 -54.5v-3h191v-111h-288v178q82 15 130 72.5t48 138.5q0 95 -58 152t-160 57t-160 -57t-58 -152q0 -81 48 -138.5t130 -72.5v-178h-288v111h191v3q-56 16 -102.5 54.5t-73.5 96t-27 128.5
q0 94 41.5 167t118.5 114t180 41t180 -41z" />
    <glyph glyph-name="uni03BC" unicode="&#x3bc;" horiz-adv-x="539" 
d="M530 462l-89 -462h-121l13 72h-2q-30 -45 -66 -66t-85 -21q-38 0 -64 15l-39 -200h-115l130 662h125l-47 -244q-5 -28 -5 -46q0 -38 20 -56t55 -18q96 0 124 142l43 222h123z" />
    <glyph glyph-name="pi" unicode="&#x3c0;" horiz-adv-x="620" 
d="M616 365h-99l-71 -365h-112l71 365h-115l-157 -365h-114l158 364q-67 -1 -124 -19l21 112q31 10 66 15t85 5h413z" />
    <glyph glyph-name="uni0E3F" unicode="&#xe3f;" horiz-adv-x="530" 
d="M494 398.5q-41 -46.5 -110 -60.5l-1 -3q48 -8 74 -42.5t26 -91.5q0 -94 -69 -147.5t-185 -53.5h-10l-17 -87h-28l17 87h-200l131 675h200l17 87h28l-17 -87q87 -2 136 -42.5t49 -118.5q0 -69 -41 -115.5zM221 565l-34 -176h80l34 176h-80zM378 416.5q30 25.5 30 70.5
q0 37 -22 56.5t-57 21.5l-34 -176q53 2 83 27.5zM212 110l34 176h-80l-34 -176h80zM326 135q33 25 33 71q0 37 -22.5 57t-62.5 23l-34 -176q53 0 86 25z" />
    <glyph glyph-name="Wgrave" unicode="&#x1e80;" horiz-adv-x="1039" 
d="M752 0h-119l-61 490h-2l-251 -490h-118l-91 700h141l43 -493h2l249 493h119l60 -493h2l232 493h153zM658 743h-82l-135 120h140z" />
    <glyph glyph-name="wgrave" unicode="&#x1e81;" horiz-adv-x="774" 
d="M811 462l-252 -462h-109l-47 303l-165 -303h-108l-71 462h122l31 -302l159 302h116l41 -303l150 303h133zM474 553h-86l-123 154h136z" />
    <glyph glyph-name="Wacute" unicode="&#x1e82;" horiz-adv-x="1039" 
d="M752 0h-119l-61 490h-2l-251 -490h-118l-91 700h141l43 -493h2l249 493h119l60 -493h2l232 493h153zM687 863h145l-182 -120h-90z" />
    <glyph glyph-name="wacute" unicode="&#x1e83;" horiz-adv-x="774" 
d="M811 462l-252 -462h-109l-47 303l-165 -303h-108l-71 462h122l31 -302l159 302h116l41 -303l150 303h133zM534 707h147l-186 -154h-99z" />
    <glyph glyph-name="Wdieresis" unicode="&#x1e84;" horiz-adv-x="1039" 
d="M752 0h-119l-61 490h-2l-251 -490h-118l-91 700h141l43 -493h2l249 493h119l60 -493h2l232 493h153zM469 852h119l-21 -109h-119zM677 852h118l-20 -109h-119z" />
    <glyph glyph-name="wdieresis" unicode="&#x1e85;" horiz-adv-x="774" 
d="M811 462l-252 -462h-109l-47 303l-165 -303h-108l-71 462h122l31 -302l159 302h116l41 -303l150 303h133zM317 690h112l-25 -127h-111zM505 690h112l-25 -127h-111z" />
    <glyph glyph-name="Ygrave" unicode="&#x1ef2;" horiz-adv-x="597" 
d="M369 267l-52 -267h-128l52 267l-150 433h140l87 -307h2l209 307h159zM429 743h-82l-135 120h140z" />
    <glyph glyph-name="ygrave" unicode="&#x1ef3;" horiz-adv-x="507" 
d="M547 462l-406 -663h-131l158 253l-118 410h132l65 -278l164 278h136zM339 553h-86l-123 154h136z" />
    <glyph glyph-name="endash" unicode="&#x2013;" horiz-adv-x="743" 
d="M695 218h-652l20 102h652z" />
    <glyph glyph-name="emdash" unicode="&#x2014;" horiz-adv-x="1154" 
d="M1102 220h-1054l20 100h1054z" />
    <glyph glyph-name="quoteleft" unicode="&#x2018;" horiz-adv-x="195" 
d="M174 580h43l-23 -121h-121l23 121l123 152h45z" />
    <glyph glyph-name="quoteright" unicode="&#x2019;" horiz-adv-x="195" 
d="M261 715l-23 -121l-123 -152h-45l90 152h-43l23 121h121z" />
    <glyph glyph-name="quotesinglbase" unicode="&#x201a;" horiz-adv-x="196" 
d="M146 121l-23 -121l-123 -152h-45l90 152h-43l23 121h121z" />
    <glyph glyph-name="quotedblleft" unicode="&#x201c;" horiz-adv-x="348" 
d="M174 580h43l-23 -121h-121l23 121l123 152h45zM326 580h43l-23 -121h-121l23 121l123 152h45z" />
    <glyph glyph-name="quotedblright" unicode="&#x201d;" horiz-adv-x="348" 
d="M261 715l-23 -121l-123 -152h-45l90 152h-43l23 121h121zM414 715l-23 -121l-123 -152h-45l90 152h-43l23 121h121z" />
    <glyph glyph-name="quotedblbase" unicode="&#x201e;" horiz-adv-x="355" 
d="M146 121l-23 -121l-123 -152h-45l90 152h-43l23 121h121zM305 121l-23 -121l-123 -152h-45l90 152h-43l23 121h121z" />
    <glyph glyph-name="dagger" unicode="&#x2020;" horiz-adv-x="524" 
d="M503 384h-158l-93 -477h-104l93 477h-161l18 96h161l43 220h104l-43 -220h159z" />
    <glyph glyph-name="daggerdbl" unicode="&#x2021;" horiz-adv-x="524" 
d="M348 403l-35 -181h159l-19 -96h-158l-43 -219h-104l43 219h-161l18 96h161l35 181h-160l19 97h160l39 200h104l-39 -200h159l-18 -97h-160z" />
    <glyph glyph-name="bullet" unicode="&#x2022;" horiz-adv-x="375" 
d="M299 451.5q34 -34.5 34 -85.5q0 -52 -34 -86t-86 -34q-51 0 -85.5 34t-34.5 86q0 51 34.5 85.5t85.5 34.5q52 0 86 -34.5z" />
    <glyph glyph-name="ellipsis" unicode="&#x2026;" horiz-adv-x="707" 
d="M30 139h139l-27 -139h-138zM502 139h139l-27 -139h-138zM266 139h139l-27 -139h-138z" />
    <glyph glyph-name="perthousand" unicode="&#x2030;" horiz-adv-x="1180" 
d="M154.5 418.5q-44.5 37.5 -44.5 105.5q0 46 22 87.5t63 67.5t95 26q65 0 109.5 -38t44.5 -105q0 -46 -22 -88t-62.5 -67.5t-94.5 -25.5q-66 0 -110.5 37.5zM635 675h67l-499 -675h-67zM330 461.5q25 17.5 37 44t12 53.5q0 39 -26 61t-67 22q-37 0 -62 -17.5t-37 -44
t-12 -53.5q0 -40 26 -61.5t67 -21.5q37 0 62 17.5zM460.5 33q-44.5 38 -44.5 105q0 46 22 88t62.5 67.5t94.5 25.5q66 0 110.5 -37.5t44.5 -105.5q0 -46 -22 -87.5t-63 -67.5t-95 -26q-65 0 -109.5 38zM826 32.5q-44 37.5 -44 103.5q0 47 23 89t64.5 68t94.5 26
q65 0 108.5 -37.5t43.5 -103.5q0 -47 -22.5 -89t-64 -68t-95.5 -26q-64 0 -108 37.5zM636 75.5q25 17.5 37 44t12 53.5q0 40 -26 61.5t-67 21.5q-37 0 -62 -17.5t-37 -44t-12 -53.5q0 -39 26 -61t67 -22q37 0 62 17.5zM998 75q26 17 39.5 44t13.5 56q0 40 -26 60.5t-64 20.5
q-35 0 -61 -17t-39.5 -44t-13.5 -56q0 -40 26 -60.5t64 -20.5q35 0 61 17z" />
    <glyph glyph-name="guilsinglleft" unicode="&#x2039;" horiz-adv-x="317" 
d="M19 236l187 166h134l-200 -175l118 -158h-117z" />
    <glyph glyph-name="guilsinglright" unicode="&#x203a;" horiz-adv-x="317" 
d="M299 231l-187 -166h-134l200 175l-118 158h117z" />
    <glyph glyph-name="fraction" unicode="&#x2044;" horiz-adv-x="95" 
d="M284 675h67l-499 -675h-67z" />
    <glyph glyph-name="uni2070" unicode="&#x2070;" horiz-adv-x="471" 
d="M451 754q47 -49 47 -147q0 -71 -24.5 -132.5t-73.5 -99t-119 -37.5q-81 0 -128.5 49t-47.5 147q0 71 24.5 132.5t74 99t119.5 37.5q81 0 128 -49zM239.5 650q-24.5 -53 -24.5 -114q0 -98 69 -98q55 0 80 53t25 114q0 98 -70 98q-55 0 -79.5 -53z" />
    <glyph glyph-name="uni2074" unicode="&#x2074;" horiz-adv-x="419" 
d="M406 517h46l-19 -93h-45l-15 -76h-102l15 76h-231l16 80l273 290h115zM303 517l30 154h-3l-145 -154h118z" />
    <glyph glyph-name="uni2075" unicode="&#x2075;" horiz-adv-x="385" 
d="M376.5 607q34.5 -35 34.5 -101q0 -78 -51 -123t-140 -45q-97 0 -164 59l65 81q18 -18 45 -28.5t55 -10.5q38 0 61.5 18t23.5 49q0 25 -15 40t-41 15q-19 0 -36.5 -8.5t-27.5 -23.5h-85l73 265h252l-19 -96l-168 -1l-21 -76h2q12 9 30 15t39 6q53 0 87.5 -35z" />
    <glyph glyph-name="uni2076" unicode="&#x2076;" horiz-adv-x="400" 
d="M123.5 377q-45.5 39 -45.5 111q0 61 29 109t93 112l94 92h137l-203 -180l2 -1q36 32 84 32q50 0 85 -35.5t35 -101.5q0 -45 -21.5 -85.5t-64.5 -66t-104 -25.5q-75 0 -120.5 39zM305.5 458q19.5 22 19.5 50q0 25 -17 41t-47 16q-36 0 -55.5 -22.5t-19.5 -51.5
q0 -24 17 -39.5t47 -15.5q36 0 55.5 22z" />
    <glyph glyph-name="uni2077" unicode="&#x2077;" horiz-adv-x="341" 
d="M415 695l-248 -347h-122l248 340h-193l20 106h314z" />
    <glyph glyph-name="uni2078" unicode="&#x2078;" horiz-adv-x="428" 
d="M125 371.5q-43 33.5 -43 88.5q0 49 31.5 81t82.5 41l1 2q-29 9 -44 32t-15 55q0 58 47.5 95t128.5 37q73 0 113 -30t40 -80q0 -40 -26 -69.5t-70 -39.5l-1 -2q33 -10 51.5 -35t18.5 -63q0 -41 -22.5 -74t-66.5 -52.5t-104 -19.5q-79 0 -122 33.5zM338.5 639
q17.5 14 17.5 36q0 20 -13.5 30t-36.5 10q-28 0 -45 -14t-17 -36q0 -20 13.5 -30t35.5 -10q28 0 45.5 14zM311.5 449.5q19.5 17.5 19.5 42.5q0 22 -16 34.5t-44 12.5q-36 0 -56.5 -17.5t-20.5 -42.5q0 -22 16.5 -34.5t45.5 -12.5q36 0 55.5 17.5z" />
    <glyph glyph-name="uni2079" unicode="&#x2079;" horiz-adv-x="396" 
d="M299 516l-2 1q-41 -28 -81 -28q-30 0 -56.5 17.5t-42.5 48.5t-16 71q0 47 22 87.5t65 65t102 24.5q71 0 118.5 -38t47.5 -115q0 -63 -34 -113t-109 -117l-81 -72h-132zM329 598q20 22 20 50q0 26 -16.5 41.5t-47.5 15.5q-36 0 -56 -22.5t-20 -51.5q0 -24 17 -39.5
t47 -15.5q36 0 56 22z" />
    <glyph glyph-name="uni2080" unicode="&#x2080;" horiz-adv-x="471" 
d="M362 296q47 -49 47 -147q0 -71 -24.5 -132.5t-73.5 -99t-119 -37.5q-81 0 -128.5 49t-47.5 147q0 71 24.5 132.5t74 99t119.5 37.5q81 0 128 -49zM150.5 192q-24.5 -53 -24.5 -114q0 -98 69 -98q55 0 80 53t25 114q0 98 -70 98q-55 0 -79.5 -53z" />
    <glyph glyph-name="uni2081" unicode="&#x2081;" horiz-adv-x="303" 
d="M137 -110h-111l66 341h-21l20 105h132z" />
    <glyph glyph-name="uni2082" unicode="&#x2082;" horiz-adv-x="412" 
d="M324 312.5q42 -33.5 42 -93.5q0 -47 -28.5 -84t-85.5 -75l-102 -69h174l-20 -101h-331l18 91l182 133q45 32 63 51.5t18 39.5q0 21 -15 31.5t-41 10.5q-27 0 -45 -13.5t-22 -39.5h-108q25 152 183 152q76 0 118 -33.5z" />
    <glyph glyph-name="uni2083" unicode="&#x2083;" horiz-adv-x="400" 
d="M26 -91q-45 29 -45 86q0 16 3 32h105l-1 -10q0 -19 16 -28.5t45 -9.5q37 0 56 14.5t19 39.5t-20.5 36t-66.5 11l14 76q48 1 69 14.5t21 38.5q0 39 -52 39q-27 0 -44 -10.5t-19 -29.5h-104q7 64 52 100.5t123 36.5q69 0 112 -29.5t43 -84.5q0 -42 -26.5 -68.5t-73.5 -34.5
v-2q78 -14 78 -95q0 -63 -45 -107t-142 -44q-72 0 -117 29z" />
    <glyph glyph-name="uni2084" unicode="&#x2084;" horiz-adv-x="419" 
d="M317 59h46l-19 -93h-45l-15 -76h-102l15 76h-231l16 80l273 290h115zM214 59l30 154h-3l-145 -154h118z" />
    <glyph glyph-name="uni2085" unicode="&#x2085;" horiz-adv-x="385" 
d="M287.5 149q34.5 -35 34.5 -101q0 -78 -51 -123t-140 -45q-97 0 -164 59l65 81q18 -18 45 -28.5t55 -10.5q38 0 61.5 18t23.5 49q0 25 -15 40t-41 15q-19 0 -36.5 -8.5t-27.5 -23.5h-85l73 265h252l-19 -96l-168 -1l-21 -76h2q12 9 30 15t39 6q53 0 87.5 -35z" />
    <glyph glyph-name="uni2086" unicode="&#x2086;" horiz-adv-x="400" 
d="M34.5 -81q-45.5 39 -45.5 111q0 61 29 109t93 112l94 92h137l-203 -180l2 -1q36 32 84 32q50 0 85 -35.5t35 -101.5q0 -45 -21.5 -85.5t-64.5 -66t-104 -25.5q-75 0 -120.5 39zM216.5 0q19.5 22 19.5 50q0 25 -17 41t-47 16q-36 0 -55.5 -22.5t-19.5 -51.5
q0 -24 17 -39.5t47 -15.5q36 0 55.5 22z" />
    <glyph glyph-name="uni2087" unicode="&#x2087;" horiz-adv-x="341" 
d="M326 237l-248 -347h-122l248 340h-193l20 106h314z" />
    <glyph glyph-name="uni2088" unicode="&#x2088;" horiz-adv-x="428" 
d="M36 -86.5q-43 33.5 -43 88.5q0 49 31.5 81t82.5 41l1 2q-29 9 -44 32t-15 55q0 58 47.5 95t128.5 37q73 0 113 -30t40 -80q0 -40 -26 -69.5t-70 -39.5l-1 -2q33 -10 51.5 -35t18.5 -63q0 -41 -22.5 -74t-66.5 -52.5t-104 -19.5q-79 0 -122 33.5zM249.5 181
q17.5 14 17.5 36q0 20 -13.5 30t-36.5 10q-28 0 -45 -14t-17 -36q0 -20 13.5 -30t35.5 -10q28 0 45.5 14zM222.5 -8.5q19.5 17.5 19.5 42.5q0 22 -16 34.5t-44 12.5q-36 0 -56.5 -17.5t-20.5 -42.5q0 -22 16.5 -34.5t45.5 -12.5q36 0 55.5 17.5z" />
    <glyph glyph-name="uni2089" unicode="&#x2089;" horiz-adv-x="396" 
d="M210 58l-2 1q-41 -28 -81 -28q-30 0 -56.5 17.5t-42.5 48.5t-16 71q0 47 22 87.5t65 65t102 24.5q71 0 118.5 -38t47.5 -115q0 -63 -34 -113t-109 -117l-81 -72h-132zM240 140q20 22 20 50q0 26 -16.5 41.5t-47.5 15.5q-36 0 -56 -22.5t-20 -51.5q0 -24 17 -39.5
t47 -15.5q36 0 56 22z" />
    <glyph glyph-name="TRY" unicode="&#x20a4;" horiz-adv-x="593" 
d="M575 327q-27 -156 -128 -241.5t-254 -85.5h-98l57 292l-123 -49l6 31l123 49l11 56l-123 -49l6 31l123 49l51 265h121l-42 -212l206 82l-6 -31l-206 -82l-11 -56l206 82l-6 -31l-206 -82l-42 -217q82 0 138 53t73 146h124z" />
    <glyph glyph-name="uni20A9" unicode="&#x20a9;" horiz-adv-x="989" 
d="M926 431h82l-6 -30h-90l-31 -68h108l-6 -30h-115l-137 -303h-134l-25 303h-128l-143 -303h-133l-19 303h-115l6 30h107l-4 68h-90l6 30h82l-17 269h135l4 -269h126l126 269h134l22 -269h126l108 269h142zM505 431h56l-8 95h-3zM264 333h79l32 68h-112zM569 333l-6 68h-72
l-32 -68h110zM785 401h-112l6 -68h79zM329 303h-65l2 -129h2zM746 303h-65l11 -129h2z" />
    <glyph glyph-name="Euro" unicode="&#x20ac;" horiz-adv-x="662" 
d="M348 524.5q-60 -45.5 -86 -122.5h300l-20 -30h-288q-7 -31 -8 -59h263l-20 -30h-243q3 -87 46.5 -132t120.5 -45q76 0 168 39l-25 -131q-75 -28 -153 -28q-141 0 -213 81.5t-74 215.5h-101l21 30h81q0 31 6 59h-86l21 30h70q30 128 123 208t247 80q120 0 212 -57
l-66 -107q-36 21 -70.5 32.5t-78.5 11.5q-87 0 -147 -45.5z" />
    <glyph glyph-name="uni20AE" unicode="&#x20ae;" horiz-adv-x="551" 
d="M398 565l-24 -123l132 60l-6 -31l-132 -60l-11 -56l132 60l-6 -31l-132 -60l-63 -324h-120l51 264l-131 -60l6 31l131 60l11 56l-132 -60l6 31l132 60l36 183h-193l21 110h507l-22 -110h-193z" />
    <glyph glyph-name="uni20B4" unicode="&#x20b4;" horiz-adv-x="537" 
d="M403 361l-55 -34h184l-6 -30h-227l-29 -18q-53 -33 -76 -58t-23 -53q0 -30 24.5 -45.5t68.5 -15.5q43 0 90 12.5t112 40.5l-25 -132q-99 -43 -197 -43q-95 0 -150 41t-55 127q0 44 16 79t49 65h-67l6 30h98q32 23 56 37l51 31h-192l6 30h235l41 25q69 43 69 80
q0 21 -20 31.5t-53 10.5q-76 0 -185 -36l23 122q54 16 96.5 24t85.5 8q85 0 135 -34t50 -108q0 -70 -51 -123h63l-6 -30h-91q-20 -15 -51 -34z" />
    <glyph glyph-name="uni20B8" unicode="&#x20b8;" horiz-adv-x="543" 
d="M609 675l-22 -110h-502l21 110h503zM74 508h502l-21 -110h-191l-77 -398h-121l78 398h-191z" />
    <glyph glyph-name="uni20B9" unicode="&#x20b9;" horiz-adv-x="523" 
d="M541 645h-171q38 -23 59 -61.5t21 -89.5v-2h83l-28 -30h-57q-11 -83 -78 -134.5t-171 -51.5h-7l186 -276h-151l-178 276l22 112h128q53 0 82 20.5t36 53.5h-232l6 30h229q-1 36 -26 53.5t-69 17.5h-120l22 112h442z" />
    <glyph glyph-name="uni20BD" unicode="&#x20bd;" horiz-adv-x="619" 
d="M261 272l-11 -62h202l-6 -30h-202l-35 -180h-121l35 180h-97l6 30h97l12 62h-97l21 110h97l57 293h199q100 0 155.5 -48t55.5 -135q0 -63 -30 -113t-87.5 -78.5t-137.5 -28.5h-113zM283 382h89q61 0 94 26t33 75q0 42 -26 62t-71 20h-84z" />
    <glyph glyph-name="uni2113" unicode="&#x2113;" horiz-adv-x="507" 
d="M224 266q-2 -40 -2 -58q0 -61 16 -86.5t58 -25.5q22 0 47.5 6.5t66.5 21.5l-20 -112q-39 -13 -62.5 -18.5t-56.5 -5.5q-66 0 -101.5 27t-48 74t-12.5 119v24q-42 -11 -71 -17l21 111l58 15q21 155 88 252t178 97q64 0 103.5 -34.5t39.5 -102.5q0 -183 -302 -287z
M293.5 533.5q-34.5 -59.5 -53.5 -152.5q176 71 176 168q0 44 -39 44q-49 0 -83.5 -59.5z" />
    <glyph glyph-name="uni2116" unicode="&#x2116;" horiz-adv-x="1182" 
d="M157 700h118l243 -489h2l93 489h128l-136 -700h-119l-242 489h-1l-94 -489h-128zM793.5 203q-51.5 47 -51.5 134q0 64 28.5 117.5t82 85t124.5 31.5q86 0 137.5 -47t51.5 -134q0 -64 -28.5 -117.5t-82 -85t-124.5 -31.5q-86 0 -137.5 47zM1005.5 274q27.5 18 41.5 46.5
t14 59.5q0 43 -25 67t-68 24q-57 0 -89 -38t-32 -87q0 -43 24.5 -66.5t67.5 -23.5q39 0 66.5 18zM714 100h384l-20 -100h-383z" />
    <glyph glyph-name="trademark" unicode="&#x2122;" horiz-adv-x="892" 
d="M316 628l-66 -334h-89l65 334h-113l17 87h315l-18 -87h-111zM868 294h-88l-4 256l-120 -196h-71l-44 196l-101 -256h-98l176 421h76l47 -236l139 236h76z" />
    <glyph glyph-name="estimated" unicode="&#x212e;" horiz-adv-x="768" 
d="M96 462.5q47 72.5 128 115t176 42.5q96 0 177 -42.5t128 -115t47 -158.5v-9h-574v-140q0 -33 13.5 -60.5t38.5 -43.5q68 -45 172 -45q73 0 138.5 27.5t109.5 77.5h29q-50 -58 -123.5 -90.5t-155.5 -32.5q-95 0 -176 42.5t-128 115t-47 158.5t47 158.5zM402 602
q-106 0 -172 -46q-52 -35 -52 -85v-158h445v152q0 53 -44 87q-65 50 -177 50z" />
    <glyph glyph-name="uni2153" unicode="&#x2153;" horiz-adv-x="778" 
d="M186 607h-32l13 68h101l-75 -386h-68zM576 675h67l-499 -675h-67zM462 16.5q-37 25.5 -37 72.5q0 9 2 23h68v-7q0 -51 72 -51q39 0 57 17.5t18 42.5q0 30 -22 43.5t-75 12.5l13 61q51 0 76 14t25 44q0 24 -15.5 34t-39.5 10q-29 0 -47 -13.5t-22 -36.5h-67
q7 55 42.5 83.5t96.5 28.5q56 0 90 -22.5t34 -70.5q0 -38 -23.5 -64t-66.5 -34v-1q34 -5 53.5 -27.5t19.5 -60.5q0 -51 -36 -87.5t-114 -36.5q-65 0 -102 25.5z" />
    <glyph glyph-name="uni2154" unicode="&#x2154;" horiz-adv-x="894" 
d="M63 346l167 134q38 30 55.5 49t17.5 44q0 22 -15 34.5t-42 12.5q-29 0 -47.5 -14.5t-23.5 -42.5h-68q6 54 43 87.5t100 33.5q54 0 89.5 -26.5t35.5 -77.5q0 -41 -23 -71.5t-75 -70.5l-108 -83h172l-13 -66h-276zM692 675h67l-499 -675h-67zM578 16.5q-37 25.5 -37 72.5
q0 9 2 23h68v-7q0 -51 72 -51q39 0 57 17.5t18 42.5q0 30 -22 43.5t-75 12.5l13 61q51 0 76 14t25 44q0 24 -15.5 34t-39.5 10q-29 0 -47 -13.5t-22 -36.5h-67q7 55 42.5 83.5t96.5 28.5q56 0 90 -22.5t34 -70.5q0 -38 -23.5 -64t-66.5 -34v-1q34 -5 53.5 -27.5t19.5 -60.5
q0 -51 -36 -87.5t-114 -36.5q-65 0 -102 25.5z" />
    <glyph glyph-name="oneeighth" unicode="&#x215b;" horiz-adv-x="785" 
d="M186 607h-32l13 68h101l-75 -386h-68zM576 675h67l-499 -675h-67zM458.5 21q-35.5 30 -35.5 78q0 45 28 74t71 34l1 2q-24 8 -37.5 27t-13.5 47q0 48 39 80t103 32q58 0 91.5 -27.5t33.5 -70.5q0 -37 -23.5 -62t-60.5 -32l-1 -2q61 -17 61 -82q0 -55 -42 -91.5
t-114 -36.5q-65 0 -100.5 30zM646.5 250q18.5 15 18.5 38q0 21 -14.5 32t-40.5 11q-31 0 -49.5 -14.5t-18.5 -38.5q0 -21 14.5 -32t40.5 -11q31 0 49.5 15zM623 74q21 18 21 47q0 27 -18.5 41t-49.5 14q-36 0 -58 -18.5t-22 -47.5q0 -27 19 -40.5t50 -13.5q37 0 58 18z" />
    <glyph glyph-name="threeeighths" unicode="&#x215c;" horiz-adv-x="884" 
d="M101 305.5q-37 25.5 -37 72.5q0 9 2 23h68v-7q0 -51 72 -51q39 0 57 17.5t18 42.5q0 30 -22 43.5t-75 12.5l13 61q51 0 76 14t25 44q0 24 -15.5 34t-39.5 10q-29 0 -47 -13.5t-22 -36.5h-67q7 55 42.5 83.5t96.5 28.5q56 0 90 -22.5t34 -70.5q0 -38 -23.5 -64t-66.5 -34
v-1q34 -5 53.5 -27.5t19.5 -60.5q0 -51 -36 -87.5t-114 -36.5q-65 0 -102 25.5zM675 675h67l-499 -675h-67zM557.5 21q-35.5 30 -35.5 78q0 45 28 74t71 34l1 2q-24 8 -37.5 27t-13.5 47q0 48 39 80t103 32q58 0 91.5 -27.5t33.5 -70.5q0 -37 -23.5 -62t-60.5 -32l-1 -2
q61 -17 61 -82q0 -55 -42 -91.5t-114 -36.5q-65 0 -100.5 30zM745.5 250q18.5 15 18.5 38q0 21 -14.5 32t-40.5 11q-31 0 -49.5 -14.5t-18.5 -38.5q0 -21 14.5 -32t40.5 -11q31 0 49.5 15zM722 74q21 18 21 47q0 27 -18.5 41t-49.5 14q-36 0 -58 -18.5t-22 -47.5
q0 -27 19 -40.5t50 -13.5q37 0 58 18z" />
    <glyph glyph-name="fiveeighths" unicode="&#x215d;" horiz-adv-x="888" 
d="M56 348l53 46q15 -24 39.5 -36t54.5 -12q43 0 63 23t20 54q0 30 -17 46t-45 16q-38 0 -64 -31h-63l66 221h214l-13 -67h-158l-31 -97h3q26 32 72 32q42 0 74.5 -30t32.5 -89q0 -64 -41.5 -104t-117.5 -40q-93 0 -142 68zM679 675h67l-499 -675h-67zM561.5 21
q-35.5 30 -35.5 78q0 45 28 74t71 34l1 2q-24 8 -37.5 27t-13.5 47q0 48 39 80t103 32q58 0 91.5 -27.5t33.5 -70.5q0 -37 -23.5 -62t-60.5 -32l-1 -2q61 -17 61 -82q0 -55 -42 -91.5t-114 -36.5q-65 0 -100.5 30zM749.5 250q18.5 15 18.5 38q0 21 -14.5 32t-40.5 11
q-31 0 -49.5 -14.5t-18.5 -38.5q0 -21 14.5 -32t40.5 -11q31 0 49.5 15zM726 74q21 18 21 47q0 27 -18.5 41t-49.5 14q-36 0 -58 -18.5t-22 -47.5q0 -27 19 -40.5t50 -13.5q37 0 58 18z" />
    <glyph glyph-name="seveneighths" unicode="&#x215e;" horiz-adv-x="800" 
d="M276 607h-182l13 68h260l-12 -65l-229 -321h-76zM591 675h67l-499 -675h-67zM473.5 21q-35.5 30 -35.5 78q0 45 28 74t71 34l1 2q-24 8 -37.5 27t-13.5 47q0 48 39 80t103 32q58 0 91.5 -27.5t33.5 -70.5q0 -37 -23.5 -62t-60.5 -32l-1 -2q61 -17 61 -82q0 -55 -42 -91.5
t-114 -36.5q-65 0 -100.5 30zM661.5 250q18.5 15 18.5 38q0 21 -14.5 32t-40.5 11q-31 0 -49.5 -14.5t-18.5 -38.5q0 -21 14.5 -32t40.5 -11q31 0 49.5 15zM638 74q21 18 21 47q0 27 -18.5 41t-49.5 14q-36 0 -58 -18.5t-22 -47.5q0 -27 19 -40.5t50 -13.5q37 0 58 18z" />
    <glyph glyph-name="arrowleft" unicode="&#x2190;" horiz-adv-x="815" 
d="M766 237h-524l157 -185l-87 -74l-251 312l366 319l65 -81l-222 -185h517z" />
    <glyph glyph-name="arrowup" unicode="&#x2191;" horiz-adv-x="733" 
d="M615 269l-148 193l-102 -524h-105l100 516l-221 -185l-66 81l378 304l254 -313z" />
    <glyph glyph-name="arrowright" unicode="&#x2192;" horiz-adv-x="816" 
d="M778 291l-368 -319l-63 81l217 185h-513l21 106h525l-158 185l90 76z" />
    <glyph glyph-name="arrowdown" unicode="&#x2193;" horiz-adv-x="734" 
d="M684 231l-378 -304l-255 309l91 76l148 -195l102 526h105l-100 -515l221 184z" />
    <glyph glyph-name="arrowboth" unicode="&#x2194;" horiz-adv-x="1256" 
d="M1217 290l-368 -319l-63 81l217 185h-761l157 -185l-87 -74l-251 312l366 319l65 -81l-222 -185h766l-158 185l90 76z" />
    <glyph glyph-name="arrowupdn" unicode="&#x2195;" horiz-adv-x="739" 
d="M19 49l92 76l147 -195l141 727l-221 -185l-66 81l378 304l254 -313l-90 -72l-148 193l-140 -724l221 184l66 -81l-378 -304z" />
    <glyph glyph-name="uni2196" unicode="&#x2196;" horiz-adv-x="653" 
d="M486 5l-296 366l-50 -263l-114 -1l96 441l442 2l-22 -106l-266 4l298 -369z" />
    <glyph glyph-name="uni2197" unicode="&#x2197;" horiz-adv-x="653" 
d="M654 548l-75 -442l-114 1l49 261l-434 -364l-60 74l442 371l-268 -5l21 111z" />
    <glyph glyph-name="uni2198" unicode="&#x2198;" horiz-adv-x="653" 
d="M650 473l-96 -441l-442 -3l21 105l268 -4l-299 371l89 74l295 -365l50 262z" />
    <glyph glyph-name="uni2199" unicode="&#x2199;" horiz-adv-x="654" 
d="M214 131l269 5l-20 -105l-441 2l75 441l114 -1l-51 -262l436 365l60 -74z" />
    <glyph glyph-name="partialdiff" unicode="&#x2202;" horiz-adv-x="594" 
d="M510.5 640.5q70.5 -74.5 70.5 -227.5q0 -106 -34.5 -204t-107 -161t-180.5 -63q-68 0 -118.5 26.5t-78 74.5t-27.5 111q0 66 29 124t86.5 94t137.5 36q57 0 102 -18.5t73 -51.5q1 12 1 32q0 90 -42 138.5t-117 48.5q-34 0 -70.5 -8.5t-65.5 -22.5l-34 106
q39 17 86.5 28.5t97.5 11.5q121 0 191.5 -74.5zM372.5 144q42.5 44 65.5 113q-21 35 -55.5 57.5t-85.5 22.5q-49 0 -80 -21t-45 -52t-14 -62q0 -46 28.5 -74t79.5 -28q64 0 106.5 44z" />
    <glyph glyph-name="emptyset" unicode="&#x2205;" 
d="M540.5 410.5q15.5 -40.5 15.5 -86.5q0 -66 -31 -119t-85.5 -83t-121.5 -30q-92 0 -158 55l-56 -56l-19 20l55 55q-29 31 -44.5 71.5t-15.5 86.5q0 66 31 119t85.5 83t121.5 30q45 0 85.5 -14.5t71.5 -40.5l56 56l20 -20l-55 -55q29 -31 44.5 -71.5zM221 247l174 174
q-31 25 -77 25q-54 0 -88 -34.5t-34 -87.5q0 -46 25 -77zM406 236.5q34 34.5 34 87.5q0 44 -25 77l-175 -174q33 -25 78 -25q54 0 88 34.5z" />
    <glyph glyph-name="product" unicode="&#x220f;" horiz-adv-x="753" 
d="M790 589h-117v-667h-112v667h-221v-667h-113v667h-116v111h679v-111z" />
    <glyph glyph-name="summation" unicode="&#x2211;" horiz-adv-x="710" 
d="M608 585h-336l248 -290l-248 -290h336v-115h-481v115l249 290l-249 290v115h481v-115z" />
    <glyph glyph-name="minus" unicode="&#x2212;" 
d="M552 269h-478v58h478v-58z" />
    <glyph glyph-name="radical" unicode="&#x221a;" horiz-adv-x="586" 
d="M660 715l-234 -715h-111l-146 355h-104v107h178l122 -307l180 560h115z" />
    <glyph glyph-name="infinity" unicode="&#x221e;" horiz-adv-x="766" 
d="M710 407q46 -43 46 -110t-46 -110t-115 -43q-60 0 -105 30t-94 86q-49 -56 -94 -86t-105 -30q-69 0 -115 43t-46 110t46 110t115 43q60 0 105 -30t94 -86q49 56 94 86t105 30q69 0 115 -43zM119 371q-32 -30 -32 -74t32 -74t78 -30q47 0 84.5 26.5t81.5 77.5
q-44 51 -81.5 77.5t-84.5 26.5q-46 0 -78 -30zM511.5 374.5q-36.5 -26.5 -82.5 -77.5q46 -51 82.5 -77.5t83.5 -26.5q46 0 78 30t32 74t-32 74t-78 30q-47 0 -83.5 -26.5z" />
    <glyph glyph-name="integral" unicode="&#x222b;" horiz-adv-x="407" 
d="M441 609q-57 0 -87 -22.5t-42 -85.5l-102 -522q-21 -108 -82 -151t-175 -43l21 106q39 1 62 8.5t39 30.5t25 69l102 522q20 105 82 149.5t177 44.5z" />
    <glyph glyph-name="approxequal" unicode="&#x2248;" 
d="M246 450q31 -11 81 -34q42 -20 68.5 -29.5t48.5 -9.5q56 0 81 71h54q-18 -67 -53.5 -98.5t-80.5 -31.5q-31 0 -63.5 11.5t-79.5 33.5q-43 20 -68.5 29.5t-48.5 9.5q-57 0 -80 -71h-54q17 67 53 98.5t81 31.5q30 0 61 -11zM247.5 285.5q32.5 -11.5 79.5 -34.5
q42 -20 68.5 -29.5t48.5 -9.5q56 0 81 72h54q-18 -67 -53.5 -98.5t-80.5 -31.5q-31 0 -63.5 11.5t-79.5 33.5q-43 20 -68.5 29.5t-48.5 9.5q-56 0 -80 -72h-54q17 68 53 99.5t81 31.5q30 0 62.5 -11.5z" />
    <glyph glyph-name="notequal" unicode="&#x2260;" 
d="M397 373l-89 -146h258v-54h-291l-57 -94h-56l57 94h-159v54h192l88 146h-280v54h313l55 91h57l-55 -91h136v-54h-169z" />
    <glyph glyph-name="lessequal" unicode="&#x2264;" 
d="M527 432l-377 -91l377 -89v-60l-458 119v61l458 119v-59zM532 103h-466v54h466v-54z" />
    <glyph glyph-name="greaterequal" unicode="&#x2265;" 
d="M551 372v-61l-458 -119v60l377 89l-377 91v59zM554 157v-54h-466v54h466z" />
    <glyph glyph-name="uni2460" unicode="&#x2460;" horiz-adv-x="846" 
d="M257 32q-83 47 -129.5 130.5t-46.5 187.5t46.5 187.5t129.5 130.5t189 47t189 -47t129.5 -130.5t46.5 -187.5t-46.5 -187.5t-129.5 -130.5t-189 -47t-189 47zM597 90q67 39 105 107.5t38 152.5t-38 152.5t-105 107.5t-151 39t-151 -39t-105 -107.5t-38 -152.5t38 -152.5
t105 -107.5t151 -39t151 39zM422 479h-33v69h101v-386h-68v317z" />
    <glyph glyph-name="uni2461" unicode="&#x2461;" horiz-adv-x="846" 
d="M257 32q-83 47 -129.5 130.5t-46.5 187.5t46.5 187.5t129.5 130.5t189 47t189 -47t129.5 -130.5t46.5 -187.5t-46.5 -187.5t-129.5 -130.5t-189 -47t-189 47zM597 90q67 39 105 107.5t38 152.5t-38 152.5t-105 107.5t-151 39t-151 -39t-105 -107.5t-38 -152.5t38 -152.5
t105 -107.5t151 -39t151 39zM321 233l142 136q26 24 39.5 43t13.5 40q0 24 -16 38.5t-43 14.5q-29 0 -47.5 -14.5t-21.5 -42.5h-69q2 56 37.5 89.5t100.5 33.5q62 0 96.5 -31.5t34.5 -83.5q0 -34 -17 -62t-51 -61l-99 -91h169v-66h-269v57z" />
    <glyph glyph-name="uni2462" unicode="&#x2462;" horiz-adv-x="846" 
d="M257 32q-83 47 -129.5 130.5t-46.5 187.5t46.5 187.5t129.5 130.5t189 47t189 -47t129.5 -130.5t46.5 -187.5t-46.5 -187.5t-129.5 -130.5t-189 -47t-189 47zM597 90q67 39 105 107.5t38 152.5t-38 152.5t-105 107.5t-151 39t-151 -39t-105 -107.5t-38 -152.5t38 -152.5
t105 -107.5t151 -39t151 39zM346.5 183.5q-38.5 31.5 -41.5 89.5h70q2 -27 21 -42t53 -15q72 0 72 58q0 29 -25 42.5t-77 13.5v62q86 0 86 52q0 23 -15.5 35.5t-43.5 12.5q-27 0 -44 -12.5t-18 -36.5h-68q3 52 36.5 82.5t96.5 30.5q60 0 93.5 -28t33.5 -73
q0 -33 -18.5 -56.5t-51.5 -31.5v-1q40 -6 63.5 -30.5t23.5 -67.5q0 -51 -36.5 -83.5t-107.5 -32.5q-64 0 -102.5 31.5z" />
    <glyph glyph-name="uni2463" unicode="&#x2463;" horiz-adv-x="846" 
d="M635 668q83 -47 129.5 -130.5t46.5 -187.5t-46.5 -187.5t-129.5 -130.5t-189 -47t-189 47t-129.5 130.5t-46.5 187.5t46.5 187.5t129.5 130.5t189 47t189 -47zM597 90q67 39 105 107.5t38 152.5t-38 152.5t-105 107.5t-151 39t-151 -39t-105 -107.5t-38 -152.5t38 -152.5
t105 -107.5t151 -39t151 39zM540 295h45v-63h-45v-69h-67v69h-202v59l191 258h78v-254zM473 295v170h-2l-126 -170h128z" />
    <glyph glyph-name="uni2464" unicode="&#x2464;" horiz-adv-x="846" 
d="M257 32q-83 47 -129.5 130.5t-46.5 187.5t46.5 187.5t129.5 130.5t189 47t189 -47t129.5 -130.5t46.5 -187.5t-46.5 -187.5t-129.5 -130.5t-189 -47t-189 47zM597 90q67 39 105 107.5t38 152.5t-38 152.5t-105 107.5t-151 39t-151 -39t-105 -107.5t-38 -152.5t38 -152.5
t105 -107.5t151 -39t151 39zM307 217l48 49q34 -46 91 -46q34 0 54 18.5t20 49.5t-18.5 49.5t-47.5 18.5q-20 0 -37.5 -8.5t-29.5 -21.5h-59l24 221h211v-67h-159l-12 -94h3q12 13 31.5 21t44.5 8q48 0 83.5 -34t35.5 -94q0 -63 -39 -99t-103 -36q-93 0 -141 65z" />
    <glyph glyph-name="uni2465" unicode="&#x2465;" horiz-adv-x="846" 
d="M257 32q-83 47 -129.5 130.5t-46.5 187.5t46.5 187.5t129.5 130.5t189 47t189 -47t129.5 -130.5t46.5 -187.5t-46.5 -187.5t-129.5 -130.5t-189 -47t-189 47zM597 90q67 39 105 107.5t38 152.5t-38 152.5t-105 107.5t-151 39t-151 -39t-105 -107.5t-38 -152.5t38 -152.5
t105 -107.5t151 -39t151 39zM339 190.5q-42 38.5 -42 108.5q0 47 18.5 84t52.5 77l80 96h85l-144 -164l2 -1q16 16 33.5 22.5t39.5 6.5q52 0 88.5 -35t36.5 -94t-38.5 -99t-105.5 -40q-64 0 -106 38.5zM496 238q21 19 21 51t-21 51t-53 19t-53.5 -19t-21.5 -51t21.5 -51
t53.5 -19t53 19z" />
    <glyph glyph-name="uni2466" unicode="&#x2466;" horiz-adv-x="846" 
d="M257 32q-83 47 -129.5 130.5t-46.5 187.5t46.5 187.5t129.5 130.5t189 47t189 -47t129.5 -130.5t46.5 -187.5t-46.5 -187.5t-129.5 -130.5t-189 -47t-189 47zM597 90q67 39 105 107.5t38 152.5t-38 152.5t-105 107.5t-151 39t-151 -39t-105 -107.5t-38 -152.5t38 -152.5
t105 -107.5t151 -39t151 39zM516 471h-185v68h260v-65l-167 -321h-74z" />
    <glyph glyph-name="uni2467" unicode="&#x2467;" horiz-adv-x="846" 
d="M257 32q-83 47 -129.5 130.5t-46.5 187.5t46.5 187.5t129.5 130.5t189 47t189 -47t129.5 -130.5t46.5 -187.5t-46.5 -187.5t-129.5 -130.5t-189 -47t-189 47zM597 90q67 39 105 107.5t38 152.5t-38 152.5t-105 107.5t-151 39t-151 -39t-105 -107.5t-38 -152.5t38 -152.5
t105 -107.5t151 -39t151 39zM340.5 186q-37.5 32 -37.5 83q0 75 75 98v2q-29 10 -46 32.5t-17 53.5q0 47 35 75t97 28q61 0 96 -28t35 -75q0 -32 -16.5 -54t-45.5 -32v-2q75 -23 75 -98q0 -51 -37.5 -83t-106.5 -32t-106.5 32zM490 411q16 13 16 35t-16 34.5t-43 12.5
t-43.5 -13t-16.5 -34q0 -22 16.5 -35t43.5 -13t43 13zM500.5 237q18.5 16 18.5 43t-19 43t-53 16t-53.5 -16t-19.5 -43q0 -28 19 -43.5t54 -15.5t53.5 16z" />
    <glyph glyph-name="uni2468" unicode="&#x2468;" horiz-adv-x="846" 
d="M257 32q-83 47 -129.5 130.5t-46.5 187.5t46.5 187.5t129.5 130.5t189 47t189 -47t129.5 -130.5t46.5 -187.5t-46.5 -187.5t-129.5 -130.5t-189 -47t-189 47zM597 90q67 39 105 107.5t38 152.5t-38 152.5t-105 107.5t-151 39t-151 -39t-105 -107.5t-38 -152.5t38 -152.5
t105 -107.5t151 -39t151 39zM505 306l-2 1q-19 -13 -36 -19.5t-37 -6.5q-52 0 -87 37t-35 92q0 61 39.5 100t106.5 39q63 0 104 -38.5t41 -107.5q0 -41 -15.5 -80t-52.5 -80l-79 -89h-89zM508.5 360.5q20.5 19.5 20.5 51.5q0 33 -20.5 52t-54.5 19q-33 0 -54.5 -20
t-21.5 -52q0 -31 21.5 -50.5t54.5 -19.5q34 0 54.5 19.5z" />
    <glyph glyph-name="uni24EA" unicode="&#x24ea;" horiz-adv-x="846" 
d="M257 32q-83 47 -129.5 130.5t-46.5 187.5t46.5 187.5t129.5 130.5t189 47t189 -47t129.5 -130.5t46.5 -187.5t-46.5 -187.5t-129.5 -130.5t-189 -47t-189 47zM597 90q67 39 105 107.5t38 152.5t-38 152.5t-105 107.5t-151 39t-151 -39t-105 -107.5t-38 -152.5t38 -152.5
t105 -107.5t151 -39t151 39zM324.5 203.5q-44.5 53.5 -44.5 149.5q0 95 44.5 148t122.5 53q77 0 121 -53t44 -148q0 -96 -44 -149.5t-121 -53.5q-78 0 -122.5 53.5zM515.5 253.5q24.5 35.5 24.5 99.5q0 62 -24.5 98t-69.5 36q-44 0 -69 -36t-25 -98q0 -63 24.5 -99t69.5 -36
t69.5 35.5z" />
    <glyph glyph-name="uni24FF" unicode="&#x24ff;" horiz-adv-x="845" 
d="M259.5 32.5q-83.5 47.5 -131 131t-47.5 186.5t47.5 186.5t131 131t186.5 47.5t186.5 -47.5t131 -131t47.5 -186.5t-47.5 -186.5t-131 -131t-186.5 -47.5t-186.5 47.5zM568 203.5q44 53.5 44 149.5q0 95 -44 148t-121 53q-78 0 -122.5 -53t-44.5 -148q0 -96 44.5 -149.5
t122.5 -53.5q77 0 121 53.5zM376.5 254q-24.5 36 -24.5 99q0 62 25 98t69 36q45 0 69.5 -36t24.5 -98q0 -64 -24.5 -99.5t-69.5 -35.5t-69.5 36z" />
    <glyph glyph-name="lozenge" unicode="&#x25ca;" horiz-adv-x="601" 
d="M604 350l-226 -365h-109l-226 365l226 365h109zM173 350l151 -250l151 250l-151 250z" />
    <glyph glyph-name="uni2776" unicode="&#x2776;" horiz-adv-x="845" 
d="M259.5 32.5q-83.5 47.5 -131 131t-47.5 186.5t47.5 186.5t131 131t186.5 47.5t186.5 -47.5t131 -131t47.5 -186.5t-47.5 -186.5t-131 -131t-186.5 -47.5t-186.5 47.5zM490 163v386h-101v-68h33v-318h68z" />
    <glyph glyph-name="uni2777" unicode="&#x2777;" horiz-adv-x="845" 
d="M259.5 32.5q-83.5 47.5 -131 131t-47.5 186.5t47.5 186.5t131 131t186.5 47.5t186.5 -47.5t131 -131t47.5 -186.5t-47.5 -186.5t-131 -131t-186.5 -47.5t-186.5 47.5zM580 172v66h-168l99 91q34 33 51 61t17 62q0 52 -34.5 83.5t-97.5 31.5q-65 0 -100 -33.5t-37 -89.5
h68q4 29 22 43t47 14q27 0 43 -14.5t16 -38.5q0 -20 -13.5 -39t-38.5 -44l-143 -136l1 -57h268z" />
    <glyph glyph-name="uni2778" unicode="&#x2778;" horiz-adv-x="845" 
d="M259.5 32.5q-83.5 47.5 -131 131t-47.5 186.5t47.5 186.5t131 131t186.5 47.5t186.5 -47.5t131 -131t47.5 -186.5t-47.5 -186.5t-131 -131t-186.5 -47.5t-186.5 47.5zM552 188.5q36 32.5 36 83.5q0 43 -23.5 68t-62.5 31v1q33 8 51.5 32t18.5 56q0 44 -34 72t-94 28
q-63 0 -96.5 -30t-36.5 -83h68q1 25 18 37t45 12t43 -12.5t15 -35.5q0 -26 -22.5 -39t-62.5 -13v-61q51 0 76 -13.5t25 -43.5q0 -28 -18.5 -42.5t-53.5 -14.5q-33 0 -52 15t-21 41h-71q3 -58 42 -89.5t103 -31.5q71 0 107 32.5z" />
    <glyph glyph-name="uni2779" unicode="&#x2779;" horiz-adv-x="845" 
d="M259.5 32.5q-83.5 47.5 -131 131t-47.5 186.5t47.5 186.5t131 131t186.5 47.5t186.5 -47.5t131 -131t47.5 -186.5t-47.5 -186.5t-131 -131t-186.5 -47.5t-186.5 47.5zM534 170v69h44v63h-44v254h-78l-191 -258v-59h202v-69h67zM465 472h2v-170h-128z" />
    <glyph glyph-name="uni277A" unicode="&#x277a;" horiz-adv-x="845" 
d="M259.5 32.5q-83.5 47.5 -131 131t-47.5 186.5t47.5 186.5t131 131t186.5 47.5t186.5 -47.5t131 -131t47.5 -186.5t-47.5 -186.5t-131 -131t-186.5 -47.5t-186.5 47.5zM543.5 188q39.5 36 39.5 99q0 60 -35.5 94t-84.5 34q-47 0 -76 -29h-2l12 94h158v67h-210l-24 -221h59
q11 13 28.5 21.5t37.5 8.5q29 0 48 -18.5t19 -49.5t-20 -49.5t-55 -18.5q-55 0 -91 46l-47 -49q48 -65 141 -65q63 0 102.5 36z" />
    <glyph glyph-name="uni277B" unicode="&#x277b;" horiz-adv-x="845" 
d="M259.5 32.5q-83.5 47.5 -131 131t-47.5 186.5t47.5 186.5t131 131t186.5 47.5t186.5 -47.5t131 -131t47.5 -186.5t-47.5 -186.5t-131 -131t-186.5 -47.5t-186.5 47.5zM550 196.5q38 39.5 38 99.5q0 59 -36 94t-88 35q-41 0 -73 -29l-2 1l144 164h-85l-80 -96
q-34 -40 -52.5 -77t-18.5 -84q0 -70 42 -108.5t106 -38.5q67 0 105 39.5zM389 242.5q-21 18.5 -21 51.5q0 32 21.5 51t53.5 19t53 -19t21 -51q0 -33 -20.5 -51.5t-53.5 -18.5t-54 18.5z" />
    <glyph glyph-name="uni277C" unicode="&#x277c;" horiz-adv-x="845" 
d="M259.5 32.5q-83.5 47.5 -131 131t-47.5 186.5t47.5 186.5t131 131t186.5 47.5t186.5 -47.5t131 -131t47.5 -186.5t-47.5 -186.5t-131 -131t-186.5 -47.5t-186.5 47.5zM421 153l167 321v65h-260v-68h185l-166 -318h74z" />
    <glyph glyph-name="uni277D" unicode="&#x277d;" horiz-adv-x="845" 
d="M259.5 32.5q-83.5 47.5 -131 131t-47.5 186.5t47.5 186.5t131 131t186.5 47.5t186.5 -47.5t131 -131t47.5 -186.5t-47.5 -186.5t-131 -131t-186.5 -47.5t-186.5 47.5zM553.5 186q37.5 32 37.5 83q0 75 -75 98v2q29 10 45.5 32t16.5 54q0 47 -35 75t-96 28q-62 0 -97 -28
t-35 -75q0 -31 17 -53.5t46 -32.5v-2q-75 -23 -75 -98q0 -51 37.5 -83t106.5 -32t106.5 32zM403.5 411q-16.5 13 -16.5 35q0 21 16.5 34t43.5 13t43 -12.5t16 -34.5t-16 -35t-43 -13t-43.5 13zM393 236.5q-19 15.5 -19 43.5q0 27 19.5 43t53.5 16t53 -16t19 -43t-18.5 -43
t-53.5 -16t-54 15.5z" />
    <glyph glyph-name="uni277E" unicode="&#x277e;" horiz-adv-x="845" 
d="M259.5 32.5q-83.5 47.5 -131 131t-47.5 186.5t47.5 186.5t131 131t186.5 47.5t186.5 -47.5t131 -131t47.5 -186.5t-47.5 -186.5t-131 -131t-186.5 -47.5t-186.5 47.5zM446 154l79 89q38 41 53 80t15 80q0 69 -40.5 107t-103.5 38q-67 0 -107 -38.5t-40 -100.5
q0 -55 35 -91.5t88 -36.5q38 0 73 26l2 -1l-143 -152h89zM394 360q-21 19 -21 51q0 33 21.5 52.5t54.5 19.5t54 -19t21 -52q0 -32 -21 -51.5t-55 -19.5q-33 0 -54 19z" />
    <glyph glyph-name="uniF8FF" unicode="&#xf8ff;" horiz-adv-x="972" 
d="M147.5 702q10.5 10 26.5 10q15 0 26 -10.5t11 -25.5q0 -10 -4.5 -19.5t-13.5 -14.5v-24q49 20 88.5 31t84.5 11t76 -21.5t31 -61.5v-25q55 12 104 12q57 0 96.5 -19t39.5 -64v-48q48 12 81 12q55 0 81.5 -21.5t26.5 -57.5v-240q-52 32 -107 32q-16 0 -34 -3.5t-33 -7.5
q-32 -9 -53 -9q-51 0 -51 46v86q-23 5 -47 5q-26 0 -76 -10q-46 -8 -64 -8q-54 0 -54 46v68h-14q-62 0 -176 -44v-327h-39v643q-8 5 -12.5 14t-4.5 19q0 16 10.5 26zM421.5 618.5q-22.5 13.5 -54.5 13.5q-43 0 -81.5 -11.5t-92.5 -33.5v-230q110 42 175 42q45 0 76 -14v192
q0 28 -22.5 41.5zM334 485v-68h-30v68l-65 95h38l42 -64l42 64h38zM665.5 517.5q-19.5 18.5 -86.5 18.5q-44 0 -106 -12v-171q0 -12 -8.5 -18t-25.5 -12q-15 -5 -22.5 -10t-7.5 -14q0 -7 6.5 -10.5t20.5 -3.5q16 0 60 8q56 9 81 9q28 0 57.5 -6.5t50.5 -18.5v197
q0 25 -19.5 43.5zM509.5 472q22.5 23 57.5 23t57.5 -23t22.5 -58t-22.5 -58t-57.5 -23t-57.5 23t-22.5 58t22.5 58zM603 451.5q-14 14.5 -36 14.5t-36 -14.5t-14 -37.5t14 -37.5t36 -14.5t36 14.5t14 37.5t-14 37.5zM854 404.5q-21 11.5 -59 11.5q-34 0 -82 -12v-167
q0 -13 -8.5 -19t-25.5 -14q-14 -5 -21 -9.5t-7 -13.5q0 -16 25 -16q17 0 48 9q44 12 70 12q39 0 81 -15v194q0 28 -21 39.5zM786 273h-16l-10 100h36zM434 361.5q-9 4.5 -23 6.5v-32q5 3 13.5 5.5t13.5 4.5t5 6q0 5 -9 9.5zM651 264v-47q6 4 15 7.5t14 7t5 8.5q0 13 -34 24z
M763.5 244.5q5.5 5.5 14.5 5.5t14.5 -5.5t5.5 -13.5q0 -9 -5.5 -14.5t-14.5 -5.5t-14.5 5.5t-5.5 14.5q0 8 5.5 13.5z" />
    <glyph glyph-name="i.loclTRK" horiz-adv-x="236" 
d="M101 462h123l-90 -462h-123zM251 559h-140l26 135h140z" />
    <glyph glyph-name="XBT" horiz-adv-x="532" 
d="M497.5 398q-41.5 -46 -113.5 -60l-1 -3q49 -8 75.5 -42.5t26.5 -91.5q0 -91 -66.5 -144.5t-178.5 -56.5l-17 -87h-28l17 87h-49l-17 -87h-28l17 87h-144l131 675h144l17 87h28l-17 -87h44h5l17 87h28l-17 -88q79 -7 123.5 -47t44.5 -113q0 -70 -41.5 -116zM376.5 415
q31.5 26 31.5 72q0 40 -25 59t-64 19h-98l-34 -176h103q55 0 86.5 26zM326 135q33 25 33 71q0 40 -26.5 60t-71.5 20h-95l-34 -176h107q54 0 87 25z" />
    <glyph glyph-name="dollar.tf" 
d="M455 481l1 18q0 31 -18 49.5t-53 23.5l-31 -161q61 -32 93.5 -53t58.5 -62t26 -102q0 -97 -66.5 -153t-183.5 -56h-11l-12 -62h-28l12 64q-91 8 -142.5 56t-51.5 122q0 14 1 24.5t2 17.5h127q-1 -7 -1 -20q0 -77 88 -85l38 195q-54 28 -85 49.5t-54 58.5t-23 92
q0 89 61.5 141t169.5 52h7l14 72h28l-14 -74q81 -7 128.5 -50t47.5 -116q0 -18 -3 -41h-126zM284.5 459.5q15.5 -17.5 44.5 -34.5l28 148q-43 -2 -65.5 -22t-22.5 -50q0 -24 15.5 -41.5zM384.5 239q-19.5 22 -55.5 44l-35 -182q57 1 83.5 24.5t26.5 59.5q0 32 -19.5 54z" />
    <glyph glyph-name="cent.tf" 
d="M390 357l-49 -252h5q53 0 135 31l-25 -127q-61 -24 -127 -24h-11l-10 -49h-28l10 51q-86 12 -137 70t-51 152q0 78 35.5 139t100 95t147.5 34l11 54h28l-11 -55q36 -3 69.5 -11t56.5 -18l-27 -120q-71 29 -122 30zM255 142.5q22 -26.5 59 -34.5l48 248q-60 -7 -94.5 -45
t-34.5 -98q0 -44 22 -70.5z" />
    <glyph glyph-name="sterling.tf" 
d="M460 485v9q0 77 -85 77q-48 0 -74 -25t-26 -68q0 -22 7 -46t20 -57h167l-6 -30h-150q17 -51 17 -79q0 -51 -37.5 -87t-102.5 -63l1 -3h299l-22 -113h-434l18 92q65 33 106.5 75.5t41.5 93.5q0 19 -5.5 38.5t-16.5 45.5h-95l6 30h78q-21 57 -21 104q0 94 61.5 152.5
t176.5 58.5q94 0 149.5 -41.5t55.5 -126.5q0 -13 -2 -37h-127z" />
    <glyph glyph-name="florin.tf" 
d="M438.5 555q-26.5 -20 -35.5 -68l-5 -25h120l-6 -30h-120l-87 -449q-19 -98 -70.5 -140.5t-132.5 -42.5h-64l21 110h40q32 0 55 18.5t31 59.5l87 444h-98l6 30h98l6 32q37 191 220 191h60l-21 -110h-34q-44 0 -70.5 -20z" />
    <glyph glyph-name="yen.tf" 
d="M417 322h128l-6 -30h-143l-37 -56h169l-6 -30h-169l-41 -206h-116l41 206h-170l6 30h169l-16 56h-142l6 30h128l-101 353h130l71 -313l190 313h147z" />
    <glyph glyph-name="Euro.tf" 
d="M326 524q-57 -46 -81 -122h277l-20 -30h-266q-5 -25 -7 -59h241l-20 -30h-222q2 -86 43 -131.5t116 -45.5q38 0 79 10.5t78 26.5l-25 -130q-69 -27 -146 -27q-139 0 -205.5 82.5t-68.5 214.5h-84l21 30h64q2 31 6 59h-69l21 30h54q29 127 120 207.5t238 80.5
q114 0 202 -56l-66 -106q-34 19 -68 30.5t-74 11.5q-81 0 -138 -46z" />
    <glyph glyph-name="Indianrupeesign.tf" 
d="M579 645h-171q38 -23 59 -61.5t21 -89.5v-2h83l-28 -30h-57q-11 -83 -78 -134.5t-171 -51.5h-7l186 -276h-151l-178 276l22 112h128q53 0 82 20.5t36 53.5h-232l6 30h229q-1 36 -26 53.5t-69 17.5h-120l22 112h442z" />
    <glyph glyph-name="THB.tf" 
d="M529 398.5q-41 -46.5 -110 -60.5l-1 -3q48 -8 74 -42.5t26 -91.5q0 -94 -69 -147.5t-185 -53.5h-10l-17 -87h-28l17 87h-200l131 675h200l17 87h28l-17 -87q87 -2 136 -42.5t49 -118.5q0 -69 -41 -115.5zM256 565l-34 -176h80l34 176h-80zM413 416.5q30 25.5 30 70.5
q0 37 -22 56.5t-57 21.5l-34 -176q53 2 83 27.5zM247 110l34 176h-80l-34 -176h80zM361 135q33 25 33 71q0 37 -22.5 57t-62.5 23l-34 -176q53 0 86 25z" />
    <glyph glyph-name="RUB.tf" 
d="M251 272l-11 -62h202l-6 -30h-202l-35 -180h-121l35 180h-97l6 30h97l12 62h-97l21 110h97l57 293h199q100 0 155.5 -48t55.5 -135q0 -63 -30 -113t-87.5 -78.5t-137.5 -28.5h-113zM273 382h89q61 0 94 26t33 75q0 42 -26 62t-71 20h-84z" />
    <glyph glyph-name="TRY.tf" 
d="M583 327q-27 -156 -128 -241.5t-254 -85.5h-98l57 292l-123 -49l6 31l123 49l11 56l-123 -49l6 31l123 49l51 265h121l-42 -212l206 82l-6 -31l-206 -82l-11 -56l206 82l-6 -31l-206 -82l-42 -217q82 0 138 53t73 146h124z" />
    <glyph glyph-name="uni20A9.tf" 
d="M588 431h51l-6 -30h-55l-23 -68h65l-6 -30h-68l-100 -303h-118l19 303h-66l-99 -303h-117l18 303h-69l6 30h65l4 68h-56l6 30h52l16 269h105l-28 -269h63l87 269h109l-16 -269h64l76 269h109zM323 431h32l7 107h-4zM174 333h41l22 68h-56zM349 333l4 68h-40l-22 -68h58z
M483 401h-57l-4 -68h41zM206 303h-35l-14 -138h4zM455 303h-35l-8 -138h4z" />
    <glyph glyph-name="uni20B4.tf" 
d="M434 361l-55 -34h184l-6 -30h-227l-29 -18q-53 -33 -76 -58t-23 -53q0 -30 24.5 -45.5t68.5 -15.5q43 0 90 12.5t112 40.5l-25 -132q-99 -43 -197 -43q-95 0 -150 41t-55 127q0 44 16 79t49 65h-67l6 30h98q32 23 56 37l51 31h-192l6 30h235l41 25q69 43 69 80
q0 21 -20 31.5t-53 10.5q-76 0 -185 -36l23 122q54 16 96.5 24t85.5 8q85 0 135 -34t50 -108q0 -70 -51 -123h63l-6 -30h-91q-20 -15 -51 -34z" />
    <glyph glyph-name="XBT.tf" 
d="M531.5 398q-41.5 -46 -113.5 -60l-1 -3q49 -8 75.5 -42.5t26.5 -91.5q0 -91 -66.5 -144.5t-178.5 -56.5l-17 -87h-28l17 87h-49l-17 -87h-28l17 87h-144l131 675h144l17 87h28l-17 -87h44h5l17 87h28l-17 -88q79 -7 123.5 -47t44.5 -113q0 -70 -41.5 -116zM410.5 415
q31.5 26 31.5 72q0 40 -25 59t-64 19h-98l-34 -176h103q55 0 86.5 26zM360 135q33 25 33 71q0 40 -26.5 60t-71.5 20h-95l-34 -176h107q54 0 87 25z" />
    <glyph glyph-name="uni20B8.tf" 
d="M637 675l-22 -110h-502l21 110h503zM102 508h502l-21 -110h-191l-77 -398h-121l78 398h-191z" />
    <glyph glyph-name="uni20AE.tf" 
d="M425 565l-24 -123l132 60l-6 -31l-132 -60l-11 -56l132 60l-6 -31l-132 -60l-63 -324h-120l51 264l-131 -60l6 31l131 60l11 56l-132 -60l6 31l132 60l36 183h-193l21 110h507l-22 -110h-193z" />
    <glyph glyph-name="perthousand.tf" 
d="M104.5 414.5q-34.5 34.5 -34.5 97.5q0 44 17.5 85t51.5 67t81 26q54 0 88 -34t34 -98q0 -44 -17.5 -85t-51.5 -67t-81 -26q-53 0 -87.5 34.5zM158 592.5q-23 -35.5 -23 -78.5q0 -36 16 -54t42 -18q38 0 61 35.5t23 78.5q0 36 -16 54t-42 18q-38 0 -61 -35.5zM587 479
l-545 -232l-7 25l545 232zM537 260.5q34 -34.5 34 -97.5q0 -44 -17.5 -85t-51.5 -67t-81 -26q-33 0 -59.5 13t-42.5 39q-42 -52 -108 -52q-53 0 -87 34.5t-34 97.5q0 44 17.5 85t51.5 67t81 26q33 0 59.5 -13t42.5 -39q42 52 108 52q53 0 87 -34.5zM274 82.5
q23 35.5 23 78.5q0 36 -16 54t-42 18q-39 0 -61.5 -35t-22.5 -79q0 -36 16 -54t42 -18q38 0 61 35.5zM483.5 82q22.5 35 22.5 79q0 36 -16 54t-42 18q-38 0 -61 -35.5t-23 -78.5q0 -36 16 -54t42 -18q39 0 61.5 35z" />
    <glyph glyph-name="zero.zero" horiz-adv-x="605" 
d="M591 428q0 -118 -35.5 -219.5t-104.5 -162.5t-164 -61q-62 0 -109 21l-19 -37l-26 11l20 40q-48 30 -73 87.5t-25 139.5q0 118 35.5 219.5t104.5 162.5t165 61q65 0 117 -25l16 31l26 -11l-18 -35q90 -65 90 -222zM215 142l204 406q-26 22 -64 22q-55 0 -93 -46
t-57 -119.5t-19 -154.5q0 -69 29 -108zM385 151q38 46 57 119.5t19 154.5q0 64 -23 99l-202 -402q23 -17 56 -17q55 0 93 46z" />
    <glyph glyph-name="zero.tf.zero" 
d="M584 433q0 -121 -36 -223.5t-104 -163.5t-160 -61q-60 0 -107 21l-18 -37l-26 11l20 39q-47 30 -71.5 86.5t-24.5 136.5q0 121 36 223.5t104.5 163.5t160.5 61q70 0 118 -27l17 33l26 -11l-19 -37q84 -65 84 -215zM214 142l203 403q-25 25 -65 25q-52 0 -89 -46
t-56.5 -120t-19.5 -158q0 -67 27 -104zM378 151q37 46 56.5 120t19.5 158q0 54 -18 90l-201 -398q23 -16 54 -16q52 0 89 46z" />
    <glyph glyph-name="zero.tf" 
d="M116 50.5q-59 65.5 -59 191.5q0 121 36 223.5t104.5 163.5t160.5 61q108 0 167 -65.5t59 -191.5q0 -121 -36 -223.5t-104 -163.5t-160 -61q-109 0 -168 65.5zM378 151q37 46 56.5 120t19.5 158q0 70 -28 105.5t-74 35.5q-52 0 -89 -46t-56.5 -120t-19.5 -158
q0 -70 28 -105.5t74 -35.5q52 0 89 46z" />
    <glyph glyph-name="one.tf" 
d="M491 118l-23 -118h-427l23 118h157l84 437h-105l23 120h232l-108 -557h144z" />
    <glyph glyph-name="two.tf" 
d="M522.5 641q56.5 -49 56.5 -130q0 -66 -37 -120t-111 -115l-196 -164l277 1l-22 -113h-468l19 97l286 241q63 51 92 86.5t29 73.5q0 32 -24 53t-69 21q-48 0 -79.5 -24t-38.5 -72h-125q12 100 78.5 157t175.5 57q100 0 156.5 -49z" />
    <glyph glyph-name="three.tf" 
d="M102.5 28q-61.5 43 -61.5 123q0 12 4 42h124v-9q0 -39 28 -60t84 -21q59 0 92.5 27.5t33.5 77.5t-37 71t-122 22l19 99q174 0 174 97q0 37 -25 56t-69 19t-73.5 -20t-35.5 -58h-127q9 90 73 143t173 53q103 0 161 -46.5t58 -122.5q0 -67 -41.5 -109t-117.5 -54v-2
q55 -9 87 -48.5t32 -102.5q0 -60 -29.5 -110t-89.5 -80t-146 -30q-107 0 -168.5 43z" />
    <glyph glyph-name="four.tf" 
d="M480 234h83l-23 -110h-81l-24 -124h-114l24 124h-329l19 96l415 455h116zM366 234l52 267h-4l-241 -267h193z" />
    <glyph glyph-name="five.tf" 
d="M488 390.5q52 -53.5 52 -149.5q0 -74 -31 -132t-91.5 -91t-145.5 -33q-163 0 -242 119l90 82q33 -42 69.5 -62.5t85.5 -20.5q69 0 102 38t33 95q0 51 -27 78t-72 27q-66 0 -105 -48h-113l117 382h347l-24 -114h-247l-52 -159h2q45 42 116 42q84 0 136 -53.5z" />
    <glyph glyph-name="six.tf" 
d="M104.5 43q-64.5 58 -64.5 166q0 78 37.5 145.5t127.5 156.5l175 173h164l-302 -282l2 -2q33 28 63.5 41t66.5 13q49 0 92 -24.5t68.5 -71t25.5 -110.5q0 -73 -34.5 -133t-98 -95t-146.5 -35q-112 0 -176.5 58zM389.5 142q39.5 39 39.5 97q0 50 -32 78t-86 28
q-64 0 -103.5 -39t-39.5 -96q0 -50 32.5 -78.5t85.5 -28.5q64 0 103.5 39z" />
    <glyph glyph-name="seven.tf" 
d="M584 566l-375 -566h-143l377 558h-299l23 117h438z" />
    <glyph glyph-name="eight.tf" 
d="M104.5 36q-61.5 51 -61.5 136q0 76 48.5 128t122.5 64l1 3q-41 14 -64.5 47t-23.5 82q0 54 29 98.5t84.5 70t129.5 25.5q100 0 156.5 -46t56.5 -122q0 -65 -39 -105.5t-107 -55.5l-1 -3q50 -15 77 -51.5t27 -94.5q0 -62 -30.5 -114t-90.5 -82.5t-143 -30.5
q-110 0 -171.5 51zM421.5 439q30.5 26 30.5 67q0 33 -23 51.5t-65 18.5q-49 0 -79.5 -25t-30.5 -65q0 -34 23 -53.5t65 -19.5q49 0 79.5 26zM376.5 135.5q35.5 32.5 35.5 81.5q0 43 -27.5 67.5t-78.5 24.5q-59 0 -94.5 -33.5t-35.5 -82.5q0 -42 28 -66t78 -24
q59 0 94.5 32.5z" />
    <glyph glyph-name="nine.tf" 
d="M399 274l-2 2q-61 -47 -128 -47q-53 0 -94.5 26.5t-64.5 73t-23 104.5q0 71 34 129.5t96.5 93t143.5 34.5q105 0 171.5 -53.5t66.5 -159.5q0 -83 -40.5 -155.5t-131.5 -158.5l-173 -163h-157zM432 376q40 38 40 94q0 48 -30.5 74.5t-82.5 26.5q-62 0 -102 -37.5
t-40 -93.5q0 -48 30.5 -75t82.5 -27q62 0 102 38z" />
    <glyph glyph-name="dot" horiz-adv-x="225" 
d="M25 139h139l-27 -139h-138z" />
    <glyph glyph-name="Adieresis.ss01" horiz-adv-x="697" 
d="M487 160h-291l-89 -160h-149l413 700h134l144 -700h-133zM467 273l-51 280l-156 -280h207zM396 857.5q20 -20.5 20 -50.5t-20 -50.5t-50 -20.5q-31 0 -51 20.5t-20 50.5t20 50.5t51 20.5q30 0 50 -20.5zM609 857.5q20 -20.5 20 -50.5t-20 -50.5t-50 -20.5q-31 0 -51 20.5
t-20 50.5t20 50.5t51 20.5q30 0 50 -20.5z" />
    <glyph glyph-name="Cdotaccent.ss01" horiz-adv-x="688" 
d="M215.5 27q-77.5 42 -119.5 118t-42 177q0 110 51 200t145 141.5t216 51.5q148 0 254 -76l-78 -111q-41 27 -83.5 42.5t-96.5 15.5q-82 0 -142.5 -35t-93 -94.5t-32.5 -133.5q0 -96 56 -152.5t150 -56.5q85 0 174 53l61 -111q-115 -71 -241 -71q-101 0 -178.5 42z
M524 857.5q20 -20.5 20 -50.5t-20 -50.5t-50 -20.5q-31 0 -51 20.5t-20 50.5t20 50.5t51 20.5q30 0 50 -20.5z" />
    <glyph glyph-name="Edieresis.ss01" horiz-adv-x="524" 
d="M262 580l-27 -140h261l-23 -118h-261l-40 -202h291l-23 -120h-419l136 700h415l-23 -120h-287zM333 857.5q20 -20.5 20 -50.5t-20 -50.5t-50 -20.5q-31 0 -51 20.5t-20 50.5t20 50.5t51 20.5q30 0 50 -20.5zM546 857.5q20 -20.5 20 -50.5t-20 -50.5t-50 -20.5
q-31 0 -51 20.5t-20 50.5t20 50.5t51 20.5q30 0 50 -20.5z" />
    <glyph glyph-name="Edotaccent.ss01" horiz-adv-x="524" 
d="M262 580l-27 -140h261l-23 -118h-261l-40 -202h291l-23 -120h-419l136 700h415l-23 -120h-287zM432 857.5q20 -20.5 20 -50.5t-20 -50.5t-50 -20.5q-31 0 -51 20.5t-20 50.5t20 50.5t51 20.5q30 0 50 -20.5z" />
    <glyph glyph-name="Gcommaaccent.ss01" horiz-adv-x="786" 
d="M791 393l-8 -52q-23 -162 -115.5 -258.5t-256.5 -96.5q-106 0 -187 41t-125 117t-44 178q0 113 51.5 202t144 139.5t211.5 50.5q89 0 164 -26.5t129 -73.5l-91 -103q-88 75 -205 75q-83 0 -143 -36t-91 -96.5t-31 -132.5q0 -98 59.5 -152.5t162.5 -54.5q91 0 144 44
t69 118h-202l27 117h337zM418 -165l-56 -45h-40l47 53q-17 7 -27 23t-10 35q0 27 17.5 44.5t44.5 17.5q28 0 46 -17t18 -44q0 -38 -40 -67z" />
    <glyph glyph-name="Gdotaccent.ss01" horiz-adv-x="786" 
d="M791 393l-8 -52q-23 -162 -115.5 -258.5t-256.5 -96.5q-106 0 -187 41t-125 117t-44 178q0 113 51.5 202t144 139.5t211.5 50.5q89 0 164 -26.5t129 -73.5l-91 -103q-88 75 -205 75q-83 0 -143 -36t-91 -96.5t-31 -132.5q0 -98 59.5 -152.5t162.5 -54.5q91 0 144 44
t69 118h-202l27 117h337zM532 857.5q20 -20.5 20 -50.5t-20 -50.5t-50 -20.5q-31 0 -51 20.5t-20 50.5t20 50.5t51 20.5q30 0 50 -20.5z" />
    <glyph glyph-name="Idieresis.ss01" horiz-adv-x="261" 
d="M157 700h129l-136 -700h-129zM180 857.5q20 -20.5 20 -50.5t-20 -50.5t-50 -20.5q-31 0 -51 20.5t-20 50.5t20 50.5t51 20.5q30 0 50 -20.5zM393 857.5q20 -20.5 20 -50.5t-20 -50.5t-50 -20.5q-31 0 -51 20.5t-20 50.5t20 50.5t51 20.5q30 0 50 -20.5z" />
    <glyph glyph-name="Idotaccent.ss01" horiz-adv-x="261" 
d="M157 700h129l-136 -700h-129zM279 857.5q20 -20.5 20 -50.5t-20 -50.5t-50 -20.5q-31 0 -51 20.5t-20 50.5t20 50.5t51 20.5q30 0 50 -20.5z" />
    <glyph glyph-name="Kcommaaccent.ss01" horiz-adv-x="672" 
d="M352 359l272 -359h-168l-240 345l-67 -345h-128l136 700h128l-60 -311l317 311h181zM317 -165l-56 -45h-40l47 53q-17 7 -27 23t-10 35q0 27 17.5 44.5t44.5 17.5q28 0 46 -17t18 -44q0 -38 -40 -67z" />
    <glyph glyph-name="Lcaron.ss01" horiz-adv-x="488" 
d="M157 700h128l-112 -579h291l-23 -121h-420zM510.5 699q20.5 -21 20.5 -53q0 -34 -34 -73l-115 -131h-47l95 138q-21 6 -34 25t-13 43q0 31 20.5 51.5t53.5 20.5t53.5 -21z" />
    <glyph glyph-name="Lcommaaccent.ss01" horiz-adv-x="488" 
d="M157 700h128l-112 -579h291l-23 -121h-420zM241 -165l-56 -45h-40l47 53q-17 7 -27 23t-10 35q0 27 17.5 44.5t44.5 17.5q28 0 46 -17t18 -44q0 -38 -40 -67z" />
    <glyph glyph-name="Ldot.ss01" horiz-adv-x="488" 
d="M157 700h128l-112 -579h291l-23 -121h-420zM452.5 458q23.5 -24 23.5 -59t-23.5 -58.5t-59.5 -23.5q-35 0 -58.5 23.5t-23.5 58.5t23.5 59t58.5 24q36 0 59.5 -24z" />
    <glyph glyph-name="Ncommaaccent.ss01" horiz-adv-x="716" 
d="M157 700h118l243 -489h2l93 489h128l-136 -700h-119l-242 489h-1l-94 -489h-128zM327 -165l-56 -45h-40l47 53q-17 7 -27 23t-10 35q0 27 17.5 44.5t44.5 17.5q28 0 46 -17t18 -44q0 -38 -40 -67z" />
    <glyph glyph-name="Odieresis.ss01" horiz-adv-x="814" 
d="M221 26q-79 41 -123 116t-44 175q0 110 51 201t143 144t210 53q102 0 181 -41t123.5 -116t44.5 -175q0 -110 -51 -201t-143.5 -144t-210.5 -53q-102 0 -181 41zM549.5 150q59.5 37 90 99t30.5 135q0 63 -28.5 109t-78 70t-111.5 24q-82 0 -141.5 -37t-90 -99t-30.5 -135
q0 -63 28.5 -109t78 -70t111.5 -24q82 0 141.5 37zM422 857.5q20 -20.5 20 -50.5t-20 -50.5t-50 -20.5q-31 0 -51 20.5t-20 50.5t20 50.5t51 20.5q30 0 50 -20.5zM635 857.5q20 -20.5 20 -50.5t-20 -50.5t-50 -20.5q-31 0 -51 20.5t-20 50.5t20 50.5t51 20.5q30 0 50 -20.5z
" />
    <glyph glyph-name="Rcommaaccent.ss01" horiz-adv-x="604" 
d="M550.5 360.5q-54.5 -60.5 -148.5 -77.5l154 -283h-147l-140 278h-66l-54 -278h-128l136 700h228q105 0 162.5 -51.5t57.5 -141.5q0 -86 -54.5 -146.5zM225 391h109q61 0 96.5 27.5t35.5 76.5q0 87 -109 87h-95zM301 -165l-56 -45h-40l47 53q-17 7 -27 23t-10 35
q0 27 17.5 44.5t44.5 17.5q28 0 46 -17t18 -44q0 -38 -40 -67z" />
    <glyph glyph-name="Scommaaccent.ss01" horiz-adv-x="517" 
d="M105 11.5q-67 26.5 -122 73.5l77 108q46 -38 94.5 -59.5t91.5 -21.5q42 0 65.5 19.5t23.5 52.5q0 20 -11 40t-41 47l-101 92q-82 74 -82 168q0 83 55.5 133.5t153.5 50.5q107 0 219 -69l-72 -113q-37 25 -76 40.5t-73 15.5q-36 0 -53 -16.5t-17 -40.5q0 -20 12 -37.5
t40 -42.5l99 -89q47 -43 67 -84.5t20 -89.5q0 -98 -61.5 -151t-167.5 -53q-74 0 -141 26.5zM246 -165l-56 -45h-40l47 53q-17 7 -27 23t-10 35q0 27 17.5 44.5t44.5 17.5q28 0 46 -17t18 -44q0 -38 -40 -67z" />
    <glyph glyph-name="uni021A.ss01" horiz-adv-x="526" 
d="M586 579h-192l-112 -579h-128l112 579h-190l23 121h510zM232 -165l-56 -45h-40l47 53q-17 7 -27 23t-10 35q0 27 17.5 44.5t44.5 17.5q28 0 46 -17t18 -44q0 -38 -40 -67z" />
    <glyph glyph-name="Udieresis.ss01" horiz-adv-x="691" 
d="M643 276q-27 -137 -107.5 -213.5t-220.5 -76.5q-123 0 -189 60t-66 169q0 39 9 84l78 401h136l-79 -407q-6 -28 -6 -51q0 -61 34.5 -93.5t96.5 -32.5q74 0 119.5 46t60.5 122l81 416h136zM390 857.5q20 -20.5 20 -50.5t-20 -50.5t-50 -20.5q-31 0 -51 20.5t-20 50.5
t20 50.5t51 20.5q30 0 50 -20.5zM603 857.5q20 -20.5 20 -50.5t-20 -50.5t-50 -20.5q-31 0 -51 20.5t-20 50.5t20 50.5t51 20.5q30 0 50 -20.5z" />
    <glyph glyph-name="Wdieresis.ss01" horiz-adv-x="1039" 
d="M752 0h-119l-61 490h-2l-251 -490h-118l-91 700h141l43 -493h2l249 493h119l60 -493h2l232 493h153zM563 857.5q20 -20.5 20 -50.5t-20 -50.5t-50 -20.5q-31 0 -51 20.5t-20 50.5t20 50.5t51 20.5q30 0 50 -20.5zM776 857.5q20 -20.5 20 -50.5t-20 -50.5t-50 -20.5
q-31 0 -51 20.5t-20 50.5t20 50.5t51 20.5q30 0 50 -20.5z" />
    <glyph glyph-name="Ydieresis.ss01" horiz-adv-x="597" 
d="M369 267l-52 -267h-128l52 267l-150 433h140l87 -307h2l209 307h159zM334 857.5q20 -20.5 20 -50.5t-20 -50.5t-50 -20.5q-31 0 -51 20.5t-20 50.5t20 50.5t51 20.5q30 0 50 -20.5zM547 857.5q20 -20.5 20 -50.5t-20 -50.5t-50 -20.5q-31 0 -51 20.5t-20 50.5t20 50.5
t51 20.5q30 0 50 -20.5z" />
    <glyph glyph-name="Zdotaccent.ss01" horiz-adv-x="556" 
d="M590 580l-429 -460h352l-23 -120h-514l23 120l430 460h-312l24 120h472zM434 857.5q20 -20.5 20 -50.5t-20 -50.5t-50 -20.5q-31 0 -51 20.5t-20 50.5t20 50.5t51 20.5q30 0 50 -20.5z" />
    <glyph glyph-name="adieresis.ss01" horiz-adv-x="590" 
d="M123 12.5q-46 27.5 -71 78t-25 116.5q0 77 32 139t88.5 96.5t127.5 34.5q59 0 102.5 -25t64.5 -71h3l15 81h123l-90 -462h-122l12 63h-2q-61 -78 -153 -78q-59 0 -105 27.5zM379 140q40 41 40 104q0 54 -33 86.5t-88 32.5q-61 0 -101 -41.5t-40 -105.5q0 -53 33 -85
t88 -32q61 0 101 41zM297 678.5q21 -21.5 21 -53.5q0 -31 -21 -52.5t-53 -21.5t-53.5 21t-21.5 53t21.5 53.5t53.5 21.5t53 -21.5zM501 678.5q21 -21.5 21 -53.5q0 -31 -21 -52.5t-53 -21.5t-53.5 21t-21.5 53t21.5 53.5t53.5 21.5t53 -21.5z" />
    <glyph glyph-name="cdotaccent.ss01" horiz-adv-x="477" 
d="M145.5 13q-54.5 28 -85.5 80.5t-31 123.5q0 75 33 134t95 92.5t147 33.5q103 0 188 -57l-66 -100q-63 43 -127 43t-103 -39.5t-39 -100.5q0 -55 34 -89.5t88 -34.5q49 0 104 29l44 -103q-39 -21 -76.5 -30.5t-80.5 -9.5q-70 0 -124.5 28zM387.5 683.5
q23.5 -23.5 23.5 -59.5q0 -35 -23.5 -58.5t-59.5 -23.5q-35 0 -58.5 23.5t-23.5 58.5q0 36 23.5 59.5t58.5 23.5q36 0 59.5 -23.5z" />
    <glyph glyph-name="dcaron.ss01" horiz-adv-x="718" 
d="M788.5 699.5q20.5 -20.5 20.5 -52.5q0 -20 -12.5 -42t-36.5 -42l-84 -72h-47l72 93q-18 6 -28.5 24t-10.5 40q0 31 20.5 51.5t52.5 20.5q33 0 53.5 -20.5zM629 700l-136 -700h-122l12 63h-2q-61 -78 -153 -78q-59 0 -105 27.5t-71 78t-25 116.5q0 77 32 139t88.5 96.5
t127.5 34.5q59 0 102.5 -25t64.5 -71h3l61 319h123zM379 140q40 41 40 104q0 54 -33 86.5t-88 32.5q-61 0 -101 -41.5t-40 -105.5q0 -53 33 -85t88 -32q61 0 101 41z" />
    <glyph glyph-name="edieresis.ss01" horiz-adv-x="533" 
d="M501 205h-356q6 -111 119 -111q83 0 155 58l52 -94q-96 -72 -211 -72q-108 0 -170.5 58.5t-62.5 160.5q0 74 32.5 136t93.5 99t145 37q99 0 156 -50.5t57 -141.5q0 -31 -10 -80zM391 297q0 40 -26 62.5t-72 22.5q-49 0 -84.5 -25.5t-52.5 -70.5h234zM287 678.5
q21 -21.5 21 -53.5q0 -31 -21 -52.5t-53 -21.5t-53.5 21t-21.5 53t21.5 53.5t53.5 21.5t53 -21.5zM491 678.5q21 -21.5 21 -53.5q0 -31 -21 -52.5t-53 -21.5t-53.5 21t-21.5 53t21.5 53.5t53.5 21.5t53 -21.5z" />
    <glyph glyph-name="edotaccent.ss01" horiz-adv-x="533" 
d="M501 205h-356q6 -111 119 -111q83 0 155 58l52 -94q-96 -72 -211 -72q-108 0 -170.5 58.5t-62.5 160.5q0 74 32.5 136t93.5 99t145 37q99 0 156 -50.5t57 -141.5q0 -31 -10 -80zM391 297q0 40 -26 62.5t-72 22.5q-49 0 -84.5 -25.5t-52.5 -70.5h234zM398.5 683.5
q23.5 -23.5 23.5 -59.5q0 -35 -23.5 -58.5t-59.5 -23.5q-35 0 -58.5 23.5t-23.5 58.5q0 36 23.5 59.5t58.5 23.5q36 0 59.5 -23.5z" />
    <glyph glyph-name="gcommaaccent.ss01" horiz-adv-x="590" 
d="M583 462l-87 -450q-16 -83 -46.5 -132.5t-80.5 -72t-126 -22.5q-109 0 -213 40l42 110q89 -37 171 -37q58 0 87.5 25t41.5 83l11 57h-2q-61 -78 -153 -78q-59 0 -105 27.5t-71 78t-25 116.5q0 77 32 139t88.5 96.5t127.5 34.5q59 0 102.5 -25t64.5 -71h3l15 81h123z
M379 140q40 41 40 104q0 54 -33 86.5t-88 32.5q-61 0 -101 -41.5t-40 -105.5q0 -53 33 -85t88 -32q61 0 101 41zM334 659l56 45h40l-47 -53q17 -7 27 -23t10 -35q0 -27 -17.5 -44.5t-44.5 -17.5q-28 0 -46 17t-18 44q0 38 40 67z" />
    <glyph glyph-name="gdotaccent.ss01" horiz-adv-x="590" 
d="M583 462l-87 -450q-16 -83 -46.5 -132.5t-80.5 -72t-126 -22.5q-109 0 -213 40l42 110q89 -37 171 -37q58 0 87.5 25t41.5 83l11 57h-2q-61 -78 -153 -78q-59 0 -105 27.5t-71 78t-25 116.5q0 77 32 139t88.5 96.5t127.5 34.5q59 0 102.5 -25t64.5 -71h3l15 81h123z
M379 140q40 41 40 104q0 54 -33 86.5t-88 32.5q-61 0 -101 -41.5t-40 -105.5q0 -53 33 -85t88 -32q61 0 101 41zM413.5 683.5q23.5 -23.5 23.5 -59.5q0 -35 -23.5 -58.5t-59.5 -23.5q-35 0 -58.5 23.5t-23.5 58.5q0 36 23.5 59.5t58.5 23.5q36 0 59.5 -23.5z" />
    <glyph glyph-name="i.ss01" horiz-adv-x="236" 
d="M101 462h123l-90 -462h-123zM244.5 683.5q23.5 -23.5 23.5 -59.5q0 -35 -23.5 -58.5t-59.5 -23.5q-35 0 -58.5 23.5t-23.5 58.5q0 36 23.5 59.5t58.5 23.5q36 0 59.5 -23.5z" />
    <glyph glyph-name="idieresis.ss01" horiz-adv-x="236" 
d="M151 678.5q21 -21.5 21 -53.5q0 -31 -21 -52.5t-53 -21.5t-53.5 21t-21.5 53t21.5 53.5t53.5 21.5t53 -21.5zM320 678.5q21 -21.5 21 -53.5q0 -31 -21 -52.5t-53 -21.5t-53.5 21t-21.5 53t21.5 53.5t53.5 21.5t53 -21.5zM101 462h123l-90 -462h-123z" />
    <glyph glyph-name="i.loclTRK.ss01" horiz-adv-x="236" 
d="M101 462h123l-90 -462h-123zM244.5 683.5q23.5 -23.5 23.5 -59.5q0 -35 -23.5 -58.5t-59.5 -23.5q-35 0 -58.5 23.5t-23.5 58.5q0 36 23.5 59.5t58.5 23.5q36 0 59.5 -23.5z" />
    <glyph glyph-name="ij.ss01" horiz-adv-x="469" 
d="M101 462h123l-90 -462h-123zM244.5 683.5q23.5 -23.5 23.5 -59.5q0 -35 -23.5 -58.5t-59.5 -23.5q-35 0 -58.5 23.5t-23.5 58.5q0 36 23.5 59.5t58.5 23.5q36 0 59.5 -23.5zM176 -90q29 0 44.5 14t20.5 43l96 495h124l-100 -512q-15 -80 -63 -116.5t-127 -36.5h-47
l22 113h30zM480.5 683.5q23.5 -23.5 23.5 -59.5q0 -35 -23.5 -58.5t-59.5 -23.5q-35 0 -58.5 23.5t-23.5 58.5q0 36 23.5 59.5t58.5 23.5q36 0 59.5 -23.5z" />
    <glyph glyph-name="iogonek.ss01" horiz-adv-x="236" 
d="M244.5 683.5q23.5 -23.5 23.5 -59.5q0 -35 -23.5 -58.5t-59.5 -23.5q-35 0 -58.5 23.5t-23.5 58.5q0 36 23.5 59.5t58.5 23.5q36 0 59.5 -23.5zM101 462h123l-90 -462h-62q-84 -72 -84 -100q0 -8 6.5 -13t17.5 -5q16 0 39 5v-76q-42 -10 -69 -10q-40 0 -64.5 18t-24.5 50
q0 37 30 72.5t91 75.5z" />
    <glyph glyph-name="j.ss01" horiz-adv-x="233" 
d="M-60 -90q29 0 44.5 14t20.5 43l96 495h124l-100 -512q-15 -80 -63 -116.5t-127 -36.5h-47l22 113h30zM244.5 683.5q23.5 -23.5 23.5 -59.5q0 -35 -23.5 -58.5t-59.5 -23.5q-35 0 -58.5 23.5t-23.5 58.5q0 36 23.5 59.5t58.5 23.5q36 0 59.5 -23.5z" />
    <glyph glyph-name="kcommaaccent.ss01" horiz-adv-x="514" 
d="M301 241l163 -241h-151l-136 220l-43 -220h-123l136 700h123l-83 -428l182 190h162zM234 -165l-56 -45h-40l47 53q-17 7 -27 23t-10 35q0 27 17.5 44.5t44.5 17.5q28 0 46 -17t18 -44q0 -38 -40 -67z" />
    <glyph glyph-name="lcaron.ss01" horiz-adv-x="360" 
d="M430.5 699.5q20.5 -20.5 20.5 -52.5q0 -20 -12.5 -42t-36.5 -42l-85 -72h-46l72 93q-18 6 -29 24t-11 40q0 31 20.5 51.5t53.5 20.5t53.5 -20.5zM147 700h123l-136 -700h-123z" />
    <glyph glyph-name="lcommaaccent.ss01" horiz-adv-x="236" 
d="M147 700h123l-136 -700h-123zM83 -165l-56 -45h-40l47 53q-17 7 -27 23t-10 35q0 27 17.5 44.5t44.5 17.5q28 0 46 -17t18 -44q0 -38 -40 -67z" />
    <glyph glyph-name="ldot.ss01" horiz-adv-x="368" 
d="M147 700h123l-136 -700h-123zM385.5 457q23.5 -24 23.5 -59t-23.5 -58.5t-59.5 -23.5q-35 0 -58.5 23.5t-23.5 58.5t23.5 59t58.5 24q36 0 59.5 -24z" />
    <glyph glyph-name="napostrophe.ss01" horiz-adv-x="551" 
d="M99 462h121l-14 -70h2q31 43 70.5 64t90.5 21q68 0 106.5 -38.5t38.5 -110.5q0 -40 -8 -81l-49 -247h-123l46 235q5 28 5 53q0 81 -82 81q-51 0 -82 -33.5t-46 -109.5l-44 -226h-122zM167.5 699q20.5 -21 20.5 -53q0 -34 -34 -73l-115 -131h-47l95 138q-21 6 -34 25
t-13 43q0 31 20.5 51.5t53.5 20.5t53.5 -21z" />
    <glyph glyph-name="ncommaaccent.ss01" horiz-adv-x="551" 
d="M99 462h121l-14 -70h2q31 43 70.5 64t90.5 21q68 0 106.5 -38.5t38.5 -110.5q0 -40 -8 -81l-49 -247h-123l46 235q5 28 5 53q0 81 -82 81q-51 0 -82 -33.5t-46 -109.5l-44 -226h-122zM243 -165l-56 -45h-40l47 53q-17 7 -27 23t-10 35q0 27 17.5 44.5t44.5 17.5
q28 0 46 -17t18 -44q0 -38 -40 -67z" />
    <glyph glyph-name="odieresis.ss01" horiz-adv-x="565" 
d="M90.5 43q-64.5 58 -64.5 162q0 77 35 139t98.5 97.5t144.5 35.5q106 0 170.5 -58t64.5 -162q0 -77 -35 -139t-98.5 -97.5t-144.5 -35.5q-106 0 -170.5 58zM373.5 143.5q39.5 42.5 39.5 105.5q0 54 -32.5 83t-85.5 29q-64 0 -103.5 -42.5t-39.5 -105.5q0 -54 32.5 -83
t85.5 -29q64 0 103.5 42.5zM288 678.5q21 -21.5 21 -53.5q0 -31 -21 -52.5t-53 -21.5t-53.5 21t-21.5 53t21.5 53.5t53.5 21.5t53 -21.5zM492 678.5q21 -21.5 21 -53.5q0 -31 -21 -52.5t-53 -21.5t-53.5 21t-21.5 53t21.5 53.5t53.5 21.5t53 -21.5z" />
    <glyph glyph-name="rcommaaccent.ss01" horiz-adv-x="351" 
d="M99 462h121l-19 -96h2q46 110 165 110q12 0 18 -1l-27 -136q-6 1 -24 1q-71 0 -111 -35t-56 -116l-37 -189h-122zM80 -165l-56 -45h-40l47 53q-17 7 -27 23t-10 35q0 27 17.5 44.5t44.5 17.5q28 0 46 -17t18 -44q0 -38 -40 -67z" />
    <glyph glyph-name="scommaaccent.ss01" horiz-adv-x="407" 
d="M192 90q23 0 36 9t13 24q0 12 -8 22t-26 21l-64 40q-41 26 -61.5 58t-20.5 74q0 64 43.5 101.5t119.5 37.5q91 0 183 -52l-52 -94q-67 42 -124 42q-45 0 -45 -32q0 -12 9 -22t31 -24l59 -36q43 -26 63 -55.5t20 -74.5q0 -69 -46 -106.5t-129 -37.5q-120 0 -213 76l63 91
q84 -62 149 -62zM189 -165l-56 -45h-40l47 53q-17 7 -27 23t-10 35q0 27 17.5 44.5t44.5 17.5q28 0 46 -17t18 -44q0 -38 -40 -67z" />
    <glyph glyph-name="tcaron.ss01" horiz-adv-x="432" 
d="M478.5 699.5q20.5 -20.5 20.5 -52.5q0 -20 -12.5 -42t-36.5 -42l-84 -72h-47l72 93q-18 6 -29 24t-11 40q0 31 21 51.5t53 20.5q33 0 53.5 -20.5zM264 462h100l-20 -103h-100l-38 -194q-2 -14 -2 -19q0 -18 9.5 -25.5t32.5 -7.5h20l-23 -114h-48q-57 0 -88.5 26.5
t-31.5 78.5q0 22 4 42l42 213h-83l20 103h83l36 185h123z" />
    <glyph glyph-name="uni021B.ss01" horiz-adv-x="337" 
d="M206 165q-2 -14 -2 -19q0 -18 9.5 -25.5t32.5 -7.5h20l-23 -114h-48q-57 0 -88.5 26.5t-31.5 78.5q0 22 4 42l42 213h-83l20 103h83l36 185h123l-36 -185h100l-20 -103h-100zM188 -165l-56 -45h-40l47 53q-17 7 -27 23t-10 35q0 27 17.5 44.5t44.5 17.5q28 0 46 -17
t18 -44q0 -38 -40 -67z" />
    <glyph glyph-name="udieresis.ss01" horiz-adv-x="540" 
d="M72 22.5q-40 37.5 -40 108.5q0 23 8 71l52 260h126l-48 -244q-5 -28 -5 -46q0 -38 20 -56t55 -18q96 0 124 142l43 222h124l-90 -462h-121l13 72h-2q-29 -45 -65 -66t-86 -21q-68 0 -108 37.5zM274 678.5q21 -21.5 21 -53.5q0 -31 -21 -52.5t-53 -21.5t-53.5 21t-21.5 53
t21.5 53.5t53.5 21.5t53 -21.5zM478 678.5q21 -21.5 21 -53.5q0 -31 -21 -52.5t-53 -21.5t-53.5 21t-21.5 53t21.5 53.5t53.5 21.5t53 -21.5z" />
    <glyph glyph-name="wdieresis.ss01" horiz-adv-x="774" 
d="M811 462l-252 -462h-109l-47 303l-165 -303h-108l-71 462h122l31 -302l159 302h116l41 -303l150 303h133zM400 678.5q21 -21.5 21 -53.5q0 -31 -21 -52.5t-53 -21.5t-53.5 21t-21.5 53t21.5 53.5t53.5 21.5t53 -21.5zM604 678.5q21 -21.5 21 -53.5q0 -31 -21 -52.5
t-53 -21.5t-53.5 21t-21.5 53t21.5 53.5t53.5 21.5t53 -21.5z" />
    <glyph glyph-name="ydieresis.ss01" horiz-adv-x="507" 
d="M547 462l-406 -663h-131l158 253l-118 410h132l65 -278l164 278h136zM265 678.5q21 -21.5 21 -53.5q0 -31 -21 -52.5t-53 -21.5t-53.5 21t-21.5 53t21.5 53.5t53.5 21.5t53 -21.5zM469 678.5q21 -21.5 21 -53.5q0 -31 -21 -52.5t-53 -21.5t-53.5 21t-21.5 53t21.5 53.5
t53.5 21.5t53 -21.5z" />
    <glyph glyph-name="zdotaccent.ss01" horiz-adv-x="443" 
d="M432 364l-282 -256h249l-21 -108h-402l19 99l281 255h-218l21 108h372zM343.5 683.5q23.5 -23.5 23.5 -59.5q0 -35 -23.5 -58.5t-59.5 -23.5q-35 0 -58.5 23.5t-23.5 58.5q0 36 23.5 59.5t58.5 23.5q36 0 59.5 -23.5z" />
    <glyph glyph-name="fi.ss01" horiz-adv-x="569" 
d="M406 710l-22 -115h-9q-43 0 -67.5 -19.5t-33.5 -67.5l-9 -46h93l-20 -103h-93l-70 -359h-123l70 359h-78l20 103h78l12 62q17 93 73 139.5t154 46.5h25zM434 462h123l-90 -462h-123zM577.5 683.5q23.5 -23.5 23.5 -59.5q0 -35 -23.5 -58.5t-59.5 -23.5q-35 0 -58.5 23.5
t-23.5 58.5q0 36 23.5 59.5t58.5 23.5q36 0 59.5 -23.5z" />
    <glyph glyph-name="f_f_i.ss01" horiz-adv-x="902" 
d="M406 710l-22 -115h-9q-43 0 -67.5 -19.5t-33.5 -67.5l-9 -46h93l-20 -103h-93l-70 -359h-123l70 359h-78l20 103h78l12 62q17 93 73 139.5t154 46.5h25zM739 710l-22 -115h-9q-43 0 -67.5 -19.5t-33.5 -67.5l-9 -46h93l-20 -103h-93l-70 -359h-123l70 359h-78l20 103h78
l12 62q17 93 73 139.5t154 46.5h25zM767 462h123l-90 -462h-123zM910.5 683.5q23.5 -23.5 23.5 -59.5q0 -35 -23.5 -58.5t-59.5 -23.5q-35 0 -58.5 23.5t-23.5 58.5q0 36 23.5 59.5t58.5 23.5q36 0 59.5 -23.5z" />
    <glyph glyph-name="periodcentered.ss01" horiz-adv-x="235" 
d="M208.5 458q23.5 -24 23.5 -59t-23.5 -58.5t-59.5 -23.5q-35 0 -58.5 23.5t-23.5 58.5t23.5 59t58.5 24q36 0 59.5 -24z" />
    <glyph glyph-name="colon.ss01" horiz-adv-x="238" 
d="M149.5 129q23.5 -24 23.5 -59t-23.5 -58.5t-59.5 -23.5q-35 0 -58.5 23.5t-23.5 58.5t23.5 59t58.5 24q36 0 59.5 -24zM207.5 453q23.5 -24 23.5 -59t-23.5 -58.5t-59.5 -23.5q-35 0 -58.5 23.5t-23.5 58.5t23.5 59t58.5 24q36 0 59.5 -24z" />
    <glyph glyph-name="comma.ss01" horiz-adv-x="249" 
d="M59 -9q-24 8 -37.5 28t-13.5 47q0 35 22.5 57.5t58.5 22.5q38 0 60 -22.5t22 -55.5q0 -20 -10 -40t-31 -44l-118 -134h-48z" />
    <glyph glyph-name="ellipsis.ss01" horiz-adv-x="707" 
d="M144.5 129q23.5 -24 23.5 -59t-23.5 -58.5t-59.5 -23.5q-35 0 -58.5 23.5t-23.5 58.5t23.5 59t58.5 24q36 0 59.5 -24zM616.5 129q23.5 -24 23.5 -59t-23.5 -58.5t-59.5 -23.5q-35 0 -58.5 23.5t-23.5 58.5t23.5 59t58.5 24q36 0 59.5 -24zM380.5 129q23.5 -24 23.5 -59
t-23.5 -58.5t-59.5 -23.5q-35 0 -58.5 23.5t-23.5 58.5t23.5 59t58.5 24q36 0 59.5 -24z" />
    <glyph glyph-name="exclam.ss01" horiz-adv-x="325" 
d="M198 220h-87l63 480h145zM190.5 129q23.5 -24 23.5 -59t-23.5 -58.5t-59.5 -23.5q-35 0 -58.5 23.5t-23.5 58.5t23.5 59t58.5 24q36 0 59.5 -24z" />
    <glyph glyph-name="exclamdown.ss01" horiz-adv-x="325" 
d="M142.5 370q-23.5 24 -23.5 59t23.5 58.5t59.5 23.5q35 0 58.5 -23.5t23.5 -58.5t-23.5 -59t-58.5 -24q-36 0 -59.5 24zM135 279h87l-63 -480h-145z" />
    <glyph glyph-name="period.ss01" horiz-adv-x="235" 
d="M145.5 129q23.5 -24 23.5 -59t-23.5 -58.5t-59.5 -23.5q-35 0 -58.5 23.5t-23.5 58.5t23.5 59t58.5 24q36 0 59.5 -24z" />
    <glyph glyph-name="question.ss01" horiz-adv-x="492" 
d="M176 249q13 66 46.5 105.5t86.5 77.5q34 23 54.5 48t20.5 56q0 28 -18.5 44.5t-56.5 16.5q-44 0 -71.5 -23.5t-34.5 -67.5h-123q14 102 74.5 155.5t162.5 53.5q89 0 141.5 -41.5t52.5 -122.5q0 -58 -30 -101t-78 -79q-7 -5 -37.5 -27.5t-47.5 -48t-24 -58.5l-3 -17h-121z
M272.5 129q23.5 -24 23.5 -59t-23.5 -58.5t-59.5 -23.5q-35 0 -58.5 23.5t-23.5 58.5t23.5 59t58.5 24q36 0 59.5 -24z" />
    <glyph glyph-name="questiondown.ss01" horiz-adv-x="430" 
d="M204.5 370q-23.5 24 -23.5 59t23.5 58.5t59.5 23.5q35 0 58.5 -23.5t23.5 -58.5t-23.5 -59t-58.5 -24q-36 0 -59.5 24zM301 250q-13 -66 -46.5 -105.5t-86.5 -77.5q-34 -23 -54.5 -48t-20.5 -56q0 -28 18.5 -44.5t56.5 -16.5q44 0 71.5 23.5t34.5 67.5h123
q-14 -102 -74.5 -155.5t-162.5 -53.5q-89 0 -141.5 41.5t-52.5 122.5q0 58 30 101t78 79q7 5 37.5 27.5t47.5 48t24 58.5l3 17h121z" />
    <glyph glyph-name="semicolon.ss01" horiz-adv-x="249" 
d="M65 -9q-24 8 -37.5 28t-13.5 47q0 35 22.5 57.5t58.5 22.5q38 0 60 -22.5t22 -55.5q0 -20 -10 -40t-31 -44l-118 -134h-48zM212.5 453q23.5 -24 23.5 -59t-23.5 -58.5t-59.5 -23.5q-35 0 -58.5 23.5t-23.5 58.5t23.5 59t58.5 24q36 0 59.5 -24z" />
    <glyph glyph-name="quotedblbase.ss01" horiz-adv-x="355" 
d="M113.5 108q20.5 -21 20.5 -53q0 -34 -34 -73l-115 -131h-47l95 138q-21 6 -34 25t-13 43q0 31 20.5 51.5t53.5 20.5t53.5 -21zM280.5 108q20.5 -21 20.5 -53q0 -34 -34 -73l-115 -131h-47l95 138q-21 6 -34 25t-13 43q0 31 20.5 51.5t53.5 20.5t53.5 -21z" />
    <glyph glyph-name="quotedblleft.ss01" horiz-adv-x="348" 
d="M96.5 490q-20.5 21 -20.5 53q0 34 34 73l115 131h47l-95 -138q21 -6 34 -25t13 -43q0 -31 -20.5 -51.5t-53.5 -20.5t-53.5 21zM264.5 490q-20.5 21 -20.5 53q0 34 34 73l115 131h47l-95 -138q21 -6 34 -25t13 -43q0 -31 -20.5 -51.5t-53.5 -20.5t-53.5 21z" />
    <glyph glyph-name="quotedblright.ss01" horiz-adv-x="348" 
d="M226.5 693q20.5 -21 20.5 -53q0 -34 -34 -73l-115 -131h-47l95 138q-21 6 -34 25t-13 43q0 31 20.5 51.5t53.5 20.5t53.5 -21zM393.5 693q20.5 -21 20.5 -53q0 -34 -34 -73l-115 -131h-47l95 138q-21 6 -34 25t-13 43q0 31 20.5 51.5t53.5 20.5t53.5 -21z" />
    <glyph glyph-name="quoteleft.ss01" horiz-adv-x="195" 
d="M103.5 492q-20.5 21 -20.5 53q0 34 34 73l115 131h47l-95 -138q21 -6 34 -25t13 -43q0 -31 -20.5 -51.5t-53.5 -20.5t-53.5 21z" />
    <glyph glyph-name="quoteright.ss01" horiz-adv-x="195" 
d="M233.5 699q20.5 -21 20.5 -53q0 -34 -34 -73l-115 -131h-47l95 138q-21 6 -34 25t-13 43q0 31 20.5 51.5t53.5 20.5t53.5 -21z" />
    <glyph glyph-name="quotesinglbase.ss01" horiz-adv-x="196" 
d="M118.5 108q20.5 -21 20.5 -53q0 -34 -34 -73l-115 -131h-47l95 138q-21 6 -34 25t-13 43q0 31 20.5 51.5t53.5 20.5t53.5 -21z" />
    <glyph glyph-name="divide.ss01" 
d="M279.5 418.5q-13.5 13.5 -13.5 34.5t13.5 34t33.5 13t33 -13t13 -34t-13 -34.5t-33 -13.5t-33.5 13.5zM54 326h518v-55h-518v55zM279.5 110q-13.5 13 -13.5 34t13.5 34.5t33.5 13.5t33 -13.5t13 -34.5t-13 -34t-33 -13t-33.5 13z" />
    <glyph glyph-name="uni02BC.ss01" horiz-adv-x="195" 
d="M233.5 699q20.5 -21 20.5 -53q0 -34 -34 -73l-115 -131h-47l95 138q-21 6 -34 25t-13 43q0 31 20.5 51.5t53.5 20.5t53.5 -21z" />
    <glyph glyph-name="dot.ss01" horiz-adv-x="269" 
d="M161.5 129q23.5 -24 23.5 -59t-23.5 -58.5t-59.5 -23.5q-35 0 -58.5 23.5t-23.5 58.5t23.5 59t58.5 24q36 0 59.5 -24z" />
    <glyph glyph-name="Adieresis.ss02" horiz-adv-x="697" 
d="M321 690h-114l21 109h114zM688 799l-21 -109h-114l20 109h115zM505 700l144 -700h-133l-29 160h-291l-89 -160h-149l413 700h134zM467 273l-51 280l-156 -280h207z" />
    <glyph glyph-name="Idieresis.ss02" horiz-adv-x="261" 
d="M282 700h4l-136 -700h-129l136 700h5l19 99h119z" />
    <glyph glyph-name="Odieresis.ss02" horiz-adv-x="814" 
d="M160 799h115l-21 -109h-115zM687 799h115l-21 -109h-114zM221 26q-79 41 -123 116t-44 175q0 110 51 201t143 144t210 53q102 0 181 -41t123.5 -116t44.5 -175q0 -110 -51 -201t-143.5 -144t-210.5 -53q-102 0 -181 41zM549.5 150q59.5 37 90 99t30.5 135q0 63 -28.5 109
t-78 70t-111.5 24q-82 0 -141.5 -37t-90 -99t-30.5 -135q0 -63 28.5 -109t78 -70t111.5 -24q82 0 141.5 37z" />
    <glyph glyph-name="Udieresis.ss02" horiz-adv-x="691" 
d="M332 799h100l-21 -109h-100zM474 799h100l-21 -109h-100zM643 276q-27 -137 -107.5 -213.5t-220.5 -76.5q-123 0 -189 60t-66 169q0 39 9 84l78 401h136l-79 -407q-6 -28 -6 -51q0 -61 34.5 -93.5t96.5 -32.5q74 0 119.5 46t60.5 122l81 416h136z" />
    <glyph glyph-name="Wdieresis.ss02" horiz-adv-x="1039" 
d="M401 799h114l-21 -109h-114zM726 799h115l-21 -109h-115zM752 0h-119l-61 490h-2l-251 -490h-118l-91 700h141l43 -493h2l249 493h119l60 -493h2l232 493h153z" />
    <glyph glyph-name="Ydieresis.ss02" horiz-adv-x="597" 
d="M358 690h-98l21 109h98zM489 690h-98l21 109h98zM369 267l-52 -267h-128l52 267l-150 433h140l87 -307h2l209 307h159z" />
    <glyph glyph-name="Adieresis.ss01.ss02" horiz-adv-x="697" 
d="M202 675.5q-20 20.5 -20 50.5t20 50.5t50 20.5t50.5 -20.5t20.5 -50.5t-20.5 -50.5t-50.5 -20.5t-50 20.5zM666 776.5q20 -20.5 20 -50.5t-20 -50.5t-50 -20.5q-31 0 -51 20.5t-20 50.5t20 50.5t51 20.5q30 0 50 -20.5zM505 700l144 -700h-133l-29 160h-291l-89 -160
h-149l413 700h134zM467 273l-51 280l-156 -280h207z" />
    <glyph glyph-name="Idieresis.ss01.ss02" horiz-adv-x="261" 
d="M119 776.5q20 -20.5 20 -50.5t-20 -50.5t-51 -20.5q-30 0 -50 20.5t-20 50.5t20 50.5t50 20.5q31 0 51 -20.5zM420 776.5q20 -20.5 20 -50.5t-20 -50.5t-50 -20.5t-50.5 20.5t-20.5 50.5t20.5 50.5t50.5 20.5t50 -20.5zM157 700h129l-136 -700h-129z" />
    <glyph glyph-name="Odieresis.ss01.ss02" horiz-adv-x="814" 
d="M221.5 776.5q20.5 -20.5 20.5 -50.5t-20.5 -50.5t-50.5 -20.5t-50.5 20.5t-20.5 50.5t20.5 50.5t50.5 20.5t50.5 -20.5zM789.5 776.5q20.5 -20.5 20.5 -50.5t-20.5 -50.5t-50.5 -20.5t-50 20.5t-20 50.5t20 50.5t50 20.5t50.5 -20.5zM221 26q-79 41 -123 116t-44 175
q0 110 51 201t143 144t210 53q102 0 181 -41t123.5 -116t44.5 -175q0 -110 -51 -201t-143.5 -144t-210.5 -53q-102 0 -181 41zM549.5 150q59.5 37 90 99t30.5 135q0 63 -28.5 109t-78 70t-111.5 24q-82 0 -141.5 -37t-90 -99t-30.5 -135q0 -63 28.5 -109t78 -70t111.5 -24
q82 0 141.5 37z" />
    <glyph glyph-name="Udieresis.ss01.ss02" horiz-adv-x="694" 
d="M486 776.5q20 -20.5 20 -50.5t-20 -50.5t-50 -20.5q-31 0 -51 20.5t-20 50.5t20 50.5t51 20.5q30 0 50 -20.5zM645 276q-27 -137 -107.5 -213.5t-220.5 -76.5q-123 0 -189 60t-66 169q0 39 9 84l78 401h135l-79 -407q-5 -24 -5 -51q0 -61 34 -93.5t96 -32.5
q73 0 119 45.5t62 122.5l81 416h135zM454 607.5q20 -20.5 20 -50.5t-20 -50.5t-50 -20.5q-31 0 -51 20.5t-20 50.5t20 50.5t51 20.5q30 0 50 -20.5z" />
    <glyph glyph-name="Wdieresis.ss01.ss02" horiz-adv-x="1039" 
d="M492 776.5q20 -20.5 20 -50.5t-20 -50.5t-50 -20.5q-31 0 -51 20.5t-20 50.5t20 50.5t51 20.5q30 0 50 -20.5zM811 776.5q20 -20.5 20 -50.5t-20 -50.5t-51 -20.5q-30 0 -50 20.5t-20 50.5t20 50.5t50 20.5q31 0 51 -20.5zM752 0h-119l-61 490h-2l-251 -490h-118l-91 700
h141l43 -493h2l249 493h119l60 -493h2l232 493h153z" />
    <glyph glyph-name="Ydieresis.ss01.ss02" horiz-adv-x="597" 
d="M246 696q-20 20 -20 50t20 50.5t50 20.5q31 0 51 -20.5t20 -50.5t-20 -50t-51 -20q-30 0 -50 20zM408 696q-20 20 -20 50t20 50.5t51 20.5q30 0 50 -20.5t20 -50.5t-20 -50t-50 -20q-31 0 -51 20zM369 267l-52 -267h-128l52 267l-150 433h140l87 -307h2l209 307h159z" />
    <glyph glyph-name="germandbls.ss03" horiz-adv-x="548" 
d="M498 125q0 -73 -44 -134.5t-98 -103.5t-145 -102l-65 98q111 72 168 123.5t57 101.5q0 66 -94 106l-17 6l114 139h-170l-70 -359h-123l102 524q18 94 72.5 140t152.5 46h44l-23 -115h-20q-46 0 -71.5 -19.5t-34.5 -67.5l-24 -123l67 77h296l-155 -194q81 -47 81 -143z
" />
    <glyph glyph-name="a.subs" horiz-adv-x="424" 
d="M29.5 -81q-38.5 39 -38.5 108q0 49 20.5 90t59 65t89.5 24q38 0 67 -17t43 -48h1l10 55h96l-59 -306h-96l9 44h-1q-39 -54 -105 -54q-57 0 -95.5 39zM229 -7q23 24 23 57q0 32 -20.5 49.5t-53.5 17.5q-40 0 -62.5 -24t-22.5 -57q0 -32 20.5 -49.5t53.5 -17.5q39 0 62 24z
" />
    <glyph glyph-name="b.subs" horiz-adv-x="429" 
d="M129 -103q-29 17 -43 48h-1l-9 -55h-97l88 462h96l-37 -199h1q38 53 104 53q57 0 95.5 -39t38.5 -108q0 -49 -20.5 -90t-59 -65t-89.5 -24q-38 0 -67 17zM240.5 -7q22.5 24 22.5 57q0 32 -20.5 49.5t-52.5 17.5q-39 0 -62.5 -24t-23.5 -57q0 -31 20.5 -49t53.5 -18
q40 0 62.5 24z" />
    <glyph glyph-name="c.subs" horiz-adv-x="333" 
d="M302 174l-46 -79q-40 21 -74 21q-40 0 -65 -23t-25 -59q0 -31 19.5 -47.5t50.5 -16.5q32 0 68 19l24 -84q-50 -25 -105 -25q-70 0 -114.5 40t-44.5 111q0 52 24.5 91.5t68 61.5t98.5 22q65 0 121 -32z" />
    <glyph glyph-name="d.subs" horiz-adv-x="427" 
d="M407 352l-89 -462h-96l9 44h-1q-39 -54 -105 -54q-57 0 -95.5 39t-38.5 108q0 49 20.5 90t59 65t89.5 24q38 0 67 -17t43 -48h1l39 211h97zM229 -7q23 24 23 57q0 32 -20.5 49.5t-53.5 17.5q-40 0 -62.5 -24t-22.5 -57q0 -32 20.5 -49.5t53.5 -17.5q39 0 62 24z" />
    <glyph glyph-name="e.subs" horiz-adv-x="376" 
d="M309 19h-230q10 -58 78 -58q49 0 93 27l31 -77q-59 -31 -125 -31q-74 0 -119.5 39.5t-45.5 111.5q0 48 21 88t61.5 63.5t96.5 23.5q67 0 107 -34t40 -93q0 -20 -8 -60zM225.5 80.5q0.5 2.5 0.5 6.5q0 23 -16.5 36t-44.5 13q-32 0 -52.5 -16t-28.5 -44h141q0 2 0.5 4.5z
" />
    <glyph glyph-name="f.subs" horiz-adv-x="254" 
d="M266 359l-18 -90h-13q-29 0 -46 -13.5t-24 -44.5l-3 -15h72l-16 -79h-71l-44 -227h-97l44 227h-59l15 79h59l6 31q12 63 52.5 97.5t107.5 34.5h35z" />
    <glyph glyph-name="g.subs" horiz-adv-x="422" 
d="M68 -247.5q-38 4.5 -73 13.5l24 85q66 -18 115 -18q44 0 63.5 14.5t27.5 55.5l6 31h-1q-39 -54 -104 -54q-59 0 -97 39t-38 108q0 49 20.5 90t59 65t89.5 24q38 0 67 -17t43 -48h1l10 55h96l-58 -306q-14 -73 -58.5 -107.5t-124.5 -34.5q-30 0 -68 4.5zM229 -7
q23 24 23 57q0 32 -20.5 49.5t-53.5 17.5q-40 0 -62.5 -24t-22.5 -57q0 -32 21 -49.5t53 -17.5q39 0 62 24z" />
    <glyph glyph-name="h.subs" horiz-adv-x="400" 
d="M123 149h2q38 57 105 57q46 0 73.5 -25.5t27.5 -77.5q0 -20 -5 -47l-32 -166h-96l29 150q3 17 3 28q0 26 -13.5 39t-38.5 13q-32 0 -51 -23t-28 -71l-26 -136h-96l90 462h96z" />
    <glyph glyph-name="i.subs" horiz-adv-x="199" 
d="M158 253h-108l19 99h108zM82 -110h-96l59 306h96z" />
    <glyph glyph-name="j.subs" horiz-adv-x="209" 
d="M170 253h-108l19 99h108zM92 -116q-13 -71 -51 -99.5t-98 -28.5h-29l17 90h15q20 0 33 10t18 35l59 305h97z" />
    <glyph glyph-name="k.subs" horiz-adv-x="374" 
d="M108 69l121 127h124l-157 -153l102 -153h-114l-82 143l-29 -143h-96l90 462h96z" />
    <glyph glyph-name="l.subs" horiz-adv-x="182" 
d="M73 -110h-96l90 462h96z" />
    <glyph glyph-name="m.subs" horiz-adv-x="594" 
d="M500 183q26 -23 26 -72q0 -23 -4 -44l-36 -177h-97l30 153q4 22 4 33q0 22 -12 33.5t-33 11.5q-27 0 -45 -19t-27 -62l-29 -150h-94l27 144q5 20 5 35q0 52 -44 52q-28 0 -45.5 -19t-26.5 -63l-28 -149h-97l59 306h94l-10 -53h2q37 63 109 63t88 -67h2q39 67 112 67
q44 0 70 -23z" />
    <glyph glyph-name="n.subs" horiz-adv-x="396" 
d="M298.5 181q27.5 -25 27.5 -78q0 -18 -5 -48l-31 -165h-97l28 145q4 16 4 32q0 27 -14 40.5t-37 13.5q-59 0 -75 -83l-29 -148h-96l59 306h94l-10 -49h2q38 59 108 59q44 0 71.5 -25z" />
    <glyph glyph-name="o.subs" horiz-adv-x="407" 
d="M300 165.5q44 -40.5 44 -107.5q0 -49 -23.5 -89.5t-67 -64.5t-100.5 -24q-75 0 -119 40.5t-44 107.5q0 49 23.5 89.5t67 64.5t100.5 24q75 0 119 -40.5zM112.5 92q-23.5 -25 -23.5 -59q0 -30 19 -47t50 -17q40 0 63 25t23 59q0 30 -18.5 47t-49.5 17q-40 0 -63.5 -25z
" />
    <glyph glyph-name="p.subs" horiz-adv-x="424" 
d="M33 196h97l-10 -44h1q39 54 105 54q57 0 95.5 -39t38.5 -108q0 -49 -20.5 -90t-59 -65t-89.5 -24q-38 0 -67 17t-43 48h-1l-35 -187h-96zM235.5 -7q22.5 24 22.5 57q0 32 -20.5 49.5t-52.5 17.5q-40 0 -63 -24t-23 -57q0 -32 20.5 -49.5t53.5 -17.5q40 0 62.5 24z" />
    <glyph glyph-name="q.subs" horiz-adv-x="425" 
d="M231 -66h-1q-39 -54 -105 -54q-57 0 -95.5 39t-38.5 108q0 49 20.5 90t59 65t89.5 24q38 0 67 -17t43 -48h1l10 55h96l-84 -438h-97zM229 -7q23 24 23 57q0 32 -20.5 49.5t-53.5 17.5q-40 0 -62.5 -24t-22.5 -57q0 -32 20.5 -49.5t53.5 -17.5q39 0 62 24z" />
    <glyph glyph-name="r.subs" horiz-adv-x="255" 
d="M217 103h-21q-47 0 -69.5 -21t-31.5 -64l-25 -128h-96l59 306h94l-12 -64h1q30 72 114 72h7z" />
    <glyph glyph-name="s.subs" horiz-adv-x="320" 
d="M269 173l-40 -72q-29 15 -48 22t-41 7q-27 0 -27 -15q0 -6 5 -10t19 -11l49 -25q30 -15 45 -35t15 -52q0 -49 -34.5 -75.5t-98.5 -26.5q-83 0 -151 49l48 68q61 -40 106 -40q32 0 32 17q0 6 -5 10t-14 9l-50 25q-32 16 -48 38.5t-16 53.5q0 43 31 69.5t91 26.5
q66 0 132 -33z" />
    <glyph glyph-name="t.subs" horiz-adv-x="260" 
d="M131 15q-2 -12 -2 -16q0 -10 6 -14.5t19 -4.5h18l-17 -90h-42q-85 0 -85 75q0 18 4 34l22 115h-62l16 82h62l24 121h96l-24 -121h69l-16 -82h-69z" />
    <glyph glyph-name="u.subs" horiz-adv-x="398" 
d="M21 -96.5q-26 23.5 -26 73.5q0 19 5 49l33 170h98l-30 -151q-3 -18 -3 -31q0 -48 49 -48q31 0 48 21t25 62l29 147h97l-60 -306h-94l10 51h-1q-44 -61 -112 -61q-42 0 -68 23.5z" />
    <glyph glyph-name="v.subs" horiz-adv-x="375" 
d="M170 -110h-97l-72 306h101l31 -207l112 207h115z" />
    <glyph glyph-name="w.subs" horiz-adv-x="554" 
d="M366 -110h-84l-35 185l-107 -185h-84l-55 306h93l23 -184l103 184h89l33 -184l94 184h103z" />
    <glyph glyph-name="x.subs" horiz-adv-x="384" 
d="M213 44l97 -154h-104l-57 91l-92 -91h-115l163 161l-91 145h104l52 -82l83 82h115z" />
    <glyph glyph-name="y.subs" horiz-adv-x="383" 
d="M368 196l-293 -438h-105l115 171l-84 267h105l43 -171l115 171h104z" />
    <glyph glyph-name="z.subs" horiz-adv-x="334" 
d="M279 125l-183 -153h163l-16 -82h-284l14 74l180 150h-139l16 82h262z" />
    <glyph glyph-name="t_z" horiz-adv-x="641" 
d="M591 125q0 -73 -44 -134.5t-99 -104t-145 -101.5l-65 98q111 72 168.5 123.5t57.5 101.5q0 65 -94 106l-17 6l113 139h-222l-38 -194q-2 -14 -2 -19q0 -18 9.5 -25.5t32.5 -7.5h20l-23 -114h-48q-57 0 -88.5 26.5t-31.5 78.5q0 22 4 42l42 213h-83l20 103h83l36 185h123
l-36 -185h401l-155 -194q81 -47 81 -143z" />
    <glyph glyph-name="a.sups" horiz-adv-x="424" 
d="M118.5 377q-38.5 39 -38.5 108q0 49 20.5 90t59 65t89.5 24q38 0 67 -17t43 -48h1l10 55h96l-59 -306h-96l9 44h-1q-39 -54 -105 -54q-57 0 -95.5 39zM318 451q23 24 23 57q0 32 -20.5 49.5t-53.5 17.5q-40 0 -62.5 -24t-22.5 -57q0 -32 20.5 -49.5t53.5 -17.5
q39 0 62 24z" />
    <glyph glyph-name="b.sups" horiz-adv-x="429" 
d="M218 355q-29 17 -43 48h-1l-9 -55h-97l88 462h96l-37 -199h1q38 53 104 53q57 0 95.5 -39t38.5 -108q0 -49 -20.5 -90t-59 -65t-89.5 -24q-38 0 -67 17zM329.5 451q22.5 24 22.5 57q0 32 -20.5 49.5t-52.5 17.5q-39 0 -62.5 -24t-23.5 -57q0 -31 20.5 -49t53.5 -18
q40 0 62.5 24z" />
    <glyph glyph-name="c.sups" horiz-adv-x="333" 
d="M391 632l-46 -79q-40 21 -74 21q-40 0 -65 -23t-25 -59q0 -31 19.5 -47.5t50.5 -16.5q32 0 68 19l24 -84q-50 -25 -105 -25q-70 0 -114.5 40t-44.5 111q0 52 24.5 91.5t68 61.5t98.5 22q65 0 121 -32z" />
    <glyph glyph-name="d.sups" horiz-adv-x="427" 
d="M496 810l-89 -462h-96l9 44h-1q-39 -54 -105 -54q-57 0 -95.5 39t-38.5 108q0 49 20.5 90t59 65t89.5 24q38 0 67 -17t43 -48h1l39 211h97zM318 451q23 24 23 57q0 32 -20.5 49.5t-53.5 17.5q-40 0 -62.5 -24t-22.5 -57q0 -32 20.5 -49.5t53.5 -17.5q39 0 62 24z" />
    <glyph glyph-name="e.sups" horiz-adv-x="376" 
d="M398 477h-230q10 -58 78 -58q49 0 93 27l31 -77q-59 -31 -125 -31q-74 0 -119.5 39.5t-45.5 111.5q0 48 21 88t61.5 63.5t96.5 23.5q67 0 107 -34t40 -93q0 -20 -8 -60zM314.5 538.5q0.5 2.5 0.5 6.5q0 23 -16.5 36t-44.5 13q-32 0 -52.5 -16t-28.5 -44h141q0 2 0.5 4.5z
" />
    <glyph glyph-name="f.sups" horiz-adv-x="254" 
d="M355 817l-18 -90h-13q-29 0 -46 -13.5t-24 -44.5l-3 -15h72l-16 -79h-71l-44 -227h-97l44 227h-59l15 79h59l6 31q12 63 52.5 97.5t107.5 34.5h35z" />
    <glyph glyph-name="g.sups" horiz-adv-x="422" 
d="M157 210.5q-38 4.5 -73 13.5l24 85q66 -18 115 -18q44 0 63.5 14.5t27.5 55.5l6 31h-1q-39 -54 -104 -54q-59 0 -97 39t-38 108q0 49 20.5 90t59 65t89.5 24q38 0 67 -17t43 -48h1l10 55h96l-58 -306q-14 -73 -58.5 -107.5t-124.5 -34.5q-30 0 -68 4.5zM318 451
q23 24 23 57q0 32 -20.5 49.5t-53.5 17.5q-40 0 -62.5 -24t-22.5 -57q0 -32 21 -49.5t53 -17.5q39 0 62 24z" />
    <glyph glyph-name="h.sups" horiz-adv-x="400" 
d="M212 607h2q38 57 105 57q46 0 73.5 -25.5t27.5 -77.5q0 -20 -5 -47l-32 -166h-96l29 150q3 17 3 28q0 26 -13.5 39t-38.5 13q-32 0 -51 -23t-28 -71l-26 -136h-96l90 462h96z" />
    <glyph glyph-name="i.sups" horiz-adv-x="199" 
d="M247 711h-108l19 99h108zM171 348h-96l59 306h96z" />
    <glyph glyph-name="j.sups" horiz-adv-x="209" 
d="M259 711h-108l19 99h108zM181 342q-13 -71 -51 -99.5t-98 -28.5h-29l17 90h15q20 0 33 10t18 35l59 305h97z" />
    <glyph glyph-name="k.sups" horiz-adv-x="374" 
d="M197 527l121 127h124l-157 -153l102 -153h-114l-82 143l-29 -143h-96l90 462h96z" />
    <glyph glyph-name="l.sups" horiz-adv-x="195" 
d="M176 348h-96l90 462h96z" />
    <glyph glyph-name="m.sups" horiz-adv-x="594" 
d="M589 641q26 -23 26 -72q0 -23 -4 -44l-36 -177h-97l30 153q4 22 4 33q0 22 -12 33.5t-33 11.5q-27 0 -45 -19t-27 -62l-29 -150h-94l27 144q5 20 5 35q0 52 -44 52q-28 0 -45.5 -19t-26.5 -63l-28 -149h-97l59 306h94l-10 -53h2q37 63 109 63t88 -67h2q39 67 112 67
q44 0 70 -23z" />
    <glyph glyph-name="n.sups" horiz-adv-x="396" 
d="M387.5 639q27.5 -25 27.5 -78q0 -18 -5 -48l-31 -165h-97l28 145q4 16 4 32q0 27 -14 40.5t-37 13.5q-59 0 -75 -83l-29 -148h-96l59 306h94l-10 -49h2q38 59 108 59q44 0 71.5 -25z" />
    <glyph glyph-name="o.sups" horiz-adv-x="407" 
d="M389 623.5q44 -40.5 44 -107.5q0 -49 -23.5 -89.5t-67 -64.5t-100.5 -24q-75 0 -119 40.5t-44 107.5q0 49 23.5 89.5t67 64.5t100.5 24q75 0 119 -40.5zM201.5 550q-23.5 -25 -23.5 -59q0 -30 19 -47t50 -17q40 0 63 25t23 59q0 30 -18.5 47t-49.5 17q-40 0 -63.5 -25z
" />
    <glyph glyph-name="p.sups" horiz-adv-x="424" 
d="M122 654h97l-10 -44h1q39 54 105 54q57 0 95.5 -39t38.5 -108q0 -49 -20.5 -90t-59 -65t-89.5 -24q-38 0 -67 17t-43 48h-1l-35 -187h-96zM324.5 451q22.5 24 22.5 57q0 32 -20.5 49.5t-52.5 17.5q-40 0 -63 -24t-23 -57q0 -32 20.5 -49.5t53.5 -17.5q40 0 62.5 24z" />
    <glyph glyph-name="q.sups" horiz-adv-x="425" 
d="M320 392h-1q-39 -54 -105 -54q-57 0 -95.5 39t-38.5 108q0 49 20.5 90t59 65t89.5 24q38 0 67 -17t43 -48h1l10 55h96l-84 -438h-97zM318 451q23 24 23 57q0 32 -20.5 49.5t-53.5 17.5q-40 0 -62.5 -24t-22.5 -57q0 -32 20.5 -49.5t53.5 -17.5q39 0 62 24z" />
    <glyph glyph-name="r.sups" horiz-adv-x="255" 
d="M306 561h-21q-47 0 -69.5 -21t-31.5 -64l-25 -128h-96l59 306h94l-12 -64h1q30 72 114 72h7z" />
    <glyph glyph-name="s.sups" horiz-adv-x="320" 
d="M358 631l-40 -72q-29 15 -48 22t-41 7q-27 0 -27 -15q0 -6 5 -10t19 -11l49 -25q30 -15 45 -35t15 -52q0 -49 -34.5 -75.5t-98.5 -26.5q-83 0 -151 49l48 68q61 -40 106 -40q32 0 32 17q0 6 -5 10t-14 9l-50 25q-32 16 -48 38.5t-16 53.5q0 43 31 69.5t91 26.5
q66 0 132 -33z" />
    <glyph glyph-name="t.sups" horiz-adv-x="260" 
d="M220 473q-2 -12 -2 -16q0 -10 6 -14.5t19 -4.5h18l-17 -90h-42q-85 0 -85 75q0 18 4 34l22 115h-62l16 82h62l24 121h96l-24 -121h69l-16 -82h-69z" />
    <glyph glyph-name="u.sups" horiz-adv-x="398" 
d="M110 361.5q-26 23.5 -26 73.5q0 19 5 49l33 170h98l-30 -151q-3 -18 -3 -31q0 -48 49 -48q31 0 48 21t25 62l29 147h97l-60 -306h-94l10 51h-1q-44 -61 -112 -61q-42 0 -68 23.5z" />
    <glyph glyph-name="v.sups" horiz-adv-x="375" 
d="M259 348h-97l-72 306h101l31 -207l112 207h115z" />
    <glyph glyph-name="w.sups" horiz-adv-x="554" 
d="M455 348h-84l-35 185l-107 -185h-84l-55 306h93l23 -184l103 184h89l33 -184l94 184h103z" />
    <glyph glyph-name="x.sups" horiz-adv-x="384" 
d="M302 502l97 -154h-104l-57 91l-92 -91h-115l163 161l-91 145h104l52 -82l83 82h115z" />
    <glyph glyph-name="y.sups" horiz-adv-x="383" 
d="M457 654l-293 -438h-105l115 171l-84 267h105l43 -171l115 171h104z" />
    <glyph glyph-name="z.sups" horiz-adv-x="334" 
d="M368 583l-183 -153h163l-16 -82h-284l14 74l180 150h-139l16 82h262z" />
    <glyph glyph-name="uni0443.loclBGR" horiz-adv-x="424" 
d="M42 17q-45 32 -45 101q0 51 29.5 87.5t99.5 62.5l91 36q31 12 42.5 21.5t11.5 23.5q0 13 -10 19t-35 6q-57 0 -131 -27l-31 98q88 32 171 32q75 0 117.5 -31t42.5 -95q0 -53 -32 -89t-101 -63l-91 -36q-27 -12 -38 -20t-11 -23q0 -16 12.5 -23t40.5 -7q71 0 160 43
l39 -97q-49 -25 -103 -38t-105 -13q-79 0 -124 32z" />
    <glyph glyph-name="zero.dnom" horiz-adv-x="430" 
d="M80.5 30.5q-40.5 39.5 -40.5 124.5q0 61 21 116t63.5 89.5t104.5 34.5q66 0 106.5 -39.5t40.5 -124.5q0 -61 -21 -116t-63.5 -89.5t-104.5 -34.5q-66 0 -106.5 39.5zM254.5 84q25.5 28 37 68.5t11.5 79.5q0 52 -21.5 75t-55.5 23q-39 0 -64.5 -28t-37 -69t-11.5 -79
q0 -52 21.5 -75t55.5 -23q39 0 64.5 28z" />
    <glyph glyph-name="one.dnom" horiz-adv-x="292" 
d="M130 318h-32l13 68h101l-75 -386h-68z" />
    <glyph glyph-name="two.dnom" horiz-adv-x="368" 
d="M7 57l167 134q38 30 55.5 49t17.5 44q0 22 -15 34.5t-42 12.5q-29 0 -47.5 -14.5t-23.5 -42.5h-68q6 54 43 87.5t100 33.5q54 0 89.5 -26.5t35.5 -77.5q0 -41 -23 -71.5t-75 -70.5l-108 -83h172l-13 -66h-276z" />
    <glyph glyph-name="three.dnom" horiz-adv-x="361" 
d="M45 16.5q-37 25.5 -37 72.5q0 9 2 23h68v-7q0 -51 72 -51q39 0 57 17.5t18 42.5q0 30 -22 43.5t-75 12.5l13 61q51 0 76 14t25 44q0 24 -15.5 34t-39.5 10q-29 0 -47 -13.5t-22 -36.5h-67q7 55 42.5 83.5t96.5 28.5q56 0 90 -22.5t34 -70.5q0 -38 -23.5 -64t-66.5 -34v-1
q34 -5 53.5 -27.5t19.5 -60.5q0 -51 -36 -87.5t-114 -36.5q-65 0 -102 25.5z" />
    <glyph glyph-name="four.dnom" horiz-adv-x="375" 
d="M279 132h44l-13 -63h-44l-13 -69h-67l13 69h-202l11 59l242 258h78zM211 132l33 169h-2l-157 -169h126z" />
    <glyph glyph-name="five.dnom" horiz-adv-x="355" 
d="M0 59l53 46q15 -24 39.5 -36t54.5 -12q43 0 63 23t20 54q0 30 -17 46t-45 16q-38 0 -64 -31h-63l66 221h214l-13 -67h-158l-31 -97h3q26 32 72 32q42 0 74.5 -30t32.5 -89q0 -64 -41.5 -104t-117.5 -40q-93 0 -142 68z" />
    <glyph glyph-name="six.dnom" horiz-adv-x="359" 
d="M54 23q-39 32 -39 97q0 43 23 84.5t78 94.5l100 96h92l-183 -166l1 -1q39 31 81 31q44 0 74 -31t30 -82q0 -39 -18.5 -75t-54.5 -58t-86 -22q-59 0 -98 32zM216.5 80q22.5 24 22.5 58q0 28 -19 43.5t-48 15.5q-37 0 -61.5 -22t-24.5 -56q0 -30 18.5 -46.5t48.5 -16.5
q41 0 63.5 24z" />
    <glyph glyph-name="seven.dnom" horiz-adv-x="307" 
d="M220 318h-182l13 68h260l-12 -65l-229 -321h-76z" />
    <glyph glyph-name="eight.dnom" horiz-adv-x="383" 
d="M56.5 21q-35.5 30 -35.5 78q0 45 28 74t71 34l1 2q-24 8 -37.5 27t-13.5 47q0 48 39 80t103 32q58 0 91.5 -27.5t33.5 -70.5q0 -37 -23.5 -62t-60.5 -32l-1 -2q61 -17 61 -82q0 -55 -42 -91.5t-114 -36.5q-65 0 -100.5 30zM244.5 250q18.5 15 18.5 38q0 21 -14.5 32
t-40.5 11q-31 0 -49.5 -14.5t-18.5 -38.5q0 -21 14.5 -32t40.5 -11q31 0 49.5 15zM221 74q21 18 21 47q0 27 -18.5 41t-49.5 14q-36 0 -58 -18.5t-22 -47.5q0 -27 19 -40.5t50 -13.5q37 0 58 18z" />
    <glyph glyph-name="nine.dnom" horiz-adv-x="357" 
d="M217 152l-2 1q-34 -26 -74 -26q-46 0 -75 34t-29 86q0 64 43.5 106t115.5 42q61 0 99.5 -32t38.5 -96q0 -39 -22 -81t-82 -98l-97 -88h-90zM240 210.5q24 23.5 24 57.5q0 30 -19.5 46.5t-51.5 16.5q-39 0 -62 -23t-23 -57q0 -31 18.5 -47.5t50.5 -16.5q39 0 63 23.5z" />
    <glyph glyph-name="zero.numr" horiz-adv-x="430" 
d="M136.5 319.5q-40.5 39.5 -40.5 124.5q0 61 21 116t63.5 89.5t104.5 34.5q66 0 106.5 -39.5t40.5 -124.5q0 -61 -21 -116t-63.5 -89.5t-104.5 -34.5q-66 0 -106.5 39.5zM310.5 373q25.5 28 37 68.5t11.5 79.5q0 52 -21.5 75t-55.5 23q-39 0 -64.5 -28t-37 -69t-11.5 -79
q0 -52 21.5 -75t55.5 -23q39 0 64.5 28z" />
    <glyph glyph-name="one.numr" horiz-adv-x="292" 
d="M186 607h-32l13 68h101l-75 -386h-68z" />
    <glyph glyph-name="two.numr" horiz-adv-x="368" 
d="M63 346l167 134q38 30 55.5 49t17.5 44q0 22 -15 34.5t-42 12.5q-29 0 -47.5 -14.5t-23.5 -42.5h-68q6 54 43 87.5t100 33.5q54 0 89.5 -26.5t35.5 -77.5q0 -41 -23 -71.5t-75 -70.5l-108 -83h172l-13 -66h-276z" />
    <glyph glyph-name="three.numr" horiz-adv-x="361" 
d="M101 305.5q-37 25.5 -37 72.5q0 9 2 23h68v-7q0 -51 72 -51q39 0 57 17.5t18 42.5q0 30 -22 43.5t-75 12.5l13 61q51 0 76 14t25 44q0 24 -15.5 34t-39.5 10q-29 0 -47 -13.5t-22 -36.5h-67q7 55 42.5 83.5t96.5 28.5q56 0 90 -22.5t34 -70.5q0 -38 -23.5 -64t-66.5 -34
v-1q34 -5 53.5 -27.5t19.5 -60.5q0 -51 -36 -87.5t-114 -36.5q-65 0 -102 25.5z" />
    <glyph glyph-name="four.numr" horiz-adv-x="375" 
d="M335 421h44l-13 -63h-44l-13 -69h-67l13 69h-202l11 59l242 258h78zM267 421l33 169h-2l-157 -169h126z" />
    <glyph glyph-name="five.numr" horiz-adv-x="355" 
d="M56 348l53 46q15 -24 39.5 -36t54.5 -12q43 0 63 23t20 54q0 30 -17 46t-45 16q-38 0 -64 -31h-63l66 221h214l-13 -67h-158l-31 -97h3q26 32 72 32q42 0 74.5 -30t32.5 -89q0 -64 -41.5 -104t-117.5 -40q-93 0 -142 68z" />
    <glyph glyph-name="six.numr" horiz-adv-x="359" 
d="M110 312q-39 32 -39 97q0 43 23 84.5t78 94.5l100 96h92l-183 -166l1 -1q39 31 81 31q44 0 74 -31t30 -82q0 -39 -18.5 -75t-54.5 -58t-86 -22q-59 0 -98 32zM272.5 369q22.5 24 22.5 58q0 28 -19 43.5t-48 15.5q-37 0 -61.5 -22t-24.5 -56q0 -30 18.5 -46.5t48.5 -16.5
q41 0 63.5 24z" />
    <glyph glyph-name="seven.numr" horiz-adv-x="307" 
d="M276 607h-182l13 68h260l-12 -65l-229 -321h-76z" />
    <glyph glyph-name="eight.numr" horiz-adv-x="383" 
d="M113.5 310q-35.5 30 -35.5 78q0 45 28 74t71 34l1 2q-24 8 -37.5 27t-13.5 47q0 48 39 80t103 32q58 0 91.5 -27.5t33.5 -70.5q0 -37 -23.5 -62t-60.5 -32l-1 -2q61 -17 61 -82q0 -55 -42 -91.5t-114 -36.5q-65 0 -100.5 30zM301.5 539q18.5 15 18.5 38q0 21 -14.5 32
t-40.5 11q-31 0 -49.5 -14.5t-18.5 -38.5q0 -21 14.5 -32t40.5 -11q31 0 49.5 15zM278 363q21 18 21 47q0 27 -18.5 41t-49.5 14q-36 0 -58 -18.5t-22 -47.5q0 -27 19 -40.5t50 -13.5q37 0 58 18z" />
    <glyph glyph-name="nine.numr" horiz-adv-x="358" 
d="M273 441l-2 1q-34 -26 -74 -26q-46 0 -75 34t-29 86q0 64 43.5 106t115.5 42q61 0 99.5 -32t38.5 -96q0 -39 -22 -81t-82 -98l-97 -88h-90zM296 499.5q24 23.5 24 57.5q0 30 -19.5 46.5t-51.5 16.5q-39 0 -62 -23t-23 -57q0 -31 18.5 -47.5t50.5 -16.5q39 0 63 23.5z" />
    <glyph glyph-name="colon.case" horiz-adv-x="238" 
d="M187 229l-15 -76h-138l26 139h1l14 76h139z" />
    <glyph glyph-name="exclamdown.case" horiz-adv-x="326" 
d="M295 562h-139l27 139h138zM168 481h86l-62 -480h-145z" />
    <glyph glyph-name="questiondown.case" horiz-adv-x="430" 
d="M370 560h-139l27 139h138zM340 450q-13 -62 -46 -103.5t-87 -79.5q-37 -26 -56 -50.5t-19 -53.5q0 -28 18.5 -44.5t56.5 -16.5q42 0 70.5 22.5t35.5 68.5h123q-15 -106 -77 -157.5t-161 -51.5q-93 0 -143 43.5t-50 120.5q0 55 28.5 98.5t79.5 81.5q38 28 56.5 44t32 38
t20.5 52l3 17h121z" />
    <glyph glyph-name="semicolon.case" horiz-adv-x="249" 
d="M74 0h-54l27 139h137l-26 -139l-128 -153h-54zM105 521h139l-27 -139h-138z" />
    <glyph glyph-name="colon.case.ss01" horiz-adv-x="238" 
d="M148.5 129q23.5 -24 23.5 -59t-23.5 -58.5t-59.5 -23.5q-35 0 -58.5 23.5t-23.5 58.5t23.5 59t58.5 24q36 0 59.5 -24zM220.5 516q23.5 -24 23.5 -59t-23.5 -58.5t-59.5 -23.5q-35 0 -58.5 23.5t-23.5 58.5t23.5 59t58.5 24q36 0 59.5 -24z" />
    <glyph glyph-name="exclamdown.case.ss01" horiz-adv-x="325" 
d="M181.5 571q-23.5 24 -23.5 59t23.5 58.5t59.5 23.5q35 0 58.5 -23.5t23.5 -58.5t-23.5 -59t-58.5 -24q-36 0 -59.5 24zM174 480h87l-63 -480h-145z" />
    <glyph glyph-name="questiondown.case.ss01" horiz-adv-x="430" 
d="M243.5 571q-23.5 24 -23.5 59t23.5 58.5t59.5 23.5q35 0 58.5 -23.5t23.5 -58.5t-23.5 -59t-58.5 -24q-36 0 -59.5 24zM340 451q-13 -66 -46.5 -105.5t-86.5 -77.5q-34 -23 -54.5 -48t-20.5 -56q0 -28 18.5 -44.5t56.5 -16.5q44 0 71.5 23.5t34.5 67.5h123
q-14 -102 -74.5 -155.5t-162.5 -53.5q-89 0 -141.5 41.5t-52.5 122.5q0 58 30 101t78 79q7 5 37.5 27.5t47.5 48t24 58.5l3 17h121z" />
    <glyph glyph-name="semicolon.case.ss01" horiz-adv-x="249" 
d="M64 -9q-24 8 -37.5 28t-13.5 47q0 35 22.5 57.5t58.5 22.5q38 0 60 -22.5t22 -55.5q0 -20 -10 -40t-31 -44l-118 -134h-48zM224.5 516q23.5 -24 23.5 -59t-23.5 -58.5t-59.5 -23.5q-35 0 -58.5 23.5t-23.5 58.5t23.5 59t58.5 24q36 0 59.5 -24z" />
    <glyph glyph-name="braceleft.case" horiz-adv-x="408" 
d="M493 720h-36q-45 0 -71 -20t-38 -79l-24 -125q-13 -64 -48.5 -98.5t-104.5 -45.5v-2q52 -11 75 -37t23 -73q0 -25 -6 -57l-23 -118q-4 -20 -4 -38q0 -39 19.5 -53.5t53.5 -14.5h36l-20 -104h-39q-72 0 -117.5 34.5t-45.5 110.5q0 26 6 59l24 121q4 20 4 31q0 42 -28 62.5
t-81 23.5l22 114q129 5 146 92l26 137q18 98 78.5 141t143.5 43h49z" />
    <glyph glyph-name="braceright.case" horiz-adv-x="408" 
d="M-42 -41h36q45 0 71 20t38 79l24 125q13 64 48.5 98.5t104.5 45.5v2q-52 11 -75 37t-23 73q0 26 6 57l23 118q4 20 4 38q0 39 -19.5 53.5t-53.5 14.5h-36l20 104h39q72 0 117.5 -34.5t45.5 -110.5q0 -26 -6 -59l-24 -121q-4 -20 -4 -31q0 -42 28 -62.5t81 -23.5l-22 -114
q-129 -5 -146 -92l-26 -137q-18 -98 -78.5 -141t-143.5 -43h-49z" />
    <glyph glyph-name="bracketleft.case" horiz-adv-x="348" 
d="M435 731h-133l-151 -779h132l-18 -97h-245l190 974h244z" />
    <glyph glyph-name="bracketright.case" horiz-adv-x="348" 
d="M-44 -47h133l151 779h-132l18 97h245l-190 -974h-244z" />
    <glyph glyph-name="parenleft.case" horiz-adv-x="345" 
d="M77 222q0 149 43 266.5t98 193.5t134 163l84 -68q-76 -82 -127 -153.5t-85.5 -170t-34.5 -222.5q0 -181 73 -329l-100 -47q-85 170 -85 367z" />
    <glyph glyph-name="parenright.case" horiz-adv-x="345" 
d="M310 454q0 -149 -43 -266.5t-98 -193.5t-134 -163l-84 68q76 82 127 153.5t85.5 170t34.5 222.5q0 181 -73 329l100 47q85 -170 85 -367z" />
    <glyph glyph-name="emdash.case" horiz-adv-x="1154" 
d="M1117 300h-1054l20 100h1054z" />
    <glyph glyph-name="endash.case" horiz-adv-x="744" 
d="M710 298h-652l20 102h652z" />
    <glyph glyph-name="hyphen.case" horiz-adv-x="358" 
d="M77 402h271l-22 -114h-272z" />
    <glyph glyph-name="guillemotleft.case" horiz-adv-x="517" 
d="M34 316l187 166h134l-200 -175l118 -158h-117zM234 316l187 166h134l-200 -175l118 -158h-117z" />
    <glyph glyph-name="guillemotright.case" horiz-adv-x="522" 
d="M314 311l-187 -166h-134l200 175l-118 158h117zM519 311l-187 -166h-134l200 175l-118 158h117z" />
    <glyph glyph-name="guilsinglleft.case" horiz-adv-x="317" 
d="M34 316l187 166h134l-200 -175l118 -158h-117z" />
    <glyph glyph-name="guilsinglright.case" horiz-adv-x="317" 
d="M314 311l-187 -166h-134l200 175l-118 158h117z" />
    <glyph glyph-name="approxequal.case" 
d="M254 490q31 -11 81 -34q42 -20 68.5 -29.5t48.5 -9.5q56 0 81 71h54q-18 -67 -53.5 -98.5t-80.5 -31.5q-31 0 -63.5 11.5t-79.5 33.5q-43 20 -68.5 29.5t-48.5 9.5q-57 0 -80 -71h-54q17 67 53 98.5t81 31.5q30 0 61 -11zM255.5 325.5q32.5 -11.5 79.5 -34.5
q42 -20 68.5 -29.5t48.5 -9.5q56 0 81 72h54q-18 -67 -53.5 -98.5t-80.5 -31.5q-31 0 -63.5 11.5t-79.5 33.5q-43 20 -68.5 29.5t-48.5 9.5q-56 0 -80 -72h-54q17 68 53 99.5t81 31.5q30 0 62.5 -11.5z" />
    <glyph glyph-name="divide.case" 
d="M363 454h-85v91h85v-91zM579 311h-518v55h518v-55zM363 131h-85v92h85v-92z" />
    <glyph glyph-name="equal.case" 
d="M574 413h-506v54h506v-54zM574 213h-506v54h506v-54z" />
    <glyph glyph-name="greater.case" 
d="M570 370v-61l-458 -202v64l391 168l-391 169v64z" />
    <glyph glyph-name="less.case" 
d="M530 508l-391 -169l391 -168v-64l-458 202v61l458 202v-64z" />
    <glyph glyph-name="logicalnot.case" 
d="M549 472v-265h-53v211h-404v54h457z" />
    <glyph glyph-name="minus.case" 
d="M560 309h-478v58h478v-58z" />
    <glyph glyph-name="multiply.case" 
d="M539 516l-178 -178l178 -178l-41 -40l-177 177l-178 -178l-42 42l178 178l-177 177l40 41l178 -178l178 178z" />
    <glyph glyph-name="notequal.case" 
d="M405 413l-89 -146h258v-54h-291l-57 -94h-56l57 94h-159v54h192l88 146h-280v54h313l55 91h57l-55 -91h136v-54h-169z" />
    <glyph glyph-name="plus.case" 
d="M349 365h215v-54h-215v-217h-58v217h-215v54h215v216h58v-216z" />
    <glyph glyph-name="divide.case.ss01" 
d="M286.5 458.5q-13.5 13.5 -13.5 34.5t13.5 34t33.5 13t33 -13t13 -34t-13 -34.5t-33 -13.5t-33.5 13.5zM61 366h518v-55h-518v55zM286.5 150q-13.5 13 -13.5 34t13.5 34.5t33.5 13.5t33 -13.5t13 -34.5t-13 -34t-33 -13t-33.5 13z" />
    <glyph glyph-name="arrowup.case" horiz-adv-x="733" 
d="M630 349l-148 193l-102 -524h-105l100 516l-221 -185l-66 81l378 304l254 -313z" />
    <glyph glyph-name="uni2197.case" horiz-adv-x="654" 
d="M670 628l-75 -442l-114 1l49 261l-434 -364l-60 74l442 371l-268 -5l21 111z" />
    <glyph glyph-name="arrowright.case" horiz-adv-x="817" 
d="M794 371l-368 -319l-63 81l217 185h-513l21 106h525l-158 185l90 76z" />
    <glyph glyph-name="uni2198.case" horiz-adv-x="653" 
d="M666 553l-96 -441l-442 -3l21 105l268 -4l-299 371l89 74l295 -365l50 262z" />
    <glyph glyph-name="arrowdown.case" horiz-adv-x="734" 
d="M700 311l-378 -304l-255 309l91 76l148 -195l102 526h105l-100 -515l221 184z" />
    <glyph glyph-name="uni2199.case" horiz-adv-x="654" 
d="M230 211l269 5l-20 -105l-441 2l75 441l114 -1l-51 -262l436 365l60 -74z" />
    <glyph glyph-name="arrowleft.case" horiz-adv-x="815" 
d="M782 317h-524l157 -185l-87 -74l-251 312l366 319l65 -81l-222 -185h517z" />
    <glyph glyph-name="uni2196.case" horiz-adv-x="653" 
d="M501 85l-296 366l-50 -263l-114 -1l96 441l442 2l-22 -106l-266 4l298 -369z" />
    <glyph glyph-name="arrowboth.case" horiz-adv-x="1256" 
d="M1233 370l-368 -319l-63 81l217 185h-761l157 -185l-87 -74l-251 312l366 319l65 -81l-222 -185h766l-158 185l90 76z" />
    <glyph glyph-name="bar.case" horiz-adv-x="318" 
d="M223 807h97l-184 -942h-97z" />
    <glyph glyph-name="brokenbar.case" horiz-adv-x="318" 
d="M244 419h-97l76 388h97zM137 -135h-97l77 396h97z" />
    <glyph glyph-name="at.case" horiz-adv-x="958" 
d="M269.5 -35.5q-91.5 44.5 -145.5 132t-54 212.5q0 132 60.5 234.5t167 159.5t241.5 57q120 0 211.5 -43t141.5 -120.5t50 -176.5q0 -80 -30 -148.5t-83 -109.5t-118 -41q-47 0 -77 21t-39 59h-2q-54 -80 -142 -80q-78 0 -126.5 53t-48.5 142q0 71 30.5 126t82 85t111.5 30
q101 0 136 -85h2l12 70h101l-54 -279q-3 -13 -3 -21q0 -19 9.5 -28t26.5 -9q33 0 59.5 29.5t42 77.5t15.5 100q0 84 -38.5 143.5t-107.5 89.5t-159 30q-107 0 -193.5 -44t-136 -126.5t-49.5 -191.5q0 -101 42 -170.5t113.5 -103.5t162.5 -34q99 0 190 36l16 -83
q-109 -38 -214 -38q-112 0 -203.5 44.5zM580.5 264q35.5 39 35.5 94q0 45 -25.5 70.5t-71.5 25.5q-57 0 -92.5 -39t-35.5 -94q0 -45 26 -70.5t72 -25.5q56 0 91.5 39z" />
    <glyph glyph-name="uniF8FF.ss01" horiz-adv-x="786" 
d="M228 32q-83 47 -130 130.5t-47 187.5t47 187.5t130 130.5t188 47t188 -47t130 -130.5t47 -187.5t-47 -187.5t-130 -130.5t-188 -47t-188 47zM589.5 54q78.5 44 123.5 122.5t45 178.5l-51 65l-70 -30l-68 90l-79 -44l-74 118l-74 -118l-79 44l-68 -90l-70 30l-51 -65
q0 -100 45 -178.5t123.5 -122.5t173.5 -44t173.5 44zM288 328q-10 10 -10 25t10 25t25 10t25 -10t10 -25t-10 -25t-25 -10t-25 10zM493 328q-10 10 -10 25t10 25t25 10t25 -10t10 -25t-10 -25t-25 -10t-25 10zM410 356q1 4 4 5.5t7 -0.5q3 -1 4.5 -4t0.5 -7l-28 -78h34
q4 0 6.5 -2.5t2.5 -6.5q0 -3 -2.5 -5.5t-6.5 -2.5h-58zM169.5 190.5q-19.5 19.5 -19.5 49.5t19.5 49.5t49.5 19.5t49.5 -19.5t19.5 -49.5t-19.5 -49.5t-49.5 -19.5t-49.5 19.5zM562.5 190.5q-19.5 19.5 -19.5 49.5t19.5 49.5t49.5 19.5t49.5 -19.5t19.5 -49.5t-19.5 -49.5
t-49.5 -19.5t-49.5 19.5zM478 225q3 6 9 6q8 0 8 -9q0 -8 -8.5 -18.5t-26.5 -18.5t-44 -8t-44 8t-26.5 18.5t-8.5 18.5q0 9 8 9q6 0 9 -6q17 -30 62 -30t62 30z" />
    <glyph glyph-name="uni0308.case" horiz-adv-x="0" 
d="M-256 852h119l-21 -109h-119zM-48 852h118l-20 -109h-119z" />
    <glyph glyph-name="uni0307.case" horiz-adv-x="0" 
d="M50 743h-123l22 115h123z" />
    <glyph glyph-name="gravecomb.case" horiz-adv-x="0" 
d="M50 743h-82l-135 120h140z" />
    <glyph glyph-name="acutecomb.case" horiz-adv-x="0" 
d="M-72 863h145l-182 -120h-90z" />
    <glyph glyph-name="uni030B.case" horiz-adv-x="0" 
d="M-216 743h-84l135 120h101zM-79 743h-84l135 120h101z" />
    <glyph glyph-name="uni0302.case" horiz-adv-x="0" 
d="M-166 863h122l94 -120h-103l-56 70l-89 -70h-116z" />
    <glyph glyph-name="uni030C.case" horiz-adv-x="0" 
d="M-249 812l7 51l86 -44l77 17l94 27l-31 -69l-117 -51z" />
    </font>
</defs>
</svg>
