<?xml version="1.0" standalone="no"?>
<!DOCTYPE svg PUBLIC "-//W3C//DTD SVG 1.1//EN" "http://www.w3.org/Graphics/SVG/1.1/DTD/svg11.dtd" >
<svg xmlns="http://www.w3.org/2000/svg" xmlns:xlink="http://www.w3.org/1999/xlink" version="1.1">
<metadata>
Created by FontForge 20170731 at Thu Jun 30 20:48:54 2016
 By Aleksey,,,
Copyright (c) 2015 by Reto Moser. All rights reserved.
</metadata>
<defs>
<font id="GTEestiDisplay-UltraBold" horiz-adv-x="600" >
  <font-face 
    font-family="GT Eesti Display UltraBold"
    font-weight="900"
    font-stretch="normal"
    units-per-em="1000"
    panose-1="0 0 10 0 0 0 0 0 0 0"
    ascent="750"
    descent="-250"
    x-height="462"
    cap-height="700"
    bbox="-542 -252 1220 900"
    underline-thickness="50"
    underline-position="-150"
    unicode-range="U+0020-FB02"
  />
<missing-glyph horiz-adv-x="770" 
d="M197.5 32q-83.5 47 -130.5 130.5t-47 187.5q0 105 47 188t130.5 130t187.5 47q105 0 188 -47t130 -130t47 -188q0 -104 -47 -187.5t-130 -130.5t-188 -47q-104 0 -187.5 47zM560 54.5q78 44.5 122.5 123.5t44.5 177l-51 65l-70 -30l-68 90l-79 -44l-74 118l-74 -118
l-79 44l-68 -90l-70 30l-51 -65q0 -98 44.5 -177t122.5 -123.5t175 -44.5t175 44.5zM257 328q-10 10 -10 25t10 25t25 10t25 -10t10 -25t-10 -25t-25 -10t-25 10zM462 328q-10 10 -10 25t10 25t25 10t25 -10t10 -25t-10 -25t-25 -10t-25 10zM379 356q1 4 4 5.5t7 -0.5
q3 -1 4.5 -4t0.5 -7l-28 -78h34q4 0 6.5 -2.5t2.5 -6.5q0 -3 -2.5 -5.5t-6.5 -2.5h-58zM138.5 190.5q-19.5 19.5 -19.5 49.5t19.5 49.5t49.5 19.5t49.5 -19.5t19.5 -49.5t-19.5 -49.5t-49.5 -19.5t-49.5 19.5zM531.5 190.5q-19.5 19.5 -19.5 49.5t19.5 49.5t49.5 19.5
t49.5 -19.5t19.5 -49.5t-19.5 -49.5t-49.5 -19.5t-49.5 19.5zM346.5 185q-16.5 -8 -23.5 -22q-3 -6 -9 -6q-8 0 -8 9q0 17 24.5 31t54.5 14t54.5 -14t24.5 -31q0 -9 -8 -9q-6 0 -9 6q-7 14 -23.5 22t-38.5 8t-38.5 -8z" />
    <glyph glyph-name="fi" unicode="fi" horiz-adv-x="663" 
d="M301 523.5q-19 -15.5 -19 -59.5v-2h103v-152h-103v-310h-185v310h-87v152h87v3q0 132 60 188.5t189 56.5h42v-171h-19q-49 0 -68 -15.5zM623 0h-185v462h185v-462zM625 527h-189v173h189v-173z" />
    <glyph glyph-name="fl" unicode="fl" horiz-adv-x="663" 
d="M301 523.5q-19 -15.5 -19 -59.5v-2h103v-152h-103v-310h-185v310h-87v152h87v3q0 132 60 188.5t189 56.5h42v-171h-19q-49 0 -68 -15.5zM623 0h-185v700h185v-700z" />
    <glyph glyph-name="f_f" unicode="ff" horiz-adv-x="801" 
d="M301 523.5q-19 -15.5 -19 -59.5v-2h103v-152h-103v-310h-185v310h-87v152h87v3q0 132 60 188.5t189 56.5h42v-171h-19q-49 0 -68 -15.5zM704 523.5q-19 -15.5 -19 -59.5v-2h103v-152h-103v-310h-185v310h-87v152h87v3q0 132 60 188.5t189 56.5h42v-171h-19
q-49 0 -68 -15.5z" />
    <glyph glyph-name="f_f_i" unicode="ffi" horiz-adv-x="1066" 
d="M301 523.5q-19 -15.5 -19 -59.5v-2h103v-152h-103v-310h-185v310h-87v152h87v3q0 132 60 188.5t189 56.5h42v-171h-19q-49 0 -68 -15.5zM704 523.5q-19 -15.5 -19 -59.5v-2h103v-152h-103v-310h-185v310h-87v152h87v3q0 132 60 188.5t189 56.5h42v-171h-19
q-49 0 -68 -15.5zM1026 0h-185v462h185v-462zM1028 527h-189v173h189v-173z" />
    <glyph glyph-name="f_f_l" unicode="ffl" horiz-adv-x="1066" 
d="M301 523.5q-19 -15.5 -19 -59.5v-2h103v-152h-103v-310h-185v310h-87v152h87v3q0 132 60 188.5t189 56.5h42v-171h-19q-49 0 -68 -15.5zM704 523.5q-19 -15.5 -19 -59.5v-2h103v-152h-103v-310h-185v310h-87v152h87v3q0 132 60 188.5t189 56.5h42v-171h-19
q-49 0 -68 -15.5zM1026 0h-185v700h185v-700z" />
    <glyph glyph-name=".notdef" horiz-adv-x="770" 
d="M197.5 32q-83.5 47 -130.5 130.5t-47 187.5q0 105 47 188t130.5 130t187.5 47q105 0 188 -47t130 -130t47 -188q0 -104 -47 -187.5t-130 -130.5t-188 -47q-104 0 -187.5 47zM560 54.5q78 44.5 122.5 123.5t44.5 177l-51 65l-70 -30l-68 90l-79 -44l-74 118l-74 -118
l-79 44l-68 -90l-70 30l-51 -65q0 -98 44.5 -177t122.5 -123.5t175 -44.5t175 44.5zM257 328q-10 10 -10 25t10 25t25 10t25 -10t10 -25t-10 -25t-25 -10t-25 10zM462 328q-10 10 -10 25t10 25t25 10t25 -10t10 -25t-10 -25t-25 -10t-25 10zM379 356q1 4 4 5.5t7 -0.5
q3 -1 4.5 -4t0.5 -7l-28 -78h34q4 0 6.5 -2.5t2.5 -6.5q0 -3 -2.5 -5.5t-6.5 -2.5h-58zM138.5 190.5q-19.5 19.5 -19.5 49.5t19.5 49.5t49.5 19.5t49.5 -19.5t19.5 -49.5t-19.5 -49.5t-49.5 -19.5t-49.5 19.5zM531.5 190.5q-19.5 19.5 -19.5 49.5t19.5 49.5t49.5 19.5
t49.5 -19.5t19.5 -49.5t-19.5 -49.5t-49.5 -19.5t-49.5 19.5zM346.5 185q-16.5 -8 -23.5 -22q-3 -6 -9 -6q-8 0 -8 9q0 17 24.5 31t54.5 14t54.5 -14t24.5 -31q0 -9 -8 -9q-6 0 -9 6q-7 14 -23.5 22t-38.5 8t-38.5 -8z" />
    <glyph glyph-name=".null" horiz-adv-x="0" 
 />
    <glyph glyph-name="nonmarkingreturn" horiz-adv-x="362" 
 />
    <glyph glyph-name="space" unicode=" " horiz-adv-x="250" 
 />
    <glyph glyph-name="exclam" unicode="!" horiz-adv-x="350" 
d="M70 700h210l-38 -459h-134zM268 0h-186v188h186v-188z" />
    <glyph glyph-name="quotedbl" unicode="&#x22;" horiz-adv-x="400" 
d="M50 715h129l-23 -253h-83zM221 715h129l-23 -253h-83z" />
    <glyph glyph-name="numbersign" unicode="#" horiz-adv-x="633" 
d="M482 429l-26 -142h93v-90h-109l-36 -197h-95l36 197h-115l-36 -197h-95l36 197h-95v90h111l26 142h-93v90h109l33 181h95l-33 -181h115l33 181h95l-33 -181h95v-90h-111zM387 429h-115l-26 -142h115z" />
    <glyph glyph-name="dollar" unicode="$" horiz-adv-x="583" 
d="M484 47.5q-64 -58.5 -171 -62.5v-62h-28v62q-120 4 -185 70.5t-65 173.5h170q4 -39 24 -58.5t56 -22.5v121q-15 5 -19 7q-62 21 -102.5 42.5t-70 63t-29.5 108.5q0 96 62 147t159 53v72h28v-72q100 -5 157.5 -61.5t57.5 -165.5h-170q-2 30 -12.5 46t-32.5 20v-101l26 -9
q63 -19 105 -40t73 -63.5t31 -111.5q0 -98 -64 -156.5zM248.5 459.5q12.5 -11.5 36.5 -21.5v91q-49 -3 -49 -42q0 -16 12.5 -27.5zM361.5 162q14.5 12 14.5 33t-16 36t-47 27v-110q34 2 48.5 14z" />
    <glyph glyph-name="percent" unicode="%" horiz-adv-x="814" 
d="M341 644.5q47 -45.5 47 -119.5t-47 -119.5t-122 -45.5t-122 45.5t-47 119.5t47 119.5t122 45.5t122 -45.5zM556 675h90l-398 -675h-90zM163 581.5q-22 -21.5 -22 -56.5t22 -56.5t56 -21.5t56 21.5t22 56.5t-22 56.5t-56 21.5t-56 -21.5zM717 279.5q47 -45.5 47 -119.5
t-47 -119.5t-122 -45.5t-122 45.5t-47 119.5t47 119.5t122 45.5t122 -45.5zM539 216.5q-22 -21.5 -22 -56.5t22 -56.5t56 -21.5t56 21.5t22 56.5t-22 56.5t-56 21.5t-56 -21.5z" />
    <glyph glyph-name="ampersand" unicode="&#x26;" horiz-adv-x="748" 
d="M613 148l113 -148h-217l-24 31q-79 -46 -177 -46q-82 0 -147.5 29.5t-103 85.5t-37.5 133q0 78 40.5 136t112.5 81q-15 40 -15 82q0 79 50.5 118.5t141.5 39.5q78 0 194 -31l-45 -157q-40 13 -66 19t-45 6q-15 0 -22.5 -5.5t-7.5 -22.5q0 -18 15 -37l127 -166
q22 26 65 86l22 29l146 -102q-82 -115 -120 -161zM369 181l-104 133q-32 -5 -49.5 -25t-17.5 -47q0 -34 26 -55.5t73 -21.5q39 0 72 16z" />
    <glyph glyph-name="quotesingle" unicode="'" horiz-adv-x="239" 
d="M166 462h-93l-23 253h139z" />
    <glyph glyph-name="parenleft" unicode="(" horiz-adv-x="348" 
d="M326 730q-34 -57 -60 -110t-45.5 -130.5t-19.5 -170.5q0 -143 37 -254.5t90 -210.5l-128 -69q-43 81 -73.5 153.5t-51 168.5t-20.5 212q0 106 20 191.5t49.5 149t74.5 140.5z" />
    <glyph glyph-name="parenright" unicode=")" horiz-adv-x="348" 
d="M20 -146q53 99 90 210.5t37 254.5q0 93 -19.5 170.5t-45.5 130.5t-60 110l127 70q45 -77 74.5 -140.5t49.5 -149t20 -191.5q0 -116 -20.5 -212t-51 -168.5t-73.5 -153.5z" />
    <glyph glyph-name="asterisk" unicode="*" horiz-adv-x="453" 
d="M300 506l85 -91l-98 -73l-61 110l-60 -109l-98 72l85 91l-123 24l38 114l113 -52l-15 123h122l-15 -124l112 53l38 -115z" />
    <glyph glyph-name="plus" unicode="+" 
d="M339 335h206v-75h-206v-206h-78v206h-206v75h206v206h78v-206z" />
    <glyph glyph-name="comma" unicode="," horiz-adv-x="256" 
d="M221 0l-113 -177h-73l63 177h-63v188h186v-188z" />
    <glyph glyph-name="hyphen" unicode="-" horiz-adv-x="351" 
d="M316 186h-281v160h281v-160z" />
    <glyph glyph-name="period" unicode="." horiz-adv-x="256" 
d="M221 0h-186v188h186v-188z" />
    <glyph glyph-name="slash" unicode="/" horiz-adv-x="637" 
d="M617 730l-473 -870l-124 67l473 870z" />
    <glyph glyph-name="zero" unicode="0" horiz-adv-x="632" 
d="M471.5 648.5q65.5 -41.5 100.5 -120.5t35 -190t-35 -190t-100.5 -121t-155.5 -42t-155.5 42t-100.5 121t-35 190t35 190t100.5 120.5t155.5 41.5t155.5 -41.5zM239 472q-26 -41 -26 -134t26 -134.5t77 -41.5t77 41.5t26 134.5t-26 134t-77 41t-77 -41z" />
    <glyph glyph-name="one" unicode="1" horiz-adv-x="326" 
d="M246 0h-180v500h-21v175h201v-675z" />
    <glyph glyph-name="two" unicode="2" horiz-adv-x="566" 
d="M39 154l217 196q42 37 61.5 62t19.5 57q0 26 -15.5 40.5t-43.5 14.5q-34 0 -51.5 -20t-16.5 -51h-185q0 103 63 170t196 67q117 0 183.5 -54.5t66.5 -150.5q0 -64 -31 -115.5t-95 -104.5l-115 -95h248v-170h-502v154z" />
    <glyph glyph-name="three" unicode="3" horiz-adv-x="565" 
d="M464 642.5q68 -47.5 68 -131.5q0 -58 -34.5 -98t-100.5 -58v-2q71 -7 109.5 -50.5t38.5 -114.5q0 -96 -68.5 -149.5t-190.5 -53.5q-139 0 -210 59.5t-71 176.5h186q1 -36 22 -54.5t62 -18.5q36 0 56 16.5t20 46.5q0 34 -25.5 47.5t-89.5 13.5h-26v143h26q55 0 79 14.5
t24 48.5q0 26 -18 40.5t-50 14.5q-34 0 -54 -16t-22 -45h-176q0 105 66.5 161.5t190.5 56.5q120 0 188 -47.5z" />
    <glyph glyph-name="four" unicode="4" horiz-adv-x="593" 
d="M573 106h-64v-106h-172v106h-327v135l321 434h178v-417h64v-152zM337 258v198h-4l-142 -198h146z" />
    <glyph glyph-name="five" unicode="5" horiz-adv-x="562" 
d="M471 505h-243l-9 -88h3q46 31 108 31q57 0 105 -23.5t77.5 -72t29.5 -120.5q0 -73 -32 -128.5t-94.5 -87t-152.5 -31.5q-72 0 -136 19.5t-112 53.5l86 154q38 -27 79 -41.5t78 -14.5q47 0 71.5 21.5t24.5 57.5q0 35 -23 57t-61 22q-28 0 -50.5 -12t-34.5 -31h-133l36 404
h383v-170z" />
    <glyph glyph-name="six" unicode="6" horiz-adv-x="564" 
d="M90 53.5q-75 68.5 -75 195.5q0 81 28 146t92 143l113 137h227l-236 -253l3 -2q21 18 49 25.5t56 7.5q54 0 101.5 -26t76.5 -76t29 -119q0 -66 -27.5 -122t-87 -90.5t-149.5 -34.5q-125 0 -200 68.5zM348.5 166.5q23.5 22.5 23.5 59.5t-23.5 59.5t-63.5 22.5t-63.5 -22.5
t-23.5 -59.5t23.5 -59.5t63.5 -22.5t63.5 22.5z" />
    <glyph glyph-name="seven" unicode="7" horiz-adv-x="483" 
d="M473 509l-258 -509h-200l261 498h-271v177h468v-166z" />
    <glyph glyph-name="eight" unicode="8" horiz-adv-x="590" 
d="M94 36.5q-69 51.5 -69 145.5q0 67 33.5 109t92.5 53v2q-50 14 -77.5 53.5t-27.5 97.5q0 91 65.5 142t183.5 51t183.5 -51t65.5 -142q0 -58 -27.5 -97.5t-77.5 -53.5v-2q59 -11 92.5 -53t33.5 -109q0 -94 -69 -145.5t-201 -51.5t-201 51.5zM342.5 441q18.5 17 18.5 46
t-18.5 46t-47.5 17t-47.5 -17t-18.5 -46t18.5 -46t47.5 -17t47.5 17zM356 152q22 21 22 53t-22 54t-61 22t-61 -22t-22 -54t22 -53t61 -21t61 21z" />
    <glyph glyph-name="nine" unicode="9" horiz-adv-x="566" 
d="M420.5 660q60.5 -30 95.5 -90t35 -146q0 -80 -33 -152t-108 -152l-112 -120h-226l233 229l-2 2q-21 -15 -40 -22t-44 -7q-56 0 -104 31.5t-76.5 86t-28.5 121.5q0 69 32 125.5t93 90t146 33.5q79 0 139.5 -30zM216.5 498.5q-23.5 -22.5 -23.5 -59.5t23.5 -59.5
t63.5 -22.5t63.5 22.5t23.5 59.5t-23.5 59.5t-63.5 22.5t-63.5 -22.5z" />
    <glyph glyph-name="colon" unicode=":" horiz-adv-x="256" 
d="M221 0h-186v188h186v-188zM221 274h-186v188h186v-188z" />
    <glyph glyph-name="semicolon" unicode=";" horiz-adv-x="256" 
d="M221 0l-113 -177h-73l63 177h-63v188h186v-188zM221 274h-186v188h186v-188z" />
    <glyph glyph-name="less" unicode="&#x3c;" 
d="M540 467l-391 -167l391 -167v-89l-480 214v84l480 214v-89z" />
    <glyph glyph-name="equal" unicode="=" 
d="M553 375h-506v76h506v-76zM553 148h-506v76h506v-76z" />
    <glyph glyph-name="greater" unicode="&#x3e;" 
d="M540 342v-84l-480 -214v89l391 167l-391 167v89z" />
    <glyph glyph-name="question" unicode="?" horiz-adv-x="507" 
d="M430 663q52 -52 52 -128q0 -40 -16.5 -78t-55.5 -76l-16 -15q-30 -29 -44.5 -52.5t-14.5 -62.5v-10h-183v29q0 101 78 162q33 26 47.5 41t14.5 38q0 18 -10.5 27.5t-28.5 9.5q-24 0 -36 -16t-12 -44h-175q0 103 59 165t177 62q112 0 164 -52zM336 0h-186v188h186v-188z
" />
    <glyph glyph-name="at" unicode="@" horiz-adv-x="948" 
d="M710.5 644q96.5 -46 149.5 -132t53 -204q0 -65 -22 -124.5t-68 -97t-115 -37.5q-49 0 -84 22t-50 65h-2q-25 -43 -56 -64t-77 -21q-82 0 -135.5 55.5t-53.5 161.5q0 72 25.5 121.5t68.5 73.5t94 24q46 0 75 -17.5t49 -47.5h3v50h132v-277q0 -22 8.5 -31.5t26.5 -9.5
q15 0 31 19.5t26.5 54.5t10.5 78q0 92 -41 154t-111.5 92.5t-161.5 30.5q-97 0 -173.5 -35.5t-120.5 -106t-44 -173.5t46 -174t122 -106.5t168 -35.5q70 0 152 22l31 -103q-93 -26 -184 -26q-119 0 -221 46t-164.5 140.5t-62.5 233.5q0 132 56 228t158 146.5t236 50.5
q129 0 225.5 -46zM429.5 324.5q-21.5 -19.5 -21.5 -55.5t21.5 -55.5t51.5 -19.5q31 0 52 19.5t21 55.5t-21 55.5t-52 19.5q-30 0 -51.5 -19.5z" />
    <glyph glyph-name="A" unicode="A" horiz-adv-x="745" 
d="M492 131h-239l-43 -131h-210l271 700h203l271 -700h-210zM444 281l-71 219l-72 -219h143z" />
    <glyph glyph-name="B" unicode="B" horiz-adv-x="641" 
d="M616 199q0 -104 -69 -151.5t-183 -47.5h-309v700h308q105 0 165 -42t60 -133q0 -60 -30 -97.5t-87 -57.5v-2q145 -25 145 -169zM245 543v-120h86q35 0 55 15.5t20 46.5q0 30 -20 44t-55 14h-86zM400 173q23 16 23 52q0 35 -22.5 50.5t-67.5 15.5h-88v-134h88q44 0 67 16z
" />
    <glyph glyph-name="C" unicode="C" horiz-adv-x="664" 
d="M203.5 28.5q-87.5 43.5 -138 126t-50.5 195.5t50.5 195.5t138 126t196.5 43.5q148 0 259 -77l-100 -163q-39 27 -74.5 40t-78.5 13q-53 0 -96.5 -20.5t-69 -61t-25.5 -96.5t25.5 -96.5t69 -61t96.5 -20.5q43 0 78.5 13t74.5 40l100 -163q-111 -77 -259 -77
q-109 0 -196.5 43.5z" />
    <glyph glyph-name="D" unicode="D" horiz-adv-x="690" 
d="M497.5 658q85.5 -42 131.5 -121t46 -187t-46 -187t-132 -121t-203 -42h-239v700h239q118 0 203.5 -42zM245 530v-360h50q83 0 131.5 46t48.5 134t-48.5 134t-131.5 46h-50z" />
    <glyph glyph-name="E" unicode="E" horiz-adv-x="546" 
d="M516 174v-174h-461v700h446v-174h-256v-83h225v-165h-225v-104h271z" />
    <glyph glyph-name="F" unicode="F" horiz-adv-x="532" 
d="M245 526v-108h231v-170h-231v-248h-190v700h472v-174h-282z" />
    <glyph glyph-name="G" unicode="G" horiz-adv-x="751" 
d="M736 339q0 -104 -39.5 -184t-116 -125t-185.5 -45q-113 0 -199 46t-133.5 129t-47.5 191q0 105 46 187.5t134 129.5t210 47q82 0 150 -22.5t130 -67.5l-116 -156q-76 64 -170 64q-85 0 -134.5 -50.5t-49.5 -132.5q0 -80 49 -131.5t140 -51.5q64 0 99.5 24.5t41.5 63.5
h-173v160h361q3 -40 3 -76z" />
    <glyph glyph-name="H" unicode="H" horiz-adv-x="729" 
d="M674 700v-700h-190v272h-239v-272h-190v700h190v-254h239v254h190z" />
    <glyph glyph-name="I" unicode="I" horiz-adv-x="300" 
d="M245 0h-190v700h190v-700z" />
    <glyph glyph-name="J" unicode="J" horiz-adv-x="324" 
d="M269 180q0 -95 -49 -139t-151 -44h-59v174h38q13 0 22 10t9 22v497h190v-520z" />
    <glyph glyph-name="K" unicode="K" horiz-adv-x="774" 
d="M510 0l-265 324v-324h-190v700h190v-308l236 308h246l-275 -333l322 -367h-264z" />
    <glyph glyph-name="L" unicode="L" horiz-adv-x="514" 
d="M245 174h264v-174h-454v700h190v-526z" />
    <glyph glyph-name="M" unicode="M" horiz-adv-x="939" 
d="M939 0h-193l-98 349h-2l-114 -254h-125l-114 254h-2l-98 -349h-193l197 700h141l131 -305h1l131 305h141z" />
    <glyph glyph-name="N" unicode="N" horiz-adv-x="780" 
d="M725 0h-148l-330 376h-2v-376h-190v700h148l330 -376h2v376h190v-700z" />
    <glyph glyph-name="O" unicode="O" horiz-adv-x="776" 
d="M577 669.5q85 -45.5 134.5 -129t49.5 -190.5t-49.5 -190.5t-134.5 -129t-189 -45.5t-189 45.5t-134.5 129t-49.5 190.5t49.5 190.5t134.5 129t189 45.5t189 -45.5zM263.5 477.5q-48.5 -47.5 -48.5 -127.5t48.5 -127.5t124.5 -47.5t124.5 47.5t48.5 127.5t-48.5 127.5
t-124.5 47.5t-124.5 -47.5z" />
    <glyph glyph-name="P" unicode="P" horiz-adv-x="617" 
d="M541.5 632.5q70.5 -67.5 70.5 -179.5t-70.5 -179.5t-213.5 -67.5h-83v-206h-190v700h273q143 0 213.5 -67.5zM391 394q25 20 25 59t-25 59t-68 20h-78v-158h78q43 0 68 20z" />
    <glyph glyph-name="Q" unicode="Q" horiz-adv-x="802" 
d="M636 0l-41 41q-92 -56 -207 -56q-104 0 -189 45.5t-134.5 129t-49.5 190.5t49.5 190.5t134.5 129t189 45.5t189 -45.5t134.5 -129t49.5 -190.5q0 -127 -69 -220l130 -130h-186zM451 185l-120 119h186l30 -30q14 34 14 76q0 80 -48.5 127.5t-124.5 47.5t-124.5 -47.5
t-48.5 -127.5t48.5 -127.5t124.5 -47.5q34 0 63 10z" />
    <glyph glyph-name="R" unicode="R" horiz-adv-x="667" 
d="M425 0l-180 260v-260h-190v700h299q89 0 148 -31.5t87.5 -83.5t28.5 -115q0 -73 -38 -129t-112 -81l194 -260h-237zM245 532v-150h83q45 0 69 19t24 57q0 74 -93 74h-83z" />
    <glyph glyph-name="S" unicode="S" horiz-adv-x="596" 
d="M561 656l-82 -169q-42 28 -88 42t-83 14q-22 0 -32.5 -6t-10.5 -20q0 -10 8 -18.5t29 -19.5l144 -74q63 -32 96.5 -77t33.5 -121q0 -108 -70.5 -165t-204.5 -57q-154 0 -296 79l87 182q62 -44 115 -65t104 -21q29 0 44 7t15 24q0 12 -8 20t-26 17l-153 77
q-61 31 -92.5 81.5t-31.5 116.5q0 97 67.5 154.5t195.5 57.5q118 0 239 -59z" />
    <glyph glyph-name="T" unicode="T" horiz-adv-x="550" 
d="M545 526h-175v-526h-190v526h-175v174h540v-174z" />
    <glyph glyph-name="U" unicode="U" horiz-adv-x="716" 
d="M590 68q-76 -80 -232 -80t-232 80t-76 223v409h203v-404q0 -54 24.5 -86t80.5 -32t80.5 32t24.5 86v404h203v-409q0 -143 -76 -223z" />
    <glyph glyph-name="V" unicode="V" horiz-adv-x="753" 
d="M481 0h-209l-272 700h225l150 -472h3l150 472h225z" />
    <glyph glyph-name="W" unicode="W" horiz-adv-x="1128" 
d="M871 0h-158l-148 403h-2l-148 -403h-158l-252 700h223l112 -383h2l142 383h160l142 -383h2l112 383h223z" />
    <glyph glyph-name="X" unicode="X" horiz-adv-x="800" 
d="M560 0l-160 222l-160 -222h-240l275 372l-249 328h240l134 -180l134 180h240l-249 -328l275 -372h-240z" />
    <glyph glyph-name="Y" unicode="Y" horiz-adv-x="733" 
d="M462 236v-236h-191v234l-271 466h227l138 -281h3l138 281h227z" />
    <glyph glyph-name="Z" unicode="Z" horiz-adv-x="596" 
d="M576 174v-174h-556v174l303 352h-275v174h505v-174l-298 -352h321z" />
    <glyph glyph-name="bracketleft" unicode="[" horiz-adv-x="360" 
d="M350 650h-135v-745h135v-120h-280v985h280v-120z" />
    <glyph glyph-name="backslash" unicode="\" horiz-adv-x="637" 
d="M20 730l124 67l473 -870l-124 -67z" />
    <glyph glyph-name="bracketright" unicode="]" horiz-adv-x="360" 
d="M10 -95h135v745h-135v120h280v-985h-280v120z" />
    <glyph glyph-name="asciicircum" unicode="^" 
d="M549 393h-138l-111 253l-111 -253h-138l144 322h210z" />
    <glyph glyph-name="underscore" unicode="_" horiz-adv-x="533" 
d="M523 -145h-513v130h513v-130z" />
    <glyph glyph-name="grave" unicode="`" horiz-adv-x="433" 
d="M383 553h-145l-188 154h204z" />
    <glyph glyph-name="a" unicode="a" horiz-adv-x="604" 
d="M123.5 12q-49.5 27 -79 82.5t-29.5 136.5t29.5 136.5t79 82.5t110.5 27q101 0 148 -74h2v59h185v-462h-185v59h-2q-47 -74 -148 -74q-61 0 -110.5 27zM351 169q24 23 24 62t-24 62t-61 23t-61 -23t-24 -62t24 -62t61 -23t61 23z" />
    <glyph glyph-name="b" unicode="b" horiz-adv-x="609" 
d="M485.5 450q49.5 -27 79 -82.5t29.5 -136.5t-29.5 -136.5t-79 -82.5t-110.5 -27q-101 0 -148 74h-2v-59h-185v700h185v-297h2q47 74 148 74q61 0 110.5 -27zM380 168.5q25 22.5 25 62.5t-25 62.5t-65 22.5t-65 -22.5t-25 -62.5t25 -62.5t65 -22.5t65 22.5z" />
    <glyph glyph-name="c" unicode="c" horiz-adv-x="455" 
d="M142.5 14.5q-59.5 29.5 -93.5 85.5t-34 131t34 131t93.5 85.5t136.5 29.5q94 0 171 -44l-71 -145q-38 24 -83 24q-40 0 -65.5 -22.5t-25.5 -58.5t25.5 -58.5t65.5 -22.5q45 0 83 24l71 -145q-77 -44 -171 -44q-77 0 -136.5 29.5z" />
    <glyph glyph-name="d" unicode="d" horiz-adv-x="609" 
d="M382 403h2v297h185v-700h-185v59h-2q-47 -74 -148 -74q-61 0 -110.5 27t-79 82.5t-29.5 136.5t29.5 136.5t79 82.5t110.5 27q101 0 148 -74zM359 168.5q25 22.5 25 62.5t-25 62.5t-65 22.5t-65 -22.5t-25 -62.5t25 -62.5t65 -22.5t65 22.5z" />
    <glyph glyph-name="e" unicode="e" horiz-adv-x="514" 
d="M440.5 411.5q63.5 -64.5 63.5 -191.5v-32h-318q11 -33 39 -47t76 -14q53 0 117 26l49 -135q-82 -33 -172 -33q-133 0 -206.5 63.5t-73.5 181.5q0 119 69 182.5t182 63.5q111 0 174.5 -64.5zM205.5 338q-21.5 -19 -23.5 -55h147q0 36 -20.5 55t-51.5 19q-30 0 -51.5 -19z
" />
    <glyph glyph-name="f" unicode="f" horiz-adv-x="398" 
d="M301 523.5q-19 -15.5 -19 -59.5v-2h103v-152h-103v-310h-185v310h-87v152h87v3q0 132 60 188.5t189 56.5h42v-171h-19q-49 0 -68 -15.5z" />
    <glyph glyph-name="g" unicode="g" horiz-adv-x="604" 
d="M88 -191l31 162q89 -23 151 -23q56 0 85 21t29 75v18h-2q-24 -27 -60.5 -44.5t-84.5 -17.5q-97 0 -159.5 59t-62.5 175q0 79 29.5 133.5t79.5 82t110 27.5q101 0 148 -74h2v59h185v-447q0 -106 -67 -168t-205 -62q-92 0 -209 24zM351 169q24 23 24 62t-24 62t-61 23
t-61 -23t-24 -62t24 -62t61 -23t61 23z" />
    <glyph glyph-name="h" unicode="h" horiz-adv-x="584" 
d="M225 400h2q57 77 152 77q78 0 124 -47.5t46 -139.5v-290h-185v239q0 41 -16 61t-49 20q-34 0 -54 -23.5t-20 -72.5v-224h-185v700h185v-300z" />
    <glyph glyph-name="i" unicode="i" horiz-adv-x="265" 
d="M225 0h-185v462h185v-462zM227 527h-189v173h189v-173z" />
    <glyph glyph-name="j" unicode="j" horiz-adv-x="265" 
d="M-19 -31q29 0 44 18.5t15 54.5v420h185v-411q0 -130 -52.5 -192t-162.5 -62h-50v172h21zM227 527h-189v173h189v-173z" />
    <glyph glyph-name="k" unicode="k" horiz-adv-x="603" 
d="M366 0l-141 202v-202h-185v700h185v-409l118 171h223l-172 -210l209 -252h-237z" />
    <glyph glyph-name="l" unicode="l" horiz-adv-x="265" 
d="M225 0h-185v700h185v-700z" />
    <glyph glyph-name="m" unicode="m" horiz-adv-x="886" 
d="M35 462h179v-73h2q23 44 62 66t89 22q61 0 98.5 -27.5t54.5 -71.5h2q26 50 65.5 74.5t96.5 24.5q81 0 124 -46.5t43 -133.5v-297h-185v235q0 85 -61 85q-74 0 -74 -92v-228h-176v235q0 85 -61 85q-74 0 -74 -92v-228h-185v462z" />
    <glyph glyph-name="n" unicode="n" horiz-adv-x="579" 
d="M498.5 429.5q45.5 -47.5 45.5 -139.5v-290h-185v239q0 41 -16 61t-49 20q-74 0 -74 -96v-224h-185v462h179v-69h2q31 42 69.5 63t89.5 21q78 0 123.5 -47.5z" />
    <glyph glyph-name="o" unicode="o" horiz-adv-x="560" 
d="M142 15.5q-60 30.5 -93.5 86t-33.5 129.5t33.5 129.5t93.5 86t138 30.5t138 -30.5t93.5 -86t33.5 -129.5t-33.5 -129.5t-93.5 -86t-138 -30.5t-138 30.5zM344.5 169q25.5 23 25.5 62t-25.5 62t-64.5 23t-64.5 -23t-25.5 -62t25.5 -62t64.5 -23t64.5 23z" />
    <glyph glyph-name="p" unicode="p" horiz-adv-x="604" 
d="M35 462h185v-59h2q47 74 148 74q61 0 110.5 -27t79 -82.5t29.5 -136.5t-29.5 -136.5t-79 -82.5t-110.5 -27q-101 0 -148 74h-2v-259h-185v662zM375 168.5q25 22.5 25 62.5t-25 62.5t-65 22.5t-65 -22.5t-25 -62.5t25 -62.5t65 -22.5t65 22.5z" />
    <glyph glyph-name="q" unicode="q" horiz-adv-x="604" 
d="M384 59h-2q-47 -74 -148 -74q-61 0 -110.5 27t-79 82.5t-29.5 136.5t29.5 136.5t79 82.5t110.5 27q101 0 148 -74h2v59h185v-662h-185v259zM359 168.5q25 22.5 25 62.5t-25 62.5t-65 22.5t-65 -22.5t-25 -62.5t25 -62.5t65 -22.5t65 22.5z" />
    <glyph glyph-name="r" unicode="r" horiz-adv-x="368" 
d="M363 302h-11q-69 0 -100.5 -29t-31.5 -104v-169h-185v462h179v-86h2q21 55 57 77.5t88 22.5h2v-174z" />
    <glyph glyph-name="s" unicode="s" horiz-adv-x="454" 
d="M118 -4q-60 11 -113 38l59 132q96 -52 173 -52q18 0 24.5 4t6.5 11q0 8 -6.5 12t-24.5 10l-70 23q-63 21 -95 55.5t-32 92.5q0 73 52.5 114t159.5 41q74 0 175 -23l-40 -137q-39 16 -80 25t-69 9t-28 -13q0 -6 4.5 -10t18.5 -8l83 -27q64 -21 96 -53.5t32 -94.5
q0 -82 -56 -121t-157 -39q-53 0 -113 11z" />
    <glyph glyph-name="t" unicode="t" horiz-adv-x="386" 
d="M283 310v-75q0 -37 10 -50t39 -13h16v-172h-75q-175 0 -175 181v129h-93v152h93v185h185v-185h98v-152h-98z" />
    <glyph glyph-name="u" unicode="u" horiz-adv-x="586" 
d="M89 31.5q-49 46.5 -49 133.5v297h190v-242q0 -39 17 -58t45 -19q69 0 69 101v218h185v-462h-179v71h-2q-31 -44 -66.5 -65t-82.5 -21q-78 0 -127 46.5z" />
    <glyph glyph-name="v" unicode="v" horiz-adv-x="581" 
d="M581 462l-197 -462h-187l-197 462h202l89 -259l88 259h202z" />
    <glyph glyph-name="w" unicode="w" horiz-adv-x="855" 
d="M855 462l-177 -462h-154l-96 229l-97 -229h-153l-178 462h178l81 -223l86 223h166l86 -223l80 223h178z" />
    <glyph glyph-name="x" unicode="x" horiz-adv-x="594" 
d="M297 126l-89 -126h-208l188 240l-177 222h209l77 -107l77 107h209l-177 -222l188 -240h-208z" />
    <glyph glyph-name="y" unicode="y" horiz-adv-x="593" 
d="M593 462l-318 -662h-185l121 249l-211 413h206l97 -224l109 224h181z" />
    <glyph glyph-name="z" unicode="z" horiz-adv-x="462" 
d="M452 149v-149h-442v132l200 182h-180v148h409v-125h1l-206 -188h218z" />
    <glyph glyph-name="braceleft" unicode="{" horiz-adv-x="426" 
d="M416 627h-30q-44 0 -64.5 -14t-20.5 -49v-126q0 -66 -32.5 -106t-100.5 -56v-2q68 -15 100.5 -55t32.5 -107v-116q0 -34 20 -48.5t63 -14.5h32v-148h-40q-92 0 -152.5 51t-60.5 154v106q0 53 -33 78t-95 28v147q62 3 95 28t33 77v116q0 103 60.5 154t152.5 51h40v-148z
" />
    <glyph glyph-name="bar" unicode="|" horiz-adv-x="340" 
d="M230 -215h-120v942h120v-942z" />
    <glyph glyph-name="braceright" unicode="}" horiz-adv-x="426" 
d="M10 -67h32q43 0 63 14.5t20 48.5v116q0 67 32.5 107t100.5 55v2q-68 16 -100.5 56t-32.5 106v126q0 35 -20.5 49t-64.5 14h-30v148h40q92 0 152.5 -51t60.5 -154v-116q0 -52 33 -77t95 -28v-147q-62 -3 -95 -28t-33 -78v-106q0 -103 -60.5 -154t-152.5 -51h-40v148z" />
    <glyph glyph-name="asciitilde" unicode="~" 
d="M262.5 408.5q28.5 -9.5 64.5 -26.5q30 -13 46.5 -19t35.5 -6q27 0 46.5 9t48.5 30l17 12l75 -117q-50 -40 -96.5 -61t-94.5 -21q-34 0 -62 8.5t-64 25.5q-27 13 -46.5 19.5t-39.5 6.5q-29 0 -48.5 -9.5t-38.5 -23t-26 -18.5l-76 116q50 42 97 63t96 21q37 0 65.5 -9.5z
" />
    <glyph glyph-name="exclamdown" unicode="&#xa1;" horiz-adv-x="350" 
d="M82 500h186v-188h-186v188zM108 259h134l38 -459h-210z" />
    <glyph glyph-name="cent" unicode="&#xa2;" horiz-adv-x="433" 
d="M338 306q-22 5 -49 5v-160h2q26 0 46 4t63 18v-164q-57 -20 -111 -23v-50h-28v49q-67 0 -121 29.5t-84.5 85.5t-30.5 131q0 74 30.5 130t84 85.5t121.5 30.5v56h28v-57q57 -3 114 -26v-164q-43 15 -65 20zM261 308q-29 -6 -46 -25t-17 -52q0 -63 63 -77v154z" />
    <glyph glyph-name="sterling" unicode="&#xa3;" horiz-adv-x="578" 
d="M246 155h277v-155h-461v134q53 26 81.5 55t28.5 65q0 23 -10.5 43t-32.5 48h-89v30h68q-17 27 -26.5 56t-9.5 65q0 92 64.5 143t178.5 51q116 0 174.5 -56.5t58.5 -174.5h-170q0 38 -16.5 58t-48.5 20q-27 0 -45.5 -14t-18.5 -40q0 -22 11.5 -42.5t25.5 -39.5t19 -26h147
v-30h-128q23 -41 23 -74q0 -37 -24.5 -61.5t-78.5 -48.5z" />
    <glyph glyph-name="currency" unicode="&#xa4;" 
d="M522 234.5q-17 -41.5 -47 -72.5l53 -53l-20 -19l-53 53q-31 -25 -70.5 -38.5t-84.5 -13.5q-47 0 -88 15t-72 42l-59 -58l-19 20l58 58q-28 30 -43.5 70t-15.5 85t15.5 85t43.5 70l-58 58l20 20l58 -58q67 57 160 57q45 0 84.5 -13.5t70.5 -38.5l53 53l20 -20l-53 -53
q31 -31 47.5 -72t16.5 -88t-17 -88.5zM357.5 267q21.5 22 21.5 56t-21.5 56t-57.5 22t-57.5 -22t-21.5 -56t21.5 -56t57.5 -22t57.5 22z" />
    <glyph glyph-name="yen" unicode="&#xa5;" horiz-adv-x="712" 
d="M490 303h115v-30h-131l-31 -56h162v-30h-169v-187h-161v187h-168v30h162l-31 56h-131v30h115l-202 372h207l129 -282l129 282h207z" />
    <glyph glyph-name="brokenbar" unicode="&#xa6;" horiz-adv-x="340" 
d="M230 339h-120v388h120v-388zM230 -215h-120v396h120v-396z" />
    <glyph glyph-name="section" unicode="&#xa7;" horiz-adv-x="606" 
d="M533 181q-23 -42 -64 -74q32 -42 32 -96q0 -48 -25 -86.5t-73 -61t-113 -22.5q-52 0 -101.5 14.5t-90.5 41.5l77 130q26 -17 58.5 -28t60.5 -11q21 0 34 7t13 17q0 14 -19.5 27t-65.5 36q-61 30 -102.5 56.5t-72.5 68t-31 97.5q0 46 22 84.5t62 66.5q-29 39 -29 89
t25.5 90.5t73.5 64t114 23.5q50 0 99 -16.5t88 -45.5l-80 -129q-24 20 -54.5 32t-56.5 12q-23 0 -36 -7t-13 -17q0 -12 19 -23.5t60 -28.5q63 -28 105 -52.5t74.5 -66.5t32.5 -100q0 -50 -23 -92zM236 255q24 -17 74 -40l30 -15q54 32 54 64q0 21 -23.5 37t-75.5 40l-31 14
q-52 -32 -52 -62q0 -21 24 -38z" />
    <glyph glyph-name="dieresis" unicode="&#xa8;" horiz-adv-x="427" 
d="M189 545h-139v145h139v-145zM378 545h-139v145h139v-145z" />
    <glyph glyph-name="copyright" unicode="&#xa9;" horiz-adv-x="828" 
d="M601 669.5q83 -45.5 130 -128.5t47 -191q0 -107 -47 -190t-130 -129t-187 -46q-103 0 -186 46t-130.5 129t-47.5 190t47.5 190t130.5 129t186 46q104 0 187 -45.5zM272.5 597.5q-63.5 -35.5 -100 -99.5t-36.5 -148t36.5 -148t100 -99t141.5 -35t141.5 35t99.5 99t36 148
t-36 148t-99.5 99.5t-141.5 35.5t-141.5 -35.5zM505 568.5q36 -12.5 71 -35.5l-50 -97q-34 18 -54.5 26.5t-49.5 8.5q-50 0 -82 -32.5t-32 -84.5t32 -84.5t82 -32.5q29 0 49.5 8.5t54.5 26.5l50 -98q-36 -22 -72 -34.5t-80 -12.5q-68 0 -122 29.5t-84 81.5t-30 116t30 116
t84 81.5t122 29.5q45 0 81 -12.5z" />
    <glyph glyph-name="ordfeminine" unicode="&#xaa;" horiz-adv-x="447" 
d="M112 357q-33 19 -52.5 56t-19.5 88t19.5 88t52.5 56t72 19q36 0 61.5 -15.5t39.5 -42.5h2v48h120v-306h-120v48h-2q-14 -27 -39.5 -42.5t-61.5 -15.5q-39 0 -72 19zM266 461q16 16 16 40t-16 40t-40 16t-40 -16t-16 -40t16 -40t40 -16t40 16z" />
    <glyph glyph-name="guillemotleft" unicode="&#xab;" horiz-adv-x="658" 
d="M210 240l174 -186h-195l-174 186l174 186h195zM474 240l174 -186h-195l-174 186l174 186h195z" />
    <glyph glyph-name="logicalnot" unicode="&#xac;" 
d="M528 432v-265h-78v190h-379v75h457z" />
    <glyph glyph-name="uni00AD" unicode="&#xad;" horiz-adv-x="351" 
d="M316 186h-281v160h281v-160z" />
    <glyph glyph-name="registered" unicode="&#xae;" horiz-adv-x="558" 
d="M407 683q57 -32 89 -89.5t32 -129.5t-32 -129.5t-89 -89.5t-128 -32t-128 32t-89 89.5t-32 129.5t32 129.5t89 89.5t128 32t128 -32zM406 335q47 50 47 129t-47 129t-127 50t-127 -50t-47 -129t47 -129t127 -50t127 50zM335 437l60 -95h-74l-51 89h-13v-89h-65v260h105
q43 0 68 -22t25 -62q0 -63 -55 -81zM257 492h33q29 0 29 25q0 12 -8 18t-21 6h-33v-49z" />
    <glyph glyph-name="macron" unicode="&#xaf;" horiz-adv-x="432" 
d="M382 564h-332v116h332v-116z" />
    <glyph glyph-name="degree" unicode="&#xb0;" horiz-adv-x="402" 
d="M309.5 648q42.5 -42 42.5 -109t-42.5 -109t-108.5 -42t-108.5 42t-42.5 109t42.5 109t108.5 42t108.5 -42zM149.5 591.5q-20.5 -20.5 -20.5 -52.5t20.5 -52.5t51.5 -20.5t51.5 20.5t20.5 52.5t-20.5 52.5t-51.5 20.5t-51.5 -20.5z" />
    <glyph glyph-name="plusminus" unicode="&#xb1;" 
d="M339 398h200v-75h-200v-123h-78v123h-200v75h200v123h78v-123zM539 79h-478v75h478v-75z" />
    <glyph glyph-name="uni00B2" unicode="&#xb2;" horiz-adv-x="416" 
d="M41 464l140 120q30 26 42.5 41t12.5 30q0 13 -7.5 20.5t-22.5 7.5q-17 0 -26.5 -10t-10.5 -29h-144q0 73 45 116t141 43q84 0 129 -34.5t45 -97.5q0 -47 -24 -80.5t-72 -70.5l-51 -39h148v-133h-345v116z" />
    <glyph glyph-name="uni00B3" unicode="&#xb3;" horiz-adv-x="403" 
d="M21 497h140q1 -15 12 -23.5t31 -8.5q38 0 38 31q0 17 -15.5 23t-54.5 6v92q59 0 59 32q0 31 -32 31q-36 0 -39 -28h-140q0 69 48 110t134 41q79 0 122.5 -32t43.5 -92q0 -37 -19.5 -64.5t-60.5 -33.5v-2q46 -4 70.5 -32.5t24.5 -72.5q0 -64 -45.5 -100t-133.5 -36
q-182 0 -183 159z" />
    <glyph glyph-name="acute" unicode="&#xb4;" horiz-adv-x="433" 
d="M383 707l-188 -154h-145l129 154h204z" />
    <glyph glyph-name="uni00B5" unicode="&#xb5;" 
d="M553 462v-462h-179v71h-2q-31 -44 -66.5 -65t-82.5 -21h-4v-185h-172v662h190v-242q0 -39 17 -58t45 -19q69 0 69 101v218h185z" />
    <glyph glyph-name="paragraph" unicode="&#xb6;" horiz-adv-x="693" 
d="M643 565h-69v-671h-125v671h-80v-671h-125v416q-54 0 -98.5 25t-70 70.5t-25.5 103.5q0 56 27 99.5t73.5 67.5t103.5 24h389v-135z" />
    <glyph glyph-name="periodcentered" unicode="&#xb7;" horiz-adv-x="256" 
d="M221 274h-186v188h186v-188z" />
    <glyph glyph-name="cedilla" unicode="&#xb8;" horiz-adv-x="306" 
d="M163 -37q46 -6 69.5 -23.5t23.5 -44.5q0 -25 -20 -42t-51.5 -28.5t-93.5 -30.5l-22 -6l-19 43q46 19 62 29t16 19q0 12 -9.5 16.5t-36.5 9.5l56 138h59z" />
    <glyph glyph-name="uni00B9" unicode="&#xb9;" horiz-adv-x="260" 
d="M56 651h-11v143h160v-446h-149v303z" />
    <glyph glyph-name="ordmasculine" unicode="&#xba;" horiz-adv-x="434" 
d="M344.5 620.5q49.5 -43.5 49.5 -119.5t-49.5 -119.5t-127.5 -43.5t-127.5 43.5t-49.5 119.5t49.5 119.5t127.5 43.5t127.5 -43.5zM177 541q-16 -16 -16 -40t16 -40t40 -16t40 16t16 40t-16 40t-40 16t-40 -16z" />
    <glyph glyph-name="guillemotright" unicode="&#xbb;" horiz-adv-x="658" 
d="M205 426l174 -186l-174 -186h-195l174 186l-174 186h195zM469 426l174 -186l-174 -186h-195l174 186l-174 186h195z" />
    <glyph glyph-name="onequarter" unicode="&#xbc;" horiz-adv-x="698" 
d="M154 289h-97v286h-22v100h119v-386zM467 675h90l-398 -675h-90zM678 58h-38v-58h-93v58h-190v91l198 237h85v-237h38v-91zM547 149v108h-2l-93 -108h95z" />
    <glyph glyph-name="onehalf" unicode="&#xbd;" horiz-adv-x="718" 
d="M154 289h-97v286h-22v100h119v-386zM467 675h90l-398 -675h-90zM662 365.5q36 -29.5 36 -79.5q0 -39 -19.5 -67t-61.5 -68l-58 -55h136v-96h-282v74l130 127q28 28 38.5 43.5t10.5 30.5t-9.5 22.5t-27.5 7.5q-22 0 -33.5 -11t-12.5 -31h-97q0 63 38 97.5t109 34.5
q67 0 103 -29.5z" />
    <glyph glyph-name="threequarters" unicode="&#xbe;" horiz-adv-x="812" 
d="M273 655q37 -29 37 -74q0 -31 -16.5 -56t-54.5 -34v-2q84 -10 84 -93q0 -48 -35.5 -82t-108.5 -34q-69 0 -108 35t-40 102h97q2 -23 15 -35t40 -12q44 0 44 43q0 26 -19.5 34.5t-63.5 8.5v65q36 1 50.5 11t14.5 27t-10 26t-28 9q-19 0 -30.5 -10t-12.5 -30h-98
q1 58 38.5 94t105.5 36q62 0 99 -29zM581 675h90l-398 -675h-90zM792 58h-38v-58h-93v58h-190v91l198 237h85v-237h38v-91zM661 149v108h-2l-93 -108h95z" />
    <glyph glyph-name="questiondown" unicode="&#xbf;" horiz-adv-x="462" 
d="M166 500h186v-188h-186v188zM72 -163q-52 52 -52 128q0 40 16.5 78t55.5 76l16 15q30 29 44.5 52.5t14.5 62.5v10h183v-29q0 -101 -78 -162q-33 -26 -47.5 -41t-14.5 -38q0 -18 10.5 -27.5t28.5 -9.5q24 0 36 16t12 44h175q0 -103 -59 -165t-177 -62q-112 0 -164 52z" />
    <glyph glyph-name="Agrave" unicode="&#xc0;" horiz-adv-x="745" 
d="M492 131h-239l-43 -131h-210l271 700h203l271 -700h-210zM444 281l-71 219l-72 -219h143zM442 743h-131l-187 120h190z" />
    <glyph glyph-name="Aacute" unicode="&#xc1;" horiz-adv-x="745" 
d="M492 131h-239l-43 -131h-210l271 700h203l271 -700h-210zM444 281l-71 219l-72 -219h143zM435 743h-131l128 120h190z" />
    <glyph glyph-name="Acircumflex" unicode="&#xc2;" horiz-adv-x="745" 
d="M492 131h-239l-43 -131h-210l271 700h203l271 -700h-210zM444 281l-71 219l-72 -219h143zM580 743h-150l-58 63l-57 -63h-150l120 120h175z" />
    <glyph glyph-name="Atilde" unicode="&#xc3;" horiz-adv-x="745" 
d="M492 131h-239l-43 -131h-210l271 700h203l271 -700h-210zM444 281l-71 219l-72 -219h143zM167 750q20 65 47.5 96t76.5 31q22 0 54 -6t61 -12q6 -1 31.5 -6.5t38.5 -5.5q17 0 28 8.5t25 25.5l54 -18q-19 -65 -46.5 -96t-77.5 -31q-22 0 -54 6t-61 12q-6 1 -31.5 6.5
t-38.5 5.5q-17 0 -28 -9t-25 -26z" />
    <glyph glyph-name="Adieresis" unicode="&#xc4;" horiz-adv-x="745" 
d="M492 131h-239l-43 -131h-210l271 700h203l271 -700h-210zM444 281l-71 219l-72 -219h143zM338 743h-151v120h151v-120zM559 743h-151v120h151v-120z" />
    <glyph glyph-name="Aring" unicode="&#xc5;" horiz-adv-x="745" 
d="M492 131h-239l-43 -131h-210l267 689q-14 26 -14 58q0 51 33.5 84t86.5 33t86.5 -33t33.5 -84q0 -33 -14 -59l266 -688h-210zM338 779.5q-13 -13.5 -13 -32.5q0 -20 13 -33.5t35 -13.5q21 0 34 14t13 33t-13 32.5t-34 13.5q-22 0 -35 -13.5zM444 281l-71 219l-72 -219
h143z" />
    <glyph glyph-name="AE" unicode="&#xc6;" horiz-adv-x="1055" 
d="M1025 174v-174h-436v131h-271l-80 -131h-238l466 700h544v-174h-236v-83h205v-165h-205v-104h251zM589 281v292l-179 -292h179z" />
    <glyph glyph-name="Ccedilla" unicode="&#xc7;" horiz-adv-x="664" 
d="M426 -14l-10 -23q46 -6 69.5 -23.5t23.5 -44.5q0 -25 -20 -42t-51.5 -28.5t-93.5 -30.5l-22 -6l-19 43q46 19 62 29t16 19q0 12 -9.5 16.5t-36.5 9.5l33 81q-102 7 -182 52t-125.5 125t-45.5 187q0 113 50.5 195.5t138 126t196.5 43.5q148 0 259 -77l-100 -163
q-39 27 -74.5 40t-78.5 13q-53 0 -96.5 -20.5t-69 -61t-25.5 -96.5t25.5 -96.5t69 -61t96.5 -20.5q43 0 78.5 13t74.5 40l100 -163q-101 -71 -233 -76z" />
    <glyph glyph-name="Egrave" unicode="&#xc8;" horiz-adv-x="546" 
d="M516 174v-174h-461v700h446v-174h-256v-83h225v-165h-225v-104h271zM354 743h-131l-187 120h190z" />
    <glyph glyph-name="Eacute" unicode="&#xc9;" horiz-adv-x="546" 
d="M516 174v-174h-461v700h446v-174h-256v-83h225v-165h-225v-104h271zM347 743h-131l128 120h190z" />
    <glyph glyph-name="Ecircumflex" unicode="&#xca;" horiz-adv-x="546" 
d="M516 174v-174h-461v700h446v-174h-256v-83h225v-165h-225v-104h271zM492 743h-150l-58 63l-57 -63h-150l120 120h175z" />
    <glyph glyph-name="Edieresis" unicode="&#xcb;" horiz-adv-x="546" 
d="M516 174v-174h-461v700h446v-174h-256v-83h225v-165h-225v-104h271zM250 743h-151v120h151v-120zM471 743h-151v120h151v-120z" />
    <glyph glyph-name="Igrave" unicode="&#xcc;" horiz-adv-x="300" 
d="M245 0h-190v700h190v-700zM219 743h-131l-187 120h190z" />
    <glyph glyph-name="Iacute" unicode="&#xcd;" horiz-adv-x="300" 
d="M245 0h-190v700h190v-700zM212 743h-131l128 120h190z" />
    <glyph glyph-name="Icircumflex" unicode="&#xce;" horiz-adv-x="300" 
d="M245 0h-190v700h190v-700zM357 743h-150l-58 63l-57 -63h-150l120 120h175z" />
    <glyph glyph-name="Idieresis" unicode="&#xcf;" horiz-adv-x="300" 
d="M245 0h-190v700h190v-700zM115 743h-151v120h151v-120zM336 743h-151v120h151v-120z" />
    <glyph glyph-name="Eth" unicode="&#xd0;" horiz-adv-x="690" 
d="M497.5 658q85.5 -42 131.5 -121t46 -187t-46 -187t-132 -121t-203 -42h-239v278h-70v155h70v267h239q118 0 203.5 -42zM426.5 216q48.5 46 48.5 134t-48.5 134t-131.5 46h-50v-97h117v-155h-117v-108h50q83 0 131.5 46z" />
    <glyph glyph-name="Ntilde" unicode="&#xd1;" horiz-adv-x="780" 
d="M725 0h-148l-330 376h-2v-376h-190v700h148l330 -376h2v376h190v-700zM182 750q20 65 47.5 96t76.5 31q22 0 54 -6t61 -12q6 -1 31.5 -6.5t38.5 -5.5q17 0 28 8.5t25 25.5l54 -18q-19 -65 -46.5 -96t-77.5 -31q-22 0 -54 6t-61 12q-6 1 -31.5 6.5t-38.5 5.5q-17 0 -28 -9
t-25 -26z" />
    <glyph glyph-name="Ograve" unicode="&#xd2;" horiz-adv-x="776" 
d="M577 669.5q85 -45.5 134.5 -129t49.5 -190.5t-49.5 -190.5t-134.5 -129t-189 -45.5t-189 45.5t-134.5 129t-49.5 190.5t49.5 190.5t134.5 129t189 45.5t189 -45.5zM263.5 477.5q-48.5 -47.5 -48.5 -127.5t48.5 -127.5t124.5 -47.5t124.5 47.5t48.5 127.5t-48.5 127.5
t-124.5 47.5t-124.5 -47.5zM457 743h-131l-187 120h190z" />
    <glyph glyph-name="Oacute" unicode="&#xd3;" horiz-adv-x="776" 
d="M577 669.5q85 -45.5 134.5 -129t49.5 -190.5t-49.5 -190.5t-134.5 -129t-189 -45.5t-189 45.5t-134.5 129t-49.5 190.5t49.5 190.5t134.5 129t189 45.5t189 -45.5zM263.5 477.5q-48.5 -47.5 -48.5 -127.5t48.5 -127.5t124.5 -47.5t124.5 47.5t48.5 127.5t-48.5 127.5
t-124.5 47.5t-124.5 -47.5zM450 743h-131l128 120h190z" />
    <glyph glyph-name="Ocircumflex" unicode="&#xd4;" horiz-adv-x="776" 
d="M577 669.5q85 -45.5 134.5 -129t49.5 -190.5t-49.5 -190.5t-134.5 -129t-189 -45.5t-189 45.5t-134.5 129t-49.5 190.5t49.5 190.5t134.5 129t189 45.5t189 -45.5zM263.5 477.5q-48.5 -47.5 -48.5 -127.5t48.5 -127.5t124.5 -47.5t124.5 47.5t48.5 127.5t-48.5 127.5
t-124.5 47.5t-124.5 -47.5zM595 743h-150l-58 63l-57 -63h-150l120 120h175z" />
    <glyph glyph-name="Otilde" unicode="&#xd5;" horiz-adv-x="776" 
d="M577 669.5q85 -45.5 134.5 -129t49.5 -190.5t-49.5 -190.5t-134.5 -129t-189 -45.5t-189 45.5t-134.5 129t-49.5 190.5t49.5 190.5t134.5 129t189 45.5t189 -45.5zM263.5 477.5q-48.5 -47.5 -48.5 -127.5t48.5 -127.5t124.5 -47.5t124.5 47.5t48.5 127.5t-48.5 127.5
t-124.5 47.5t-124.5 -47.5zM182 750q20 65 47.5 96t76.5 31q22 0 54 -6t61 -12q6 -1 31.5 -6.5t38.5 -5.5q17 0 28 8.5t25 25.5l54 -18q-19 -65 -46.5 -96t-77.5 -31q-22 0 -54 6t-61 12q-6 1 -31.5 6.5t-38.5 5.5q-17 0 -28 -9t-25 -26z" />
    <glyph glyph-name="Odieresis" unicode="&#xd6;" horiz-adv-x="776" 
d="M577 669.5q85 -45.5 134.5 -129t49.5 -190.5t-49.5 -190.5t-134.5 -129t-189 -45.5t-189 45.5t-134.5 129t-49.5 190.5t49.5 190.5t134.5 129t189 45.5t189 -45.5zM263.5 477.5q-48.5 -47.5 -48.5 -127.5t48.5 -127.5t124.5 -47.5t124.5 47.5t48.5 127.5t-48.5 127.5
t-124.5 47.5t-124.5 -47.5zM353 743h-151v120h151v-120zM574 743h-151v120h151v-120z" />
    <glyph glyph-name="multiply" unicode="&#xd7;" 
d="M527 469l-171 -171l171 -171l-56 -56l-171 171l-171 -171l-56 56l171 171l-171 171l56 56l171 -171l171 171z" />
    <glyph glyph-name="Oslash" unicode="&#xd8;" horiz-adv-x="776" 
d="M729 507q32 -71 32 -157q0 -107 -49.5 -190.5t-134.5 -129t-189 -45.5q-112 0 -201 53l-40 -52l-49 36l39 51q-58 49 -90 120t-32 157q0 107 49.5 190.5t134.5 129t189 45.5q112 0 201 -53l40 52l49 -36l-39 -51q58 -49 90 -120zM257 229l213 278q-36 18 -82 18
q-76 0 -124.5 -47.5t-48.5 -127.5q0 -73 42 -121zM512.5 222.5q48.5 47.5 48.5 127.5q0 73 -42 121l-213 -278q36 -18 82 -18q76 0 124.5 47.5z" />
    <glyph glyph-name="Ugrave" unicode="&#xd9;" horiz-adv-x="716" 
d="M590 68q-76 -80 -232 -80t-232 80t-76 223v409h203v-404q0 -54 24.5 -86t80.5 -32t80.5 32t24.5 86v404h203v-409q0 -143 -76 -223zM427 743h-131l-187 120h190z" />
    <glyph glyph-name="Uacute" unicode="&#xda;" horiz-adv-x="716" 
d="M590 68q-76 -80 -232 -80t-232 80t-76 223v409h203v-404q0 -54 24.5 -86t80.5 -32t80.5 32t24.5 86v404h203v-409q0 -143 -76 -223zM420 743h-131l128 120h190z" />
    <glyph glyph-name="Ucircumflex" unicode="&#xdb;" horiz-adv-x="716" 
d="M590 68q-76 -80 -232 -80t-232 80t-76 223v409h203v-404q0 -54 24.5 -86t80.5 -32t80.5 32t24.5 86v404h203v-409q0 -143 -76 -223zM565 743h-150l-58 63l-57 -63h-150l120 120h175z" />
    <glyph glyph-name="Udieresis" unicode="&#xdc;" horiz-adv-x="716" 
d="M590 68q-76 -80 -232 -80t-232 80t-76 223v409h203v-404q0 -54 24.5 -86t80.5 -32t80.5 32t24.5 86v404h203v-409q0 -143 -76 -223zM323 743h-151v120h151v-120zM544 743h-151v120h151v-120z" />
    <glyph glyph-name="Yacute" unicode="&#xdd;" horiz-adv-x="733" 
d="M462 236v-236h-191v234l-271 466h227l138 -281h3l138 281h227zM429 743h-131l128 120h190z" />
    <glyph glyph-name="Thorn" unicode="&#xde;" horiz-adv-x="634" 
d="M245 607h86q145 0 216.5 -68.5t71.5 -180.5q0 -115 -71.5 -184.5t-216.5 -69.5h-86v-104h-190v700h190v-93zM245 443v-175h86q47 0 74 22.5t27 67.5q0 42 -27 63.5t-74 21.5h-86z" />
    <glyph glyph-name="germandbls" unicode="&#xdf;" horiz-adv-x="626" 
d="M566.5 332.5q44.5 -42.5 44.5 -122.5q0 -105 -78 -160t-217 -55h-39v165h30q65 0 94 17t29 51q0 39 -34.5 55t-110.5 16v132q96 0 96 72q0 32 -20 49t-54 17q-39 0 -60 -21.5t-21 -63.5v-614h-186v616q0 106 66.5 167.5t200.5 61.5q121 0 182.5 -49.5t61.5 -129.5
q0 -54 -28.5 -94t-82.5 -59v-2q82 -6 126.5 -48.5z" />
    <glyph glyph-name="agrave" unicode="&#xe0;" horiz-adv-x="604" 
d="M123.5 12q-49.5 27 -79 82.5t-29.5 136.5t29.5 136.5t79 82.5t110.5 27q101 0 148 -74h2v59h185v-462h-185v59h-2q-47 -74 -148 -74q-61 0 -110.5 27zM351 169q24 23 24 62t-24 62t-61 23t-61 -23t-24 -62t24 -62t61 -23t61 23zM381 553h-145l-188 154h204z" />
    <glyph glyph-name="aacute" unicode="&#xe1;" horiz-adv-x="604" 
d="M123.5 12q-49.5 27 -79 82.5t-29.5 136.5t29.5 136.5t79 82.5t110.5 27q101 0 148 -74h2v59h185v-462h-185v59h-2q-47 -74 -148 -74q-61 0 -110.5 27zM351 169q24 23 24 62t-24 62t-61 23t-61 -23t-24 -62t24 -62t61 -23t61 23zM545 707l-188 -154h-145l129 154h204z" />
    <glyph glyph-name="acircumflex" unicode="&#xe2;" horiz-adv-x="604" 
d="M123.5 12q-49.5 27 -79 82.5t-29.5 136.5t29.5 136.5t79 82.5t110.5 27q101 0 148 -74h2v59h185v-462h-185v59h-2q-47 -74 -148 -74q-61 0 -110.5 27zM351 169q24 23 24 62t-24 62t-61 23t-61 -23t-24 -62t24 -62t61 -23t61 23zM504 553h-147l-62 75l-60 -75h-147
l121 154h174z" />
    <glyph glyph-name="atilde" unicode="&#xe3;" horiz-adv-x="604" 
d="M123.5 12q-49.5 27 -79 82.5t-29.5 136.5t29.5 136.5t79 82.5t110.5 27q101 0 148 -74h2v59h185v-462h-185v59h-2q-47 -74 -148 -74q-61 0 -110.5 27zM351 169q24 23 24 62t-24 62t-61 23t-61 -23t-24 -62t24 -62t61 -23t61 23zM257 702.5q26 -6.5 60 -18.5q19 -7 37 -12
t29 -5q19 0 32 12.5t23 33.5l66 -24q-20 -73 -47.5 -110t-77.5 -37q-37 0 -108 25q-51 17 -67 17q-31 0 -54 -46l-67 24q20 73 48 110t77 37q23 0 49 -6.5z" />
    <glyph glyph-name="adieresis" unicode="&#xe4;" horiz-adv-x="604" 
d="M123.5 12q-49.5 27 -79 82.5t-29.5 136.5t29.5 136.5t79 82.5t110.5 27q101 0 148 -74h2v59h185v-462h-185v59h-2q-47 -74 -148 -74q-61 0 -110.5 27zM351 169q24 23 24 62t-24 62t-61 23t-61 -23t-24 -62t24 -62t61 -23t61 23zM272 545h-139v145h139v-145zM461 545h-139
v145h139v-145z" />
    <glyph glyph-name="aring" unicode="&#xe5;" horiz-adv-x="604" 
d="M123.5 12q-49.5 27 -79 82.5t-29.5 136.5t29.5 136.5t79 82.5t110.5 27q101 0 148 -74h2v59h185v-462h-185v59h-2q-47 -74 -148 -74q-61 0 -110.5 27zM351 169q24 23 24 62t-24 62t-61 23t-61 -23t-24 -62t24 -62t61 -23t61 23zM379 714q33 -33 33 -84t-33 -84t-84 -33
t-84 33t-33 84t33 84t84 33t84 -33zM262.5 663q-12.5 -14 -12.5 -33t12.5 -32.5t32.5 -13.5q19 0 31.5 13.5t12.5 32.5t-12.5 33t-31.5 14q-20 0 -32.5 -14z" />
    <glyph glyph-name="ae" unicode="&#xe6;" horiz-adv-x="827" 
d="M755.5 410q61.5 -66 61.5 -197v-25h-319q12 -33 40 -47t76 -14q53 0 117 26l49 -134q-81 -34 -175 -34q-68 0 -122 20t-83 67h-2q-64 -87 -199 -87q-92 0 -143 44t-51 121t47 120t128 43q49 0 88 -16t59 -42h2v14q0 39 -24 59.5t-79 20.5q-47 0 -128 -12l-20 125
q90 15 164 15q68 0 109.5 -17.5t61.5 -59.5h2q24 35 68 55.5t107 20.5q104 0 165.5 -66zM518.5 338q-21.5 -19 -23.5 -55h147q0 37 -20.5 55.5t-51.5 18.5q-30 0 -51.5 -19zM228 194q-16 -13 -16 -36t16 -35t43 -12t43.5 13.5t16.5 33.5q0 22 -16 35.5t-44 13.5
q-27 0 -43 -13z" />
    <glyph glyph-name="ccedilla" unicode="&#xe7;" horiz-adv-x="455" 
d="M298 -15l-10 -22q46 -6 69.5 -23.5t23.5 -44.5q0 -25 -20 -42t-51.5 -28.5t-93.5 -30.5l-22 -6l-19 43q46 19 62 29t16 19q0 12 -9.5 16.5t-36.5 9.5l33 82q-101 11 -163 75.5t-62 168.5q0 75 34 131t93.5 85.5t136.5 29.5q94 0 171 -44l-71 -145q-38 24 -83 24
q-40 0 -65.5 -22.5t-25.5 -58.5t25.5 -58.5t65.5 -22.5q45 0 83 24l71 -145q-68 -39 -152 -44z" />
    <glyph glyph-name="egrave" unicode="&#xe8;" horiz-adv-x="514" 
d="M440.5 411.5q63.5 -64.5 63.5 -191.5v-32h-318q11 -33 39 -47t76 -14q53 0 117 26l49 -135q-82 -33 -172 -33q-133 0 -206.5 63.5t-73.5 181.5q0 119 69 182.5t182 63.5q111 0 174.5 -64.5zM205.5 338q-21.5 -19 -23.5 -55h147q0 36 -20.5 55t-51.5 19q-30 0 -51.5 -19z
M352 553h-145l-188 154h204z" />
    <glyph glyph-name="eacute" unicode="&#xe9;" horiz-adv-x="514" 
d="M440.5 411.5q63.5 -64.5 63.5 -191.5v-32h-318q11 -33 39 -47t76 -14q53 0 117 26l49 -135q-82 -33 -172 -33q-133 0 -206.5 63.5t-73.5 181.5q0 119 69 182.5t182 63.5q111 0 174.5 -64.5zM205.5 338q-21.5 -19 -23.5 -55h147q0 36 -20.5 55t-51.5 19q-30 0 -51.5 -19z
M516 707l-188 -154h-145l129 154h204z" />
    <glyph glyph-name="ecircumflex" unicode="&#xea;" horiz-adv-x="514" 
d="M440.5 411.5q63.5 -64.5 63.5 -191.5v-32h-318q11 -33 39 -47t76 -14q53 0 117 26l49 -135q-82 -33 -172 -33q-133 0 -206.5 63.5t-73.5 181.5q0 119 69 182.5t182 63.5q111 0 174.5 -64.5zM205.5 338q-21.5 -19 -23.5 -55h147q0 36 -20.5 55t-51.5 19q-30 0 -51.5 -19z
M475 553h-147l-62 75l-60 -75h-147l121 154h174z" />
    <glyph glyph-name="edieresis" unicode="&#xeb;" horiz-adv-x="514" 
d="M440.5 411.5q63.5 -64.5 63.5 -191.5v-32h-318q11 -33 39 -47t76 -14q53 0 117 26l49 -135q-82 -33 -172 -33q-133 0 -206.5 63.5t-73.5 181.5q0 119 69 182.5t182 63.5q111 0 174.5 -64.5zM205.5 338q-21.5 -19 -23.5 -55h147q0 36 -20.5 55t-51.5 19q-30 0 -51.5 -19z
M243 545h-139v145h139v-145zM432 545h-139v145h139v-145z" />
    <glyph glyph-name="igrave" unicode="&#xec;" horiz-adv-x="265" 
d="M205 553h-145l-98 154h164zM225 0h-185v462h185v-462z" />
    <glyph glyph-name="iacute" unicode="&#xed;" horiz-adv-x="265" 
d="M139 707h164l-98 -154h-145zM225 0h-185v462h185v-462z" />
    <glyph glyph-name="icircumflex" unicode="&#xee;" horiz-adv-x="265" 
d="M310 553h-137l-42 90l-40 -90h-137l91 154h174zM225 0h-185v462h185v-462z" />
    <glyph glyph-name="idieresis" unicode="&#xef;" horiz-adv-x="265" 
d="M113 545h-119v145h119v-145zM271 545h-119v145h119v-145zM225 0h-185v462h185v-462z" />
    <glyph glyph-name="eth" unicode="&#xf0;" horiz-adv-x="563" 
d="M538 320q0 -119 -37.5 -194t-98.5 -108t-136 -33q-77 0 -134 32t-87 89t-30 130t30 127.5t81.5 84t115.5 29.5q97 0 138 -66h2q-22 106 -99 156l-78 -69l-64 68l46 41q-39 9 -84 15l28 138q97 -9 178 -45l77 68l62 -69l-56 -50q146 -114 146 -344zM333 170.5
q25 23.5 25 62.5t-25 62.5t-64 23.5t-63 -24t-24 -62q0 -39 25 -62.5t63 -23.5t63 23.5z" />
    <glyph glyph-name="ntilde" unicode="&#xf1;" horiz-adv-x="579" 
d="M498.5 429.5q45.5 -47.5 45.5 -139.5v-290h-185v239q0 41 -16 61t-49 20q-74 0 -74 -96v-224h-185v462h179v-69h2q31 42 69.5 63t89.5 21q78 0 123.5 -47.5zM265 702.5q26 -6.5 60 -18.5q19 -7 37 -12t29 -5q19 0 32 12.5t23 33.5l66 -24q-20 -73 -47.5 -110t-77.5 -37
q-37 0 -108 25q-51 17 -67 17q-31 0 -54 -46l-67 24q20 73 48 110t77 37q23 0 49 -6.5z" />
    <glyph glyph-name="ograve" unicode="&#xf2;" horiz-adv-x="560" 
d="M142 15.5q-60 30.5 -93.5 86t-33.5 129.5t33.5 129.5t93.5 86t138 30.5t138 -30.5t93.5 -86t33.5 -129.5t-33.5 -129.5t-93.5 -86t-138 -30.5t-138 30.5zM344.5 169q25.5 23 25.5 62t-25.5 62t-64.5 23t-64.5 -23t-25.5 -62t25.5 -62t64.5 -23t64.5 23zM364 553h-145
l-188 154h204z" />
    <glyph glyph-name="oacute" unicode="&#xf3;" horiz-adv-x="560" 
d="M142 15.5q-60 30.5 -93.5 86t-33.5 129.5t33.5 129.5t93.5 86t138 30.5t138 -30.5t93.5 -86t33.5 -129.5t-33.5 -129.5t-93.5 -86t-138 -30.5t-138 30.5zM344.5 169q25.5 23 25.5 62t-25.5 62t-64.5 23t-64.5 -23t-25.5 -62t25.5 -62t64.5 -23t64.5 23zM528 707
l-188 -154h-145l129 154h204z" />
    <glyph glyph-name="ocircumflex" unicode="&#xf4;" horiz-adv-x="560" 
d="M142 15.5q-60 30.5 -93.5 86t-33.5 129.5t33.5 129.5t93.5 86t138 30.5t138 -30.5t93.5 -86t33.5 -129.5t-33.5 -129.5t-93.5 -86t-138 -30.5t-138 30.5zM344.5 169q25.5 23 25.5 62t-25.5 62t-64.5 23t-64.5 -23t-25.5 -62t25.5 -62t64.5 -23t64.5 23zM487 553h-147
l-62 75l-60 -75h-147l121 154h174z" />
    <glyph glyph-name="otilde" unicode="&#xf5;" horiz-adv-x="560" 
d="M142 15.5q-60 30.5 -93.5 86t-33.5 129.5t33.5 129.5t93.5 86t138 30.5t138 -30.5t93.5 -86t33.5 -129.5t-33.5 -129.5t-93.5 -86t-138 -30.5t-138 30.5zM344.5 169q25.5 23 25.5 62t-25.5 62t-64.5 23t-64.5 -23t-25.5 -62t25.5 -62t64.5 -23t64.5 23zM240 702.5
q26 -6.5 60 -18.5q19 -7 37 -12t29 -5q19 0 32 12.5t23 33.5l66 -24q-20 -73 -47.5 -110t-77.5 -37q-37 0 -108 25q-51 17 -67 17q-31 0 -54 -46l-67 24q20 73 48 110t77 37q23 0 49 -6.5z" />
    <glyph glyph-name="odieresis" unicode="&#xf6;" horiz-adv-x="560" 
d="M142 15.5q-60 30.5 -93.5 86t-33.5 129.5t33.5 129.5t93.5 86t138 30.5t138 -30.5t93.5 -86t33.5 -129.5t-33.5 -129.5t-93.5 -86t-138 -30.5t-138 30.5zM344.5 169q25.5 23 25.5 62t-25.5 62t-64.5 23t-64.5 -23t-25.5 -62t25.5 -62t64.5 -23t64.5 23zM255 545h-139v145
h139v-145zM444 545h-139v145h139v-145z" />
    <glyph glyph-name="divide" unicode="&#xf7;" 
d="M354 417h-108v108h108v-108zM559 262h-518v75h518v-75zM354 73h-108v108h108v-108z" />
    <glyph glyph-name="oslash" unicode="&#xf8;" horiz-adv-x="560" 
d="M524.5 335.5q20.5 -46.5 20.5 -104.5q0 -74 -33.5 -129.5t-93.5 -86t-138 -30.5q-92 0 -157 41l-35 -40l-27 23l33 38q-38 33 -58.5 79.5t-20.5 104.5q0 74 33.5 129.5t93.5 86t138 30.5q92 0 157 -41l36 41l27 -24l-34 -38q38 -33 58.5 -79.5zM208 176l115 131
q-18 9 -43 9q-39 0 -64.5 -23t-25.5 -62q0 -32 18 -55zM344.5 169q25.5 23 25.5 62q0 31 -18 54l-115 -130q19 -9 43 -9q39 0 64.5 23z" />
    <glyph glyph-name="ugrave" unicode="&#xf9;" horiz-adv-x="586" 
d="M89 31.5q-49 46.5 -49 133.5v297h190v-242q0 -39 17 -58t45 -19q69 0 69 101v218h185v-462h-179v71h-2q-31 -44 -66.5 -65t-82.5 -21q-78 0 -127 46.5zM377 553h-145l-188 154h204z" />
    <glyph glyph-name="uacute" unicode="&#xfa;" horiz-adv-x="586" 
d="M89 31.5q-49 46.5 -49 133.5v297h190v-242q0 -39 17 -58t45 -19q69 0 69 101v218h185v-462h-179v71h-2q-31 -44 -66.5 -65t-82.5 -21q-78 0 -127 46.5zM541 707l-188 -154h-145l129 154h204z" />
    <glyph glyph-name="ucircumflex" unicode="&#xfb;" horiz-adv-x="586" 
d="M89 31.5q-49 46.5 -49 133.5v297h190v-242q0 -39 17 -58t45 -19q69 0 69 101v218h185v-462h-179v71h-2q-31 -44 -66.5 -65t-82.5 -21q-78 0 -127 46.5zM500 553h-147l-62 75l-60 -75h-147l121 154h174z" />
    <glyph glyph-name="udieresis" unicode="&#xfc;" horiz-adv-x="586" 
d="M89 31.5q-49 46.5 -49 133.5v297h190v-242q0 -39 17 -58t45 -19q69 0 69 101v218h185v-462h-179v71h-2q-31 -44 -66.5 -65t-82.5 -21q-78 0 -127 46.5zM268 545h-139v145h139v-145zM457 545h-139v145h139v-145z" />
    <glyph glyph-name="yacute" unicode="&#xfd;" horiz-adv-x="593" 
d="M593 462l-318 -662h-185l121 249l-211 413h206l97 -224l109 224h181zM555 707l-188 -154h-145l129 154h204z" />
    <glyph glyph-name="thorn" unicode="&#xfe;" horiz-adv-x="609" 
d="M40 700h185v-297h2q47 74 148 74q61 0 110.5 -27t79 -82.5t29.5 -136.5t-29.5 -136.5t-79 -82.5t-110.5 -27q-101 0 -148 74h-2v-259h-185v900zM380 169q24 23 24 62t-24 62t-61 23t-61 -23t-24 -62t24 -62t61 -23t61 23z" />
    <glyph glyph-name="ydieresis" unicode="&#xff;" horiz-adv-x="593" 
d="M593 462l-318 -662h-185l121 249l-211 413h206l97 -224l109 224h181zM282 545h-139v145h139v-145zM471 545h-139v145h139v-145z" />
    <glyph glyph-name="Amacron" unicode="&#x100;" horiz-adv-x="745" 
d="M492 131h-239l-43 -131h-210l271 700h203l271 -700h-210zM444 281l-71 219l-72 -219h143zM545 742h-345v109h345v-109z" />
    <glyph glyph-name="amacron" unicode="&#x101;" horiz-adv-x="604" 
d="M123.5 12q-49.5 27 -79 82.5t-29.5 136.5t29.5 136.5t79 82.5t110.5 27q101 0 148 -74h2v59h185v-462h-185v59h-2q-47 -74 -148 -74q-61 0 -110.5 27zM351 169q24 23 24 62t-24 62t-61 23t-61 -23t-24 -62t24 -62t61 -23t61 23zM463 564h-332v116h332v-116z" />
    <glyph glyph-name="Abreve" unicode="&#x102;" horiz-adv-x="745" 
d="M492 131h-239l-43 -131h-210l271 700h203l271 -700h-210zM444 281l-71 219l-72 -219h143zM499 765q-48 -36 -126 -36q-79 0 -127 36t-56 99h122q2 -18 18 -28.5t43 -10.5t43 10.5t18 28.5h121q-8 -63 -56 -99z" />
    <glyph glyph-name="abreve" unicode="&#x103;" horiz-adv-x="604" 
d="M123.5 12q-49.5 27 -79 82.5t-29.5 136.5t29.5 136.5t79 82.5t110.5 27q101 0 148 -74h2v59h185v-462h-185v59h-2q-47 -74 -148 -74q-61 0 -110.5 27zM351 169q24 23 24 62t-24 62t-61 23t-61 -23t-24 -62t24 -62t61 -23t61 23zM455 609.5q-24 -40.5 -65.5 -63
t-92.5 -22.5t-93 23t-66 63t-24 90h113q5 -69 70 -69t70 69h112q0 -50 -24 -90.5z" />
    <glyph glyph-name="Aogonek" unicode="&#x104;" horiz-adv-x="745" 
d="M636 -108l14 -114q-13 -1 -22 -2t-15 -2q-22 -3 -35 -3q-61 0 -94 22t-33 71q0 60 86 136h-2l-43 131h-239l-43 -131h-210l271 700h203l271 -700h-92q-41 -36 -60 -57.5t-19 -35.5q0 -9 7.5 -14.5t17.5 -5.5q14 0 37 5zM444 281l-71 219l-72 -219h143z" />
    <glyph glyph-name="aogonek" unicode="&#x105;" horiz-adv-x="604" 
d="M439 -57.5q-19 -21.5 -19 -35.5q0 -9 7.5 -14.5t17.5 -5.5q14 0 37 5l14 -114q-13 -1 -22 -2t-15 -2q-23 -3 -35 -3q-61 0 -94 22t-33 71q0 60 87 137v58h-2q-47 -74 -148 -74q-61 0 -110.5 27t-79 82.5t-29.5 136.5t29.5 136.5t79 82.5t110.5 27q101 0 148 -74h2v59h185
v-462h-70q-41 -36 -60 -57.5zM351 169q24 23 24 62t-24 62t-61 23t-61 -23t-24 -62t24 -62t61 -23t61 23z" />
    <glyph glyph-name="Cacute" unicode="&#x106;" horiz-adv-x="664" 
d="M203.5 28.5q-87.5 43.5 -138 126t-50.5 195.5t50.5 195.5t138 126t196.5 43.5q148 0 259 -77l-100 -163q-39 27 -74.5 40t-78.5 13q-53 0 -96.5 -20.5t-69 -61t-25.5 -96.5t25.5 -96.5t69 -61t96.5 -20.5q43 0 78.5 13t74.5 40l100 -163q-111 -77 -259 -77
q-109 0 -196.5 43.5zM446 743h-131l128 120h190z" />
    <glyph glyph-name="cacute" unicode="&#x107;" horiz-adv-x="455" 
d="M142.5 14.5q-59.5 29.5 -93.5 85.5t-34 131t34 131t93.5 85.5t136.5 29.5q94 0 171 -44l-71 -145q-38 24 -83 24q-40 0 -65.5 -22.5t-25.5 -58.5t25.5 -58.5t65.5 -22.5q45 0 83 24l71 -145q-77 -44 -171 -44q-77 0 -136.5 29.5zM514 707l-188 -154h-145l129 154h204z
" />
    <glyph glyph-name="Ccircumflex" unicode="&#x108;" horiz-adv-x="664" 
d="M203.5 28.5q-87.5 43.5 -138 126t-50.5 195.5t50.5 195.5t138 126t196.5 43.5q148 0 259 -77l-100 -163q-39 27 -74.5 40t-78.5 13q-53 0 -96.5 -20.5t-69 -61t-25.5 -96.5t25.5 -96.5t69 -61t96.5 -20.5q43 0 78.5 13t74.5 40l100 -163q-111 -77 -259 -77
q-109 0 -196.5 43.5zM591 743h-150l-58 63l-57 -63h-150l120 120h175z" />
    <glyph glyph-name="ccircumflex" unicode="&#x109;" horiz-adv-x="455" 
d="M142.5 14.5q-59.5 29.5 -93.5 85.5t-34 131t34 131t93.5 85.5t136.5 29.5q94 0 171 -44l-71 -145q-38 24 -83 24q-40 0 -65.5 -22.5t-25.5 -58.5t25.5 -58.5t65.5 -22.5q45 0 83 24l71 -145q-77 -44 -171 -44q-77 0 -136.5 29.5zM473 553h-147l-62 75l-60 -75h-147
l121 154h174z" />
    <glyph glyph-name="Cdotaccent" unicode="&#x10a;" horiz-adv-x="664" 
d="M203.5 28.5q-87.5 43.5 -138 126t-50.5 195.5t50.5 195.5t138 126t196.5 43.5q148 0 259 -77l-100 -163q-39 27 -74.5 40t-78.5 13q-53 0 -96.5 -20.5t-69 -61t-25.5 -96.5t25.5 -96.5t69 -61t96.5 -20.5q43 0 78.5 13t74.5 40l100 -163q-111 -77 -259 -77
q-109 0 -196.5 43.5zM467 743h-166v143h166v-143z" />
    <glyph glyph-name="cdotaccent" unicode="&#x10b;" horiz-adv-x="455" 
d="M142.5 14.5q-59.5 29.5 -93.5 85.5t-34 131t34 131t93.5 85.5t136.5 29.5q94 0 171 -44l-71 -145q-38 24 -83 24q-40 0 -65.5 -22.5t-25.5 -58.5t25.5 -58.5t65.5 -22.5q45 0 83 24l71 -145q-77 -44 -171 -44q-77 0 -136.5 29.5zM360 527h-189v173h189v-173z" />
    <glyph glyph-name="Ccaron" unicode="&#x10c;" horiz-adv-x="664" 
d="M203.5 28.5q-87.5 43.5 -138 126t-50.5 195.5t50.5 195.5t138 126t196.5 43.5q148 0 259 -77l-100 -163q-39 27 -74.5 40t-78.5 13q-53 0 -96.5 -20.5t-69 -61t-25.5 -96.5t25.5 -96.5t69 -61t96.5 -20.5q43 0 78.5 13t74.5 40l100 -163q-111 -77 -259 -77
q-109 0 -196.5 43.5zM296 743l-120 120h150l57 -62l58 62h150l-120 -120h-175z" />
    <glyph glyph-name="ccaron" unicode="&#x10d;" horiz-adv-x="455" 
d="M142.5 14.5q-59.5 29.5 -93.5 85.5t-34 131t34 131t93.5 85.5t136.5 29.5q94 0 171 -44l-71 -145q-38 24 -83 24q-40 0 -65.5 -22.5t-25.5 -58.5t25.5 -58.5t65.5 -22.5q45 0 83 24l71 -145q-77 -44 -171 -44q-77 0 -136.5 29.5zM352 546h-174l-121 154h147l60 -74l62 74
h147z" />
    <glyph glyph-name="Dcaron" unicode="&#x10e;" horiz-adv-x="690" 
d="M497.5 658q85.5 -42 131.5 -121t46 -187t-46 -187t-132 -121t-203 -42h-239v700h239q118 0 203.5 -42zM245 530v-360h50q83 0 131.5 46t48.5 134t-48.5 134t-131.5 46h-50zM198 743l-120 120h150l57 -62l58 62h150l-120 -120h-175z" />
    <glyph glyph-name="dcaron" unicode="&#x10f;" horiz-adv-x="789" 
d="M774 715v-161l-85 -62h-67l45 62h-55v161h162zM384 700h185v-700h-185v59h-2q-47 -74 -148 -74q-61 0 -110.5 27t-79 82.5t-29.5 136.5t29.5 136.5t79 82.5t110.5 27q101 0 148 -74h2v297zM359 168.5q25 22.5 25 62.5t-25 62.5t-65 22.5t-65 -22.5t-25 -62.5t25 -62.5
t65 -22.5t65 22.5z" />
    <glyph glyph-name="Dcroat" unicode="&#x110;" horiz-adv-x="690" 
d="M497.5 658q85.5 -42 131.5 -121t46 -187t-46 -187t-132 -121t-203 -42h-239v278h-70v155h70v267h239q118 0 203.5 -42zM426.5 216q48.5 46 48.5 134t-48.5 134t-131.5 46h-50v-97h117v-155h-117v-108h50q83 0 131.5 46z" />
    <glyph glyph-name="dcroat" unicode="&#x111;" horiz-adv-x="649" 
d="M649 539h-80v-539h-185v59h-2q-47 -74 -148 -74q-61 0 -110.5 27t-79 82.5t-29.5 136.5t29.5 136.5t79 82.5t110.5 27q101 0 148 -74h2v136h-129v100h129v61h185v-61h80v-100zM359 168.5q25 22.5 25 62.5t-25 62.5t-65 22.5t-65 -22.5t-25 -62.5t25 -62.5t65 -22.5
t65 22.5z" />
    <glyph glyph-name="Emacron" unicode="&#x112;" horiz-adv-x="546" 
d="M516 174v-174h-461v700h446v-174h-256v-83h225v-165h-225v-104h271zM457 742h-345v109h345v-109z" />
    <glyph glyph-name="emacron" unicode="&#x113;" horiz-adv-x="514" 
d="M440.5 411.5q63.5 -64.5 63.5 -191.5v-32h-318q11 -33 39 -47t76 -14q53 0 117 26l49 -135q-82 -33 -172 -33q-133 0 -206.5 63.5t-73.5 181.5q0 119 69 182.5t182 63.5q111 0 174.5 -64.5zM205.5 338q-21.5 -19 -23.5 -55h147q0 36 -20.5 55t-51.5 19q-30 0 -51.5 -19z
M434 564h-332v116h332v-116z" />
    <glyph glyph-name="Ebreve" unicode="&#x114;" horiz-adv-x="546" 
d="M516 174v-174h-461v700h446v-174h-256v-83h225v-165h-225v-104h271zM411 765q-48 -36 -126 -36q-79 0 -127 36t-56 99h122q2 -18 18 -28.5t43 -10.5t43 10.5t18 28.5h121q-8 -63 -56 -99z" />
    <glyph glyph-name="ebreve" unicode="&#x115;" horiz-adv-x="514" 
d="M440.5 411.5q63.5 -64.5 63.5 -191.5v-32h-318q11 -33 39 -47t76 -14q53 0 117 26l49 -135q-82 -33 -172 -33q-133 0 -206.5 63.5t-73.5 181.5q0 119 69 182.5t182 63.5q111 0 174.5 -64.5zM205.5 338q-21.5 -19 -23.5 -55h147q0 36 -20.5 55t-51.5 19q-30 0 -51.5 -19z
M426 609.5q-24 -40.5 -65.5 -63t-92.5 -22.5t-93 23t-66 63t-24 90h113q5 -69 70 -69t70 69h112q0 -50 -24 -90.5z" />
    <glyph glyph-name="Edotaccent" unicode="&#x116;" horiz-adv-x="546" 
d="M516 174v-174h-461v700h446v-174h-256v-83h225v-165h-225v-104h271zM368 743h-166v143h166v-143z" />
    <glyph glyph-name="edotaccent" unicode="&#x117;" horiz-adv-x="514" 
d="M440.5 411.5q63.5 -64.5 63.5 -191.5v-32h-318q11 -33 39 -47t76 -14q53 0 117 26l49 -135q-82 -33 -172 -33q-133 0 -206.5 63.5t-73.5 181.5q0 119 69 182.5t182 63.5q111 0 174.5 -64.5zM205.5 338q-21.5 -19 -23.5 -55h147q0 36 -20.5 55t-51.5 19q-30 0 -51.5 -19z
M362 527h-189v173h189v-173z" />
    <glyph glyph-name="Eogonek" unicode="&#x118;" horiz-adv-x="546" 
d="M442 -57.5q-19 -21.5 -19 -35.5q0 -9 7.5 -14.5t17.5 -5.5q14 0 37 5l14 -114q-13 -1 -22 -2t-15 -2q-22 -3 -35 -3q-61 0 -94 22t-33 71q0 60 86 136h-331v700h446v-174h-256v-83h225v-165h-225v-104h271v-174h-14q-41 -36 -60 -57.5z" />
    <glyph glyph-name="eogonek" unicode="&#x119;" horiz-adv-x="514" 
d="M504 188h-318q11 -33 39 -47t76 -14q53 0 117 26l49 -135l-24 -9q-45 -39 -67 -63t-22 -39q0 -9 7.5 -14.5t17.5 -5.5q14 0 37 5l14 -114q-13 -1 -22 -2t-15 -2q-23 -3 -35 -3q-61 0 -94 22t-33 71q0 54 69 121h-5q-133 0 -206.5 63.5t-73.5 181.5q0 119 69 182.5
t182 63.5q111 0 174.5 -64.5t63.5 -191.5v-32zM329 283q0 36 -20.5 55t-51.5 19q-30 0 -51.5 -19t-23.5 -55h147z" />
    <glyph glyph-name="Ecaron" unicode="&#x11a;" horiz-adv-x="546" 
d="M516 174v-174h-461v700h446v-174h-256v-83h225v-165h-225v-104h271zM197 743l-120 120h150l57 -62l58 62h150l-120 -120h-175z" />
    <glyph glyph-name="ecaron" unicode="&#x11b;" horiz-adv-x="514" 
d="M440.5 411.5q63.5 -64.5 63.5 -191.5v-32h-318q11 -33 39 -47t76 -14q53 0 117 26l49 -135q-82 -33 -172 -33q-133 0 -206.5 63.5t-73.5 181.5q0 119 69 182.5t182 63.5q111 0 174.5 -64.5zM205.5 338q-21.5 -19 -23.5 -55h147q0 36 -20.5 55t-51.5 19q-30 0 -51.5 -19z
M354 546h-174l-121 154h147l60 -74l62 74h147z" />
    <glyph glyph-name="Gcircumflex" unicode="&#x11c;" horiz-adv-x="751" 
d="M736 339q0 -104 -39.5 -184t-116 -125t-185.5 -45q-113 0 -199 46t-133.5 129t-47.5 191q0 105 46 187.5t134 129.5t210 47q82 0 150 -22.5t130 -67.5l-116 -156q-76 64 -170 64q-85 0 -134.5 -50.5t-49.5 -132.5q0 -80 49 -131.5t140 -51.5q64 0 99.5 24.5t41.5 63.5
h-173v160h361q3 -40 3 -76zM593 743h-150l-58 63l-57 -63h-150l120 120h175z" />
    <glyph glyph-name="gcircumflex" unicode="&#x11d;" horiz-adv-x="604" 
d="M88 -191l31 162q89 -23 151 -23q56 0 85 21t29 75v18h-2q-24 -27 -60.5 -44.5t-84.5 -17.5q-97 0 -159.5 59t-62.5 175q0 79 29.5 133.5t79.5 82t110 27.5q101 0 148 -74h2v59h185v-447q0 -106 -67 -168t-205 -62q-92 0 -209 24zM351 169q24 23 24 62t-24 62t-61 23
t-61 -23t-24 -62t24 -62t61 -23t61 23zM497 553h-147l-62 75l-60 -75h-147l121 154h174z" />
    <glyph glyph-name="Gbreve" unicode="&#x11e;" horiz-adv-x="751" 
d="M736 339q0 -104 -39.5 -184t-116 -125t-185.5 -45q-113 0 -199 46t-133.5 129t-47.5 191q0 105 46 187.5t134 129.5t210 47q82 0 150 -22.5t130 -67.5l-116 -156q-76 64 -170 64q-85 0 -134.5 -50.5t-49.5 -132.5q0 -80 49 -131.5t140 -51.5q64 0 99.5 24.5t41.5 63.5
h-173v160h361q3 -40 3 -76zM512 765q-48 -36 -126 -36q-79 0 -127 36t-56 99h122q2 -18 18 -28.5t43 -10.5t43 10.5t18 28.5h121q-8 -63 -56 -99z" />
    <glyph glyph-name="gbreve" unicode="&#x11f;" horiz-adv-x="604" 
d="M88 -191l31 162q89 -23 151 -23q56 0 85 21t29 75v18h-2q-24 -27 -60.5 -44.5t-84.5 -17.5q-97 0 -159.5 59t-62.5 175q0 79 29.5 133.5t79.5 82t110 27.5q101 0 148 -74h2v59h185v-447q0 -106 -67 -168t-205 -62q-92 0 -209 24zM351 169q24 23 24 62t-24 62t-61 23
t-61 -23t-24 -62t24 -62t61 -23t61 23zM448 609.5q-24 -40.5 -65.5 -63t-92.5 -22.5t-93 23t-66 63t-24 90h113q5 -69 70 -69t70 69h112q0 -50 -24 -90.5z" />
    <glyph glyph-name="Gdotaccent" unicode="&#x120;" horiz-adv-x="751" 
d="M736 339q0 -104 -39.5 -184t-116 -125t-185.5 -45q-113 0 -199 46t-133.5 129t-47.5 191q0 105 46 187.5t134 129.5t210 47q82 0 150 -22.5t130 -67.5l-116 -156q-76 64 -170 64q-85 0 -134.5 -50.5t-49.5 -132.5q0 -80 49 -131.5t140 -51.5q64 0 99.5 24.5t41.5 63.5
h-173v160h361q3 -40 3 -76zM469 743h-166v143h166v-143z" />
    <glyph glyph-name="gdotaccent" unicode="&#x121;" horiz-adv-x="604" 
d="M88 -191l31 162q89 -23 151 -23q56 0 85 21t29 75v18h-2q-24 -27 -60.5 -44.5t-84.5 -17.5q-97 0 -159.5 59t-62.5 175q0 79 29.5 133.5t79.5 82t110 27.5q101 0 148 -74h2v59h185v-447q0 -106 -67 -168t-205 -62q-92 0 -209 24zM351 169q24 23 24 62t-24 62t-61 23
t-61 -23t-24 -62t24 -62t61 -23t61 23zM384 527h-189v173h189v-173z" />
    <glyph glyph-name="Gcommaaccent" unicode="&#x122;" horiz-adv-x="751" 
d="M736 339q0 -104 -39.5 -184t-116 -125t-185.5 -45q-113 0 -199 46t-133.5 129t-47.5 191q0 105 46 187.5t134 129.5t210 47q82 0 150 -22.5t130 -67.5l-116 -156q-76 64 -170 64q-85 0 -134.5 -50.5t-49.5 -132.5q0 -80 49 -131.5t140 -51.5q64 0 99.5 24.5t41.5 63.5
h-173v160h361q3 -40 3 -76zM482 -47v-103l-65 -60h-63l28 60h-60v103h160z" />
    <glyph glyph-name="gcommaaccent" unicode="&#x123;" horiz-adv-x="604" 
d="M88 -191l31 162q89 -23 151 -23q56 0 85 21t29 75v18h-2q-24 -27 -60.5 -44.5t-84.5 -17.5q-97 0 -159.5 59t-62.5 175q0 79 29.5 133.5t79.5 82t110 27.5q101 0 148 -74h2v59h185v-447q0 -106 -67 -168t-205 -62q-92 0 -209 24zM351 169q24 23 24 62t-24 62t-61 23
t-61 -23t-24 -62t24 -62t61 -23t61 23zM370 643v-103h-160v103l65 60h63l-28 -60h60z" />
    <glyph glyph-name="Hcircumflex" unicode="&#x124;" horiz-adv-x="729" 
d="M674 700v-700h-190v272h-239v-272h-190v700h190v-254h239v254h190zM572 743h-150l-58 63l-57 -63h-150l120 120h175z" />
    <glyph glyph-name="hcircumflex" unicode="&#x125;" horiz-adv-x="584" 
d="M225 400h2q57 77 152 77q78 0 124 -47.5t46 -139.5v-290h-185v239q0 41 -16 61t-49 20q-34 0 -54 -23.5t-20 -72.5v-224h-185v700h185v-300zM340 743h-150l-58 63l-57 -63h-150l120 120h175z" />
    <glyph glyph-name="Hbar" unicode="&#x126;" horiz-adv-x="739" 
d="M739 508h-60v-508h-190v272h-239v-272h-190v508h-60v130h60v62h190v-62h239v62h190v-62h60v-130zM489 508h-239v-62h239v62z" />
    <glyph glyph-name="hbar" unicode="&#x127;" horiz-adv-x="584" 
d="M503 429.5q46 -47.5 46 -139.5v-290h-185v239q0 41 -16 61t-49 20q-34 0 -54 -23.5t-20 -72.5v-224h-185v539h-70v100h70v61h185v-61h118v-100h-118v-139h2q57 77 152 77q78 0 124 -47.5z" />
    <glyph glyph-name="Itilde" unicode="&#x128;" horiz-adv-x="300" 
d="M245 0h-190v700h190v-700zM-56 750q20 65 47.5 96t76.5 31q22 0 54 -6t61 -12q6 -1 31.5 -6.5t38.5 -5.5q17 0 28 8.5t25 25.5l54 -18q-19 -65 -46.5 -96t-77.5 -31q-22 0 -54 6t-61 12q-6 1 -31.5 6.5t-38.5 5.5q-17 0 -28 -9t-25 -26z" />
    <glyph glyph-name="itilde" unicode="&#x129;" horiz-adv-x="265" 
d="M100.5 703q17.5 -6 48.5 -19q36 -17 49 -17q15 0 24 12t18 34l66 -24q-16 -73 -38.5 -110t-63.5 -37q-18 0 -35.5 6t-48.5 19q-36 17 -49 17q-15 0 -24 -12t-18 -34l-66 24q16 73 38.5 110t63.5 37q18 0 35.5 -6zM225 0h-185v462h185v-462z" />
    <glyph glyph-name="Imacron" unicode="&#x12a;" horiz-adv-x="300" 
d="M245 0h-190v700h190v-700zM322 742h-345v109h345v-109z" />
    <glyph glyph-name="imacron" unicode="&#x12b;" horiz-adv-x="265" 
d="M259 564h-252v116h252v-116zM225 0h-185v462h185v-462z" />
    <glyph glyph-name="Ibreve" unicode="&#x12c;" horiz-adv-x="300" 
d="M245 0h-190v700h190v-700zM276 765q-48 -36 -126 -36q-79 0 -127 36t-56 99h122q2 -18 18 -28.5t43 -10.5t43 10.5t18 28.5h121q-8 -63 -56 -99z" />
    <glyph glyph-name="ibreve" unicode="&#x12d;" horiz-adv-x="265" 
d="M249.5 570q-41.5 -46 -116.5 -46t-116.5 46t-41.5 130h106q0 -35 12.5 -52t39.5 -17t39.5 17t12.5 52h106q0 -84 -41.5 -130zM225 0h-185v462h185v-462z" />
    <glyph glyph-name="Iogonek" unicode="&#x12e;" horiz-adv-x="300" 
d="M163 -57.5q-19 -21.5 -19 -35.5q0 -9 7.5 -14.5t17.5 -5.5q14 0 37 5l14 -114q-13 -1 -22 -2t-15 -2q-22 -3 -35 -3q-61 0 -94 22t-33 71q0 60 86 136h-52v700h190v-700h-22q-41 -36 -60 -57.5z" />
    <glyph glyph-name="iogonek" unicode="&#x12f;" horiz-adv-x="265" 
d="M227 700v-173h-189v173h189zM40 462h185v-462h-26q-41 -36 -60 -57.5t-19 -35.5q0 -9 7.5 -14.5t17.5 -5.5q14 0 37 5l14 -114q-13 -1 -22 -2t-15 -2q-23 -3 -35 -3q-61 0 -94 22t-33 71q0 60 86 136h-43v462z" />
    <glyph glyph-name="Idotaccent" unicode="&#x130;" horiz-adv-x="300" 
d="M245 0h-190v700h190v-700zM233 743h-166v143h166v-143z" />
    <glyph glyph-name="dotlessi" unicode="&#x131;" horiz-adv-x="265" 
d="M225 0h-185v462h185v-462z" />
    <glyph glyph-name="IJ" unicode="&#x132;" horiz-adv-x="624" 
d="M245 0h-190v700h190v-700zM569 180q0 -95 -49 -139t-151 -44h-59v174h38q13 0 22 10t9 22v497h190v-520z" />
    <glyph glyph-name="ij" unicode="&#x133;" horiz-adv-x="530" 
d="M225 0h-185v462h185v-462zM227 527h-189v173h189v-173zM246 -31q29 0 44 18.5t15 54.5v420h185v-411q0 -130 -52.5 -192t-162.5 -62h-50v172h21zM492 527h-189v173h189v-173z" />
    <glyph glyph-name="Jcircumflex" unicode="&#x134;" horiz-adv-x="324" 
d="M269 180q0 -95 -49 -139t-151 -44h-59v174h38q13 0 22 10t9 22v497h190v-520zM380 743h-150l-58 63l-57 -63h-150l120 120h175z" />
    <glyph glyph-name="jcircumflex" unicode="&#x135;" horiz-adv-x="265" 
d="M310 553h-137l-42 90l-40 -90h-137l91 154h174zM-19 -31q29 0 44 18.5t15 54.5v420h185v-411q0 -130 -52.5 -192t-162.5 -62h-50v172h21z" />
    <glyph glyph-name="Kcommaaccent" unicode="&#x136;" horiz-adv-x="774" 
d="M510 0l-265 324v-324h-190v700h190v-308l236 308h246l-275 -333l322 -367h-264zM448 -47v-103l-65 -60h-63l28 60h-60v103h160z" />
    <glyph glyph-name="kcommaaccent" unicode="&#x137;" horiz-adv-x="603" 
d="M366 0l-141 202v-202h-185v700h185v-409l118 171h223l-172 -210l209 -252h-237zM372 -47v-103l-65 -60h-63l28 60h-60v103h160z" />
    <glyph glyph-name="kgreenlandic" unicode="&#x138;" horiz-adv-x="598" 
d="M361 0l-141 202v-202h-185v462h185v-179l148 179h223l-202 -210l209 -252h-237z" />
    <glyph glyph-name="Lacute" unicode="&#x139;" horiz-adv-x="514" 
d="M245 174h264v-174h-454v700h190v-526zM192 743h-131l128 120h190z" />
    <glyph glyph-name="lacute" unicode="&#x13a;" horiz-adv-x="265" 
d="M225 0h-185v700h185v-700zM195 743h-131l128 120h190z" />
    <glyph glyph-name="Lcommaaccent" unicode="&#x13b;" horiz-adv-x="514" 
d="M245 174h264v-174h-454v700h190v-526zM366 -47v-103l-65 -60h-63l28 60h-60v103h160z" />
    <glyph glyph-name="lcommaaccent" unicode="&#x13c;" horiz-adv-x="265" 
d="M225 0h-185v700h185v-700zM213 -47v-103l-65 -60h-63l28 60h-60v103h160z" />
    <glyph glyph-name="Lcaron" unicode="&#x13d;" horiz-adv-x="514" 
d="M245 174h264v-174h-454v700h190v-526zM485 715v-161l-85 -162h-67l51 162h-61v161h162z" />
    <glyph glyph-name="lcaron" unicode="&#x13e;" horiz-adv-x="441" 
d="M431 715v-161l-85 -62h-67l45 62h-55v161h162zM40 700h185v-700h-185v700z" />
    <glyph glyph-name="Ldot" unicode="&#x13f;" horiz-adv-x="514" 
d="M245 174h264v-174h-454v700h190v-526zM503 274h-186v188h186v-188z" />
    <glyph glyph-name="ldot" unicode="&#x140;" horiz-adv-x="464" 
d="M225 0h-185v700h185v-700zM454 275h-186v188h186v-188z" />
    <glyph glyph-name="Lslash" unicode="&#x141;" horiz-adv-x="514" 
d="M509 174v-174h-454v260l-65 -35v118l65 35v322h190v-222l165 88v-118l-165 -88v-186h264z" />
    <glyph glyph-name="lslash" unicode="&#x142;" horiz-adv-x="337" 
d="M327 400l-66 -34v-366h-185v270l-66 -34v118l66 34v312h185v-216l66 34v-118z" />
    <glyph glyph-name="Nacute" unicode="&#x143;" horiz-adv-x="780" 
d="M725 0h-148l-330 376h-2v-376h-190v700h148l330 -376h2v376h190v-700zM450 743h-131l128 120h190z" />
    <glyph glyph-name="nacute" unicode="&#x144;" horiz-adv-x="579" 
d="M498.5 429.5q45.5 -47.5 45.5 -139.5v-290h-185v239q0 41 -16 61t-49 20q-74 0 -74 -96v-224h-185v462h179v-69h2q31 42 69.5 63t89.5 21q78 0 123.5 -47.5zM553 707l-188 -154h-145l129 154h204z" />
    <glyph glyph-name="Ncommaaccent" unicode="&#x145;" horiz-adv-x="780" 
d="M725 0h-148l-330 376h-2v-376h-190v700h148l330 -376h2v376h190v-700zM468 -47v-103l-65 -60h-63l28 60h-60v103h160z" />
    <glyph glyph-name="ncommaaccent" unicode="&#x146;" horiz-adv-x="579" 
d="M498.5 429.5q45.5 -47.5 45.5 -139.5v-290h-185v239q0 41 -16 61t-49 20q-74 0 -74 -96v-224h-185v462h179v-69h2q31 42 69.5 63t89.5 21q78 0 123.5 -47.5zM377 -47v-103l-65 -60h-63l28 60h-60v103h160z" />
    <glyph glyph-name="Ncaron" unicode="&#x147;" horiz-adv-x="780" 
d="M725 0h-148l-330 376h-2v-376h-190v700h148l330 -376h2v376h190v-700zM300 743l-120 120h150l57 -62l58 62h150l-120 -120h-175z" />
    <glyph glyph-name="ncaron" unicode="&#x148;" horiz-adv-x="579" 
d="M498.5 429.5q45.5 -47.5 45.5 -139.5v-290h-185v239q0 41 -16 61t-49 20q-74 0 -74 -96v-224h-185v462h179v-69h2q31 42 69.5 63t89.5 21q78 0 123.5 -47.5zM391 546h-174l-121 154h147l60 -74l62 74h147z" />
    <glyph glyph-name="napostrophe" unicode="&#x149;" horiz-adv-x="709" 
d="M628.5 429.5q45.5 -47.5 45.5 -139.5v-290h-185v239q0 41 -16 61t-49 20q-74 0 -74 -96v-224h-185v462h179v-69h2q31 42 69.5 63t89.5 21q78 0 123.5 -47.5zM172 715v-161l-85 -162h-67l51 162h-61v161h162z" />
    <glyph glyph-name="Eng" unicode="&#x14a;" horiz-adv-x="780" 
d="M725 700v-702q0 -104 -57.5 -151t-157.5 -47h-73v172h40q25 0 41.5 12t16.5 39v25l-288 328h-2v-376h-190v700h148l330 -376h2v376h190z" />
    <glyph glyph-name="eng" unicode="&#x14b;" horiz-adv-x="579" 
d="M498.5 429.5q45.5 -47.5 45.5 -139.5v-290q0 -97 -55 -148.5t-156 -51.5h-60v167h31q24 0 39.5 13t15.5 52v207q0 41 -16 61t-49 20q-74 0 -74 -96v-224h-185v462h179v-69h2q31 42 69.5 63t89.5 21q78 0 123.5 -47.5z" />
    <glyph glyph-name="Omacron" unicode="&#x14c;" horiz-adv-x="776" 
d="M577 669.5q85 -45.5 134.5 -129t49.5 -190.5t-49.5 -190.5t-134.5 -129t-189 -45.5t-189 45.5t-134.5 129t-49.5 190.5t49.5 190.5t134.5 129t189 45.5t189 -45.5zM263.5 477.5q-48.5 -47.5 -48.5 -127.5t48.5 -127.5t124.5 -47.5t124.5 47.5t48.5 127.5t-48.5 127.5
t-124.5 47.5t-124.5 -47.5zM560 742h-345v109h345v-109z" />
    <glyph glyph-name="omacron" unicode="&#x14d;" horiz-adv-x="560" 
d="M142 15.5q-60 30.5 -93.5 86t-33.5 129.5t33.5 129.5t93.5 86t138 30.5t138 -30.5t93.5 -86t33.5 -129.5t-33.5 -129.5t-93.5 -86t-138 -30.5t-138 30.5zM344.5 169q25.5 23 25.5 62t-25.5 62t-64.5 23t-64.5 -23t-25.5 -62t25.5 -62t64.5 -23t64.5 23zM446 564h-332v116
h332v-116z" />
    <glyph glyph-name="Obreve" unicode="&#x14e;" horiz-adv-x="776" 
d="M577 669.5q85 -45.5 134.5 -129t49.5 -190.5t-49.5 -190.5t-134.5 -129t-189 -45.5t-189 45.5t-134.5 129t-49.5 190.5t49.5 190.5t134.5 129t189 45.5t189 -45.5zM263.5 477.5q-48.5 -47.5 -48.5 -127.5t48.5 -127.5t124.5 -47.5t124.5 47.5t48.5 127.5t-48.5 127.5
t-124.5 47.5t-124.5 -47.5zM514 765q-48 -36 -126 -36q-79 0 -127 36t-56 99h122q2 -18 18 -28.5t43 -10.5t43 10.5t18 28.5h121q-8 -63 -56 -99z" />
    <glyph glyph-name="obreve" unicode="&#x14f;" horiz-adv-x="560" 
d="M142 15.5q-60 30.5 -93.5 86t-33.5 129.5t33.5 129.5t93.5 86t138 30.5t138 -30.5t93.5 -86t33.5 -129.5t-33.5 -129.5t-93.5 -86t-138 -30.5t-138 30.5zM344.5 169q25.5 23 25.5 62t-25.5 62t-64.5 23t-64.5 -23t-25.5 -62t25.5 -62t64.5 -23t64.5 23zM438 609.5
q-24 -40.5 -65.5 -63t-92.5 -22.5t-93 23t-66 63t-24 90h113q5 -69 70 -69t70 69h112q0 -50 -24 -90.5z" />
    <glyph glyph-name="Ohungarumlaut" unicode="&#x150;" horiz-adv-x="776" 
d="M577 669.5q85 -45.5 134.5 -129t49.5 -190.5t-49.5 -190.5t-134.5 -129t-189 -45.5t-189 45.5t-134.5 129t-49.5 190.5t49.5 190.5t134.5 129t189 45.5t189 -45.5zM263.5 477.5q-48.5 -47.5 -48.5 -127.5t48.5 -127.5t124.5 -47.5t124.5 47.5t48.5 127.5t-48.5 127.5
t-124.5 47.5t-124.5 -47.5zM391 743h-125l112 120h133zM576 743h-125l112 120h133z" />
    <glyph glyph-name="ohungarumlaut" unicode="&#x151;" horiz-adv-x="560" 
d="M142 15.5q-60 30.5 -93.5 86t-33.5 129.5t33.5 129.5t93.5 86t138 30.5t138 -30.5t93.5 -86t33.5 -129.5t-33.5 -129.5t-93.5 -86t-138 -30.5t-138 30.5zM344.5 169q25.5 23 25.5 62t-25.5 62t-64.5 23t-64.5 -23t-25.5 -62t25.5 -62t64.5 -23t64.5 23zM243 553h-133
l142 154h150zM443 553h-133l142 154h150z" />
    <glyph glyph-name="OE" unicode="&#x152;" horiz-adv-x="1033" 
d="M1003 174v-174h-461v25q-65 -41 -160 -41q-105 0 -188.5 46t-131 129t-47.5 191t47.5 191t131 129t188.5 46q94 0 160 -40v24h448v-174h-259v-83h226v-165h-226v-104h272zM502.5 222q46.5 46 46.5 128t-46.5 128t-120.5 46q-75 0 -121.5 -45.5t-46.5 -128.5
q0 -82 46.5 -128t121.5 -46q74 0 120.5 46z" />
    <glyph glyph-name="oe" unicode="&#x153;" horiz-adv-x="858" 
d="M785.5 411q62.5 -65 62.5 -191v-32h-318q11 -33 38.5 -47t72.5 -14q57 0 121 26l49 -135q-82 -33 -171 -33q-70 0 -115 19.5t-78 58.5h-2q-32 -38 -73 -58t-101 -20q-73 0 -131.5 30.5t-91.5 86t-33 129.5q0 73 32.5 129t91 86.5t132.5 30.5q57 0 102.5 -19t71.5 -57h2
q24 31 65.5 53t105.5 22q105 0 167.5 -65zM549 338q-21 -19 -23 -55h147q0 36 -20.5 55t-51.5 19t-52 -19zM219 293q-24 -23 -24 -62t24 -62t60 -23q35 0 58 23t23 62t-23 62t-58 23q-36 0 -60 -23z" />
    <glyph glyph-name="Racute" unicode="&#x154;" horiz-adv-x="667" 
d="M425 0l-180 260v-260h-190v700h299q89 0 148 -31.5t87.5 -83.5t28.5 -115q0 -73 -38 -129t-112 -81l194 -260h-237zM245 532v-150h83q45 0 69 19t24 57q0 74 -93 74h-83zM344 743h-131l128 120h190z" />
    <glyph glyph-name="racute" unicode="&#x155;" horiz-adv-x="368" 
d="M363 302h-11q-69 0 -100.5 -29t-31.5 -104v-169h-185v462h179v-86h2q21 55 57 77.5t88 22.5h2v-174zM430 707l-188 -154h-145l129 154h204z" />
    <glyph glyph-name="Rcommaaccent" unicode="&#x156;" horiz-adv-x="667" 
d="M425 0l-180 260v-260h-190v700h299q89 0 148 -31.5t87.5 -83.5t28.5 -115q0 -73 -38 -129t-112 -81l194 -260h-237zM245 532v-150h83q45 0 69 19t24 57q0 74 -93 74h-83zM424 -47v-103l-65 -60h-63l28 60h-60v103h160z" />
    <glyph glyph-name="rcommaaccent" unicode="&#x157;" horiz-adv-x="368" 
d="M363 302h-11q-69 0 -100.5 -29t-31.5 -104v-169h-185v462h179v-86h2q21 55 57 77.5t88 22.5h2v-174zM207 -47v-103l-65 -60h-63l28 60h-60v103h160z" />
    <glyph glyph-name="Rcaron" unicode="&#x158;" horiz-adv-x="667" 
d="M425 0l-180 260v-260h-190v700h299q89 0 148 -31.5t87.5 -83.5t28.5 -115q0 -73 -38 -129t-112 -81l194 -260h-237zM245 532v-150h83q45 0 69 19t24 57q0 74 -93 74h-83zM194 743l-120 120h150l57 -62l58 62h150l-120 -120h-175z" />
    <glyph glyph-name="rcaron" unicode="&#x159;" horiz-adv-x="368" 
d="M363 302h-11q-69 0 -100.5 -29t-31.5 -104v-169h-185v462h179v-86h2q21 55 57 77.5t88 22.5h2v-174zM268 546h-174l-121 154h147l60 -74l62 74h147z" />
    <glyph glyph-name="Sacute" unicode="&#x15a;" horiz-adv-x="596" 
d="M561 656l-82 -169q-42 28 -88 42t-83 14q-22 0 -32.5 -6t-10.5 -20q0 -10 8 -18.5t29 -19.5l144 -74q63 -32 96.5 -77t33.5 -121q0 -108 -70.5 -165t-204.5 -57q-154 0 -296 79l87 182q62 -44 115 -65t104 -21q29 0 44 7t15 24q0 12 -8 20t-26 17l-153 77
q-61 31 -92.5 81.5t-31.5 116.5q0 97 67.5 154.5t195.5 57.5q118 0 239 -59zM380 743h-131l128 120h190z" />
    <glyph glyph-name="sacute" unicode="&#x15b;" horiz-adv-x="454" 
d="M118 -4q-60 11 -113 38l59 132q96 -52 173 -52q18 0 24.5 4t6.5 11q0 8 -6.5 12t-24.5 10l-70 23q-63 21 -95 55.5t-32 92.5q0 73 52.5 114t159.5 41q74 0 175 -23l-40 -137q-39 16 -80 25t-69 9t-28 -13q0 -6 4.5 -10t18.5 -8l83 -27q64 -21 96 -53.5t32 -94.5
q0 -82 -56 -121t-157 -39q-53 0 -113 11zM501 707l-188 -154h-145l129 154h204z" />
    <glyph glyph-name="Scircumflex" unicode="&#x15c;" horiz-adv-x="596" 
d="M561 656l-82 -169q-42 28 -88 42t-83 14q-22 0 -32.5 -6t-10.5 -20q0 -10 8 -18.5t29 -19.5l144 -74q63 -32 96.5 -77t33.5 -121q0 -108 -70.5 -165t-204.5 -57q-154 0 -296 79l87 182q62 -44 115 -65t104 -21q29 0 44 7t15 24q0 12 -8 20t-26 17l-153 77
q-61 31 -92.5 81.5t-31.5 116.5q0 97 67.5 154.5t195.5 57.5q118 0 239 -59zM525 743h-150l-58 63l-57 -63h-150l120 120h175z" />
    <glyph glyph-name="scircumflex" unicode="&#x15d;" horiz-adv-x="454" 
d="M118 -4q-60 11 -113 38l59 132q96 -52 173 -52q18 0 24.5 4t6.5 11q0 8 -6.5 12t-24.5 10l-70 23q-63 21 -95 55.5t-32 92.5q0 73 52.5 114t159.5 41q74 0 175 -23l-40 -137q-39 16 -80 25t-69 9t-28 -13q0 -6 4.5 -10t18.5 -8l83 -27q64 -21 96 -53.5t32 -94.5
q0 -82 -56 -121t-157 -39q-53 0 -113 11zM460 553h-147l-62 75l-60 -75h-147l121 154h174z" />
    <glyph glyph-name="Scedilla" unicode="&#x15e;" horiz-adv-x="596" 
d="M510.5 46.5q-65.5 -56.5 -190.5 -61.5l-9 -22q46 -6 69.5 -23.5t23.5 -44.5q0 -25 -20 -42t-51.5 -28.5t-93.5 -30.5l-22 -6l-19 43q46 19 62 29t16 19q0 12 -9.5 16.5t-36.5 9.5l33 81q-133 9 -258 78l87 182q62 -44 115 -65t104 -21q29 0 44 7t15 24q0 12 -8 20t-26 17
l-153 77q-61 31 -92.5 81.5t-31.5 116.5q0 97 67.5 154.5t195.5 57.5q118 0 239 -59l-82 -169q-42 28 -88 42t-83 14q-22 0 -32.5 -6t-10.5 -20q0 -10 8 -18.5t29 -19.5l144 -74q63 -32 96.5 -77t33.5 -121q0 -104 -65.5 -160.5z" />
    <glyph glyph-name="scedilla" unicode="&#x15f;" horiz-adv-x="454" 
d="M395 29q-49 -39 -139 -43l-10 -23q46 -6 69.5 -23.5t23.5 -44.5q0 -25 -20 -42t-51.5 -28.5t-93.5 -30.5l-22 -6l-19 43q46 19 62 29t16 19q0 12 -9.5 16.5t-36.5 9.5l33 81q-47 3 -97.5 14.5t-95.5 33.5l59 132q96 -52 173 -52q18 0 24.5 4t6.5 11q0 8 -6.5 12t-24.5 10
l-70 23q-63 21 -95 55.5t-32 92.5q0 73 52.5 114t159.5 41q74 0 175 -23l-40 -137q-39 16 -80 25t-69 9t-28 -13q0 -6 4.5 -10t18.5 -8l83 -27q64 -21 96 -53.5t32 -94.5q0 -77 -49 -116z" />
    <glyph glyph-name="Scaron" unicode="&#x160;" horiz-adv-x="596" 
d="M561 656l-82 -169q-42 28 -88 42t-83 14q-22 0 -32.5 -6t-10.5 -20q0 -10 8 -18.5t29 -19.5l144 -74q63 -32 96.5 -77t33.5 -121q0 -108 -70.5 -165t-204.5 -57q-154 0 -296 79l87 182q62 -44 115 -65t104 -21q29 0 44 7t15 24q0 12 -8 20t-26 17l-153 77
q-61 31 -92.5 81.5t-31.5 116.5q0 97 67.5 154.5t195.5 57.5q118 0 239 -59zM230 743l-120 120h150l57 -62l58 62h150l-120 -120h-175z" />
    <glyph glyph-name="scaron" unicode="&#x161;" horiz-adv-x="454" 
d="M118 -4q-60 11 -113 38l59 132q96 -52 173 -52q18 0 24.5 4t6.5 11q0 8 -6.5 12t-24.5 10l-70 23q-63 21 -95 55.5t-32 92.5q0 73 52.5 114t159.5 41q74 0 175 -23l-40 -137q-39 16 -80 25t-69 9t-28 -13q0 -6 4.5 -10t18.5 -8l83 -27q64 -21 96 -53.5t32 -94.5
q0 -82 -56 -121t-157 -39q-53 0 -113 11zM339 546h-174l-121 154h147l60 -74l62 74h147z" />
    <glyph glyph-name="uni0162" unicode="&#x162;" horiz-adv-x="550" 
d="M296 0l-16 -37q46 -6 69.5 -23.5t23.5 -44.5q0 -25 -20 -42t-51.5 -28.5t-93.5 -30.5l-22 -6l-19 43q46 19 62 29t16 19q0 12 -9.5 16.5t-36.5 9.5l39 95h-58v526h-175v174h540v-174h-175v-526h-74z" />
    <glyph glyph-name="uni0163" unicode="&#x163;" horiz-adv-x="386" 
d="M283 310v-75q0 -37 10 -50t39 -13h16v-172h-68l-16 -37q46 -6 69.5 -23.5t23.5 -44.5q0 -25 -20 -42t-51.5 -28.5t-93.5 -30.5l-22 -6l-19 43q46 19 62 29t16 19q0 12 -9.5 16.5t-36.5 9.5l40 99q-125 25 -125 177v129h-93v152h93v185h185v-185h98v-152h-98z" />
    <glyph glyph-name="Tcaron" unicode="&#x164;" horiz-adv-x="550" 
d="M545 526h-175v-526h-190v526h-175v174h540v-174zM187 743l-120 120h150l57 -62l58 62h150l-120 -120h-175z" />
    <glyph glyph-name="tcaron" unicode="&#x165;" horiz-adv-x="515" 
d="M505 715v-161l-85 -62h-67l45 62h-55v161h162zM283 462h98v-152h-98v-75q0 -37 10 -50t39 -13h16v-172h-75q-175 0 -175 181v129h-93v152h93v185h185v-185z" />
    <glyph glyph-name="Tbar" unicode="&#x166;" horiz-adv-x="550" 
d="M370 526v-64h95v-130h-95v-332h-190v332h-95v130h95v64h-175v174h540v-174h-175z" />
    <glyph glyph-name="tbar" unicode="&#x167;" horiz-adv-x="418" 
d="M283 310v-30h87v-58h-87q1 -29 12 -39.5t37 -10.5h16v-172h-75q-175 0 -175 181v41h-81v58h81v30h-93v152h93v185h185v-185h98v-152h-98z" />
    <glyph glyph-name="Utilde" unicode="&#x168;" horiz-adv-x="716" 
d="M590 68q-76 -80 -232 -80t-232 80t-76 223v409h203v-404q0 -54 24.5 -86t80.5 -32t80.5 32t24.5 86v404h203v-409q0 -143 -76 -223zM152 750q20 65 47.5 96t76.5 31q22 0 54 -6t61 -12q6 -1 31.5 -6.5t38.5 -5.5q17 0 28 8.5t25 25.5l54 -18q-19 -65 -46.5 -96t-77.5 -31
q-22 0 -54 6t-61 12q-6 1 -31.5 6.5t-38.5 5.5q-17 0 -28 -9t-25 -26z" />
    <glyph glyph-name="utilde" unicode="&#x169;" horiz-adv-x="586" 
d="M89 31.5q-49 46.5 -49 133.5v297h190v-242q0 -39 17 -58t45 -19q69 0 69 101v218h185v-462h-179v71h-2q-31 -44 -66.5 -65t-82.5 -21q-78 0 -127 46.5zM253 702.5q26 -6.5 60 -18.5q19 -7 37 -12t29 -5q19 0 32 12.5t23 33.5l66 -24q-20 -73 -47.5 -110t-77.5 -37
q-37 0 -108 25q-51 17 -67 17q-31 0 -54 -46l-67 24q20 73 48 110t77 37q23 0 49 -6.5z" />
    <glyph glyph-name="Umacron" unicode="&#x16a;" horiz-adv-x="716" 
d="M590 68q-76 -80 -232 -80t-232 80t-76 223v409h203v-404q0 -54 24.5 -86t80.5 -32t80.5 32t24.5 86v404h203v-409q0 -143 -76 -223zM530 742h-345v109h345v-109z" />
    <glyph glyph-name="umacron" unicode="&#x16b;" horiz-adv-x="586" 
d="M89 31.5q-49 46.5 -49 133.5v297h190v-242q0 -39 17 -58t45 -19q69 0 69 101v218h185v-462h-179v71h-2q-31 -44 -66.5 -65t-82.5 -21q-78 0 -127 46.5zM459 564h-332v116h332v-116z" />
    <glyph glyph-name="Ubreve" unicode="&#x16c;" horiz-adv-x="716" 
d="M590 68q-76 -80 -232 -80t-232 80t-76 223v409h203v-404q0 -54 24.5 -86t80.5 -32t80.5 32t24.5 86v404h203v-409q0 -143 -76 -223zM484 765q-48 -36 -126 -36q-79 0 -127 36t-56 99h122q2 -18 18 -28.5t43 -10.5t43 10.5t18 28.5h121q-8 -63 -56 -99z" />
    <glyph glyph-name="ubreve" unicode="&#x16d;" horiz-adv-x="586" 
d="M89 31.5q-49 46.5 -49 133.5v297h190v-242q0 -39 17 -58t45 -19q69 0 69 101v218h185v-462h-179v71h-2q-31 -44 -66.5 -65t-82.5 -21q-78 0 -127 46.5zM451 609.5q-24 -40.5 -65.5 -63t-92.5 -22.5t-93 23t-66 63t-24 90h113q5 -69 70 -69t70 69h112q0 -50 -24 -90.5z
" />
    <glyph glyph-name="Uring" unicode="&#x16e;" horiz-adv-x="716" 
d="M666 700v-409q0 -143 -76 -223t-232 -80t-232 80t-76 223v409h197q-9 21 -9 47q0 51 33.5 84t86.5 33t86.5 -33t33.5 -84q0 -26 -9 -47h197zM323 779.5q-13 -13.5 -13 -32.5q0 -20 13 -33.5t35 -13.5q21 0 34 14t13 33t-13 32.5t-34 13.5q-22 0 -35 -13.5zM438.5 210
q24.5 32 24.5 86v391q-15 -27 -42.5 -42t-62.5 -15t-62.5 15t-42.5 42v-391q0 -54 24.5 -86t80.5 -32t80.5 32z" />
    <glyph glyph-name="uring" unicode="&#x16f;" horiz-adv-x="586" 
d="M89 31.5q-49 46.5 -49 133.5v297h190v-242q0 -39 17 -58t45 -19q69 0 69 101v218h185v-462h-179v71h-2q-31 -44 -66.5 -65t-82.5 -21q-78 0 -127 46.5zM375 714q33 -33 33 -84t-33 -84t-84 -33t-84 33t-33 84t33 84t84 33t84 -33zM258.5 663q-12.5 -14 -12.5 -33
t12.5 -32.5t32.5 -13.5q19 0 31.5 13.5t12.5 32.5t-12.5 33t-31.5 14q-20 0 -32.5 -14z" />
    <glyph glyph-name="Uhungarumlaut" unicode="&#x170;" horiz-adv-x="716" 
d="M590 68q-76 -80 -232 -80t-232 80t-76 223v409h203v-404q0 -54 24.5 -86t80.5 -32t80.5 32t24.5 86v404h203v-409q0 -143 -76 -223zM361 743h-125l112 120h133zM546 743h-125l112 120h133z" />
    <glyph glyph-name="uhungarumlaut" unicode="&#x171;" horiz-adv-x="586" 
d="M89 31.5q-49 46.5 -49 133.5v297h190v-242q0 -39 17 -58t45 -19q69 0 69 101v218h185v-462h-179v71h-2q-31 -44 -66.5 -65t-82.5 -21q-78 0 -127 46.5zM256 553h-133l142 154h150zM456 553h-133l142 154h150z" />
    <glyph glyph-name="Uogonek" unicode="&#x172;" horiz-adv-x="716" 
d="M666 700v-409q0 -106 -41.5 -178t-126.5 -103q-46 -40 -68 -64t-22 -39q0 -9 7.5 -14.5t17.5 -5.5q14 0 37 5l14 -114q-13 -1 -22 -2t-15 -2q-22 -3 -35 -3q-61 0 -94 22t-33 71q0 54 73 124q-156 0 -232 80t-76 223v409h203v-404q0 -54 24.5 -86t80.5 -32t80.5 32
t24.5 86v404h203z" />
    <glyph glyph-name="uogonek" unicode="&#x173;" horiz-adv-x="586" 
d="M419 -57.5q-19 -21.5 -19 -35.5q0 -9 7.5 -14.5t17.5 -5.5q14 0 37 5l14 -114q-13 -1 -22 -2t-15 -2q-23 -3 -35 -3q-61 0 -94 22t-33 71q0 60 90 140v67h-2q-31 -44 -66.5 -65t-82.5 -21q-78 0 -127 46.5t-49 133.5v297h190v-242q0 -39 17 -58t45 -19q69 0 69 101v218
h185v-462h-67q-41 -36 -60 -57.5z" />
    <glyph glyph-name="Wcircumflex" unicode="&#x174;" horiz-adv-x="1128" 
d="M871 0h-158l-148 403h-2l-148 -403h-158l-252 700h223l112 -383h2l142 383h160l142 -383h2l112 383h223zM771 743h-150l-58 63l-57 -63h-150l120 120h175z" />
    <glyph glyph-name="wcircumflex" unicode="&#x175;" horiz-adv-x="855" 
d="M855 462l-177 -462h-154l-96 229l-97 -229h-153l-178 462h178l81 -223l86 223h166l86 -223l80 223h178zM635 553h-147l-62 75l-60 -75h-147l121 154h174z" />
    <glyph glyph-name="Ycircumflex" unicode="&#x176;" horiz-adv-x="733" 
d="M462 236v-236h-191v234l-271 466h227l138 -281h3l138 281h227zM574 743h-150l-58 63l-57 -63h-150l120 120h175z" />
    <glyph glyph-name="ycircumflex" unicode="&#x177;" horiz-adv-x="593" 
d="M593 462l-318 -662h-185l121 249l-211 413h206l97 -224l109 224h181zM514 553h-147l-62 75l-60 -75h-147l121 154h174z" />
    <glyph glyph-name="Ydieresis" unicode="&#x178;" horiz-adv-x="733" 
d="M462 236v-236h-191v234l-271 466h227l138 -281h3l138 281h227zM332 743h-151v120h151v-120zM553 743h-151v120h151v-120z" />
    <glyph glyph-name="Zacute" unicode="&#x179;" horiz-adv-x="596" 
d="M576 174v-174h-556v174l303 352h-275v174h505v-174l-298 -352h321zM367 743h-131l128 120h190z" />
    <glyph glyph-name="zacute" unicode="&#x17a;" horiz-adv-x="462" 
d="M452 149v-149h-442v132l200 182h-180v148h409v-125h1l-206 -188h218zM479 707l-188 -154h-145l129 154h204z" />
    <glyph glyph-name="Zdotaccent" unicode="&#x17b;" horiz-adv-x="596" 
d="M576 174v-174h-556v174l303 352h-275v174h505v-174l-298 -352h321zM388 743h-166v143h166v-143z" />
    <glyph glyph-name="zdotaccent" unicode="&#x17c;" horiz-adv-x="462" 
d="M452 149v-149h-442v132l200 182h-180v148h409v-125h1l-206 -188h218zM325 527h-189v173h189v-173z" />
    <glyph glyph-name="Zcaron" unicode="&#x17d;" horiz-adv-x="596" 
d="M576 174v-174h-556v174l303 352h-275v174h505v-174l-298 -352h321zM217 743l-120 120h150l57 -62l58 62h150l-120 -120h-175z" />
    <glyph glyph-name="zcaron" unicode="&#x17e;" horiz-adv-x="462" 
d="M452 149v-149h-442v132l200 182h-180v148h409v-125h1l-206 -188h218zM317 546h-174l-121 154h147l60 -74l62 74h147z" />
    <glyph glyph-name="florin" unicode="&#x192;" horiz-adv-x="415" 
d="M303 501q-14 -13 -14 -36v-3h106v-30h-106v-392q0 -114 -53.5 -177t-146.5 -63h-69v162h42q28 0 45 17t17 51v402h-99v30h99v11q0 99 52.5 150.5t146.5 51.5h72v-161h-47q-31 0 -45 -13z" />
    <glyph glyph-name="AEacute" unicode="&#x1fc;" horiz-adv-x="1055" 
d="M1025 174v-174h-436v131h-271l-80 -131h-238l466 700h544v-174h-236v-83h205v-165h-205v-104h251zM589 281v292l-179 -292h179zM786 743h-131l128 120h190z" />
    <glyph glyph-name="aeacute" unicode="&#x1fd;" horiz-adv-x="827" 
d="M755.5 410q61.5 -66 61.5 -197v-25h-319q12 -33 40 -47t76 -14q53 0 117 26l49 -134q-81 -34 -175 -34q-68 0 -122 20t-83 67h-2q-64 -87 -199 -87q-92 0 -143 44t-51 121t47 120t128 43q49 0 88 -16t59 -42h2v14q0 39 -24 59.5t-79 20.5q-47 0 -128 -12l-20 125
q90 15 164 15q68 0 109.5 -17.5t61.5 -59.5h2q24 35 68 55.5t107 20.5q104 0 165.5 -66zM518.5 338q-21.5 -19 -23.5 -55h147q0 37 -20.5 55.5t-51.5 18.5q-30 0 -51.5 -19zM228 194q-16 -13 -16 -36t16 -35t43 -12t43.5 13.5t16.5 33.5q0 22 -16 35.5t-44 13.5
q-27 0 -43 -13zM661 707l-188 -154h-145l129 154h204z" />
    <glyph glyph-name="Oslashacute" unicode="&#x1fe;" horiz-adv-x="776" 
d="M729 507q32 -71 32 -157q0 -107 -49.5 -190.5t-134.5 -129t-189 -45.5q-112 0 -201 53l-40 -52l-49 36l39 51q-58 49 -90 120t-32 157q0 107 49.5 190.5t134.5 129t189 45.5q112 0 201 -53l40 52l49 -36l-39 -51q58 -49 90 -120zM257 229l213 278q-36 18 -82 18
q-76 0 -124.5 -47.5t-48.5 -127.5q0 -73 42 -121zM512.5 222.5q48.5 47.5 48.5 127.5q0 73 -42 121l-213 -278q36 -18 82 -18q76 0 124.5 47.5zM450 743h-131l128 120h190z" />
    <glyph glyph-name="oslashacute" unicode="&#x1ff;" horiz-adv-x="560" 
d="M524.5 335.5q20.5 -46.5 20.5 -104.5q0 -74 -33.5 -129.5t-93.5 -86t-138 -30.5q-92 0 -157 41l-35 -40l-27 23l33 38q-38 33 -58.5 79.5t-20.5 104.5q0 74 33.5 129.5t93.5 86t138 30.5q92 0 157 -41l36 41l27 -24l-34 -38q38 -33 58.5 -79.5zM208 176l115 131
q-18 9 -43 9q-39 0 -64.5 -23t-25.5 -62q0 -32 18 -55zM344.5 169q25.5 23 25.5 62q0 31 -18 54l-115 -130q19 -9 43 -9q39 0 64.5 23zM528 707l-188 -154h-145l129 154h204z" />
    <glyph glyph-name="Scommaaccent" unicode="&#x218;" horiz-adv-x="596" 
d="M561 656l-82 -169q-42 28 -88 42t-83 14q-22 0 -32.5 -6t-10.5 -20q0 -10 8 -18.5t29 -19.5l144 -74q63 -32 96.5 -77t33.5 -121q0 -108 -70.5 -165t-204.5 -57q-154 0 -296 79l87 182q62 -44 115 -65t104 -21q29 0 44 7t15 24q0 12 -8 20t-26 17l-153 77
q-61 31 -92.5 81.5t-31.5 116.5q0 97 67.5 154.5t195.5 57.5q118 0 239 -59zM386 -47v-103l-65 -60h-63l28 60h-60v103h160z" />
    <glyph glyph-name="scommaaccent" unicode="&#x219;" horiz-adv-x="454" 
d="M118 -4q-60 11 -113 38l59 132q96 -52 173 -52q18 0 24.5 4t6.5 11q0 8 -6.5 12t-24.5 10l-70 23q-63 21 -95 55.5t-32 92.5q0 73 52.5 114t159.5 41q74 0 175 -23l-40 -137q-39 16 -80 25t-69 9t-28 -13q0 -6 4.5 -10t18.5 -8l83 -27q64 -21 96 -53.5t32 -94.5
q0 -82 -56 -121t-157 -39q-53 0 -113 11zM321 -47v-103l-65 -60h-63l28 60h-60v103h160z" />
    <glyph glyph-name="uni021A" unicode="&#x21a;" horiz-adv-x="550" 
d="M545 526h-175v-526h-190v526h-175v174h540v-174zM355 -47v-103l-65 -60h-63l28 60h-60v103h160z" />
    <glyph glyph-name="uni021B" unicode="&#x21b;" horiz-adv-x="386" 
d="M283 310v-75q0 -37 10 -50t39 -13h16v-172h-75q-175 0 -175 181v129h-93v152h93v185h185v-185h98v-152h-98zM339 -47v-103l-65 -60h-63l28 60h-60v103h160z" />
    <glyph glyph-name="uni0237" unicode="&#x237;" horiz-adv-x="265" 
d="M-19 -31q29 0 44 18.5t15 54.5v420h185v-411q0 -130 -52.5 -192t-162.5 -62h-50v172h21z" />
    <glyph glyph-name="uni02BC" unicode="&#x2bc;" horiz-adv-x="207" 
d="M182 715v-161l-85 -162h-67l51 162h-61v161h162z" />
    <glyph glyph-name="circumflex" unicode="&#x2c6;" horiz-adv-x="516" 
d="M466 553h-147l-62 75l-60 -75h-147l121 154h174z" />
    <glyph glyph-name="caron" unicode="&#x2c7;" horiz-adv-x="516" 
d="M345 546h-174l-121 154h147l60 -74l62 74h147z" />
    <glyph glyph-name="breve" unicode="&#x2d8;" horiz-adv-x="465" 
d="M391 609.5q-24 -40.5 -65.5 -63t-92.5 -22.5t-93 23t-66 63t-24 90h113q5 -69 70 -69t70 69h112q0 -50 -24 -90.5z" />
    <glyph glyph-name="dotaccent" unicode="&#x2d9;" horiz-adv-x="289" 
d="M239 527h-189v173h189v-173z" />
    <glyph glyph-name="ring" unicode="&#x2da;" horiz-adv-x="334" 
d="M251 714q33 -33 33 -84t-33 -84t-84 -33t-84 33t-33 84t33 84t84 33t84 -33zM134.5 663q-12.5 -14 -12.5 -33t12.5 -32.5t32.5 -13.5q19 0 31.5 13.5t12.5 32.5t-12.5 33t-31.5 14q-20 0 -32.5 -14z" />
    <glyph glyph-name="ogonek" unicode="&#x2db;" horiz-adv-x="313" 
d="M263 10q-46 -40 -68 -64t-22 -39q0 -9 7.5 -14.5t17.5 -5.5q14 0 37 5l14 -114q-13 -1 -22 -2t-15 -2q-23 -3 -35 -3q-61 0 -94 22t-33 71q0 69 114 160z" />
    <glyph glyph-name="tilde" unicode="&#x2dc;" horiz-adv-x="521" 
d="M224 702.5q26 -6.5 60 -18.5q19 -7 37 -12t29 -5q19 0 32 12.5t23 33.5l66 -24q-20 -73 -47.5 -110t-77.5 -37q-37 0 -108 25q-51 17 -67 17q-31 0 -54 -46l-67 24q20 73 48 110t77 37q23 0 49 -6.5z" />
    <glyph glyph-name="hungarumlaut" unicode="&#x2dd;" horiz-adv-x="582" 
d="M183 553h-133l142 154h150zM383 553h-133l142 154h150z" />
    <glyph glyph-name="gravecomb" unicode="&#x300;" horiz-adv-x="0" 
d="M-50 553h-145l-188 154h204z" />
    <glyph glyph-name="acutecomb" unicode="&#x301;" horiz-adv-x="0" 
d="M-50 707l-188 -154h-145l129 154h204z" />
    <glyph glyph-name="uni0302" unicode="&#x302;" horiz-adv-x="0" 
d="M-50 553h-147l-62 75l-60 -75h-147l121 154h174z" />
    <glyph glyph-name="tildecomb" unicode="&#x303;" horiz-adv-x="0" 
d="M-297 702.5q26 -6.5 60 -18.5q19 -7 37 -12t29 -5q19 0 32 12.5t23 33.5l66 -24q-20 -73 -47.5 -110t-77.5 -37q-37 0 -108 25q-51 17 -67 17q-31 0 -54 -46l-67 24q20 73 48 110t77 37q23 0 49 -6.5z" />
    <glyph glyph-name="uni0304" unicode="&#x304;" horiz-adv-x="0" 
d="M-50 564h-332v116h332v-116z" />
    <glyph glyph-name="uni0306" unicode="&#x306;" horiz-adv-x="0" 
d="M-74 609.5q-24 -40.5 -65.5 -63t-92.5 -22.5t-93 23t-66 63t-24 90h113q5 -69 70 -69t70 69h112q0 -50 -24 -90.5z" />
    <glyph glyph-name="uni0307" unicode="&#x307;" horiz-adv-x="0" 
d="M-50 527h-189v173h189v-173z" />
    <glyph glyph-name="uni0308" unicode="&#x308;" horiz-adv-x="0" 
d="M-239 545h-139v145h139v-145zM-50 545h-139v145h139v-145z" />
    <glyph glyph-name="uni030A" unicode="&#x30a;" horiz-adv-x="0" 
d="M-83 714q33 -33 33 -84t-33 -84t-84 -33t-84 33t-33 84t33 84t84 33t84 -33zM-199.5 663q-12.5 -14 -12.5 -33t12.5 -32.5t32.5 -13.5q19 0 31.5 13.5t12.5 32.5t-12.5 33t-31.5 14q-20 0 -32.5 -14z" />
    <glyph glyph-name="uni030B" unicode="&#x30b;" horiz-adv-x="0" 
d="M-409 553h-133l142 154h150zM-209 553h-133l142 154h150z" />
    <glyph glyph-name="uni030C" unicode="&#x30c;" horiz-adv-x="0" 
d="M-171 546h-174l-121 154h147l60 -74l62 74h147z" />
    <glyph glyph-name="uni0312" unicode="&#x312;" horiz-adv-x="0" 
d="M-50 643v-103h-160v103l65 60h63l-28 -60h60z" />
    <glyph glyph-name="uni0326" unicode="&#x326;" horiz-adv-x="0" 
d="M-50 -47v-103l-65 -60h-63l28 60h-60v103h160z" />
    <glyph glyph-name="uni0327" unicode="&#x327;" horiz-adv-x="0" 
d="M-143 -37q46 -6 69.5 -23.5t23.5 -44.5q0 -25 -20 -42t-51.5 -28.5t-93.5 -30.5l-22 -6l-19 43q46 19 62 29t16 19q0 12 -9.5 16.5t-36.5 9.5l56 138h59z" />
    <glyph glyph-name="uni0328" unicode="&#x328;" horiz-adv-x="0" 
d="M-50 10q-46 -40 -68 -64t-22 -39q0 -9 7.5 -14.5t17.5 -5.5q14 0 37 5l14 -114q-13 -1 -22 -2t-15 -2q-23 -3 -35 -3q-61 0 -94 22t-33 71q0 69 114 160z" />
    <glyph glyph-name="uni0394" unicode="&#x394;" horiz-adv-x="628" 
d="M608 0h-588l249 700h90zM231 135h166l-83 279z" />
    <glyph glyph-name="uni03A9" unicode="&#x3a9;" horiz-adv-x="730" 
d="M544.5 676q77.5 -39 119 -108.5t41.5 -157.5q0 -70 -26 -124t-69.5 -86.5t-95.5 -41.5v-3h185v-155h-294v265q53 9 85.5 45.5t32.5 89.5q0 61 -42.5 99.5t-115.5 38.5q-72 0 -114.5 -38.5t-42.5 -99.5q0 -53 32 -89.5t85 -45.5v-265h-293v155h184v3q-54 10 -97.5 43.5
t-68.5 87t-25 121.5q0 88 41.5 157.5t119 108.5t179.5 39t179.5 -39z" />
    <glyph glyph-name="uni03BC" unicode="&#x3bc;" horiz-adv-x="586" 
d="M546 462v-462h-179v71h-2q-31 -44 -66.5 -65t-82.5 -21h-4v-185h-172v662h190v-242q0 -39 17 -58t45 -19q69 0 69 101v218h185z" />
    <glyph glyph-name="pi" unicode="&#x3c0;" horiz-adv-x="663" 
d="M633 323h-81v-323h-163v323h-76l-69 -323h-166l68 321q-60 -3 -116 -18v154q30 10 69 15t99 5h435v-154z" />
    <glyph glyph-name="uni0E3F" unicode="&#xe3f;" horiz-adv-x="558" 
d="M488.5 282q29.5 -39 29.5 -104q0 -90 -56 -134t-146 -44h-22v-87h-28v87h-226v675h226v87h28v-87h22q90 0 146 -44t56 -134q0 -65 -29.5 -104t-82.5 -54v-3q53 -15 82.5 -54zM205 532v-136h61v136h-61zM344.5 415.5q19.5 17.5 19.5 51.5q0 62 -70 65v-136q31 2 50.5 19.5
zM266 143v136h-61v-136h61zM345 161.5q19 16.5 19 48.5q0 66 -70 69v-136q32 2 51 18.5z" />
    <glyph glyph-name="Wgrave" unicode="&#x1e80;" horiz-adv-x="1128" 
d="M871 0h-158l-148 403h-2l-148 -403h-158l-252 700h223l112 -383h2l142 383h160l142 -383h2l112 383h223zM633 743h-131l-187 120h190z" />
    <glyph glyph-name="wgrave" unicode="&#x1e81;" horiz-adv-x="855" 
d="M855 462l-177 -462h-154l-96 229l-97 -229h-153l-178 462h178l81 -223l86 223h166l86 -223l80 223h178zM512 553h-145l-188 154h204z" />
    <glyph glyph-name="Wacute" unicode="&#x1e82;" horiz-adv-x="1128" 
d="M871 0h-158l-148 403h-2l-148 -403h-158l-252 700h223l112 -383h2l142 383h160l142 -383h2l112 383h223zM626 743h-131l128 120h190z" />
    <glyph glyph-name="wacute" unicode="&#x1e83;" horiz-adv-x="855" 
d="M855 462l-177 -462h-154l-96 229l-97 -229h-153l-178 462h178l81 -223l86 223h166l86 -223l80 223h178zM676 707l-188 -154h-145l129 154h204z" />
    <glyph glyph-name="Wdieresis" unicode="&#x1e84;" horiz-adv-x="1128" 
d="M871 0h-158l-148 403h-2l-148 -403h-158l-252 700h223l112 -383h2l142 383h160l142 -383h2l112 383h223zM529 743h-151v120h151v-120zM750 743h-151v120h151v-120z" />
    <glyph glyph-name="wdieresis" unicode="&#x1e85;" horiz-adv-x="855" 
d="M855 462l-177 -462h-154l-96 229l-97 -229h-153l-178 462h178l81 -223l86 223h166l86 -223l80 223h178zM403 545h-139v145h139v-145zM592 545h-139v145h139v-145z" />
    <glyph glyph-name="Ygrave" unicode="&#x1ef2;" horiz-adv-x="733" 
d="M462 236v-236h-191v234l-271 466h227l138 -281h3l138 281h227zM436 743h-131l-187 120h190z" />
    <glyph glyph-name="ygrave" unicode="&#x1ef3;" horiz-adv-x="593" 
d="M593 462l-318 -662h-185l121 249l-211 413h206l97 -224l109 224h181zM391 553h-145l-188 154h204z" />
    <glyph glyph-name="endash" unicode="&#x2013;" horiz-adv-x="732" 
d="M692 202h-652v140h652v-140z" />
    <glyph glyph-name="emdash" unicode="&#x2014;" horiz-adv-x="1154" 
d="M1104 208h-1054v134h1054v-134z" />
    <glyph glyph-name="quoteleft" unicode="&#x2018;" horiz-adv-x="207" 
d="M187 623v-161h-162v161l85 162h67l-51 -162h61z" />
    <glyph glyph-name="quoteright" unicode="&#x2019;" horiz-adv-x="207" 
d="M182 715v-161l-85 -162h-67l51 162h-61v161h162z" />
    <glyph glyph-name="quotesinglbase" unicode="&#x201a;" horiz-adv-x="207" 
d="M182 161v-161l-85 -162h-67l51 162h-61v161h162z" />
    <glyph glyph-name="quotedblleft" unicode="&#x201c;" horiz-adv-x="411" 
d="M126 623h61v-161h-162v161l85 162h67zM391 623v-161h-162v161l85 162h67l-51 -162h61z" />
    <glyph glyph-name="quotedblright" unicode="&#x201d;" horiz-adv-x="411" 
d="M386 715v-161l-85 -162h-67l51 162h-61v161h162zM182 715v-161l-85 -162h-67l51 162h-61v161h162z" />
    <glyph glyph-name="quotedblbase" unicode="&#x201e;" horiz-adv-x="411" 
d="M386 161v-161l-85 -162h-67l51 162h-61v161h162zM182 161v-161l-85 -162h-67l51 162h-61v161h162z" />
    <glyph glyph-name="dagger" unicode="&#x2020;" horiz-adv-x="570" 
d="M520 349h-160v-442h-150v442h-160v140h160v211h150v-211h160v-140z" />
    <glyph glyph-name="daggerdbl" unicode="&#x2021;" horiz-adv-x="570" 
d="M360 398v-168h160v-140h-160v-183h-150v183h-160v140h160v168h-160v140h160v162h150v-162h160v-140h-160z" />
    <glyph glyph-name="bullet" unicode="&#x2022;" horiz-adv-x="414" 
d="M309 467q40 -40 40 -102q0 -61 -40 -101.5t-102 -40.5q-61 0 -101.5 40.5t-40.5 101.5q0 62 40.5 102t101.5 40q62 0 102 -40z" />
    <glyph glyph-name="ellipsis" unicode="&#x2026;" horiz-adv-x="810" 
d="M221 0h-186v188h186v-188zM775 0h-186v188h186v-188zM498 0h-186v188h186v-188z" />
    <glyph glyph-name="perthousand" unicode="&#x2030;" horiz-adv-x="1183" 
d="M341 644.5q47 -45.5 47 -119.5t-47 -119.5t-122 -45.5t-122 45.5t-47 119.5t47 119.5t122 45.5t122 -45.5zM556 675h90l-398 -675h-90zM163 581.5q-22 -21.5 -22 -56.5t22 -56.5t56 -21.5t56 21.5t22 56.5t-22 56.5t-56 21.5t-56 -21.5zM717 279.5q47 -45.5 47 -119.5
t-47 -119.5t-122 -45.5t-122 45.5t-47 119.5t47 119.5t122 45.5t122 -45.5zM1086 279.5q47 -45.5 47 -119.5t-47 -119.5t-122 -45.5t-122 45.5t-47 119.5t47 119.5t122 45.5t122 -45.5zM539 216.5q-22 -21.5 -22 -56.5t22 -56.5t56 -21.5t56 21.5t22 56.5t-22 56.5t-56 21.5
t-56 -21.5zM908 216.5q-22 -21.5 -22 -56.5t22 -56.5t56 -21.5t56 21.5t22 56.5t-22 56.5t-56 21.5t-56 -21.5z" />
    <glyph glyph-name="guilsinglleft" unicode="&#x2039;" horiz-adv-x="394" 
d="M210 240l174 -186h-195l-174 186l174 186h195z" />
    <glyph glyph-name="guilsinglright" unicode="&#x203a;" horiz-adv-x="394" 
d="M205 426l174 -186l-174 -186h-195l174 186l-174 186h195z" />
    <glyph glyph-name="fraction" unicode="&#x2044;" horiz-adv-x="148" 
d="M228 675h90l-398 -675h-90z" />
    <glyph glyph-name="uni2070" unicode="&#x2070;" horiz-adv-x="450" 
d="M82 399.5q-52 61.5 -52 171.5t52 171.5t143 61.5t143 -61.5t52 -171.5t-52 -171.5t-143 -61.5t-143 61.5zM262.5 502.5q12.5 25.5 12.5 68.5q0 44 -12.5 69t-37.5 25t-37.5 -25t-12.5 -69q0 -43 12.5 -68.5t37.5 -25.5t37.5 25.5z" />
    <glyph glyph-name="uni2074" unicode="&#x2074;" horiz-adv-x="413" 
d="M398 410h-47v-62h-134v62h-207v109l209 275h132v-262h47v-122zM217 532v105h-3l-79 -105h82z" />
    <glyph glyph-name="uni2075" unicode="&#x2075;" horiz-adv-x="386" 
d="M20 369l52 129q19 -10 45 -17t51 -7q53 0 53 35q0 16 -8.5 24t-23.5 8q-25 0 -35 -18h-115l22 271h263v-129h-166l-3 -45h2q11 7 29.5 11.5t39.5 4.5q59 0 97 -38t38 -106q0 -72 -46 -113t-138 -41q-88 0 -157 31z" />
    <glyph glyph-name="uni2076" unicode="&#x2076;" horiz-adv-x="408" 
d="M75.5 386q-50.5 48 -50.5 133q0 58 22.5 108t70.5 107l58 68h174l-166 -173l2 -1q19 16 35.5 23t37.5 7q58 0 96 -42t38 -110q0 -71 -44.5 -119.5t-135.5 -48.5q-87 0 -137.5 48zM235.5 476q10.5 11 10.5 27q0 17 -10.5 27.5t-27.5 10.5q-16 0 -27 -10.5t-11 -27.5
q0 -16 11 -27t27 -11q17 0 27.5 11z" />
    <glyph glyph-name="uni2077" unicode="&#x2077;" horiz-adv-x="339" 
d="M178 652h-173v142h329v-130l-169 -316h-157z" />
    <glyph glyph-name="uni2078" unicode="&#x2078;" horiz-adv-x="404" 
d="M66 374q-46 36 -46 100q0 48 25 74.5t64 33.5v2q-37 6 -56 33t-19 63q0 56 44.5 89.5t123.5 33.5t123.5 -33.5t44.5 -89.5q0 -36 -19 -63t-56 -33v-2q39 -7 64 -33.5t25 -74.5q0 -64 -46 -100t-136 -36t-136 36zM225 643.5q9 8.5 9 20.5t-9 20.5t-23 8.5t-23 -8.5
t-9 -20.5t9 -20.5t23 -8.5t23 8.5zM229 468q10 9 10 25t-10 25t-27 9t-27 -9t-10 -25t10 -25t27 -9t27 9z" />
    <glyph glyph-name="uni2079" unicode="&#x2079;" horiz-adv-x="394" 
d="M231 516l-1 1q-37 -29 -88 -29q-34 0 -63 19.5t-46.5 54t-17.5 77.5q0 72 48.5 118t133.5 46q84 0 133 -47.5t49 -139.5q0 -127 -103 -220l-53 -48h-172zM225.5 613q10.5 11 10.5 27q0 17 -10.5 27.5t-27.5 10.5q-16 0 -27 -10.5t-11 -27.5q0 -16 11 -27t27 -11
q17 0 27.5 11z" />
    <glyph glyph-name="uni2080" unicode="&#x2080;" horiz-adv-x="450" 
d="M82 -58.5q-52 61.5 -52 171.5t52 171.5t143 61.5t143 -61.5t52 -171.5t-52 -171.5t-143 -61.5t-143 61.5zM262.5 44.5q12.5 25.5 12.5 68.5q0 44 -12.5 69t-37.5 25t-37.5 -25t-12.5 -69q0 -43 12.5 -68.5t37.5 -25.5t37.5 25.5z" />
    <glyph glyph-name="uni2081" unicode="&#x2081;" horiz-adv-x="260" 
d="M56 193h-11v143h160v-446h-149v303z" />
    <glyph glyph-name="uni2082" unicode="&#x2082;" horiz-adv-x="416" 
d="M41 6l140 120q30 26 42.5 41t12.5 30q0 13 -7.5 20.5t-22.5 7.5q-17 0 -26.5 -10t-10.5 -29h-144q0 73 45 116t141 43q84 0 129 -34.5t45 -97.5q0 -47 -24 -80.5t-72 -70.5l-51 -39h148v-133h-345v116z" />
    <glyph glyph-name="uni2083" unicode="&#x2083;" horiz-adv-x="403" 
d="M21 39h140q1 -15 12 -23.5t31 -8.5q38 0 38 31q0 17 -15.5 23t-54.5 6v92q59 0 59 32q0 31 -32 31q-36 0 -39 -28h-140q0 69 48 110t134 41q79 0 122.5 -32t43.5 -92q0 -37 -19.5 -64.5t-60.5 -33.5v-2q46 -4 70.5 -32.5t24.5 -72.5q0 -64 -45.5 -100t-133.5 -36
q-182 0 -183 159z" />
    <glyph glyph-name="uni2084" unicode="&#x2084;" horiz-adv-x="413" 
d="M398 -48h-47v-62h-134v62h-207v109l209 275h132v-262h47v-122zM217 74v105h-3l-79 -105h82z" />
    <glyph glyph-name="uni2085" unicode="&#x2085;" horiz-adv-x="386" 
d="M20 -89l52 129q19 -10 45 -17t51 -7q53 0 53 35q0 16 -8.5 24t-23.5 8q-25 0 -35 -18h-115l22 271h263v-129h-166l-3 -45h2q11 7 29.5 11.5t39.5 4.5q59 0 97 -38t38 -106q0 -72 -46 -113t-138 -41q-88 0 -157 31z" />
    <glyph glyph-name="uni2086" unicode="&#x2086;" horiz-adv-x="408" 
d="M75.5 -72q-50.5 48 -50.5 133q0 58 22.5 108t70.5 107l58 68h174l-166 -173l2 -1q19 16 35.5 23t37.5 7q58 0 96 -42t38 -110q0 -71 -44.5 -119.5t-135.5 -48.5q-87 0 -137.5 48zM235.5 18q10.5 11 10.5 27q0 17 -10.5 27.5t-27.5 10.5q-16 0 -27 -10.5t-11 -27.5
q0 -16 11 -27t27 -11q17 0 27.5 11z" />
    <glyph glyph-name="uni2087" unicode="&#x2087;" horiz-adv-x="339" 
d="M178 194h-173v142h329v-130l-169 -316h-157z" />
    <glyph glyph-name="uni2088" unicode="&#x2088;" horiz-adv-x="404" 
d="M66 -84q-46 36 -46 100q0 48 25 74.5t64 33.5v2q-37 6 -56 33t-19 63q0 56 44.5 89.5t123.5 33.5t123.5 -33.5t44.5 -89.5q0 -36 -19 -63t-56 -33v-2q39 -7 64 -33.5t25 -74.5q0 -64 -46 -100t-136 -36t-136 36zM225 185.5q9 8.5 9 20.5t-9 20.5t-23 8.5t-23 -8.5
t-9 -20.5t9 -20.5t23 -8.5t23 8.5zM229 10q10 9 10 25t-10 25t-27 9t-27 -9t-10 -25t10 -25t27 -9t27 9z" />
    <glyph glyph-name="uni2089" unicode="&#x2089;" horiz-adv-x="394" 
d="M231 58l-1 1q-37 -29 -88 -29q-34 0 -63 19.5t-46.5 54t-17.5 77.5q0 72 48.5 118t133.5 46q84 0 133 -47.5t49 -139.5q0 -127 -103 -220l-53 -48h-172zM225.5 155q10.5 11 10.5 27q0 17 -10.5 27.5t-27.5 10.5q-16 0 -27 -10.5t-11 -27.5q0 -16 11 -27t27 -11
q17 0 27.5 11z" />
    <glyph glyph-name="TRY" unicode="&#x20a4;" horiz-adv-x="624" 
d="M584 327q0 -102 -40 -176t-111.5 -112.5t-164.5 -38.5h-111v296l-117 -53v31l117 53v56l-117 -53v31l117 53v261h165v-186l156 71v-31l-156 -71v-56l156 71v-31l-156 -71v-188q45 0 76 40t31 104h155z" />
    <glyph glyph-name="uni20A9" unicode="&#x20a9;" horiz-adv-x="1097" 
d="M976 391l-18 -68h99v-30h-107l-79 -293h-203l-71 293h-97l-71 -293h-203l-79 293h-107v30h99l-18 68h-81v30h72l-68 254h195l55 -254h100l61 254h187l61 -254h100l55 254h195l-68 -254h72v-30h-81zM531 421h35l-16 67h-3zM316 323h55l16 68h-86zM590 323l-17 68h-49
l-17 -68h83zM796 391h-86l16 -68h55zM364 293h-42l19 -86h2zM775 293h-42l21 -86h2z" />
    <glyph glyph-name="Euro" unicode="&#x20ac;" horiz-adv-x="689" 
d="M334.5 186.5q42.5 -34.5 109.5 -34.5q48 0 88.5 13t80.5 35v-177q-36 -20 -76 -29.5t-94 -9.5q-103 0 -177.5 40.5t-117 108.5t-53.5 150h-90l15 30h72q-1 9 -1 27q0 21 1 32h-82l15 30h71q12 80 54.5 145t118.5 104t182 39q114 0 208 -47l-74 -151q-78 30 -135 30
q-70 0 -112.5 -31t-57.5 -89h260l-15 -30h-250q-2 -20 -2 -32q0 -18 1 -27h222l-15 -30h-202q13 -62 55.5 -96.5z" />
    <glyph glyph-name="uni20AE" unicode="&#x20ae;" horiz-adv-x="579" 
d="M372 520v-113l123 54v-31l-123 -54v-56l123 54v-31l-123 -54v-289h-165v217l-124 -54v31l124 54v56l-124 -54v31l124 54v185h-187v155h539v-155h-187z" />
    <glyph glyph-name="uni20B4" unicode="&#x20b4;" horiz-adv-x="593" 
d="M401 327h152v-30h-193l-62 -46q-22 -17 -31 -28t-9 -28q0 -20 16.5 -29.5t50.5 -9.5q43 0 89.5 12t107.5 38v-176q-50 -23 -101.5 -34t-110.5 -11q-126 0 -189 47.5t-63 137.5q0 74 45 127h-63v30h92q21 18 56 43l35 25h-183v30h225l25 18q5 3 19.5 14t20 20t5.5 20
q0 18 -14 26.5t-42 8.5q-40 0 -90.5 -11t-103.5 -32v163q113 38 222 38q112 0 164.5 -46t52.5 -122q0 -54 -26 -97h55v-30h-76q-25 -29 -76 -68z" />
    <glyph glyph-name="uni20B8" unicode="&#x20b8;" horiz-adv-x="579" 
d="M559 675v-155h-539v155h539zM20 468h539v-155h-187v-313h-165v313h-187v155z" />
    <glyph glyph-name="uni20B9" unicode="&#x20b9;" horiz-adv-x="559" 
d="M377.5 577q26.5 -43 30.5 -96h111l-22 -30h-88q-4 -79 -53 -131t-124 -63l234 -257h-204l-222 255v145h105q36 0 55 12t22 39h-182v30h182q-4 25 -23 37t-54 12h-105v145h479l-22 -30h-190q44 -25 70.5 -68z" />
    <glyph glyph-name="uni20BD" unicode="&#x20bd;" horiz-adv-x="646" 
d="M307 261v-51h174v-30h-174v-180h-165v180h-102v30h102v51h-102v145h102v269h232q121 0 181.5 -55t60.5 -152t-60.5 -152t-181.5 -55h-67zM307 406h58q38 0 57 14t19 48t-19 48t-57 14h-58v-124z" />
    <glyph glyph-name="uni2113" unicode="&#x2113;" horiz-adv-x="531" 
d="M277 167q19 -21 54 -21q20 0 44 6.5t68 21.5v-161q-43 -13 -72 -19t-65 -6q-96 0 -149 48.5t-70 155.5l-67 -15v171l60 11q8 178 73 254.5t173 76.5q90 0 137.5 -47t47.5 -132q0 -103 -67.5 -167.5t-192.5 -107.5q7 -48 26 -69zM248 398q51 18 79 44.5t28 64.5
q0 22 -9 32.5t-25 10.5q-62 0 -73 -152z" />
    <glyph glyph-name="uni2116" unicode="&#x2116;" horiz-adv-x="1260" 
d="M725 0h-148l-330 376h-2v-376h-190v700h148l330 -376h2v376h190v-700zM1118 579.5q48 -26.5 75 -73.5t27 -108t-27 -108.5t-75 -74t-109 -26.5t-109 26.5t-75.5 74t-27.5 108.5t27.5 108t75.5 73.5t109 26.5t109 -26.5zM966 441q-17 -17 -17 -43t17 -43t43 -17t43 17
t17 43t-17 43t-43 17t-43 -17zM1216 0h-415v144h415v-144z" />
    <glyph glyph-name="trademark" unicode="&#x2122;" horiz-adv-x="979" 
d="M280 565v-286h-142v286h-108v135h358v-135h-108zM949 279h-144l-50 188l-55 -139h-108l-55 139l-50 -188h-144l119 421h115l69 -209l69 209h115z" />
    <glyph glyph-name="estimated" unicode="&#x212e;" horiz-adv-x="733" 
d="M62 462.5q47 72.5 128 115t176 42.5q96 0 177 -42.5t128 -115t47 -158.5v-9h-574v-140q0 -33 13.5 -60.5t38.5 -43.5q68 -45 172 -45q73 0 138.5 27.5t109.5 77.5h29q-50 -58 -123.5 -90.5t-155.5 -32.5q-95 0 -176 42.5t-128 115t-47 158.5t47 158.5zM368 602
q-106 0 -172 -46q-52 -35 -52 -85v-158h445v152q0 53 -44 87q-65 50 -177 50z" />
    <glyph glyph-name="uni2153" unicode="&#x2153;" horiz-adv-x="730" 
d="M154 289h-97v286h-22v100h119v-386zM467 675h90l-398 -675h-90zM660 366q37 -29 37 -74q0 -31 -16.5 -56t-54.5 -34v-2q84 -10 84 -93q0 -48 -35.5 -82t-108.5 -34q-69 0 -108 35t-40 102h97q2 -23 15 -35t40 -12q44 0 44 43q0 26 -19.5 34.5t-63.5 8.5v65q36 1 50.5 11
t14.5 27t-10 26t-28 9q-19 0 -30.5 -10t-12.5 -30h-98q1 58 38.5 94t105.5 36q62 0 99 -29z" />
    <glyph glyph-name="uni2154" unicode="&#x2154;" horiz-adv-x="852" 
d="M275 654.5q36 -29.5 36 -79.5q0 -39 -19.5 -67t-61.5 -68l-58 -55h136v-96h-282v74l130 127q28 28 38.5 43.5t10.5 30.5t-9.5 22.5t-27.5 7.5q-22 0 -33.5 -11t-12.5 -31h-97q0 63 38 97.5t109 34.5q67 0 103 -29.5zM589 675h90l-398 -675h-90zM782 366q37 -29 37 -74
q0 -31 -16.5 -56t-54.5 -34v-2q84 -10 84 -93q0 -48 -35.5 -82t-108.5 -34q-69 0 -108 35t-40 102h97q2 -23 15 -35t40 -12q44 0 44 43q0 26 -19.5 34.5t-63.5 8.5v65q36 1 50.5 11t14.5 27t-10 26t-28 9q-19 0 -30.5 -10t-12.5 -30h-98q1 58 38.5 94t105.5 36q62 0 99 -29z
" />
    <glyph glyph-name="oneeighth" unicode="&#x215b;" horiz-adv-x="741" 
d="M154 289h-97v286h-22v100h119v-386zM467 675h90l-398 -675h-90zM447.5 22.5q-40.5 31.5 -40.5 79.5q0 43 24 69.5t61 33.5v2q-32 5 -52.5 28t-20.5 58q0 45 38.5 73.5t106.5 28.5t106.5 -28.5t38.5 -73.5q0 -34 -21 -57t-52 -29v-2q36 -7 60.5 -33.5t24.5 -69.5
q0 -48 -40.5 -79.5t-116.5 -31.5t-116.5 31.5zM596 260.5q12 8.5 12 24.5t-12 24.5t-32 8.5t-32 -8.5t-12 -24.5t12 -24.5t32 -8.5t32 8.5zM604.5 88q15.5 11 15.5 31t-15.5 31t-40.5 11t-40.5 -11t-15.5 -31t15.5 -31t40.5 -11t40.5 11z" />
    <glyph glyph-name="threeeighths" unicode="&#x215c;" horiz-adv-x="855" 
d="M273 655q37 -29 37 -74q0 -31 -16.5 -56t-54.5 -34v-2q84 -10 84 -93q0 -48 -35.5 -82t-108.5 -34q-69 0 -108 35t-40 102h97q2 -23 15 -35t40 -12q44 0 44 43q0 26 -19.5 34.5t-63.5 8.5v65q36 1 50.5 11t14.5 27t-10 26t-28 9q-19 0 -30.5 -10t-12.5 -30h-98
q1 58 38.5 94t105.5 36q62 0 99 -29zM581 675h90l-398 -675h-90zM561.5 22.5q-40.5 31.5 -40.5 79.5q0 43 24 69.5t61 33.5v2q-32 5 -52.5 28t-20.5 58q0 45 38.5 73.5t106.5 28.5t106.5 -28.5t38.5 -73.5q0 -34 -21 -57t-52 -29v-2q36 -7 60.5 -33.5t24.5 -69.5
q0 -48 -40.5 -79.5t-116.5 -31.5t-116.5 31.5zM710 260.5q12 8.5 12 24.5t-12 24.5t-32 8.5t-32 -8.5t-12 -24.5t12 -24.5t32 -8.5t32 8.5zM718.5 88q15.5 11 15.5 31t-15.5 31t-40.5 11t-40.5 -11t-15.5 -31t15.5 -31t40.5 -11t40.5 11z" />
    <glyph glyph-name="fiveeighths" unicode="&#x215d;" horiz-adv-x="860" 
d="M293.5 511q34.5 -33 34.5 -93q0 -61 -43 -99.5t-119 -38.5q-83 0 -141 42l45 80q17 -13 44 -22.5t52 -9.5q29 0 46 15t17 42q0 24 -14.5 36.5t-34.5 12.5q-16 0 -29 -8t-19 -21h-79l16 228h224v-94h-151l-5 -63h2q26 26 70 26q50 0 84.5 -33zM586 675h90l-398 -675h-90z
M566.5 22.5q-40.5 31.5 -40.5 79.5q0 43 24 69.5t61 33.5v2q-32 5 -52.5 28t-20.5 58q0 45 38.5 73.5t106.5 28.5t106.5 -28.5t38.5 -73.5q0 -34 -21 -57t-52 -29v-2q36 -7 60.5 -33.5t24.5 -69.5q0 -48 -40.5 -79.5t-116.5 -31.5t-116.5 31.5zM715 260.5q12 8.5 12 24.5
t-12 24.5t-32 8.5t-32 -8.5t-12 -24.5t12 -24.5t32 -8.5t32 8.5zM723.5 88q15.5 11 15.5 31t-15.5 31t-40.5 11t-40.5 -11t-15.5 -31t15.5 -31t40.5 -11t40.5 11z" />
    <glyph glyph-name="seveneighths" unicode="&#x215e;" horiz-adv-x="765" 
d="M288 587l-160 -298h-103l162 289h-177v97h278v-88zM491 675h90l-398 -675h-90zM471.5 22.5q-40.5 31.5 -40.5 79.5q0 43 24 69.5t61 33.5v2q-32 5 -52.5 28t-20.5 58q0 45 38.5 73.5t106.5 28.5t106.5 -28.5t38.5 -73.5q0 -34 -21 -57t-52 -29v-2q36 -7 60.5 -33.5
t24.5 -69.5q0 -48 -40.5 -79.5t-116.5 -31.5t-116.5 31.5zM620 260.5q12 8.5 12 24.5t-12 24.5t-32 8.5t-32 -8.5t-12 -24.5t12 -24.5t32 -8.5t32 8.5zM628.5 88q15.5 11 15.5 31t-15.5 31t-40.5 11t-40.5 -11t-15.5 -31t15.5 -31t40.5 -11t40.5 11z" />
    <glyph glyph-name="arrowleft" unicode="&#x2190;" horiz-adv-x="812" 
d="M762 216h-431l151 -146l-112 -115l-320 335l320 335l112 -115l-151 -146h431v-148z" />
    <glyph glyph-name="arrowup" unicode="&#x2191;" horiz-adv-x="770" 
d="M605 201l-146 151v-431h-148v431l-146 -151l-115 112l335 320l335 -320z" />
    <glyph glyph-name="arrowright" unicode="&#x2192;" horiz-adv-x="812" 
d="M762 291l-320 -335l-112 115l151 146h-431v148h431l-151 146l112 115z" />
    <glyph glyph-name="arrowdown" unicode="&#x2193;" horiz-adv-x="770" 
d="M720 268l-335 -320l-335 320l115 112l146 -151v431h148v-431l146 151z" />
    <glyph glyph-name="arrowboth" unicode="&#x2194;" horiz-adv-x="1241" 
d="M1191 290l-320 -335l-112 115l151 146h-579l151 -146l-112 -115l-320 335l320 335l112 -115l-151 -146h579l-151 146l112 115z" />
    <glyph glyph-name="arrowupdn" unicode="&#x2195;" horiz-adv-x="770" 
d="M605 207l115 -112l-335 -320l-335 320l115 112l146 -151v487l-146 -151l-115 112l335 320l335 -320l-115 -112l-146 151v-487z" />
    <glyph glyph-name="uni2196" unicode="&#x2196;" horiz-adv-x="666" 
d="M512 -23l-305 305l3 -210l-160 -2l11 463l463 11l-3 -161l-209 3l304 -304z" />
    <glyph glyph-name="uni2197" unicode="&#x2197;" horiz-adv-x="667" 
d="M456 72l3 209l-304 -304l-105 104l305 305l-210 -3l-2 160l463 -11l11 -463z" />
    <glyph glyph-name="uni2198" unicode="&#x2198;" horiz-adv-x="666" 
d="M616 510l-11 -463l-463 -11l3 161l209 -3l-304 304l104 105l305 -305l-3 210z" />
    <glyph glyph-name="uni2199" unicode="&#x2199;" horiz-adv-x="667" 
d="M522 197l2 -160l-463 11l-11 463l161 -3l-3 -209l304 304l105 -104l-305 -305z" />
    <glyph glyph-name="partialdiff" unicode="&#x2202;" 
d="M466.5 625q90.5 -90 90.5 -271q0 -104 -31.5 -187.5t-96 -132.5t-161.5 -49q-74 0 -130.5 29t-88 82.5t-31.5 125.5q0 70 29.5 122t80.5 79.5t115 27.5q85 0 150 -52q-12 71 -58.5 109.5t-117.5 38.5q-32 0 -66.5 -7.5t-59.5 -18.5l-47 160q33 15 82 24.5t101 9.5
q149 0 239.5 -90zM379 239q-52 48 -111 48q-37 0 -56 -17t-19 -45q0 -33 23.5 -51t58.5 -18q74 0 104 83z" />
    <glyph glyph-name="emptyset" unicode="&#x2205;" 
d="M523 409.5q16 -40.5 16 -86.5q0 -65 -31 -118t-86 -83.5t-122 -30.5q-90 0 -158 55l-56 -56l-19 20l55 55q-29 31 -45 71.5t-16 86.5q0 65 31 118t86 83.5t122 30.5q93 0 157 -55l56 56l20 -20l-55 -55q29 -31 45 -71.5zM234 277l112 112q-22 12 -46 12q-36 0 -57.5 -22
t-21.5 -56q0 -25 13 -46zM357.5 267q21.5 22 21.5 56q0 25 -13 46l-112 -111q21 -13 46 -13q36 0 57.5 22z" />
    <glyph glyph-name="product" unicode="&#x220f;" horiz-adv-x="740" 
d="M720 545h-105v-623h-163v623h-164v-623h-163v623h-105v155h700v-155z" />
    <glyph glyph-name="summation" unicode="&#x2211;" horiz-adv-x="549" 
d="M529 530h-292l205 -235l-205 -235h292v-170h-509v170l212 235l-212 235v170h509v-170z" />
    <glyph glyph-name="minus" unicode="&#x2212;" 
d="M538 258h-477v80h477v-80z" />
    <glyph glyph-name="radical" unicode="&#x221a;" horiz-adv-x="711" 
d="M691 715l-255 -715h-166l-132 304l-2 -3h-116v161h233l95 -239l171 492h172z" />
    <glyph glyph-name="infinity" unicode="&#x221e;" horiz-adv-x="760" 
d="M695.5 407.5q44.5 -42.5 44.5 -110.5t-44.5 -110.5t-118.5 -42.5q-59 0 -104.5 27.5t-92.5 77.5q-47 -50 -92.5 -77.5t-104.5 -27.5q-74 0 -118.5 42.5t-44.5 110.5t44.5 110.5t118.5 42.5q59 0 104.5 -27.5t92.5 -77.5q47 50 92.5 77.5t104.5 27.5q74 0 118.5 -42.5z
M112.5 360q-25.5 -25 -25.5 -63q0 -37 25.5 -62t69.5 -25q43 0 78.5 22.5t74.5 64.5q-40 43 -75.5 65.5t-77.5 22.5q-44 0 -69.5 -25zM499.5 362.5q-35.5 -22.5 -75.5 -65.5q39 -42 74.5 -64.5t78.5 -22.5q44 0 69.5 25t25.5 62q0 38 -25.5 63t-69.5 25q-42 0 -77.5 -22.5z
" />
    <glyph glyph-name="integral" unicode="&#x222b;" horiz-adv-x="475" 
d="M435 565q-66 0 -92 -24t-26 -83v-458q0 -105 -69 -160t-208 -55v150q64 1 89.5 24.5t25.5 82.5v458q0 106 67 160.5t213 54.5v-150z" />
    <glyph glyph-name="approxequal" unicode="&#x2248;" 
d="M241 486q30 -13 72 -39q39 -23 62 -34t48 -11q58 0 84 78h73q-21 -84 -64 -121t-93 -37q-33 0 -62.5 13t-73.5 39q-36 22 -60.5 33.5t-49.5 11.5q-58 0 -84 -78h-73q22 84 64.5 121t93.5 37q33 0 63 -13zM241 283q30 -13 72 -39q39 -23 62 -34t48 -11q30 0 50.5 19.5
t33.5 58.5h73q-21 -84 -64 -121t-93 -37q-33 0 -62.5 13t-73.5 39q-36 22 -60.5 33.5t-49.5 11.5q-58 0 -84 -78h-73q22 84 64.5 121t93.5 37q33 0 63 -13z" />
    <glyph glyph-name="notequal" unicode="&#x2260;" 
d="M387 375l-95 -151h261v-76h-308l-50 -80h-78l50 80h-120v76h167l95 151h-262v76h309l49 78h78l-49 -78h119v-76h-166z" />
    <glyph glyph-name="lessequal" unicode="&#x2264;" 
d="M541 407l-373 -73l373 -72v-83l-480 113v84l480 113v-82zM544 77h-488v75h488v-75z" />
    <glyph glyph-name="greaterequal" unicode="&#x2265;" 
d="M539 376v-84l-480 -113v83l373 72l-373 73v82zM544 152v-75h-488v75h488z" />
    <glyph glyph-name="uni2460" unicode="&#x2460;" horiz-adv-x="830" 
d="M226 32q-83 47 -129.5 130.5t-46.5 187.5t46.5 187.5t129.5 130.5t189 47t189 -47t129.5 -130.5t46.5 -187.5t-46.5 -187.5t-129.5 -130.5t-189 -47t-189 47zM550 114.5q59 34.5 92 96t33 139.5t-33 139.5t-92 96t-135 34.5t-135 -34.5t-92 -96t-33 -139.5t33 -139.5
t92 -96t135 -34.5t135 34.5zM377 444h-22v100h124v-386h-102v286z" />
    <glyph glyph-name="uni2461" unicode="&#x2461;" horiz-adv-x="830" 
d="M226 32q-83 47 -129.5 130.5t-46.5 187.5t46.5 187.5t129.5 130.5t189 47t189 -47t129.5 -130.5t46.5 -187.5t-46.5 -187.5t-129.5 -130.5t-189 -47t-189 47zM550 114.5q59 34.5 92 96t33 139.5t-33 139.5t-92 96t-135 34.5t-135 -34.5t-92 -96t-33 -139.5t33 -139.5
t92 -96t135 -34.5t135 34.5zM278 246l130 127q28 28 38.5 43.5t10.5 30.5t-9.5 22.5t-27.5 7.5q-21 0 -32.5 -11t-12.5 -32h-97q0 63 37.5 98t108.5 35q67 0 103 -29.5t36 -79.5q0 -39 -19.5 -67t-61.5 -68l-58 -55h136v-96h-282v74z" />
    <glyph glyph-name="uni2462" unicode="&#x2462;" horiz-adv-x="830" 
d="M226 32q-83 47 -129.5 130.5t-46.5 187.5t46.5 187.5t129.5 130.5t189 47t189 -47t129.5 -130.5t46.5 -187.5t-46.5 -187.5t-129.5 -130.5t-189 -47t-189 47zM550 114.5q59 34.5 92 96t33 139.5t-33 139.5t-92 96t-135 34.5t-135 -34.5t-92 -96t-33 -139.5t33 -139.5
t92 -96t135 -34.5t135 34.5zM317 185q-39 35 -40 102h97q2 -23 15 -35t40 -12q44 0 44 43q0 26 -19.5 34.5t-63.5 8.5v65q36 1 50.5 11t14.5 27t-10 26t-28 9q-19 0 -30.5 -10t-12.5 -30h-98q1 58 38.5 94t105.5 36q62 0 99 -29t37 -74q0 -31 -16.5 -56t-54.5 -34v-2
q84 -10 84 -93q0 -48 -35.5 -82t-108.5 -34q-69 0 -108 35z" />
    <glyph glyph-name="uni2463" unicode="&#x2463;" horiz-adv-x="830" 
d="M604 668q83 -47 129.5 -130.5t46.5 -187.5t-46.5 -187.5t-129.5 -130.5t-189 -47t-189 47t-129.5 130.5t-46.5 187.5t46.5 187.5t129.5 130.5t189 47t189 -47zM550 114.5q59 34.5 92 96t33 139.5t-33 139.5t-92 96t-135 34.5t-135 -34.5t-92 -96t-33 -139.5t33 -139.5
t92 -96t135 -34.5t135 34.5zM525 309h38v-91h-38v-58h-93v58h-190v91l198 237h85v-237zM432 309v108h-2l-93 -108h95z" />
    <glyph glyph-name="uni2464" unicode="&#x2464;" horiz-adv-x="830" 
d="M226 32q-83 47 -129.5 130.5t-46.5 187.5t46.5 187.5t129.5 130.5t189 47t189 -47t129.5 -130.5t46.5 -187.5t-46.5 -187.5t-129.5 -130.5t-189 -47t-189 47zM550 114.5q59 34.5 92 96t33 139.5t-33 139.5t-92 96t-135 34.5t-135 -34.5t-92 -96t-33 -139.5t33 -139.5
t92 -96t135 -34.5t135 34.5zM270 194l45 80q17 -13 44 -22.5t52 -9.5q29 0 46 15t17 42q0 24 -14.5 36.5t-34.5 12.5q-16 0 -29 -8t-19 -21h-79l16 228h224v-94h-151l-5 -63h2q26 26 70 26q50 0 84.5 -33t34.5 -93q0 -61 -43 -99.5t-119 -38.5q-83 0 -141 42z" />
    <glyph glyph-name="uni2465" unicode="&#x2465;" horiz-adv-x="830" 
d="M226 32q-83 47 -129.5 130.5t-46.5 187.5t46.5 187.5t129.5 130.5t189 47t189 -47t129.5 -130.5t46.5 -187.5t-46.5 -187.5t-129.5 -130.5t-189 -47t-189 47zM550 114.5q59 34.5 92 96t33 139.5t-33 139.5t-92 96t-135 34.5t-135 -34.5t-92 -96t-33 -139.5t33 -139.5
t92 -96t135 -34.5t135 34.5zM301.5 188.5q-43.5 39.5 -43.5 107.5q0 49 21 91t60 85l72 80h110l-154 -161l3 -1q14 16 33.5 24.5t40.5 8.5q49 0 84.5 -36t35.5 -101q0 -36 -17.5 -67.5t-51.5 -50.5t-81 -19q-69 0 -112.5 39.5zM452 252.5q15 13.5 15 36.5t-15 36.5t-39 13.5
t-39 -13.5t-15 -36.5t15 -36.5t39 -13.5t39 13.5z" />
    <glyph glyph-name="uni2466" unicode="&#x2466;" horiz-adv-x="830" 
d="M226 32q-83 47 -129.5 130.5t-46.5 187.5t46.5 187.5t129.5 130.5t189 47t189 -47t129.5 -130.5t46.5 -187.5t-46.5 -187.5t-129.5 -130.5t-189 -47t-189 47zM550 114.5q59 34.5 92 96t33 139.5t-33 139.5t-92 96t-135 34.5t-135 -34.5t-92 -96t-33 -139.5t33 -139.5
t92 -96t135 -34.5t135 34.5zM456 442h-177v97h278v-88l-160 -298h-103z" />
    <glyph glyph-name="uni2467" unicode="&#x2467;" horiz-adv-x="830" 
d="M226 32q-83 47 -129.5 130.5t-46.5 187.5t46.5 187.5t129.5 130.5t189 47t189 -47t129.5 -130.5t46.5 -187.5t-46.5 -187.5t-129.5 -130.5t-189 -47t-189 47zM550 114.5q59 34.5 92 96t33 139.5t-33 139.5t-92 96t-135 34.5t-135 -34.5t-92 -96t-33 -139.5t33 -139.5
t92 -96t135 -34.5t135 34.5zM298.5 185.5q-40.5 31.5 -40.5 79.5q0 43 24 69.5t61 33.5v2q-32 5 -52.5 28t-20.5 58q0 45 38.5 73.5t106.5 28.5t106.5 -28.5t38.5 -73.5q0 -34 -21 -57t-52 -29v-2q36 -7 60.5 -33.5t24.5 -69.5q0 -48 -40.5 -79.5t-116.5 -31.5t-116.5 31.5z
M447 423.5q12 8.5 12 24.5t-12 24.5t-32 8.5t-32 -8.5t-12 -24.5t12 -24.5t32 -8.5t32 8.5zM455.5 251q15.5 11 15.5 31t-15.5 31t-40.5 11t-40.5 -11t-15.5 -31t15.5 -31t40.5 -11t40.5 11z" />
    <glyph glyph-name="uni2468" unicode="&#x2468;" horiz-adv-x="830" 
d="M226 32q-83 47 -129.5 130.5t-46.5 187.5t46.5 187.5t129.5 130.5t189 47t189 -47t129.5 -130.5t46.5 -187.5t-46.5 -187.5t-129.5 -130.5t-189 -47t-189 47zM550 114.5q59 34.5 92 96t33 139.5t-33 139.5t-92 96t-135 34.5t-135 -34.5t-92 -96t-33 -139.5t33 -139.5
t92 -96t135 -34.5t135 34.5zM481 312h-3q-37 -27 -79 -27q-52 0 -88 35.5t-36 92.5q0 59 39.5 96.5t109.5 37.5t110.5 -40t40.5 -114q0 -51 -23.5 -97.5t-81.5 -105.5l-36 -37h-110zM460 375.5q15 13.5 15 36.5t-15 36.5t-39 13.5t-39 -13.5t-15 -36.5t15 -36.5t39 -13.5
t39 13.5z" />
    <glyph glyph-name="uni24EA" unicode="&#x24ea;" horiz-adv-x="830" 
d="M226 32q-83 47 -129.5 130.5t-46.5 187.5t46.5 187.5t129.5 130.5t189 47t189 -47t129.5 -130.5t46.5 -187.5t-46.5 -187.5t-129.5 -130.5t-189 -47t-189 47zM550 114.5q59 34.5 92 96t33 139.5t-33 139.5t-92 96t-135 34.5t-135 -34.5t-92 -96t-33 -139.5t33 -139.5
t92 -96t135 -34.5t135 34.5zM294 203q-46 53 -46 150t46 149t123 52q78 0 123.5 -52t45.5 -149q0 -98 -45.5 -150.5t-123.5 -52.5q-77 0 -123 53zM467.5 267.5q18.5 28.5 18.5 85.5t-18.5 84.5t-50.5 27.5t-50.5 -27.5t-18.5 -84.5q0 -58 18.5 -86t50.5 -28t50.5 28.5z" />
    <glyph glyph-name="uni24FF" unicode="&#x24ff;" horiz-adv-x="830" 
d="M228.5 32.5q-83.5 47.5 -131 131t-47.5 186.5t47.5 186.5t131 131t186.5 47.5t186.5 -47.5t131 -131t47.5 -186.5t-47.5 -186.5t-131 -131t-186.5 -47.5t-186.5 47.5zM538.5 202.5q45.5 52.5 45.5 150.5q0 97 -45.5 149t-123.5 52q-77 0 -123 -52t-46 -149t46 -150
t123 -53q78 0 123.5 52.5zM364.5 267q-18.5 28 -18.5 86q0 57 18.5 84.5t50.5 27.5t50.5 -27.5t18.5 -84.5t-18.5 -85.5t-50.5 -28.5t-50.5 28z" />
    <glyph glyph-name="lozenge" unicode="&#x25ca;" horiz-adv-x="644" 
d="M624 350l-247 -365h-110l-247 365l247 365h110zM215 350l107 -158l107 158l-107 159z" />
    <glyph glyph-name="uni2776" unicode="&#x2776;" horiz-adv-x="830" 
d="M228.5 32.5q-83.5 47.5 -131 131t-47.5 186.5t47.5 186.5t131 131t186.5 47.5t186.5 -47.5t131 -131t47.5 -186.5t-47.5 -186.5t-131 -131t-186.5 -47.5t-186.5 47.5zM473 163v386h-124v-100h22v-286h102z" />
    <glyph glyph-name="uni2777" unicode="&#x2777;" horiz-adv-x="830" 
d="M228.5 32.5q-83.5 47.5 -131 131t-47.5 186.5t47.5 186.5t131 131t186.5 47.5t186.5 -47.5t131 -131t47.5 -186.5t-47.5 -186.5t-131 -131t-186.5 -47.5t-186.5 47.5zM560 172v96h-136l58 55q42 40 61.5 68t19.5 67q0 50 -36 79.5t-103 29.5q-71 0 -108.5 -35t-37.5 -98
h97q1 21 12.5 32t32.5 11q37 0 37 -33q0 -13 -10.5 -28t-38.5 -43l-130 -127v-74h282z" />
    <glyph glyph-name="uni2778" unicode="&#x2778;" horiz-adv-x="830" 
d="M228.5 32.5q-83.5 47.5 -131 131t-47.5 186.5t47.5 186.5t131 131t186.5 47.5t186.5 -47.5t131 -131t47.5 -186.5t-47.5 -186.5t-131 -131t-186.5 -47.5t-186.5 47.5zM523.5 194q35.5 34 35.5 82q0 83 -84 93v2q38 9 54.5 34t16.5 56q0 45 -37 74t-99 29
q-68 0 -105.5 -36t-38.5 -94h98q1 20 12.5 30t30.5 10q18 0 28 -9t10 -26t-14.5 -27t-50.5 -11v-65q44 0 63.5 -8.5t19.5 -34.5q0 -43 -44 -43q-27 0 -40 12t-15 35h-97q1 -67 40 -102t108 -35q73 0 108.5 34z" />
    <glyph glyph-name="uni2779" unicode="&#x2779;" horiz-adv-x="830" 
d="M228.5 32.5q-83.5 47.5 -131 131t-47.5 186.5t47.5 186.5t131 131t186.5 47.5t186.5 -47.5t131 -131t47.5 -186.5t-47.5 -186.5t-131 -131t-186.5 -47.5t-186.5 47.5zM515 170v58h38v91h-38v237h-85l-198 -237v-91h190v-58h93zM420 427h2v-108h-95z" />
    <glyph glyph-name="uni277A" unicode="&#x277a;" horiz-adv-x="830" 
d="M228.5 32.5q-83.5 47.5 -131 131t-47.5 186.5t47.5 186.5t131 131t186.5 47.5t186.5 -47.5t131 -131t47.5 -186.5t-47.5 -186.5t-131 -131t-186.5 -47.5t-186.5 47.5zM530 190.5q43 38.5 43 99.5q0 60 -34.5 93t-84.5 33q-44 0 -70 -26h-2l5 63h151v94h-224l-16 -228h79
q6 13 19 21t29 8q20 0 34.5 -12.5t14.5 -36.5q0 -27 -17 -42t-46 -15q-25 0 -52 9.5t-44 22.5l-45 -80q58 -42 141 -42q76 0 119 38.5z" />
    <glyph glyph-name="uni277B" unicode="&#x277b;" horiz-adv-x="830" 
d="M228.5 32.5q-83.5 47.5 -131 131t-47.5 186.5t47.5 186.5t131 131t186.5 47.5t186.5 -47.5t131 -131t47.5 -186.5t-47.5 -186.5t-131 -131t-186.5 -47.5t-186.5 47.5zM505 176q34 19 51.5 50.5t17.5 67.5q0 65 -35.5 101t-84.5 36q-21 0 -40.5 -8.5t-33.5 -24.5l-3 1
l154 161h-110l-72 -80q-39 -43 -60 -85t-21 -91q0 -68 43.5 -107.5t112.5 -39.5q47 0 81 19zM384 260.5q-15 13.5 -15 36.5t15 36.5t39 13.5t39 -13.5t15 -36.5t-15 -36.5t-39 -13.5t-39 13.5z" />
    <glyph glyph-name="uni277C" unicode="&#x277c;" horiz-adv-x="830" 
d="M228.5 32.5q-83.5 47.5 -131 131t-47.5 186.5t47.5 186.5t131 131t186.5 47.5t186.5 -47.5t131 -131t47.5 -186.5t-47.5 -186.5t-131 -131t-186.5 -47.5t-186.5 47.5zM397 153l160 298v88h-278v-97h177l-162 -289h103z" />
    <glyph glyph-name="uni277D" unicode="&#x277d;" horiz-adv-x="830" 
d="M228.5 32.5q-83.5 47.5 -131 131t-47.5 186.5t47.5 186.5t131 131t186.5 47.5t186.5 -47.5t131 -131t47.5 -186.5t-47.5 -186.5t-131 -131t-186.5 -47.5t-186.5 47.5zM531.5 185.5q40.5 31.5 40.5 79.5q0 43 -24.5 69.5t-60.5 33.5v2q31 6 52 29t21 57q0 45 -38.5 73.5
t-106.5 28.5t-106.5 -28.5t-38.5 -73.5q0 -35 20.5 -58t52.5 -28v-2q-37 -7 -61 -33.5t-24 -69.5q0 -48 40.5 -79.5t116.5 -31.5t116.5 31.5zM383 423.5q-12 8.5 -12 24.5t12 24.5t32 8.5t32 -8.5t12 -24.5t-12 -24.5t-32 -8.5t-32 8.5zM374.5 251q-15.5 11 -15.5 31
t15.5 31t40.5 11t40.5 -11t15.5 -31t-15.5 -31t-40.5 -11t-40.5 11z" />
    <glyph glyph-name="uni277E" unicode="&#x277e;" horiz-adv-x="830" 
d="M228.5 32.5q-83.5 47.5 -131 131t-47.5 186.5t47.5 186.5t131 131t186.5 47.5t186.5 -47.5t131 -131t47.5 -186.5t-47.5 -186.5t-131 -131t-186.5 -47.5t-186.5 47.5zM424 154l36 37q58 59 81.5 105.5t23.5 97.5q0 74 -40.5 114t-110.5 40t-109.5 -37.5t-39.5 -96.5
q0 -57 36 -92.5t88 -35.5q42 0 79 27h3l-157 -159h110zM372 376.5q-15 13.5 -15 36.5t15 36.5t39 13.5t39 -13.5t15 -36.5t-15 -36.5t-39 -13.5t-39 13.5z" />
    <glyph glyph-name="uniF8FF" unicode="&#xf8ff;" horiz-adv-x="865" 
d="M60.5 702q10.5 10 26.5 10q15 0 26 -10.5t11 -25.5q0 -10 -4.5 -19.5t-13.5 -14.5v-24q49 20 88.5 31t84.5 11t76 -21.5t31 -61.5v-25q55 12 104 12q57 0 96.5 -19t39.5 -64v-48q48 12 81 12q55 0 81.5 -21.5t26.5 -57.5v-240q-52 32 -107 32q-16 0 -34 -3.5t-33 -7.5
q-32 -9 -53 -9q-51 0 -51 46v86q-23 5 -47 5q-26 0 -76 -10q-46 -8 -64 -8q-54 0 -54 46v68h-14q-62 0 -176 -44v-327h-39v643q-8 5 -12.5 14t-4.5 19q0 16 10.5 26zM334.5 618.5q-22.5 13.5 -54.5 13.5q-43 0 -81.5 -11.5t-92.5 -33.5v-230q110 42 175 42q45 0 76 -14v192
q0 28 -22.5 41.5zM247 485v-68h-30v68l-65 95h38l42 -64l42 64h38zM578.5 517.5q-19.5 18.5 -86.5 18.5q-45 0 -106 -12v-171q0 -12 -8.5 -18t-25.5 -12q-15 -5 -22.5 -10t-7.5 -14q0 -7 6.5 -10.5t20.5 -3.5q16 0 60 8q56 9 81 9q28 0 57.5 -6.5t50.5 -18.5v197
q0 25 -19.5 43.5zM422.5 472q22.5 23 57.5 23t57.5 -23t22.5 -58t-22.5 -58t-57.5 -23t-57.5 23t-22.5 58t22.5 58zM516 451.5q-14 14.5 -36 14.5t-36 -14.5t-14 -37.5t14 -37.5t36 -14.5t36 14.5t14 37.5t-14 37.5zM767 404.5q-21 11.5 -59 11.5q-34 0 -82 -12v-167
q0 -13 -8.5 -19t-25.5 -14q-14 -5 -21 -9.5t-7 -13.5q0 -16 25 -16q17 0 48 9q44 12 70 12q39 0 81 -15v194q0 28 -21 39.5zM699 273h-16l-10 100h36zM347 361.5q-9 4.5 -23 6.5v-32q5 3 13.5 5.5t13.5 4.5t5 6q0 5 -9 9.5zM564 264v-47q6 4 15 7.5t14 7t5 8.5q0 13 -34 24z
M676.5 244.5q5.5 5.5 14.5 5.5t14.5 -5.5t5.5 -13.5q0 -9 -5.5 -14.5t-14.5 -5.5t-14.5 5.5t-5.5 14.5q0 8 5.5 13.5z" />
    <glyph glyph-name="i.loclTRK" horiz-adv-x="265" 
d="M225 0h-185v462h185v-462zM227 527h-189v173h189v-173z" />
    <glyph glyph-name="XBT" horiz-adv-x="558" 
d="M489 283.5q29 -37.5 29 -105.5q0 -85 -57 -131.5t-145 -46.5h-6v-87h-28v87h-49v-87h-28v87h-165v675h165v87h28v-87h49v87h28v-87h6q88 0 145 -46.5t57 -131.5q0 -68 -29 -105.5t-83 -52.5v-3q54 -15 83 -52.5zM332.5 413.5q21.5 17.5 21.5 53.5q0 65 -79 65h-70v-136
h72q34 0 55.5 17.5zM333.5 159.5q20.5 16.5 20.5 50.5q0 69 -76 69h-73v-136h73q35 0 55.5 16.5z" />
    <glyph glyph-name="dollar.tf" 
d="M492 47.5q-64 -58.5 -171 -62.5v-62h-28v62q-120 4 -185 70.5t-65 173.5h170q4 -39 24 -58.5t56 -22.5v121q-15 5 -19 7q-62 21 -102.5 42.5t-70 63t-29.5 108.5q0 96 62 147t159 53v72h28v-72q100 -5 157.5 -61.5t57.5 -165.5h-170q-2 30 -12.5 46t-32.5 20v-101l26 -9
q63 -19 105 -40t73 -63.5t31 -111.5q0 -98 -64 -156.5zM256.5 459.5q12.5 -11.5 36.5 -21.5v91q-49 -3 -49 -42q0 -16 12.5 -27.5zM369.5 162q14.5 12 14.5 33t-16 36t-47 27v-110q34 2 48.5 14z" />
    <glyph glyph-name="cent.tf" 
d="M424 306q-22 5 -49 5v-160h2q26 0 46 4t63 18v-164q-57 -20 -111 -23v-50h-28v49q-67 0 -121 29.5t-84.5 85.5t-30.5 131q0 74 30.5 130t84 85.5t121.5 30.5v56h28v-57q57 -3 114 -26v-164q-43 15 -65 20zM347 308q-29 -6 -46 -25t-17 -52q0 -63 63 -77v154z" />
    <glyph glyph-name="sterling.tf" 
d="M252 155h277v-155h-461v134q53 26 81.5 55t28.5 65q0 23 -10.5 43t-32.5 48h-89v30h68q-17 27 -26.5 56t-9.5 65q0 92 64.5 143t178.5 51q116 0 174.5 -56.5t58.5 -174.5h-170q0 38 -16.5 58t-48.5 20q-27 0 -45.5 -14t-18.5 -40q0 -22 11.5 -42.5t25.5 -39.5t19 -26h147
v-30h-128q23 -41 23 -74q0 -37 -24.5 -61.5t-78.5 -48.5z" />
    <glyph glyph-name="florin.tf" 
d="M395 501q-14 -13 -14 -36v-3h106v-30h-106v-392q0 -114 -53.5 -177t-146.5 -63h-69v162h42q28 0 45 17t17 51v402h-99v30h99v11q0 99 52.5 150.5t146.5 51.5h72v-161h-47q-31 0 -45 -13z" />
    <glyph glyph-name="yen.tf" 
d="M392 249h138v-30h-149v-56h149v-30h-149v-133h-162v133h-149v30h149v56h-149v30h138l-204 426h202l94 -276l94 276h202z" />
    <glyph glyph-name="Euro.tf" 
d="M298.5 176.5q37.5 -37.5 98.5 -37.5q75 0 149 48v-164q-32 -20 -67 -29.5t-83 -9.5q-94 0 -162.5 40.5t-107 108.5t-48.5 150h-70l15 30h52q-1 9 -1 27q0 21 1 32h-62l15 30h50q11 80 50 145t108.5 104t167.5 39q52 0 100.5 -12t87.5 -33l-65 -139q-70 30 -124 30
q-63 0 -101.5 -35t-50.5 -99h213l-15 -30h-202q-1 -10 -1 -32q0 -18 1 -27h179l-15 -30h-161q11 -69 48.5 -106.5z" />
    <glyph glyph-name="Indianrupeesign.tf" 
d="M397.5 577q26.5 -43 30.5 -96h111l-22 -30h-88q-4 -79 -53 -131t-124 -63l234 -257h-204l-222 255v145h105q36 0 55 12t22 39h-182v30h182q-4 25 -23 37t-54 12h-105v145h479l-22 -30h-190q44 -25 70.5 -68z" />
    <glyph glyph-name="THB.tf" 
d="M509.5 282q29.5 -39 29.5 -104q0 -90 -56 -134t-146 -44h-22v-87h-28v87h-226v675h226v87h28v-87h22q90 0 146 -44t56 -134q0 -65 -29.5 -104t-82.5 -54v-3q53 -15 82.5 -54zM226 532v-136h61v136h-61zM365.5 415.5q19.5 17.5 19.5 51.5q0 62 -70 65v-136q31 2 50.5 19.5
zM287 143v136h-61v-136h61zM366 161.5q19 16.5 19 48.5q0 66 -70 69v-136q32 2 51 18.5z" />
    <glyph glyph-name="RUB.tf" 
d="M279 261v-51h174v-30h-174v-180h-165v180h-102v30h102v51h-102v145h102v269h232q121 0 181.5 -55t60.5 -152t-60.5 -152t-181.5 -55h-67zM279 406h58q38 0 57 14t19 48t-19 48t-57 14h-58v-124z" />
    <glyph glyph-name="TRY.tf" 
d="M572 327q0 -102 -40 -176t-111.5 -112.5t-164.5 -38.5h-111v296l-117 -53v31l117 53v56l-117 -53v31l117 53v261h165v-186l156 71v-31l-156 -71v-56l156 71v-31l-156 -71v-188q45 0 76 40t31 104h155z" />
    <glyph glyph-name="uni20A9.tf" 
d="M563 386l-6 -68h43v-30h-46l-26 -288h-183l-25 288h-40l-25 -288h-183l-26 288h-46v30h43l-6 68h-37v30h34l-24 259h145l9 -259h33l24 259h158l24 -259h33l9 259h145l-24 -259h34v-30h-37zM292 416h16l-6 72h-4zM167 318h21l6 68h-29zM317 318l-6 68h-22l-6 -68h34z
M435 386h-29l6 -68h21zM185 288h-17l4 -101h4zM432 288h-17l9 -101h4z" />
    <glyph glyph-name="uni20B4.tf" 
d="M404 327h152v-30h-193l-62 -46q-22 -17 -31 -28t-9 -28q0 -20 16.5 -29.5t50.5 -9.5q43 0 89.5 12t107.5 38v-176q-50 -23 -101.5 -34t-110.5 -11q-126 0 -189 47.5t-63 137.5q0 74 45 127h-63v30h92q21 18 56 43l35 25h-183v30h225l25 18q5 3 19.5 14t20 20t5.5 20
q0 18 -14 26.5t-42 8.5q-40 0 -90.5 -11t-103.5 -32v163q113 38 222 38q112 0 164.5 -46t52.5 -122q0 -54 -26 -97h55v-30h-76q-25 -29 -76 -68z" />
    <glyph glyph-name="XBT.tf" 
d="M510 283.5q29 -37.5 29 -105.5q0 -85 -57 -131.5t-145 -46.5h-6v-87h-28v87h-49v-87h-28v87h-165v675h165v87h28v-87h49v87h28v-87h6q88 0 145 -46.5t57 -131.5q0 -68 -29 -105.5t-83 -52.5v-3q54 -15 83 -52.5zM353.5 413.5q21.5 17.5 21.5 53.5q0 65 -79 65h-70v-136
h72q34 0 55.5 17.5zM354.5 159.5q20.5 16.5 20.5 50.5q0 69 -76 69h-73v-136h73q35 0 55.5 16.5z" />
    <glyph glyph-name="uni20B8.tf" 
d="M569 675v-155h-539v155h539zM30 468h539v-155h-187v-313h-165v313h-187v155z" />
    <glyph glyph-name="uni20AE.tf" 
d="M382 520v-113l123 54v-31l-123 -54v-56l123 54v-31l-123 -54v-289h-165v217l-124 -54v31l124 54v56l-124 -54v31l124 54v185h-187v155h539v-155h-187z" />
    <glyph glyph-name="perthousand.tf" 
d="M59.5 423q-37.5 43 -37.5 112t37.5 112t94.5 43t94.5 -43t37.5 -112t-37.5 -112t-94.5 -43t-94.5 43zM117 592q-15 -20 -15 -57t15 -57t37 -20t37 20t15 57t-15 57t-37 20t-37 -20zM551 479l-500 -232l-12 25l500 232zM540.5 252q37.5 -43 37.5 -112t-37.5 -112
t-94.5 -43q-54 0 -92 40q-38 -40 -92 -40q-57 0 -94.5 43t-37.5 112t37.5 112t94.5 43q54 0 92 -40q38 40 92 40q57 0 94.5 -43zM299 83q15 20 15 57t-15 57t-37 20t-37 -20t-15 -57t15 -57t37 -20t37 20zM483 83q15 20 15 57t-15 57t-37 20t-37 -20t-15 -57t15 -57t37 -20
t37 20z" />
    <glyph glyph-name="zero.zero" horiz-adv-x="632" 
d="M575.5 519q31.5 -77 31.5 -181q0 -111 -35 -190t-100.5 -121t-155.5 -42q-80 0 -142 34l-25 -50l-26 11l27 54q-61 43 -93 120.5t-32 183.5q0 111 35 190t100.5 120.5t155.5 41.5q85 0 146 -36l21 42l26 -11l-23 -46q58 -43 89.5 -120zM237 207l142 283q-23 23 -63 23
q-51 0 -77 -41t-26 -134q0 -89 24 -131zM393 203.5q26 41.5 26 134.5q0 84 -21 126l-142 -282q23 -20 60 -20q51 0 77 41.5z" />
    <glyph glyph-name="zero.tf.zero" 
d="M559.5 519q31.5 -77 31.5 -181q0 -111 -35 -190t-100.5 -121t-155.5 -42q-80 0 -142 34l-25 -50l-26 11l27 54q-61 43 -93 120.5t-32 183.5q0 111 35 190t100.5 120.5t155.5 41.5q84 0 146 -36l21 42l26 -11l-23 -46q58 -43 89.5 -120zM221 207l142 283q-23 23 -63 23
q-51 0 -77 -41t-26 -134q0 -89 24 -131zM377 203.5q26 41.5 26 134.5q0 84 -21 126l-142 -282q23 -20 60 -20q51 0 77 41.5z" />
    <glyph glyph-name="zero.tf" 
d="M455.5 648.5q65.5 -41.5 100.5 -120.5t35 -190t-35 -190t-100.5 -121t-155.5 -42t-155.5 42t-100.5 121t-35 190t35 190t100.5 120.5t155.5 41.5t155.5 -41.5zM223 472q-26 -41 -26 -134t26 -134.5t77 -41.5t77 41.5t26 134.5t-26 134t-77 41t-77 -41z" />
    <glyph glyph-name="one.tf" 
d="M530 168v-168h-460v168h148v332h-81v175h258v-507h135z" />
    <glyph glyph-name="two.tf" 
d="M56 154l217 196q42 37 61.5 62t19.5 57q0 26 -15.5 40.5t-43.5 14.5q-34 0 -51.5 -20t-16.5 -51h-185q0 103 63 170t196 67q117 0 183.5 -54.5t66.5 -150.5q0 -64 -31 -115.5t-95 -104.5l-115 -95h248v-170h-502v154z" />
    <glyph glyph-name="three.tf" 
d="M469 642.5q68 -47.5 68 -131.5q0 -58 -34.5 -98t-100.5 -58v-2q71 -7 109.5 -50.5t38.5 -114.5q0 -96 -68.5 -149.5t-190.5 -53.5q-139 0 -210 59.5t-71 176.5h186q1 -36 22 -54.5t62 -18.5q36 0 56 16.5t20 46.5q0 34 -25.5 47.5t-89.5 13.5h-26v143h26q55 0 79 14.5
t24 48.5q0 26 -18 40.5t-50 14.5q-34 0 -54 -16t-22 -45h-176q0 105 66.5 161.5t190.5 56.5q120 0 188 -47.5z" />
    <glyph glyph-name="four.tf" 
d="M584 106h-64v-106h-172v106h-327v135l321 434h178v-417h64v-152zM348 258v198h-4l-142 -198h146z" />
    <glyph glyph-name="five.tf" 
d="M487 505h-243l-9 -88h3q46 31 108 31q57 0 105 -23.5t77.5 -72t29.5 -120.5q0 -73 -32 -128.5t-94.5 -87t-152.5 -31.5q-72 0 -136 19.5t-112 53.5l86 154q38 -27 79 -41.5t78 -14.5q47 0 71.5 21.5t24.5 57.5q0 35 -23 57t-61 22q-28 0 -50.5 -12t-34.5 -31h-133l36 404
h383v-170z" />
    <glyph glyph-name="six.tf" 
d="M100 53.5q-75 68.5 -75 195.5q0 81 28 146t92 143l113 137h227l-236 -253l3 -2q21 18 49 25.5t56 7.5q54 0 101.5 -26t76.5 -76t29 -119q0 -66 -27.5 -122t-87 -90.5t-149.5 -34.5q-125 0 -200 68.5zM358.5 166.5q23.5 22.5 23.5 59.5t-23.5 59.5t-63.5 22.5t-63.5 -22.5
t-23.5 -59.5t23.5 -59.5t63.5 -22.5t63.5 22.5z" />
    <glyph glyph-name="seven.tf" 
d="M534 509l-258 -509h-200l261 498h-271v177h468v-166z" />
    <glyph glyph-name="eight.tf" 
d="M94 36.5q-69 51.5 -69 145.5q0 67 33.5 109t92.5 53v2q-50 14 -77.5 53.5t-27.5 97.5q0 91 65.5 142t183.5 51t183.5 -51t65.5 -142q0 -58 -27.5 -97.5t-77.5 -53.5v-2q59 -11 92.5 -53t33.5 -109q0 -94 -69 -145.5t-201 -51.5t-201 51.5zM342.5 441q18.5 17 18.5 46
t-18.5 46t-47.5 17t-47.5 -17t-18.5 -46t18.5 -46t47.5 -17t47.5 17zM356 152q22 21 22 53t-22 54t-61 22t-61 -22t-22 -54t22 -53t61 -21t61 21z" />
    <glyph glyph-name="nine.tf" 
d="M434.5 660q60.5 -30 95.5 -90t35 -146q0 -80 -33 -152t-108 -152l-112 -120h-226l233 229l-2 2q-21 -15 -40 -22t-44 -7q-56 0 -104 31.5t-76.5 86t-28.5 121.5q0 69 32 125.5t93 90t146 33.5q79 0 139.5 -30zM230.5 498.5q-23.5 -22.5 -23.5 -59.5t23.5 -59.5
t63.5 -22.5t63.5 22.5t23.5 59.5t-23.5 59.5t-63.5 22.5t-63.5 -22.5z" />
    <glyph glyph-name="dot" horiz-adv-x="286" 
d="M236 0h-186v188h186v-188z" />
    <glyph glyph-name="Adieresis.ss01" horiz-adv-x="745" 
d="M492 131h-239l-43 -131h-210l271 700h203l271 -700h-210zM444 281l-71 219l-72 -219h143zM315 875q25 -25 25 -62t-25 -62t-62 -25t-62 25t-25 62t25 62t62 25t62 -25zM555 875q25 -25 25 -62t-25 -62t-62 -25t-62 25t-25 62t25 62t62 25t62 -25z" />
    <glyph glyph-name="Cdotaccent.ss01" horiz-adv-x="664" 
d="M203.5 28.5q-87.5 43.5 -138 126t-50.5 195.5t50.5 195.5t138 126t196.5 43.5q148 0 259 -77l-100 -163q-39 27 -74.5 40t-78.5 13q-53 0 -96.5 -20.5t-69 -61t-25.5 -96.5t25.5 -96.5t69 -61t96.5 -20.5q43 0 78.5 13t74.5 40l100 -163q-111 -77 -259 -77
q-109 0 -196.5 43.5zM446 875q25 -25 25 -62t-25 -62t-62 -25t-62 25t-25 62t25 62t62 25t62 -25z" />
    <glyph glyph-name="Edieresis.ss01" horiz-adv-x="546" 
d="M516 174v-174h-461v700h446v-174h-256v-83h225v-165h-225v-104h271zM227 875q25 -25 25 -62t-25 -62t-62 -25t-62 25t-25 62t25 62t62 25t62 -25zM467 875q25 -25 25 -62t-25 -62t-62 -25t-62 25t-25 62t25 62t62 25t62 -25z" />
    <glyph glyph-name="Edotaccent.ss01" horiz-adv-x="546" 
d="M516 174v-174h-461v700h446v-174h-256v-83h225v-165h-225v-104h271zM347 875q25 -25 25 -62t-25 -62t-62 -25t-62 25t-25 62t25 62t62 25t62 -25z" />
    <glyph glyph-name="Gcommaaccent.ss01" horiz-adv-x="751" 
d="M736 339q0 -104 -39.5 -184t-116 -125t-185.5 -45q-113 0 -199 46t-133.5 129t-47.5 191q0 105 46 187.5t134 129.5t210 47q82 0 150 -22.5t130 -67.5l-116 -156q-76 64 -170 64q-85 0 -134.5 -50.5t-49.5 -132.5q0 -80 49 -131.5t140 -51.5q64 0 99.5 24.5t41.5 63.5
h-173v160h361q3 -40 3 -76zM449 -159l-50 -51h-61l27 50q-16 9 -25 24.5t-9 35.5q0 30 19.5 50t50.5 20q32 0 53 -20t21 -51q0 -32 -26 -58z" />
    <glyph glyph-name="Gdotaccent.ss01" horiz-adv-x="751" 
d="M736 339q0 -104 -39.5 -184t-116 -125t-185.5 -45q-113 0 -199 46t-133.5 129t-47.5 191q0 105 46 187.5t134 129.5t210 47q82 0 150 -22.5t130 -67.5l-116 -156q-76 64 -170 64q-85 0 -134.5 -50.5t-49.5 -132.5q0 -80 49 -131.5t140 -51.5q64 0 99.5 24.5t41.5 63.5
h-173v160h361q3 -40 3 -76zM448 875q25 -25 25 -62t-25 -62t-62 -25t-62 25t-25 62t25 62t62 25t62 -25z" />
    <glyph glyph-name="Idieresis.ss01" horiz-adv-x="300" 
d="M245 0h-190v700h190v-700zM92 875q25 -25 25 -62t-25 -62t-62 -25t-62 25t-25 62t25 62t62 25t62 -25zM332 875q25 -25 25 -62t-25 -62t-62 -25t-62 25t-25 62t25 62t62 25t62 -25z" />
    <glyph glyph-name="Idotaccent.ss01" horiz-adv-x="300" 
d="M245 0h-190v700h190v-700zM212 875q25 -25 25 -62t-25 -62t-62 -25t-62 25t-25 62t25 62t62 25t62 -25z" />
    <glyph glyph-name="Kcommaaccent.ss01" horiz-adv-x="774" 
d="M510 0l-265 324v-324h-190v700h190v-308l236 308h246l-275 -333l322 -367h-264zM415 -159l-50 -51h-61l27 50q-16 9 -25 24.5t-9 35.5q0 30 19.5 50t50.5 20q32 0 53 -20t21 -51q0 -32 -26 -58z" />
    <glyph glyph-name="Lcaron.ss01" horiz-adv-x="514" 
d="M245 174h264v-174h-454v700h190v-526zM484 693.5q27 -26.5 27 -68.5q0 -29 -13 -52l-108 -185h-73l54 144q-27 11 -41.5 34t-14.5 55q0 45 27.5 72t71.5 27q43 0 70 -26.5z" />
    <glyph glyph-name="Lcommaaccent.ss01" horiz-adv-x="514" 
d="M245 174h264v-174h-454v700h190v-526zM333 -159l-50 -51h-61l27 50q-16 9 -25 24.5t-9 35.5q0 30 19.5 50t50.5 20q32 0 53 -20t21 -51q0 -32 -26 -58z" />
    <glyph glyph-name="Ldot.ss01" horiz-adv-x="514" 
d="M245 174h264v-174h-454v700h190v-526zM493.5 446.5q30.5 -30.5 30.5 -77.5t-30.5 -77.5t-77.5 -30.5t-77.5 30.5t-30.5 77.5t30.5 77.5t77.5 30.5t77.5 -30.5z" />
    <glyph glyph-name="Ncommaaccent.ss01" horiz-adv-x="780" 
d="M725 0h-148l-330 376h-2v-376h-190v700h148l330 -376h2v376h190v-700zM435 -159l-50 -51h-61l27 50q-16 9 -25 24.5t-9 35.5q0 30 19.5 50t50.5 20q32 0 53 -20t21 -51q0 -32 -26 -58z" />
    <glyph glyph-name="Odieresis.ss01" horiz-adv-x="776" 
d="M577 669.5q85 -45.5 134.5 -129t49.5 -190.5t-49.5 -190.5t-134.5 -129t-189 -45.5t-189 45.5t-134.5 129t-49.5 190.5t49.5 190.5t134.5 129t189 45.5t189 -45.5zM263.5 477.5q-48.5 -47.5 -48.5 -127.5t48.5 -127.5t124.5 -47.5t124.5 47.5t48.5 127.5t-48.5 127.5
t-124.5 47.5t-124.5 -47.5zM330 875q25 -25 25 -62t-25 -62t-62 -25t-62 25t-25 62t25 62t62 25t62 -25zM570 875q25 -25 25 -62t-25 -62t-62 -25t-62 25t-25 62t25 62t62 25t62 -25z" />
    <glyph glyph-name="Rcommaaccent.ss01" horiz-adv-x="667" 
d="M425 0l-180 260v-260h-190v700h299q89 0 148 -31.5t87.5 -83.5t28.5 -115q0 -73 -38 -129t-112 -81l194 -260h-237zM245 532v-150h83q45 0 69 19t24 57q0 74 -93 74h-83zM391 -159l-50 -51h-61l27 50q-16 9 -25 24.5t-9 35.5q0 30 19.5 50t50.5 20q32 0 53 -20t21 -51
q0 -32 -26 -58z" />
    <glyph glyph-name="Scommaaccent.ss01" horiz-adv-x="596" 
d="M561 656l-82 -169q-42 28 -88 42t-83 14q-22 0 -32.5 -6t-10.5 -20q0 -10 8 -18.5t29 -19.5l144 -74q63 -32 96.5 -77t33.5 -121q0 -108 -70.5 -165t-204.5 -57q-154 0 -296 79l87 182q62 -44 115 -65t104 -21q29 0 44 7t15 24q0 12 -8 20t-26 17l-153 77
q-61 31 -92.5 81.5t-31.5 116.5q0 97 67.5 154.5t195.5 57.5q118 0 239 -59zM353 -159l-50 -51h-61l27 50q-16 9 -25 24.5t-9 35.5q0 30 19.5 50t50.5 20q32 0 53 -20t21 -51q0 -32 -26 -58z" />
    <glyph glyph-name="uni021A.ss01" horiz-adv-x="550" 
d="M545 526h-175v-526h-190v526h-175v174h540v-174zM322 -159l-50 -51h-61l27 50q-16 9 -25 24.5t-9 35.5q0 30 19.5 50t50.5 20q32 0 53 -20t21 -51q0 -32 -26 -58z" />
    <glyph glyph-name="Udieresis.ss01" horiz-adv-x="716" 
d="M590 68q-76 -80 -232 -80t-232 80t-76 223v409h203v-404q0 -54 24.5 -86t80.5 -32t80.5 32t24.5 86v404h203v-409q0 -143 -76 -223zM300 875q25 -25 25 -62t-25 -62t-62 -25t-62 25t-25 62t25 62t62 25t62 -25zM540 875q25 -25 25 -62t-25 -62t-62 -25t-62 25t-25 62
t25 62t62 25t62 -25z" />
    <glyph glyph-name="Wdieresis.ss01" horiz-adv-x="1128" 
d="M871 0h-158l-148 403h-2l-148 -403h-158l-252 700h223l112 -383h2l142 383h160l142 -383h2l112 383h223zM506 875q25 -25 25 -62t-25 -62t-62 -25t-62 25t-25 62t25 62t62 25t62 -25zM746 875q25 -25 25 -62t-25 -62t-62 -25t-62 25t-25 62t25 62t62 25t62 -25z" />
    <glyph glyph-name="Ydieresis.ss01" horiz-adv-x="733" 
d="M462 236v-236h-191v234l-271 466h227l138 -281h3l138 281h227zM309 875q25 -25 25 -62t-25 -62t-62 -25t-62 25t-25 62t25 62t62 25t62 -25zM549 875q25 -25 25 -62t-25 -62t-62 -25t-62 25t-25 62t25 62t62 25t62 -25z" />
    <glyph glyph-name="Zdotaccent.ss01" horiz-adv-x="596" 
d="M576 174v-174h-556v174l303 352h-275v174h505v-174l-298 -352h321zM367 875q25 -25 25 -62t-25 -62t-62 -25t-62 25t-25 62t25 62t62 25t62 -25z" />
    <glyph glyph-name="adieresis.ss01" horiz-adv-x="604" 
d="M123.5 12q-49.5 27 -79 82.5t-29.5 136.5t29.5 136.5t79 82.5t110.5 27q101 0 148 -74h2v59h185v-462h-185v59h-2q-47 -74 -148 -74q-61 0 -110.5 27zM351 169q24 23 24 62t-24 62t-61 23t-61 -23t-24 -62t24 -62t61 -23t61 23zM248 682q25 -25 25 -63t-25 -63.5
t-63 -25.5t-63.5 25.5t-25.5 63.5t25.5 63t63.5 25t63 -25zM473 682q25 -25 25 -63t-25 -63.5t-63 -25.5t-63.5 25.5t-25.5 63.5t25.5 63t63.5 25t63 -25z" />
    <glyph glyph-name="cdotaccent.ss01" horiz-adv-x="455" 
d="M142.5 14.5q-59.5 29.5 -93.5 85.5t-34 131t34 131t93.5 85.5t136.5 29.5q94 0 171 -44l-71 -145q-38 24 -83 24q-40 0 -65.5 -22.5t-25.5 -58.5t25.5 -58.5t65.5 -22.5q45 0 83 24l71 -145q-77 -44 -171 -44q-77 0 -136.5 29.5zM339 685.5q30 -29.5 30 -73.5
q0 -43 -30 -73t-73 -30q-44 0 -73.5 30t-29.5 73q0 44 29.5 73.5t73.5 29.5q43 0 73 -29.5z" />
    <glyph glyph-name="dcaron.ss01" horiz-adv-x="789" 
d="M647 538q-20 7 -33 29t-13 54q0 45 27.5 72t71.5 27q43 0 70 -26.5t27 -68.5q0 -26 -12.5 -50t-34.5 -44l-74 -66h-73zM382 403h2v297h185v-700h-185v59h-2q-47 -74 -148 -74q-61 0 -110.5 27t-79 82.5t-29.5 136.5t29.5 136.5t79 82.5t110.5 27q101 0 148 -74z
M359 168.5q25 22.5 25 62.5t-25 62.5t-65 22.5t-65 -22.5t-25 -62.5t25 -62.5t65 -22.5t65 22.5z" />
    <glyph glyph-name="edieresis.ss01" horiz-adv-x="514" 
d="M440.5 411.5q63.5 -64.5 63.5 -191.5v-32h-318q11 -33 39 -47t76 -14q53 0 117 26l49 -135q-82 -33 -172 -33q-133 0 -206.5 63.5t-73.5 181.5q0 119 69 182.5t182 63.5q111 0 174.5 -64.5zM205.5 338q-21.5 -19 -23.5 -55h147q0 36 -20.5 55t-51.5 19q-30 0 -51.5 -19z
M219 682q25 -25 25 -63t-25 -63.5t-63 -25.5t-63.5 25.5t-25.5 63.5t25.5 63t63.5 25t63 -25zM444 682q25 -25 25 -63t-25 -63.5t-63 -25.5t-63.5 25.5t-25.5 63.5t25.5 63t63.5 25t63 -25z" />
    <glyph glyph-name="edotaccent.ss01" horiz-adv-x="514" 
d="M440.5 411.5q63.5 -64.5 63.5 -191.5v-32h-318q11 -33 39 -47t76 -14q53 0 117 26l49 -135q-82 -33 -172 -33q-133 0 -206.5 63.5t-73.5 181.5q0 119 69 182.5t182 63.5q111 0 174.5 -64.5zM205.5 338q-21.5 -19 -23.5 -55h147q0 36 -20.5 55t-51.5 19q-30 0 -51.5 -19z
M341 685.5q30 -29.5 30 -73.5q0 -43 -30 -73t-73 -30q-44 0 -73.5 30t-29.5 73q0 44 29.5 73.5t73.5 29.5q43 0 73 -29.5z" />
    <glyph glyph-name="gcommaaccent.ss01" horiz-adv-x="604" 
d="M88 -191l31 162q89 -23 151 -23q56 0 85 21t29 75v18h-2q-24 -27 -60.5 -44.5t-84.5 -17.5q-97 0 -159.5 59t-62.5 175q0 79 29.5 133.5t79.5 82t110 27.5q101 0 148 -74h2v59h185v-447q0 -106 -67 -168t-205 -62q-92 0 -209 24zM351 169q24 23 24 62t-24 62t-61 23
t-61 -23t-24 -62t24 -62t61 -23t61 23zM245 663l50 51h61l-27 -50q16 -9 25 -24.5t9 -35.5q0 -30 -19.5 -50t-50.5 -20q-32 0 -53 20t-21 51q0 32 26 58z" />
    <glyph glyph-name="gdotaccent.ss01" horiz-adv-x="604" 
d="M88 -191l31 162q89 -23 151 -23q56 0 85 21t29 75v18h-2q-24 -27 -60.5 -44.5t-84.5 -17.5q-97 0 -159.5 59t-62.5 175q0 79 29.5 133.5t79.5 82t110 27.5q101 0 148 -74h2v59h185v-447q0 -106 -67 -168t-205 -62q-92 0 -209 24zM351 169q24 23 24 62t-24 62t-61 23
t-61 -23t-24 -62t24 -62t61 -23t61 23zM363 685.5q30 -29.5 30 -73.5q0 -43 -30 -73t-73 -30q-44 0 -73.5 30t-29.5 73q0 44 29.5 73.5t73.5 29.5q43 0 73 -29.5z" />
    <glyph glyph-name="i.ss01" horiz-adv-x="265" 
d="M225 0h-185v462h185v-462zM206 685.5q30 -29.5 30 -73.5q0 -43 -30 -73t-73 -30q-44 0 -73.5 30t-29.5 73q0 44 29.5 73.5t73.5 29.5q43 0 73 -29.5z" />
    <glyph glyph-name="idieresis.ss01" horiz-adv-x="265" 
d="M94 682q25 -25 25 -63t-25 -63.5t-63 -25.5t-63.5 25.5t-25.5 63.5t25.5 63t63.5 25t63 -25zM299 682q25 -25 25 -63t-25 -63.5t-63 -25.5t-63.5 25.5t-25.5 63.5t25.5 63t63.5 25t63 -25zM225 0h-185v462h185v-462z" />
    <glyph glyph-name="i.loclTRK.ss01" horiz-adv-x="265" 
d="M225 0h-185v462h185v-462zM206 685.5q30 -29.5 30 -73.5q0 -43 -30 -73t-73 -30q-44 0 -73.5 30t-29.5 73q0 44 29.5 73.5t73.5 29.5q43 0 73 -29.5z" />
    <glyph glyph-name="ij.ss01" horiz-adv-x="530" 
d="M225 0h-185v462h185v-462zM206 685.5q30 -29.5 30 -73.5q0 -43 -30 -73t-73 -30q-44 0 -73.5 30t-29.5 73q0 44 29.5 73.5t73.5 29.5q43 0 73 -29.5zM246 -31q29 0 44 18.5t15 54.5v420h185v-411q0 -130 -52.5 -192t-162.5 -62h-50v172h21zM471 685.5q30 -29.5 30 -73.5
q0 -43 -30 -73t-73 -30q-44 0 -73.5 30t-29.5 73q0 44 29.5 73.5t73.5 29.5q43 0 73 -29.5z" />
    <glyph glyph-name="iogonek.ss01" horiz-adv-x="265" 
d="M60 539q-30 30 -30 73q0 44 30 73.5t73 29.5q44 0 73.5 -29.5t29.5 -73.5q0 -43 -29.5 -73t-73.5 -30q-43 0 -73 30zM40 462h185v-462h-26q-41 -36 -60 -57.5t-19 -35.5q0 -9 7.5 -14.5t17.5 -5.5q14 0 37 5l14 -114q-13 -1 -22 -2t-15 -2q-23 -3 -35 -3q-61 0 -94 22
t-33 71q0 60 86 136h-43v462z" />
    <glyph glyph-name="j.ss01" horiz-adv-x="265" 
d="M-19 -31q29 0 44 18.5t15 54.5v420h185v-411q0 -130 -52.5 -192t-162.5 -62h-50v172h21zM206 685.5q30 -29.5 30 -73.5q0 -43 -30 -73t-73 -30q-44 0 -73.5 30t-29.5 73q0 44 29.5 73.5t73.5 29.5q43 0 73 -29.5z" />
    <glyph glyph-name="kcommaaccent.ss01" horiz-adv-x="603" 
d="M366 0l-141 202v-202h-185v700h185v-409l118 171h223l-172 -210l209 -252h-237zM339 -159l-50 -51h-61l27 50q-16 9 -25 24.5t-9 35.5q0 30 19.5 50t50.5 20q32 0 53 -20t21 -51q0 -32 -26 -58z" />
    <glyph glyph-name="lcaron.ss01" horiz-adv-x="441" 
d="M309 538q-20 7 -33 29t-13 54q0 45 27.5 72t71.5 27q43 0 70 -26.5t27 -68.5q0 -26 -12.5 -50t-34.5 -44l-74 -66h-73zM225 0h-185v700h185v-700z" />
    <glyph glyph-name="lcommaaccent.ss01" horiz-adv-x="265" 
d="M225 0h-185v700h185v-700zM180 -159l-50 -51h-61l27 50q-16 9 -25 24.5t-9 35.5q0 30 19.5 50t50.5 20q32 0 53 -20t21 -51q0 -32 -26 -58z" />
    <glyph glyph-name="ldot.ss01" horiz-adv-x="479" 
d="M225 0h-185v700h185v-700zM443.5 446.5q30.5 -30.5 30.5 -77.5t-30.5 -77.5t-77.5 -30.5t-77.5 30.5t-30.5 77.5t30.5 77.5t77.5 30.5t77.5 -30.5z" />
    <glyph glyph-name="napostrophe.ss01" horiz-adv-x="712" 
d="M631.5 429.5q45.5 -47.5 45.5 -139.5v-290h-185v239q0 41 -16 61t-49 20q-74 0 -74 -96v-224h-185v462h179v-69h2q31 42 69.5 63t89.5 21q78 0 123.5 -47.5zM174 693.5q27 -26.5 27 -68.5q0 -29 -13 -52l-108 -185h-73l54 144q-27 11 -41.5 34t-14.5 55q0 45 27.5 72
t71.5 27q43 0 70 -26.5z" />
    <glyph glyph-name="ncommaaccent.ss01" horiz-adv-x="579" 
d="M498.5 429.5q45.5 -47.5 45.5 -139.5v-290h-185v239q0 41 -16 61t-49 20q-74 0 -74 -96v-224h-185v462h179v-69h2q31 42 69.5 63t89.5 21q78 0 123.5 -47.5zM344 -159l-50 -51h-61l27 50q-16 9 -25 24.5t-9 35.5q0 30 19.5 50t50.5 20q32 0 53 -20t21 -51q0 -32 -26 -58z
" />
    <glyph glyph-name="odieresis.ss01" horiz-adv-x="560" 
d="M142 15.5q-60 30.5 -93.5 86t-33.5 129.5t33.5 129.5t93.5 86t138 30.5t138 -30.5t93.5 -86t33.5 -129.5t-33.5 -129.5t-93.5 -86t-138 -30.5t-138 30.5zM344.5 169q25.5 23 25.5 62t-25.5 62t-64.5 23t-64.5 -23t-25.5 -62t25.5 -62t64.5 -23t64.5 23zM231 682
q25 -25 25 -63t-25 -63.5t-63 -25.5t-63.5 25.5t-25.5 63.5t25.5 63t63.5 25t63 -25zM456 682q25 -25 25 -63t-25 -63.5t-63 -25.5t-63.5 25.5t-25.5 63.5t25.5 63t63.5 25t63 -25z" />
    <glyph glyph-name="rcommaaccent.ss01" horiz-adv-x="368" 
d="M363 302h-11q-69 0 -100.5 -29t-31.5 -104v-169h-185v462h179v-86h2q21 55 57 77.5t88 22.5h2v-174zM174 -159l-50 -51h-61l27 50q-16 9 -25 24.5t-9 35.5q0 30 19.5 50t50.5 20q32 0 53 -20t21 -51q0 -32 -26 -58z" />
    <glyph glyph-name="scommaaccent.ss01" horiz-adv-x="454" 
d="M118 -4q-60 11 -113 38l59 132q96 -52 173 -52q18 0 24.5 4t6.5 11q0 8 -6.5 12t-24.5 10l-70 23q-63 21 -95 55.5t-32 92.5q0 73 52.5 114t159.5 41q74 0 175 -23l-40 -137q-39 16 -80 25t-69 9t-28 -13q0 -6 4.5 -10t18.5 -8l83 -27q64 -21 96 -53.5t32 -94.5
q0 -82 -56 -121t-157 -39q-53 0 -113 11zM288 -159l-50 -51h-61l27 50q-16 9 -25 24.5t-9 35.5q0 30 19.5 50t50.5 20q32 0 53 -20t21 -51q0 -32 -26 -58z" />
    <glyph glyph-name="tcaron.ss01" horiz-adv-x="515" 
d="M491.5 694q26.5 -26 26.5 -65q0 -52 -48 -88l-73 -56h-73l44 53q-20 7 -33 29t-13 54q0 45 28 72t72 27q43 0 69.5 -26zM283 462h98v-152h-98v-75q0 -37 10 -50t39 -13h16v-172h-75q-175 0 -175 181v129h-93v152h93v185h185v-185z" />
    <glyph glyph-name="uni021B.ss01" horiz-adv-x="386" 
d="M283 310v-75q0 -37 10 -50t39 -13h16v-172h-75q-175 0 -175 181v129h-93v152h93v185h185v-185h98v-152h-98zM306 -159l-50 -51h-61l27 50q-16 9 -25 24.5t-9 35.5q0 30 19.5 50t50.5 20q32 0 53 -20t21 -51q0 -32 -26 -58z" />
    <glyph glyph-name="udieresis.ss01" horiz-adv-x="586" 
d="M89 31.5q-49 46.5 -49 133.5v297h190v-242q0 -39 17 -58t45 -19q69 0 69 101v218h185v-462h-179v71h-2q-31 -44 -66.5 -65t-82.5 -21q-78 0 -127 46.5zM244 682q25 -25 25 -63t-25 -63.5t-63 -25.5t-63.5 25.5t-25.5 63.5t25.5 63t63.5 25t63 -25zM469 682q25 -25 25 -63
t-25 -63.5t-63 -25.5t-63.5 25.5t-25.5 63.5t25.5 63t63.5 25t63 -25z" />
    <glyph glyph-name="wdieresis.ss01" horiz-adv-x="855" 
d="M855 462l-177 -462h-154l-96 229l-97 -229h-153l-178 462h178l81 -223l86 223h166l86 -223l80 223h178zM379 682q25 -25 25 -63t-25 -63.5t-63 -25.5t-63.5 25.5t-25.5 63.5t25.5 63t63.5 25t63 -25zM604 682q25 -25 25 -63t-25 -63.5t-63 -25.5t-63.5 25.5t-25.5 63.5
t25.5 63t63.5 25t63 -25z" />
    <glyph glyph-name="ydieresis.ss01" horiz-adv-x="593" 
d="M593 462l-318 -662h-185l121 249l-211 413h206l97 -224l109 224h181zM258 682q25 -25 25 -63t-25 -63.5t-63 -25.5t-63.5 25.5t-25.5 63.5t25.5 63t63.5 25t63 -25zM483 682q25 -25 25 -63t-25 -63.5t-63 -25.5t-63.5 25.5t-25.5 63.5t25.5 63t63.5 25t63 -25z" />
    <glyph glyph-name="zdotaccent.ss01" horiz-adv-x="462" 
d="M452 149v-149h-442v132l200 182h-180v148h409v-125h1l-206 -188h218zM304 685.5q30 -29.5 30 -73.5q0 -43 -30 -73t-73 -30q-44 0 -73.5 30t-29.5 73q0 44 29.5 73.5t73.5 29.5q43 0 73 -29.5z" />
    <glyph glyph-name="fi.ss01" horiz-adv-x="663" 
d="M301 523.5q-19 -15.5 -19 -59.5v-2h103v-152h-103v-310h-185v310h-87v152h87v3q0 132 60 188.5t189 56.5h42v-171h-19q-49 0 -68 -15.5zM623 0h-185v462h185v-462zM604 685.5q30 -29.5 30 -73.5q0 -43 -30 -73t-73 -30q-44 0 -73.5 30t-29.5 73q0 44 29.5 73.5t73.5 29.5
q43 0 73 -29.5z" />
    <glyph glyph-name="f_f_i.ss01" horiz-adv-x="1066" 
d="M301 523.5q-19 -15.5 -19 -59.5v-2h103v-152h-103v-310h-185v310h-87v152h87v3q0 132 60 188.5t189 56.5h42v-171h-19q-49 0 -68 -15.5zM704 523.5q-19 -15.5 -19 -59.5v-2h103v-152h-103v-310h-185v310h-87v152h87v3q0 132 60 188.5t189 56.5h42v-171h-19
q-49 0 -68 -15.5zM1026 0h-185v462h185v-462zM1007 685.5q30 -29.5 30 -73.5q0 -43 -30 -73t-73 -30q-44 0 -73.5 30t-29.5 73q0 44 29.5 73.5t73.5 29.5q43 0 73 -29.5z" />
    <glyph glyph-name="periodcentered.ss01" horiz-adv-x="286" 
d="M220.5 446.5q30.5 -30.5 30.5 -77.5t-30.5 -77.5t-77.5 -30.5t-77.5 30.5t-30.5 77.5t30.5 77.5t77.5 30.5t77.5 -30.5z" />
    <glyph glyph-name="colon.ss01" horiz-adv-x="256" 
d="M205.5 170.5q30.5 -30.5 30.5 -77.5t-30.5 -77.5t-77.5 -30.5t-77.5 30.5t-30.5 77.5t30.5 77.5t77.5 30.5t77.5 -30.5zM205.5 446.5q30.5 -30.5 30.5 -77.5t-30.5 -77.5t-77.5 -30.5t-77.5 30.5t-30.5 77.5t30.5 77.5t77.5 30.5t77.5 -30.5z" />
    <glyph glyph-name="comma.ss01" horiz-adv-x="256" 
d="M213 28l-115 -202h-64l49 168q-29 11 -46 37.5t-17 63.5q0 45 30 74.5t75 29.5q49 0 78 -28.5t29 -75.5q0 -33 -19 -67z" />
    <glyph glyph-name="ellipsis.ss01" horiz-adv-x="810" 
d="M216.5 170.5q30.5 -30.5 30.5 -77.5t-30.5 -77.5t-77.5 -30.5t-77.5 30.5t-30.5 77.5t30.5 77.5t77.5 30.5t77.5 -30.5zM748.5 170.5q30.5 -30.5 30.5 -77.5t-30.5 -77.5t-77.5 -30.5t-77.5 30.5t-30.5 77.5t30.5 77.5t77.5 30.5t77.5 -30.5zM482.5 170.5
q30.5 -30.5 30.5 -77.5t-30.5 -77.5t-77.5 -30.5t-77.5 30.5t-30.5 77.5t30.5 77.5t77.5 30.5t77.5 -30.5z" />
    <glyph glyph-name="exclam.ss01" horiz-adv-x="350" 
d="M242 241h-134l-38 459h210zM252.5 170.5q30.5 -30.5 30.5 -77.5t-30.5 -77.5t-77.5 -30.5t-77.5 30.5t-30.5 77.5t30.5 77.5t77.5 30.5t77.5 -30.5z" />
    <glyph glyph-name="exclamdown.ss01" horiz-adv-x="350" 
d="M97.5 328.5q-30.5 30.5 -30.5 77.5t30.5 77.5t77.5 30.5t77.5 -30.5t30.5 -77.5t-30.5 -77.5t-77.5 -30.5t-77.5 30.5zM108 258h134l38 -459h-210z" />
    <glyph glyph-name="period.ss01" horiz-adv-x="256" 
d="M205.5 170.5q30.5 -30.5 30.5 -77.5t-30.5 -77.5t-77.5 -30.5t-77.5 30.5t-30.5 77.5t30.5 77.5t77.5 30.5t77.5 -30.5z" />
    <glyph glyph-name="question.ss01" horiz-adv-x="507" 
d="M430 662.5q52 -52.5 52 -128.5q0 -40 -16.5 -78t-55.5 -76l-16 -15q-30 -29 -44.5 -52.5t-14.5 -62.5v-10h-183v29q0 101 78 162q33 26 47.5 41t14.5 38q0 18 -10.5 27.5t-28.5 9.5q-24 0 -36 -16t-12 -44h-175q0 104 59 166t177 62q112 0 164 -52.5zM324.5 170.5
q30.5 -30.5 30.5 -77.5t-30.5 -77.5t-77.5 -30.5t-77.5 30.5t-30.5 77.5t30.5 77.5t77.5 30.5t77.5 -30.5z" />
    <glyph glyph-name="questiondown.ss01" horiz-adv-x="462" 
d="M177.5 328.5q-30.5 30.5 -30.5 77.5t30.5 77.5t77.5 30.5t77.5 -30.5t30.5 -77.5t-30.5 -77.5t-77.5 -30.5t-77.5 30.5zM72 -163.5q-52 52.5 -52 128.5q0 40 16.5 78t55.5 76l16 15q30 29 44.5 52.5t14.5 62.5v10h183v-29q0 -101 -78 -162q-33 -26 -47.5 -41t-14.5 -38
q0 -18 10.5 -27.5t28.5 -9.5q24 0 36 16t12 44h175q0 -104 -59 -166t-177 -62q-112 0 -164 52.5z" />
    <glyph glyph-name="semicolon.ss01" horiz-adv-x="256" 
d="M213 28l-115 -202h-64l49 168q-29 11 -46 37.5t-17 63.5q0 45 30 74.5t75 29.5q49 0 78 -28.5t29 -75.5q0 -33 -19 -67zM205.5 446.5q30.5 -30.5 30.5 -77.5t-30.5 -77.5t-77.5 -30.5t-77.5 30.5t-30.5 77.5t30.5 77.5t77.5 30.5t77.5 -30.5z" />
    <glyph glyph-name="quotedblbase.ss01" horiz-adv-x="411" 
d="M152 149.5q27 -26.5 27 -68.5q0 -29 -13 -52l-108 -185h-73l54 144q-27 11 -41.5 34t-14.5 55q0 45 27.5 72t71.5 27q43 0 70 -26.5zM368 149.5q27 -26.5 27 -68.5q0 -29 -13 -52l-108 -185h-73l54 144q-27 11 -41.5 34t-14.5 55q0 45 27.5 72t71.5 27q43 0 70 -26.5z
" />
    <glyph glyph-name="quotedblleft.ss01" horiz-adv-x="411" 
d="M43 488.5q-27 26.5 -27 68.5q0 29 13 52l108 185h73l-54 -144q27 -11 41.5 -34t14.5 -55q0 -45 -27.5 -72t-71.5 -27q-43 0 -70 26.5zM259 488.5q-27 26.5 -27 68.5q0 29 13 52l108 185h73l-54 -144q27 -11 41.5 -34t14.5 -55q0 -45 -27.5 -72t-71.5 -27q-43 0 -70 26.5z
" />
    <glyph glyph-name="quotedblright.ss01" horiz-adv-x="411" 
d="M185 693.5q27 -26.5 27 -68.5q0 -29 -13 -52l-108 -185h-73l54 144q-27 11 -41.5 34t-14.5 55q0 45 27.5 72t71.5 27q43 0 70 -26.5zM401 693.5q27 -26.5 27 -68.5q0 -29 -13 -52l-108 -185h-73l54 144q-27 11 -41.5 34t-14.5 55q0 45 27.5 72t71.5 27q43 0 70 -26.5z
" />
    <glyph glyph-name="quoteleft.ss01" horiz-adv-x="207" 
d="M32 488.5q-27 26.5 -27 68.5q0 29 13 52l108 185h73l-54 -144q27 -11 41.5 -34t14.5 -55q0 -45 -27.5 -72t-71.5 -27q-43 0 -70 26.5z" />
    <glyph glyph-name="quoteright.ss01" horiz-adv-x="207" 
d="M174 693.5q27 -26.5 27 -68.5q0 -29 -13 -52l-108 -185h-73l54 144q-27 11 -41.5 34t-14.5 55q0 45 27.5 72t71.5 27q43 0 70 -26.5z" />
    <glyph glyph-name="quotesinglbase.ss01" horiz-adv-x="207" 
d="M174 149.5q27 -26.5 27 -68.5q0 -29 -13 -52l-108 -185h-73l54 144q-27 11 -41.5 34t-14.5 55q0 45 27.5 72t71.5 27q43 0 70 -26.5z" />
    <glyph glyph-name="divide.ss01" 
d="M255 419.5q-17 17.5 -17 44.5t17 44.5t45 17.5t45 -17.5t17 -44.5t-17 -44.5t-45 -17.5t-45 17.5zM41 336h518v-74h-518v74zM255 89.5q-17 17.5 -17 44.5t17 44.5t45 17.5t45 -17.5t17 -44.5t-17 -44.5t-45 -17.5t-45 17.5z" />
    <glyph glyph-name="uni02BC.ss01" horiz-adv-x="207" 
d="M174 693.5q27 -26.5 27 -68.5q0 -29 -13 -52l-108 -185h-73l54 144q-27 11 -41.5 34t-14.5 55q0 45 27.5 72t71.5 27q43 0 70 -26.5z" />
    <glyph glyph-name="dot.ss01" horiz-adv-x="316" 
d="M235.5 170.5q30.5 -30.5 30.5 -77.5t-30.5 -77.5t-77.5 -30.5t-77.5 30.5t-30.5 77.5t30.5 77.5t77.5 30.5t77.5 -30.5z" />
    <glyph glyph-name="Adieresis.ss02" horiz-adv-x="745" 
d="M228 690h-131v120h131v-120zM649 690h-131v120h131v-120zM492 131h-239l-43 -131h-210l271 700h203l271 -700h-210zM444 281l-71 219l-72 -219h143z" />
    <glyph glyph-name="Idieresis.ss02" horiz-adv-x="300" 
d="M35 690h-131v120h131v-120zM396 690h-131v120h131v-120zM245 0h-190v700h190v-700z" />
    <glyph glyph-name="Odieresis.ss02" horiz-adv-x="776" 
d="M173 690h-131v120h131v-120zM734 690h-131v120h131v-120zM577 669.5q85 -45.5 134.5 -129t49.5 -190.5t-49.5 -190.5t-134.5 -129t-189 -45.5t-189 45.5t-134.5 129t-49.5 190.5t49.5 190.5t134.5 129t189 45.5t189 -45.5zM263.5 477.5q-48.5 -47.5 -48.5 -127.5
t48.5 -127.5t124.5 -47.5t124.5 47.5t48.5 127.5t-48.5 127.5t-124.5 47.5t-124.5 -47.5z" />
    <glyph glyph-name="Udieresis.ss02" horiz-adv-x="716" 
d="M348 690h-76v120h76v-120zM444 690h-76v120h76v-120zM590 68q-76 -80 -232 -80t-232 80t-76 223v409h203v-404q0 -54 24.5 -86t80.5 -32t80.5 32t24.5 86v404h203v-409q0 -143 -76 -223z" />
    <glyph glyph-name="Wdieresis.ss02" horiz-adv-x="1128" 
d="M439 690h-141v120h141v-120zM830 690h-141v120h141v-120zM871 0h-158l-148 403h-2l-148 -403h-158l-252 700h223l112 -383h2l142 383h160l142 -383h2l112 383h223z" />
    <glyph glyph-name="Ydieresis.ss02" horiz-adv-x="733" 
d="M357 690h-111v120h111v-120zM488 690h-111v120h111v-120zM462 236v-236h-191v234l-271 466h227l138 -281h3l138 281h227z" />
    <glyph glyph-name="Adieresis.ss01.ss02" horiz-adv-x="745" 
d="M81 675q-25 25 -25 62t25 62t62 25t62 -25t25 -62t-25 -62t-62 -25t-62 25zM541 675q-25 25 -25 62t25 62t62 25t62 -25t25 -62t-25 -62t-62 -25t-62 25zM492 131h-239l-43 -131h-210l271 700h203l271 -700h-210zM444 281l-71 219l-72 -219h143z" />
    <glyph glyph-name="Idieresis.ss01.ss02" horiz-adv-x="300" 
d="M16 799q25 -25 25 -62t-25 -62t-62 -25t-62 25t-25 62t25 62t62 25t62 -25zM408 799q25 -25 25 -62t-25 -62t-62 -25t-62 25t-25 62t25 62t62 25t62 -25zM245 0h-190v700h190v-700z" />
    <glyph glyph-name="Odieresis.ss01.ss02" horiz-adv-x="776" 
d="M152 799q25 -25 25 -62t-25 -62t-62 -25t-62 25t-25 62t25 62t62 25t62 -25zM748 799q25 -25 25 -62t-25 -62t-62 -25t-62 25t-25 62t25 62t62 25t62 -25zM577 669.5q85 -45.5 134.5 -129t49.5 -190.5t-49.5 -190.5t-134.5 -129t-189 -45.5t-189 45.5t-134.5 129
t-49.5 190.5t49.5 190.5t134.5 129t189 45.5t189 -45.5zM263.5 477.5q-48.5 -47.5 -48.5 -127.5t48.5 -127.5t124.5 -47.5t124.5 47.5t48.5 127.5t-48.5 127.5t-124.5 47.5t-124.5 -47.5z" />
    <glyph glyph-name="Udieresis.ss01.ss02" horiz-adv-x="716" 
d="M421 802.5q25 -25.5 25 -61.5t-25 -61.5t-62 -25.5t-62.5 25t-25.5 62q0 36 25.5 61.5t62.5 25.5t62 -25.5zM590 68q-76 -80 -232 -80t-232 80t-76 223v409h203v-404q0 -54 24.5 -86t80.5 -32t80.5 32t24.5 86v404h203v-409q0 -143 -76 -223z" />
    <glyph glyph-name="Wdieresis.ss01.ss02" horiz-adv-x="1128" 
d="M429 799q25 -25 25 -62t-25 -62t-62 -25t-62 25t-25 62t25 62t62 25t62 -25zM823 799q25 -25 25 -62t-25 -62t-62 -25t-62 25t-25 62t25 62t62 25t62 -25zM871 0h-158l-148 403h-2l-148 -403h-158l-252 700h223l112 -383h2l142 383h160l142 -383h2l112 383h223z" />
    <glyph glyph-name="Ydieresis.ss01.ss02" horiz-adv-x="733" 
d="M207 728q-25 25 -25 62t25 62t62 25t62 -25t25 -62t-25 -62t-62 -25t-62 25zM402 728q-25 25 -25 62t25 62t62 25t62 -25t25 -62t-25 -62t-62 -25t-62 25zM462 236v-236h-191v234l-271 466h227l138 -281h3l138 281h227z" />
    <glyph glyph-name="germandbls.ss03" horiz-adv-x="604" 
d="M560.5 216.5q26.5 -35.5 26.5 -97.5q0 -68 -32 -125.5t-73.5 -98.5t-102.5 -90l-25 -20l-104 126q89 72 127 114.5t38 75.5q0 20 -22 44.5t-76 45.5l-22 10l65 109h-135v-310h-185v465q0 132 60 188.5t189 56.5h42v-171h-19q-49 0 -68 -15.5t-19 -59.5v-128l73 126h291
l-96 -183q41 -27 67.5 -62.5z" />
    <glyph glyph-name="a.subs" horiz-adv-x="417" 
d="M87 -101q-33 19 -52.5 56t-19.5 88t19.5 88t52.5 56t72 19q36 0 61.5 -15.5t39.5 -42.5h2v48h120v-306h-120v48h-2q-14 -27 -39.5 -42.5t-61.5 -15.5q-39 0 -72 19zM241 3q16 16 16 40t-16 40t-40 16t-40 -16t-16 -40t16 -40t40 -16t40 16z" />
    <glyph glyph-name="b.subs" horiz-adv-x="422" 
d="M201.5 -104.5q-25.5 15.5 -39.5 42.5h-2v-48h-120v462h120v-204h2q14 27 39.5 42.5t61.5 15.5q39 0 72 -19t52.5 -56t19.5 -88t-19.5 -88t-52.5 -56t-72 -19q-36 0 -61.5 15.5zM261 3q16 16 16 40t-16 40t-40 16t-40 -16t-16 -40t16 -40t40 -16t40 16z" />
    <glyph glyph-name="c.subs" horiz-adv-x="320" 
d="M315 180l-44 -96q-19 8 -31.5 11.5t-28.5 3.5q-30 0 -48 -15t-18 -41t18 -41t48 -15q16 0 28.5 4t31.5 11l44 -96q-52 -26 -117 -26q-82 0 -132.5 43.5t-50.5 119.5t50.5 119.5t132.5 43.5q65 0 117 -26z" />
    <glyph glyph-name="d.subs" horiz-adv-x="417" 
d="M87 -101q-33 19 -52.5 56t-19.5 88t19.5 88t52.5 56t72 19q36 0 61.5 -15.5t39.5 -42.5h2v204h120v-462h-120v48h-2q-14 -27 -39.5 -42.5t-61.5 -15.5q-39 0 -72 19zM241 3q16 16 16 40t-16 40t-40 16t-40 -16t-16 -40t16 -40t40 -16t40 16z" />
    <glyph glyph-name="e.subs" horiz-adv-x="359" 
d="M301.5 162.5q42.5 -43.5 42.5 -127.5v-16h-215q8 -40 74 -40q43 0 90 19l33 -94q-62 -24 -122 -24q-94 0 -141.5 45.5t-47.5 118.5q0 44 19.5 81t57 59t90.5 22q77 0 119.5 -43.5zM143.5 111.5q-13.5 -12.5 -15.5 -32.5h96q-1 20 -12.5 32.5t-32.5 12.5
q-22 0 -35.5 -12.5z" />
    <glyph glyph-name="f.subs" horiz-adv-x="254" 
d="M192 242.5q-12 -9.5 -12 -32.5v-14h58v-93h-58v-213h-120v213h-50v93h50v14q0 69 37.5 108.5t113.5 39.5h33v-106h-14q-26 0 -38 -9.5z" />
    <glyph glyph-name="g.subs" horiz-adv-x="417" 
d="M83 -239l19 100q46 -10 106 -10q30 0 42 14t12 44v29h-2q-14 -27 -39.5 -42.5t-61.5 -15.5q-39 0 -72 19t-52.5 56t-19.5 88t19.5 88t52.5 56t72 19q36 0 61.5 -15.5t39.5 -42.5h2v48h120v-306q0 -142 -155 -142q-84 0 -144 13zM241 3q16 16 16 40t-16 40t-40 16t-40 -16
t-16 -40t16 -40t40 -16t40 16z" />
    <glyph glyph-name="h.subs" horiz-adv-x="401" 
d="M155 150h2q36 56 102 56q52 0 82 -31t30 -93v-192h-120v160q0 27 -12 42t-35 15q-24 0 -36.5 -16t-12.5 -41v-160h-120v462h120v-202z" />
    <glyph glyph-name="i.subs" horiz-adv-x="204" 
d="M164 236h-124v116h124v-116zM162 -110h-120v306h120v-306z" />
    <glyph glyph-name="j.subs" horiz-adv-x="205" 
d="M165 236h-124v116h124v-116zM163 -124q0 -60 -33 -90t-92 -30h-28v102h8q15 0 20 5.5t5 19.5v313h120v-320z" />
    <glyph glyph-name="k.subs" horiz-adv-x="409" 
d="M160 75l75 121h152l-106 -140l123 -166h-155l-89 137v-137h-120v462h120v-277z" />
    <glyph glyph-name="l.subs" horiz-adv-x="200" 
d="M160 -110h-120v462h120v-462z" />
    <glyph glyph-name="m.subs" horiz-adv-x="601" 
d="M539 174.5q32 -31.5 32 -86.5v-198h-120v160q0 27 -12 41t-33 14q-19 0 -31.5 -13.5t-12.5 -44.5v-157h-118v160q0 27 -12 41t-33 14q-19 0 -31.5 -13.5t-12.5 -44.5v-157h-120v306h119v-49h2q14 27 40 43t61 16q31 0 58 -13t41 -46h2q30 59 99 59q50 0 82 -31.5z" />
    <glyph glyph-name="n.subs" horiz-adv-x="401" 
d="M340.5 174.5q30.5 -31.5 30.5 -92.5v-192h-120v160q0 57 -47 57q-24 0 -36.5 -15t-12.5 -42v-160h-120v306h120v-46h2q36 56 103 56q50 0 80.5 -31.5z" />
    <glyph glyph-name="o.subs" horiz-adv-x="384" 
d="M319.5 162.5q49.5 -43.5 49.5 -119.5t-49.5 -119.5t-127.5 -43.5t-127.5 43.5t-49.5 119.5t49.5 119.5t127.5 43.5t127.5 -43.5zM152 83q-16 -16 -16 -40t16 -40t40 -16t40 16t16 40t-16 40t-40 16t-40 -16z" />
    <glyph glyph-name="p.subs" horiz-adv-x="417" 
d="M35 196h120v-48h2q14 27 39.5 42.5t61.5 15.5q39 0 72 -19t52.5 -56t19.5 -88t-19.5 -88t-52.5 -56t-72 -19q-36 0 -61.5 15.5t-39.5 42.5h-2v-180h-120v438zM256 3q16 16 16 40t-16 40t-40 16t-40 -16t-16 -40t16 -40t40 -16t40 16z" />
    <glyph glyph-name="q.subs" horiz-adv-x="417" 
d="M262 -62h-2q-14 -27 -39.5 -42.5t-61.5 -15.5q-39 0 -72 19t-52.5 56t-19.5 88t19.5 88t52.5 56t72 19q36 0 61.5 -15.5t39.5 -42.5h2v48h120v-438h-120v180zM241 3q16 16 16 40t-16 40t-40 16t-40 -16t-16 -40t16 -40t40 -16t40 16z" />
    <glyph glyph-name="r.subs" horiz-adv-x="269" 
d="M264 80h-11q-47 0 -72.5 -21t-25.5 -73v-96h-120v306h119v-69h2q13 41 37.5 60t65.5 19h5v-126z" />
    <glyph glyph-name="s.subs" horiz-adv-x="306" 
d="M288 186l-40 -90q-62 25 -90 25q-10 0 -10 -5q0 -4 8 -7l67 -29q39 -17 56 -39t17 -57q0 -104 -142 -104q-71 0 -144 32l47 91q29 -16 59 -26.5t51 -10.5q11 0 11 6q0 5 -10 9l-56 25q-41 18 -59 41t-18 56q0 51 35 77t100 26q61 0 118 -20z" />
    <glyph glyph-name="t.subs" horiz-adv-x="251" 
d="M180 101v-80q0 -13 6 -17.5t19 -4.5h12v-109h-44q-113 0 -113 97v114h-50v95h50v121h120v-121h56v-95h-56z" />
    <glyph glyph-name="u.subs" horiz-adv-x="397" 
d="M362 -110h-120v50h-2q-19 -29 -43.5 -44.5t-59.5 -15.5q-46 0 -76.5 27t-30.5 82v207h121v-162q0 -55 45 -55q46 0 46 65v152h120v-306z" />
    <glyph glyph-name="v.subs" horiz-adv-x="378" 
d="M252 -110h-126l-126 306h128l61 -185l61 185h128z" />
    <glyph glyph-name="w.subs" horiz-adv-x="561" 
d="M452 -110h-120l-52 168l-51 -168h-120l-109 306h124l45 -170l52 170h119l52 -170l45 170h124z" />
    <glyph glyph-name="x.subs" horiz-adv-x="385" 
d="M193 -34l-56 -76h-137l118 155l-112 151h137l50 -71l49 71h137l-112 -151l118 -155h-137z" />
    <glyph glyph-name="y.subs" horiz-adv-x="390" 
d="M390 195l-204 -438h-125l76 163l-137 275h135l61 -147l69 147h125z" />
    <glyph glyph-name="z.subs" horiz-adv-x="328" 
d="M299 107l-133 -120h142v-97h-288v90l132 118h-128v98h275v-89z" />
    <glyph glyph-name="t_z" horiz-adv-x="728" 
d="M684.5 216.5q26.5 -35.5 26.5 -97.5q0 -68 -32 -125.5t-73.5 -98.5t-102.5 -90l-25 -20l-104 126q89 72 127 114.5t38 75.5q0 20 -22 44.5t-76 45.5l-22 10l61 109h-197v-75q0 -37 10 -50t39 -13h16v-172h-75q-175 0 -175 181v129h-93v152h93v185h185v-185h430l-96 -183
q41 -27 67.5 -62.5z" />
    <glyph glyph-name="a.sups" horiz-adv-x="417" 
d="M87 357q-33 19 -52.5 56t-19.5 88t19.5 88t52.5 56t72 19q36 0 61.5 -15.5t39.5 -42.5h2v48h120v-306h-120v48h-2q-14 -27 -39.5 -42.5t-61.5 -15.5q-39 0 -72 19zM241 461q16 16 16 40t-16 40t-40 16t-40 -16t-16 -40t16 -40t40 -16t40 16z" />
    <glyph glyph-name="b.sups" horiz-adv-x="422" 
d="M201.5 353.5q-25.5 15.5 -39.5 42.5h-2v-48h-120v462h120v-204h2q14 27 39.5 42.5t61.5 15.5q39 0 72 -19t52.5 -56t19.5 -88t-19.5 -88t-52.5 -56t-72 -19q-36 0 -61.5 15.5zM261 461q16 16 16 40t-16 40t-40 16t-40 -16t-16 -40t16 -40t40 -16t40 16z" />
    <glyph glyph-name="c.sups" horiz-adv-x="320" 
d="M315 638l-44 -96q-19 8 -31.5 11.5t-28.5 3.5q-30 0 -48 -15t-18 -41t18 -41t48 -15q16 0 28.5 4t31.5 11l44 -96q-52 -26 -117 -26q-82 0 -132.5 43.5t-50.5 119.5t50.5 119.5t132.5 43.5q65 0 117 -26z" />
    <glyph glyph-name="d.sups" horiz-adv-x="417" 
d="M87 357q-33 19 -52.5 56t-19.5 88t19.5 88t52.5 56t72 19q36 0 61.5 -15.5t39.5 -42.5h2v204h120v-462h-120v48h-2q-14 -27 -39.5 -42.5t-61.5 -15.5q-39 0 -72 19zM241 461q16 16 16 40t-16 40t-40 16t-40 -16t-16 -40t16 -40t40 -16t40 16z" />
    <glyph glyph-name="e.sups" horiz-adv-x="359" 
d="M301.5 620.5q42.5 -43.5 42.5 -127.5v-16h-215q8 -40 74 -40q43 0 90 19l33 -94q-62 -24 -122 -24q-94 0 -141.5 45.5t-47.5 118.5q0 44 19.5 81t57 59t90.5 22q77 0 119.5 -43.5zM143.5 569.5q-13.5 -12.5 -15.5 -32.5h96q-1 20 -12.5 32.5t-32.5 12.5
q-22 0 -35.5 -12.5z" />
    <glyph glyph-name="f.sups" horiz-adv-x="254" 
d="M192 700.5q-12 -9.5 -12 -32.5v-14h58v-93h-58v-213h-120v213h-50v93h50v14q0 69 37.5 108.5t113.5 39.5h33v-106h-14q-26 0 -38 -9.5z" />
    <glyph glyph-name="g.sups" horiz-adv-x="417" 
d="M83 219l19 100q46 -10 106 -10q30 0 42 14t12 44v29h-2q-14 -27 -39.5 -42.5t-61.5 -15.5q-39 0 -72 19t-52.5 56t-19.5 88t19.5 88t52.5 56t72 19q36 0 61.5 -15.5t39.5 -42.5h2v48h120v-306q0 -142 -155 -142q-84 0 -144 13zM241 461q16 16 16 40t-16 40t-40 16
t-40 -16t-16 -40t16 -40t40 -16t40 16z" />
    <glyph glyph-name="h.sups" horiz-adv-x="401" 
d="M155 608h2q36 56 102 56q52 0 82 -31t30 -93v-192h-120v160q0 27 -12 42t-35 15q-24 0 -36.5 -16t-12.5 -41v-160h-120v462h120v-202z" />
    <glyph glyph-name="i.sups" horiz-adv-x="204" 
d="M164 694h-124v116h124v-116zM162 348h-120v306h120v-306z" />
    <glyph glyph-name="j.sups" horiz-adv-x="205" 
d="M165 694h-124v116h124v-116zM163 334q0 -60 -33 -90t-92 -30h-28v102h8q15 0 20 5.5t5 19.5v313h120v-320z" />
    <glyph glyph-name="k.sups" horiz-adv-x="409" 
d="M160 533l75 121h152l-106 -140l123 -166h-155l-89 137v-137h-120v462h120v-277z" />
    <glyph glyph-name="l.sups" horiz-adv-x="200" 
d="M160 348h-120v462h120v-462z" />
    <glyph glyph-name="m.sups" horiz-adv-x="601" 
d="M539 632.5q32 -31.5 32 -86.5v-198h-120v160q0 27 -12 41t-33 14q-19 0 -31.5 -13.5t-12.5 -44.5v-157h-118v160q0 27 -12 41t-33 14q-19 0 -31.5 -13.5t-12.5 -44.5v-157h-120v306h119v-49h2q14 27 40 43t61 16q31 0 58 -13t41 -46h2q30 59 99 59q50 0 82 -31.5z" />
    <glyph glyph-name="n.sups" horiz-adv-x="401" 
d="M340.5 632.5q30.5 -31.5 30.5 -92.5v-192h-120v160q0 57 -47 57q-24 0 -36.5 -15t-12.5 -42v-160h-120v306h120v-46h2q36 56 103 56q50 0 80.5 -31.5z" />
    <glyph glyph-name="o.sups" horiz-adv-x="384" 
d="M319.5 620.5q49.5 -43.5 49.5 -119.5t-49.5 -119.5t-127.5 -43.5t-127.5 43.5t-49.5 119.5t49.5 119.5t127.5 43.5t127.5 -43.5zM152 541q-16 -16 -16 -40t16 -40t40 -16t40 16t16 40t-16 40t-40 16t-40 -16z" />
    <glyph glyph-name="p.sups" horiz-adv-x="417" 
d="M35 654h120v-48h2q14 27 39.5 42.5t61.5 15.5q39 0 72 -19t52.5 -56t19.5 -88t-19.5 -88t-52.5 -56t-72 -19q-36 0 -61.5 15.5t-39.5 42.5h-2v-180h-120v438zM256 461q16 16 16 40t-16 40t-40 16t-40 -16t-16 -40t16 -40t40 -16t40 16z" />
    <glyph glyph-name="q.sups" horiz-adv-x="417" 
d="M262 396h-2q-14 -27 -39.5 -42.5t-61.5 -15.5q-39 0 -72 19t-52.5 56t-19.5 88t19.5 88t52.5 56t72 19q36 0 61.5 -15.5t39.5 -42.5h2v48h120v-438h-120v180zM241 461q16 16 16 40t-16 40t-40 16t-40 -16t-16 -40t16 -40t40 -16t40 16z" />
    <glyph glyph-name="r.sups" horiz-adv-x="269" 
d="M264 538h-11q-47 0 -72.5 -21t-25.5 -73v-96h-120v306h119v-69h2q13 41 37.5 60t65.5 19h5v-126z" />
    <glyph glyph-name="s.sups" horiz-adv-x="306" 
d="M288 644l-40 -90q-62 25 -90 25q-10 0 -10 -5q0 -4 8 -7l67 -29q39 -17 56 -39t17 -57q0 -104 -142 -104q-71 0 -144 32l47 91q29 -16 59 -26.5t51 -10.5q11 0 11 6q0 5 -10 9l-56 25q-41 18 -59 41t-18 56q0 51 35 77t100 26q61 0 118 -20z" />
    <glyph glyph-name="t.sups" horiz-adv-x="251" 
d="M180 559v-80q0 -13 6 -17.5t19 -4.5h12v-109h-44q-113 0 -113 97v114h-50v95h50v121h120v-121h56v-95h-56z" />
    <glyph glyph-name="u.sups" horiz-adv-x="397" 
d="M362 348h-120v50h-2q-19 -29 -43.5 -44.5t-59.5 -15.5q-46 0 -76.5 27t-30.5 82v207h121v-162q0 -55 45 -55q46 0 46 65v152h120v-306z" />
    <glyph glyph-name="v.sups" horiz-adv-x="378" 
d="M252 348h-126l-126 306h128l61 -185l61 185h128z" />
    <glyph glyph-name="w.sups" horiz-adv-x="561" 
d="M452 348h-120l-52 168l-51 -168h-120l-109 306h124l45 -170l52 170h119l52 -170l45 170h124z" />
    <glyph glyph-name="x.sups" horiz-adv-x="385" 
d="M193 424l-56 -76h-137l118 155l-112 151h137l50 -71l49 71h137l-112 -151l118 -155h-137z" />
    <glyph glyph-name="y.sups" horiz-adv-x="390" 
d="M390 653l-204 -438h-125l76 163l-137 275h135l61 -147l69 147h125z" />
    <glyph glyph-name="z.sups" horiz-adv-x="328" 
d="M299 565l-133 -120h142v-97h-288v90l132 118h-128v98h275v-89z" />
    <glyph glyph-name="zero.dnom" horiz-adv-x="368" 
d="M307.5 343q45.5 -52 45.5 -149q0 -98 -45.5 -150.5t-123.5 -52.5q-77 0 -123 53t-46 150t46 149t123 52q78 0 123.5 -52zM133.5 278.5q-18.5 -27.5 -18.5 -84.5q0 -58 18.5 -86t50.5 -28t50.5 28.5t18.5 85.5t-18.5 84.5t-50.5 27.5t-50.5 -27.5z" />
    <glyph glyph-name="one.dnom" horiz-adv-x="219" 
d="M154 0h-97v286h-22v100h119v-386z" />
    <glyph glyph-name="two.dnom" horiz-adv-x="331" 
d="M275 365.5q36 -29.5 36 -79.5q0 -39 -19.5 -67t-61.5 -68l-58 -55h136v-96h-282v74l130 127q28 28 38.5 43.5t10.5 30.5t-9.5 22.5t-27.5 7.5q-22 0 -33.5 -11t-12.5 -31h-97q0 63 38 97.5t109 34.5q67 0 103 -29.5z" />
    <glyph glyph-name="three.dnom" horiz-adv-x="343" 
d="M273 366q37 -29 37 -74q0 -31 -16.5 -56t-54.5 -34v-2q84 -10 84 -93q0 -48 -35.5 -82t-108.5 -34q-69 0 -108 35t-40 102h97q2 -23 15 -35t40 -12q44 0 44 43q0 26 -19.5 34.5t-63.5 8.5v65q36 1 50.5 11t14.5 27t-10 26t-28 9q-19 0 -30.5 -10t-12.5 -30h-98
q1 58 38.5 94t105.5 36q62 0 99 -29z" />
    <glyph glyph-name="four.dnom" horiz-adv-x="351" 
d="M331 58h-38v-58h-93v58h-190v91l198 237h85v-237h38v-91zM200 149v108h-2l-93 -108h95z" />
    <glyph glyph-name="five.dnom" horiz-adv-x="348" 
d="M293.5 222q34.5 -33 34.5 -93q0 -61 -43 -99.5t-119 -38.5q-83 0 -141 42l45 80q17 -13 44 -22.5t52 -9.5q29 0 46 15t17 42q0 24 -14.5 36.5t-34.5 12.5q-16 0 -29 -8t-19 -21h-79l16 228h224v-94h-151l-5 -63h2q26 26 70 26q50 0 84.5 -33z" />
    <glyph glyph-name="six.dnom" horiz-adv-x="336" 
d="M58.5 30.5q-43.5 39.5 -43.5 107.5q0 49 21 91t60 85l72 80h110l-154 -161l3 -1q14 16 33.5 24.5t40.5 8.5q49 0 84.5 -36.5t35.5 -100.5q0 -36 -17.5 -67.5t-51.5 -50.5t-81 -19q-69 0 -112.5 39.5zM209 95q15 14 15 36t-15.5 36t-38.5 14t-38.5 -14t-15.5 -36t15.5 -36
t38.5 -14q24 0 39 14z" />
    <glyph glyph-name="seven.dnom" horiz-adv-x="303" 
d="M288 298l-160 -298h-103l162 289h-177v97h278v-88z" />
    <glyph glyph-name="eight.dnom" horiz-adv-x="354" 
d="M60.5 22.5q-40.5 31.5 -40.5 79.5q0 43 24 69.5t61 33.5v2q-32 5 -52.5 28t-20.5 58q0 45 38.5 73.5t106.5 28.5t106.5 -28.5t38.5 -73.5q0 -34 -21 -57t-52 -29v-2q36 -7 60.5 -33.5t24.5 -69.5q0 -48 -40.5 -79.5t-116.5 -31.5t-116.5 31.5zM209 260.5q12 8.5 12 24.5
t-12 24.5t-32 8.5t-32 -8.5t-12 -24.5t12 -24.5t32 -8.5t32 8.5zM217.5 88q15.5 11 15.5 31t-15.5 31t-40.5 11t-40.5 -11t-15.5 -31t15.5 -31t40.5 -11t40.5 11z" />
    <glyph glyph-name="nine.dnom" horiz-adv-x="330" 
d="M279.5 354q40.5 -40 40.5 -114q0 -51 -23.5 -97.5t-81.5 -105.5l-36 -37h-110l157 159h-3q-37 -27 -79 -27q-52 0 -88 35.5t-36 92.5q0 59 39.5 96.5t109.5 37.5t110.5 -40zM127.5 295q-15.5 -14 -15.5 -36t15 -36t39 -14q23 0 38.5 14t15.5 36t-15.5 36t-38.5 14
t-38.5 -14z" />
    <glyph glyph-name="zero.numr" horiz-adv-x="368" 
d="M307.5 632q45.5 -52 45.5 -149q0 -98 -45.5 -150.5t-123.5 -52.5q-77 0 -123 53t-46 150t46 149t123 52q78 0 123.5 -52zM133.5 567.5q-18.5 -27.5 -18.5 -84.5q0 -58 18.5 -86t50.5 -28t50.5 28.5t18.5 85.5t-18.5 84.5t-50.5 27.5t-50.5 -27.5z" />
    <glyph glyph-name="one.numr" horiz-adv-x="219" 
d="M154 289h-97v286h-22v100h119v-386z" />
    <glyph glyph-name="two.numr" horiz-adv-x="331" 
d="M275 654.5q36 -29.5 36 -79.5q0 -39 -19.5 -67t-61.5 -68l-58 -55h136v-96h-282v74l130 127q28 28 38.5 43.5t10.5 30.5t-9.5 22.5t-27.5 7.5q-22 0 -33.5 -11t-12.5 -31h-97q0 63 38 97.5t109 34.5q67 0 103 -29.5z" />
    <glyph glyph-name="three.numr" horiz-adv-x="343" 
d="M273 655q37 -29 37 -74q0 -31 -16.5 -56t-54.5 -34v-2q84 -10 84 -93q0 -48 -35.5 -82t-108.5 -34q-69 0 -108 35t-40 102h97q2 -23 15 -35t40 -12q44 0 44 43q0 26 -19.5 34.5t-63.5 8.5v65q36 1 50.5 11t14.5 27t-10 26t-28 9q-19 0 -30.5 -10t-12.5 -30h-98
q1 58 38.5 94t105.5 36q62 0 99 -29z" />
    <glyph glyph-name="four.numr" horiz-adv-x="351" 
d="M331 347h-38v-58h-93v58h-190v91l198 237h85v-237h38v-91zM200 438v108h-2l-93 -108h95z" />
    <glyph glyph-name="five.numr" horiz-adv-x="348" 
d="M293.5 511q34.5 -33 34.5 -93q0 -61 -43 -99.5t-119 -38.5q-83 0 -141 42l45 80q17 -13 44 -22.5t52 -9.5q29 0 46 15t17 42q0 24 -14.5 36.5t-34.5 12.5q-16 0 -29 -8t-19 -21h-79l16 228h224v-94h-151l-5 -63h2q26 26 70 26q50 0 84.5 -33z" />
    <glyph glyph-name="six.numr" horiz-adv-x="336" 
d="M58.5 319.5q-43.5 39.5 -43.5 107.5q0 49 21 91t60 85l72 80h110l-154 -161l3 -1q14 16 33.5 24.5t40.5 8.5q49 0 84.5 -36.5t35.5 -100.5q0 -36 -17.5 -67.5t-51.5 -50.5t-81 -19q-69 0 -112.5 39.5zM209 384q15 14 15 36t-15.5 36t-38.5 14t-38.5 -14t-15.5 -36
t15.5 -36t38.5 -14q24 0 39 14z" />
    <glyph glyph-name="seven.numr" horiz-adv-x="303" 
d="M288 587l-160 -298h-103l162 289h-177v97h278v-88z" />
    <glyph glyph-name="eight.numr" horiz-adv-x="354" 
d="M60.5 311.5q-40.5 31.5 -40.5 79.5q0 43 24 69.5t61 33.5v2q-32 5 -52.5 28t-20.5 58q0 45 38.5 73.5t106.5 28.5t106.5 -28.5t38.5 -73.5q0 -34 -21 -57t-52 -29v-2q36 -7 60.5 -33.5t24.5 -69.5q0 -48 -40.5 -79.5t-116.5 -31.5t-116.5 31.5zM209 549.5q12 8.5 12 24.5
t-12 24.5t-32 8.5t-32 -8.5t-12 -24.5t12 -24.5t32 -8.5t32 8.5zM217.5 377q15.5 11 15.5 31t-15.5 31t-40.5 11t-40.5 -11t-15.5 -31t15.5 -31t40.5 -11t40.5 11z" />
    <glyph glyph-name="nine.numr" horiz-adv-x="330" 
d="M279.5 643q40.5 -40 40.5 -114q0 -51 -23.5 -97.5t-81.5 -105.5l-36 -37h-110l157 159h-3q-37 -27 -79 -27q-52 0 -88 35.5t-36 92.5q0 59 39.5 96.5t109.5 37.5t110.5 -40zM127.5 584q-15.5 -14 -15.5 -36t15 -36t39 -14q23 0 38.5 14t15.5 36t-15.5 36t-38.5 14
t-38.5 -14z" />
    <glyph glyph-name="colon.case" horiz-adv-x="256" 
d="M221 334h-186v188h186v-188zM221 0h-186v188h186v-188z" />
    <glyph glyph-name="exclamdown.case" horiz-adv-x="350" 
d="M82 701h186v-188h-186v188zM108 460h134l38 -459h-210z" />
    <glyph glyph-name="questiondown.case" horiz-adv-x="492" 
d="M166 700h186v-188h-186v188zM72 37q-52 52 -52 128q0 40 16.5 78t55.5 76l16 15q30 29 44.5 52.5t14.5 62.5v10h183v-29q0 -101 -78 -162q-33 -26 -47.5 -41t-14.5 -38q0 -18 10.5 -27.5t28.5 -9.5q24 0 36 16t12 44h175q0 -103 -59 -165t-177 -62q-112 0 -164 52z" />
    <glyph glyph-name="semicolon.case" horiz-adv-x="256" 
d="M221 0l-113 -177h-73l63 177h-63v188h186v-188zM221 334h-186v188h186v-188z" />
    <glyph glyph-name="colon.case.ss01" horiz-adv-x="256" 
d="M205.5 170.5q30.5 -30.5 30.5 -77.5t-30.5 -77.5t-77.5 -30.5t-77.5 30.5t-30.5 77.5t30.5 77.5t77.5 30.5t77.5 -30.5zM205.5 507.5q30.5 -30.5 30.5 -77.5t-30.5 -77.5t-77.5 -30.5t-77.5 30.5t-30.5 77.5t30.5 77.5t77.5 30.5t77.5 -30.5z" />
    <glyph glyph-name="exclamdown.case.ss01" horiz-adv-x="350" 
d="M97.5 529.5q-30.5 30.5 -30.5 77.5t30.5 77.5t77.5 30.5t77.5 -30.5t30.5 -77.5t-30.5 -77.5t-77.5 -30.5t-77.5 30.5zM108 459h134l38 -459h-210z" />
    <glyph glyph-name="questiondown.case.ss01" horiz-adv-x="477" 
d="M177.5 529.5q-30.5 30.5 -30.5 77.5t30.5 77.5t77.5 30.5t77.5 -30.5t30.5 -77.5t-30.5 -77.5t-77.5 -30.5t-77.5 30.5zM72 37.5q-52 52.5 -52 128.5q0 40 16.5 78t55.5 76l16 15q30 29 44.5 52.5t14.5 62.5v10h183v-29q0 -101 -78 -162q-33 -26 -47.5 -41t-14.5 -38
q0 -18 10.5 -27.5t28.5 -9.5q24 0 36 16t12 44h175q0 -104 -59 -166t-177 -62q-112 0 -164 52.5z" />
    <glyph glyph-name="semicolon.case.ss01" horiz-adv-x="256" 
d="M205.5 507.5q30.5 -30.5 30.5 -77.5t-30.5 -77.5t-77.5 -30.5t-77.5 30.5t-30.5 77.5t30.5 77.5t77.5 30.5t77.5 -30.5zM213 28l-115 -202h-64l49 168q-29 11 -46 37.5t-17 63.5q0 45 30 74.5t75 29.5q49 0 78 -28.5t29 -75.5q0 -33 -19 -67z" />
    <glyph glyph-name="braceleft.case" horiz-adv-x="426" 
d="M416 697h-30q-44 0 -64.5 -14t-20.5 -49v-126q0 -66 -32.5 -106t-100.5 -56v-2q68 -15 100.5 -55t32.5 -107v-116q0 -34 20 -48.5t63 -14.5h32v-148h-40q-92 0 -152.5 51t-60.5 154v106q0 53 -33 78t-95 28v147q62 3 95 28t33 77v116q0 103 60.5 154t152.5 51h40v-148z
" />
    <glyph glyph-name="braceright.case" horiz-adv-x="426" 
d="M10 3h32q43 0 63 14.5t20 48.5v116q0 67 32.5 107t100.5 55v2q-68 16 -100.5 56t-32.5 106v126q0 35 -20.5 49t-64.5 14h-30v148h40q92 0 152.5 -51t60.5 -154v-116q0 -52 33 -77t95 -28v-147q-62 -3 -95 -28t-33 -78v-106q0 -103 -60.5 -154t-152.5 -51h-40v148z" />
    <glyph glyph-name="bracketleft.case" horiz-adv-x="360" 
d="M350 720h-135v-745h135v-120h-280v985h280v-120z" />
    <glyph glyph-name="bracketright.case" horiz-adv-x="360" 
d="M10 -25h135v745h-135v120h280v-985h-280v120z" />
    <glyph glyph-name="parenleft.case" horiz-adv-x="348" 
d="M326 800q-34 -57 -60 -110t-45.5 -130.5t-19.5 -170.5q0 -143 37 -254.5t90 -210.5l-128 -69q-43 81 -73.5 153.5t-51 168.5t-20.5 212q0 106 20 191.5t49.5 149t74.5 140.5z" />
    <glyph glyph-name="parenright.case" horiz-adv-x="348" 
d="M20 -76q53 99 90 210.5t37 254.5q0 93 -19.5 170.5t-45.5 130.5t-60 110l127 70q45 -77 74.5 -140.5t49.5 -149t20 -191.5q0 -116 -20.5 -212t-51 -168.5t-73.5 -153.5z" />
    <glyph glyph-name="emdash.case" horiz-adv-x="1154" 
d="M1104 288h-1054v134h1054v-134z" />
    <glyph glyph-name="endash.case" horiz-adv-x="732" 
d="M692 282h-652v140h652v-140z" />
    <glyph glyph-name="hyphen.case" horiz-adv-x="351" 
d="M316 266h-281v160h281v-160z" />
    <glyph glyph-name="guillemotleft.case" horiz-adv-x="658" 
d="M210 320l174 -186h-195l-174 186l174 186h195zM474 320l174 -186h-195l-174 186l174 186h195z" />
    <glyph glyph-name="guillemotright.case" horiz-adv-x="658" 
d="M205 506l174 -186l-174 -186h-195l174 186l-174 186h195zM469 506l174 -186l-174 -186h-195l174 186l-174 186h195z" />
    <glyph glyph-name="guilsinglleft.case" horiz-adv-x="394" 
d="M210 320l174 -186h-195l-174 186l174 186h195z" />
    <glyph glyph-name="guilsinglright.case" horiz-adv-x="394" 
d="M205 506l174 -186l-174 -186h-195l174 186l-174 186h195z" />
    <glyph glyph-name="approxequal.case" 
d="M241 526q30 -13 72 -39q39 -23 62 -34t48 -11q58 0 84 78h73q-21 -84 -64 -121t-93 -37q-33 0 -62.5 13t-73.5 39q-36 22 -60.5 33.5t-49.5 11.5q-58 0 -84 -78h-73q22 84 64.5 121t93.5 37q33 0 63 -13zM241 323q30 -13 72 -39q39 -23 62 -34t48 -11q30 0 50.5 19.5
t33.5 58.5h73q-21 -84 -64 -121t-93 -37q-33 0 -62.5 13t-73.5 39q-36 22 -60.5 33.5t-49.5 11.5q-58 0 -84 -78h-73q22 84 64.5 121t93.5 37q33 0 63 -13z" />
    <glyph glyph-name="divide.case" 
d="M354 457h-108v108h108v-108zM559 302h-518v75h518v-75zM354 113h-108v108h108v-108z" />
    <glyph glyph-name="equal.case" 
d="M553 415h-506v76h506v-76zM553 188h-506v76h506v-76z" />
    <glyph glyph-name="greater.case" 
d="M540 382v-84l-480 -214v89l391 167l-391 167v89z" />
    <glyph glyph-name="less.case" 
d="M540 507l-391 -167l391 -167v-89l-480 214v84l480 214v-89z" />
    <glyph glyph-name="logicalnot.case" 
d="M528 472v-265h-78v190h-379v75h457z" />
    <glyph glyph-name="minus.case" 
d="M538 298h-477v80h477v-80z" />
    <glyph glyph-name="multiply.case" 
d="M527 509l-171 -171l171 -171l-56 -56l-171 171l-171 -171l-56 56l171 171l-171 171l56 56l171 -171l171 171z" />
    <glyph glyph-name="notequal.case" 
d="M387 415l-95 -151h261v-76h-308l-50 -80h-78l50 80h-120v76h167l95 151h-262v76h309l49 78h78l-49 -78h119v-76h-166z" />
    <glyph glyph-name="plus.case" 
d="M339 375h206v-75h-206v-206h-78v206h-206v75h206v206h78v-206z" />
    <glyph glyph-name="divide.ss01.case" 
d="M255 459.5q-17 17.5 -17 44.5t17 44.5t45 17.5t45 -17.5t17 -44.5t-17 -44.5t-45 -17.5t-45 17.5zM41 376h518v-74h-518v74zM255 129.5q-17 17.5 -17 44.5t17 44.5t45 17.5t45 -17.5t17 -44.5t-17 -44.5t-45 -17.5t-45 17.5z" />
    <glyph glyph-name="arrowup.case" horiz-adv-x="770" 
d="M605 281l-146 151v-431h-148v431l-146 -151l-115 112l335 320l335 -320z" />
    <glyph glyph-name="uni2197.case" horiz-adv-x="667" 
d="M456 152l3 209l-304 -304l-105 104l305 305l-210 -3l-2 160l463 -11l11 -463z" />
    <glyph glyph-name="arrowright.case" horiz-adv-x="812" 
d="M762 371l-320 -335l-112 115l151 146h-431v148h431l-151 146l112 115z" />
    <glyph glyph-name="uni2198.case" horiz-adv-x="666" 
d="M616 590l-11 -463l-463 -11l3 161l209 -3l-304 304l104 105l305 -305l-3 210z" />
    <glyph glyph-name="arrowdown.case" horiz-adv-x="770" 
d="M720 348l-335 -320l-335 320l115 112l146 -151v431h148v-431l146 151z" />
    <glyph glyph-name="uni2199.case" horiz-adv-x="667" 
d="M522 277l2 -160l-463 11l-11 463l161 -3l-3 -209l304 304l105 -104l-305 -305z" />
    <glyph glyph-name="arrowleft.case" horiz-adv-x="812" 
d="M762 296h-431l151 -146l-112 -115l-320 335l320 335l112 -115l-151 -146h431v-148z" />
    <glyph glyph-name="uni2196.case" horiz-adv-x="666" 
d="M512 57l-305 305l3 -210l-160 -2l11 463l463 11l-3 -161l-209 3l304 -304z" />
    <glyph glyph-name="arrowboth.case" horiz-adv-x="1242" 
d="M1192 370l-320 -335l-112 115l151 146h-580l151 -146l-112 -115l-320 335l320 335l112 -115l-151 -146h580l-151 146l112 115z" />
    <glyph glyph-name="bar.case" horiz-adv-x="340" 
d="M230 -135h-120v942h120v-942z" />
    <glyph glyph-name="brokenbar.case" horiz-adv-x="340" 
d="M230 419h-120v388h120v-388zM230 -135h-120v396h120v-396z" />
    <glyph glyph-name="at.case" horiz-adv-x="948" 
d="M710.5 714q96.5 -46 149.5 -132t53 -204q0 -65 -22 -124.5t-68 -97t-115 -37.5q-49 0 -84 22t-50 65h-2q-25 -43 -56 -64t-77 -21q-82 0 -135.5 55.5t-53.5 161.5q0 72 25.5 121.5t68.5 73.5t94 24q46 0 75 -17.5t49 -47.5h3v50h132v-277q0 -22 8.5 -31.5t26.5 -9.5
q15 0 31 19.5t26.5 54.5t10.5 78q0 92 -41 154t-111.5 92.5t-161.5 30.5q-97 0 -173.5 -35.5t-120.5 -106t-44 -173.5t46 -174t122 -106.5t168 -35.5q70 0 152 22l31 -103q-93 -26 -184 -26q-119 0 -221 46t-164.5 140.5t-62.5 233.5q0 132 56 228t158 146.5t236 50.5
q129 0 225.5 -46zM429.5 394.5q-21.5 -19.5 -21.5 -55.5t21.5 -55.5t51.5 -19.5q31 0 52 19.5t21 55.5t-21 55.5t-52 19.5q-30 0 -51.5 -19.5z" />
    <glyph glyph-name="uniF8FF.ss01" horiz-adv-x="770" 
d="M197 32q-83 47 -130 130.5t-47 187.5t47 187.5t130 130.5t188 47t188 -47t130 -130.5t47 -187.5t-47 -187.5t-130 -130.5t-188 -47t-188 47zM558.5 54q78.5 44 123.5 122.5t45 178.5l-51 65l-70 -30l-68 90l-79 -44l-74 118l-74 -118l-79 44l-68 -90l-70 30l-51 -65
q0 -100 45 -178.5t123.5 -122.5t173.5 -44t173.5 44zM257 328q-10 10 -10 25t10 25t25 10t25 -10t10 -25t-10 -25t-25 -10t-25 10zM462 328q-10 10 -10 25t10 25t25 10t25 -10t10 -25t-10 -25t-25 -10t-25 10zM379 356q1 4 4 5.5t7 -0.5q3 -1 4.5 -4t0.5 -7l-28 -78h34
q4 0 6.5 -2.5t2.5 -6.5q0 -3 -2.5 -5.5t-6.5 -2.5h-58zM138.5 190.5q-19.5 19.5 -19.5 49.5t19.5 49.5t49.5 19.5t49.5 -19.5t19.5 -49.5t-19.5 -49.5t-49.5 -19.5t-49.5 19.5zM531.5 190.5q-19.5 19.5 -19.5 49.5t19.5 49.5t49.5 19.5t49.5 -19.5t19.5 -49.5t-19.5 -49.5
t-49.5 -19.5t-49.5 19.5zM447 225q3 6 9 6q8 0 8 -9q0 -8 -8.5 -18.5t-26.5 -18.5t-44 -8t-44 8t-26.5 18.5t-8.5 18.5q0 9 8 9q6 0 9 -6q17 -30 62 -30t62 30z" />
    <glyph glyph-name="uni0308.case" horiz-adv-x="0" 
d="M-271 743h-151v120h151v-120zM-50 743h-151v120h151v-120z" />
    <glyph glyph-name="uni0307.case" horiz-adv-x="0" 
d="M-50 743h-166v143h166v-143z" />
    <glyph glyph-name="gravecomb.case" horiz-adv-x="0" 
d="M-50 743h-131l-187 120h190z" />
    <glyph glyph-name="acutecomb.case" horiz-adv-x="0" 
d="M-237 743h-131l128 120h190z" />
    <glyph glyph-name="uni030B.case" horiz-adv-x="0" 
d="M-355 743h-125l112 120h133zM-170 743h-125l112 120h133z" />
    <glyph glyph-name="uni0302.case" horiz-adv-x="0" 
d="M-50 743h-150l-58 63l-57 -63h-150l120 120h175z" />
    <glyph glyph-name="uni030C.case" horiz-adv-x="0" 
d="M-345 743l-120 120h150l57 -62l58 62h150l-120 -120h-175z" />
    <glyph glyph-name="uni0306.case" horiz-adv-x="0" 
d="M-106 764q-48 -36 -126 -36q-79 0 -127 36t-56 99h122q2 -18 18 -28.5t43 -10.5t43 10.5t18 28.5h121q-8 -63 -56 -99z" />
    <glyph glyph-name="uni030A.case" horiz-adv-x="0" 
d="M-83.5 831q33.5 -33 33.5 -84t-33.5 -84t-86.5 -33t-86.5 33t-33.5 84t33.5 84t86.5 33t86.5 -33zM-205 779.5q-13 -13.5 -13 -32.5q0 -20 13 -33.5t35 -13.5q21 0 34 14t13 33t-13 32.5t-34 13.5q-22 0 -35 -13.5z" />
    <glyph glyph-name="tildecomb.case" horiz-adv-x="0" 
d="M-466 750q20 65 47.5 96t76.5 31q22 0 54 -6t61 -12q6 -1 31.5 -6.5t38.5 -5.5q17 0 28 8.5t25 25.5l54 -18q-19 -65 -46.5 -96t-77.5 -31q-22 0 -54 6t-61 12q-6 1 -31.5 6.5t-38.5 5.5q-17 0 -28 -9t-25 -26z" />
    <glyph glyph-name="uni0304.case" horiz-adv-x="0" 
d="M-50 742h-345v109h345v-109z" />
    <glyph glyph-name="uni0308.ss01" horiz-adv-x="0" 
d="M-300 682q25 -25 25 -63t-25 -63.5t-63 -25.5t-63.5 25.5t-25.5 63.5t25.5 63t63.5 25t63 -25zM-75 682q25 -25 25 -63t-25 -63.5t-63 -25.5t-63.5 25.5t-25.5 63.5t25.5 63t63.5 25t63 -25z" />
    <glyph glyph-name="uni0307.ss01" horiz-adv-x="0" 
d="M-80 685.5q30 -29.5 30 -73.5q0 -43 -30 -73t-73 -30q-44 0 -73.5 30t-29.5 73q0 44 29.5 73.5t73.5 29.5q43 0 73 -29.5z" />
    <glyph glyph-name="uni0312.ss01" horiz-adv-x="0" 
d="M-168 663l50 51h61l-27 -50q16 -9 25 -24.5t9 -35.5q0 -30 -19.5 -50t-50.5 -20q-32 0 -53 20t-21 51q0 32 26 58z" />
    <glyph glyph-name="uni0326.ss01" horiz-adv-x="0" 
d="M-76 -159l-50 -51h-61l27 50q-16 9 -25 24.5t-9 35.5q0 30 19.5 50t50.5 20q32 0 53 -20t21 -51q0 -32 -26 -58z" />
    <glyph glyph-name="uni0308.case.ss01" horiz-adv-x="0" 
d="M-315 875q25 -25 25 -62t-25 -62t-62 -25t-62 25t-25 62t25 62t62 25t62 -25zM-75 875q25 -25 25 -62t-25 -62t-62 -25t-62 25t-25 62t25 62t62 25t62 -25z" />
    <glyph glyph-name="uni0307.case.ss01" horiz-adv-x="0" 
d="M-75 875q25 -25 25 -62t-25 -62t-62 -25t-62 25t-25 62t25 62t62 25t62 -25z" />
    <glyph glyph-name="dieresiscasecomb.ss01" horiz-adv-x="234" 
d="M179 875q25 -25 25 -62t-25 -62t-62 -25t-62 25t-25 62t25 62t62 25t62 -25z" />
    <glyph glyph-name="dieresisdotcomb.ss01" horiz-adv-x="277" 
d="M202 675q25 -25 25 -63t-25 -63.5t-63 -25.5t-63.5 25.5t-25.5 63.5t25.5 63t63.5 25t63 -25z" />
    <glyph glyph-name="circlecomb" horiz-adv-x="830" 
d="M226 32q-83 47 -129.5 130.5t-46.5 187.5t46.5 187.5t129.5 130.5t189 47t189 -47t129.5 -130.5t46.5 -187.5t-46.5 -187.5t-129.5 -130.5t-189 -47t-189 47zM550 114.5q59 34.5 92 96t33 139.5t-33 139.5t-92 96t-135 34.5t-135 -34.5t-92 -96t-33 -139.5t33 -139.5
t92 -96t135 -34.5t135 34.5z" />
    <glyph glyph-name="circleinvertcomb" horiz-adv-x="830" 
d="M228.5 32.5q-83.5 47.5 -131 131t-47.5 186.5t47.5 186.5t131 131t186.5 47.5t186.5 -47.5t131 -131t47.5 -186.5t-47.5 -186.5t-131 -131t-186.5 -47.5t-186.5 47.5z" />
    </font>
</defs>
</svg>
