<?xml version="1.0" standalone="no"?>
<!DOCTYPE svg PUBLIC "-//W3C//DTD SVG 1.1//EN" "http://www.w3.org/Graphics/SVG/1.1/DTD/svg11.dtd" >
<svg xmlns="http://www.w3.org/2000/svg" xmlns:xlink="http://www.w3.org/1999/xlink" version="1.1">
<metadata>
Created by FontForge 20170731 at Thu Jun 30 20:48:53 2016
 By Aleksey,,,
Copyright (c) 2015 by Reto Moser. All rights reserved.
</metadata>
<defs>
<font id="GTEestiDisplay-UltraLight" horiz-adv-x="600" >
  <font-face 
    font-family="GT Eesti Display UltraLight"
    font-weight="250"
    font-stretch="normal"
    units-per-em="1000"
    panose-1="0 0 3 0 0 0 0 0 0 0"
    ascent="750"
    descent="-250"
    x-height="462"
    cap-height="700"
    bbox="-375 -249 1211 896"
    underline-thickness="50"
    underline-position="-150"
    unicode-range="U+0020-FB02"
  />
<missing-glyph horiz-adv-x="770" 
d="M197.5 32q-83.5 47 -130.5 130.5t-47 187.5q0 105 47 188t130.5 130t187.5 47q105 0 188 -47t130 -130t47 -188q0 -104 -47 -187.5t-130 -130.5t-188 -47q-104 0 -187.5 47zM560 54.5q78 44.5 122.5 123.5t44.5 177l-51 65l-70 -30l-68 90l-79 -44l-74 118l-74 -118
l-79 44l-68 -90l-70 30l-51 -65q0 -98 44.5 -177t122.5 -123.5t175 -44.5t175 44.5zM257 328q-10 10 -10 25t10 25t25 10t25 -10t10 -25t-10 -25t-25 -10t-25 10zM462 328q-10 10 -10 25t10 25t25 10t25 -10t10 -25t-10 -25t-25 -10t-25 10zM379 356q1 4 4 5.5t7 -0.5
q3 -1 4.5 -4t0.5 -7l-28 -78h34q4 0 6.5 -2.5t2.5 -6.5q0 -3 -2.5 -5.5t-6.5 -2.5h-58zM138.5 190.5q-19.5 19.5 -19.5 49.5t19.5 49.5t49.5 19.5t49.5 -19.5t19.5 -49.5t-19.5 -49.5t-49.5 -19.5t-49.5 19.5zM531.5 190.5q-19.5 19.5 -19.5 49.5t19.5 49.5t49.5 19.5
t49.5 -19.5t19.5 -49.5t-19.5 -49.5t-49.5 -19.5t-49.5 19.5zM346.5 185q-16.5 -8 -23.5 -22q-3 -6 -9 -6q-8 0 -8 9q0 17 24.5 31t54.5 14t54.5 -14t24.5 -31q0 -9 -8 -9q-6 0 -9 6q-7 14 -23.5 22t-38.5 8t-38.5 -8z" />
    <glyph glyph-name="fi" unicode="fi" horiz-adv-x="484" 
d="M195.5 646.5q-29.5 -27.5 -29.5 -92.5v-92h122v-34h-122v-428h-36v428h-100v34h100v94q0 154 145 154h13v-36h-10q-53 0 -82.5 -27.5zM383 462h36v-462h-36v462zM427 570h-52v120h52v-120z" />
    <glyph glyph-name="fl" unicode="fl" horiz-adv-x="494" 
d="M195.5 646.5q-29.5 -27.5 -29.5 -92.5v-92h122v-34h-122v-428h-36v428h-100v34h100v94q0 154 145 154h13v-36h-10q-53 0 -82.5 -27.5zM424 0h-36v700h36v-700z" />
    <glyph glyph-name="f_f" unicode="ff" horiz-adv-x="636" 
d="M195.5 646.5q-29.5 -27.5 -29.5 -92.5v-92h122v-34h-122v-428h-36v428h-100v34h100v94q0 154 145 154h13v-36h-10q-53 0 -82.5 -27.5zM513.5 646.5q-29.5 -27.5 -29.5 -92.5v-92h122v-34h-122v-428h-36v428h-100v34h100v94q0 154 145 154h13v-36h-10q-53 0 -82.5 -27.5z
" />
    <glyph glyph-name="f_f_i" unicode="ffi" horiz-adv-x="802" 
d="M195.5 646.5q-29.5 -27.5 -29.5 -92.5v-92h122v-34h-122v-428h-36v428h-100v34h100v94q0 154 145 154h13v-36h-10q-53 0 -82.5 -27.5zM513.5 646.5q-29.5 -27.5 -29.5 -92.5v-92h122v-34h-122v-428h-36v428h-100v34h100v94q0 154 145 154h13v-36h-10q-53 0 -82.5 -27.5z
M701 462h36v-462h-36v462zM745 570h-52v120h52v-120z" />
    <glyph glyph-name="f_f_l" unicode="ffl" horiz-adv-x="812" 
d="M195.5 646.5q-29.5 -27.5 -29.5 -92.5v-92h122v-34h-122v-428h-36v428h-100v34h100v94q0 154 145 154h13v-36h-10q-53 0 -82.5 -27.5zM513.5 646.5q-29.5 -27.5 -29.5 -92.5v-92h122v-34h-122v-428h-36v428h-100v34h100v94q0 154 145 154h13v-36h-10q-53 0 -82.5 -27.5z
M742 0h-36v700h36v-700z" />
    <glyph glyph-name=".notdef" horiz-adv-x="770" 
d="M197.5 32q-83.5 47 -130.5 130.5t-47 187.5q0 105 47 188t130.5 130t187.5 47q105 0 188 -47t130 -130t47 -188q0 -104 -47 -187.5t-130 -130.5t-188 -47q-104 0 -187.5 47zM560 54.5q78 44.5 122.5 123.5t44.5 177l-51 65l-70 -30l-68 90l-79 -44l-74 118l-74 -118
l-79 44l-68 -90l-70 30l-51 -65q0 -98 44.5 -177t122.5 -123.5t175 -44.5t175 44.5zM257 328q-10 10 -10 25t10 25t25 10t25 -10t10 -25t-10 -25t-25 -10t-25 10zM462 328q-10 10 -10 25t10 25t25 10t25 -10t10 -25t-10 -25t-25 -10t-25 10zM379 356q1 4 4 5.5t7 -0.5
q3 -1 4.5 -4t0.5 -7l-28 -78h34q4 0 6.5 -2.5t2.5 -6.5q0 -3 -2.5 -5.5t-6.5 -2.5h-58zM138.5 190.5q-19.5 19.5 -19.5 49.5t19.5 49.5t49.5 19.5t49.5 -19.5t19.5 -49.5t-19.5 -49.5t-49.5 -19.5t-49.5 19.5zM531.5 190.5q-19.5 19.5 -19.5 49.5t19.5 49.5t49.5 19.5
t49.5 -19.5t19.5 -49.5t-19.5 -49.5t-49.5 -19.5t-49.5 19.5zM346.5 185q-16.5 -8 -23.5 -22q-3 -6 -9 -6q-8 0 -8 9q0 17 24.5 31t54.5 14t54.5 -14t24.5 -31q0 -9 -8 -9q-6 0 -9 6q-7 14 -23.5 22t-38.5 8t-38.5 -8z" />
    <glyph glyph-name=".null" horiz-adv-x="0" 
 />
    <glyph glyph-name="nonmarkingreturn" horiz-adv-x="350" 
 />
    <glyph glyph-name="space" unicode=" " horiz-adv-x="310" 
 />
    <glyph glyph-name="exclam" unicode="!" horiz-adv-x="280" 
d="M119 700h42l-8 -503h-26zM180 0h-80v80h80v-80z" />
    <glyph glyph-name="quotedbl" unicode="&#x22;" horiz-adv-x="232" 
d="M50 715h44l-13 -253h-18zM138 715h44l-13 -253h-18z" />
    <glyph glyph-name="numbersign" unicode="#" horiz-adv-x="633" 
d="M451 462l-37 -202h130v-30h-135l-42 -230h-35l42 230h-160l-42 -230h-35l42 230h-129v30h134l37 202h-132v30h137l38 208h35l-38 -208h160l38 208h35l-38 -208h127v-30h-132zM416 462h-160l-37 -202h160z" />
    <glyph glyph-name="dollar" unicode="$" horiz-adv-x="498" 
d="M416 37.5q-52 -46.5 -145 -51.5v-63h-28v62q-96 2 -153.5 49t-59.5 135h38q2 -72 48.5 -109t126.5 -39v323q-58 22 -94.5 42t-61 54.5t-24.5 87.5q0 75 49 116.5t131 45.5v72h28v-72q85 -2 137 -44t53 -129h-38q-7 132 -152 137v-281q64 -24 103.5 -45.5t66.5 -60.5
t27 -100q0 -83 -52 -129.5zM137.5 441.5q36.5 -31.5 105.5 -57.5v270q-65 -4 -103.5 -35.5t-38.5 -88.5t36.5 -88.5zM390 66.5q40 40.5 40 101.5q0 46 -21 76.5t-54 49.5t-84 39v-311q79 4 119 44.5z" />
    <glyph glyph-name="percent" unicode="%" horiz-adv-x="743" 
d="M316.5 646.5q43.5 -43.5 43.5 -111.5q0 -67 -43.5 -111t-111.5 -44q-67 0 -111 44t-44 111q0 68 44 111.5t111 43.5q68 0 111.5 -43.5zM541 675h36l-395 -675h-36zM118.5 623q-32.5 -33 -32.5 -88t32.5 -88t86.5 -33t86.5 33t32.5 88t-32.5 88t-86.5 33t-86.5 -33z
M649.5 261.5q43.5 -43.5 43.5 -111.5q0 -67 -43.5 -111t-111.5 -44q-67 0 -111 44t-44 111q0 68 44 111.5t111 43.5q68 0 111.5 -43.5zM451.5 238q-32.5 -33 -32.5 -88t32.5 -88t86.5 -33t86.5 33t32.5 88t-32.5 88t-86.5 33t-86.5 -33z" />
    <glyph glyph-name="ampersand" unicode="&#x26;" horiz-adv-x="673" 
d="M583 0l-81 95q-91 -110 -225 -110q-66 0 -119 25.5t-83 74.5t-30 115q0 81 45.5 139.5t128.5 88.5q-30 38 -46.5 73t-16.5 70q0 52 37.5 85.5t107.5 33.5q65 0 138 -31l-16 -36q-65 29 -122 29q-49 0 -76 -22.5t-27 -59.5q0 -31 18 -62.5t50 -69.5l233 -279q44 67 75 161
l38 -13q-38 -109 -86 -180l107 -127h-50zM476 126l-229 268q-160 -55 -160 -192q0 -82 53 -130.5t136 -48.5q117 0 200 103z" />
    <glyph glyph-name="quotesingle" unicode="'" horiz-adv-x="144" 
d="M81 462h-18l-13 253h44z" />
    <glyph glyph-name="parenleft" unicode="(" horiz-adv-x="262" 
d="M242 734q-82 -106 -120.5 -215t-38.5 -239q0 -135 38.5 -248t120.5 -224l-31 -23q-81 111 -123.5 227.5t-42.5 267.5q0 146 42.5 259t123.5 218z" />
    <glyph glyph-name="parenright" unicode=")" horiz-adv-x="262" 
d="M20 -192q82 111 120.5 224t38.5 248q0 130 -38.5 239t-120.5 215l31 23q81 -105 123.5 -218t42.5 -259q0 -151 -42.5 -267.5t-123.5 -227.5z" />
    <glyph glyph-name="asterisk" unicode="*" horiz-adv-x="396" 
d="M215 539l98 -123l-28 -20l-86 131l-87 -132l-28 21l98 122l-152 42l11 33l146 -55l-7 157h35l-7 -156l147 55l11 -33z" />
    <glyph glyph-name="plus" unicode="+" 
d="M315 312h229v-28h-229v-230h-30v230h-229v28h229v230h30v-230z" />
    <glyph glyph-name="comma" unicode="," horiz-adv-x="190" 
d="M135 0l-53 -140h-27l46 140h-46v80h80v-80z" />
    <glyph glyph-name="hyphen" unicode="-" horiz-adv-x="342" 
d="M297 254h-252v40h252v-40z" />
    <glyph glyph-name="period" unicode="." horiz-adv-x="190" 
d="M135 0h-80v80h80v-80z" />
    <glyph glyph-name="slash" unicode="/" horiz-adv-x="546" 
d="M516 753l-456 -836l-30 16l456 836z" />
    <glyph glyph-name="zero" unicode="0" horiz-adv-x="566" 
d="M407 648q54 -42 84 -121.5t30 -188.5t-30 -189t-84 -122t-124 -42t-124 42t-84 122t-30 189t30 188.5t84 121.5t124 42t124 -42zM179 615q-45 -39 -70.5 -110.5t-25.5 -166.5t25.5 -166.5t70.5 -111t104 -39.5t104 39.5t70.5 111t25.5 166.5t-25.5 166.5t-70.5 110.5
t-104 39t-104 -39z" />
    <glyph glyph-name="one" unicode="1" horiz-adv-x="294" 
d="M174 0h-36v641h-68v34h104v-675z" />
    <glyph glyph-name="two" unicode="2" horiz-adv-x="503" 
d="M45 34l275 288q44 47 70 90.5t26 91.5q0 65 -44 107.5t-119 42.5q-69 0 -118 -39.5t-52 -115.5h-36q1 89 57.5 140t148.5 51q94 0 147.5 -50.5t53.5 -134.5q0 -55 -27 -105t-74 -98l-259 -267h364v-35h-413v34z" />
    <glyph glyph-name="three" unicode="3" horiz-adv-x="528" 
d="M399 644.5q50 -45.5 50 -123.5q0 -60 -34 -102t-103 -54v-1q79 -4 125 -51.5t46 -130.5q0 -90 -53.5 -143.5t-162.5 -53.5q-97 0 -155.5 44.5t-66.5 131.5h38q6 -65 50.5 -102.5t132.5 -37.5q85 0 132 40.5t47 124.5q0 83 -51.5 120.5t-170.5 37.5h-43v34h43
q89 0 138.5 35t49.5 106q0 64 -40 99.5t-111 35.5q-68 0 -113 -33t-48 -98h-38q4 78 57 122.5t140 44.5q91 0 141 -45.5z" />
    <glyph glyph-name="four" unicode="4" horiz-adv-x="562" 
d="M527 141h-98v-141h-36v141h-373v32l352 502h57v-499h98v-35zM393 176v462h-2l-325 -462h327z" />
    <glyph glyph-name="five" unicode="5" horiz-adv-x="520" 
d="M418 381.5q62 -57.5 62 -169.5q0 -104 -60 -165.5t-171 -61.5q-86 0 -145 38.5t-84 110.5l32 14q27 -62 73 -94.5t123 -32.5q101 0 147.5 53t46.5 138q0 94 -51 142.5t-133 48.5q-58 0 -100 -24t-73 -69h-34l50 365h325v-34h-295l-38 -273h3q64 71 165 71q95 0 157 -57.5
z" />
    <glyph glyph-name="six" unicode="6" horiz-adv-x="518" 
d="M153 11q-53 26 -85.5 78.5t-32.5 127.5q0 59 21.5 113.5t66.5 111.5l193 240h46l-242 -300l3 -2q36 32 73 45.5t83 13.5q65 0 115 -28t77 -79t27 -117q0 -67 -30 -119.5t-83 -81.5t-119 -29q-60 0 -113 26zM366.5 45q43.5 24 68.5 67.5t25 99.5q0 55 -24 98.5t-66.5 68
t-96.5 24.5q-57 0 -102 -24.5t-70.5 -68.5t-25.5 -98q0 -56 24 -99t68 -67.5t101 -24.5q55 0 98.5 24z" />
    <glyph glyph-name="seven" unicode="7" horiz-adv-x="428" 
d="M418 641l-300 -641h-38l300 639h-365v36h403v-34z" />
    <glyph glyph-name="eight" unicode="8" horiz-adv-x="546" 
d="M108.5 39.5q-58.5 54.5 -58.5 141.5q0 66 37 115t97 64v2q-49 16 -81.5 55.5t-32.5 102.5q0 77 53.5 123.5t149.5 46.5t149.5 -46.5t53.5 -123.5q0 -63 -32.5 -102.5t-81.5 -55.5v-2q60 -15 97 -64t37 -115q0 -87 -58.5 -141.5t-164.5 -54.5t-164.5 54.5zM393 416.5
q45 39.5 45 101.5t-45 99t-120 37t-120 -37t-45 -99t45 -101.5t120 -39.5t120 39.5zM408.5 63q49.5 42 49.5 116q0 73 -47.5 117.5t-137.5 44.5t-137.5 -44.5t-47.5 -117.5q0 -74 49.5 -116t135.5 -42t135.5 42z" />
    <glyph glyph-name="nine" unicode="9" horiz-adv-x="508" 
d="M405 294l-3 2q-64 -60 -154 -60q-66 0 -116.5 29.5t-78.5 80.5t-28 114q0 70 29.5 122t82 80t120.5 28q65 0 117.5 -25.5t83 -78t30.5 -128.5q0 -118 -88 -225l-191 -233h-46zM356 296.5q45 24.5 70.5 68.5t25.5 98q0 56 -24.5 99t-69 67.5t-102.5 24.5q-55 0 -99 -24
t-69 -68t-25 -100q0 -55 24.5 -98.5t68 -67.5t98.5 -24q57 0 102 24.5z" />
    <glyph glyph-name="colon" unicode=":" horiz-adv-x="190" 
d="M135 0h-80v80h80v-80zM135 382h-80v80h80v-80z" />
    <glyph glyph-name="semicolon" unicode=";" horiz-adv-x="190" 
d="M135 0l-53 -140h-27l46 140h-46v80h80v-80zM135 382h-80v80h80v-80z" />
    <glyph glyph-name="less" unicode="&#x3c;" 
d="M515 470l-392 -171l392 -171v-33l-430 190v28l430 190v-33z" />
    <glyph glyph-name="equal" unicode="=" 
d="M553 367h-506v28h506v-28zM553 202h-506v28h506v-28z" />
    <glyph glyph-name="greater" unicode="&#x3e;" 
d="M515 313v-28l-430 -190v33l392 171l-392 171v33z" />
    <glyph glyph-name="question" unicode="?" horiz-adv-x="457" 
d="M367 668.5q50 -46.5 50 -124.5q0 -51 -22 -88t-62 -75q-38 -36 -56 -54.5t-32 -44.5t-14 -55v-30h-40v30q0 36 15 66t37.5 55t61.5 62q33 31 51.5 64t18.5 72q0 56 -37.5 93.5t-110.5 37.5q-75 0 -116 -41t-41 -111h-40q0 90 52 140t145 50q90 0 140 -46.5zM249 0h-80v80
h80v-80z" />
    <glyph glyph-name="at" unicode="@" horiz-adv-x="926" 
d="M680.5 643.5q91.5 -46.5 143.5 -134.5t52 -206q0 -100 -38 -168.5t-109 -68.5q-36 0 -61.5 22t-29.5 75h-3q-26 -53 -70.5 -82t-105.5 -29q-59 0 -107 26.5t-76 76t-28 115.5t27.5 115.5t75.5 76t107 26.5q60 0 105.5 -28t69.5 -79h3v92h32v-299q0 -39 18 -57.5t46 -18.5
q52 0 81.5 58t29.5 144q0 112 -50.5 192.5t-134.5 122.5t-184 42q-103 0 -192 -44.5t-143.5 -132.5t-54.5 -213t57 -211.5t148.5 -129t192.5 -42.5q55 0 110 12.5t99 34.5l14 -32q-48 -23 -107 -36t-117 -13q-109 0 -207.5 46t-161 140t-62.5 231q0 132 56.5 228t153 145.5
t214.5 49.5q115 0 206.5 -46.5zM331.5 403q-47.5 -51 -47.5 -132t47 -133t128 -52q53 0 94 23.5t63 65.5t22 95t-22.5 95t-63 65.5t-93.5 23.5q-80 0 -127.5 -51z" />
    <glyph glyph-name="A" unicode="A" horiz-adv-x="632" 
d="M497 204h-362l-83 -204h-42l285 700h42l285 -700h-42zM481 242l-165 406l-165 -406h330z" />
    <glyph glyph-name="B" unicode="B" horiz-adv-x="602" 
d="M512.5 316.5q44.5 -47.5 44.5 -122.5q0 -62 -30.5 -105.5t-82.5 -66t-114 -22.5h-250v700h222q97 0 153 -45t56 -127q0 -59 -32 -100t-89 -53v-2q78 -9 122.5 -56.5zM120 662v-274h175q172 0 172 134q0 70 -41.5 105t-132.5 35h-173zM463.5 81q50.5 43 50.5 116
q0 70 -51.5 111.5t-140.5 41.5h-202v-312h207q86 0 136.5 43z" />
    <glyph glyph-name="C" unicode="C" horiz-adv-x="688" 
d="M216.5 31q-84.5 46 -130.5 129t-46 190t46 190t130.5 129t196.5 46q72 0 128.5 -20t111.5 -61l-25 -34q-49 37 -99.5 56t-116.5 19q-98 0 -173 -41.5t-116 -115.5t-41 -168t41 -168t116 -115.5t173 -41.5q66 0 116.5 19t99.5 56l25 -34q-55 -41 -111.5 -61t-128.5 -20
q-112 0 -196.5 46z" />
    <glyph glyph-name="D" unicode="D" horiz-adv-x="682" 
d="M472 657.5q80 -42.5 125 -121.5t45 -186t-45 -186t-125 -121.5t-182 -42.5h-210v700h210q102 0 182 -42.5zM120 662v-625h170q87 0 157.5 36.5t111.5 107.5t41 169t-41 168.5t-111.5 107t-157.5 36.5h-170z" />
    <glyph glyph-name="E" unicode="E" horiz-adv-x="515" 
d="M465 38v-38h-385v700h380v-38h-340v-249h313v-38h-313v-337h345z" />
    <glyph glyph-name="F" unicode="F" horiz-adv-x="495" 
d="M120 662v-268h316v-38h-316v-356h-40v700h385v-38h-345z" />
    <glyph glyph-name="G" unicode="G" horiz-adv-x="800" 
d="M765 355v-17q0 -87 -39 -168t-119 -133t-197 -52q-108 0 -192 46t-131 128.5t-47 188.5t47 189.5t130.5 130.5t190.5 47q81 0 143 -23.5t123 -68.5l-27 -35q-54 41 -110 64t-130 23q-92 0 -166 -42t-116.5 -117t-42.5 -168q0 -92 41 -165.5t115.5 -115.5t171.5 -42
q105 0 175 46.5t103.5 114.5t34.5 131h-277v38h319z" />
    <glyph glyph-name="H" unicode="H" horiz-adv-x="680" 
d="M600 700v-700h-40v357h-440v-357h-40v700h40v-305h440v305h40z" />
    <glyph glyph-name="I" unicode="I" horiz-adv-x="200" 
d="M120 0h-40v700h40v-700z" />
    <glyph glyph-name="J" unicode="J" horiz-adv-x="265" 
d="M185 157q0 -84 -33 -123t-106 -39h-26v40h23q52 0 77 27.5t25 94.5v543h40v-543z" />
    <glyph glyph-name="K" unicode="K" horiz-adv-x="561" 
d="M489 0l-370 368v-368h-39v700h39v-322l331 322h60l-341 -327l382 -373h-62z" />
    <glyph glyph-name="L" unicode="L" horiz-adv-x="488" 
d="M120 38h353v-38h-393v700h40v-662z" />
    <glyph glyph-name="M" unicode="M" horiz-adv-x="822" 
d="M812 0h-42l-150 620h-2l-190 -502h-34l-190 502h-2l-150 -620h-42l172 700h36l192 -520h2l192 520h36z" />
    <glyph glyph-name="N" unicode="N" horiz-adv-x="686" 
d="M606 0h-45l-439 633h-2v-633h-40v700h45l439 -633h2v633h40v-700z" />
    <glyph glyph-name="O" unicode="O" horiz-adv-x="810" 
d="M591.5 668.5q83.5 -46.5 131 -129.5t47.5 -189t-47.5 -189t-131 -129.5t-186.5 -46.5t-186.5 46.5t-131 129.5t-47.5 189t47.5 189t131 129.5t186.5 46.5t186.5 -46.5zM238.5 633.5q-73.5 -41.5 -115 -115.5t-41.5 -168t41.5 -168t115 -115.5t166.5 -41.5t166.5 41.5
t115 115.5t41.5 168t-41.5 168t-115 115.5t-166.5 41.5t-166.5 -41.5z" />
    <glyph glyph-name="P" unicode="P" horiz-adv-x="543" 
d="M418 674.5q46 -25.5 70.5 -71t24.5 -102.5t-24.5 -102.5t-70.5 -71t-107 -25.5h-191v-302h-40v700h231q61 0 107 -25.5zM427 382q44 42 44 119t-44 119t-115 42h-192v-322h192q71 0 115 42z" />
    <glyph glyph-name="Q" unicode="Q" horiz-adv-x="820" 
d="M743.5 205.5q-26.5 -66.5 -75.5 -115.5l87 -90h-53l-62 64q-48 -38 -108 -58.5t-127 -20.5q-103 0 -186.5 46.5t-131 129.5t-47.5 189t47.5 189t131 129.5t186.5 46.5t186.5 -46.5t131 -129.5t47.5 -189q0 -78 -26.5 -144.5zM517.5 42.5q52.5 17.5 93.5 50.5l-163 169h53
l139 -143q42 44 65 103t23 128q0 94 -41.5 168t-115 115.5t-166.5 41.5t-166.5 -41.5t-115 -115.5t-41.5 -168t41.5 -168t115 -115.5t166.5 -41.5q60 0 112.5 17.5z" />
    <glyph glyph-name="R" unicode="R" horiz-adv-x="557" 
d="M268 315h-148v-315h-40v700h224q93 0 152 -49t59 -143q0 -90 -55.5 -140t-143.5 -53l216 -315h-51zM120 353h184q77 0 123 41t46 114t-45.5 113.5t-123.5 40.5h-184v-309z" />
    <glyph glyph-name="S" unicode="S" horiz-adv-x="492" 
d="M418 674l-20 -39q-42 21 -75.5 30.5t-69.5 9.5q-68 0 -104.5 -30t-36.5 -79q0 -44 26 -74t77 -66l101 -70q66 -45 98.5 -88.5t32.5 -106.5q0 -85 -57.5 -130.5t-151.5 -45.5q-54 0 -110 16t-103 47l22 36q93 -59 191 -59q83 0 125 38t42 96q0 44 -26.5 80.5t-86.5 79.5
l-108 76q-56 39 -85 76t-29 94q0 70 46.5 110t134.5 40q80 0 167 -41z" />
    <glyph glyph-name="T" unicode="T" horiz-adv-x="510" 
d="M500 662h-225v-662h-40v662h-225v38h490v-38z" />
    <glyph glyph-name="U" unicode="U" horiz-adv-x="698" 
d="M618 253q0 -79 -30.5 -139.5t-91.5 -94.5t-147 -34t-147 34t-91.5 94.5t-30.5 139.5v447h43v-437q0 -112 60.5 -174.5t165.5 -62.5t165.5 62.5t60.5 174.5v437h43v-447z" />
    <glyph glyph-name="V" unicode="V" horiz-adv-x="590" 
d="M316 0h-42l-259 700h48l231 -640h2l231 640h48z" />
    <glyph glyph-name="W" unicode="W" horiz-adv-x="956" 
d="M726 0h-42l-205 636h-2l-205 -636h-42l-215 700h46l188 -634h2l203 634h48l203 -634h2l188 634h46z" />
    <glyph glyph-name="X" unicode="X" horiz-adv-x="582" 
d="M514 0l-223 332l-223 -332h-48l247 368l-223 332h48l199 -296l199 296h48l-223 -332l247 -368h-48z" />
    <glyph glyph-name="Y" unicode="Y" horiz-adv-x="522" 
d="M281 266v-266h-40v266l-231 434h48l202 -389h2l202 389h48z" />
    <glyph glyph-name="Z" unicode="Z" horiz-adv-x="532" 
d="M512 38v-38h-492v38l438 624h-398v38h444v-38l-440 -624h448z" />
    <glyph glyph-name="bracketleft" unicode="[" horiz-adv-x="274" 
d="M264 711h-128v-892h128v-34h-164v960h164v-34z" />
    <glyph glyph-name="backslash" unicode="\" horiz-adv-x="546" 
d="M30 753l30 16l456 -836l-30 -16z" />
    <glyph glyph-name="bracketright" unicode="]" horiz-adv-x="274" 
d="M10 -181h128v892h-128v34h164v-960h-164v34z" />
    <glyph glyph-name="asciicircum" unicode="^" 
d="M473 393h-39l-134 293l-134 -293h-39l149 322h48z" />
    <glyph glyph-name="underscore" unicode="_" horiz-adv-x="533" 
d="M523 -50h-513v35h513v-35z" />
    <glyph glyph-name="grave" unicode="`" horiz-adv-x="253" 
d="M203 553h-36l-117 154h58z" />
    <glyph glyph-name="a" unicode="a" horiz-adv-x="573" 
d="M149 15q-53 30 -83.5 86t-30.5 130t30.5 130t83.5 86t120 30q70 0 121.5 -31.5t79.5 -85.5h2v102h36v-462h-36v102h-2q-28 -54 -79.5 -85.5t-121.5 -31.5q-67 0 -120 30zM379.5 48q45.5 27 70.5 74.5t25 108.5t-25 108.5t-70.5 74.5t-105.5 27t-105.5 -27t-70.5 -74.5
t-25 -108.5t25 -108.5t70.5 -74.5t105.5 -27t105.5 27z" />
    <glyph glyph-name="b" unicode="b" horiz-adv-x="578" 
d="M187.5 16.5q-51.5 31.5 -79.5 85.5h-2v-102h-36v700h36v-340h2q28 54 79.5 85.5t121.5 31.5q67 0 120 -30t83.5 -86t30.5 -130t-30.5 -130t-83.5 -86t-120 -30q-70 0 -121.5 31.5zM409.5 48q45.5 27 70.5 74.5t25 108.5t-25 108.5t-70.5 74.5t-105.5 27t-105.5 -27
t-70.5 -74.5t-25 -108.5t25 -108.5t70.5 -74.5t105.5 -27t105.5 27z" />
    <glyph glyph-name="c" unicode="c" horiz-adv-x="469" 
d="M153 16q-56 31 -87 87t-31 128t31 128t87 87t129 31q82 0 157 -45l-19 -33q-37 22 -70 32t-70 10q-61 0 -108.5 -28.5t-73 -76.5t-25.5 -105t25.5 -105t73 -76.5t108.5 -28.5q37 0 70 10t70 32l19 -33q-75 -45 -157 -45q-73 0 -129 31z" />
    <glyph glyph-name="d" unicode="d" horiz-adv-x="578" 
d="M149 15q-53 30 -83.5 86t-30.5 130t30.5 130t83.5 86t120 30q70 0 121.5 -31.5t79.5 -85.5h2v340h36v-700h-36v102h-2q-28 -54 -79.5 -85.5t-121.5 -31.5q-67 0 -120 30zM379.5 48q45.5 27 70.5 74.5t25 108.5t-25 108.5t-70.5 74.5t-105.5 27t-105.5 -27t-70.5 -74.5
t-25 -108.5t25 -108.5t70.5 -74.5t105.5 -27t105.5 27z" />
    <glyph glyph-name="e" unicode="e" horiz-adv-x="526" 
d="M436.5 408.5q54.5 -68.5 54.5 -169.5v-10h-419q0 -97 55 -152.5t147 -55.5q67 0 106 26.5t74 72.5l28 -22q-33 -48 -81.5 -80.5t-126.5 -32.5q-72 0 -126 30.5t-83.5 86t-29.5 128.5q0 77 30.5 133t83 85t119.5 29q114 0 168.5 -68.5zM135 394q-55 -47 -62 -131h378
q-7 85 -53.5 131.5t-130.5 46.5q-77 0 -132 -47z" />
    <glyph glyph-name="f" unicode="f" horiz-adv-x="318" 
d="M195.5 646.5q-29.5 -27.5 -29.5 -92.5v-92h122v-34h-122v-428h-36v428h-100v34h100v94q0 154 145 154h13v-36h-10q-53 0 -82.5 -27.5z" />
    <glyph glyph-name="g" unicode="g" horiz-adv-x="573" 
d="M121 -195l9 37q95 -21 170 -21q172 0 172 172v109h-2q-28 -54 -79.5 -85.5t-121.5 -31.5q-67 0 -120 30t-83.5 86t-30.5 130t30.5 130t83.5 86t120 30q70 0 121.5 -31.5t79.5 -85.5h2v102h36v-462q0 -123 -56 -169t-153 -46q-93 0 -178 20zM379.5 48q45.5 27 70.5 74.5
t25 108.5t-25 108.5t-70.5 74.5t-105.5 27t-105.5 -27t-70.5 -74.5t-25 -108.5t25 -108.5t70.5 -74.5t105.5 -27t105.5 27z" />
    <glyph glyph-name="h" unicode="h" horiz-adv-x="538" 
d="M106 346h2q22 64 71 97.5t113 33.5q83 0 132 -50t49 -150v-277h-36v277q0 83 -39.5 123.5t-106.5 40.5q-78 0 -131.5 -56.5t-53.5 -182.5v-202h-36v700h36v-354z" />
    <glyph glyph-name="i" unicode="i" horiz-adv-x="166" 
d="M65 462h36v-462h-36v462zM109 570h-52v120h52v-120z" />
    <glyph glyph-name="j" unicode="j" horiz-adv-x="166" 
d="M-21 -170q44 0 65 27.5t21 88.5v516h36v-516q0 -150 -122 -150h-29v34h29zM109 570h-52v120h52v-120z" />
    <glyph glyph-name="k" unicode="k" horiz-adv-x="425" 
d="M357 0l-251 243v-243h-36v700h36v-446l228 208h58l-239 -213l262 -249h-58z" />
    <glyph glyph-name="l" unicode="l" horiz-adv-x="176" 
d="M106 0h-36v700h36v-700z" />
    <glyph glyph-name="m" unicode="m" horiz-adv-x="807" 
d="M70 462h36v-97h1q37 112 155 112q60 0 98 -28t57 -87h2q18 58 61 86.5t103 28.5q72 0 115.5 -43t43.5 -140v-294h-36v295q0 72 -32.5 109t-95.5 37q-71 0 -112.5 -48t-41.5 -150v-243h-36v263q0 178 -130 178q-72 0 -112 -55t-40 -166v-220h-36v462z" />
    <glyph glyph-name="n" unicode="n" horiz-adv-x="538" 
d="M424.5 427q48.5 -50 48.5 -150v-277h-36v277q0 82 -40.5 123t-107.5 41q-78 0 -130.5 -56.5t-52.5 -182.5v-202h-36v462h35v-116h2q23 65 70 98t114 33q85 0 133.5 -50z" />
    <glyph glyph-name="o" unicode="o" horiz-adv-x="562" 
d="M408 446q56 -31 87.5 -87t31.5 -128t-31.5 -128t-87.5 -87t-127 -31t-127 31t-87.5 87t-31.5 128t31.5 128t87.5 87t127 31t127 -31zM175.5 414.5q-47.5 -26.5 -75 -74t-27.5 -109.5t27.5 -109.5t75 -74t105.5 -26.5t105.5 26.5t75 74t27.5 109.5t-27.5 109.5t-75 74
t-105.5 26.5t-105.5 -26.5z" />
    <glyph glyph-name="p" unicode="p" horiz-adv-x="578" 
d="M70 462h36v-102h2q28 54 79.5 85.5t121.5 31.5q67 0 120 -30t83.5 -86t30.5 -130t-30.5 -130t-83.5 -86t-120 -30q-70 0 -121.5 31.5t-79.5 85.5h-2v-302h-36v662zM409.5 48q45.5 27 70.5 74.5t25 108.5t-25 108.5t-70.5 74.5t-105.5 27t-105.5 -27t-70.5 -74.5
t-25 -108.5t25 -108.5t70.5 -74.5t105.5 -27t105.5 27z" />
    <glyph glyph-name="q" unicode="q" horiz-adv-x="573" 
d="M472 102h-2q-28 -54 -79.5 -85.5t-121.5 -31.5q-67 0 -120 30t-83.5 86t-30.5 130t30.5 130t83.5 86t120 30q70 0 121.5 -31.5t79.5 -85.5h2v102h36v-662h-36v302zM379.5 48q45.5 27 70.5 74.5t25 108.5t-25 108.5t-70.5 74.5t-105.5 27t-105.5 -27t-70.5 -74.5
t-25 -108.5t25 -108.5t70.5 -74.5t105.5 -27t105.5 27z" />
    <glyph glyph-name="r" unicode="r" horiz-adv-x="300" 
d="M280 436h-14q-73 0 -116.5 -56t-43.5 -146v-234h-36v462h36v-107h2q11 52 53 86.5t100 34.5h19v-40z" />
    <glyph glyph-name="s" unicode="s" horiz-adv-x="411" 
d="M114.5 1.5q-50.5 16.5 -89.5 45.5l21 31q39 -28 84.5 -42.5t91.5 -14.5q61 0 91 24t30 61q0 32 -22 53.5t-61 38.5l-88 40q-51 23 -77.5 52.5t-26.5 72.5q0 55 41 84.5t110 29.5q78 0 150 -37l-18 -34q-67 35 -132 35q-51 0 -82 -19.5t-31 -57.5q0 -31 21 -52t64 -40
l82 -37q52 -24 80 -52.5t28 -76.5q0 -59 -43 -90t-118 -31q-55 0 -105.5 16.5z" />
    <glyph glyph-name="t" unicode="t" horiz-adv-x="303" 
d="M160 428v-315q0 -38 19 -58.5t52 -20.5h26v-36h-29q-47 0 -75.5 27.5t-28.5 80.5v322h-99v34h99v185h36v-185h113v-34h-113z" />
    <glyph glyph-name="u" unicode="u" horiz-adv-x="526" 
d="M112.5 34q-47.5 49 -47.5 150v278h36v-282q0 -82 39 -120.5t104 -38.5q78 0 127 58.5t49 190.5v192h36v-462h-35v108h-2q-20 -53 -63.5 -88t-115.5 -35q-80 0 -127.5 49z" />
    <glyph glyph-name="v" unicode="v" horiz-adv-x="440" 
d="M430 462l-191 -462h-38l-191 462h41l169 -417l169 417h41z" />
    <glyph glyph-name="w" unicode="w" horiz-adv-x="716" 
d="M706 462l-158 -462h-38l-152 419l-152 -419h-38l-158 462h40l137 -419l149 419h44l149 -419l137 419h40z" />
    <glyph glyph-name="x" unicode="x" horiz-adv-x="446" 
d="M223 213l-167 -213h-46l191 242l-174 220h46l150 -192l150 192h46l-174 -220l191 -242h-46z" />
    <glyph glyph-name="y" unicode="y" horiz-adv-x="443" 
d="M433 462l-321 -662h-40l128 256l-190 406h42l166 -369l173 369h42z" />
    <glyph glyph-name="z" unicode="z" horiz-adv-x="447" 
d="M417 36v-36h-387v34l317 393h-294v35h342v-33l-318 -393h340z" />
    <glyph glyph-name="braceleft" unicode="{" horiz-adv-x="343" 
d="M333 708h-22q-58 0 -86.5 -30.5t-28.5 -96.5v-173q0 -60 -21 -91t-71 -41v-2q50 -10 71 -41t21 -91v-193q0 -66 28.5 -96.5t86.5 -30.5h22v-37h-20q-80 0 -117.5 40t-37.5 126v189q0 57 -28 84.5t-95 30.5v40q67 3 95 30.5t28 84.5v169q0 86 37.5 126t117.5 40h20v-37z
" />
    <glyph glyph-name="bar" unicode="|" horiz-adv-x="250" 
d="M140 -215h-30v942h30v-942z" />
    <glyph glyph-name="braceright" unicode="}" horiz-adv-x="343" 
d="M10 -178h22q58 0 86.5 30.5t28.5 96.5v193q0 60 21 91t71 41v2q-50 10 -71 41t-21 91v173q0 66 -28.5 96.5t-86.5 30.5h-22v37h20q80 0 117.5 -40t37.5 -126v-169q0 -57 28 -84.5t95 -30.5v-40q-67 -3 -95 -30.5t-28 -84.5v-189q0 -86 -37.5 -126t-117.5 -40h-20v37z" />
    <glyph glyph-name="asciitilde" unicode="~" 
d="M243.5 351q28.5 -10 66.5 -29q35 -18 59.5 -27t51.5 -9q33 0 62 14t60 41l22 -32q-39 -31 -74.5 -46t-72.5 -15q-33 0 -61.5 10t-66.5 29q-35 18 -59.5 27t-51.5 9q-33 0 -62 -14t-60 -41l-22 32q39 31 74.5 46t72.5 15q33 0 61.5 -10z" />
    <glyph glyph-name="exclamdown" unicode="&#xa1;" horiz-adv-x="280" 
d="M100 500h80v-80h-80v80zM127 303h26l8 -503h-42z" />
    <glyph glyph-name="cent" unicode="&#xa2;" horiz-adv-x="460" 
d="M357.5 433q-31.5 8 -65.5 8v-420q35 0 65.5 8t72.5 28v-39q-68 -33 -138 -33v-49h-28v50q-64 6 -113.5 38t-77.5 85.5t-28 121.5t28 121.5t77.5 85.5t113.5 38v55h28v-54q74 0 138 -33v-39q-41 20 -72.5 28zM134 86.5q51 -55.5 130 -64.5v418q-79 -9 -130 -64.5
t-51 -144.5t51 -144.5z" />
    <glyph glyph-name="sterling" unicode="&#xa3;" horiz-adv-x="511" 
d="M118 35h361v-35h-407v40q61 36 94.5 71t33.5 86q0 29 -11 56.5t-33 69.5l-12 22h-104v30h89q-32 68 -32 127q0 85 52 136.5t143 51.5q84 0 136.5 -43.5t52.5 -129.5h-38q-5 137 -150 137q-72 0 -115 -40t-43 -113q0 -33 9 -63t26 -63h223v-30h-206q27 -50 39 -80.5
t12 -66.5q0 -59 -33.5 -95t-86.5 -66v-2z" />
    <glyph glyph-name="currency" unicode="&#xa4;" 
d="M527.5 407.5q15.5 -39.5 15.5 -83.5t-15.5 -83.5t-43.5 -70.5l59 -60l-20 -19l-59 59q-33 -28 -75 -43t-89 -15q-48 0 -90 15.5t-74 43.5l-60 -60l-19 20l59 59q-28 31 -43.5 70.5t-15.5 83.5t15.5 83.5t43.5 70.5l-59 59l20 20l59 -59q33 28 75 43t89 15t89 -15t75 -43
l59 59l20 -20l-59 -59q28 -31 43.5 -70.5zM119.5 224q26.5 -45 74 -71t106.5 -26t106.5 26t74 71t26.5 100t-26.5 100t-74 71t-106.5 26t-106.5 -26t-74 -71t-26.5 -100t26.5 -100z" />
    <glyph glyph-name="yen" unicode="&#xa5;" horiz-adv-x="486" 
d="M306 352h146v-30h-160l-27 -56h187v-30h-191v-236h-36v236h-191v30h187l-27 56h-160v30h146l-155 323h43l175 -379l175 379h43z" />
    <glyph glyph-name="brokenbar" unicode="&#xa6;" horiz-adv-x="250" 
d="M140 339h-30v388h30v-388zM140 -215h-30v396h30v-396z" />
    <glyph glyph-name="section" unicode="&#xa7;" horiz-adv-x="521" 
d="M426 64.5q23 -30.5 23 -77.5q0 -64 -49 -105t-136 -41q-101 0 -184 54l21 32q43 -25 81 -37t82 -12q69 0 108 31t39 78q0 38 -22 62t-54.5 38t-87.5 30q-64 19 -103 36t-66.5 51t-27.5 88q0 50 31.5 88t78.5 60q-42 21 -65 51.5t-23 77.5q0 64 49 105t136 41
q101 0 184 -54l-21 -32q-43 25 -81 37t-82 12q-69 0 -108 -31t-39 -78q0 -38 22 -62t54.5 -38t87.5 -30q64 -19 103 -36t66.5 -51t27.5 -88q0 -51 -32 -89t-78 -59q42 -21 65 -51.5zM111 225q23 -26 56 -40.5t92 -32.5q26 -8 62 -20q42 19 77 51.5t35 77.5q0 42 -23 68
t-57 41t-92 33q-21 6 -61 20q-43 -20 -77.5 -52.5t-34.5 -78.5q0 -41 23 -67z" />
    <glyph glyph-name="dieresis" unicode="&#xa8;" horiz-adv-x="336" 
d="M102 580h-52v110h52v-110zM286 580h-52v110h52v-110z" />
    <glyph glyph-name="copyright" unicode="&#xa9;" horiz-adv-x="828" 
d="M229 31.5q-83 46.5 -131 129.5t-48 189t48 189t131 129.5t185 46.5t185 -46.5t131 -129.5t48 -189t-48 -189t-131 -129.5t-185 -46.5t-185 46.5zM583 57.5q76 42.5 119.5 119t43.5 173.5t-43.5 173.5t-119.5 119t-169 42.5t-169 -42.5t-119.5 -119t-43.5 -173.5
t43.5 -173.5t119.5 -119t169 -42.5t169 42.5zM296 154.5q-52 28.5 -80.5 80t-28.5 118.5t28.5 118.5t80.5 80t119 28.5q84 0 153 -48l-20 -30q-59 42 -134 42q-86 0 -137.5 -52t-51.5 -139t51.5 -139t137.5 -52q75 0 134 42l20 -30q-69 -48 -153 -48q-67 0 -119 28.5z" />
    <glyph glyph-name="ordfeminine" unicode="&#xaa;" horiz-adv-x="415" 
d="M93.5 383q-43.5 45 -43.5 118t43.5 118t110.5 45q42 0 75.5 -18.5t50.5 -52.5h2v61h33v-306h-33v61h-2q-17 -34 -50.5 -52.5t-75.5 -18.5q-67 0 -110.5 45zM297.5 408.5q36.5 36.5 36.5 92.5t-36.5 92.5t-91.5 36.5q-54 0 -87 -36t-33 -93t33 -93t87 -36q55 0 91.5 36.5z
" />
    <glyph glyph-name="guillemotleft" unicode="&#xab;" horiz-adv-x="338" 
d="M64 234l141 -149h-48l-137 149l137 149h48zM187 234l141 -149h-48l-137 149l137 149h48z" />
    <glyph glyph-name="logicalnot" unicode="&#xac;" 
d="M529 432v-265h-30v237h-428v28h458z" />
    <glyph glyph-name="uni00AD" unicode="&#xad;" horiz-adv-x="342" 
d="M297 254h-252v40h252v-40z" />
    <glyph glyph-name="registered" unicode="&#xae;" horiz-adv-x="560" 
d="M399 686q52 -29 81.5 -82t29.5 -121t-29.5 -121t-81.5 -82t-119 -29t-119 29t-81.5 82t-29.5 121t29.5 121t81.5 82t119 29t119 -29zM384.5 301.5q46.5 25.5 72.5 72.5t26 109t-26 109t-72.5 72.5t-104.5 25.5t-104.5 -25.5t-72.5 -72.5t-26 -109t26 -109t72.5 -72.5
t104.5 -25.5t104.5 25.5zM357.5 490q-18.5 -20 -47.5 -24l73 -109h-34l-72 108h-44v-108h-28v260h93q34 0 56 -19.5t22 -55.5q0 -32 -18.5 -52zM233 491h57q28 0 42.5 13.5t14.5 37.5q0 23 -14.5 36t-42.5 13h-57v-100z" />
    <glyph glyph-name="macron" unicode="&#xaf;" horiz-adv-x="371" 
d="M321 616h-271v34h271v-34z" />
    <glyph glyph-name="degree" unicode="&#xb0;" horiz-adv-x="352" 
d="M273.5 652q38.5 -38 38.5 -98t-38.5 -98t-97.5 -38t-97.5 38t-38.5 98t38.5 98t97.5 38t97.5 -38zM99.5 632q-30.5 -30 -30.5 -78t30.5 -78t76.5 -30t76.5 30t30.5 78t-30.5 78t-76.5 30t-76.5 -30z" />
    <glyph glyph-name="plusminus" unicode="&#xb1;" 
d="M315 375h224v-28h-224v-147h-30v147h-224v28h224v147h30v-147zM539 125h-478v28h478v-28z" />
    <glyph glyph-name="uni00B2" unicode="&#xb2;" horiz-adv-x="347" 
d="M40 377l175 186q60 66 60 121q0 38 -25.5 62t-70.5 24q-41 0 -69.5 -21.5t-30.5 -66.5h-36q1 62 40 92t97 30q62 0 96.5 -32.5t34.5 -87.5q0 -41 -18.5 -74t-49.5 -66l-154 -162h223v-34h-272v29z" />
    <glyph glyph-name="uni00B3" unicode="&#xb3;" horiz-adv-x="372" 
d="M80.5 367.5q-38.5 29.5 -40.5 86.5h36q9 -82 109 -82q52 0 81.5 24t29.5 74q0 54 -34.5 76t-108.5 22v31q57 1 89.5 19t32.5 67q0 85 -92 85q-45 0 -72.5 -19t-29.5 -57h-36q3 49 39.5 79.5t97.5 30.5t95 -31t34 -82q0 -37 -20 -65.5t-61 -39.5v-1q45 -7 73.5 -35.5
t28.5 -81.5q0 -56 -37 -93t-112 -37q-64 0 -102.5 29.5z" />
    <glyph glyph-name="acute" unicode="&#xb4;" horiz-adv-x="253" 
d="M86 553h-36l95 154h58z" />
    <glyph glyph-name="uni00B5" unicode="&#xb5;" 
d="M495 462v-462h-35v108h-2q-20 -53 -63.5 -88t-115.5 -35q-97 0 -141 66v-251h-34v662h36v-282q0 -82 39 -120.5t104 -38.5q78 0 127 58.5t49 190.5v192h36z" />
    <glyph glyph-name="paragraph" unicode="&#xb6;" horiz-adv-x="568" 
d="M518 666h-55v-772h-36v772h-147v-772h-36v416q-88 0 -141 54.5t-53 144.5q0 86 55.5 138.5t148.5 52.5h264v-34z" />
    <glyph glyph-name="periodcentered" unicode="&#xb7;" horiz-adv-x="190" 
d="M135 382h-80v80h80v-80z" />
    <glyph glyph-name="cedilla" unicode="&#xb8;" horiz-adv-x="225" 
d="M103 -48q33 -8 52.5 -22t19.5 -46q0 -30 -27.5 -49t-88.5 -47l-9 19q47 22 67 38t20 34t-14.5 26.5t-54.5 17.5l32 84h25z" />
    <glyph glyph-name="uni00B9" unicode="&#xb9;" horiz-adv-x="214" 
d="M100 758h-40v36h74v-446h-34v410z" />
    <glyph glyph-name="ordmasculine" unicode="&#xba;" horiz-adv-x="432" 
d="M335 619q47 -45 47 -118t-47 -118t-119 -45t-119 45t-47 118t47 118t119 45t119 -45zM123 595q-37 -35 -37 -94t37 -94t93 -35t93 35t37 94t-37 94t-93 35t-93 -35z" />
    <glyph glyph-name="guillemotright" unicode="&#xbb;" horiz-adv-x="338" 
d="M58 383l137 -149l-137 -149h-48l141 149l-141 149h48zM181 383l137 -149l-137 -149h-48l141 149l-141 149h48z" />
    <glyph glyph-name="onequarter" unicode="&#xbc;" horiz-adv-x="576" 
d="M123 289h-32v353h-51v33h83v-386zM428 675h36l-395 -675h-36zM546 77h-44v-77h-32v77h-211v29l202 280h41v-280h44v-29zM470 106v238h-2l-173 -238h175z" />
    <glyph glyph-name="onehalf" unicode="&#xbd;" horiz-adv-x="603" 
d="M123 289h-32v353h-51v33h83v-386zM428 675h36l-395 -675h-36zM536.5 367q28.5 -28 28.5 -73q0 -34 -17 -64.5t-46 -62.5l-126 -135h192v-32h-239v29l144 156q57 61 57 110q0 29 -20 49t-60 20q-37 0 -59 -20.5t-24 -56.5h-35q2 50 34 79t85 29q57 0 85.5 -28z" />
    <glyph glyph-name="threequarters" unicode="&#xbe;" horiz-adv-x="703" 
d="M246.5 658.5q31.5 -25.5 31.5 -71.5q0 -34 -21.5 -57.5t-58.5 -31.5v-1q42 -5 67 -31t25 -71q0 -51 -32.5 -83t-100.5 -32q-56 0 -90 27t-37 80h33q2 -38 29.5 -57t64.5 -19q46 0 73 20.5t27 63.5q0 48 -32 65.5t-89 17.5v31q109 4 109 75q0 69 -86 69q-40 0 -65 -17.5
t-26 -54.5h-33q2 50 34 76.5t91 26.5q55 0 86.5 -25.5zM555 675h36l-395 -675h-36zM673 77h-44v-77h-32v77h-211v29l202 280h41v-280h44v-29zM597 106v238h-2l-173 -238h175z" />
    <glyph glyph-name="questiondown" unicode="&#xbf;" horiz-adv-x="397" 
d="M188 500h80v-80h-80v80zM70 -168.5q-50 46.5 -50 124.5q0 51 22 88t62 75q38 36 56 54.5t32 44.5t14 55v30h40v-30q0 -36 -15 -66t-37.5 -55t-61.5 -62q-33 -31 -51.5 -64t-18.5 -72q0 -56 37.5 -93.5t110.5 -37.5q75 0 116 41t41 111h40q0 -90 -52 -140t-145 -50
q-90 0 -140 46.5z" />
    <glyph glyph-name="Agrave" unicode="&#xc0;" horiz-adv-x="632" 
d="M497 204h-362l-83 -204h-42l285 700h42l285 -700h-42zM481 242l-165 406l-165 -406h330zM334 743h-36l-117 120h58z" />
    <glyph glyph-name="Aacute" unicode="&#xc1;" horiz-adv-x="632" 
d="M497 204h-362l-83 -204h-42l285 700h42l285 -700h-42zM481 242l-165 406l-165 -406h330zM335 743h-36l95 120h58z" />
    <glyph glyph-name="Acircumflex" unicode="&#xc2;" horiz-adv-x="632" 
d="M497 204h-362l-83 -204h-42l285 700h42l285 -700h-42zM481 242l-165 406l-165 -406h330zM465 743h-54l-95 90l-95 -90h-54l125 120h48z" />
    <glyph glyph-name="Atilde" unicode="&#xc3;" horiz-adv-x="632" 
d="M497 204h-362l-83 -204h-42l285 700h42l285 -700h-42zM481 242l-165 406l-165 -406h330zM359.5 761.5q-19.5 8.5 -52.5 25.5q-24 13 -39.5 20t-27.5 7q-32 0 -53 -48l-27 10q13 32 33 54t53 22q20 0 39.5 -8.5t52.5 -25.5q24 -13 39.5 -20t27.5 -7q32 0 53 48l27 -10
q-13 -32 -33 -54t-53 -22q-20 0 -39.5 8.5z" />
    <glyph glyph-name="Adieresis" unicode="&#xc4;" horiz-adv-x="632" 
d="M497 204h-362l-83 -204h-42l285 700h42l285 -700h-42zM481 242l-165 406l-165 -406h330zM250 743h-52v95h52v-95zM434 743h-52v95h52v-95z" />
    <glyph glyph-name="Aring" unicode="&#xc5;" horiz-adv-x="632" 
d="M497 204h-362l-83 -204h-42l275 676q-37 9 -60 38.5t-23 69.5q0 49 32 80.5t82 31.5t82 -31.5t32 -80.5q0 -40 -23 -69.5t-60 -38.5l275 -676h-42zM255.5 723.5q23.5 -23.5 60.5 -23.5t60.5 23.5t23.5 60.5t-23.5 60.5t-60.5 23.5t-60.5 -23.5t-23.5 -60.5t23.5 -60.5z
M481 242l-165 406l-165 -406h330z" />
    <glyph glyph-name="AE" unicode="&#xc6;" horiz-adv-x="919" 
d="M869 38v-38h-349v204h-317l-142 -204h-51l490 700h364v-38h-304v-249h277v-38h-277v-337h309zM520 242v418l-291 -418h291z" />
    <glyph glyph-name="Ccedilla" unicode="&#xc7;" horiz-adv-x="688" 
d="M541.5 5q-56.5 -20 -128.5 -20l-13 -33q33 -8 52.5 -22t19.5 -46q0 -30 -27.5 -49t-88.5 -47l-9 19q47 22 67 38t20 34t-14.5 26.5t-54.5 17.5l24 63q-106 5 -185 52t-121.5 128t-42.5 184q0 107 46 190t130.5 129t196.5 46q72 0 128.5 -20t111.5 -61l-25 -34
q-49 37 -99.5 56t-116.5 19q-98 0 -173 -41.5t-116 -115.5t-41 -168t41 -168t116 -115.5t173 -41.5q66 0 116.5 19t99.5 56l25 -34q-55 -41 -111.5 -61z" />
    <glyph glyph-name="Egrave" unicode="&#xc8;" horiz-adv-x="515" 
d="M465 38v-38h-385v700h380v-38h-340v-249h313v-38h-313v-337h345zM305 743h-36l-117 120h58z" />
    <glyph glyph-name="Eacute" unicode="&#xc9;" horiz-adv-x="515" 
d="M465 38v-38h-385v700h380v-38h-340v-249h313v-38h-313v-337h345zM306 743h-36l95 120h58z" />
    <glyph glyph-name="Ecircumflex" unicode="&#xca;" horiz-adv-x="515" 
d="M465 38v-38h-385v700h380v-38h-340v-249h313v-38h-313v-337h345zM436 743h-54l-95 90l-95 -90h-54l125 120h48z" />
    <glyph glyph-name="Edieresis" unicode="&#xcb;" horiz-adv-x="515" 
d="M465 38v-38h-385v700h380v-38h-340v-249h313v-38h-313v-337h345zM221 743h-52v95h52v-95zM405 743h-52v95h52v-95z" />
    <glyph glyph-name="Igrave" unicode="&#xcc;" horiz-adv-x="200" 
d="M120 0h-40v700h40v-700zM118 743h-36l-117 120h58z" />
    <glyph glyph-name="Iacute" unicode="&#xcd;" horiz-adv-x="200" 
d="M120 0h-40v700h40v-700zM119 743h-36l95 120h58z" />
    <glyph glyph-name="Icircumflex" unicode="&#xce;" horiz-adv-x="200" 
d="M120 0h-40v700h40v-700zM249 743h-54l-95 90l-95 -90h-54l125 120h48z" />
    <glyph glyph-name="Idieresis" unicode="&#xcf;" horiz-adv-x="200" 
d="M120 0h-40v700h40v-700zM34 743h-52v95h52v-95zM218 743h-52v95h52v-95z" />
    <glyph glyph-name="Eth" unicode="&#xd0;" horiz-adv-x="692" 
d="M482 657.5q80 -42.5 125 -121.5t45 -186t-45 -186t-125 -121.5t-182 -42.5h-210v346h-80v35h80v319h210q102 0 182 -42.5zM457.5 73.5q70.5 36.5 111.5 107.5t41 169t-41 168.5t-111.5 107t-157.5 36.5h-170v-281h218v-35h-218v-309h170q87 0 157.5 36.5z" />
    <glyph glyph-name="Ntilde" unicode="&#xd1;" horiz-adv-x="686" 
d="M606 0h-45l-439 633h-2v-633h-40v700h45l439 -633h2v633h40v-700zM395.5 761.5q-19.5 8.5 -52.5 25.5q-24 13 -39.5 20t-27.5 7q-32 0 -53 -48l-27 10q13 32 33 54t53 22q20 0 39.5 -8.5t52.5 -25.5q24 -13 39.5 -20t27.5 -7q32 0 53 48l27 -10q-13 -32 -33 -54t-53 -22
q-20 0 -39.5 8.5z" />
    <glyph glyph-name="Ograve" unicode="&#xd2;" horiz-adv-x="810" 
d="M591.5 668.5q83.5 -46.5 131 -129.5t47.5 -189t-47.5 -189t-131 -129.5t-186.5 -46.5t-186.5 46.5t-131 129.5t-47.5 189t47.5 189t131 129.5t186.5 46.5t186.5 -46.5zM238.5 633.5q-73.5 -41.5 -115 -115.5t-41.5 -168t41.5 -168t115 -115.5t166.5 -41.5t166.5 41.5
t115 115.5t41.5 168t-41.5 168t-115 115.5t-166.5 41.5t-166.5 -41.5zM423 743h-36l-117 120h58z" />
    <glyph glyph-name="Oacute" unicode="&#xd3;" horiz-adv-x="810" 
d="M591.5 668.5q83.5 -46.5 131 -129.5t47.5 -189t-47.5 -189t-131 -129.5t-186.5 -46.5t-186.5 46.5t-131 129.5t-47.5 189t47.5 189t131 129.5t186.5 46.5t186.5 -46.5zM238.5 633.5q-73.5 -41.5 -115 -115.5t-41.5 -168t41.5 -168t115 -115.5t166.5 -41.5t166.5 41.5
t115 115.5t41.5 168t-41.5 168t-115 115.5t-166.5 41.5t-166.5 -41.5zM424 743h-36l95 120h58z" />
    <glyph glyph-name="Ocircumflex" unicode="&#xd4;" horiz-adv-x="810" 
d="M591.5 668.5q83.5 -46.5 131 -129.5t47.5 -189t-47.5 -189t-131 -129.5t-186.5 -46.5t-186.5 46.5t-131 129.5t-47.5 189t47.5 189t131 129.5t186.5 46.5t186.5 -46.5zM238.5 633.5q-73.5 -41.5 -115 -115.5t-41.5 -168t41.5 -168t115 -115.5t166.5 -41.5t166.5 41.5
t115 115.5t41.5 168t-41.5 168t-115 115.5t-166.5 41.5t-166.5 -41.5zM554 743h-54l-95 90l-95 -90h-54l125 120h48z" />
    <glyph glyph-name="Otilde" unicode="&#xd5;" horiz-adv-x="810" 
d="M591.5 668.5q83.5 -46.5 131 -129.5t47.5 -189t-47.5 -189t-131 -129.5t-186.5 -46.5t-186.5 46.5t-131 129.5t-47.5 189t47.5 189t131 129.5t186.5 46.5t186.5 -46.5zM238.5 633.5q-73.5 -41.5 -115 -115.5t-41.5 -168t41.5 -168t115 -115.5t166.5 -41.5t166.5 41.5
t115 115.5t41.5 168t-41.5 168t-115 115.5t-166.5 41.5t-166.5 -41.5zM448.5 761.5q-19.5 8.5 -52.5 25.5q-24 13 -39.5 20t-27.5 7q-32 0 -53 -48l-27 10q13 32 33 54t53 22q20 0 39.5 -8.5t52.5 -25.5q24 -13 39.5 -20t27.5 -7q32 0 53 48l27 -10q-13 -32 -33 -54t-53 -22
q-20 0 -39.5 8.5z" />
    <glyph glyph-name="Odieresis" unicode="&#xd6;" horiz-adv-x="810" 
d="M591.5 668.5q83.5 -46.5 131 -129.5t47.5 -189t-47.5 -189t-131 -129.5t-186.5 -46.5t-186.5 46.5t-131 129.5t-47.5 189t47.5 189t131 129.5t186.5 46.5t186.5 -46.5zM238.5 633.5q-73.5 -41.5 -115 -115.5t-41.5 -168t41.5 -168t115 -115.5t166.5 -41.5t166.5 41.5
t115 115.5t41.5 168t-41.5 168t-115 115.5t-166.5 41.5t-166.5 -41.5zM339 743h-52v95h52v-95zM523 743h-52v95h52v-95z" />
    <glyph glyph-name="multiply" unicode="&#xd7;" 
d="M509 486l-188 -188l188 -188l-21 -21l-188 188l-188 -188l-21 21l188 188l-188 188l21 21l188 -188l188 188z" />
    <glyph glyph-name="Oslash" unicode="&#xd8;" horiz-adv-x="810" 
d="M733 518.5q37 -75.5 37 -168.5q0 -106 -47.5 -189t-131 -129.5t-186.5 -46.5q-113 0 -202 56l-39 -55l-24 15l40 56q-66 49 -103 124.5t-37 168.5q0 106 47.5 189t131 129.5t186.5 46.5q113 0 202 -56l39 55l24 -15l-40 -56q66 -49 103 -124.5zM114 200.5
q32 -67.5 89 -110.5l381 536q-78 49 -179 49q-93 0 -166.5 -41.5t-115 -115.5t-41.5 -168q0 -82 32 -149.5zM571.5 66.5q73.5 41.5 115 115.5t41.5 168q0 82 -32 149.5t-89 110.5l-381 -536q78 -49 179 -49q93 0 166.5 41.5z" />
    <glyph glyph-name="Ugrave" unicode="&#xd9;" horiz-adv-x="698" 
d="M618 253q0 -79 -30.5 -139.5t-91.5 -94.5t-147 -34t-147 34t-91.5 94.5t-30.5 139.5v447h43v-437q0 -112 60.5 -174.5t165.5 -62.5t165.5 62.5t60.5 174.5v437h43v-447zM367 743h-36l-117 120h58z" />
    <glyph glyph-name="Uacute" unicode="&#xda;" horiz-adv-x="698" 
d="M618 253q0 -79 -30.5 -139.5t-91.5 -94.5t-147 -34t-147 34t-91.5 94.5t-30.5 139.5v447h43v-437q0 -112 60.5 -174.5t165.5 -62.5t165.5 62.5t60.5 174.5v437h43v-447zM368 743h-36l95 120h58z" />
    <glyph glyph-name="Ucircumflex" unicode="&#xdb;" horiz-adv-x="698" 
d="M618 253q0 -79 -30.5 -139.5t-91.5 -94.5t-147 -34t-147 34t-91.5 94.5t-30.5 139.5v447h43v-437q0 -112 60.5 -174.5t165.5 -62.5t165.5 62.5t60.5 174.5v437h43v-447zM498 743h-54l-95 90l-95 -90h-54l125 120h48z" />
    <glyph glyph-name="Udieresis" unicode="&#xdc;" horiz-adv-x="698" 
d="M618 253q0 -79 -30.5 -139.5t-91.5 -94.5t-147 -34t-147 34t-91.5 94.5t-30.5 139.5v447h43v-437q0 -112 60.5 -174.5t165.5 -62.5t165.5 62.5t60.5 174.5v437h43v-447zM283 743h-52v95h52v-95zM467 743h-52v95h52v-95z" />
    <glyph glyph-name="Yacute" unicode="&#xdd;" horiz-adv-x="522" 
d="M281 266v-266h-40v266l-231 434h48l202 -389h2l202 389h48zM280 743h-36l95 120h58z" />
    <glyph glyph-name="Thorn" unicode="&#xde;" horiz-adv-x="543" 
d="M119 555h184q61 0 106 -25t69.5 -69.5t24.5 -100.5q0 -58 -25 -104t-71 -72.5t-108 -26.5h-180v-157h-39v700h39v-145zM119 517v-322h181q72 0 116.5 42.5t44.5 122.5q0 73 -44 115t-114 42h-184z" />
    <glyph glyph-name="germandbls" unicode="&#xdf;" horiz-adv-x="521" 
d="M486 205q0 -103 -65 -156.5t-192 -53.5h-70v34h67q222 0 222 176q0 94 -65 135.5t-204 41.5v32q98 0 150 37t52 105q0 57 -35 90t-96 33t-102.5 -36t-41.5 -111v-662h-36v664q0 84 48.5 132.5t132.5 48.5t126 -45.5t42 -112.5q0 -61 -36 -101.5t-106 -52.5v-2
q209 -13 209 -196z" />
    <glyph glyph-name="agrave" unicode="&#xe0;" horiz-adv-x="573" 
d="M149 15q-53 30 -83.5 86t-30.5 130t30.5 130t83.5 86t120 30q70 0 121.5 -31.5t79.5 -85.5h2v102h36v-462h-36v102h-2q-28 -54 -79.5 -85.5t-121.5 -31.5q-67 0 -120 30zM379.5 48q45.5 27 70.5 74.5t25 108.5t-25 108.5t-70.5 74.5t-105.5 27t-105.5 -27t-70.5 -74.5
t-25 -108.5t25 -108.5t70.5 -74.5t105.5 -27t105.5 27zM292 553h-36l-117 154h58z" />
    <glyph glyph-name="aacute" unicode="&#xe1;" horiz-adv-x="573" 
d="M149 15q-53 30 -83.5 86t-30.5 130t30.5 130t83.5 86t120 30q70 0 121.5 -31.5t79.5 -85.5h2v102h36v-462h-36v102h-2q-28 -54 -79.5 -85.5t-121.5 -31.5q-67 0 -120 30zM379.5 48q45.5 27 70.5 74.5t25 108.5t-25 108.5t-70.5 74.5t-105.5 27t-105.5 -27t-70.5 -74.5
t-25 -108.5t25 -108.5t70.5 -74.5t105.5 -27t105.5 27zM292 553h-36l95 154h58z" />
    <glyph glyph-name="acircumflex" unicode="&#xe2;" horiz-adv-x="573" 
d="M149 15q-53 30 -83.5 86t-30.5 130t30.5 130t83.5 86t120 30q70 0 121.5 -31.5t79.5 -85.5h2v102h36v-462h-36v102h-2q-28 -54 -79.5 -85.5t-121.5 -31.5q-67 0 -120 30zM379.5 48q45.5 27 70.5 74.5t25 108.5t-25 108.5t-70.5 74.5t-105.5 27t-105.5 -27t-70.5 -74.5
t-25 -108.5t25 -108.5t70.5 -74.5t105.5 -27t105.5 27zM421 553h-50l-97 125l-97 -125h-50l123 154h48z" />
    <glyph glyph-name="atilde" unicode="&#xe3;" horiz-adv-x="573" 
d="M149 15q-53 30 -83.5 86t-30.5 130t30.5 130t83.5 86t120 30q70 0 121.5 -31.5t79.5 -85.5h2v102h36v-462h-36v102h-2q-28 -54 -79.5 -85.5t-121.5 -31.5q-67 0 -120 30zM379.5 48q45.5 27 70.5 74.5t25 108.5t-25 108.5t-70.5 74.5t-105.5 27t-105.5 -27t-70.5 -74.5
t-25 -108.5t25 -108.5t70.5 -74.5t105.5 -27t105.5 27zM239.5 680.5q19.5 -8.5 52.5 -25.5q24 -13 39.5 -20t27.5 -7q32 0 53 48l27 -10q-13 -32 -33 -54t-53 -22q-20 0 -39.5 8.5t-52.5 25.5q-24 13 -39.5 20t-27.5 7q-32 0 -53 -48l-27 10q13 32 33 54t53 22
q20 0 39.5 -8.5z" />
    <glyph glyph-name="adieresis" unicode="&#xe4;" horiz-adv-x="573" 
d="M149 15q-53 30 -83.5 86t-30.5 130t30.5 130t83.5 86t120 30q70 0 121.5 -31.5t79.5 -85.5h2v102h36v-462h-36v102h-2q-28 -54 -79.5 -85.5t-121.5 -31.5q-67 0 -120 30zM379.5 48q45.5 27 70.5 74.5t25 108.5t-25 108.5t-70.5 74.5t-105.5 27t-105.5 -27t-70.5 -74.5
t-25 -108.5t25 -108.5t70.5 -74.5t105.5 -27t105.5 27zM208 580h-52v110h52v-110zM392 580h-52v110h52v-110z" />
    <glyph glyph-name="aring" unicode="&#xe5;" horiz-adv-x="573" 
d="M149 15q-53 30 -83.5 86t-30.5 130t30.5 130t83.5 86t120 30q70 0 121.5 -31.5t79.5 -85.5h2v102h36v-462h-36v102h-2q-28 -54 -79.5 -85.5t-121.5 -31.5q-67 0 -120 30zM379.5 48q45.5 27 70.5 74.5t25 108.5t-25 108.5t-70.5 74.5t-105.5 27t-105.5 -27t-70.5 -74.5
t-25 -108.5t25 -108.5t70.5 -74.5t105.5 -27t105.5 27zM359.5 714q33.5 -33 33.5 -84t-33.5 -84t-85.5 -33t-85.5 33t-33.5 84t33.5 84t85.5 33t85.5 -33zM209 695q-24 -24 -24 -65t24 -65t65 -24t65 24t24 65t-24 65t-65 24t-65 -24z" />
    <glyph glyph-name="ae" unicode="&#xe6;" horiz-adv-x="906" 
d="M78 30.5q-53 45.5 -53 123.5q0 76 52 123t140 47q63 0 111.5 -26.5t73.5 -79.5h2v70q0 76 -42 114.5t-120 38.5q-64 0 -154 -22l-9 38q87 20 161 20q167 0 194 -132h2q26 62 82.5 97t129.5 35q74 0 124 -34t74.5 -88.5t24.5 -115.5v-10h-419q0 -62 26 -109t71.5 -73
t104.5 -26q62 0 103.5 27t76.5 72l28 -23q-78 -112 -208 -112q-81 0 -140.5 41t-83.5 111h-2q-20 -72 -74.5 -112t-135.5 -40q-87 0 -140 45.5zM831 263q-8 83 -55.5 130.5t-128.5 47.5q-78 0 -132 -47t-62 -131h378zM310.5 39.5q37.5 18.5 57.5 48.5t20 66q0 60 -49.5 97
t-119.5 37q-71 0 -113.5 -37.5t-42.5 -98.5t42.5 -96t115.5 -35q52 0 89.5 18.5z" />
    <glyph glyph-name="ccedilla" unicode="&#xe7;" horiz-adv-x="469" 
d="M295 -15l-13 -33q33 -8 52.5 -22t19.5 -46q0 -30 -27.5 -49t-88.5 -47l-9 19q47 22 67 38t20 34t-14.5 26.5t-54.5 17.5l24 62q-70 2 -123.5 34t-83 87t-29.5 125q0 72 31 128t87 87t129 31q82 0 157 -45l-19 -33q-37 22 -70 32t-70 10q-61 0 -108.5 -28.5t-73 -76.5
t-25.5 -105t25.5 -105t73 -76.5t108.5 -28.5q37 0 70 10t70 32l19 -33q-69 -42 -144 -45z" />
    <glyph glyph-name="egrave" unicode="&#xe8;" horiz-adv-x="526" 
d="M436.5 408.5q54.5 -68.5 54.5 -169.5v-10h-419q0 -97 55 -152.5t147 -55.5q67 0 106 26.5t74 72.5l28 -22q-33 -48 -81.5 -80.5t-126.5 -32.5q-72 0 -126 30.5t-83.5 86t-29.5 128.5q0 77 30.5 133t83 85t119.5 29q114 0 168.5 -68.5zM135 394q-55 -47 -62 -131h378
q-7 85 -53.5 131.5t-130.5 46.5q-77 0 -132 -47zM286 553h-36l-117 154h58z" />
    <glyph glyph-name="eacute" unicode="&#xe9;" horiz-adv-x="526" 
d="M436.5 408.5q54.5 -68.5 54.5 -169.5v-10h-419q0 -97 55 -152.5t147 -55.5q67 0 106 26.5t74 72.5l28 -22q-33 -48 -81.5 -80.5t-126.5 -32.5q-72 0 -126 30.5t-83.5 86t-29.5 128.5q0 77 30.5 133t83 85t119.5 29q114 0 168.5 -68.5zM135 394q-55 -47 -62 -131h378
q-7 85 -53.5 131.5t-130.5 46.5q-77 0 -132 -47zM286 553h-36l95 154h58z" />
    <glyph glyph-name="ecircumflex" unicode="&#xea;" horiz-adv-x="526" 
d="M436.5 408.5q54.5 -68.5 54.5 -169.5v-10h-419q0 -97 55 -152.5t147 -55.5q67 0 106 26.5t74 72.5l28 -22q-33 -48 -81.5 -80.5t-126.5 -32.5q-72 0 -126 30.5t-83.5 86t-29.5 128.5q0 77 30.5 133t83 85t119.5 29q114 0 168.5 -68.5zM135 394q-55 -47 -62 -131h378
q-7 85 -53.5 131.5t-130.5 46.5q-77 0 -132 -47zM415 553h-50l-97 125l-97 -125h-50l123 154h48z" />
    <glyph glyph-name="edieresis" unicode="&#xeb;" horiz-adv-x="526" 
d="M436.5 408.5q54.5 -68.5 54.5 -169.5v-10h-419q0 -97 55 -152.5t147 -55.5q67 0 106 26.5t74 72.5l28 -22q-33 -48 -81.5 -80.5t-126.5 -32.5q-72 0 -126 30.5t-83.5 86t-29.5 128.5q0 77 30.5 133t83 85t119.5 29q114 0 168.5 -68.5zM135 394q-55 -47 -62 -131h378
q-7 85 -53.5 131.5t-130.5 46.5q-77 0 -132 -47zM202 580h-52v110h52v-110zM386 580h-52v110h52v-110z" />
    <glyph glyph-name="igrave" unicode="&#xec;" horiz-adv-x="166" 
d="M101 553h-36l-67 154h48zM65 462h36v-462h-36v462z" />
    <glyph glyph-name="iacute" unicode="&#xed;" horiz-adv-x="166" 
d="M120 707h48l-67 -154h-36zM65 462h36v-462h-36v462z" />
    <glyph glyph-name="icircumflex" unicode="&#xee;" horiz-adv-x="166" 
d="M177 553h-42l-52 129l-52 -129h-42l70 154h48zM65 462h36v-462h-36v462z" />
    <glyph glyph-name="idieresis" unicode="&#xef;" horiz-adv-x="166" 
d="M57 580h-52v110h52v-110zM161 580h-52v110h52v-110zM65 462h36v-462h-36v462z" />
    <glyph glyph-name="eth" unicode="&#xf0;" horiz-adv-x="583" 
d="M538 304q0 -114 -36 -185.5t-94 -102.5t-126 -31q-76 0 -132 32.5t-85.5 89t-29.5 126.5q0 74 32.5 129.5t88.5 85t125 29.5q89 0 146 -46t76 -134h4q0 239 -155 351l-102 -93l-22 22l98 89q-79 47 -182 64l8 34q120 -21 202 -73l77 70l20 -23l-71 -65q158 -119 158 -369
zM388 45.5q46 24.5 71.5 70t25.5 106.5q0 66 -25.5 116t-72 76.5t-106.5 26.5q-61 0 -108 -26t-73.5 -73.5t-26.5 -109.5q0 -63 27 -111t75 -74t108 -26q59 0 105 24.5z" />
    <glyph glyph-name="ntilde" unicode="&#xf1;" horiz-adv-x="538" 
d="M424.5 427q48.5 -50 48.5 -150v-277h-36v277q0 82 -40.5 123t-107.5 41q-78 0 -130.5 -56.5t-52.5 -182.5v-202h-36v462h35v-116h2q23 65 70 98t114 33q85 0 133.5 -50zM242.5 680.5q19.5 -8.5 52.5 -25.5q24 -13 39.5 -20t27.5 -7q32 0 53 48l27 -10q-13 -32 -33 -54
t-53 -22q-20 0 -39.5 8.5t-52.5 25.5q-24 13 -39.5 20t-27.5 7q-32 0 -53 -48l-27 10q13 32 33 54t53 22q20 0 39.5 -8.5z" />
    <glyph glyph-name="ograve" unicode="&#xf2;" horiz-adv-x="562" 
d="M408 446q56 -31 87.5 -87t31.5 -128t-31.5 -128t-87.5 -87t-127 -31t-127 31t-87.5 87t-31.5 128t31.5 128t87.5 87t127 31t127 -31zM175.5 414.5q-47.5 -26.5 -75 -74t-27.5 -109.5t27.5 -109.5t75 -74t105.5 -26.5t105.5 26.5t75 74t27.5 109.5t-27.5 109.5t-75 74
t-105.5 26.5t-105.5 -26.5zM299 553h-36l-117 154h58z" />
    <glyph glyph-name="oacute" unicode="&#xf3;" horiz-adv-x="562" 
d="M408 446q56 -31 87.5 -87t31.5 -128t-31.5 -128t-87.5 -87t-127 -31t-127 31t-87.5 87t-31.5 128t31.5 128t87.5 87t127 31t127 -31zM175.5 414.5q-47.5 -26.5 -75 -74t-27.5 -109.5t27.5 -109.5t75 -74t105.5 -26.5t105.5 26.5t75 74t27.5 109.5t-27.5 109.5t-75 74
t-105.5 26.5t-105.5 -26.5zM299 553h-36l95 154h58z" />
    <glyph glyph-name="ocircumflex" unicode="&#xf4;" horiz-adv-x="562" 
d="M408 446q56 -31 87.5 -87t31.5 -128t-31.5 -128t-87.5 -87t-127 -31t-127 31t-87.5 87t-31.5 128t31.5 128t87.5 87t127 31t127 -31zM175.5 414.5q-47.5 -26.5 -75 -74t-27.5 -109.5t27.5 -109.5t75 -74t105.5 -26.5t105.5 26.5t75 74t27.5 109.5t-27.5 109.5t-75 74
t-105.5 26.5t-105.5 -26.5zM428 553h-50l-97 125l-97 -125h-50l123 154h48z" />
    <glyph glyph-name="otilde" unicode="&#xf5;" horiz-adv-x="562" 
d="M408 446q56 -31 87.5 -87t31.5 -128t-31.5 -128t-87.5 -87t-127 -31t-127 31t-87.5 87t-31.5 128t31.5 128t87.5 87t127 31t127 -31zM175.5 414.5q-47.5 -26.5 -75 -74t-27.5 -109.5t27.5 -109.5t75 -74t105.5 -26.5t105.5 26.5t75 74t27.5 109.5t-27.5 109.5t-75 74
t-105.5 26.5t-105.5 -26.5zM246.5 680.5q19.5 -8.5 52.5 -25.5q24 -13 39.5 -20t27.5 -7q32 0 53 48l27 -10q-13 -32 -33 -54t-53 -22q-20 0 -39.5 8.5t-52.5 25.5q-24 13 -39.5 20t-27.5 7q-32 0 -53 -48l-27 10q13 32 33 54t53 22q20 0 39.5 -8.5z" />
    <glyph glyph-name="odieresis" unicode="&#xf6;" horiz-adv-x="562" 
d="M408 446q56 -31 87.5 -87t31.5 -128t-31.5 -128t-87.5 -87t-127 -31t-127 31t-87.5 87t-31.5 128t31.5 128t87.5 87t127 31t127 -31zM175.5 414.5q-47.5 -26.5 -75 -74t-27.5 -109.5t27.5 -109.5t75 -74t105.5 -26.5t105.5 26.5t75 74t27.5 109.5t-27.5 109.5t-75 74
t-105.5 26.5t-105.5 -26.5zM215 580h-52v110h52v-110zM399 580h-52v110h52v-110z" />
    <glyph glyph-name="divide" unicode="&#xf7;" 
d="M329 410h-58v70h58v-70zM559 284h-518v28h518v-28zM329 115h-58v71h58v-71z" />
    <glyph glyph-name="oslash" unicode="&#xf8;" horiz-adv-x="562" 
d="M509 330q18 -45 18 -99q0 -72 -31.5 -128t-87.5 -87t-127 -31q-86 0 -150 45l-38 -44l-21 18l38 44q-36 34 -55.5 80.5t-19.5 102.5q0 72 31.5 128t87.5 87t127 31q90 0 155 -49l42 49l22 -19l-42 -49q33 -34 51 -79zM89.5 145q16.5 -39 45.5 -68l276 322q-56 42 -130 42
q-58 0 -105.5 -26.5t-75 -74t-27.5 -109.5q0 -47 16.5 -86zM386.5 47.5q47.5 26.5 75 74t27.5 109.5q0 45 -15 83t-42 65l-276 -319q55 -39 125 -39q58 0 105.5 26.5z" />
    <glyph glyph-name="ugrave" unicode="&#xf9;" horiz-adv-x="526" 
d="M112.5 34q-47.5 49 -47.5 150v278h36v-282q0 -82 39 -120.5t104 -38.5q78 0 127 58.5t49 190.5v192h36v-462h-35v108h-2q-20 -53 -63.5 -88t-115.5 -35q-80 0 -127.5 49zM279 553h-36l-117 154h58z" />
    <glyph glyph-name="uacute" unicode="&#xfa;" horiz-adv-x="526" 
d="M112.5 34q-47.5 49 -47.5 150v278h36v-282q0 -82 39 -120.5t104 -38.5q78 0 127 58.5t49 190.5v192h36v-462h-35v108h-2q-20 -53 -63.5 -88t-115.5 -35q-80 0 -127.5 49zM279 553h-36l95 154h58z" />
    <glyph glyph-name="ucircumflex" unicode="&#xfb;" horiz-adv-x="526" 
d="M112.5 34q-47.5 49 -47.5 150v278h36v-282q0 -82 39 -120.5t104 -38.5q78 0 127 58.5t49 190.5v192h36v-462h-35v108h-2q-20 -53 -63.5 -88t-115.5 -35q-80 0 -127.5 49zM408 553h-50l-97 125l-97 -125h-50l123 154h48z" />
    <glyph glyph-name="udieresis" unicode="&#xfc;" horiz-adv-x="526" 
d="M112.5 34q-47.5 49 -47.5 150v278h36v-282q0 -82 39 -120.5t104 -38.5q78 0 127 58.5t49 190.5v192h36v-462h-35v108h-2q-20 -53 -63.5 -88t-115.5 -35q-80 0 -127.5 49zM195 580h-52v110h52v-110zM379 580h-52v110h52v-110z" />
    <glyph glyph-name="yacute" unicode="&#xfd;" horiz-adv-x="443" 
d="M433 462l-321 -662h-40l128 256l-190 406h42l166 -369l173 369h42zM240 553h-36l95 154h58z" />
    <glyph glyph-name="thorn" unicode="&#xfe;" horiz-adv-x="578" 
d="M70 700h36v-340h2q28 54 79.5 85.5t121.5 31.5q67 0 120 -30t83.5 -86t30.5 -130t-30.5 -130t-83.5 -86t-120 -30q-70 0 -121.5 31.5t-79.5 85.5h-2v-302h-36v900zM409.5 48q45.5 27 70.5 74.5t25 108.5t-25 108.5t-70.5 74.5t-105.5 27t-105.5 -27t-70.5 -74.5
t-25 -108.5t25 -108.5t70.5 -74.5t105.5 -27t105.5 27z" />
    <glyph glyph-name="ydieresis" unicode="&#xff;" horiz-adv-x="443" 
d="M433 462l-321 -662h-40l128 256l-190 406h42l166 -369l173 369h42zM156 580h-52v110h52v-110zM340 580h-52v110h52v-110z" />
    <glyph glyph-name="Amacron" unicode="&#x100;" horiz-adv-x="632" 
d="M497 204h-362l-83 -204h-42l285 700h42l285 -700h-42zM481 242l-165 406l-165 -406h330zM451 789h-271v34h271v-34z" />
    <glyph glyph-name="amacron" unicode="&#x101;" horiz-adv-x="573" 
d="M149 15q-53 30 -83.5 86t-30.5 130t30.5 130t83.5 86t120 30q70 0 121.5 -31.5t79.5 -85.5h2v102h36v-462h-36v102h-2q-28 -54 -79.5 -85.5t-121.5 -31.5q-67 0 -120 30zM379.5 48q45.5 27 70.5 74.5t25 108.5t-25 108.5t-70.5 74.5t-105.5 27t-105.5 -27t-70.5 -74.5
t-25 -108.5t25 -108.5t70.5 -74.5t105.5 -27t105.5 27zM409 616h-271v34h271v-34z" />
    <glyph glyph-name="Abreve" unicode="&#x102;" horiz-adv-x="632" 
d="M497 204h-362l-83 -204h-42l285 700h42l285 -700h-42zM481 242l-165 406l-165 -406h330zM414.5 775q-37.5 -32 -98.5 -32t-98.5 32t-37.5 88h34q1 -41 28 -64t74 -23t74 23t28 64h34q0 -56 -37.5 -88z" />
    <glyph glyph-name="abreve" unicode="&#x103;" horiz-adv-x="573" 
d="M149 15q-53 30 -83.5 86t-30.5 130t30.5 130t83.5 86t120 30q70 0 121.5 -31.5t79.5 -85.5h2v102h36v-462h-36v102h-2q-28 -54 -79.5 -85.5t-121.5 -31.5q-67 0 -120 30zM379.5 48q45.5 27 70.5 74.5t25 108.5t-25 108.5t-70.5 74.5t-105.5 27t-105.5 -27t-70.5 -74.5
t-25 -108.5t25 -108.5t70.5 -74.5t105.5 -27t105.5 27zM372.5 597.5q-37.5 -37.5 -98.5 -37.5t-98.5 37.5t-37.5 102.5h34q2 -50 29 -78.5t73 -28.5t73 28.5t29 78.5h34q0 -65 -37.5 -102.5z" />
    <glyph glyph-name="Aogonek" unicode="&#x104;" horiz-adv-x="632" 
d="M602 -146l2 -32q-31 -9 -58 -9q-36 0 -61.5 16.5t-25.5 48.5t28.5 68.5t84.5 73.5l-75 184h-362l-83 -204h-42l285 700h42l285 -700h-30q-48 -35 -72 -63t-24 -53q0 -37 54 -37q26 0 52 7zM481 242l-165 406l-165 -406h330z" />
    <glyph glyph-name="aogonek" unicode="&#x105;" horiz-adv-x="573" 
d="M415 -63q-24 -28 -24 -53q0 -37 54 -37q26 0 52 7l2 -32q-31 -9 -58 -9q-36 0 -61.5 16.5t-25.5 48.5q0 67 118 146v78h-2q-28 -54 -79.5 -85.5t-121.5 -31.5q-67 0 -120 30t-83.5 86t-30.5 130t30.5 130t83.5 86t120 30q70 0 121.5 -31.5t79.5 -85.5h2v102h36v-462h-21
q-48 -35 -72 -63zM379.5 48q45.5 27 70.5 74.5t25 108.5t-25 108.5t-70.5 74.5t-105.5 27t-105.5 -27t-70.5 -74.5t-25 -108.5t25 -108.5t70.5 -74.5t105.5 -27t105.5 27z" />
    <glyph glyph-name="Cacute" unicode="&#x106;" horiz-adv-x="688" 
d="M216.5 31q-84.5 46 -130.5 129t-46 190t46 190t130.5 129t196.5 46q72 0 128.5 -20t111.5 -61l-25 -34q-49 37 -99.5 56t-116.5 19q-98 0 -173 -41.5t-116 -115.5t-41 -168t41 -168t116 -115.5t173 -41.5q66 0 116.5 19t99.5 56l25 -34q-55 -41 -111.5 -61t-128.5 -20
q-112 0 -196.5 46zM431 743h-36l95 120h58z" />
    <glyph glyph-name="cacute" unicode="&#x107;" horiz-adv-x="469" 
d="M153 16q-56 31 -87 87t-31 128t31 128t87 87t129 31q82 0 157 -45l-19 -33q-37 22 -70 32t-70 10q-61 0 -108.5 -28.5t-73 -76.5t-25.5 -105t25.5 -105t73 -76.5t108.5 -28.5q37 0 70 10t70 32l19 -33q-75 -45 -157 -45q-73 0 -129 31zM295 553h-36l95 154h58z" />
    <glyph glyph-name="Ccircumflex" unicode="&#x108;" horiz-adv-x="688" 
d="M216.5 31q-84.5 46 -130.5 129t-46 190t46 190t130.5 129t196.5 46q72 0 128.5 -20t111.5 -61l-25 -34q-49 37 -99.5 56t-116.5 19q-98 0 -173 -41.5t-116 -115.5t-41 -168t41 -168t116 -115.5t173 -41.5q66 0 116.5 19t99.5 56l25 -34q-55 -41 -111.5 -61t-128.5 -20
q-112 0 -196.5 46zM561 743h-54l-95 90l-95 -90h-54l125 120h48z" />
    <glyph glyph-name="ccircumflex" unicode="&#x109;" horiz-adv-x="469" 
d="M153 16q-56 31 -87 87t-31 128t31 128t87 87t129 31q82 0 157 -45l-19 -33q-37 22 -70 32t-70 10q-61 0 -108.5 -28.5t-73 -76.5t-25.5 -105t25.5 -105t73 -76.5t108.5 -28.5q37 0 70 10t70 32l19 -33q-75 -45 -157 -45q-73 0 -129 31zM424 553h-50l-97 125l-97 -125h-50
l123 154h48z" />
    <glyph glyph-name="Cdotaccent" unicode="&#x10a;" horiz-adv-x="688" 
d="M216.5 31q-84.5 46 -130.5 129t-46 190t46 190t130.5 129t196.5 46q72 0 128.5 -20t111.5 -61l-25 -34q-49 37 -99.5 56t-116.5 19q-98 0 -173 -41.5t-116 -115.5t-41 -168t41 -168t116 -115.5t173 -41.5q66 0 116.5 19t99.5 56l25 -34q-55 -41 -111.5 -61t-128.5 -20
q-112 0 -196.5 46zM438 743h-52v110h52v-110z" />
    <glyph glyph-name="cdotaccent" unicode="&#x10b;" horiz-adv-x="469" 
d="M153 16q-56 31 -87 87t-31 128t31 128t87 87t129 31q82 0 157 -45l-19 -33q-37 22 -70 32t-70 10q-61 0 -108.5 -28.5t-73 -76.5t-25.5 -105t25.5 -105t73 -76.5t108.5 -28.5q37 0 70 10t70 32l19 -33q-75 -45 -157 -45q-73 0 -129 31zM303 570h-52v120h52v-120z" />
    <glyph glyph-name="Ccaron" unicode="&#x10c;" horiz-adv-x="688" 
d="M216.5 31q-84.5 46 -130.5 129t-46 190t46 190t130.5 129t196.5 46q72 0 128.5 -20t111.5 -61l-25 -34q-49 37 -99.5 56t-116.5 19q-98 0 -173 -41.5t-116 -115.5t-41 -168t41 -168t116 -115.5t173 -41.5q66 0 116.5 19t99.5 56l25 -34q-55 -41 -111.5 -61t-128.5 -20
q-112 0 -196.5 46zM388 743l-125 120h54l95 -90l95 90h54l-125 -120h-48z" />
    <glyph glyph-name="ccaron" unicode="&#x10d;" horiz-adv-x="469" 
d="M153 16q-56 31 -87 87t-31 128t31 128t87 87t129 31q82 0 157 -45l-19 -33q-37 22 -70 32t-70 10q-61 0 -108.5 -28.5t-73 -76.5t-25.5 -105t25.5 -105t73 -76.5t108.5 -28.5q37 0 70 10t70 32l19 -33q-75 -45 -157 -45q-73 0 -129 31zM301 546h-48l-133 154h50l107 -125
l107 125h50z" />
    <glyph glyph-name="Dcaron" unicode="&#x10e;" horiz-adv-x="682" 
d="M472 657.5q80 -42.5 125 -121.5t45 -186t-45 -186t-125 -121.5t-182 -42.5h-210v700h210q102 0 182 -42.5zM120 662v-625h170q87 0 157.5 36.5t111.5 107.5t41 169t-41 168.5t-111.5 107t-157.5 36.5h-170zM268 743l-125 120h54l95 -90l95 90h54l-125 -120h-48z" />
    <glyph glyph-name="dcaron" unicode="&#x10f;" horiz-adv-x="645" 
d="M645 715v-73l-62 -142h-26l47 142h-32v73h73zM472 700h36v-700h-36v102h-2q-28 -54 -79.5 -85.5t-121.5 -31.5q-67 0 -120 30t-83.5 86t-30.5 130t30.5 130t83.5 86t120 30q70 0 121.5 -31.5t79.5 -85.5h2v340zM379.5 48q45.5 27 70.5 74.5t25 108.5t-25 108.5
t-70.5 74.5t-105.5 27t-105.5 -27t-70.5 -74.5t-25 -108.5t25 -108.5t70.5 -74.5t105.5 -27t105.5 27z" />
    <glyph glyph-name="Dcroat" unicode="&#x110;" horiz-adv-x="692" 
d="M482 657.5q80 -42.5 125 -121.5t45 -186t-45 -186t-125 -121.5t-182 -42.5h-210v346h-80v35h80v319h210q102 0 182 -42.5zM457.5 73.5q70.5 36.5 111.5 107.5t41 169t-41 168.5t-111.5 107t-157.5 36.5h-170v-281h218v-35h-218v-309h170q87 0 157.5 36.5z" />
    <glyph glyph-name="dcroat" unicode="&#x111;" horiz-adv-x="568" 
d="M568 579h-60v-579h-36v102h-2q-28 -54 -79.5 -85.5t-121.5 -31.5q-67 0 -120 30t-83.5 86t-30.5 130t30.5 130t83.5 86t120 30q70 0 121.5 -31.5t79.5 -85.5h2v219h-145v30h145v91h36v-91h60v-30zM379.5 48q45.5 27 70.5 74.5t25 108.5t-25 108.5t-70.5 74.5t-105.5 27
t-105.5 -27t-70.5 -74.5t-25 -108.5t25 -108.5t70.5 -74.5t105.5 -27t105.5 27z" />
    <glyph glyph-name="Emacron" unicode="&#x112;" horiz-adv-x="515" 
d="M465 38v-38h-385v700h380v-38h-340v-249h313v-38h-313v-337h345zM422 789h-271v34h271v-34z" />
    <glyph glyph-name="emacron" unicode="&#x113;" horiz-adv-x="526" 
d="M436.5 408.5q54.5 -68.5 54.5 -169.5v-10h-419q0 -97 55 -152.5t147 -55.5q67 0 106 26.5t74 72.5l28 -22q-33 -48 -81.5 -80.5t-126.5 -32.5q-72 0 -126 30.5t-83.5 86t-29.5 128.5q0 77 30.5 133t83 85t119.5 29q114 0 168.5 -68.5zM135 394q-55 -47 -62 -131h378
q-7 85 -53.5 131.5t-130.5 46.5q-77 0 -132 -47zM403 616h-271v34h271v-34z" />
    <glyph glyph-name="Ebreve" unicode="&#x114;" horiz-adv-x="515" 
d="M465 38v-38h-385v700h380v-38h-340v-249h313v-38h-313v-337h345zM385.5 775q-37.5 -32 -98.5 -32t-98.5 32t-37.5 88h34q1 -41 28 -64t74 -23t74 23t28 64h34q0 -56 -37.5 -88z" />
    <glyph glyph-name="ebreve" unicode="&#x115;" horiz-adv-x="526" 
d="M436.5 408.5q54.5 -68.5 54.5 -169.5v-10h-419q0 -97 55 -152.5t147 -55.5q67 0 106 26.5t74 72.5l28 -22q-33 -48 -81.5 -80.5t-126.5 -32.5q-72 0 -126 30.5t-83.5 86t-29.5 128.5q0 77 30.5 133t83 85t119.5 29q114 0 168.5 -68.5zM135 394q-55 -47 -62 -131h378
q-7 85 -53.5 131.5t-130.5 46.5q-77 0 -132 -47zM366.5 597.5q-37.5 -37.5 -98.5 -37.5t-98.5 37.5t-37.5 102.5h34q2 -50 29 -78.5t73 -28.5t73 28.5t29 78.5h34q0 -65 -37.5 -102.5z" />
    <glyph glyph-name="Edotaccent" unicode="&#x116;" horiz-adv-x="515" 
d="M465 38v-38h-385v700h380v-38h-340v-249h313v-38h-313v-337h345zM313 743h-52v110h52v-110z" />
    <glyph glyph-name="edotaccent" unicode="&#x117;" horiz-adv-x="526" 
d="M436.5 408.5q54.5 -68.5 54.5 -169.5v-10h-419q0 -97 55 -152.5t147 -55.5q67 0 106 26.5t74 72.5l28 -22q-33 -48 -81.5 -80.5t-126.5 -32.5q-72 0 -126 30.5t-83.5 86t-29.5 128.5q0 77 30.5 133t83 85t119.5 29q114 0 168.5 -68.5zM135 394q-55 -47 -62 -131h378
q-7 85 -53.5 131.5t-130.5 46.5q-77 0 -132 -47zM294 570h-52v120h52v-120z" />
    <glyph glyph-name="Eogonek" unicode="&#x118;" horiz-adv-x="515" 
d="M374 -63q-24 -28 -24 -53q0 -37 54 -37q26 0 52 7l2 -32q-31 -9 -58 -9q-36 0 -61.5 16.5t-25.5 48.5q0 57 85 122h-318v700h380v-38h-340v-249h313v-38h-313v-337h345v-38h-19q-48 -35 -72 -63z" />
    <glyph glyph-name="eogonek" unicode="&#x119;" horiz-adv-x="526" 
d="M491 229h-419q0 -97 55 -152.5t147 -55.5q67 0 106 26.5t74 72.5l28 -22q-43 -63 -99 -90q-54 -38 -80.5 -68t-26.5 -56q0 -37 54 -37q26 0 52 7l2 -32q-31 -9 -58 -9q-36 0 -61.5 16.5t-25.5 48.5q0 50 69 109q-22 -2 -34 -2q-72 0 -126 30.5t-83.5 86t-29.5 128.5
q0 77 30.5 133t83 85t119.5 29q114 0 168.5 -68.5t54.5 -169.5v-10zM451 263q-7 85 -53.5 131.5t-130.5 46.5q-77 0 -132 -47t-62 -131h378z" />
    <glyph glyph-name="Ecaron" unicode="&#x11a;" horiz-adv-x="515" 
d="M465 38v-38h-385v700h380v-38h-340v-249h313v-38h-313v-337h345zM263 743l-125 120h54l95 -90l95 90h54l-125 -120h-48z" />
    <glyph glyph-name="ecaron" unicode="&#x11b;" horiz-adv-x="526" 
d="M436.5 408.5q54.5 -68.5 54.5 -169.5v-10h-419q0 -97 55 -152.5t147 -55.5q67 0 106 26.5t74 72.5l28 -22q-33 -48 -81.5 -80.5t-126.5 -32.5q-72 0 -126 30.5t-83.5 86t-29.5 128.5q0 77 30.5 133t83 85t119.5 29q114 0 168.5 -68.5zM135 394q-55 -47 -62 -131h378
q-7 85 -53.5 131.5t-130.5 46.5q-77 0 -132 -47zM292 546h-48l-133 154h50l107 -125l107 125h50z" />
    <glyph glyph-name="Gcircumflex" unicode="&#x11c;" horiz-adv-x="800" 
d="M765 355v-17q0 -87 -39 -168t-119 -133t-197 -52q-108 0 -192 46t-131 128.5t-47 188.5t47 189.5t130.5 130.5t190.5 47q81 0 143 -23.5t123 -68.5l-27 -35q-54 41 -110 64t-130 23q-92 0 -166 -42t-116.5 -117t-42.5 -168q0 -92 41 -165.5t115.5 -115.5t171.5 -42
q105 0 175 46.5t103.5 114.5t34.5 131h-277v38h319zM557 743h-54l-95 90l-95 -90h-54l125 120h48z" />
    <glyph glyph-name="gcircumflex" unicode="&#x11d;" horiz-adv-x="573" 
d="M121 -195l9 37q95 -21 170 -21q172 0 172 172v109h-2q-28 -54 -79.5 -85.5t-121.5 -31.5q-67 0 -120 30t-83.5 86t-30.5 130t30.5 130t83.5 86t120 30q70 0 121.5 -31.5t79.5 -85.5h2v102h36v-462q0 -123 -56 -169t-153 -46q-93 0 -178 20zM379.5 48q45.5 27 70.5 74.5
t25 108.5t-25 108.5t-70.5 74.5t-105.5 27t-105.5 -27t-70.5 -74.5t-25 -108.5t25 -108.5t70.5 -74.5t105.5 -27t105.5 27zM436 553h-50l-97 125l-97 -125h-50l123 154h48z" />
    <glyph glyph-name="Gbreve" unicode="&#x11e;" horiz-adv-x="800" 
d="M765 355v-17q0 -87 -39 -168t-119 -133t-197 -52q-108 0 -192 46t-131 128.5t-47 188.5t47 189.5t130.5 130.5t190.5 47q81 0 143 -23.5t123 -68.5l-27 -35q-54 41 -110 64t-130 23q-92 0 -166 -42t-116.5 -117t-42.5 -168q0 -92 41 -165.5t115.5 -115.5t171.5 -42
q105 0 175 46.5t103.5 114.5t34.5 131h-277v38h319zM506.5 775q-37.5 -32 -98.5 -32t-98.5 32t-37.5 88h34q1 -41 28 -64t74 -23t74 23t28 64h34q0 -56 -37.5 -88z" />
    <glyph glyph-name="gbreve" unicode="&#x11f;" horiz-adv-x="573" 
d="M121 -195l9 37q95 -21 170 -21q172 0 172 172v109h-2q-28 -54 -79.5 -85.5t-121.5 -31.5q-67 0 -120 30t-83.5 86t-30.5 130t30.5 130t83.5 86t120 30q70 0 121.5 -31.5t79.5 -85.5h2v102h36v-462q0 -123 -56 -169t-153 -46q-93 0 -178 20zM379.5 48q45.5 27 70.5 74.5
t25 108.5t-25 108.5t-70.5 74.5t-105.5 27t-105.5 -27t-70.5 -74.5t-25 -108.5t25 -108.5t70.5 -74.5t105.5 -27t105.5 27zM387.5 597.5q-37.5 -37.5 -98.5 -37.5t-98.5 37.5t-37.5 102.5h34q2 -50 29 -78.5t73 -28.5t73 28.5t29 78.5h34q0 -65 -37.5 -102.5z" />
    <glyph glyph-name="Gdotaccent" unicode="&#x120;" horiz-adv-x="800" 
d="M765 355v-17q0 -87 -39 -168t-119 -133t-197 -52q-108 0 -192 46t-131 128.5t-47 188.5t47 189.5t130.5 130.5t190.5 47q81 0 143 -23.5t123 -68.5l-27 -35q-54 41 -110 64t-130 23q-92 0 -166 -42t-116.5 -117t-42.5 -168q0 -92 41 -165.5t115.5 -115.5t171.5 -42
q105 0 175 46.5t103.5 114.5t34.5 131h-277v38h319zM434 743h-52v110h52v-110z" />
    <glyph glyph-name="gdotaccent" unicode="&#x121;" horiz-adv-x="573" 
d="M121 -195l9 37q95 -21 170 -21q172 0 172 172v109h-2q-28 -54 -79.5 -85.5t-121.5 -31.5q-67 0 -120 30t-83.5 86t-30.5 130t30.5 130t83.5 86t120 30q70 0 121.5 -31.5t79.5 -85.5h2v102h36v-462q0 -123 -56 -169t-153 -46q-93 0 -178 20zM379.5 48q45.5 27 70.5 74.5
t25 108.5t-25 108.5t-70.5 74.5t-105.5 27t-105.5 -27t-70.5 -74.5t-25 -108.5t25 -108.5t70.5 -74.5t105.5 -27t105.5 27zM315 570h-52v120h52v-120z" />
    <glyph glyph-name="Gcommaaccent" unicode="&#x122;" horiz-adv-x="800" 
d="M765 355v-17q0 -87 -39 -168t-119 -133t-197 -52q-108 0 -192 46t-131 128.5t-47 188.5t47 189.5t130.5 130.5t190.5 47q81 0 143 -23.5t123 -68.5l-27 -35q-54 41 -110 64t-130 23q-92 0 -166 -42t-116.5 -117t-42.5 -168q0 -92 41 -165.5t115.5 -115.5t171.5 -42
q105 0 175 46.5t103.5 114.5t34.5 131h-277v38h319zM454 -47v-73l-60 -80h-22l42 80h-33v73h73z" />
    <glyph glyph-name="gcommaaccent" unicode="&#x123;" horiz-adv-x="573" 
d="M121 -195l9 37q95 -21 170 -21q172 0 172 172v109h-2q-28 -54 -79.5 -85.5t-121.5 -31.5q-67 0 -120 30t-83.5 86t-30.5 130t30.5 130t83.5 86t120 30q70 0 121.5 -31.5t79.5 -85.5h2v102h36v-462q0 -123 -56 -169t-153 -46q-93 0 -178 20zM379.5 48q45.5 27 70.5 74.5
t25 108.5t-25 108.5t-70.5 74.5t-105.5 27t-105.5 -27t-70.5 -74.5t-25 -108.5t25 -108.5t70.5 -74.5t105.5 -27t105.5 27zM286 613h33v-73h-73v73l60 80h22z" />
    <glyph glyph-name="Hcircumflex" unicode="&#x124;" horiz-adv-x="680" 
d="M600 700v-700h-40v357h-440v-357h-40v700h40v-305h440v305h40zM489 743h-54l-95 90l-95 -90h-54l125 120h48z" />
    <glyph glyph-name="hcircumflex" unicode="&#x125;" horiz-adv-x="538" 
d="M106 346h2q22 64 71 97.5t113 33.5q83 0 132 -50t49 -150v-277h-36v277q0 83 -39.5 123.5t-106.5 40.5q-78 0 -131.5 -56.5t-53.5 -182.5v-202h-36v700h36v-354zM237 743h-54l-95 90l-95 -90h-54l125 120h48z" />
    <glyph glyph-name="Hbar" unicode="&#x126;" horiz-adv-x="660" 
d="M660 530h-70v-530h-40v357h-440v-357h-40v530h-70v35h70v135h40v-135h440v135h40v-135h70v-35zM550 530h-440v-135h440v135z" />
    <glyph glyph-name="hbar" unicode="&#x127;" horiz-adv-x="538" 
d="M424 427q49 -50 49 -150v-277h-36v277q0 83 -39.5 123.5t-106.5 40.5q-78 0 -131.5 -56.5t-53.5 -182.5v-202h-36v579h-70v30h70v91h36v-91h165v-30h-165v-233h2q22 64 71 97.5t113 33.5q83 0 132 -50z" />
    <glyph glyph-name="Itilde" unicode="&#x128;" horiz-adv-x="200" 
d="M120 0h-40v700h40v-700zM143.5 761.5q-19.5 8.5 -52.5 25.5q-24 13 -39.5 20t-27.5 7q-32 0 -53 -48l-27 10q13 32 33 54t53 22q20 0 39.5 -8.5t52.5 -25.5q24 -13 39.5 -20t27.5 -7q32 0 53 48l27 -10q-13 -32 -33 -54t-53 -22q-20 0 -39.5 8.5z" />
    <glyph glyph-name="itilde" unicode="&#x129;" horiz-adv-x="166" 
d="M65.5 679.5q16.5 -9.5 36.5 -26.5q16 -13 26 -19t19 -6q11 0 20 10t18 31l25 -10q-11 -30 -26 -49.5t-43 -19.5q-19 0 -35.5 9.5t-36.5 26.5q-16 13 -26 19t-19 6q-11 0 -20 -10t-18 -31l-25 10q11 30 26 49.5t43 19.5q19 0 35.5 -9.5zM65 462h36v-462h-36v462z" />
    <glyph glyph-name="Imacron" unicode="&#x12a;" horiz-adv-x="200" 
d="M120 0h-40v700h40v-700zM235 789h-271v34h271v-34z" />
    <glyph glyph-name="imacron" unicode="&#x12b;" horiz-adv-x="166" 
d="M178 616h-191v34h191v-34zM65 462h36v-462h-36v462z" />
    <glyph glyph-name="Ibreve" unicode="&#x12c;" horiz-adv-x="200" 
d="M120 0h-40v700h40v-700zM198.5 775q-37.5 -32 -98.5 -32t-98.5 32t-37.5 88h34q1 -41 28 -64t74 -23t74 23t28 64h34q0 -56 -37.5 -88z" />
    <glyph glyph-name="ibreve" unicode="&#x12d;" horiz-adv-x="166" 
d="M155.5 594.5q-23.5 -34.5 -72.5 -34.5t-72.5 34.5t-23.5 105.5h34q0 -57 13.5 -82t48.5 -25t48.5 25t13.5 82h34q0 -71 -23.5 -105.5zM65 462h36v-462h-36v462z" />
    <glyph glyph-name="Iogonek" unicode="&#x12e;" horiz-adv-x="200" 
d="M120 700v-700h-4q-55 -39 -82.5 -69.5t-27.5 -56.5q0 -37 54 -37q26 0 52 7l2 -32q-31 -9 -58 -9q-36 0 -61.5 16.5t-25.5 48.5q0 65 111 141v691h40z" />
    <glyph glyph-name="iogonek" unicode="&#x12f;" horiz-adv-x="166" 
d="M109 690v-120h-52v120h52zM102 13h-0.5t-0.5 -1v-12h-17q-48 -35 -72 -63t-24 -53q0 -37 54 -37q26 0 52 7l2 -32q-31 -9 -58 -9q-36 0 -61.5 16.5t-25.5 48.5q0 65 114 143v441h36v-448z" />
    <glyph glyph-name="Idotaccent" unicode="&#x130;" horiz-adv-x="200" 
d="M120 0h-40v700h40v-700zM126 743h-52v110h52v-110z" />
    <glyph glyph-name="dotlessi" unicode="&#x131;" horiz-adv-x="166" 
d="M65 462h36v-462h-36v462z" />
    <glyph glyph-name="IJ" unicode="&#x132;" horiz-adv-x="465" 
d="M120 0h-40v700h40v-700zM385 157q0 -84 -33 -123t-106 -39h-26v40h23q52 0 77 27.5t25 94.5v543h40v-543z" />
    <glyph glyph-name="ij" unicode="&#x133;" horiz-adv-x="332" 
d="M65 462h36v-462h-36v462zM109 570h-52v120h52v-120zM145 -170q44 0 65 27.5t21 88.5v516h36v-516q0 -150 -122 -150h-29v34h29zM275 570h-52v120h52v-120z" />
    <glyph glyph-name="Jcircumflex" unicode="&#x134;" horiz-adv-x="265" 
d="M185 157q0 -84 -33 -123t-106 -39h-26v40h23q52 0 77 27.5t25 94.5v543h40v-543zM314 743h-54l-95 90l-95 -90h-54l125 120h48z" />
    <glyph glyph-name="jcircumflex" unicode="&#x135;" horiz-adv-x="166" 
d="M177 553h-42l-52 129l-52 -129h-42l70 154h48zM-21 -170q44 0 65 27.5t21 88.5v516h36v-516q0 -150 -122 -150h-29v34h29z" />
    <glyph glyph-name="Kcommaaccent" unicode="&#x136;" horiz-adv-x="561" 
d="M489 0l-370 368v-368h-39v700h39v-322l331 322h60l-341 -327l382 -373h-62zM324 -47v-73l-60 -80h-22l42 80h-33v73h73z" />
    <glyph glyph-name="kcommaaccent" unicode="&#x137;" horiz-adv-x="425" 
d="M357 0l-251 243v-243h-36v700h36v-446l228 208h58l-239 -213l262 -249h-58zM255 -47v-73l-60 -80h-22l42 80h-33v73h73z" />
    <glyph glyph-name="kgreenlandic" unicode="&#x138;" horiz-adv-x="422" 
d="M354 0l-248 240v-240h-36v462h36v-205l225 205h58l-239 -213l262 -249h-58z" />
    <glyph glyph-name="Lacute" unicode="&#x139;" horiz-adv-x="488" 
d="M120 38h353v-38h-393v700h40v-662zM119 743h-36l95 120h58z" />
    <glyph glyph-name="lacute" unicode="&#x13a;" horiz-adv-x="176" 
d="M106 0h-36v700h36v-700zM107 743h-36l95 120h58z" />
    <glyph glyph-name="Lcommaaccent" unicode="&#x13b;" horiz-adv-x="488" 
d="M120 38h353v-38h-393v700h40v-662zM331 -47v-73l-60 -80h-22l42 80h-33v73h73z" />
    <glyph glyph-name="lcommaaccent" unicode="&#x13c;" horiz-adv-x="176" 
d="M106 0h-36v700h36v-700zM124 -47v-73l-60 -80h-22l42 80h-33v73h73z" />
    <glyph glyph-name="Lcaron" unicode="&#x13d;" horiz-adv-x="488" 
d="M120 38h353v-38h-393v700h40v-662zM384 715v-73l-62 -142h-26l55 142h-40v73h73z" />
    <glyph glyph-name="lcaron" unicode="&#x13e;" horiz-adv-x="233" 
d="M233 715v-73l-62 -142h-26l47 142h-32v73h73zM70 700h36v-700h-36v700z" />
    <glyph glyph-name="Ldot" unicode="&#x13f;" horiz-adv-x="488" 
d="M120 38h353v-38h-393v700h40v-662zM375 382h-80v80h80v-80z" />
    <glyph glyph-name="ldot" unicode="&#x140;" horiz-adv-x="240" 
d="M106 0h-36v700h36v-700zM230 382h-80v80h80v-80z" />
    <glyph glyph-name="Lslash" unicode="&#x141;" horiz-adv-x="488" 
d="M473 38v-38h-393v300l-80 -40v30l80 40v370h40v-349l206 104v-30l-206 -104v-283h353z" />
    <glyph glyph-name="lslash" unicode="&#x142;" horiz-adv-x="226" 
d="M216 436l-90 -46v-390h-36v371l-80 -41v30l80 41v299h36v-280l90 46v-30z" />
    <glyph glyph-name="Nacute" unicode="&#x143;" horiz-adv-x="686" 
d="M606 0h-45l-439 633h-2v-633h-40v700h45l439 -633h2v633h40v-700zM371 743h-36l95 120h58z" />
    <glyph glyph-name="nacute" unicode="&#x144;" horiz-adv-x="538" 
d="M424.5 427q48.5 -50 48.5 -150v-277h-36v277q0 82 -40.5 123t-107.5 41q-78 0 -130.5 -56.5t-52.5 -182.5v-202h-36v462h35v-116h2q23 65 70 98t114 33q85 0 133.5 -50zM295 553h-36l95 154h58z" />
    <glyph glyph-name="Ncommaaccent" unicode="&#x145;" horiz-adv-x="686" 
d="M606 0h-45l-439 633h-2v-633h-40v700h45l439 -633h2v633h40v-700zM379 -47v-73l-60 -80h-22l42 80h-33v73h73z" />
    <glyph glyph-name="ncommaaccent" unicode="&#x146;" horiz-adv-x="538" 
d="M424.5 427q48.5 -50 48.5 -150v-277h-36v277q0 82 -40.5 123t-107.5 41q-78 0 -130.5 -56.5t-52.5 -182.5v-202h-36v462h35v-116h2q23 65 70 98t114 33q85 0 133.5 -50zM320 -47v-73l-60 -80h-22l42 80h-33v73h73z" />
    <glyph glyph-name="Ncaron" unicode="&#x147;" horiz-adv-x="686" 
d="M606 0h-45l-439 633h-2v-633h-40v700h45l439 -633h2v633h40v-700zM328 743l-125 120h54l95 -90l95 90h54l-125 -120h-48z" />
    <glyph glyph-name="ncaron" unicode="&#x148;" horiz-adv-x="538" 
d="M424.5 427q48.5 -50 48.5 -150v-277h-36v277q0 82 -40.5 123t-107.5 41q-78 0 -130.5 -56.5t-52.5 -182.5v-202h-36v462h35v-116h2q23 65 70 98t114 33q85 0 133.5 -50zM301 546h-48l-133 154h50l107 -125l107 125h50z" />
    <glyph glyph-name="napostrophe" unicode="&#x149;" horiz-adv-x="549" 
d="M435.5 427q48.5 -50 48.5 -150v-277h-36v277q0 82 -40.5 123t-107.5 41q-78 0 -130.5 -56.5t-52.5 -182.5v-202h-36v462h35v-116h2q23 65 70 98t114 33q85 0 133.5 -50zM98 715v-73l-62 -142h-26l55 142h-40v73h73z" />
    <glyph glyph-name="Eng" unicode="&#x14a;" horiz-adv-x="686" 
d="M606 700v-780q0 -57 -27.5 -88.5t-79.5 -31.5h-38v38h40q32 0 48.5 21.5t16.5 60.5v80l-444 633h-2v-633h-40v700h45l439 -627h2v627h40z" />
    <glyph glyph-name="eng" unicode="&#x14b;" horiz-adv-x="538" 
d="M424.5 427q48.5 -50 48.5 -150v-363q0 -56 -26.5 -85t-78.5 -29h-45v34h47q67 0 67 80v363q0 82 -40.5 123t-107.5 41q-78 0 -130.5 -56.5t-52.5 -182.5v-202h-36v462h35v-116h2q23 65 70 98t114 33q85 0 133.5 -50z" />
    <glyph glyph-name="Omacron" unicode="&#x14c;" horiz-adv-x="810" 
d="M591.5 668.5q83.5 -46.5 131 -129.5t47.5 -189t-47.5 -189t-131 -129.5t-186.5 -46.5t-186.5 46.5t-131 129.5t-47.5 189t47.5 189t131 129.5t186.5 46.5t186.5 -46.5zM238.5 633.5q-73.5 -41.5 -115 -115.5t-41.5 -168t41.5 -168t115 -115.5t166.5 -41.5t166.5 41.5
t115 115.5t41.5 168t-41.5 168t-115 115.5t-166.5 41.5t-166.5 -41.5zM540 789h-271v34h271v-34z" />
    <glyph glyph-name="omacron" unicode="&#x14d;" horiz-adv-x="562" 
d="M408 446q56 -31 87.5 -87t31.5 -128t-31.5 -128t-87.5 -87t-127 -31t-127 31t-87.5 87t-31.5 128t31.5 128t87.5 87t127 31t127 -31zM175.5 414.5q-47.5 -26.5 -75 -74t-27.5 -109.5t27.5 -109.5t75 -74t105.5 -26.5t105.5 26.5t75 74t27.5 109.5t-27.5 109.5t-75 74
t-105.5 26.5t-105.5 -26.5zM416 616h-271v34h271v-34z" />
    <glyph glyph-name="Obreve" unicode="&#x14e;" horiz-adv-x="810" 
d="M591.5 668.5q83.5 -46.5 131 -129.5t47.5 -189t-47.5 -189t-131 -129.5t-186.5 -46.5t-186.5 46.5t-131 129.5t-47.5 189t47.5 189t131 129.5t186.5 46.5t186.5 -46.5zM238.5 633.5q-73.5 -41.5 -115 -115.5t-41.5 -168t41.5 -168t115 -115.5t166.5 -41.5t166.5 41.5
t115 115.5t41.5 168t-41.5 168t-115 115.5t-166.5 41.5t-166.5 -41.5zM503.5 775q-37.5 -32 -98.5 -32t-98.5 32t-37.5 88h34q1 -41 28 -64t74 -23t74 23t28 64h34q0 -56 -37.5 -88z" />
    <glyph glyph-name="obreve" unicode="&#x14f;" horiz-adv-x="562" 
d="M408 446q56 -31 87.5 -87t31.5 -128t-31.5 -128t-87.5 -87t-127 -31t-127 31t-87.5 87t-31.5 128t31.5 128t87.5 87t127 31t127 -31zM175.5 414.5q-47.5 -26.5 -75 -74t-27.5 -109.5t27.5 -109.5t75 -74t105.5 -26.5t105.5 26.5t75 74t27.5 109.5t-27.5 109.5t-75 74
t-105.5 26.5t-105.5 -26.5zM379.5 597.5q-37.5 -37.5 -98.5 -37.5t-98.5 37.5t-37.5 102.5h34q2 -50 29 -78.5t73 -28.5t73 28.5t29 78.5h34q0 -65 -37.5 -102.5z" />
    <glyph glyph-name="Ohungarumlaut" unicode="&#x150;" horiz-adv-x="810" 
d="M591.5 668.5q83.5 -46.5 131 -129.5t47.5 -189t-47.5 -189t-131 -129.5t-186.5 -46.5t-186.5 46.5t-131 129.5t-47.5 189t47.5 189t131 129.5t186.5 46.5t186.5 -46.5zM238.5 633.5q-73.5 -41.5 -115 -115.5t-41.5 -168t41.5 -168t115 -115.5t166.5 -41.5t166.5 41.5
t115 115.5t41.5 168t-41.5 168t-115 115.5t-166.5 41.5t-166.5 -41.5zM379 743h-35l94 120h46zM467 743h-35l94 120h45z" />
    <glyph glyph-name="ohungarumlaut" unicode="&#x151;" horiz-adv-x="562" 
d="M408 446q56 -31 87.5 -87t31.5 -128t-31.5 -128t-87.5 -87t-127 -31t-127 31t-87.5 87t-31.5 128t31.5 128t87.5 87t127 31t127 -31zM175.5 414.5q-47.5 -26.5 -75 -74t-27.5 -109.5t27.5 -109.5t75 -74t105.5 -26.5t105.5 26.5t75 74t27.5 109.5t-27.5 109.5t-75 74
t-105.5 26.5t-105.5 -26.5zM261 553h-35l104 154h45zM349 553h-35l104 154h44z" />
    <glyph glyph-name="OE" unicode="&#x152;" horiz-adv-x="1156" 
d="M1106 38v-38h-385v159q-47 -82 -130 -128t-186 -46t-186.5 46.5t-131 129.5t-47.5 189t47.5 189t131 129.5t186.5 46.5t186 -46t130 -128v159h380v-38h-340v-249h313v-38h-313v-337h345zM571.5 66.5q73.5 41.5 115 115.5t41.5 168t-41.5 168t-115 115.5t-166.5 41.5
t-166.5 -41.5t-115 -115.5t-41.5 -168t41.5 -168t115 -115.5t166.5 -41.5t166.5 41.5z" />
    <glyph glyph-name="oe" unicode="&#x153;" horiz-adv-x="976" 
d="M846 444q50 -33 72.5 -86.5t22.5 -116.5v-10h-419q0 -97 55 -153.5t147 -56.5q46 0 79.5 14t55 34.5t45.5 50.5l28 -23q-34 -48 -82 -80t-126 -32t-136 37t-84 103h-2q-26 -66 -84.5 -103t-138.5 -37q-73 0 -128.5 31t-85.5 87t-30 128t30 128t85.5 87t128.5 31
q79 0 137 -37t85 -104h2q26 68 82.5 104.5t133.5 36.5t127 -33zM172 414.5q-47 -26.5 -73 -74t-26 -109.5t26 -109.5t73 -74t107 -26.5t107 26.5t73 74t26 109.5t-26 109.5t-73 74t-107 26.5t-107 -26.5zM585 394.5q-55 -46.5 -62 -131.5h378q-7 85 -53.5 131.5t-129.5 46.5
q-78 0 -133 -46.5z" />
    <glyph glyph-name="Racute" unicode="&#x154;" horiz-adv-x="557" 
d="M268 315h-148v-315h-40v700h224q93 0 152 -49t59 -143q0 -90 -55.5 -140t-143.5 -53l216 -315h-51zM120 353h184q77 0 123 41t46 114t-45.5 113.5t-123.5 40.5h-184v-309zM276 743h-36l95 120h58z" />
    <glyph glyph-name="racute" unicode="&#x155;" horiz-adv-x="300" 
d="M280 436h-14q-73 0 -116.5 -56t-43.5 -146v-234h-36v462h36v-107h2q11 52 53 86.5t100 34.5h19v-40zM190 553h-36l95 154h58z" />
    <glyph glyph-name="Rcommaaccent" unicode="&#x156;" horiz-adv-x="557" 
d="M268 315h-148v-315h-40v700h224q93 0 152 -49t59 -143q0 -90 -55.5 -140t-143.5 -53l216 -315h-51zM120 353h184q77 0 123 41t46 114t-45.5 113.5t-123.5 40.5h-184v-309zM323 -47v-73l-60 -80h-22l42 80h-33v73h73z" />
    <glyph glyph-name="rcommaaccent" unicode="&#x157;" horiz-adv-x="300" 
d="M280 436h-14q-73 0 -116.5 -56t-43.5 -146v-234h-36v462h36v-107h2q11 52 53 86.5t100 34.5h19v-40zM124 -47v-73l-60 -80h-22l42 80h-33v73h73z" />
    <glyph glyph-name="Rcaron" unicode="&#x158;" horiz-adv-x="557" 
d="M268 315h-148v-315h-40v700h224q93 0 152 -49t59 -143q0 -90 -55.5 -140t-143.5 -53l216 -315h-51zM120 353h184q77 0 123 41t46 114t-45.5 113.5t-123.5 40.5h-184v-309zM233 743l-125 120h54l95 -90l95 90h54l-125 -120h-48z" />
    <glyph glyph-name="rcaron" unicode="&#x159;" horiz-adv-x="300" 
d="M280 436h-14q-73 0 -116.5 -56t-43.5 -146v-234h-36v462h36v-107h2q11 52 53 86.5t100 34.5h19v-40zM196 546h-48l-133 154h50l107 -125l107 125h50z" />
    <glyph glyph-name="Sacute" unicode="&#x15a;" horiz-adv-x="492" 
d="M418 674l-20 -39q-42 21 -75.5 30.5t-69.5 9.5q-68 0 -104.5 -30t-36.5 -79q0 -44 26 -74t77 -66l101 -70q66 -45 98.5 -88.5t32.5 -106.5q0 -85 -57.5 -130.5t-151.5 -45.5q-54 0 -110 16t-103 47l22 36q93 -59 191 -59q83 0 125 38t42 96q0 44 -26.5 80.5t-86.5 79.5
l-108 76q-56 39 -85 76t-29 94q0 70 46.5 110t134.5 40q80 0 167 -41zM266 743h-36l95 120h58z" />
    <glyph glyph-name="sacute" unicode="&#x15b;" horiz-adv-x="411" 
d="M114.5 1.5q-50.5 16.5 -89.5 45.5l21 31q39 -28 84.5 -42.5t91.5 -14.5q61 0 91 24t30 61q0 32 -22 53.5t-61 38.5l-88 40q-51 23 -77.5 52.5t-26.5 72.5q0 55 41 84.5t110 29.5q78 0 150 -37l-18 -34q-67 35 -132 35q-51 0 -82 -19.5t-31 -57.5q0 -31 21 -52t64 -40
l82 -37q52 -24 80 -52.5t28 -76.5q0 -59 -43 -90t-118 -31q-55 0 -105.5 16.5zM224 553h-36l95 154h58z" />
    <glyph glyph-name="Scircumflex" unicode="&#x15c;" horiz-adv-x="492" 
d="M418 674l-20 -39q-42 21 -75.5 30.5t-69.5 9.5q-68 0 -104.5 -30t-36.5 -79q0 -44 26 -74t77 -66l101 -70q66 -45 98.5 -88.5t32.5 -106.5q0 -85 -57.5 -130.5t-151.5 -45.5q-54 0 -110 16t-103 47l22 36q93 -59 191 -59q83 0 125 38t42 96q0 44 -26.5 80.5t-86.5 79.5
l-108 76q-56 39 -85 76t-29 94q0 70 46.5 110t134.5 40q80 0 167 -41zM396 743h-54l-95 90l-95 -90h-54l125 120h48z" />
    <glyph glyph-name="scircumflex" unicode="&#x15d;" horiz-adv-x="411" 
d="M114.5 1.5q-50.5 16.5 -89.5 45.5l21 31q39 -28 84.5 -42.5t91.5 -14.5q61 0 91 24t30 61q0 32 -22 53.5t-61 38.5l-88 40q-51 23 -77.5 52.5t-26.5 72.5q0 55 41 84.5t110 29.5q78 0 150 -37l-18 -34q-67 35 -132 35q-51 0 -82 -19.5t-31 -57.5q0 -31 21 -52t64 -40
l82 -37q52 -24 80 -52.5t28 -76.5q0 -59 -43 -90t-118 -31q-55 0 -105.5 16.5zM353 553h-50l-97 125l-97 -125h-50l123 154h48z" />
    <glyph glyph-name="Scedilla" unicode="&#x15e;" horiz-adv-x="492" 
d="M395.5 36q-51.5 -45 -137.5 -50l-13 -34q33 -8 52.5 -22t19.5 -46q0 -30 -27.5 -49t-88.5 -47l-9 19q47 22 67 38t20 34t-14.5 26.5t-54.5 17.5l24 62q-54 1 -108 16.5t-101 46.5l22 36q93 -59 191 -59q83 0 125 38t42 96q0 44 -26.5 80.5t-86.5 79.5l-108 76
q-56 39 -85 76t-29 94q0 70 46.5 110t134.5 40q80 0 167 -41l-20 -39q-42 21 -75.5 30.5t-69.5 9.5q-68 0 -104.5 -30t-36.5 -79q0 -44 26 -74t77 -66l101 -70q66 -45 98.5 -88.5t32.5 -106.5q0 -80 -51.5 -125z" />
    <glyph glyph-name="scedilla" unicode="&#x15f;" horiz-adv-x="411" 
d="M219 -15l-13 -33q33 -8 52.5 -22t19.5 -46q0 -30 -27.5 -49t-88.5 -47l-9 19q47 22 67 38t20 34t-14.5 26.5t-54.5 17.5l24 63q-48 4 -92 20t-78 41l21 31q39 -28 84.5 -42.5t91.5 -14.5q61 0 91 24t30 61q0 32 -22 53.5t-61 38.5l-88 40q-51 23 -77.5 52.5t-26.5 72.5
q0 55 41 84.5t110 29.5q78 0 150 -37l-18 -34q-67 35 -132 35q-51 0 -82 -19.5t-31 -57.5q0 -31 21 -52t64 -40l82 -37q52 -24 80 -52.5t28 -76.5q0 -59 -43 -90t-118 -31h-1z" />
    <glyph glyph-name="Scaron" unicode="&#x160;" horiz-adv-x="492" 
d="M418 674l-20 -39q-42 21 -75.5 30.5t-69.5 9.5q-68 0 -104.5 -30t-36.5 -79q0 -44 26 -74t77 -66l101 -70q66 -45 98.5 -88.5t32.5 -106.5q0 -85 -57.5 -130.5t-151.5 -45.5q-54 0 -110 16t-103 47l22 36q93 -59 191 -59q83 0 125 38t42 96q0 44 -26.5 80.5t-86.5 79.5
l-108 76q-56 39 -85 76t-29 94q0 70 46.5 110t134.5 40q80 0 167 -41zM223 743l-125 120h54l95 -90l95 90h54l-125 -120h-48z" />
    <glyph glyph-name="scaron" unicode="&#x161;" horiz-adv-x="411" 
d="M114.5 1.5q-50.5 16.5 -89.5 45.5l21 31q39 -28 84.5 -42.5t91.5 -14.5q61 0 91 24t30 61q0 32 -22 53.5t-61 38.5l-88 40q-51 23 -77.5 52.5t-26.5 72.5q0 55 41 84.5t110 29.5q78 0 150 -37l-18 -34q-67 35 -132 35q-51 0 -82 -19.5t-31 -57.5q0 -31 21 -52t64 -40
l82 -37q52 -24 80 -52.5t28 -76.5q0 -59 -43 -90t-118 -31q-55 0 -105.5 16.5zM230 546h-48l-133 154h50l107 -125l107 125h50z" />
    <glyph glyph-name="uni0162" unicode="&#x162;" horiz-adv-x="510" 
d="M275 662v-655h2l-2 -5v-2h-1l-19 -48q33 -8 52.5 -22t19.5 -46q0 -30 -27.5 -49t-88.5 -47l-9 19q47 22 67 38t20 34t-14.5 26.5t-54.5 17.5l29 77h-14v662h-225v38h490v-38h-225z" />
    <glyph glyph-name="uni0163" unicode="&#x163;" horiz-adv-x="303" 
d="M257.5 -73q19.5 -14 19.5 -46q0 -30 -27.5 -49t-88.5 -47l-9 19q47 22 67 38t20 34t-14.5 26.5t-54.5 17.5l31 81q-36 7 -56.5 34t-20.5 71v322h-99v34h99v185h36v-185h113v-34h-113v-315q0 -38 19 -58.5t52 -20.5h26v-36h-29h-3l-20 -49q33 -8 52.5 -22z" />
    <glyph glyph-name="Tcaron" unicode="&#x164;" horiz-adv-x="510" 
d="M500 662h-225v-662h-40v662h-225v38h490v-38zM231 743l-125 120h54l95 -90l95 90h54l-125 -120h-48z" />
    <glyph glyph-name="tcaron" unicode="&#x165;" horiz-adv-x="351" 
d="M321 715v-73l-62 -142h-26l47 142h-32v73h73zM160 462h113v-34h-113v-315q0 -38 19 -58.5t52 -20.5h26v-36h-29q-47 0 -75.5 27.5t-28.5 80.5v322h-99v34h99v185h36v-185z" />
    <glyph glyph-name="Tbar" unicode="&#x166;" horiz-adv-x="510" 
d="M275 662v-200h152v-35h-152v-427h-40v427h-142v35h142v200h-225v38h490v-38h-225z" />
    <glyph glyph-name="tbar" unicode="&#x167;" horiz-adv-x="303" 
d="M160 428v-109h112v-30h-112v-176q0 -38 19 -58.5t52 -20.5h26v-36h-29q-47 0 -75.5 27.5t-28.5 80.5v183h-98v30h98v109h-99v34h99v185h36v-185h113v-34h-113z" />
    <glyph glyph-name="Utilde" unicode="&#x168;" horiz-adv-x="698" 
d="M618 253q0 -79 -30.5 -139.5t-91.5 -94.5t-147 -34t-147 34t-91.5 94.5t-30.5 139.5v447h43v-437q0 -112 60.5 -174.5t165.5 -62.5t165.5 62.5t60.5 174.5v437h43v-447zM392.5 761.5q-19.5 8.5 -52.5 25.5q-24 13 -39.5 20t-27.5 7q-32 0 -53 -48l-27 10q13 32 33 54
t53 22q20 0 39.5 -8.5t52.5 -25.5q24 -13 39.5 -20t27.5 -7q32 0 53 48l27 -10q-13 -32 -33 -54t-53 -22q-20 0 -39.5 8.5z" />
    <glyph glyph-name="utilde" unicode="&#x169;" horiz-adv-x="526" 
d="M112.5 34q-47.5 49 -47.5 150v278h36v-282q0 -82 39 -120.5t104 -38.5q78 0 127 58.5t49 190.5v192h36v-462h-35v108h-2q-20 -53 -63.5 -88t-115.5 -35q-80 0 -127.5 49zM226.5 680.5q19.5 -8.5 52.5 -25.5q24 -13 39.5 -20t27.5 -7q32 0 53 48l27 -10q-13 -32 -33 -54
t-53 -22q-20 0 -39.5 8.5t-52.5 25.5q-24 13 -39.5 20t-27.5 7q-32 0 -53 -48l-27 10q13 32 33 54t53 22q20 0 39.5 -8.5z" />
    <glyph glyph-name="Umacron" unicode="&#x16a;" horiz-adv-x="698" 
d="M618 253q0 -79 -30.5 -139.5t-91.5 -94.5t-147 -34t-147 34t-91.5 94.5t-30.5 139.5v447h43v-437q0 -112 60.5 -174.5t165.5 -62.5t165.5 62.5t60.5 174.5v437h43v-447zM484 789h-271v34h271v-34z" />
    <glyph glyph-name="umacron" unicode="&#x16b;" horiz-adv-x="526" 
d="M112.5 34q-47.5 49 -47.5 150v278h36v-282q0 -82 39 -120.5t104 -38.5q78 0 127 58.5t49 190.5v192h36v-462h-35v108h-2q-20 -53 -63.5 -88t-115.5 -35q-80 0 -127.5 49zM396 616h-271v34h271v-34z" />
    <glyph glyph-name="Ubreve" unicode="&#x16c;" horiz-adv-x="698" 
d="M618 253q0 -79 -30.5 -139.5t-91.5 -94.5t-147 -34t-147 34t-91.5 94.5t-30.5 139.5v447h43v-437q0 -112 60.5 -174.5t165.5 -62.5t165.5 62.5t60.5 174.5v437h43v-447zM447.5 775q-37.5 -32 -98.5 -32t-98.5 32t-37.5 88h34q1 -41 28 -64t74 -23t74 23t28 64h34
q0 -56 -37.5 -88z" />
    <glyph glyph-name="ubreve" unicode="&#x16d;" horiz-adv-x="526" 
d="M112.5 34q-47.5 49 -47.5 150v278h36v-282q0 -82 39 -120.5t104 -38.5q78 0 127 58.5t49 190.5v192h36v-462h-35v108h-2q-20 -53 -63.5 -88t-115.5 -35q-80 0 -127.5 49zM359.5 597.5q-37.5 -37.5 -98.5 -37.5t-98.5 37.5t-37.5 102.5h34q2 -50 29 -78.5t73 -28.5
t73 28.5t29 78.5h34q0 -65 -37.5 -102.5z" />
    <glyph glyph-name="Uring" unicode="&#x16e;" horiz-adv-x="698" 
d="M618 253q0 -79 -30.5 -139.5t-91.5 -94.5t-147 -34t-147 34t-91.5 94.5t-30.5 139.5v447h43v-437q0 -112 60.5 -174.5t165.5 -62.5t165.5 62.5t60.5 174.5v437h43v-447zM431 864.5q32 -31.5 32 -80.5t-32 -80.5t-82 -31.5t-82 31.5t-32 80.5t32 80.5t82 31.5t82 -31.5z
M288.5 844.5q-23.5 -23.5 -23.5 -60.5t23.5 -60.5t60.5 -23.5t60.5 23.5t23.5 60.5t-23.5 60.5t-60.5 23.5t-60.5 -23.5z" />
    <glyph glyph-name="uring" unicode="&#x16f;" horiz-adv-x="526" 
d="M112.5 34q-47.5 49 -47.5 150v278h36v-282q0 -82 39 -120.5t104 -38.5q78 0 127 58.5t49 190.5v192h36v-462h-35v108h-2q-20 -53 -63.5 -88t-115.5 -35q-80 0 -127.5 49zM346.5 714q33.5 -33 33.5 -84t-33.5 -84t-85.5 -33t-85.5 33t-33.5 84t33.5 84t85.5 33t85.5 -33z
M196 695q-24 -24 -24 -65t24 -65t65 -24t65 24t24 65t-24 65t-65 24t-65 -24z" />
    <glyph glyph-name="Uhungarumlaut" unicode="&#x170;" horiz-adv-x="698" 
d="M618 253q0 -79 -30.5 -139.5t-91.5 -94.5t-147 -34t-147 34t-91.5 94.5t-30.5 139.5v447h43v-437q0 -112 60.5 -174.5t165.5 -62.5t165.5 62.5t60.5 174.5v437h43v-447zM323 743h-35l94 120h46zM411 743h-35l94 120h45z" />
    <glyph glyph-name="uhungarumlaut" unicode="&#x171;" horiz-adv-x="526" 
d="M112.5 34q-47.5 49 -47.5 150v278h36v-282q0 -82 39 -120.5t104 -38.5q78 0 127 58.5t49 190.5v192h36v-462h-35v108h-2q-20 -53 -63.5 -88t-115.5 -35q-80 0 -127.5 49zM241 553h-35l104 154h45zM329 553h-35l104 154h44z" />
    <glyph glyph-name="Uogonek" unicode="&#x172;" horiz-adv-x="698" 
d="M618 700v-447q0 -118 -66 -191t-190 -77q-76 -59 -76 -101q0 -37 54 -37q26 0 52 7l2 -32q-31 -9 -58 -9q-36 0 -61.5 16.5t-25.5 48.5q0 51 68 108q-114 10 -175.5 82t-61.5 185v447h43v-437q0 -112 60.5 -174.5t165.5 -62.5q15 0 23 1v0q95 7 149 68.5t54 167.5v437h43
z" />
    <glyph glyph-name="uogonek" unicode="&#x173;" horiz-adv-x="526" 
d="M364 -63q-24 -28 -24 -53q0 -37 54 -37q26 0 52 7l2 -32q-31 -9 -58 -9q-36 0 -61.5 16.5t-25.5 48.5q0 67 118 146v84h-2q-20 -53 -63.5 -88t-115.5 -35q-80 0 -127.5 49t-47.5 150v278h36v-282q0 -82 39 -120.5t104 -38.5q78 0 127 58.5t49 190.5v192h36v-462h-20
q-48 -35 -72 -63z" />
    <glyph glyph-name="Wcircumflex" unicode="&#x174;" horiz-adv-x="956" 
d="M726 0h-42l-205 636h-2l-205 -636h-42l-215 700h46l188 -634h2l203 634h48l203 -634h2l188 634h46zM627 743h-54l-95 90l-95 -90h-54l125 120h48z" />
    <glyph glyph-name="wcircumflex" unicode="&#x175;" horiz-adv-x="716" 
d="M706 462l-158 -462h-38l-152 419l-152 -419h-38l-158 462h40l137 -419l149 419h44l149 -419l137 419h40zM505 553h-50l-97 125l-97 -125h-50l123 154h48z" />
    <glyph glyph-name="Ycircumflex" unicode="&#x176;" horiz-adv-x="522" 
d="M281 266v-266h-40v266l-231 434h48l202 -389h2l202 389h48zM410 743h-54l-95 90l-95 -90h-54l125 120h48z" />
    <glyph glyph-name="ycircumflex" unicode="&#x177;" horiz-adv-x="443" 
d="M433 462l-321 -662h-40l128 256l-190 406h42l166 -369l173 369h42zM369 553h-50l-97 125l-97 -125h-50l123 154h48z" />
    <glyph glyph-name="Ydieresis" unicode="&#x178;" horiz-adv-x="522" 
d="M281 266v-266h-40v266l-231 434h48l202 -389h2l202 389h48zM195 743h-52v95h52v-95zM379 743h-52v95h52v-95z" />
    <glyph glyph-name="Zacute" unicode="&#x179;" horiz-adv-x="532" 
d="M512 38v-38h-492v38l438 624h-398v38h444v-38l-440 -624h448zM305 743h-36l95 120h58z" />
    <glyph glyph-name="zacute" unicode="&#x17a;" horiz-adv-x="447" 
d="M417 36v-36h-387v34l317 393h-294v35h342v-33l-318 -393h340zM259 553h-36l95 154h58z" />
    <glyph glyph-name="Zdotaccent" unicode="&#x17b;" horiz-adv-x="532" 
d="M512 38v-38h-492v38l438 624h-398v38h444v-38l-440 -624h448zM312 743h-52v110h52v-110z" />
    <glyph glyph-name="zdotaccent" unicode="&#x17c;" horiz-adv-x="447" 
d="M417 36v-36h-387v34l317 393h-294v35h342v-33l-318 -393h340zM267 570h-52v120h52v-120z" />
    <glyph glyph-name="Zcaron" unicode="&#x17d;" horiz-adv-x="532" 
d="M512 38v-38h-492v38l438 624h-398v38h444v-38l-440 -624h448zM262 743l-125 120h54l95 -90l95 90h54l-125 -120h-48z" />
    <glyph glyph-name="zcaron" unicode="&#x17e;" horiz-adv-x="447" 
d="M417 36v-36h-387v34l317 393h-294v35h342v-33l-318 -393h340zM265 546h-48l-133 154h50l107 -125l107 125h50z" />
    <glyph glyph-name="florin" unicode="&#x192;" horiz-adv-x="380" 
d="M207 506v-44h153v-30h-153v-472q0 -78 -34.5 -119t-110.5 -41h-42v36h44q107 0 107 121v475h-132v30h132v43q0 87 37.5 128.5t106.5 41.5h45v-34h-44q-109 0 -109 -135z" />
    <glyph glyph-name="AEacute" unicode="&#x1fc;" horiz-adv-x="919" 
d="M869 38v-38h-349v204h-317l-142 -204h-51l490 700h364v-38h-304v-249h277v-38h-277v-337h309zM520 242v418l-291 -418h291zM689 743h-36l95 120h58z" />
    <glyph glyph-name="aeacute" unicode="&#x1fd;" horiz-adv-x="906" 
d="M78 30.5q-53 45.5 -53 123.5q0 76 52 123t140 47q63 0 111.5 -26.5t73.5 -79.5h2v70q0 76 -42 114.5t-120 38.5q-64 0 -154 -22l-9 38q87 20 161 20q167 0 194 -132h2q26 62 82.5 97t129.5 35q74 0 124 -34t74.5 -88.5t24.5 -115.5v-10h-419q0 -62 26 -109t71.5 -73
t104.5 -26q62 0 103.5 27t76.5 72l28 -23q-78 -112 -208 -112q-81 0 -140.5 41t-83.5 111h-2q-20 -72 -74.5 -112t-135.5 -40q-87 0 -140 45.5zM831 263q-8 83 -55.5 130.5t-128.5 47.5q-78 0 -132 -47t-62 -131h378zM310.5 39.5q37.5 18.5 57.5 48.5t20 66q0 60 -49.5 97
t-119.5 37q-71 0 -113.5 -37.5t-42.5 -98.5t42.5 -96t115.5 -35q52 0 89.5 18.5zM466 553h-36l95 154h58z" />
    <glyph glyph-name="Oslashacute" unicode="&#x1fe;" horiz-adv-x="810" 
d="M733 518.5q37 -75.5 37 -168.5q0 -106 -47.5 -189t-131 -129.5t-186.5 -46.5q-113 0 -202 56l-39 -55l-24 15l40 56q-66 49 -103 124.5t-37 168.5q0 106 47.5 189t131 129.5t186.5 46.5q113 0 202 -56l39 55l24 -15l-40 -56q66 -49 103 -124.5zM114 200.5
q32 -67.5 89 -110.5l381 536q-78 49 -179 49q-93 0 -166.5 -41.5t-115 -115.5t-41.5 -168q0 -82 32 -149.5zM571.5 66.5q73.5 41.5 115 115.5t41.5 168q0 82 -32 149.5t-89 110.5l-381 -536q78 -49 179 -49q93 0 166.5 41.5zM424 743h-36l95 120h58z" />
    <glyph glyph-name="oslashacute" unicode="&#x1ff;" horiz-adv-x="562" 
d="M509 330q18 -45 18 -99q0 -72 -31.5 -128t-87.5 -87t-127 -31q-86 0 -150 45l-38 -44l-21 18l38 44q-36 34 -55.5 80.5t-19.5 102.5q0 72 31.5 128t87.5 87t127 31q90 0 155 -49l42 49l22 -19l-42 -49q33 -34 51 -79zM89.5 145q16.5 -39 45.5 -68l276 322q-56 42 -130 42
q-58 0 -105.5 -26.5t-75 -74t-27.5 -109.5q0 -47 16.5 -86zM386.5 47.5q47.5 26.5 75 74t27.5 109.5q0 45 -15 83t-42 65l-276 -319q55 -39 125 -39q58 0 105.5 26.5zM305 553h-36l95 154h58z" />
    <glyph glyph-name="Scommaaccent" unicode="&#x218;" horiz-adv-x="492" 
d="M418 674l-20 -39q-42 21 -75.5 30.5t-69.5 9.5q-68 0 -104.5 -30t-36.5 -79q0 -44 26 -74t77 -66l101 -70q66 -45 98.5 -88.5t32.5 -106.5q0 -85 -57.5 -130.5t-151.5 -45.5q-54 0 -110 16t-103 47l22 36q93 -59 191 -59q83 0 125 38t42 96q0 44 -26.5 80.5t-86.5 79.5
l-108 76q-56 39 -85 76t-29 94q0 70 46.5 110t134.5 40q80 0 167 -41zM281 -47v-73l-60 -80h-22l42 80h-33v73h73z" />
    <glyph glyph-name="scommaaccent" unicode="&#x219;" horiz-adv-x="411" 
d="M114.5 1.5q-50.5 16.5 -89.5 45.5l21 31q39 -28 84.5 -42.5t91.5 -14.5q61 0 91 24t30 61q0 32 -22 53.5t-61 38.5l-88 40q-51 23 -77.5 52.5t-26.5 72.5q0 55 41 84.5t110 29.5q78 0 150 -37l-18 -34q-67 35 -132 35q-51 0 -82 -19.5t-31 -57.5q0 -31 21 -52t64 -40
l82 -37q52 -24 80 -52.5t28 -76.5q0 -59 -43 -90t-118 -31q-55 0 -105.5 16.5zM242 -47v-73l-60 -80h-22l42 80h-33v73h73z" />
    <glyph glyph-name="uni021A" unicode="&#x21a;" horiz-adv-x="510" 
d="M500 662h-225v-662h-40v662h-225v38h490v-38zM291 -47v-73l-60 -80h-22l42 80h-33v73h73z" />
    <glyph glyph-name="uni021B" unicode="&#x21b;" horiz-adv-x="303" 
d="M160 428v-315q0 -38 19 -58.5t52 -20.5h26v-36h-29q-47 0 -75.5 27.5t-28.5 80.5v322h-99v34h99v185h36v-185h113v-34h-113zM241 -50v-73l-60 -80h-22l42 80h-33v73h73z" />
    <glyph glyph-name="uni0237" unicode="&#x237;" horiz-adv-x="166" 
d="M-21 -170q44 0 65 27.5t21 88.5v516h36v-516q0 -150 -122 -150h-29v34h29z" />
    <glyph glyph-name="uni02BC" unicode="&#x2bc;" horiz-adv-x="153" 
d="M123 715v-73l-62 -142h-26l55 142h-40v73h73z" />
    <glyph glyph-name="circumflex" unicode="&#x2c6;" horiz-adv-x="394" 
d="M344 553h-50l-97 125l-97 -125h-50l123 154h48z" />
    <glyph glyph-name="caron" unicode="&#x2c7;" horiz-adv-x="414" 
d="M231 546h-48l-133 154h50l107 -125l107 125h50z" />
    <glyph glyph-name="breve" unicode="&#x2d8;" horiz-adv-x="372" 
d="M284.5 597.5q-37.5 -37.5 -98.5 -37.5t-98.5 37.5t-37.5 102.5h34q2 -50 29 -78.5t73 -28.5t73 28.5t29 78.5h34q0 -65 -37.5 -102.5z" />
    <glyph glyph-name="dotaccent" unicode="&#x2d9;" horiz-adv-x="152" 
d="M102 570h-52v120h52v-120z" />
    <glyph glyph-name="ring" unicode="&#x2da;" horiz-adv-x="338" 
d="M254.5 714q33.5 -33 33.5 -84t-33.5 -84t-85.5 -33t-85.5 33t-33.5 84t33.5 84t85.5 33t85.5 -33zM104 695q-24 -24 -24 -65t24 -65t65 -24t65 24t24 65t-24 65t-65 24t-65 -24z" />
    <glyph glyph-name="ogonek" unicode="&#x2db;" horiz-adv-x="251" 
d="M201 13q-57 -40 -85.5 -71t-28.5 -58q0 -37 54 -37q26 0 52 7l2 -32q-31 -9 -58 -9q-36 0 -61.5 16.5t-25.5 48.5q0 69 123 149z" />
    <glyph glyph-name="tilde" unicode="&#x2dc;" horiz-adv-x="425" 
d="M175.5 680.5q19.5 -8.5 52.5 -25.5q24 -13 39.5 -20t27.5 -7q32 0 53 48l27 -10q-13 -32 -33 -54t-53 -22q-20 0 -39.5 8.5t-52.5 25.5q-24 13 -39.5 20t-27.5 7q-32 0 -53 -48l-27 10q13 32 33 54t53 22q20 0 39.5 -8.5z" />
    <glyph glyph-name="hungarumlaut" unicode="&#x2dd;" horiz-adv-x="336" 
d="M85 553h-35l104 154h45zM173 553h-35l104 154h44z" />
    <glyph glyph-name="gravecomb" unicode="&#x300;" horiz-adv-x="0" 
d="M-50 553h-36l-117 154h58z" />
    <glyph glyph-name="acutecomb" unicode="&#x301;" horiz-adv-x="0" 
d="M-167 553h-36l95 154h58z" />
    <glyph glyph-name="uni0302" unicode="&#x302;" horiz-adv-x="0" 
d="M-50 553h-50l-97 125l-97 -125h-50l123 154h48z" />
    <glyph glyph-name="tildecomb" unicode="&#x303;" horiz-adv-x="0" 
d="M-249.5 680.5q19.5 -8.5 52.5 -25.5q24 -13 39.5 -20t27.5 -7q32 0 53 48l27 -10q-13 -32 -33 -54t-53 -22q-20 0 -39.5 8.5t-52.5 25.5q-24 13 -39.5 20t-27.5 7q-32 0 -53 -48l-27 10q13 32 33 54t53 22q20 0 39.5 -8.5z" />
    <glyph glyph-name="uni0304" unicode="&#x304;" horiz-adv-x="0" 
d="M-50 616h-271v34h271v-34z" />
    <glyph glyph-name="uni0306" unicode="&#x306;" horiz-adv-x="0" 
d="M-87.5 597.5q-37.5 -37.5 -98.5 -37.5t-98.5 37.5t-37.5 102.5h34q2 -50 29 -78.5t73 -28.5t73 28.5t29 78.5h34q0 -65 -37.5 -102.5z" />
    <glyph glyph-name="uni0307" unicode="&#x307;" horiz-adv-x="0" 
d="M-50 570h-52v120h52v-120z" />
    <glyph glyph-name="uni0308" unicode="&#x308;" horiz-adv-x="0" 
d="M-234 580h-52v110h52v-110zM-50 580h-52v110h52v-110z" />
    <glyph glyph-name="uni030A" unicode="&#x30a;" horiz-adv-x="0" 
d="M-83.5 714q33.5 -33 33.5 -84t-33.5 -84t-85.5 -33t-85.5 33t-33.5 84t33.5 84t85.5 33t85.5 -33zM-234 695q-24 -24 -24 -65t24 -65t65 -24t65 24t24 65t-24 65t-65 24t-65 -24z" />
    <glyph glyph-name="uni030B" unicode="&#x30b;" horiz-adv-x="0" 
d="M-251 553h-35l104 154h45zM-163 553h-35l104 154h44z" />
    <glyph glyph-name="uni030C" unicode="&#x30c;" horiz-adv-x="0" 
d="M-183 546h-48l-133 154h50l107 -125l107 125h50z" />
    <glyph glyph-name="uni0312" unicode="&#x312;" horiz-adv-x="0" 
d="M-92 613h33v-73h-73v73l60 80h22z" />
    <glyph glyph-name="uni0326" unicode="&#x326;" horiz-adv-x="0" 
d="M-50 -47v-73l-60 -80h-22l42 80h-33v73h73z" />
    <glyph glyph-name="uni0327" unicode="&#x327;" horiz-adv-x="0" 
d="M-122 -48q33 -8 52.5 -22t19.5 -46q0 -30 -27.5 -49t-88.5 -47l-9 19q47 22 67 38t20 34t-14.5 26.5t-54.5 17.5l32 84h25z" />
    <glyph glyph-name="uni0328" unicode="&#x328;" horiz-adv-x="0" 
d="M-50 13q-57 -40 -85.5 -71t-28.5 -58q0 -37 54 -37q26 0 52 7l2 -32q-31 -9 -58 -9q-36 0 -61.5 16.5t-25.5 48.5q0 69 123 149z" />
    <glyph glyph-name="uni0394" unicode="&#x394;" horiz-adv-x="628" 
d="M608 0h-588l272 700h44zM72 20h484l-242 643z" />
    <glyph glyph-name="uni03A9" unicode="&#x3a9;" horiz-adv-x="800" 
d="M590.5 670.5q81.5 -44.5 125.5 -123t44 -178.5q0 -131 -77.5 -218t-208.5 -112v-3h262v-36h-296v60q86 13 149.5 55.5t98 107t34.5 143.5q0 89 -39 160.5t-112 112t-171 40.5t-171 -40.5t-112 -112t-39 -160.5q0 -79 34.5 -143.5t98 -107t149.5 -55.5v-60h-296v36h262v3
q-131 25 -208.5 112t-77.5 218q0 100 44 178.5t125.5 123t190.5 44.5t190.5 -44.5z" />
    <glyph glyph-name="uni03BC" unicode="&#x3bc;" horiz-adv-x="526" 
d="M456 462v-462h-35v108h-2q-20 -53 -63.5 -88t-115.5 -35q-97 0 -141 66v-251h-34v662h36v-282q0 -82 39 -120.5t104 -38.5q78 0 127 58.5t49 190.5v192h36z" />
    <glyph glyph-name="pi" unicode="&#x3c0;" horiz-adv-x="603" 
d="M573 442h-115v-442h-36v442h-199l-98 -442h-37l98 442h-12q-83 0 -144 -20v35q28 10 59.5 15t78.5 5h405v-35z" />
    <glyph glyph-name="uni0E3F" unicode="&#xe3f;" horiz-adv-x="477" 
d="M403 280.5q34 -42.5 34 -112.5q0 -52 -25 -90t-67.5 -58t-92.5 -20h-12v-87h-28v87h-172v675h172v87h28v-87h12q50 0 92.5 -20t67.5 -58t25 -90q0 -70 -34 -112.5t-95 -55.5v-3q61 -13 95 -55.5zM76 640v-285h136v285h-136zM240 640v-285q76 4 117.5 43.5t41.5 103.5
q0 63 -42.5 100.5t-104.5 37.5h-12zM212 35v285h-136v-285h136zM356.5 72.5q42.5 37.5 42.5 100.5q0 64 -41.5 103.5t-117.5 43.5v-285h12q62 0 104.5 37.5z" />
    <glyph glyph-name="Wgrave" unicode="&#x1e80;" horiz-adv-x="956" 
d="M726 0h-42l-205 636h-2l-205 -636h-42l-215 700h46l188 -634h2l203 634h48l203 -634h2l188 634h46zM496 743h-36l-117 120h58z" />
    <glyph glyph-name="wgrave" unicode="&#x1e81;" horiz-adv-x="716" 
d="M706 462l-158 -462h-38l-152 419l-152 -419h-38l-158 462h40l137 -419l149 419h44l149 -419l137 419h40zM376 553h-36l-117 154h58z" />
    <glyph glyph-name="Wacute" unicode="&#x1e82;" horiz-adv-x="956" 
d="M726 0h-42l-205 636h-2l-205 -636h-42l-215 700h46l188 -634h2l203 634h48l203 -634h2l188 634h46zM497 743h-36l95 120h58z" />
    <glyph glyph-name="wacute" unicode="&#x1e83;" horiz-adv-x="716" 
d="M706 462l-158 -462h-38l-152 419l-152 -419h-38l-158 462h40l137 -419l149 419h44l149 -419l137 419h40zM376 553h-36l95 154h58z" />
    <glyph glyph-name="Wdieresis" unicode="&#x1e84;" horiz-adv-x="956" 
d="M726 0h-42l-205 636h-2l-205 -636h-42l-215 700h46l188 -634h2l203 634h48l203 -634h2l188 634h46zM412 743h-52v95h52v-95zM596 743h-52v95h52v-95z" />
    <glyph glyph-name="wdieresis" unicode="&#x1e85;" horiz-adv-x="716" 
d="M706 462l-158 -462h-38l-152 419l-152 -419h-38l-158 462h40l137 -419l149 419h44l149 -419l137 419h40zM292 580h-52v110h52v-110zM476 580h-52v110h52v-110z" />
    <glyph glyph-name="Ygrave" unicode="&#x1ef2;" horiz-adv-x="522" 
d="M281 266v-266h-40v266l-231 434h48l202 -389h2l202 389h48zM279 743h-36l-117 120h58z" />
    <glyph glyph-name="ygrave" unicode="&#x1ef3;" horiz-adv-x="443" 
d="M433 462l-321 -662h-40l128 256l-190 406h42l166 -369l173 369h42zM240 553h-36l-117 154h58z" />
    <glyph glyph-name="endash" unicode="&#x2013;" horiz-adv-x="752" 
d="M702 256h-652v38h652v-38z" />
    <glyph glyph-name="emdash" unicode="&#x2014;" horiz-adv-x="1154" 
d="M1104 258h-1054v36h1054v-36z" />
    <glyph glyph-name="quoteleft" unicode="&#x2018;" horiz-adv-x="153" 
d="M63 597h40v-73h-73v73l62 142h26z" />
    <glyph glyph-name="quoteright" unicode="&#x2019;" horiz-adv-x="153" 
d="M123 715v-73l-62 -142h-26l55 142h-40v73h73z" />
    <glyph glyph-name="quotesinglbase" unicode="&#x201a;" horiz-adv-x="153" 
d="M123 73v-73l-62 -142h-26l55 142h-40v73h73z" />
    <glyph glyph-name="quotedblleft" unicode="&#x201c;" horiz-adv-x="259" 
d="M118 739l-55 -142h40v-73h-73v73l62 142h26zM169 597h40v-73h-73v73l62 142h26z" />
    <glyph glyph-name="quotedblright" unicode="&#x201d;" horiz-adv-x="259" 
d="M123 715v-73l-62 -142h-26l55 142h-40v73h73zM229 715v-73l-62 -142h-26l55 142h-40v73h73z" />
    <glyph glyph-name="quotedblbase" unicode="&#x201e;" horiz-adv-x="259" 
d="M123 73v-73l-62 -142h-26l55 142h-40v73h73zM229 73v-73l-62 -142h-26l55 142h-40v73h73z" />
    <glyph glyph-name="dagger" unicode="&#x2020;" horiz-adv-x="486" 
d="M436 436h-174v-529h-38v529h-174v36h174v228h38v-228h174v-36z" />
    <glyph glyph-name="daggerdbl" unicode="&#x2021;" horiz-adv-x="486" 
d="M262 436v-265h174v-36h-174v-228h-38v228h-174v36h174v265h-174v36h174v228h38v-228h174v-36h-174z" />
    <glyph glyph-name="bullet" unicode="&#x2022;" horiz-adv-x="290" 
d="M202 444q23 -23 23 -57t-23 -57t-57 -23t-57 23t-23 57t23 57t57 23t57 -23z" />
    <glyph glyph-name="ellipsis" unicode="&#x2026;" horiz-adv-x="662" 
d="M135 0h-80v80h80v-80zM607 0h-80v80h80v-80zM371 0h-80v80h80v-80z" />
    <glyph glyph-name="perthousand" unicode="&#x2030;" horiz-adv-x="1101" 
d="M316.5 646.5q43.5 -43.5 43.5 -111.5q0 -67 -43.5 -111t-111.5 -44q-67 0 -111 44t-44 111q0 68 44 111.5t111 43.5q68 0 111.5 -43.5zM541 675h36l-395 -675h-36zM118.5 623q-32.5 -33 -32.5 -88t32.5 -88t86.5 -33t86.5 33t32.5 88t-32.5 88t-86.5 33t-86.5 -33z
M649.5 261.5q43.5 -43.5 43.5 -111.5q0 -67 -43.5 -111t-111.5 -44q-67 0 -111 44t-44 111q0 68 44 111.5t111 43.5q68 0 111.5 -43.5zM1007.5 261.5q43.5 -43.5 43.5 -111.5q0 -67 -43.5 -111t-111.5 -44q-67 0 -111 44t-44 111q0 68 44 111.5t111 43.5q68 0 111.5 -43.5z
M451.5 238q-32.5 -33 -32.5 -88t32.5 -88t86.5 -33t86.5 33t32.5 88t-32.5 88t-86.5 33t-86.5 -33zM809.5 238q-32.5 -33 -32.5 -88t32.5 -88t86.5 -33t86.5 33t32.5 88t-32.5 88t-86.5 33t-86.5 -33z" />
    <glyph glyph-name="guilsinglleft" unicode="&#x2039;" horiz-adv-x="215" 
d="M64 234l141 -149h-48l-137 149l137 149h48z" />
    <glyph glyph-name="guilsinglright" unicode="&#x203a;" horiz-adv-x="215" 
d="M58 383l137 -149l-137 -149h-48l141 149l-141 149h48z" />
    <glyph glyph-name="fraction" unicode="&#x2044;" horiz-adv-x="91" 
d="M225 675h36l-395 -675h-36z" />
    <glyph glyph-name="uni2070" unicode="&#x2070;" horiz-adv-x="400" 
d="M80.5 397.5q-45.5 59.5 -45.5 173.5t45.5 173.5t119.5 59.5t119.5 -59.5t45.5 -173.5t-45.5 -173.5t-119.5 -59.5t-119.5 59.5zM293 424q36 52 36 147t-36 147t-93 52t-93 -52t-36 -147t36 -147t93 -52t93 52z" />
    <glyph glyph-name="uni2074" unicode="&#x2074;" horiz-adv-x="383" 
d="M353 438h-62v-90h-33v90h-238v29l235 327h36v-321h62v-35zM258 473v265h-3l-189 -265h192z" />
    <glyph glyph-name="uni2075" unicode="&#x2075;" horiz-adv-x="369" 
d="M92.5 363q-39.5 25 -57.5 74l31 14q36 -79 120 -79q57 0 84.5 32.5t27.5 84.5q0 58 -31 86.5t-80 28.5q-63 0 -102 -48h-33l29 238h225v-34h-196l-19 -158h2q15 15 40.5 25.5t58.5 10.5q59 0 100.5 -37.5t41.5 -110.5q0 -69 -39.5 -110.5t-109.5 -41.5q-53 0 -92.5 25z
" />
    <glyph glyph-name="uni2076" unicode="&#x2076;" horiz-adv-x="377" 
d="M114.5 355.5q-35.5 17.5 -57.5 52t-22 82.5q0 45 18.5 90.5t63.5 99.5l100 121h47l-169 -202l2 -1q41 42 97 42q68 0 110.5 -43t42.5 -110q0 -43 -20.5 -77t-56.5 -53t-80 -19q-40 0 -75.5 17.5zM278 404q33 32 33 85q0 54 -33.5 85.5t-84.5 31.5q-52 0 -87 -33t-35 -85
t34.5 -84t87.5 -32q52 0 85 32z" />
    <glyph glyph-name="uni2077" unicode="&#x2077;" horiz-adv-x="324" 
d="M258 760h-238v34h274v-31l-196 -415h-38z" />
    <glyph glyph-name="uni2078" unicode="&#x2078;" horiz-adv-x="370" 
d="M74 374.5q-39 36.5 -39 92.5q0 46 25 77.5t64 41.5v2q-31 10 -53.5 35.5t-22.5 67.5q0 48 36.5 80t100.5 32t100.5 -32t36.5 -80q0 -42 -22.5 -67.5t-53.5 -35.5v-2q39 -10 64 -41.5t25 -77.5q0 -56 -39 -92.5t-111 -36.5t-111 36.5zM258.5 626.5q27.5 23.5 27.5 61.5
t-27.5 60.5t-73.5 22.5t-73.5 -22.5t-27.5 -60.5t27.5 -61.5t73.5 -23.5t73.5 23.5zM269 395.5q31 25.5 31 72.5q0 45 -30.5 73t-84.5 28t-84.5 -28t-30.5 -73q0 -47 31 -72.5t84 -25.5t84 25.5z" />
    <glyph glyph-name="uni2079" unicode="&#x2079;" horiz-adv-x="368" 
d="M277 541l-1 2q-19 -16 -45 -24.5t-53 -8.5q-65 0 -106.5 41t-41.5 104q0 66 44 107.5t109 41.5q66 0 110.5 -40.5t44.5 -111.5q0 -49 -16.5 -90.5t-57.5 -89.5l-102 -124h-42zM268 577q33 32 33 81q0 50 -33 81t-83 31q-51 0 -85 -31.5t-34 -81.5q0 -49 33 -80.5
t85 -31.5q51 0 84 32z" />
    <glyph glyph-name="uni2080" unicode="&#x2080;" horiz-adv-x="400" 
d="M80.5 -60.5q-45.5 59.5 -45.5 173.5t45.5 173.5t119.5 59.5t119.5 -59.5t45.5 -173.5t-45.5 -173.5t-119.5 -59.5t-119.5 59.5zM293 -34q36 52 36 147t-36 147t-93 52t-93 -52t-36 -147t36 -147t93 -52t93 52z" />
    <glyph glyph-name="uni2081" unicode="&#x2081;" horiz-adv-x="214" 
d="M100 300h-40v36h74v-446h-34v410z" />
    <glyph glyph-name="uni2082" unicode="&#x2082;" horiz-adv-x="347" 
d="M40 -81l175 186q60 66 60 121q0 38 -25.5 62t-70.5 24q-41 0 -69.5 -21.5t-30.5 -66.5h-36q1 62 40 92t97 30q62 0 96.5 -32.5t34.5 -87.5q0 -41 -18.5 -74t-49.5 -66l-154 -162h223v-34h-272v29z" />
    <glyph glyph-name="uni2083" unicode="&#x2083;" horiz-adv-x="372" 
d="M80.5 -90.5q-38.5 29.5 -40.5 86.5h36q9 -82 109 -82q52 0 81.5 24t29.5 74q0 54 -34.5 76t-108.5 22v31q57 1 89.5 19t32.5 67q0 85 -92 85q-45 0 -72.5 -19t-29.5 -57h-36q3 49 39.5 79.5t97.5 30.5t95 -31t34 -82q0 -37 -20 -65.5t-61 -39.5v-1q45 -7 73.5 -35.5
t28.5 -81.5q0 -56 -37 -93t-112 -37q-64 0 -102.5 29.5z" />
    <glyph glyph-name="uni2084" unicode="&#x2084;" horiz-adv-x="383" 
d="M353 -20h-62v-90h-33v90h-238v29l235 327h36v-321h62v-35zM258 15v265h-3l-189 -265h192z" />
    <glyph glyph-name="uni2085" unicode="&#x2085;" horiz-adv-x="369" 
d="M92.5 -95q-39.5 25 -57.5 74l31 14q36 -79 120 -79q57 0 84.5 32.5t27.5 84.5q0 58 -31 86.5t-80 28.5q-63 0 -102 -48h-33l29 238h225v-34h-196l-19 -158h2q15 15 40.5 25.5t58.5 10.5q59 0 100.5 -37.5t41.5 -110.5q0 -69 -39.5 -110.5t-109.5 -41.5q-53 0 -92.5 25z
" />
    <glyph glyph-name="uni2086" unicode="&#x2086;" horiz-adv-x="377" 
d="M114.5 -102.5q-35.5 17.5 -57.5 52t-22 82.5q0 45 18.5 90.5t63.5 99.5l100 121h47l-169 -202l2 -1q41 42 97 42q68 0 110.5 -43t42.5 -110q0 -43 -20.5 -77t-56.5 -53t-80 -19q-40 0 -75.5 17.5zM278 -54q33 32 33 85q0 54 -33.5 85.5t-84.5 31.5q-52 0 -87 -33t-35 -85
t34.5 -84t87.5 -32q52 0 85 32z" />
    <glyph glyph-name="uni2087" unicode="&#x2087;" horiz-adv-x="324" 
d="M258 302h-238v34h274v-31l-196 -415h-38z" />
    <glyph glyph-name="uni2088" unicode="&#x2088;" horiz-adv-x="370" 
d="M74 -83.5q-39 36.5 -39 92.5q0 46 25 77.5t64 41.5v2q-31 10 -53.5 35.5t-22.5 67.5q0 48 36.5 80t100.5 32t100.5 -32t36.5 -80q0 -42 -22.5 -67.5t-53.5 -35.5v-2q39 -10 64 -41.5t25 -77.5q0 -56 -39 -92.5t-111 -36.5t-111 36.5zM258.5 168.5q27.5 23.5 27.5 61.5
t-27.5 60.5t-73.5 22.5t-73.5 -22.5t-27.5 -60.5t27.5 -61.5t73.5 -23.5t73.5 23.5zM269 -62.5q31 25.5 31 72.5q0 45 -30.5 73t-84.5 28t-84.5 -28t-30.5 -73q0 -47 31 -72.5t84 -25.5t84 25.5z" />
    <glyph glyph-name="uni2089" unicode="&#x2089;" horiz-adv-x="368" 
d="M277 83l-1 2q-19 -16 -45 -24.5t-53 -8.5q-65 0 -106.5 41t-41.5 104q0 66 44 107.5t109 41.5q66 0 110.5 -40.5t44.5 -111.5q0 -49 -16.5 -90.5t-57.5 -89.5l-102 -124h-42zM268 119q33 32 33 81q0 50 -33 81t-83 31q-51 0 -85 -31.5t-34 -81.5q0 -49 33 -80.5t85 -31.5
q51 0 84 32z" />
    <glyph glyph-name="TRY" unicode="&#x20a4;" horiz-adv-x="576" 
d="M536 327q0 -102 -40 -176t-111.5 -112.5t-164.5 -38.5h-36v315l-144 -63v31l144 63v56l-144 -63v31l144 63v242h36v-226l193 84v-31l-193 -84v-56l193 84v-31l-193 -84v-295q84 0 147 35.5t97 101t34 154.5h38z" />
    <glyph glyph-name="uni20A9" unicode="&#x20a9;" horiz-adv-x="910" 
d="M790 394l-19 -68h119v-30h-127l-80 -296h-55l-80 296h-186l-80 -296h-55l-80 296h-127v30h119l-19 68h-100v30h92l-68 251h40l66 -251h209l68 251h56l68 -251h209l66 251h40l-68 -251h92v-30h-100zM397 424h116l-57 212h-2zM176 326h157l18 68h-193zM540 326l-19 68h-132
l-19 -68h170zM752 394h-193l18 -68h157zM325 296h-141l69 -259h2zM726 296h-141l70 -259h2z" />
    <glyph glyph-name="Euro" unicode="&#x20ac;" horiz-adv-x="657" 
d="M261 586.5q-70 -67.5 -86 -184.5h349l-15 -30h-337q-1 -12 -1 -37v-22h313l-15 -30h-296q11 -126 75 -193.5t181 -67.5q85 0 161 38v-40q-71 -34 -164 -34q-137 0 -208 80.5t-83 216.5h-130l15 30h113v25q0 23 1 34h-124l15 30h112q16 129 93.5 208.5t203.5 79.5
q57 0 104.5 -14.5t90.5 -40.5l-19 -34q-83 53 -176 53q-103 0 -173 -67.5z" />
    <glyph glyph-name="uni20AE" unicode="&#x20ae;" horiz-adv-x="530" 
d="M283 640v-200l158 81v-31l-158 -81v-56l158 81v-31l-158 -81v-322h-36v304l-158 -81v31l158 81v56l-158 -81v31l158 81v218h-227v35h490v-35h-227z" />
    <glyph glyph-name="uni20B4" unicode="&#x20b4;" horiz-adv-x="484" 
d="M300 384l-79 -57h243v-30h-284q-49 -38 -71 -74t-22 -77q0 -54 37 -89.5t114 -35.5q49 0 99 16t108 49v-40q-47 -29 -100.5 -45t-105.5 -16q-87 0 -138.5 40.5t-51.5 123.5q0 80 76 148h-105v30h142l12 9l81 59h-235v30h275q39 32 58.5 61t19.5 71q0 44 -32 70.5
t-94 26.5q-35 0 -72.5 -10.5t-88.5 -34.5v40q43 20 81 30.5t80 10.5q79 0 121.5 -36.5t42.5 -97.5q0 -71 -60 -131h113v-30h-149z" />
    <glyph glyph-name="uni20B8" unicode="&#x20b8;" horiz-adv-x="530" 
d="M510 675v-35h-490v35h490zM20 578h490v-35h-227v-543h-36v543h-227v35z" />
    <glyph glyph-name="uni20B9" unicode="&#x20b9;" horiz-adv-x="509" 
d="M349.5 585q24.5 -38 28.5 -89h91l-22 -30h-68q-3 -55 -33 -96t-78.5 -63t-108.5 -22h-72l260 -285h-47l-260 285v35h115q85 0 133 40.5t53 105.5h-301v30h300q-5 65 -53 104.5t-132 39.5h-115v35h429l-22 -30h-164q42 -22 66.5 -60z" />
    <glyph glyph-name="uni20BD" unicode="&#x20bd;" horiz-adv-x="561" 
d="M178 300v-90h233v-30h-233v-180h-36v180h-102v30h102v90h-102v35h102v340h166q102 0 157.5 -51t55.5 -137q0 -85 -55.5 -136t-157.5 -51h-130zM178 335h130q81 0 128 39t47 113q0 75 -47 114t-128 39h-130v-305z" />
    <glyph glyph-name="uni2113" unicode="&#x2113;" horiz-adv-x="446" 
d="M185.5 89q29.5 -66 95.5 -66q26 0 54 10.5t68 35.5v-39q-44 -24 -66.5 -33t-56.5 -9q-57 0 -91.5 30t-51.5 96t-19 176q-26 -10 -78 -26v34q48 16 78 28q1 203 47 283.5t125 80.5q56 0 86 -33t30 -93q0 -159 -252 -260q2 -149 31.5 -215zM194 586.5q-37 -67.5 -40 -246.5
q216 93 216 225q0 43 -21.5 66t-59.5 23q-58 0 -95 -67.5z" />
    <glyph glyph-name="uni2116" unicode="&#x2116;" horiz-adv-x="1131" 
d="M606 0h-45l-439 633h-2v-633h-40v700h45l439 -633h2v633h40v-700zM991 510.5q47 -26.5 73.5 -73.5t26.5 -108t-26.5 -108t-73.5 -73.5t-108 -26.5t-108 26.5t-73.5 73.5t-26.5 108t26.5 108t73.5 73.5t108 26.5t108 -26.5zM795 479q-39 -22 -60.5 -61.5t-21.5 -88.5
t21.5 -88.5t60.5 -61.5t88 -22t88 22t60.5 61.5t21.5 88.5t-21.5 88.5t-60.5 61.5t-88 22t-88 -22zM1078 0h-390v34h390v-34z" />
    <glyph glyph-name="trademark" unicode="&#x2122;" horiz-adv-x="830" 
d="M195 670v-391h-32v391h-133v30h298v-30h-133zM800 279h-33l-88 365l-113 -301h-28l-113 301l-88 -365h-33l102 421h33l113 -306l113 306h33z" />
    <glyph glyph-name="estimated" unicode="&#x212e;" horiz-adv-x="783" 
d="M87 462.5q47 72.5 128 115t176 42.5q96 0 177 -42.5t128 -115t47 -158.5v-9h-574v-140q0 -33 13.5 -60.5t38.5 -43.5q68 -45 172 -45q73 0 138.5 27.5t109.5 77.5h29q-50 -58 -123.5 -90.5t-155.5 -32.5q-95 0 -176 42.5t-128 115t-47 158.5t47 158.5zM393 602
q-106 0 -172 -46q-52 -35 -52 -85v-158h445v152q0 53 -44 87q-65 50 -177 50z" />
    <glyph glyph-name="uni2153" unicode="&#x2153;" horiz-adv-x="624" 
d="M123 289h-32v353h-51v33h83v-386zM428 675h36l-395 -675h-36zM540.5 369.5q31.5 -25.5 31.5 -71.5q0 -34 -21.5 -57.5t-58.5 -31.5v-1q42 -5 67 -31t25 -71q0 -51 -32.5 -83t-100.5 -32q-56 0 -90 27t-37 80h33q2 -38 29.5 -57t64.5 -19q46 0 73 20.5t27 63.5
q0 48 -32 65.5t-89 17.5v31q109 4 109 75q0 69 -86 69q-40 0 -65 -17.5t-26 -54.5h-33q2 50 34 76.5t91 26.5q55 0 86.5 -25.5z" />
    <glyph glyph-name="uni2154" unicode="&#x2154;" horiz-adv-x="770" 
d="M242.5 656q28.5 -28 28.5 -73q0 -34 -17 -64.5t-46 -62.5l-126 -135h192v-32h-239v29l144 156q57 61 57 110q0 29 -20 49t-60 20q-37 0 -59 -20.5t-24 -56.5h-35q2 50 34 79t85 29q57 0 85.5 -28zM574 675h36l-395 -675h-36zM686.5 369.5q31.5 -25.5 31.5 -71.5
q0 -34 -21.5 -57.5t-58.5 -31.5v-1q42 -5 67 -31t25 -71q0 -51 -32.5 -83t-100.5 -32q-56 0 -90 27t-37 80h33q2 -38 29.5 -57t64.5 -19q46 0 73 20.5t27 63.5q0 48 -32 65.5t-89 17.5v31q109 4 109 75q0 69 -86 69q-40 0 -65 -17.5t-26 -54.5h-33q2 50 34 76.5t91 26.5
q55 0 86.5 -25.5z" />
    <glyph glyph-name="oneeighth" unicode="&#x215b;" horiz-adv-x="626" 
d="M123 289h-32v353h-51v33h83v-386zM428 675h36l-395 -675h-36zM366.5 22.5q-32.5 31.5 -32.5 79.5q0 44 22.5 69.5t55.5 34.5v2q-29 6 -48.5 27.5t-19.5 61.5q0 42 30.5 70t85.5 28t85.5 -28t30.5 -70q0 -40 -19.5 -61.5t-48.5 -27.5v-2q33 -9 55.5 -34.5t22.5 -69.5
q0 -48 -32.5 -79.5t-93.5 -31.5t-93.5 31.5zM521 243q22 20 22 52q0 31 -22.5 50t-60.5 19t-60.5 -19t-22.5 -50q0 -32 22 -52t61 -20t61 20zM528.5 44q24.5 22 24.5 60t-26 60.5t-67 22.5t-67 -22.5t-26 -60.5t24.5 -60t68.5 -22t68.5 22z" />
    <glyph glyph-name="threeeighths" unicode="&#x215c;" horiz-adv-x="753" 
d="M246.5 658.5q31.5 -25.5 31.5 -71.5q0 -34 -21.5 -57.5t-58.5 -31.5v-1q42 -5 67 -31t25 -71q0 -51 -32.5 -83t-100.5 -32q-56 0 -90 27t-37 80h33q2 -38 29.5 -57t64.5 -19q46 0 73 20.5t27 63.5q0 48 -32 65.5t-89 17.5v31q109 4 109 75q0 69 -86 69q-40 0 -65 -17.5
t-26 -54.5h-33q2 50 34 76.5t91 26.5q55 0 86.5 -25.5zM555 675h36l-395 -675h-36zM493.5 22.5q-32.5 31.5 -32.5 79.5q0 44 22.5 69.5t55.5 34.5v2q-29 6 -48.5 27.5t-19.5 61.5q0 42 30.5 70t85.5 28t85.5 -28t30.5 -70q0 -40 -19.5 -61.5t-48.5 -27.5v-2
q33 -9 55.5 -34.5t22.5 -69.5q0 -48 -32.5 -79.5t-93.5 -31.5t-93.5 31.5zM648 243q22 20 22 52q0 31 -22.5 50t-60.5 19t-60.5 -19t-22.5 -50q0 -32 22 -52t61 -20t61 20zM655.5 44q24.5 22 24.5 60t-26 60.5t-67 22.5t-67 -22.5t-26 -60.5t24.5 -60t68.5 -22t68.5 22z" />
    <glyph glyph-name="fiveeighths" unicode="&#x215d;" horiz-adv-x="760" 
d="M255 510q37 -32 37 -97q0 -61 -35.5 -97t-96.5 -36q-50 0 -83.5 22.5t-46.5 64.5l31 12q11 -31 36 -49t65 -18q47 0 72 27t25 73q0 50 -28 74t-68 24q-26 0 -49 -10t-35 -28h-30l23 203h188v-31h-161l-16 -135h2q11 15 33.5 24t48.5 9q51 0 88 -32zM562 675h36l-395 -675
h-36zM500.5 22.5q-32.5 31.5 -32.5 79.5q0 44 22.5 69.5t55.5 34.5v2q-29 6 -48.5 27.5t-19.5 61.5q0 42 30.5 70t85.5 28t85.5 -28t30.5 -70q0 -40 -19.5 -61.5t-48.5 -27.5v-2q33 -9 55.5 -34.5t22.5 -69.5q0 -48 -32.5 -79.5t-93.5 -31.5t-93.5 31.5zM655 243
q22 20 22 52q0 31 -22.5 50t-60.5 19t-60.5 -19t-22.5 -50q0 -32 22 -52t61 -20t61 20zM662.5 44q24.5 22 24.5 60t-26 60.5t-67 22.5t-67 -22.5t-26 -60.5t24.5 -60t68.5 -22t68.5 22z" />
    <glyph glyph-name="seveneighths" unicode="&#x215e;" horiz-adv-x="681" 
d="M258 645l-172 -356h-34l172 355h-204v31h238v-30zM483 675h36l-395 -675h-36zM421.5 22.5q-32.5 31.5 -32.5 79.5q0 44 22.5 69.5t55.5 34.5v2q-29 6 -48.5 27.5t-19.5 61.5q0 42 30.5 70t85.5 28t85.5 -28t30.5 -70q0 -40 -19.5 -61.5t-48.5 -27.5v-2q33 -9 55.5 -34.5
t22.5 -69.5q0 -48 -32.5 -79.5t-93.5 -31.5t-93.5 31.5zM576 243q22 20 22 52q0 31 -22.5 50t-60.5 19t-60.5 -19t-22.5 -50q0 -32 22 -52t61 -20t61 20zM583.5 44q24.5 22 24.5 60t-26 60.5t-67 22.5t-67 -22.5t-26 -60.5t24.5 -60t68.5 -22t68.5 22z" />
    <glyph glyph-name="arrowleft" unicode="&#x2190;" horiz-adv-x="822" 
d="M772 270h-649l258 -265l-31 -30l-300 315l300 315l31 -30l-258 -265h649v-40z" />
    <glyph glyph-name="arrowup" unicode="&#x2191;" horiz-adv-x="730" 
d="M650 312l-265 258v-649h-40v649l-265 -258l-30 31l315 300l315 -300z" />
    <glyph glyph-name="arrowright" unicode="&#x2192;" horiz-adv-x="822" 
d="M772 291l-300 -315l-31 30l258 265h-649v40h649l-258 265l31 30z" />
    <glyph glyph-name="arrowdown" unicode="&#x2193;" horiz-adv-x="730" 
d="M680 238l-315 -300l-315 300l30 31l265 -258v649h40v-649l265 258z" />
    <glyph glyph-name="arrowboth" unicode="&#x2194;" horiz-adv-x="1261" 
d="M1211 290l-300 -315l-31 30l258 265h-1015l258 -265l-31 -30l-300 315l300 315l31 -30l-258 -265h1015l-258 265l31 30z" />
    <glyph glyph-name="arrowupdn" unicode="&#x2195;" horiz-adv-x="730" 
d="M650 96l30 -31l-315 -300l-315 300l30 31l265 -258v913l-265 -258l-30 31l315 300l315 -300l-30 -31l-265 258v-913z" />
    <glyph glyph-name="uni2196" unicode="&#x2196;" horiz-adv-x="635" 
d="M557 15l-459 460l-5 -370h-43l10 435l435 11l1 -43l-370 -5l459 -459z" />
    <glyph glyph-name="uni2197" unicode="&#x2197;" horiz-adv-x="636" 
d="M543 104l-5 370l-459 -459l-29 28l460 459l-370 5v43l435 -10l11 -435z" />
    <glyph glyph-name="uni2198" unicode="&#x2198;" horiz-adv-x="635" 
d="M585 475l-10 -435l-435 -11l-1 43l370 5l-459 459l28 29l459 -460l5 370h43z" />
    <glyph glyph-name="uni2199" unicode="&#x2199;" horiz-adv-x="636" 
d="M126 78l370 -5v-43l-435 10l-11 435l43 1l5 -370l459 459l29 -28z" />
    <glyph glyph-name="partialdiff" unicode="&#x2202;" horiz-adv-x="559" 
d="M381.5 671.5q65.5 -43.5 101.5 -129t36 -207.5q0 -152 -59.5 -251t-189.5 -99q-73 0 -125 29.5t-78.5 81t-26.5 117.5q0 74 29.5 128t82.5 82t120 28q133 0 211 -107q-2 153 -68 244t-188 91q-39 0 -81 -12.5t-68 -30.5l-18 34q36 20 79 32.5t87 12.5q90 0 155.5 -43.5z
M420 94.5q52 73.5 61 192.5q-27 50 -81.5 89t-126.5 39q-57 0 -101 -25t-69 -71t-25 -107q0 -55 23.5 -98.5t67 -68t100.5 -24.5q99 0 151 73.5z" />
    <glyph glyph-name="emptyset" unicode="&#x2205;" 
d="M483 479q29 -31 44.5 -71t15.5 -84q0 -64 -32 -117t-87.5 -84t-123.5 -31q-94 0 -163 58l-61 -59l-19 20l60 58q-29 31 -44.5 71t-15.5 84q0 64 32 117t87.5 84t123.5 31q47 0 88.5 -15t73.5 -42l61 58l20 -20zM105.5 252.5q12.5 -33.5 36.5 -59.5l295 282
q-57 46 -137 46q-59 0 -106.5 -26t-74 -71t-26.5 -100q0 -38 12.5 -71.5zM494 395.5q-13 33.5 -37 59.5l-294 -281q26 -23 61.5 -35t75.5 -12q59 0 106.5 26t74 71t26.5 100q0 38 -13 71.5z" />
    <glyph glyph-name="product" unicode="&#x220f;" horiz-adv-x="710" 
d="M690 664h-148v-742h-36v742h-300v-742h-36v742h-150v36h670v-36z" />
    <glyph glyph-name="summation" unicode="&#x2211;" horiz-adv-x="551" 
d="M511 664h-424l307 -369l-307 -369h424v-36h-471v38l304 367l-304 367v38h471v-36z" />
    <glyph glyph-name="minus" unicode="&#x2212;" 
d="M539 284h-478v28h478v-28z" />
    <glyph glyph-name="radical" unicode="&#x221a;" horiz-adv-x="567" 
d="M547 715l-245 -715h-36l-169 425h-77v37h104l159 -412l227 665h37z" />
    <glyph glyph-name="infinity" unicode="&#x221e;" horiz-adv-x="760" 
d="M696 408.5q44 -41.5 44 -111.5t-44 -111.5t-115 -41.5q-59 0 -103.5 33.5t-97.5 96.5q-53 -63 -97.5 -96.5t-103.5 -33.5q-71 0 -115 41.5t-44 111.5t44 111.5t115 41.5q59 0 103.5 -33.5t97.5 -96.5q53 63 97.5 96.5t103.5 33.5q71 0 115 -41.5zM86.5 387.5
q-36.5 -34.5 -36.5 -90.5t36.5 -90.5t92.5 -34.5q51 0 91.5 31.5t90.5 93.5q-50 62 -90.5 93.5t-91.5 31.5q-56 0 -92.5 -34.5zM489.5 390.5q-40.5 -31.5 -90.5 -93.5q50 -62 90.5 -93.5t91.5 -31.5q56 0 92.5 34.5t36.5 90.5t-36.5 90.5t-92.5 34.5q-51 0 -91.5 -31.5z" />
    <glyph glyph-name="integral" unicode="&#x222b;" horiz-adv-x="380" 
d="M340 680q-66 0 -99.5 -38.5t-33.5 -113.5v-558q0 -90 -43 -137.5t-124 -47.5v35q64 1 97.5 36.5t33.5 115.5v558q0 90 43.5 137.5t125.5 47.5v-35z" />
    <glyph glyph-name="approxequal" unicode="&#x2248;" 
d="M226 436.5q30 -8.5 81 -26.5q47 -16 73.5 -24t45.5 -8q24 0 43 15.5t29 46.5h30q-12 -46 -38.5 -69.5t-62.5 -23.5q-24 0 -57.5 9.5t-79.5 26.5q-43 15 -70 23t-46 8q-24 0 -43 -15.5t-29 -46.5h-30q12 46 39 69.5t62 23.5q23 0 53 -8.5zM226 276.5q30 -8.5 81 -26.5
q47 -16 73.5 -24t45.5 -8q24 0 43 15.5t29 46.5h30q-12 -46 -38.5 -69.5t-62.5 -23.5q-24 0 -57.5 9.5t-79.5 26.5q-43 15 -70 23t-46 8q-24 0 -43 -15.5t-29 -46.5h-30q12 46 39 69.5t62 23.5q23 0 53 -8.5z" />
    <glyph glyph-name="notequal" unicode="&#x2260;" 
d="M354 367l-80 -137h279v-28h-295l-63 -109h-28l63 109h-183v28h199l80 137h-279v28h295l63 109h28l-63 -109h183v-28h-199z" />
    <glyph glyph-name="lessequal" unicode="&#x2264;" 
d="M511 459l-384 -113l384 -113v-30l-430 129v28l430 129v-30zM519 130h-438v28h438v-28z" />
    <glyph glyph-name="greaterequal" unicode="&#x2265;" 
d="M519 360v-28l-430 -129v30l384 113l-384 113v30zM519 158v-28h-438v28h438z" />
    <glyph glyph-name="uni2460" unicode="&#x2460;" horiz-adv-x="830" 
d="M226 32q-83 47 -129.5 130.5t-46.5 187.5t46.5 187.5t129.5 130.5t189 47t189 -47t129.5 -130.5t46.5 -187.5t-46.5 -187.5t-129.5 -130.5t-189 -47t-189 47zM591.5 50q78.5 45 122.5 123.5t44 176.5t-44 176.5t-122.5 123.5t-176.5 45t-176.5 -45t-122.5 -123.5
t-44 -176.5t44 -176.5t122.5 -123.5t176.5 -45t176.5 45zM414 516h-51v33h83v-386h-32v353z" />
    <glyph glyph-name="uni2461" unicode="&#x2461;" horiz-adv-x="830" 
d="M226 32q-83 47 -129.5 130.5t-46.5 187.5t46.5 187.5t129.5 130.5t189 47t189 -47t129.5 -130.5t46.5 -187.5t-46.5 -187.5t-129.5 -130.5t-189 -47t-189 47zM591.5 50q78.5 45 122.5 123.5t44 176.5t-44 176.5t-122.5 123.5t-176.5 45t-176.5 -45t-122.5 -123.5
t-44 -176.5t44 -176.5t122.5 -123.5t176.5 -45t176.5 45zM294 205l144 156q57 61 57 110q0 29 -20 49t-60 20q-38 0 -59.5 -18t-23.5 -54h-35q2 50 34 76.5t85 26.5q57 0 85.5 -28t28.5 -73q0 -62 -63 -127l-128 -135h194v-32h-239v29z" />
    <glyph glyph-name="uni2462" unicode="&#x2462;" horiz-adv-x="830" 
d="M226 32q-83 47 -129.5 130.5t-46.5 187.5t46.5 187.5t129.5 130.5t189 47t189 -47t129.5 -130.5t46.5 -187.5t-46.5 -187.5t-129.5 -130.5t-189 -47t-189 47zM591.5 50q78.5 45 122.5 123.5t44 176.5t-44 176.5t-122.5 123.5t-176.5 45t-176.5 -45t-122.5 -123.5
t-44 -176.5t44 -176.5t122.5 -123.5t176.5 -45t176.5 45zM328 194.5q-35 27.5 -38 79.5h33q2 -38 29.5 -57t64.5 -19q46 0 73 20.5t27 63.5q0 48 -32 65.5t-89 17.5v31q106 4 106 75q0 69 -83 69q-84 0 -91 -72h-33q2 49 36 76t89 27q54 0 84.5 -25.5t30.5 -71.5
q0 -34 -21 -57.5t-56 -31.5v-1q42 -5 67 -31t25 -71q0 -51 -32.5 -83t-100.5 -32q-54 0 -89 27.5z" />
    <glyph glyph-name="uni2463" unicode="&#x2463;" horiz-adv-x="830" 
d="M604 668q83 -47 129.5 -130.5t46.5 -187.5t-46.5 -187.5t-129.5 -130.5t-189 -47t-189 47t-129.5 130.5t-46.5 187.5t46.5 187.5t129.5 130.5t189 47t189 -47zM591.5 50q78.5 45 122.5 123.5t44 176.5t-44 176.5t-122.5 123.5t-176.5 45t-176.5 -45t-122.5 -123.5
t-44 -176.5t44 -176.5t122.5 -123.5t176.5 -45t176.5 45zM490 276h44v-29h-44v-77h-32v77h-211v29l202 280h41v-280zM458 276v233h-2l-173 -233h175z" />
    <glyph glyph-name="uni2464" unicode="&#x2464;" horiz-adv-x="830" 
d="M226 32q-83 47 -129.5 130.5t-46.5 187.5t46.5 187.5t129.5 130.5t189 47t189 -47t129.5 -130.5t46.5 -187.5t-46.5 -187.5t-129.5 -130.5t-189 -47t-189 47zM591.5 50q78.5 45 122.5 123.5t44 176.5t-44 176.5t-122.5 123.5t-176.5 45t-176.5 -45t-122.5 -123.5
t-44 -176.5t44 -176.5t122.5 -123.5t176.5 -45t176.5 45zM334.5 174.5q-34.5 22.5 -47.5 64.5l31 12q11 -31 36.5 -49t64.5 -18q47 0 72 27t25 73q0 50 -28 74t-68 24q-26 0 -49 -10t-35 -28h-30l23 203h198v-31h-171l-16 -135h2q11 15 33.5 24t48.5 9q51 0 88 -32t37 -97
q0 -61 -35.5 -97t-96.5 -36q-48 0 -82.5 22.5z" />
    <glyph glyph-name="uni2465" unicode="&#x2465;" horiz-adv-x="830" 
d="M226 32q-83 47 -129.5 130.5t-46.5 187.5t46.5 187.5t129.5 130.5t189 47t189 -47t129.5 -130.5t46.5 -187.5t-46.5 -187.5t-129.5 -130.5t-189 -47t-189 47zM591.5 50q78.5 45 122.5 123.5t44 176.5t-44 176.5t-122.5 123.5t-176.5 45t-176.5 -45t-122.5 -123.5
t-44 -176.5t44 -176.5t122.5 -123.5t176.5 -45t176.5 45zM316 191.5q-39 34.5 -39 95.5q0 53 17.5 91t57.5 83l81 99h42l-151 -179l1 -2q35 40 91 40q58 0 94.5 -36t36.5 -95t-38.5 -95t-95.5 -36q-58 0 -97 34.5zM487 214.5q27 26.5 27 73.5q0 46 -28 73t-72 27
q-46 0 -74.5 -27t-28.5 -73q0 -47 28.5 -73.5t75.5 -26.5q45 0 72 26.5z" />
    <glyph glyph-name="uni2466" unicode="&#x2466;" horiz-adv-x="830" 
d="M226 32q-83 47 -129.5 130.5t-46.5 187.5t46.5 187.5t129.5 130.5t189 47t189 -47t129.5 -130.5t46.5 -187.5t-46.5 -187.5t-129.5 -130.5t-189 -47t-189 47zM591.5 50q78.5 45 122.5 123.5t44 176.5t-44 176.5t-122.5 123.5t-176.5 45t-176.5 -45t-122.5 -123.5
t-44 -176.5t44 -176.5t122.5 -123.5t176.5 -45t176.5 45zM512 508h-204v31h238v-30l-172 -356h-34z" />
    <glyph glyph-name="uni2467" unicode="&#x2467;" horiz-adv-x="830" 
d="M226 32q-83 47 -129.5 130.5t-46.5 187.5t46.5 187.5t129.5 130.5t189 47t189 -47t129.5 -130.5t46.5 -187.5t-46.5 -187.5t-129.5 -130.5t-189 -47t-189 47zM591.5 50q78.5 45 122.5 123.5t44 176.5t-44 176.5t-122.5 123.5t-176.5 45t-176.5 -45t-122.5 -123.5
t-44 -176.5t44 -176.5t122.5 -123.5t176.5 -45t176.5 45zM321.5 186q-32.5 32 -32.5 80q0 78 78 103v2q-68 19 -68 89q0 42 30.5 70t85.5 28t85.5 -28t30.5 -70q0 -70 -68 -89v-2q78 -25 78 -103q0 -48 -32.5 -80t-93.5 -32t-93.5 32zM476 406q22 20 22 52q0 31 -22.5 50
t-60.5 19t-60.5 -19t-22.5 -50q0 -32 22 -52t61 -20t61 20zM483.5 207q24.5 22 24.5 61q0 38 -26 60t-67 22t-67 -22t-26 -60q0 -39 24.5 -61t68.5 -22t68.5 22z" />
    <glyph glyph-name="uni2468" unicode="&#x2468;" horiz-adv-x="830" 
d="M226 32q-83 47 -129.5 130.5t-46.5 187.5t46.5 187.5t129.5 130.5t189 47t189 -47t129.5 -130.5t46.5 -187.5t-46.5 -187.5t-129.5 -130.5t-189 -47t-189 47zM591.5 50q78.5 45 122.5 123.5t44 176.5t-44 176.5t-122.5 123.5t-176.5 45t-176.5 -45t-122.5 -123.5
t-44 -176.5t44 -176.5t122.5 -123.5t176.5 -45t176.5 45zM514 343l-1 1q-26 -24 -46 -35t-49 -11q-54 0 -90 34t-36 88q0 55 34.5 92t93.5 37q60 0 95.5 -34t35.5 -91q0 -44 -11.5 -78t-47.5 -81l-87 -111h-39zM493 355q25 26 25 72q0 42 -25.5 66.5t-68.5 24.5
q-45 0 -72 -25.5t-27 -71.5q0 -43 26 -67.5t72 -24.5q45 0 70 26z" />
    <glyph glyph-name="uni24EA" unicode="&#x24ea;" horiz-adv-x="830" 
d="M226 32q-83 47 -129.5 130.5t-46.5 187.5t46.5 187.5t129.5 130.5t189 47t189 -47t129.5 -130.5t46.5 -187.5t-46.5 -187.5t-129.5 -130.5t-189 -47t-189 47zM591.5 50q78.5 45 122.5 123.5t44 176.5t-44 176.5t-122.5 123.5t-176.5 45t-176.5 -45t-122.5 -123.5
t-44 -176.5t44 -176.5t122.5 -123.5t176.5 -45t176.5 45zM302.5 203.5q-42.5 53.5 -42.5 149.5q0 95 42.5 148.5t112.5 53.5q69 0 112 -53.5t43 -148.5t-43 -149t-112 -54q-70 0 -112.5 53.5zM504 228.5q33 47.5 33 124.5q0 76 -33 123.5t-89 47.5t-89 -47.5t-33 -123.5
q0 -77 33 -124.5t89 -47.5t89 47.5z" />
    <glyph glyph-name="uni24FF" unicode="&#x24ff;" horiz-adv-x="830" 
d="M228.5 32.5q-83.5 47.5 -131 131t-47.5 186.5t47.5 186.5t131 131t186.5 47.5t186.5 -47.5t131 -131t47.5 -186.5t-47.5 -186.5t-131 -131t-186.5 -47.5t-186.5 47.5zM527 204q43 54 43 149t-43 148.5t-112 53.5q-70 0 -112.5 -53.5t-42.5 -148.5q0 -96 42.5 -149.5
t112.5 -53.5q69 0 112 54zM326 228.5q-33 47.5 -33 124.5q0 76 33 123.5t89 47.5t89 -47.5t33 -123.5q0 -77 -33 -124.5t-89 -47.5t-89 47.5z" />
    <glyph glyph-name="lozenge" unicode="&#x25ca;" horiz-adv-x="584" 
d="M564 350l-257 -365h-30l-257 365l257 365h30zM66 350l226 -320l226 320l-226 320z" />
    <glyph glyph-name="uni2776" unicode="&#x2776;" horiz-adv-x="830" 
d="M228.5 32.5q-83.5 47.5 -131 131t-47.5 186.5t47.5 186.5t131 131t186.5 47.5t186.5 -47.5t131 -131t47.5 -186.5t-47.5 -186.5t-131 -131t-186.5 -47.5t-186.5 47.5zM446 163v386h-83v-33h51v-353h32z" />
    <glyph glyph-name="uni2777" unicode="&#x2777;" horiz-adv-x="830" 
d="M228.5 32.5q-83.5 47.5 -131 131t-47.5 186.5t47.5 186.5t131 131t186.5 47.5t186.5 -47.5t131 -131t47.5 -186.5t-47.5 -186.5t-131 -131t-186.5 -47.5t-186.5 47.5zM531 172v32h-194l128 135q63 65 63 127q0 45 -28.5 73t-85.5 28q-53 0 -85 -26.5t-34 -76.5h35
q2 36 23.5 54t59.5 18q40 0 60 -20t20 -49q0 -49 -57 -110l-144 -156v-29h239z" />
    <glyph glyph-name="uni2778" unicode="&#x2778;" horiz-adv-x="830" 
d="M228.5 32.5q-83.5 47.5 -131 131t-47.5 186.5t47.5 186.5t131 131t186.5 47.5t186.5 -47.5t131 -131t47.5 -186.5t-47.5 -186.5t-131 -131t-186.5 -47.5t-186.5 47.5zM513.5 199q32.5 32 32.5 83q0 45 -25 71t-67 31v1q35 8 56 31.5t21 57.5q0 46 -30.5 71.5t-84.5 25.5
q-55 0 -89 -27t-36 -76h33q7 72 91 72q83 0 83 -69q0 -71 -106 -75v-31q57 0 89 -17.5t32 -65.5q0 -43 -27 -63.5t-73 -20.5q-37 0 -64.5 19t-29.5 57h-33q3 -52 38 -79.5t89 -27.5q68 0 100.5 32z" />
    <glyph glyph-name="uni2779" unicode="&#x2779;" horiz-adv-x="830" 
d="M228.5 32.5q-83.5 47.5 -131 131t-47.5 186.5t47.5 186.5t131 131t186.5 47.5t186.5 -47.5t131 -131t47.5 -186.5t-47.5 -186.5t-131 -131t-186.5 -47.5t-186.5 47.5zM490 170v77h44v29h-44v280h-41l-202 -280v-29h211v-77h32zM456 509h2v-233h-175z" />
    <glyph glyph-name="uni277A" unicode="&#x277a;" horiz-adv-x="830" 
d="M228.5 32.5q-83.5 47.5 -131 131t-47.5 186.5t47.5 186.5t131 131t186.5 47.5t186.5 -47.5t131 -131t47.5 -186.5t-47.5 -186.5t-131 -131t-186.5 -47.5t-186.5 47.5zM501.5 188q35.5 36 35.5 97q0 65 -37 97t-88 32q-26 0 -48.5 -9t-33.5 -24h-2l16 135h181v31h-208
l-23 -203h30q12 18 35 28t49 10q40 0 68 -24t28 -74q0 -46 -25 -73t-72 -27q-39 0 -64.5 18t-36.5 49l-31 -12q13 -42 47.5 -64.5t82.5 -22.5q61 0 96.5 36z" />
    <glyph glyph-name="uni277B" unicode="&#x277b;" horiz-adv-x="830" 
d="M228.5 32.5q-83.5 47.5 -131 131t-47.5 186.5t47.5 186.5t131 131t186.5 47.5t186.5 -47.5t131 -131t47.5 -186.5t-47.5 -186.5t-131 -131t-186.5 -47.5t-186.5 47.5zM507.5 193q38.5 36 38.5 95t-36.5 95t-94.5 36q-56 0 -91 -40l-1 2l151 179h-42l-81 -99
q-40 -45 -57.5 -83t-17.5 -91q0 -61 39 -95.5t97 -34.5q57 0 95.5 36zM338.5 214.5q-28.5 26.5 -28.5 73.5q0 46 28.5 73t74.5 27q44 0 72 -27t28 -73q0 -47 -27 -73.5t-72 -26.5q-47 0 -75.5 26.5z" />
    <glyph glyph-name="uni277C" unicode="&#x277c;" horiz-adv-x="830" 
d="M228.5 32.5q-83.5 47.5 -131 131t-47.5 186.5t47.5 186.5t131 131t186.5 47.5t186.5 -47.5t131 -131t47.5 -186.5t-47.5 -186.5t-131 -131t-186.5 -47.5t-186.5 47.5zM364 153l172 356v30h-238v-31h204l-172 -355h34z" />
    <glyph glyph-name="uni277D" unicode="&#x277d;" horiz-adv-x="830" 
d="M228.5 32.5q-83.5 47.5 -131 131t-47.5 186.5t47.5 186.5t131 131t186.5 47.5t186.5 -47.5t131 -131t47.5 -186.5t-47.5 -186.5t-131 -131t-186.5 -47.5t-186.5 47.5zM508.5 186q32.5 32 32.5 77q0 44 -22.5 69.5t-55.5 36.5v2q68 19 68 89q0 42 -30.5 70t-85.5 28
t-85.5 -28t-30.5 -70q0 -70 68 -89v-2q-33 -11 -55.5 -36.5t-22.5 -69.5q0 -45 32.5 -77t93.5 -32t93.5 32zM354 406q-22 20 -22 52q0 31 22.5 50t60.5 19t60.5 -19t22.5 -50q0 -32 -22 -52t-61 -20t-61 20zM346.5 206q-24.5 21 -24.5 59t26 61.5t67 23.5t67 -23.5t26 -61.5
t-24.5 -59t-68.5 -21t-68.5 21z" />
    <glyph glyph-name="uni277E" unicode="&#x277e;" horiz-adv-x="830" 
d="M228.5 32.5q-83.5 47.5 -131 131t-47.5 186.5t47.5 186.5t131 131t186.5 47.5t186.5 -47.5t131 -131t47.5 -186.5t-47.5 -186.5t-131 -131t-186.5 -47.5t-186.5 47.5zM399 154l87 111q36 47 47.5 81t11.5 78q0 57 -35.5 91t-95.5 34q-59 0 -93.5 -37t-34.5 -92
q0 -54 36 -88t90 -34q29 0 49 11t46 35l1 -1l-148 -189h39zM345 353.5q-26 24.5 -26 67.5q0 46 27 71.5t72 25.5q43 0 68.5 -24.5t25.5 -66.5q0 -46 -25 -72t-70 -26q-46 0 -72 24.5z" />
    <glyph glyph-name="uniF8FF" unicode="&#xf8ff;" horiz-adv-x="865" 
d="M60.5 702q10.5 10 26.5 10q15 0 26 -10.5t11 -25.5q0 -10 -4.5 -19.5t-13.5 -14.5v-24q49 20 88.5 31t84.5 11t76 -21.5t31 -61.5v-25q55 12 104 12q57 0 96.5 -19t39.5 -64v-48q48 12 81 12q55 0 81.5 -21.5t26.5 -57.5v-240q-52 32 -107 32q-16 0 -34 -3.5t-33 -7.5
q-32 -9 -53 -9q-51 0 -51 46v86q-23 5 -47 5q-26 0 -76 -10q-46 -8 -64 -8q-54 0 -54 46v68h-14q-62 0 -176 -44v-327h-39v643q-8 5 -12.5 14t-4.5 19q0 16 10.5 26zM334.5 618.5q-22.5 13.5 -54.5 13.5q-43 0 -81.5 -11.5t-92.5 -33.5v-230q110 42 175 42q45 0 76 -14v192
q0 28 -22.5 41.5zM247 485v-68h-30v68l-65 95h38l42 -64l42 64h38zM578.5 517.5q-19.5 18.5 -86.5 18.5q-45 0 -106 -12v-171q0 -12 -8.5 -18t-25.5 -12q-15 -5 -22.5 -10t-7.5 -14q0 -7 6.5 -10.5t20.5 -3.5q16 0 60 8q56 9 81 9q28 0 57.5 -6.5t50.5 -18.5v197
q0 25 -19.5 43.5zM422.5 472q22.5 23 57.5 23t57.5 -23t22.5 -58t-22.5 -58t-57.5 -23t-57.5 23t-22.5 58t22.5 58zM516 451.5q-14 14.5 -36 14.5t-36 -14.5t-14 -37.5t14 -37.5t36 -14.5t36 14.5t14 37.5t-14 37.5zM767 404.5q-21 11.5 -59 11.5q-34 0 -82 -12v-167
q0 -13 -8.5 -19t-25.5 -14q-14 -5 -21 -9.5t-7 -13.5q0 -16 25 -16q17 0 48 9q44 12 70 12q39 0 81 -15v194q0 28 -21 39.5zM699 273h-16l-10 100h36zM347 361.5q-9 4.5 -23 6.5v-32q5 3 13.5 5.5t13.5 4.5t5 6q0 5 -9 9.5zM564 264v-47q6 4 15 7.5t14 7t5 8.5q0 13 -34 24z
M676.5 244.5q5.5 5.5 14.5 5.5t14.5 -5.5t5.5 -13.5q0 -9 -5.5 -14.5t-14.5 -5.5t-14.5 5.5t-5.5 14.5q0 8 5.5 13.5z" />
    <glyph glyph-name="i.loclTRK" horiz-adv-x="166" 
d="M65 462h36v-462h-36v462zM109 570h-52v120h52v-120z" />
    <glyph glyph-name="XBT" horiz-adv-x="477" 
d="M403 280.5q34 -42.5 34 -112.5q0 -74 -49.5 -119t-122.5 -49v-87h-28v87h-49v-87h-28v87h-120v675h120v87h28v-87h49v87h28v-87q73 -4 122.5 -49t49.5 -119q0 -70 -34 -112.5t-95 -55.5v-3q61 -13 95 -55.5zM76 640v-285h149q83 0 128.5 40t45.5 107q0 63 -42.5 100.5
t-104.5 37.5h-176zM356.5 72.5q42.5 37.5 42.5 100.5q0 67 -45.5 107t-128.5 40h-149v-285h176q62 0 104.5 37.5z" />
    <glyph glyph-name="dollar.tf" 
d="M467 37.5q-52 -46.5 -145 -51.5v-63h-28v62q-96 2 -153.5 49t-59.5 135h38q2 -72 48.5 -109t126.5 -39v323q-58 22 -94.5 42t-61 54.5t-24.5 87.5q0 75 49 116.5t131 45.5v72h28v-72q85 -2 137 -44t53 -129h-38q-7 132 -152 137v-281q64 -24 103.5 -45.5t66.5 -60.5
t27 -100q0 -83 -52 -129.5zM188.5 441.5q36.5 -31.5 105.5 -57.5v270q-65 -4 -103.5 -35.5t-38.5 -88.5t36.5 -88.5zM441 66.5q40 40.5 40 101.5q0 46 -21 76.5t-54 49.5t-84 39v-311q79 4 119 44.5z" />
    <glyph glyph-name="cent.tf" 
d="M419.5 433q-31.5 8 -65.5 8v-420q35 0 65.5 8t72.5 28v-39q-68 -33 -138 -33v-49h-28v50q-64 6 -113.5 38t-77.5 85.5t-28 121.5t28 121.5t77.5 85.5t113.5 38v55h28v-54q74 0 138 -33v-39q-41 20 -72.5 28zM196 86.5q51 -55.5 130 -64.5v418q-79 -9 -130 -64.5
t-51 -144.5t51 -144.5z" />
    <glyph glyph-name="sterling.tf" 
d="M157 35h361v-35h-407v40q61 36 94.5 71t33.5 86q0 29 -11 56.5t-33 69.5l-12 22h-104v30h89q-32 68 -32 127q0 85 52 136.5t143 51.5q84 0 136.5 -43.5t52.5 -129.5h-38q-5 137 -150 137q-72 0 -115 -40t-43 -113q0 -33 9 -63t26 -63h223v-30h-206q27 -50 39 -80.5
t12 -66.5q0 -59 -33.5 -95t-86.5 -66v-2z" />
    <glyph glyph-name="florin.tf" 
d="M317 506v-44h153v-30h-153v-472q0 -78 -34.5 -119t-110.5 -41h-42v36h44q107 0 107 121v475h-132v30h132v43q0 87 37.5 128.5t106.5 41.5h45v-34h-44q-109 0 -109 -135z" />
    <glyph glyph-name="yen.tf" 
d="M363 352h146v-30h-160l-27 -56h187v-30h-191v-236h-36v236h-191v30h187l-27 56h-160v30h146l-155 323h43l175 -382l175 382h43z" />
    <glyph glyph-name="Euro.tf" 
d="M226 586.5q-68 -66.5 -84 -184.5h332l-15 -30h-320q-1 -12 -1 -37v-22h298l-15 -30h-281q13 -124 83 -192t188 -68q73 0 138 35v-40q-61 -32 -141 -32q-138 0 -215 81.5t-90 215.5h-89l15 30h72q-1 8 -1 25q0 23 1 34h-82l15 30h70q15 131 91 209.5t208 78.5
q98 0 183 -54l-17 -35q-79 52 -166 52q-109 0 -177 -66.5z" />
    <glyph glyph-name="Indianrupeesign.tf" 
d="M394.5 585q24.5 -38 28.5 -89h91l-22 -30h-68q-3 -55 -33 -96t-78.5 -63t-108.5 -22h-72l260 -285h-47l-260 285v35h115q85 0 133 40.5t53 105.5h-301v30h300q-5 65 -53 104.5t-132 39.5h-115v35h429l-22 -30h-164q42 -22 66.5 -60z" />
    <glyph glyph-name="THB.tf" 
d="M464 280.5q34 -42.5 34 -112.5q0 -52 -25 -90t-67.5 -58t-92.5 -20h-12v-87h-28v87h-172v675h172v87h28v-87h12q50 0 92.5 -20t67.5 -58t25 -90q0 -70 -34 -112.5t-95 -55.5v-3q61 -13 95 -55.5zM137 640v-285h136v285h-136zM301 640v-285q76 4 117.5 43.5t41.5 103.5
q0 63 -42.5 100.5t-104.5 37.5h-12zM273 35v285h-136v-285h136zM417.5 72.5q42.5 37.5 42.5 100.5q0 64 -41.5 103.5t-117.5 43.5v-285h12q62 0 104.5 37.5z" />
    <glyph glyph-name="RUB.tf" 
d="M197 300v-90h233v-30h-233v-180h-36v180h-102v30h102v90h-102v35h102v340h166q102 0 157.5 -51t55.5 -137q0 -85 -55.5 -136t-157.5 -51h-130zM197 335h130q81 0 128 39t47 113q0 75 -47 114t-128 39h-130v-305z" />
    <glyph glyph-name="TRY.tf" 
d="M548 327q0 -102 -40 -176t-111.5 -112.5t-164.5 -38.5h-36v315l-144 -63v31l144 63v56l-144 -63v31l144 63v242h36v-226l193 84v-31l-193 -84v-56l193 84v-31l-193 -84v-295q84 0 147 35.5t97 101t34 154.5h38z" />
    <glyph glyph-name="uni20A9.tf" 
d="M541 401l-12 -68h71v-30h-77l-55 -303h-56l-53 303h-118l-53 -303h-56l-55 303h-77v30h71l-12 68h-59v30h53l-44 244h37l43 -244h142l43 244h52l43 -244h142l43 244h37l-44 -244h53v-30h-59zM264 431h72l-35 200h-2zM106 333h107l12 68h-131zM353 333l-12 68h-82l-12 -68
h106zM506 401h-131l12 -68h107zM208 303h-97l47 -271h2zM489 303h-97l48 -271h2z" />
    <glyph glyph-name="uni20B4.tf" 
d="M358 384l-79 -57h243v-30h-284q-49 -38 -71 -74t-22 -77q0 -54 37 -89.5t114 -35.5q49 0 99 16t108 49v-40q-47 -29 -100.5 -45t-105.5 -16q-87 0 -138.5 40.5t-51.5 123.5q0 80 76 148h-105v30h142l12 9l81 59h-235v30h275q39 32 58.5 61t19.5 71q0 44 -32 70.5
t-94 26.5q-35 0 -72.5 -10.5t-88.5 -34.5v40q43 20 81 30.5t80 10.5q79 0 121.5 -36.5t42.5 -97.5q0 -71 -60 -131h113v-30h-149z" />
    <glyph glyph-name="XBT.tf" 
d="M464 280.5q34 -42.5 34 -112.5q0 -74 -49.5 -119t-122.5 -49v-87h-28v87h-49v-87h-28v87h-120v675h120v87h28v-87h49v87h28v-87q73 -4 122.5 -49t49.5 -119q0 -70 -34 -112.5t-95 -55.5v-3q61 -13 95 -55.5zM137 640v-285h149q83 0 128.5 40t45.5 107q0 63 -42.5 100.5
t-104.5 37.5h-176zM417.5 72.5q42.5 37.5 42.5 100.5q0 67 -45.5 107t-128.5 40h-149v-285h176q62 0 104.5 37.5z" />
    <glyph glyph-name="uni20B8.tf" 
d="M545 675v-35h-490v35h490zM55 578h490v-35h-227v-543h-36v543h-227v35z" />
    <glyph glyph-name="uni20AE.tf" 
d="M318 640v-200l158 81v-31l-158 -81v-56l158 81v-31l-158 -81v-322h-36v304l-158 -81v31l158 81v56l-158 -81v31l158 81v218h-227v35h490v-35h-227z" />
    <glyph glyph-name="perthousand.tf" 
d="M62 423q-35 43 -35 112t35 112t87 43t87 -43t35 -112t-35 -112t-87 -43t-87 43zM87.5 624q-24.5 -32 -24.5 -89t24.5 -89t61.5 -32t61.5 32t24.5 89t-24.5 89t-61.5 32t-61.5 -32zM532 479l-500 -232l-12 25l500 232zM545 252q35 -43 35 -112t-35 -112t-87 -43
q-33 0 -60.5 18.5t-43.5 51.5q-16 -33 -43.5 -51.5t-60.5 -18.5q-52 0 -87 43t-35 112t35 112t87 43q33 0 60.5 -18.5t43.5 -51.5q16 33 43.5 51.5t60.5 18.5q52 0 87 -43zM311.5 51q24.5 32 24.5 89t-24.5 89t-61.5 32t-61.5 -32t-24.5 -89t24.5 -89t61.5 -32t61.5 32z
M519.5 51q24.5 32 24.5 89t-24.5 89t-61.5 32t-61.5 -32t-24.5 -89t24.5 -89t61.5 -32t61.5 32z" />
    <glyph glyph-name="zero.zero" horiz-adv-x="566" 
d="M500 498.5q21 -70.5 21 -160.5q0 -109 -30 -189t-84 -122t-124 -42q-76 0 -134 50l-33 -66l-26 11l38 77q-40 46 -61.5 117.5t-21.5 163.5q0 109 30 188.5t84 121.5t124 42q79 0 137 -53l30 59l26 -11l-35 -70q38 -46 59 -116.5zM100 199q17 -62 48 -104l254 506
q-50 53 -119 53q-59 0 -104 -39t-70.5 -110.5t-25.5 -166.5q0 -77 17 -139zM387 60.5q45 39.5 70.5 111t25.5 166.5q0 75 -16 135.5t-46 103.5l-254 -506q50 -50 116 -50q59 0 104 39.5z" />
    <glyph glyph-name="zero.tf.zero" 
d="M517 498.5q21 -70.5 21 -160.5q0 -109 -30 -189t-84 -122t-124 -42q-76 0 -134 50l-33 -66l-26 11l38 77q-40 46 -61.5 117.5t-21.5 163.5q0 109 30 188.5t84 121.5t124 42q79 0 137 -53l30 59l26 -11l-35 -70q38 -46 59 -116.5zM117 199q17 -62 48 -104l254 506
q-50 53 -119 53q-59 0 -104 -39t-70.5 -110.5t-25.5 -166.5q0 -77 17 -139zM404 60.5q45 39.5 70.5 111t25.5 166.5q0 75 -16 135.5t-46 103.5l-254 -506q50 -50 116 -50q59 0 104 39.5z" />
    <glyph glyph-name="zero.tf" 
d="M424 648q54 -42 84 -121.5t30 -188.5t-30 -189t-84 -122t-124 -42t-124 42t-84 122t-30 189t30 188.5t84 121.5t124 42t124 -42zM196 615q-45 -39 -70.5 -110.5t-25.5 -166.5t25.5 -166.5t70.5 -111t104 -39.5t104 39.5t70.5 111t25.5 166.5t-25.5 166.5t-70.5 110.5
t-104 39t-104 -39z" />
    <glyph glyph-name="one.tf" 
d="M511 34v-34h-422v34h206v607h-128v34h164v-641h180z" />
    <glyph glyph-name="two.tf" 
d="M93 34l275 288q44 47 70 90.5t26 91.5q0 65 -44 107.5t-119 42.5q-69 0 -118 -39.5t-52 -115.5h-36q1 89 57.5 140t148.5 51q94 0 147.5 -50.5t53.5 -134.5q0 -55 -27 -105t-74 -98l-259 -267h364v-35h-413v34z" />
    <glyph glyph-name="three.tf" 
d="M430 644.5q50 -45.5 50 -123.5q0 -60 -34 -102t-103 -54v-1q79 -4 125 -51.5t46 -130.5q0 -90 -53.5 -143.5t-162.5 -53.5q-97 0 -155.5 44.5t-66.5 131.5h38q6 -65 50.5 -102.5t132.5 -37.5q85 0 132 40.5t47 124.5q0 83 -51.5 120.5t-170.5 37.5h-43v34h43
q89 0 138.5 35t49.5 106q0 64 -40 99.5t-111 35.5q-68 0 -113 -33t-48 -98h-38q4 78 57 122.5t140 44.5q91 0 141 -45.5z" />
    <glyph glyph-name="four.tf" 
d="M553 141h-98v-141h-36v141h-373v32l352 502h57v-499h98v-35zM419 176v462h-2l-325 -462h327z" />
    <glyph glyph-name="five.tf" 
d="M453 381.5q62 -57.5 62 -169.5q0 -104 -60 -165.5t-171 -61.5q-86 0 -145 38.5t-84 110.5l32 14q27 -62 73 -94.5t123 -32.5q101 0 147.5 53t46.5 138q0 94 -51 142.5t-133 48.5q-58 0 -100 -24t-73 -69h-34l50 365h325v-34h-295l-38 -273h3q64 71 165 71q95 0 157 -57.5
z" />
    <glyph glyph-name="six.tf" 
d="M186 11q-53 26 -85.5 78.5t-32.5 127.5q0 59 21.5 113.5t66.5 111.5l193 240h46l-242 -300l3 -2q36 32 73 45.5t83 13.5q65 0 115 -28t77 -79t27 -117q0 -67 -30 -119.5t-83 -81.5t-119 -29q-60 0 -113 26zM399.5 45q43.5 24 68.5 67.5t25 99.5q0 55 -24 98.5t-66.5 68
t-96.5 24.5q-57 0 -102 -24.5t-70.5 -68.5t-25.5 -98q0 -56 24 -99t68 -67.5t101 -24.5q55 0 98.5 24z" />
    <glyph glyph-name="seven.tf" 
d="M501 641l-300 -641h-38l300 639h-365v36h403v-34z" />
    <glyph glyph-name="eight.tf" 
d="M135.5 39.5q-58.5 54.5 -58.5 141.5q0 66 37 115t97 64v2q-49 16 -81.5 55.5t-32.5 102.5q0 77 53.5 123.5t149.5 46.5t149.5 -46.5t53.5 -123.5q0 -63 -32.5 -102.5t-81.5 -55.5v-2q60 -15 97 -64t37 -115q0 -87 -58.5 -141.5t-164.5 -54.5t-164.5 54.5zM420 416.5
q45 39.5 45 101.5t-45 99t-120 37t-120 -37t-45 -99t45 -101.5t120 -39.5t120 39.5zM435.5 63q49.5 42 49.5 116q0 73 -47.5 117.5t-137.5 44.5t-137.5 -44.5t-47.5 -117.5q0 -74 49.5 -116t135.5 -42t135.5 42z" />
    <glyph glyph-name="nine.tf" 
d="M448 294l-3 2q-64 -60 -154 -60q-66 0 -116.5 29.5t-78.5 80.5t-28 114q0 70 29.5 122t82 80t120.5 28q65 0 117.5 -25.5t83 -78t30.5 -128.5q0 -118 -88 -225l-191 -233h-46zM399 296.5q45 24.5 70.5 68.5t25.5 98q0 56 -24.5 99t-69 67.5t-102.5 24.5q-55 0 -99 -24
t-69 -68t-25 -100q0 -55 24.5 -98.5t68 -67.5t98.5 -24q57 0 102 24.5z" />
    <glyph glyph-name="dot" horiz-adv-x="220" 
d="M150 0h-80v80h80v-80z" />
    <glyph glyph-name="Adieresis.ss01" horiz-adv-x="632" 
d="M497 204h-362l-83 -204h-42l285 700h42l285 -700h-42zM481 242l-165 406l-165 -406h330zM250 824q14 -14 14 -34t-14 -34t-34 -14t-34 14t-14 34t14 34t34 14t34 -14zM450 824q14 -14 14 -34t-14 -34t-34 -14t-34 14t-14 34t14 34t34 14t34 -14z" />
    <glyph glyph-name="Cdotaccent.ss01" horiz-adv-x="688" 
d="M216.5 31q-84.5 46 -130.5 129t-46 190t46 190t130.5 129t196.5 46q72 0 128.5 -20t111.5 -61l-25 -34q-49 37 -99.5 56t-116.5 19q-98 0 -173 -41.5t-116 -115.5t-41 -168t41 -168t116 -115.5t173 -41.5q66 0 116.5 19t99.5 56l25 -34q-55 -41 -111.5 -61t-128.5 -20
q-112 0 -196.5 46zM446 824q14 -14 14 -34t-14 -34t-34 -14t-34 14t-14 34t14 34t34 14t34 -14z" />
    <glyph glyph-name="Edieresis.ss01" horiz-adv-x="515" 
d="M465 38v-38h-385v700h380v-38h-340v-249h313v-38h-313v-337h345zM221 824q14 -14 14 -34t-14 -34t-34 -14t-34 14t-14 34t14 34t34 14t34 -14zM421 824q14 -14 14 -34t-14 -34t-34 -14t-34 14t-14 34t14 34t34 14t34 -14z" />
    <glyph glyph-name="Edotaccent.ss01" horiz-adv-x="515" 
d="M465 38v-38h-385v700h380v-38h-340v-249h313v-38h-313v-337h345zM321 824q14 -14 14 -34t-14 -34t-34 -14t-34 14t-14 34t14 34t34 14t34 -14z" />
    <glyph glyph-name="Gcommaaccent.ss01" horiz-adv-x="800" 
d="M765 355v-17q0 -87 -39 -168t-119 -133t-197 -52q-108 0 -192 46t-131 128.5t-47 188.5t47 189.5t130.5 130.5t190.5 47q81 0 143 -23.5t123 -68.5l-27 -35q-54 41 -110 64t-130 23q-92 0 -166 -42t-116.5 -117t-42.5 -168q0 -92 41 -165.5t115.5 -115.5t171.5 -42
q105 0 175 46.5t103.5 114.5t34.5 131h-277v38h319zM452 -128l-55 -72h-25l40 66q-18 2 -28.5 14.5t-10.5 30.5q0 20 13.5 34t33.5 14t33.5 -13.5t13.5 -33.5q0 -21 -15 -40z" />
    <glyph glyph-name="Gdotaccent.ss01" horiz-adv-x="800" 
d="M765 355v-17q0 -87 -39 -168t-119 -133t-197 -52q-108 0 -192 46t-131 128.5t-47 188.5t47 189.5t130.5 130.5t190.5 47q81 0 143 -23.5t123 -68.5l-27 -35q-54 41 -110 64t-130 23q-92 0 -166 -42t-116.5 -117t-42.5 -168q0 -92 41 -165.5t115.5 -115.5t171.5 -42
q105 0 175 46.5t103.5 114.5t34.5 131h-277v38h319zM442 824q14 -14 14 -34t-14 -34t-34 -14t-34 14t-14 34t14 34t34 14t34 -14z" />
    <glyph glyph-name="Idieresis.ss01" horiz-adv-x="200" 
d="M120 0h-40v700h40v-700zM34 824q14 -14 14 -34t-14 -34t-34 -14t-34 14t-14 34t14 34t34 14t34 -14zM234 824q14 -14 14 -34t-14 -34t-34 -14t-34 14t-14 34t14 34t34 14t34 -14z" />
    <glyph glyph-name="Idotaccent.ss01" horiz-adv-x="200" 
d="M120 0h-40v700h40v-700zM134 824q14 -14 14 -34t-14 -34t-34 -14t-34 14t-14 34t14 34t34 14t34 -14z" />
    <glyph glyph-name="Kcommaaccent.ss01" horiz-adv-x="561" 
d="M489 0l-370 368v-368h-39v700h39v-322l331 322h60l-341 -327l382 -373h-62zM322 -128l-55 -72h-25l40 66q-18 2 -28.5 14.5t-10.5 30.5q0 20 13.5 34t33.5 14t33.5 -13.5t13.5 -33.5q0 -21 -15 -40z" />
    <glyph glyph-name="Lcaron.ss01" horiz-adv-x="488" 
d="M120 38h353v-38h-393v700h40v-662zM380 699.5q14 -13.5 14 -33.5q0 -13 -10 -34l-61 -130h-27l44 115q-19 2 -30.5 15t-11.5 33t14 34t34 14t34 -13.5z" />
    <glyph glyph-name="Lcommaaccent.ss01" horiz-adv-x="488" 
d="M120 38h353v-38h-393v700h40v-662zM329 -128l-55 -72h-25l40 66q-18 2 -28.5 14.5t-10.5 30.5q0 20 13.5 34t33.5 14t33.5 -13.5t13.5 -33.5q0 -21 -15 -40z" />
    <glyph glyph-name="Ldot.ss01" horiz-adv-x="488" 
d="M120 38h353v-38h-393v700h40v-662zM392 463q14 -14 14 -36t-14 -36t-36 -14t-36 14t-14 36t14 36t36 14t36 -14z" />
    <glyph glyph-name="Ncommaaccent.ss01" horiz-adv-x="686" 
d="M606 0h-45l-439 633h-2v-633h-40v700h45l439 -633h2v633h40v-700zM377 -128l-55 -72h-25l40 66q-18 2 -28.5 14.5t-10.5 30.5q0 20 13.5 34t33.5 14t33.5 -13.5t13.5 -33.5q0 -21 -15 -40z" />
    <glyph glyph-name="Odieresis.ss01" horiz-adv-x="810" 
d="M591.5 668.5q83.5 -46.5 131 -129.5t47.5 -189t-47.5 -189t-131 -129.5t-186.5 -46.5t-186.5 46.5t-131 129.5t-47.5 189t47.5 189t131 129.5t186.5 46.5t186.5 -46.5zM238.5 633.5q-73.5 -41.5 -115 -115.5t-41.5 -168t41.5 -168t115 -115.5t166.5 -41.5t166.5 41.5
t115 115.5t41.5 168t-41.5 168t-115 115.5t-166.5 41.5t-166.5 -41.5zM339 824q14 -14 14 -34t-14 -34t-34 -14t-34 14t-14 34t14 34t34 14t34 -14zM539 824q14 -14 14 -34t-14 -34t-34 -14t-34 14t-14 34t14 34t34 14t34 -14z" />
    <glyph glyph-name="Rcommaaccent.ss01" horiz-adv-x="557" 
d="M268 315h-148v-315h-40v700h224q93 0 152 -49t59 -143q0 -90 -55.5 -140t-143.5 -53l216 -315h-51zM120 353h184q77 0 123 41t46 114t-45.5 113.5t-123.5 40.5h-184v-309zM321 -128l-55 -72h-25l40 66q-18 2 -28.5 14.5t-10.5 30.5q0 20 13.5 34t33.5 14t33.5 -13.5
t13.5 -33.5q0 -21 -15 -40z" />
    <glyph glyph-name="Scommaaccent.ss01" horiz-adv-x="492" 
d="M418 674l-20 -39q-42 21 -75.5 30.5t-69.5 9.5q-68 0 -104.5 -30t-36.5 -79q0 -44 26 -74t77 -66l101 -70q66 -45 98.5 -88.5t32.5 -106.5q0 -85 -57.5 -130.5t-151.5 -45.5q-54 0 -110 16t-103 47l22 36q93 -59 191 -59q83 0 125 38t42 96q0 44 -26.5 80.5t-86.5 79.5
l-108 76q-56 39 -85 76t-29 94q0 70 46.5 110t134.5 40q80 0 167 -41zM279 -128l-55 -72h-25l40 66q-18 2 -28.5 14.5t-10.5 30.5q0 20 13.5 34t33.5 14t33.5 -13.5t13.5 -33.5q0 -21 -15 -40z" />
    <glyph glyph-name="uni021A.ss01" horiz-adv-x="510" 
d="M500 662h-225v-662h-40v662h-225v38h490v-38zM289 -128l-55 -72h-25l40 66q-18 2 -28.5 14.5t-10.5 30.5q0 20 13.5 34t33.5 14t33.5 -13.5t13.5 -33.5q0 -21 -15 -40z" />
    <glyph glyph-name="Udieresis.ss01" horiz-adv-x="698" 
d="M618 253q0 -79 -30.5 -139.5t-91.5 -94.5t-147 -34t-147 34t-91.5 94.5t-30.5 139.5v447h43v-437q0 -112 60.5 -174.5t165.5 -62.5t165.5 62.5t60.5 174.5v437h43v-447zM283 824q14 -14 14 -34t-14 -34t-34 -14t-34 14t-14 34t14 34t34 14t34 -14zM483 824q14 -14 14 -34
t-14 -34t-34 -14t-34 14t-14 34t14 34t34 14t34 -14z" />
    <glyph glyph-name="Wdieresis.ss01" horiz-adv-x="956" 
d="M726 0h-42l-205 636h-2l-205 -636h-42l-215 700h46l188 -634h2l203 634h48l203 -634h2l188 634h46zM412 824q14 -14 14 -34t-14 -34t-34 -14t-34 14t-14 34t14 34t34 14t34 -14zM612 824q14 -14 14 -34t-14 -34t-34 -14t-34 14t-14 34t14 34t34 14t34 -14z" />
    <glyph glyph-name="Ydieresis.ss01" horiz-adv-x="522" 
d="M281 266v-266h-40v266l-231 434h48l202 -389h2l202 389h48zM195 824q14 -14 14 -34t-14 -34t-34 -14t-34 14t-14 34t14 34t34 14t34 -14zM395 824q14 -14 14 -34t-14 -34t-34 -14t-34 14t-14 34t14 34t34 14t34 -14z" />
    <glyph glyph-name="Zdotaccent.ss01" horiz-adv-x="532" 
d="M512 38v-38h-492v38l438 624h-398v38h444v-38l-440 -624h448zM320 824q14 -14 14 -34t-14 -34t-34 -14t-34 14t-14 34t14 34t34 14t34 -14z" />
    <glyph glyph-name="adieresis.ss01" horiz-adv-x="573" 
d="M149 15q-53 30 -83.5 86t-30.5 130t30.5 130t83.5 86t120 30q70 0 121.5 -31.5t79.5 -85.5h2v102h36v-462h-36v102h-2q-28 -54 -79.5 -85.5t-121.5 -31.5q-67 0 -120 30zM379.5 48q45.5 27 70.5 74.5t25 108.5t-25 108.5t-70.5 74.5t-105.5 27t-105.5 -27t-70.5 -74.5
t-25 -108.5t25 -108.5t70.5 -74.5t105.5 -27t105.5 27zM211 688q12 -12 12 -31t-12 -31t-31 -12t-31 12t-12 31t12 31t31 12t31 -12zM399 688q12 -12 12 -31t-12 -31t-31 -12t-31 12t-12 31t12 31t31 12t31 -12z" />
    <glyph glyph-name="cdotaccent.ss01" horiz-adv-x="469" 
d="M153 16q-56 31 -87 87t-31 128t31 128t87 87t129 31q82 0 157 -45l-19 -33q-37 22 -70 32t-70 10q-61 0 -108.5 -28.5t-73 -76.5t-25.5 -105t25.5 -105t73 -76.5t108.5 -28.5q37 0 70 10t70 32l19 -33q-75 -45 -157 -45q-73 0 -129 31zM311 686q14 -14 14 -34t-14 -34
t-34 -14t-34 14t-14 34t14 34t34 14t34 -14z" />
    <glyph glyph-name="dcaron.ss01" horiz-adv-x="645" 
d="M596 617q-19 2 -30.5 15t-11.5 33t14 34t34 14t34 -13.5t14 -33.5q0 -15 -10 -34l-61 -123h-27zM149 15q-53 30 -83.5 86t-30.5 130t30.5 130t83.5 86t120 30q70 0 121.5 -31.5t79.5 -85.5h2v340h36v-700h-36v102h-2q-28 -54 -79.5 -85.5t-121.5 -31.5q-67 0 -120 30z
M379.5 48q45.5 27 70.5 74.5t25 108.5t-25 108.5t-70.5 74.5t-105.5 27t-105.5 -27t-70.5 -74.5t-25 -108.5t25 -108.5t70.5 -74.5t105.5 -27t105.5 27z" />
    <glyph glyph-name="edieresis.ss01" horiz-adv-x="526" 
d="M436.5 408.5q54.5 -68.5 54.5 -169.5v-10h-419q0 -97 55 -152.5t147 -55.5q67 0 106 26.5t74 72.5l28 -22q-33 -48 -81.5 -80.5t-126.5 -32.5q-72 0 -126 30.5t-83.5 86t-29.5 128.5q0 77 30.5 133t83 85t119.5 29q114 0 168.5 -68.5zM135 394q-55 -47 -62 -131h378
q-7 85 -53.5 131.5t-130.5 46.5q-77 0 -132 -47zM205 688q12 -12 12 -31t-12 -31t-31 -12t-31 12t-12 31t12 31t31 12t31 -12zM393 688q12 -12 12 -31t-12 -31t-31 -12t-31 12t-12 31t12 31t31 12t31 -12z" />
    <glyph glyph-name="edotaccent.ss01" horiz-adv-x="526" 
d="M436.5 408.5q54.5 -68.5 54.5 -169.5v-10h-419q0 -97 55 -152.5t147 -55.5q67 0 106 26.5t74 72.5l28 -22q-33 -48 -81.5 -80.5t-126.5 -32.5q-72 0 -126 30.5t-83.5 86t-29.5 128.5q0 77 30.5 133t83 85t119.5 29q114 0 168.5 -68.5zM135 394q-55 -47 -62 -131h378
q-7 85 -53.5 131.5t-130.5 46.5q-77 0 -132 -47zM302 686q14 -14 14 -34t-14 -34t-34 -14t-34 14t-14 34t14 34t34 14t34 -14z" />
    <glyph glyph-name="gcommaaccent.ss01" horiz-adv-x="573" 
d="M121 -195l9 37q95 -21 170 -21q172 0 172 172v109h-2q-28 -54 -79.5 -85.5t-121.5 -31.5q-67 0 -120 30t-83.5 86t-30.5 130t30.5 130t83.5 86t120 30q70 0 121.5 -31.5t79.5 -85.5h2v102h36v-462q0 -123 -56 -169t-153 -46q-93 0 -178 20zM379.5 48q45.5 27 70.5 74.5
t25 108.5t-25 108.5t-70.5 74.5t-105.5 27t-105.5 -27t-70.5 -74.5t-25 -108.5t25 -108.5t70.5 -74.5t105.5 -27t105.5 27zM256 626l55 72h25l-40 -66q18 -2 28.5 -14.5t10.5 -30.5q0 -20 -13.5 -34t-33.5 -14t-33.5 13.5t-13.5 33.5q0 21 15 40z" />
    <glyph glyph-name="gdotaccent.ss01" horiz-adv-x="573" 
d="M121 -195l9 37q95 -21 170 -21q172 0 172 172v109h-2q-28 -54 -79.5 -85.5t-121.5 -31.5q-67 0 -120 30t-83.5 86t-30.5 130t30.5 130t83.5 86t120 30q70 0 121.5 -31.5t79.5 -85.5h2v102h36v-462q0 -123 -56 -169t-153 -46q-93 0 -178 20zM379.5 48q45.5 27 70.5 74.5
t25 108.5t-25 108.5t-70.5 74.5t-105.5 27t-105.5 -27t-70.5 -74.5t-25 -108.5t25 -108.5t70.5 -74.5t105.5 -27t105.5 27zM323 686q14 -14 14 -34t-14 -34t-34 -14t-34 14t-14 34t14 34t34 14t34 -14z" />
    <glyph glyph-name="i.ss01" horiz-adv-x="166" 
d="M65 462h36v-462h-36v462zM117 686q14 -14 14 -34t-14 -34t-34 -14t-34 14t-14 34t14 34t34 14t34 -14z" />
    <glyph glyph-name="idieresis.ss01" horiz-adv-x="166" 
d="M50 688q12 -12 12 -31t-12 -31t-31 -12t-31 12t-12 31t12 31t31 12t31 -12zM178 688q12 -12 12 -31t-12 -31t-31 -12t-31 12t-12 31t12 31t31 12t31 -12zM65 462h36v-462h-36v462z" />
    <glyph glyph-name="i.loclTRK.ss01" horiz-adv-x="166" 
d="M65 462h36v-462h-36v462zM117 686q14 -14 14 -34t-14 -34t-34 -14t-34 14t-14 34t14 34t34 14t34 -14z" />
    <glyph glyph-name="ij.ss01" horiz-adv-x="332" 
d="M65 462h36v-462h-36v462zM117 686q14 -14 14 -34t-14 -34t-34 -14t-34 14t-14 34t14 34t34 14t34 -14zM145 -170q44 0 65 27.5t21 88.5v516h36v-516q0 -150 -122 -150h-29v34h29zM283 686q14 -14 14 -34t-14 -34t-34 -14t-34 14t-14 34t14 34t34 14t34 -14z" />
    <glyph glyph-name="iogonek.ss01" horiz-adv-x="166" 
d="M117 686q14 -14 14 -34t-14 -34t-34 -14t-34 14t-14 34t14 34t34 14t34 -14zM102 13h-0.5t-0.5 -1v-12h-17q-48 -35 -72 -63t-24 -53q0 -37 54 -37q26 0 52 7l2 -32q-31 -9 -58 -9q-36 0 -61.5 16.5t-25.5 48.5q0 65 114 143v441h36v-448z" />
    <glyph glyph-name="j.ss01" horiz-adv-x="166" 
d="M-21 -170q44 0 65 27.5t21 88.5v516h36v-516q0 -150 -122 -150h-29v34h29zM117 686q14 -14 14 -34t-14 -34t-34 -14t-34 14t-14 34t14 34t34 14t34 -14z" />
    <glyph glyph-name="kcommaaccent.ss01" horiz-adv-x="425" 
d="M357 0l-251 243v-243h-36v700h36v-446l228 208h58l-239 -213l262 -249h-58zM253 -128l-55 -72h-25l40 66q-18 2 -28.5 14.5t-10.5 30.5q0 20 13.5 34t33.5 14t33.5 -13.5t13.5 -33.5q0 -21 -15 -40z" />
    <glyph glyph-name="lcaron.ss01" horiz-adv-x="233" 
d="M199 617q-19 2 -30.5 15t-11.5 33t14 34t34 14t34 -13.5t14 -33.5q0 -15 -10 -34l-61 -123h-27zM106 0h-36v700h36v-700z" />
    <glyph glyph-name="lcommaaccent.ss01" horiz-adv-x="176" 
d="M106 0h-36v700h36v-700zM122 -128l-55 -72h-25l40 66q-18 2 -28.5 14.5t-10.5 30.5q0 20 13.5 34t33.5 14t33.5 -13.5t13.5 -33.5q0 -21 -15 -40z" />
    <glyph glyph-name="ldot.ss01" horiz-adv-x="256" 
d="M106 0h-36v700h36v-700zM232 463q14 -14 14 -36t-14 -36t-36 -14t-36 14t-14 36t14 36t36 14t36 -14z" />
    <glyph glyph-name="napostrophe.ss01" horiz-adv-x="544" 
d="M430.5 427q48.5 -50 48.5 -150v-277h-36v277q0 82 -40.5 123t-107.5 41q-78 0 -130.5 -56.5t-52.5 -182.5v-202h-36v462h35v-116h2q23 65 70 98t114 33q85 0 133.5 -50zM89 699.5q14 -13.5 14 -33.5q0 -13 -10 -34l-61 -130h-27l44 115q-19 2 -30.5 15t-11.5 33t14 34
t34 14t34 -13.5z" />
    <glyph glyph-name="ncommaaccent.ss01" horiz-adv-x="538" 
d="M424.5 427q48.5 -50 48.5 -150v-277h-36v277q0 82 -40.5 123t-107.5 41q-78 0 -130.5 -56.5t-52.5 -182.5v-202h-36v462h35v-116h2q23 65 70 98t114 33q85 0 133.5 -50zM318 -128l-55 -72h-25l40 66q-18 2 -28.5 14.5t-10.5 30.5q0 20 13.5 34t33.5 14t33.5 -13.5
t13.5 -33.5q0 -21 -15 -40z" />
    <glyph glyph-name="odieresis.ss01" horiz-adv-x="562" 
d="M408 446q56 -31 87.5 -87t31.5 -128t-31.5 -128t-87.5 -87t-127 -31t-127 31t-87.5 87t-31.5 128t31.5 128t87.5 87t127 31t127 -31zM175.5 414.5q-47.5 -26.5 -75 -74t-27.5 -109.5t27.5 -109.5t75 -74t105.5 -26.5t105.5 26.5t75 74t27.5 109.5t-27.5 109.5t-75 74
t-105.5 26.5t-105.5 -26.5zM218 688q12 -12 12 -31t-12 -31t-31 -12t-31 12t-12 31t12 31t31 12t31 -12zM406 688q12 -12 12 -31t-12 -31t-31 -12t-31 12t-12 31t12 31t31 12t31 -12z" />
    <glyph glyph-name="rcommaaccent.ss01" horiz-adv-x="300" 
d="M280 436h-14q-73 0 -116.5 -56t-43.5 -146v-234h-36v462h36v-107h2q11 52 53 86.5t100 34.5h19v-40zM122 -128l-55 -72h-25l40 66q-18 2 -28.5 14.5t-10.5 30.5q0 20 13.5 34t33.5 14t33.5 -13.5t13.5 -33.5q0 -21 -15 -40z" />
    <glyph glyph-name="scommaaccent.ss01" horiz-adv-x="411" 
d="M114.5 1.5q-50.5 16.5 -89.5 45.5l21 31q39 -28 84.5 -42.5t91.5 -14.5q61 0 91 24t30 61q0 32 -22 53.5t-61 38.5l-88 40q-51 23 -77.5 52.5t-26.5 72.5q0 55 41 84.5t110 29.5q78 0 150 -37l-18 -34q-67 35 -132 35q-51 0 -82 -19.5t-31 -57.5q0 -31 21 -52t64 -40
l82 -37q52 -24 80 -52.5t28 -76.5q0 -59 -43 -90t-118 -31q-55 0 -105.5 16.5zM240 -128l-55 -72h-25l40 66q-18 2 -28.5 14.5t-10.5 30.5q0 20 13.5 34t33.5 14t33.5 -13.5t13.5 -33.5q0 -21 -15 -40z" />
    <glyph glyph-name="tcaron.ss01" horiz-adv-x="351" 
d="M317 699.5q14 -13.5 14 -33.5q0 -15 -10 -34l-61 -123h-27l44 108q-19 2 -30.5 15t-11.5 33t14 34t34 14t34 -13.5zM160 462h113v-34h-113v-315q0 -38 19 -58.5t52 -20.5h26v-36h-29q-47 0 -75.5 27.5t-28.5 80.5v322h-99v34h99v185h36v-185z" />
    <glyph glyph-name="uni021B.ss01" horiz-adv-x="303" 
d="M160 428v-315q0 -38 19 -58.5t52 -20.5h26v-36h-29q-47 0 -75.5 27.5t-28.5 80.5v322h-99v34h99v185h36v-185h113v-34h-113zM239 -131l-55 -72h-25l40 66q-18 2 -28.5 14.5t-10.5 30.5q0 20 13.5 34t33.5 14t33.5 -13.5t13.5 -33.5q0 -21 -15 -40z" />
    <glyph glyph-name="udieresis.ss01" horiz-adv-x="526" 
d="M112.5 34q-47.5 49 -47.5 150v278h36v-282q0 -82 39 -120.5t104 -38.5q78 0 127 58.5t49 190.5v192h36v-462h-35v108h-2q-20 -53 -63.5 -88t-115.5 -35q-80 0 -127.5 49zM198 688q12 -12 12 -31t-12 -31t-31 -12t-31 12t-12 31t12 31t31 12t31 -12zM386 688
q12 -12 12 -31t-12 -31t-31 -12t-31 12t-12 31t12 31t31 12t31 -12z" />
    <glyph glyph-name="wdieresis.ss01" horiz-adv-x="716" 
d="M706 462l-158 -462h-38l-152 419l-152 -419h-38l-158 462h40l137 -419l149 419h44l149 -419l137 419h40zM295 688q12 -12 12 -31t-12 -31t-31 -12t-31 12t-12 31t12 31t31 12t31 -12zM483 688q12 -12 12 -31t-12 -31t-31 -12t-31 12t-12 31t12 31t31 12t31 -12z" />
    <glyph glyph-name="ydieresis.ss01" horiz-adv-x="443" 
d="M433 462l-321 -662h-40l128 256l-190 406h42l166 -369l173 369h42zM159 688q12 -12 12 -31t-12 -31t-31 -12t-31 12t-12 31t12 31t31 12t31 -12zM347 688q12 -12 12 -31t-12 -31t-31 -12t-31 12t-12 31t12 31t31 12t31 -12z" />
    <glyph glyph-name="zdotaccent.ss01" horiz-adv-x="447" 
d="M417 36v-36h-387v34l317 393h-294v35h342v-33l-318 -393h340zM275 686q14 -14 14 -34t-14 -34t-34 -14t-34 14t-14 34t14 34t34 14t34 -14z" />
    <glyph glyph-name="fi.ss01" horiz-adv-x="484" 
d="M195.5 646.5q-29.5 -27.5 -29.5 -92.5v-92h122v-34h-122v-428h-36v428h-100v34h100v94q0 154 145 154h13v-36h-10q-53 0 -82.5 -27.5zM383 462h36v-462h-36v462zM435 686q14 -14 14 -34t-14 -34t-34 -14t-34 14t-14 34t14 34t34 14t34 -14z" />
    <glyph glyph-name="f_f_i.ss01" horiz-adv-x="802" 
d="M195.5 646.5q-29.5 -27.5 -29.5 -92.5v-92h122v-34h-122v-428h-36v428h-100v34h100v94q0 154 145 154h13v-36h-10q-53 0 -82.5 -27.5zM513.5 646.5q-29.5 -27.5 -29.5 -92.5v-92h122v-34h-122v-428h-36v428h-100v34h100v94q0 154 145 154h13v-36h-10q-53 0 -82.5 -27.5z
M701 462h36v-462h-36v462zM753 686q14 -14 14 -34t-14 -34t-34 -14t-34 14t-14 34t14 34t34 14t34 -14z" />
    <glyph glyph-name="periodcentered.ss01" horiz-adv-x="210" 
d="M141 463q14 -14 14 -36t-14 -36t-36 -14t-36 14t-14 36t14 36t36 14t36 -14z" />
    <glyph glyph-name="colon.ss01" horiz-adv-x="190" 
d="M131 79q14 -14 14 -36t-14 -36t-36 -14t-36 14t-14 36t14 36t36 14t36 -14zM131 463q14 -14 14 -36t-14 -36t-36 -14t-36 14t-14 36t14 36t36 14t36 -14z" />
    <glyph glyph-name="comma.ss01" horiz-adv-x="190" 
d="M135 9l-69 -139h-27l46 123q-18 3 -29 16.5t-11 32.5q0 22 14 36t36 14t36 -14t14 -35q0 -15 -10 -34z" />
    <glyph glyph-name="ellipsis.ss01" horiz-adv-x="662" 
d="M131 79q14 -14 14 -36t-14 -36t-36 -14t-36 14t-14 36t14 36t36 14t36 -14zM603 79q14 -14 14 -36t-14 -36t-36 -14t-36 14t-14 36t14 36t36 14t36 -14zM367 79q14 -14 14 -36t-14 -36t-36 -14t-36 14t-14 36t14 36t36 14t36 -14z" />
    <glyph glyph-name="exclam.ss01" horiz-adv-x="280" 
d="M153 197h-26l-8 503h42zM176 79q14 -14 14 -36t-14 -36t-36 -14t-36 14t-14 36t14 36t36 14t36 -14z" />
    <glyph glyph-name="exclamdown.ss01" horiz-adv-x="280" 
d="M104 420q-14 14 -14 36t14 36t36 14t36 -14t14 -36t-14 -36t-36 -14t-36 14zM127 302h26l8 -503h-42z" />
    <glyph glyph-name="period.ss01" horiz-adv-x="190" 
d="M131 79q14 -14 14 -36t-14 -36t-36 -14t-36 14t-14 36t14 36t36 14t36 -14z" />
    <glyph glyph-name="question.ss01" horiz-adv-x="457" 
d="M365.5 668q51.5 -47 51.5 -124q0 -51 -22 -88t-62 -75q-38 -36 -56 -54.5t-32 -44.5t-14 -55v-30h-40v30q0 36 15 66t37.5 55t61.5 62q33 31 51.5 64t18.5 72q0 56 -38.5 93.5t-111.5 37.5q-74 0 -114.5 -41t-40.5 -111h-40q0 90 52 140t143 50q89 0 140.5 -47zM245 79
q14 -14 14 -36t-14 -36t-36 -14t-36 14t-14 36t14 36t36 14t36 -14z" />
    <glyph glyph-name="questiondown.ss01" horiz-adv-x="397" 
d="M192 420q-14 14 -14 36t14 36t36 14t36 -14t14 -36t-14 -36t-36 -14t-36 14zM71.5 -169q-51.5 47 -51.5 124q0 51 22 88t62 75q38 36 56 54.5t32 44.5t14 55v30h40v-30q0 -36 -15 -66t-37.5 -55t-61.5 -62q-33 -31 -51.5 -64t-18.5 -72q0 -56 38.5 -93.5t111.5 -37.5
q74 0 114.5 41t40.5 111h40q0 -90 -52 -140t-143 -50q-89 0 -140.5 47z" />
    <glyph glyph-name="semicolon.ss01" horiz-adv-x="190" 
d="M135 9l-69 -139h-27l46 123q-18 3 -29 16.5t-11 32.5q0 22 14 36t36 14t36 -14t14 -35q0 -15 -10 -34zM131 463q14 -14 14 -36t-14 -36t-36 -14t-36 14t-14 36t14 36t36 14t36 -14z" />
    <glyph glyph-name="quotedblbase.ss01" horiz-adv-x="259" 
d="M105 73.5q14 -13.5 14 -33.5q0 -13 -10 -34l-61 -130h-27l44 115q-19 2 -30.5 15t-11.5 33t14 34t34 14t34 -13.5zM223 73.5q14 -13.5 14 -33.5q0 -13 -10 -34l-61 -130h-27l44 115q-19 2 -30.5 15t-11.5 33t14 34t34 14t34 -13.5z" />
    <glyph glyph-name="quotedblleft.ss01" horiz-adv-x="259" 
d="M35 537.5q-14 13.5 -14 33.5q0 13 10 34l61 130h27l-44 -115q19 -2 30.5 -15t11.5 -33t-14 -34t-34 -14t-34 13.5zM153 537.5q-14 13.5 -14 33.5q0 13 10 34l61 130h27l-44 -115q19 -2 30.5 -15t11.5 -33t-14 -34t-34 -14t-34 13.5z" />
    <glyph glyph-name="quotedblright.ss01" horiz-adv-x="259" 
d="M105 701.5q14 -13.5 14 -33.5q0 -13 -10 -34l-61 -130h-27l44 115q-19 2 -30.5 15t-11.5 33t14 34t34 14t34 -13.5zM223 701.5q14 -13.5 14 -33.5q0 -13 -10 -34l-61 -130h-27l44 115q-19 2 -30.5 15t-11.5 33t14 34t34 14t34 -13.5z" />
    <glyph glyph-name="quoteleft.ss01" horiz-adv-x="153" 
d="M41 537.5q-14 13.5 -14 33.5q0 13 10 34l61 130h27l-44 -115q19 -2 30.5 -15t11.5 -33t-14 -34t-34 -14t-34 13.5z" />
    <glyph glyph-name="quoteright.ss01" horiz-adv-x="153" 
d="M111 699.5q14 -13.5 14 -33.5q0 -13 -10 -34l-61 -130h-27l44 115q-19 2 -30.5 15t-11.5 33t14 34t34 14t34 -13.5z" />
    <glyph glyph-name="quotesinglbase.ss01" horiz-adv-x="153" 
d="M111 73.5q14 -13.5 14 -33.5q0 -13 -10 -34l-61 -130h-27l44 115q-19 2 -30.5 15t-11.5 33t14 34t34 14t34 -13.5z" />
    <glyph glyph-name="divide.ss01" 
d="M272 408q-11 11 -11 28t11 28t28 11t28 -11t11 -28t-11 -28t-28 -11t-28 11zM41 312h518v-28h-518v28zM272 132q-11 11 -11 28t11 28t28 11t28 -11t11 -28t-11 -28t-28 -11t-28 11z" />
    <glyph glyph-name="uni02BC.ss01" horiz-adv-x="153" 
d="M111 699.5q14 -13.5 14 -33.5q0 -13 -10 -34l-61 -130h-27l44 115q-19 2 -30.5 15t-11.5 33t14 34t34 14t34 -13.5z" />
    <glyph glyph-name="dot.ss01" horiz-adv-x="200" 
d="M136 79q14 -14 14 -36t-14 -36t-36 -14t-36 14t-14 36t14 36t36 14t36 -14z" />
    <glyph glyph-name="Adieresis.ss02" horiz-adv-x="632" 
d="M223 645h-52v95h52v-95zM461 645h-52v95h52v-95zM497 204h-362l-83 -204h-42l285 700h42l285 -700h-42zM481 242l-165 406l-165 -406h330z" />
    <glyph glyph-name="Idieresis.ss02" horiz-adv-x="200" 
d="M37 645h-52v95h52v-95zM215 645h-52v95h52v-95zM120 0h-40v700h40v-700z" />
    <glyph glyph-name="Odieresis.ss02" horiz-adv-x="810" 
d="M132 645h-52v95h52v-95zM730 645h-52v95h52v-95zM591.5 668.5q83.5 -46.5 131 -129.5t47.5 -189t-47.5 -189t-131 -129.5t-186.5 -46.5t-186.5 46.5t-131 129.5t-47.5 189t47.5 189t131 129.5t186.5 46.5t186.5 -46.5zM238.5 633.5q-73.5 -41.5 -115 -115.5t-41.5 -168
t41.5 -168t115 -115.5t166.5 -41.5t166.5 41.5t115 115.5t41.5 168t-41.5 168t-115 115.5t-166.5 41.5t-166.5 -41.5z" />
    <glyph glyph-name="Udieresis.ss02" horiz-adv-x="698" 
d="M296 645h-52v95h52v-95zM454 645h-52v95h52v-95zM618 253q0 -79 -30.5 -139.5t-91.5 -94.5t-147 -34t-147 34t-91.5 94.5t-30.5 139.5v447h43v-437q0 -112 60.5 -174.5t165.5 -62.5t165.5 62.5t60.5 174.5v437h43v-447z" />
    <glyph glyph-name="Wdieresis.ss02" horiz-adv-x="956" 
d="M375 645h-52v95h52v-95zM633 645h-52v95h52v-95zM726 0h-42l-205 636h-2l-205 -636h-42l-215 700h46l188 -634h2l203 634h48l203 -634h2l188 634h46z" />
    <glyph glyph-name="Ydieresis.ss02" horiz-adv-x="522" 
d="M219 645h-52v95h52v-95zM355 645h-52v95h52v-95zM281 266v-266h-40v266l-231 434h48l202 -389h2l202 389h48z" />
    <glyph glyph-name="Adieresis.ss01.ss02" horiz-adv-x="632" 
d="M160 665q-14 14 -14 34t14 34t34 14t34 -14t14 -34t-14 -34t-34 -14t-34 14zM404 665q-14 14 -14 34t14 34t34 14t34 -14t14 -34t-14 -34t-34 -14t-34 14zM497 204h-362l-83 -204h-42l285 700h42l285 -700h-42zM481 242l-165 406l-165 -406h330z" />
    <glyph glyph-name="Idieresis.ss01.ss02" horiz-adv-x="200" 
d="M18 733q14 -14 14 -34t-14 -34t-34 -14t-34 14t-14 34t14 34t34 14t34 -14zM250 733q14 -14 14 -34t-14 -34t-34 -14t-34 14t-14 34t14 34t34 14t34 -14zM120 0h-40v700h40v-700z" />
    <glyph glyph-name="Odieresis.ss01.ss02" horiz-adv-x="810" 
d="M143 733q14 -14 14 -34t-14 -34t-34 -14t-34 14t-14 34t14 34t34 14t34 -14zM735 733q14 -14 14 -34t-14 -34t-34 -14t-34 14t-14 34t14 34t34 14t34 -14zM591.5 668.5q83.5 -46.5 131 -129.5t47.5 -189t-47.5 -189t-131 -129.5t-186.5 -46.5t-186.5 46.5t-131 129.5
t-47.5 189t47.5 189t131 129.5t186.5 46.5t186.5 -46.5zM238.5 633.5q-73.5 -41.5 -115 -115.5t-41.5 -168t41.5 -168t115 -115.5t166.5 -41.5t166.5 41.5t115 115.5t41.5 168t-41.5 168t-115 115.5t-166.5 41.5t-166.5 -41.5z" />
    <glyph glyph-name="Udieresis.ss01.ss02" horiz-adv-x="698" 
d="M287 733q14 -14 14 -34t-14 -34t-34 -14t-34 14t-14 34t14 34t34 14t34 -14zM479 733q14 -14 14 -34t-14 -34t-34 -14t-34 14t-14 34t14 34t34 14t34 -14zM618 253q0 -79 -30.5 -139.5t-91.5 -94.5t-147 -34t-147 34t-91.5 94.5t-30.5 139.5v447h43v-437
q0 -112 60.5 -174.5t165.5 -62.5t165.5 62.5t60.5 174.5v437h43v-447z" />
    <glyph glyph-name="Wdieresis.ss01.ss02" horiz-adv-x="956" 
d="M366 733q14 -14 14 -34t-14 -34t-34 -14t-34 14t-14 34t14 34t34 14t34 -14zM658 733q14 -14 14 -34t-14 -34t-34 -14t-34 14t-14 34t14 34t34 14t34 -14zM726 0h-42l-205 636h-2l-205 -636h-42l-215 700h46l188 -634h2l203 634h48l203 -634h2l188 634h46z" />
    <glyph glyph-name="Ydieresis.ss01.ss02" horiz-adv-x="522" 
d="M153 665q-14 14 -14 34t14 34t34 14t34 -14t14 -34t-14 -34t-34 -14t-34 14zM301 665q-14 14 -14 34t14 34t34 14t34 -14t14 -34t-14 -34t-34 -14t-34 14zM281 266v-266h-40v266l-231 434h48l202 -389h2l202 389h48z" />
    <glyph glyph-name="germandbls.ss03" horiz-adv-x="474" 
d="M400.5 207q38.5 -39 38.5 -110q0 -77 -58 -152t-167 -160l-24 29q107 83 159 152t52 128q0 60 -37 94t-101 51l-19 5l120 184h-258v-428h-36v556q0 80 39.5 117t105.5 37h13v-36h-10q-53 0 -82.5 -27.5t-29.5 -92.5v-121l21 29h300l-129 -196q64 -20 102.5 -59z" />
    <glyph glyph-name="a.subs" horiz-adv-x="395" 
d="M78.5 -75q-43.5 45 -43.5 118t43.5 118t110.5 45q42 0 75.5 -18.5t50.5 -52.5h2v61h33v-306h-33v61h-2q-17 -34 -50.5 -52.5t-75.5 -18.5q-67 0 -110.5 45zM282.5 -49.5q36.5 36.5 36.5 92.5t-36.5 92.5t-91.5 36.5q-54 0 -87 -36t-33 -93t33 -93t87 -36q55 0 91.5 36.5z
" />
    <glyph glyph-name="b.subs" horiz-adv-x="400" 
d="M135.5 -101.5q-33.5 18.5 -50.5 52.5h-2v-61h-33v462h33v-217h2q17 34 50.5 52.5t75.5 18.5q67 0 110.5 -45t43.5 -118t-43.5 -118t-110.5 -45q-42 0 -75.5 18.5zM296 -50q33 36 33 93t-33 93t-87 36q-55 0 -91.5 -36.5t-36.5 -92.5t36.5 -92.5t91.5 -36.5q54 0 87 36z
" />
    <glyph glyph-name="c.subs" horiz-adv-x="333" 
d="M256 199q25 -7 52 -24l-19 -29q-41 26 -88 26q-58 0 -94 -35.5t-36 -93.5t36 -93.5t94 -35.5q47 0 88 26l19 -29q-27 -17 -52 -24t-53 -7q-49 0 -87.5 21.5t-59.5 58.5t-21 83t21 83t59.5 58.5t87.5 21.5q28 0 53 -7z" />
    <glyph glyph-name="d.subs" horiz-adv-x="400" 
d="M78.5 -75q-43.5 45 -43.5 118t43.5 118t110.5 45q42 0 75.5 -18.5t50.5 -52.5h2v217h33v-462h-33v61h-2q-17 -34 -50.5 -52.5t-75.5 -18.5q-67 0 -110.5 45zM282.5 -49.5q36.5 36.5 36.5 92.5t-36.5 92.5t-91.5 36.5q-54 0 -87 -36t-33 -93t33 -93t87 -36q55 0 91.5 36.5
z" />
    <glyph glyph-name="e.subs" horiz-adv-x="375" 
d="M301.5 158.5q38.5 -46.5 38.5 -111.5v-7h-269q2 -60 35.5 -93t86.5 -33q43 0 69 19.5t47 48.5l27 -21q-24 -37 -57 -59t-86 -22q-72 0 -115 44.5t-43 117.5q0 71 42.5 117t113.5 46q72 0 110.5 -46.5zM113 145.5q-32 -25.5 -39 -75.5h225q-5 47 -33.5 74t-75.5 27
q-45 0 -77 -25.5z" />
    <glyph glyph-name="f.subs" horiz-adv-x="222" 
d="M120 253v-57h81v-30h-81v-276h-33v276h-67v30h67v58q0 50 27.5 77.5t74.5 27.5h13v-33h-12q-70 0 -70 -73z" />
    <glyph glyph-name="g.subs" horiz-adv-x="395" 
d="M81 -234l7 35q75 -16 126 -16q56 0 79.5 26.5t23.5 88.5v51h-2q-17 -34 -50.5 -52.5t-75.5 -18.5q-67 0 -110.5 45t-43.5 118t43.5 118t110.5 45q42 0 75.5 -18.5t50.5 -52.5h2v61h33v-306q-3 -83 -39.5 -111t-97.5 -28q-59 0 -132 15zM282.5 -49.5q36.5 36.5 36.5 92.5
t-36.5 92.5t-91.5 36.5q-54 0 -87 -36t-33 -93t33 -93t87 -36q55 0 91.5 36.5z" />
    <glyph glyph-name="h.subs" horiz-adv-x="359" 
d="M83 132h2q12 33 41 53.5t70 20.5q51 0 84.5 -33t33.5 -98v-185h-33v186q0 48 -25 71.5t-66 23.5q-47 0 -77 -32.5t-30 -105.5v-143h-33v462h33v-220z" />
    <glyph glyph-name="i.subs" horiz-adv-x="158" 
d="M100 270h-42v82h42v-82zM96 -110h-34v306h34v-306z" />
    <glyph glyph-name="j.subs" horiz-adv-x="155" 
d="M98 270h-42v82h42v-82zM94 -168q0 -38 -20.5 -57t-55.5 -19h-18v31h14q25 0 35.5 12.5t10.5 39.5v357h34v-364z" />
    <glyph glyph-name="k.subs" horiz-adv-x="301" 
d="M83 58l140 138h51l-151 -141l163 -165h-49l-154 158v-158h-33v462h33v-294z" />
    <glyph glyph-name="l.subs" horiz-adv-x="133" 
d="M83 -110h-33v462h33v-462z" />
    <glyph glyph-name="m.subs" horiz-adv-x="528" 
d="M454 174q29 -32 29 -94v-190h-33v191q0 44 -20.5 67t-59.5 23q-89 0 -89 -121v-160h-33v182q0 50 -21 74.5t-59 24.5q-90 0 -90 -129v-152h-33v306h33v-54h2q11 31 35.5 47.5t59.5 16.5t58.5 -17t38.5 -55h2q12 36 38.5 54t62.5 18q50 0 79 -32z" />
    <glyph glyph-name="n.subs" horiz-adv-x="354" 
d="M275.5 173q33.5 -33 33.5 -98v-185h-33v186q0 48 -25 71.5t-66 23.5q-47 0 -77 -32.5t-30 -105.5v-143h-33v306h33v-64h2q12 33 41 53.5t70 20.5q51 0 84.5 -33z" />
    <glyph glyph-name="o.subs" horiz-adv-x="402" 
d="M320 161q47 -45 47 -118t-47 -118t-119 -45t-119 45t-47 118t47 118t119 45t119 -45zM108 137q-37 -35 -37 -94t37 -94t93 -35t93 35t37 94t-37 94t-93 35t-93 -35z" />
    <glyph glyph-name="p.subs" horiz-adv-x="395" 
d="M45 196h33v-61h2q17 34 50.5 52.5t75.5 18.5q67 0 110.5 -45t43.5 -118t-43.5 -118t-110.5 -45q-42 0 -75.5 18.5t-50.5 52.5h-2v-193h-33v438zM291 -50q33 36 33 93t-33 93t-87 36q-55 0 -91.5 -36.5t-36.5 -92.5t36.5 -92.5t91.5 -36.5q54 0 87 36z" />
    <glyph glyph-name="q.subs" horiz-adv-x="395" 
d="M317 -49h-2q-17 -34 -50.5 -52.5t-75.5 -18.5q-67 0 -110.5 45t-43.5 118t43.5 118t110.5 45q42 0 75.5 -18.5t50.5 -52.5h2v61h33v-438h-33v193zM282.5 -49.5q36.5 36.5 36.5 92.5t-36.5 92.5t-91.5 36.5q-54 0 -87 -36t-33 -93t33 -93t87 -36q55 0 91.5 36.5z" />
    <glyph glyph-name="r.subs" horiz-adv-x="205" 
d="M190 162h-10q-102 0 -102 -127v-145h-33v306h33v-70h2q8 33 35 55t66 22h9v-41z" />
    <glyph glyph-name="s.subs" horiz-adv-x="290" 
d="M253 179l-18 -31q-45 24 -83 24q-28 0 -43.5 -10.5t-15.5 -31.5q0 -17 11.5 -28.5t40.5 -27.5l53 -29q31 -16 46.5 -35.5t15.5 -47.5q0 -39 -29.5 -60.5t-80.5 -21.5q-63 0 -120 34l17 31q26 -15 51 -23t55 -8q35 0 53 12t18 35q0 18 -10.5 29t-35.5 24l-60 33
q-32 18 -46.5 37.5t-14.5 44.5q0 37 27.5 57t70.5 20q47 0 98 -27z" />
    <glyph glyph-name="t.subs" horiz-adv-x="214" 
d="M114 166v-203q0 -42 42 -42h17v-32h-20q-35 0 -53.5 17.5t-18.5 51.5v208h-61v30h61v121h33v-121h70v-30h-70z" />
    <glyph glyph-name="u.subs" horiz-adv-x="356" 
d="M306 -110h-33v54h-2q-10 -26 -37.5 -45t-70.5 -19q-54 0 -86 32t-32 99v185h34v-186q0 -47 24.5 -71.5t63.5 -24.5q49 0 77.5 33.5t28.5 109.5v139h33v-306z" />
    <glyph glyph-name="v.subs" horiz-adv-x="314" 
d="M176 -110h-38l-123 306h41l101 -271l101 271h41z" />
    <glyph glyph-name="w.subs" horiz-adv-x="489" 
d="M373 -110h-38l-91 266l-90 -266h-38l-101 306h39l81 -265l88 265h43l88 -265l81 265h39z" />
    <glyph glyph-name="x.subs" horiz-adv-x="319" 
d="M160 25l-103 -135h-42l121 161l-108 145h42l90 -118l89 118h42l-108 -145l121 -161h-42z" />
    <glyph glyph-name="y.subs" horiz-adv-x="309" 
d="M294 196l-189 -438h-37l71 166l-124 272h41l100 -232l100 232h38z" />
    <glyph glyph-name="z.subs" horiz-adv-x="305" 
d="M269 162l-200 -238h211v-34h-255v34l200 238h-190v34h234v-34z" />
    <glyph glyph-name="t_z" horiz-adv-x="579" 
d="M505.5 207q38.5 -39 38.5 -110q0 -77 -58 -152t-167 -160l-24 29q107 83 159 152t52 128q0 60 -37 94t-101 51l-19 5l120 184h-309v-315q0 -38 19 -58.5t52 -20.5h26v-36h-29q-47 0 -75.5 27.5t-28.5 80.5v322h-99v34h99v185h36v-185h372l-129 -196q64 -20 102.5 -59z
" />
    <glyph glyph-name="a.sups" horiz-adv-x="395" 
d="M78.5 383q-43.5 45 -43.5 118t43.5 118t110.5 45q42 0 75.5 -18.5t50.5 -52.5h2v61h33v-306h-33v61h-2q-17 -34 -50.5 -52.5t-75.5 -18.5q-67 0 -110.5 45zM282.5 408.5q36.5 36.5 36.5 92.5t-36.5 92.5t-91.5 36.5q-54 0 -87 -36t-33 -93t33 -93t87 -36q55 0 91.5 36.5z
" />
    <glyph glyph-name="b.sups" horiz-adv-x="400" 
d="M135.5 356.5q-33.5 18.5 -50.5 52.5h-2v-61h-33v462h33v-217h2q17 34 50.5 52.5t75.5 18.5q67 0 110.5 -45t43.5 -118t-43.5 -118t-110.5 -45q-42 0 -75.5 18.5zM296 408q33 36 33 93t-33 93t-87 36q-55 0 -91.5 -36.5t-36.5 -92.5t36.5 -92.5t91.5 -36.5q54 0 87 36z
" />
    <glyph glyph-name="c.sups" horiz-adv-x="333" 
d="M256 657q25 -7 52 -24l-19 -29q-41 26 -88 26q-58 0 -94 -35.5t-36 -93.5t36 -93.5t94 -35.5q47 0 88 26l19 -29q-27 -17 -52 -24t-53 -7q-49 0 -87.5 21.5t-59.5 58.5t-21 83t21 83t59.5 58.5t87.5 21.5q28 0 53 -7z" />
    <glyph glyph-name="d.sups" horiz-adv-x="400" 
d="M78.5 383q-43.5 45 -43.5 118t43.5 118t110.5 45q42 0 75.5 -18.5t50.5 -52.5h2v217h33v-462h-33v61h-2q-17 -34 -50.5 -52.5t-75.5 -18.5q-67 0 -110.5 45zM282.5 408.5q36.5 36.5 36.5 92.5t-36.5 92.5t-91.5 36.5q-54 0 -87 -36t-33 -93t33 -93t87 -36q55 0 91.5 36.5
z" />
    <glyph glyph-name="e.sups" horiz-adv-x="375" 
d="M301.5 616.5q38.5 -46.5 38.5 -111.5v-7h-269q2 -60 35.5 -93t86.5 -33q43 0 69 19.5t47 48.5l27 -21q-24 -37 -57 -59t-86 -22q-72 0 -115 44.5t-43 117.5q0 71 42.5 117t113.5 46q72 0 110.5 -46.5zM113 603.5q-32 -25.5 -39 -75.5h225q-5 47 -33.5 74t-75.5 27
q-45 0 -77 -25.5z" />
    <glyph glyph-name="f.sups" horiz-adv-x="222" 
d="M120 711v-57h81v-30h-81v-276h-33v276h-67v30h67v58q0 50 27.5 77.5t74.5 27.5h13v-33h-12q-70 0 -70 -73z" />
    <glyph glyph-name="g.sups" horiz-adv-x="395" 
d="M81 224l7 35q75 -16 126 -16q56 0 79.5 26.5t23.5 88.5v51h-2q-17 -34 -50.5 -52.5t-75.5 -18.5q-67 0 -110.5 45t-43.5 118t43.5 118t110.5 45q42 0 75.5 -18.5t50.5 -52.5h2v61h33v-306q-3 -83 -39.5 -111t-97.5 -28q-59 0 -132 15zM282.5 408.5q36.5 36.5 36.5 92.5
t-36.5 92.5t-91.5 36.5q-54 0 -87 -36t-33 -93t33 -93t87 -36q55 0 91.5 36.5z" />
    <glyph glyph-name="h.sups" horiz-adv-x="359" 
d="M83 590h2q12 33 41 53.5t70 20.5q51 0 84.5 -33t33.5 -98v-185h-33v186q0 48 -25 71.5t-66 23.5q-47 0 -77 -32.5t-30 -105.5v-143h-33v462h33v-220z" />
    <glyph glyph-name="i.sups" horiz-adv-x="158" 
d="M100 728h-42v82h42v-82zM96 348h-34v306h34v-306z" />
    <glyph glyph-name="j.sups" horiz-adv-x="155" 
d="M98 728h-42v82h42v-82zM94 290q0 -38 -20.5 -57t-55.5 -19h-18v31h14q25 0 35.5 12.5t10.5 39.5v357h34v-364z" />
    <glyph glyph-name="k.sups" horiz-adv-x="301" 
d="M83 516l140 138h51l-151 -141l163 -165h-49l-154 158v-158h-33v462h33v-294z" />
    <glyph glyph-name="l.sups" horiz-adv-x="133" 
d="M83 348h-33v462h33v-462z" />
    <glyph glyph-name="m.sups" horiz-adv-x="528" 
d="M454 632q29 -32 29 -94v-190h-33v191q0 44 -20.5 67t-59.5 23q-89 0 -89 -121v-160h-33v182q0 50 -21 74.5t-59 24.5q-90 0 -90 -129v-152h-33v306h33v-54h2q11 31 35.5 47.5t59.5 16.5t58.5 -17t38.5 -55h2q12 36 38.5 54t62.5 18q50 0 79 -32z" />
    <glyph glyph-name="n.sups" horiz-adv-x="354" 
d="M275.5 631q33.5 -33 33.5 -98v-185h-33v186q0 48 -25 71.5t-66 23.5q-47 0 -77 -32.5t-30 -105.5v-143h-33v306h33v-64h2q12 33 41 53.5t70 20.5q51 0 84.5 -33z" />
    <glyph glyph-name="o.sups" horiz-adv-x="402" 
d="M320 619q47 -45 47 -118t-47 -118t-119 -45t-119 45t-47 118t47 118t119 45t119 -45zM108 595q-37 -35 -37 -94t37 -94t93 -35t93 35t37 94t-37 94t-93 35t-93 -35z" />
    <glyph glyph-name="p.sups" horiz-adv-x="395" 
d="M45 654h33v-61h2q17 34 50.5 52.5t75.5 18.5q67 0 110.5 -45t43.5 -118t-43.5 -118t-110.5 -45q-42 0 -75.5 18.5t-50.5 52.5h-2v-193h-33v438zM291 408q33 36 33 93t-33 93t-87 36q-55 0 -91.5 -36.5t-36.5 -92.5t36.5 -92.5t91.5 -36.5q54 0 87 36z" />
    <glyph glyph-name="q.sups" horiz-adv-x="395" 
d="M317 409h-2q-17 -34 -50.5 -52.5t-75.5 -18.5q-67 0 -110.5 45t-43.5 118t43.5 118t110.5 45q42 0 75.5 -18.5t50.5 -52.5h2v61h33v-438h-33v193zM282.5 408.5q36.5 36.5 36.5 92.5t-36.5 92.5t-91.5 36.5q-54 0 -87 -36t-33 -93t33 -93t87 -36q55 0 91.5 36.5z" />
    <glyph glyph-name="r.sups" horiz-adv-x="205" 
d="M190 620h-10q-102 0 -102 -127v-145h-33v306h33v-70h2q8 33 35 55t66 22h9v-41z" />
    <glyph glyph-name="s.sups" horiz-adv-x="290" 
d="M253 637l-18 -31q-45 24 -83 24q-28 0 -43.5 -10.5t-15.5 -31.5q0 -17 11.5 -28.5t40.5 -27.5l53 -29q31 -16 46.5 -35.5t15.5 -47.5q0 -39 -29.5 -60.5t-80.5 -21.5q-63 0 -120 34l17 31q26 -15 51 -23t55 -8q35 0 53 12t18 35q0 18 -10.5 29t-35.5 24l-60 33
q-32 18 -46.5 37.5t-14.5 44.5q0 37 27.5 57t70.5 20q47 0 98 -27z" />
    <glyph glyph-name="t.sups" horiz-adv-x="214" 
d="M114 624v-203q0 -42 42 -42h17v-32h-20q-35 0 -53.5 17.5t-18.5 51.5v208h-61v30h61v121h33v-121h70v-30h-70z" />
    <glyph glyph-name="u.sups" horiz-adv-x="356" 
d="M306 348h-33v54h-2q-10 -26 -37.5 -45t-70.5 -19q-54 0 -86 32t-32 99v185h34v-186q0 -47 24.5 -71.5t63.5 -24.5q49 0 77.5 33.5t28.5 109.5v139h33v-306z" />
    <glyph glyph-name="v.sups" horiz-adv-x="314" 
d="M176 348h-38l-123 306h41l101 -271l101 271h41z" />
    <glyph glyph-name="w.sups" horiz-adv-x="489" 
d="M373 348h-38l-91 266l-90 -266h-38l-101 306h39l81 -265l88 265h43l88 -265l81 265h39z" />
    <glyph glyph-name="x.sups" horiz-adv-x="319" 
d="M160 483l-103 -135h-42l121 161l-108 145h42l90 -118l89 118h42l-108 -145l121 -161h-42z" />
    <glyph glyph-name="y.sups" horiz-adv-x="309" 
d="M294 654l-189 -438h-37l71 166l-124 272h41l100 -232l100 232h38z" />
    <glyph glyph-name="z.sups" horiz-adv-x="305" 
d="M269 620l-200 -238h211v-34h-255v34l200 238h-190v34h234v-34z" />
    <glyph glyph-name="zero.dnom" horiz-adv-x="360" 
d="M292 342.5q43 -53.5 43 -148.5t-43 -149t-112 -54q-70 0 -112.5 53.5t-42.5 149.5q0 95 42.5 148.5t112.5 53.5q69 0 112 -53.5zM91 317.5q-33 -47.5 -33 -123.5q0 -77 33 -124.5t89 -47.5t89 47.5t33 124.5q0 76 -33 123.5t-89 47.5t-89 -47.5z" />
    <glyph glyph-name="one.dnom" horiz-adv-x="193" 
d="M123 0h-32v353h-51v33h83v-386z" />
    <glyph glyph-name="two.dnom" horiz-adv-x="309" 
d="M242.5 367q28.5 -28 28.5 -73q0 -34 -17 -64.5t-46 -62.5l-126 -135h192v-32h-239v29l144 156q57 61 57 110q0 29 -20 49t-60 20q-37 0 -59 -20.5t-24 -56.5h-35q2 50 34 79t85 29q57 0 85.5 -28z" />
    <glyph glyph-name="three.dnom" horiz-adv-x="330" 
d="M246.5 369.5q31.5 -25.5 31.5 -71.5q0 -34 -21.5 -57.5t-58.5 -31.5v-1q42 -5 67 -31t25 -71q0 -51 -32.5 -83t-100.5 -32q-56 0 -90 27t-37 80h33q2 -38 29.5 -57t64.5 -19q46 0 73 20.5t27 63.5q0 48 -32 65.5t-89 17.5v31q109 4 109 75q0 69 -86 69q-40 0 -65 -17.5
t-26 -54.5h-33q2 50 34 76.5t91 26.5q55 0 86.5 -25.5z" />
    <glyph glyph-name="four.dnom" horiz-adv-x="342" 
d="M312 77h-44v-77h-32v77h-211v29l202 280h41v-280h44v-29zM236 106v238h-2l-173 -238h175z" />
    <glyph glyph-name="five.dnom" horiz-adv-x="327" 
d="M255 221q37 -32 37 -97q0 -61 -35.5 -97t-96.5 -36q-50 0 -83.5 22.5t-46.5 64.5l31 12q11 -31 36 -49t65 -18q47 0 72 27t25 73q0 50 -28 74t-68 24q-26 0 -49 -10t-35 -28h-30l23 203h188v-31h-161l-16 -135h2q11 15 33.5 24t48.5 9q51 0 88 -32z" />
    <glyph glyph-name="six.dnom" horiz-adv-x="335" 
d="M74 25.5q-39 34.5 -39 95.5q0 53 17.5 91t57.5 83l81 99h42l-151 -179l1 -2q35 40 91 40q58 0 94.5 -35.5t36.5 -95.5q0 -59 -38.5 -95t-95.5 -36q-58 0 -97 34.5zM245 48.5q27 26.5 27 73.5q0 46 -28 73t-72 27q-46 0 -74.5 -27t-28.5 -73q0 -47 28.5 -73.5t75.5 -26.5
q45 0 72 26.5z" />
    <glyph glyph-name="seven.dnom" horiz-adv-x="278" 
d="M258 356l-172 -356h-34l172 355h-204v31h238v-30z" />
    <glyph glyph-name="eight.dnom" horiz-adv-x="332" 
d="M72.5 22.5q-32.5 31.5 -32.5 79.5q0 44 22.5 69.5t55.5 34.5v2q-29 6 -48.5 27.5t-19.5 61.5q0 42 30.5 70t85.5 28t85.5 -28t30.5 -70q0 -40 -19.5 -61.5t-48.5 -27.5v-2q33 -9 55.5 -34.5t22.5 -69.5q0 -48 -32.5 -79.5t-93.5 -31.5t-93.5 31.5zM227 243q22 20 22 52
q0 31 -22.5 50t-60.5 19t-60.5 -19t-22.5 -50q0 -32 22 -52t61 -20t61 20zM234.5 44q24.5 22 24.5 60t-26 60.5t-67 22.5t-67 -22.5t-26 -60.5t24.5 -60t68.5 -22t68.5 22z" />
    <glyph glyph-name="nine.dnom" horiz-adv-x="324" 
d="M252 189l-1 1q-26 -25 -46.5 -35.5t-49.5 -10.5q-54 0 -89.5 34t-35.5 89q0 54 35 91t97 37q59 0 93 -35t34 -99q0 -36 -13 -72.5t-46 -77.5l-87 -111h-39zM230.5 200.5q25.5 25.5 25.5 70.5q0 44 -25 68.5t-69 24.5q-45 0 -72 -25.5t-27 -70.5q0 -43 26 -68t71 -25
t70.5 25.5z" />
    <glyph glyph-name="zero.numr" horiz-adv-x="360" 
d="M292 631.5q43 -53.5 43 -148.5t-43 -149t-112 -54q-70 0 -112.5 53.5t-42.5 149.5q0 95 42.5 148.5t112.5 53.5q69 0 112 -53.5zM91 606.5q-33 -47.5 -33 -123.5q0 -77 33 -124.5t89 -47.5t89 47.5t33 124.5q0 76 -33 123.5t-89 47.5t-89 -47.5z" />
    <glyph glyph-name="one.numr" horiz-adv-x="193" 
d="M123 289h-32v353h-51v33h83v-386z" />
    <glyph glyph-name="two.numr" horiz-adv-x="309" 
d="M242.5 656q28.5 -28 28.5 -73q0 -34 -17 -64.5t-46 -62.5l-126 -135h192v-32h-239v29l144 156q57 61 57 110q0 29 -20 49t-60 20q-37 0 -59 -20.5t-24 -56.5h-35q2 50 34 79t85 29q57 0 85.5 -28z" />
    <glyph glyph-name="three.numr" horiz-adv-x="330" 
d="M246.5 658.5q31.5 -25.5 31.5 -71.5q0 -34 -21.5 -57.5t-58.5 -31.5v-1q42 -5 67 -31t25 -71q0 -51 -32.5 -83t-100.5 -32q-56 0 -90 27t-37 80h33q2 -38 29.5 -57t64.5 -19q46 0 73 20.5t27 63.5q0 48 -32 65.5t-89 17.5v31q109 4 109 75q0 69 -86 69q-40 0 -65 -17.5
t-26 -54.5h-33q2 50 34 76.5t91 26.5q55 0 86.5 -25.5z" />
    <glyph glyph-name="four.numr" horiz-adv-x="342" 
d="M312 366h-44v-77h-32v77h-211v29l202 280h41v-280h44v-29zM236 395v238h-2l-173 -238h175z" />
    <glyph glyph-name="five.numr" horiz-adv-x="327" 
d="M255 510q37 -32 37 -97q0 -61 -35.5 -97t-96.5 -36q-50 0 -83.5 22.5t-46.5 64.5l31 12q11 -31 36 -49t65 -18q47 0 72 27t25 73q0 50 -28 74t-68 24q-26 0 -49 -10t-35 -28h-30l23 203h188v-31h-161l-16 -135h2q11 15 33.5 24t48.5 9q51 0 88 -32z" />
    <glyph glyph-name="six.numr" horiz-adv-x="335" 
d="M74 314.5q-39 34.5 -39 95.5q0 53 17.5 91t57.5 83l81 99h42l-151 -179l1 -2q35 40 91 40q58 0 94.5 -35.5t36.5 -95.5q0 -59 -38.5 -95t-95.5 -36q-58 0 -97 34.5zM245 337.5q27 26.5 27 73.5q0 46 -28 73t-72 27q-46 0 -74.5 -27t-28.5 -73q0 -47 28.5 -73.5
t75.5 -26.5q45 0 72 26.5z" />
    <glyph glyph-name="seven.numr" horiz-adv-x="278" 
d="M258 645l-172 -356h-34l172 355h-204v31h238v-30z" />
    <glyph glyph-name="eight.numr" horiz-adv-x="332" 
d="M72.5 311.5q-32.5 31.5 -32.5 79.5q0 44 22.5 69.5t55.5 34.5v2q-29 6 -48.5 27.5t-19.5 61.5q0 42 30.5 70t85.5 28t85.5 -28t30.5 -70q0 -40 -19.5 -61.5t-48.5 -27.5v-2q33 -9 55.5 -34.5t22.5 -69.5q0 -48 -32.5 -79.5t-93.5 -31.5t-93.5 31.5zM227 532q22 20 22 52
q0 31 -22.5 50t-60.5 19t-60.5 -19t-22.5 -50q0 -32 22 -52t61 -20t61 20zM234.5 333q24.5 22 24.5 60t-26 60.5t-67 22.5t-67 -22.5t-26 -60.5t24.5 -60t68.5 -22t68.5 22z" />
    <glyph glyph-name="nine.numr" horiz-adv-x="324" 
d="M252 478l-1 1q-26 -25 -46.5 -35.5t-49.5 -10.5q-54 0 -89.5 34t-35.5 89q0 54 35 91t97 37q59 0 93 -35t34 -99q0 -36 -13 -72.5t-46 -77.5l-87 -111h-39zM230.5 489.5q25.5 25.5 25.5 70.5q0 44 -25 68.5t-69 24.5q-45 0 -72 -25.5t-27 -70.5q0 -43 26 -68t71 -25
t70.5 25.5z" />
    <glyph glyph-name="colon.case" horiz-adv-x="190" 
d="M135 434h-80v80h80v-80zM135 0h-80v80h80v-80z" />
    <glyph glyph-name="exclamdown.case" horiz-adv-x="280" 
d="M100 701h80v-80h-80v80zM127 504h26l8 -503h-42z" />
    <glyph glyph-name="questiondown.case" horiz-adv-x="417" 
d="M188 700h80v-80h-80v80zM70 31.5q-50 46.5 -50 124.5q0 51 22 88t62 75q38 36 56 54.5t32 44.5t14 55v30h40v-30q0 -36 -15 -66t-37.5 -55t-61.5 -62q-33 -31 -51.5 -64t-18.5 -72q0 -56 37.5 -93.5t110.5 -37.5q75 0 116 41t41 111h40q0 -90 -52 -140t-145 -50
q-90 0 -140 46.5z" />
    <glyph glyph-name="semicolon.case" horiz-adv-x="190" 
d="M135 0l-53 -140h-27l46 140h-46v80h80v-80zM135 434h-80v80h80v-80z" />
    <glyph glyph-name="colon.case.ss01" horiz-adv-x="190" 
d="M131 79q14 -14 14 -36t-14 -36t-36 -14t-36 14t-14 36t14 36t36 14t36 -14zM131 505q14 -14 14 -36t-14 -36t-36 -14t-36 14t-14 36t14 36t36 14t36 -14z" />
    <glyph glyph-name="exclamdown.case.ss01" horiz-adv-x="280" 
d="M104 621q-14 14 -14 36t14 36t36 14t36 -14t14 -36t-14 -36t-36 -14t-36 14zM127 503h26l8 -503h-42z" />
    <glyph glyph-name="questiondown.case.ss01" horiz-adv-x="417" 
d="M192 621q-14 14 -14 36t14 36t36 14t36 -14t14 -36t-14 -36t-36 -14t-36 14zM71.5 32q-51.5 47 -51.5 124q0 51 22 88t62 75q38 36 56 54.5t32 44.5t14 55v30h40v-30q0 -36 -15 -66t-37.5 -55t-61.5 -62q-33 -31 -51.5 -64t-18.5 -72q0 -56 38.5 -93.5t111.5 -37.5
q74 0 114.5 41t40.5 111h40q0 -90 -52 -140t-143 -50q-89 0 -140.5 47z" />
    <glyph glyph-name="semicolon.case.ss01" horiz-adv-x="190" 
d="M131 505q14 -14 14 -36t-14 -36t-36 -14t-36 14t-14 36t14 36t36 14t36 -14zM135 9l-69 -139h-27l46 123q-18 3 -29 16.5t-11 32.5q0 22 14 36t36 14t36 -14t14 -35q0 -15 -10 -34z" />
    <glyph glyph-name="braceleft.case" horiz-adv-x="343" 
d="M333 778h-22q-58 0 -86.5 -30.5t-28.5 -96.5v-173q0 -60 -21 -91t-71 -41v-2q50 -10 71 -41t21 -91v-193q0 -66 28.5 -96.5t86.5 -30.5h22v-37h-20q-80 0 -117.5 40t-37.5 126v189q0 57 -28 84.5t-95 30.5v40q67 3 95 30.5t28 84.5v169q0 86 37.5 126t117.5 40h20v-37z
" />
    <glyph glyph-name="braceright.case" horiz-adv-x="343" 
d="M10 -108h22q58 0 86.5 30.5t28.5 96.5v193q0 60 21 91t71 41v2q-50 10 -71 41t-21 91v173q0 66 -28.5 96.5t-86.5 30.5h-22v37h20q80 0 117.5 -40t37.5 -126v-169q0 -57 28 -84.5t95 -30.5v-40q-67 -3 -95 -30.5t-28 -84.5v-189q0 -86 -37.5 -126t-117.5 -40h-20v37z" />
    <glyph glyph-name="bracketleft.case" horiz-adv-x="274" 
d="M264 781h-128v-892h128v-34h-164v960h164v-34z" />
    <glyph glyph-name="bracketright.case" horiz-adv-x="274" 
d="M10 -111h128v892h-128v34h164v-960h-164v34z" />
    <glyph glyph-name="parenleft.case" horiz-adv-x="262" 
d="M242 804q-82 -106 -120.5 -215t-38.5 -239q0 -135 38.5 -248t120.5 -224l-31 -23q-81 111 -123.5 227.5t-42.5 267.5q0 146 42.5 259t123.5 218z" />
    <glyph glyph-name="parenright.case" horiz-adv-x="262" 
d="M20 -122q82 111 120.5 224t38.5 248q0 130 -38.5 239t-120.5 215l31 23q81 -105 123.5 -218t42.5 -259q0 -151 -42.5 -267.5t-123.5 -227.5z" />
    <glyph glyph-name="emdash.case" horiz-adv-x="1154" 
d="M1104 338h-1054v36h1054v-36z" />
    <glyph glyph-name="endash.case" horiz-adv-x="752" 
d="M702 336h-652v38h652v-38z" />
    <glyph glyph-name="hyphen.case" horiz-adv-x="342" 
d="M297 334h-252v40h252v-40z" />
    <glyph glyph-name="guillemotleft.case" horiz-adv-x="338" 
d="M64 314l141 -149h-48l-137 149l137 149h48zM187 314l141 -149h-48l-137 149l137 149h48z" />
    <glyph glyph-name="guillemotright.case" horiz-adv-x="338" 
d="M58 463l137 -149l-137 -149h-48l141 149l-141 149h48zM181 463l137 -149l-137 -149h-48l141 149l-141 149h48z" />
    <glyph glyph-name="guilsinglleft.case" horiz-adv-x="215" 
d="M64 314l141 -149h-48l-137 149l137 149h48z" />
    <glyph glyph-name="guilsinglright.case" horiz-adv-x="215" 
d="M58 463l137 -149l-137 -149h-48l141 149l-141 149h48z" />
    <glyph glyph-name="approxequal.case" 
d="M226 476.5q30 -8.5 81 -26.5q47 -16 73.5 -24t45.5 -8q24 0 43 15.5t29 46.5h30q-12 -46 -38.5 -69.5t-62.5 -23.5q-24 0 -57.5 9.5t-79.5 26.5q-43 15 -70 23t-46 8q-24 0 -43 -15.5t-29 -46.5h-30q12 46 39 69.5t62 23.5q23 0 53 -8.5zM226 316.5q30 -8.5 81 -26.5
q47 -16 73.5 -24t45.5 -8q24 0 43 15.5t29 46.5h30q-12 -46 -38.5 -69.5t-62.5 -23.5q-24 0 -57.5 9.5t-79.5 26.5q-43 15 -70 23t-46 8q-24 0 -43 -15.5t-29 -46.5h-30q12 46 39 69.5t62 23.5q23 0 53 -8.5z" />
    <glyph glyph-name="divide.case" 
d="M329 450h-58v70h58v-70zM559 324h-518v28h518v-28zM329 155h-58v71h58v-71z" />
    <glyph glyph-name="equal.case" 
d="M553 407h-506v28h506v-28zM553 242h-506v28h506v-28z" />
    <glyph glyph-name="greater.case" 
d="M515 353v-28l-430 -190v33l392 171l-392 171v33z" />
    <glyph glyph-name="less.case" 
d="M515 510l-392 -171l392 -171v-33l-430 190v28l430 190v-33z" />
    <glyph glyph-name="logicalnot.case" 
d="M529 472v-265h-30v237h-428v28h458z" />
    <glyph glyph-name="minus.case" 
d="M539 324h-478v28h478v-28z" />
    <glyph glyph-name="multiply.case" 
d="M509 526l-188 -188l188 -188l-21 -21l-188 188l-188 -188l-21 21l188 188l-188 188l21 21l188 -188l188 188z" />
    <glyph glyph-name="notequal.case" 
d="M354 407l-80 -137h279v-28h-295l-63 -109h-28l63 109h-183v28h199l80 137h-279v28h295l63 109h28l-63 -109h183v-28h-199z" />
    <glyph glyph-name="plus.case" 
d="M315 352h229v-28h-229v-230h-30v230h-229v28h229v230h30v-230z" />
    <glyph glyph-name="divide.ss01.case" 
d="M272 448q-11 11 -11 28t11 28t28 11t28 -11t11 -28t-11 -28t-28 -11t-28 11zM41 352h518v-28h-518v28zM272 172q-11 11 -11 28t11 28t28 11t28 -11t11 -28t-11 -28t-28 -11t-28 11z" />
    <glyph glyph-name="arrowup.case" horiz-adv-x="730" 
d="M650 392l-265 258v-649h-40v649l-265 -258l-30 31l315 300l315 -300z" />
    <glyph glyph-name="uni2197.case" horiz-adv-x="636" 
d="M543 184l-5 370l-459 -459l-29 28l460 459l-370 5v43l435 -10l11 -435z" />
    <glyph glyph-name="arrowright.case" horiz-adv-x="822" 
d="M772 371l-300 -315l-31 30l258 265h-649v40h649l-258 265l31 30z" />
    <glyph glyph-name="uni2198.case" horiz-adv-x="635" 
d="M585 555l-10 -435l-435 -11l-1 43l370 5l-459 459l28 29l459 -460l5 370h43z" />
    <glyph glyph-name="arrowdown.case" horiz-adv-x="730" 
d="M680 318l-315 -300l-315 300l30 31l265 -258v649h40v-649l265 258z" />
    <glyph glyph-name="uni2199.case" horiz-adv-x="636" 
d="M126 158l370 -5v-43l-435 10l-11 435l43 1l5 -370l459 459l29 -28z" />
    <glyph glyph-name="arrowleft.case" horiz-adv-x="822" 
d="M772 350h-649l258 -265l-31 -30l-300 315l300 315l31 -30l-258 -265h649v-40z" />
    <glyph glyph-name="uni2196.case" horiz-adv-x="635" 
d="M557 95l-459 460l-5 -370h-43l10 435l435 11l1 -43l-370 -5l459 -459z" />
    <glyph glyph-name="arrowboth.case" horiz-adv-x="1261" 
d="M1211 370l-300 -315l-31 30l258 265h-1015l258 -265l-31 -30l-300 315l300 315l31 -30l-258 -265h1015l-258 265l31 30z" />
    <glyph glyph-name="bar.case" horiz-adv-x="250" 
d="M140 -135h-30v942h30v-942z" />
    <glyph glyph-name="brokenbar.case" horiz-adv-x="250" 
d="M140 419h-30v388h30v-388zM140 -135h-30v396h30v-396z" />
    <glyph glyph-name="at.case" horiz-adv-x="926" 
d="M680.5 713.5q91.5 -46.5 143.5 -134.5t52 -206q0 -100 -38 -168.5t-109 -68.5q-36 0 -61.5 22t-29.5 75h-3q-26 -53 -70.5 -82t-105.5 -29q-59 0 -107 26.5t-76 76t-28 115.5t27.5 115.5t75.5 76t107 26.5q60 0 105.5 -28t69.5 -79h3v92h32v-299q0 -39 18 -57.5t46 -18.5
q52 0 81.5 58t29.5 144q0 112 -50.5 192.5t-134.5 122.5t-184 42q-103 0 -192 -44.5t-143.5 -132.5t-54.5 -213t57 -211.5t148.5 -129t192.5 -42.5q55 0 110 12.5t99 34.5l14 -32q-48 -23 -107 -36t-117 -13q-109 0 -207.5 46t-161 140t-62.5 231q0 132 56.5 228t153 145.5
t214.5 49.5q115 0 206.5 -46.5zM331.5 473q-47.5 -51 -47.5 -132t47 -133t128 -52q53 0 94 23.5t63 65.5t22 95t-22.5 95t-63 65.5t-93.5 23.5q-80 0 -127.5 -51z" />
    <glyph glyph-name="uniF8FF.ss01" horiz-adv-x="770" 
d="M197 32q-83 47 -130 130.5t-47 187.5t47 187.5t130 130.5t188 47t188 -47t130 -130.5t47 -187.5t-47 -187.5t-130 -130.5t-188 -47t-188 47zM558.5 54q78.5 44 123.5 122.5t45 178.5l-51 65l-70 -30l-68 90l-79 -44l-74 118l-74 -118l-79 44l-68 -90l-70 30l-51 -65
q0 -100 45 -178.5t123.5 -122.5t173.5 -44t173.5 44zM257 328q-10 10 -10 25t10 25t25 10t25 -10t10 -25t-10 -25t-25 -10t-25 10zM462 328q-10 10 -10 25t10 25t25 10t25 -10t10 -25t-10 -25t-25 -10t-25 10zM379 356q1 4 4 5.5t7 -0.5q3 -1 4.5 -4t0.5 -7l-28 -78h34
q4 0 6.5 -2.5t2.5 -6.5q0 -3 -2.5 -5.5t-6.5 -2.5h-58zM138.5 190.5q-19.5 19.5 -19.5 49.5t19.5 49.5t49.5 19.5t49.5 -19.5t19.5 -49.5t-19.5 -49.5t-49.5 -19.5t-49.5 19.5zM531.5 190.5q-19.5 19.5 -19.5 49.5t19.5 49.5t49.5 19.5t49.5 -19.5t19.5 -49.5t-19.5 -49.5
t-49.5 -19.5t-49.5 19.5zM447 225q3 6 9 6q8 0 8 -9q0 -8 -8.5 -18.5t-26.5 -18.5t-44 -8t-44 8t-26.5 18.5t-8.5 18.5q0 9 8 9q6 0 9 -6q17 -30 62 -30t62 30z" />
    <glyph glyph-name="uni0308.case" horiz-adv-x="0" 
d="M-234 743h-52v95h52v-95zM-50 743h-52v95h52v-95z" />
    <glyph glyph-name="uni0307.case" horiz-adv-x="0" 
d="M-50 743h-52v110h52v-110z" />
    <glyph glyph-name="gravecomb.case" horiz-adv-x="0" 
d="M-50 743h-36l-117 120h58z" />
    <glyph glyph-name="acutecomb.case" horiz-adv-x="0" 
d="M-167 743h-36l95 120h58z" />
    <glyph glyph-name="uni030B.case" horiz-adv-x="0" 
d="M-242 743h-35l94 120h46zM-154 743h-35l94 120h45z" />
    <glyph glyph-name="uni0302.case" horiz-adv-x="0" 
d="M-50 743h-54l-95 90l-95 -90h-54l125 120h48z" />
    <glyph glyph-name="uni030C.case" horiz-adv-x="0" 
d="M-223 743l-125 120h54l95 -90l95 90h54l-125 -120h-48z" />
    <glyph glyph-name="uni0306.case" horiz-adv-x="0" 
d="M-87.5 775q-37.5 -32 -98.5 -32t-98.5 32t-37.5 88h34q1 -41 28 -64t74 -23t74 23t28 64h34q0 -56 -37.5 -88z" />
    <glyph glyph-name="uni030A.case" horiz-adv-x="0" 
d="M-82 864.5q32 -31.5 32 -80.5t-32 -80.5t-82 -31.5t-82 31.5t-32 80.5t32 80.5t82 31.5t82 -31.5zM-224.5 844.5q-23.5 -23.5 -23.5 -60.5t23.5 -60.5t60.5 -23.5t60.5 23.5t23.5 60.5t-23.5 60.5t-60.5 23.5t-60.5 -23.5z" />
    <glyph glyph-name="tildecomb.case" horiz-adv-x="0" 
d="M-175.5 761.5q-19.5 8.5 -52.5 25.5q-24 13 -39.5 20t-27.5 7q-32 0 -53 -48l-27 10q13 32 33 54t53 22q20 0 39.5 -8.5t52.5 -25.5q24 -13 39.5 -20t27.5 -7q32 0 53 48l27 -10q-13 -32 -33 -54t-53 -22q-20 0 -39.5 8.5z" />
    <glyph glyph-name="uni0304.case" horiz-adv-x="0" 
d="M-50 789h-271v34h271v-34z" />
    <glyph glyph-name="uni0308.ss01" horiz-adv-x="0" 
d="M-250 688q12 -12 12 -31t-12 -31t-31 -12t-31 12t-12 31t12 31t31 12t31 -12zM-62 688q12 -12 12 -31t-12 -31t-31 -12t-31 12t-12 31t12 31t31 12t31 -12z" />
    <glyph glyph-name="uni0307.ss01" horiz-adv-x="0" 
d="M-64 686q14 -14 14 -34t-14 -34t-34 -14t-34 14t-14 34t14 34t34 14t34 -14z" />
    <glyph glyph-name="uni0312.ss01" horiz-adv-x="0" 
d="M-130 626l55 72h25l-40 -66q18 -2 28.5 -14.5t10.5 -30.5q0 -20 -13.5 -34t-33.5 -14t-33.5 13.5t-13.5 33.5q0 21 15 40z" />
    <glyph glyph-name="uni0326.ss01" horiz-adv-x="0" 
d="M-65 -128l-55 -72h-25l40 66q-18 2 -28.5 14.5t-10.5 30.5q0 20 13.5 34t33.5 14t33.5 -13.5t13.5 -33.5q0 -21 -15 -40z" />
    <glyph glyph-name="uni0308.case.ss01" horiz-adv-x="0" 
d="M-264 824q14 -14 14 -34t-14 -34t-34 -14t-34 14t-14 34t14 34t34 14t34 -14zM-64 824q14 -14 14 -34t-14 -34t-34 -14t-34 14t-14 34t14 34t34 14t34 -14z" />
    <glyph glyph-name="uni0307.case.ss01" horiz-adv-x="0" 
d="M-64 824q14 -14 14 -34t-14 -34t-34 -14t-34 14t-14 34t14 34t34 14t34 -14z" />
    <glyph glyph-name="dieresiscasecomb.ss01" horiz-adv-x="196" 
d="M132 824q14 -14 14 -34t-14 -34t-34 -14t-34 14t-14 34t14 34t34 14t34 -14z" />
    <glyph glyph-name="dieresisdotcomb.ss01" horiz-adv-x="186" 
d="M124 688q12 -12 12 -31t-12 -31t-31 -12t-31 12t-12 31t12 31t31 12t31 -12z" />
    <glyph glyph-name="circlecomb" horiz-adv-x="830" 
d="M226 32q-83 47 -129.5 130.5t-46.5 187.5t46.5 187.5t129.5 130.5t189 47t189 -47t129.5 -130.5t46.5 -187.5t-46.5 -187.5t-129.5 -130.5t-189 -47t-189 47zM591.5 50q78.5 45 122.5 123.5t44 176.5t-44 176.5t-122.5 123.5t-176.5 45t-176.5 -45t-122.5 -123.5
t-44 -176.5t44 -176.5t122.5 -123.5t176.5 -45t176.5 45z" />
    <glyph glyph-name="circleinvertcomb" horiz-adv-x="830" 
d="M228.5 32.5q-83.5 47.5 -131 131t-47.5 186.5t47.5 186.5t131 131t186.5 47.5t186.5 -47.5t131 -131t47.5 -186.5t-47.5 -186.5t-131 -131t-186.5 -47.5t-186.5 47.5z" />
    </font>
</defs>
</svg>
