<?xml version="1.0" standalone="no"?>
<!DOCTYPE svg PUBLIC "-//W3C//DTD SVG 1.1//EN" "http://www.w3.org/Graphics/SVG/1.1/DTD/svg11.dtd" >
<svg xmlns="http://www.w3.org/2000/svg" xmlns:xlink="http://www.w3.org/1999/xlink" version="1.1">
<metadata>
Created by FontForge 20170731 at Thu Jun 30 21:13:27 2016
 By Aleksey,,,
Copyright (c) 2015 by Reto Moser. All rights reserved.
</metadata>
<defs>
<font id="GTEestiDisplay-UltraBoldItalic" horiz-adv-x="600" >
  <font-face 
    font-family="GT Eesti Display UltraBold"
    font-weight="900"
    font-style="italic"
    font-stretch="normal"
    units-per-em="1000"
    panose-1="0 0 10 0 0 0 0 0 0 0"
    ascent="750"
    descent="-250"
    x-height="462"
    cap-height="700"
    bbox="-469 -252 1241 900"
    underline-thickness="50"
    underline-position="-150"
    slope="-11"
    unicode-range="U+000D-FB02"
  />
<missing-glyph horiz-adv-x="786" 
d="M228.5 32q-83.5 47 -130.5 130.5t-47 187.5q0 105 47 188t130.5 130t187.5 47q105 0 188 -47t130 -130t47 -188q0 -104 -47 -187.5t-130 -130.5t-188 -47q-104 0 -187.5 47zM591 54.5q78 44.5 122.5 123.5t44.5 177l-51 65l-70 -30l-68 90l-79 -44l-74 118l-74 -118
l-79 44l-68 -90l-70 30l-51 -65q0 -98 44.5 -177t122.5 -123.5t175 -44.5t175 44.5zM288 328q-10 10 -10 25t10 25t25 10t25 -10t10 -25t-10 -25t-25 -10t-25 10zM493 328q-10 10 -10 25t10 25t25 10t25 -10t10 -25t-10 -25t-25 -10t-25 10zM410 356q1 4 4 5.5t7 -0.5
q3 -1 4.5 -4t0.5 -7l-28 -78h34q4 0 6.5 -2.5t2.5 -6.5q0 -3 -2.5 -5.5t-6.5 -2.5h-58zM169.5 190.5q-19.5 19.5 -19.5 49.5t19.5 49.5t49.5 19.5t49.5 -19.5t19.5 -49.5t-19.5 -49.5t-49.5 -19.5t-49.5 19.5zM562.5 190.5q-19.5 19.5 -19.5 49.5t19.5 49.5t49.5 19.5
t49.5 -19.5t19.5 -49.5t-19.5 -49.5t-49.5 -19.5t-49.5 19.5zM377.5 185q-16.5 -8 -23.5 -22q-3 -6 -9 -6q-8 0 -8 9q0 17 24.5 31t54.5 14t54.5 -14t24.5 -31q0 -9 -8 -9q-6 0 -9 6q-7 14 -23.5 22t-38.5 8t-38.5 -8z" />
    <glyph glyph-name="fi" unicode="fi" horiz-adv-x="663" 
d="M358 523.5q-22 -15.5 -31 -59.5v-2h103l-30 -152h-103l-60 -310h-185l60 310h-87l30 152h86l1 3q17 85 47 138t85 80t144 27h63l-33 -171h-19q-49 0 -71 -15.5zM578 0h-185l90 462h185zM681 527h-189l34 173h189z" />
    <glyph glyph-name="fl" unicode="fl" horiz-adv-x="663" 
d="M358 523.5q-22 -15.5 -31 -59.5v-2h103l-30 -152h-103l-60 -310h-185l60 310h-87l30 152h86l1 3q17 85 47 138t85 80t144 27h63l-33 -171h-19q-49 0 -71 -15.5zM578 0h-185l136 700h185z" />
    <glyph glyph-name="f_f" unicode="ff" horiz-adv-x="801" 
d="M358 523.5q-22 -15.5 -31 -59.5v-2h103l-30 -152h-103l-60 -310h-185l60 310h-87l30 152h86l1 3q17 85 47 138t85 80t144 27h63l-33 -171h-19q-49 0 -71 -15.5zM761 523.5q-22 -15.5 -31 -59.5v-2h103l-30 -152h-103l-60 -310h-185l60 310h-87l30 152h86l1 3
q17 85 47 138t85 80t144 27h63l-33 -171h-19q-49 0 -71 -15.5z" />
    <glyph glyph-name="f_f_i" unicode="ffi" horiz-adv-x="1066" 
d="M358 523.5q-22 -15.5 -31 -59.5v-2h103l-30 -152h-103l-60 -310h-185l60 310h-87l30 152h86l1 3q17 85 47 138t85 80t144 27h63l-33 -171h-19q-49 0 -71 -15.5zM761 523.5q-22 -15.5 -31 -59.5v-2h103l-30 -152h-103l-60 -310h-185l60 310h-87l30 152h86l1 3
q17 85 47 138t85 80t144 27h63l-33 -171h-19q-49 0 -71 -15.5zM981 0h-185l90 462h185zM1084 527h-189l34 173h189z" />
    <glyph glyph-name="f_f_l" unicode="ffl" horiz-adv-x="1066" 
d="M358 523.5q-22 -15.5 -31 -59.5v-2h103l-30 -152h-103l-60 -310h-185l60 310h-87l30 152h86l1 3q17 85 47 138t85 80t144 27h63l-33 -171h-19q-49 0 -71 -15.5zM761 523.5q-22 -15.5 -31 -59.5v-2h103l-30 -152h-103l-60 -310h-185l60 310h-87l30 152h86l1 3
q17 85 47 138t85 80t144 27h63l-33 -171h-19q-49 0 -71 -15.5zM981 0h-185l136 700h185z" />
    <glyph glyph-name=".notdef" horiz-adv-x="786" 
d="M228.5 32q-83.5 47 -130.5 130.5t-47 187.5q0 105 47 188t130.5 130t187.5 47q105 0 188 -47t130 -130t47 -188q0 -104 -47 -187.5t-130 -130.5t-188 -47q-104 0 -187.5 47zM591 54.5q78 44.5 122.5 123.5t44.5 177l-51 65l-70 -30l-68 90l-79 -44l-74 118l-74 -118
l-79 44l-68 -90l-70 30l-51 -65q0 -98 44.5 -177t122.5 -123.5t175 -44.5t175 44.5zM288 328q-10 10 -10 25t10 25t25 10t25 -10t10 -25t-10 -25t-25 -10t-25 10zM493 328q-10 10 -10 25t10 25t25 10t25 -10t10 -25t-10 -25t-25 -10t-25 10zM410 356q1 4 4 5.5t7 -0.5
q3 -1 4.5 -4t0.5 -7l-28 -78h34q4 0 6.5 -2.5t2.5 -6.5q0 -3 -2.5 -5.5t-6.5 -2.5h-58zM169.5 190.5q-19.5 19.5 -19.5 49.5t19.5 49.5t49.5 19.5t49.5 -19.5t19.5 -49.5t-19.5 -49.5t-49.5 -19.5t-49.5 19.5zM562.5 190.5q-19.5 19.5 -19.5 49.5t19.5 49.5t49.5 19.5
t49.5 -19.5t19.5 -49.5t-19.5 -49.5t-49.5 -19.5t-49.5 19.5zM377.5 185q-16.5 -8 -23.5 -22q-3 -6 -9 -6q-8 0 -8 9q0 17 24.5 31t54.5 14t54.5 -14t24.5 -31q0 -9 -8 -9q-6 0 -9 6q-7 14 -23.5 22t-38.5 8t-38.5 -8z" />
    <glyph glyph-name=".null" horiz-adv-x="0" 
 />
    <glyph glyph-name="nonmarkingreturn" unicode="&#xd;" horiz-adv-x="0" 
 />
    <glyph glyph-name="space" unicode=" " horiz-adv-x="260" 
 />
    <glyph glyph-name="exclam" unicode="!" horiz-adv-x="349" 
d="M243 241h-133l51 459h209zM224 0h-186l37 188h186z" />
    <glyph glyph-name="quotedbl" unicode="&#x22;" horiz-adv-x="400" 
d="M201 462h-83l26 253h129zM372 462h-83l26 253h129z" />
    <glyph glyph-name="numbersign" unicode="#" horiz-adv-x="634" 
d="M521 429l-53 -142h92l-17 -90h-109l-74 -197h-95l74 197h-115l-74 -197h-95l74 197h-95l17 90h112l53 142h-93l18 90h109l68 181h95l-68 -181h115l68 181h95l-68 -181h95l-18 -90h-111zM426 429h-115l-53 -142h115z" />
    <glyph glyph-name="dollar" unicode="$" horiz-adv-x="592" 
d="M403 463q1 5 1 15q0 38 -29 48l-20 -104l21 -9q53 -24 87.5 -45.5t59.5 -60.5t25 -98q0 -65 -29.5 -115.5t-88.5 -79.5t-143 -29h-17l-12 -62h-28l12 64q-100 11 -155.5 65.5t-55.5 134.5q0 14 4 42h170v-11q0 -35 18.5 -51t50.5 -18l24 122l-12 6t-11 5q-51 24 -84 45.5
t-57 59t-24 92.5q0 95 61.5 153t178.5 58q19 0 29 -1l14 73h28l-15 -76q78 -13 124.5 -59.5t46.5 -120.5q0 -23 -4 -43h-170zM348 530h-1q-32 0 -47 -12.5t-15 -30.5q0 -29 44 -53zM358 230.5q-12 14.5 -35 27.5l-21 -110q37 2 52.5 16t15.5 33t-12 33.5z" />
    <glyph glyph-name="percent" unicode="%" horiz-adv-x="835" 
d="M154 414q-44 39 -44 105q0 48 21 90.5t63.5 69t103.5 26.5q68 0 112 -39t44 -105q0 -48 -21 -90.5t-63.5 -69t-103.5 -26.5q-68 0 -112 39zM650 675h90l-529 -675h-90zM338.5 490q24.5 28 24.5 64q0 30 -18.5 47t-51.5 17q-43 0 -67.5 -28t-24.5 -64q0 -30 18.5 -47
t51.5 -17q43 0 67.5 28zM471 34q-44 39 -44 105q0 48 21 90.5t63.5 69t103.5 26.5q68 0 112 -39t44 -105q0 -48 -21 -90.5t-63.5 -69t-103.5 -26.5q-68 0 -112 39zM655.5 110q24.5 28 24.5 64q0 30 -18.5 47t-51.5 17q-43 0 -67.5 -28t-24.5 -64q0 -30 18.5 -47t51.5 -17
q43 0 67.5 28z" />
    <glyph glyph-name="ampersand" unicode="&#x26;" horiz-adv-x="754" 
d="M607 150l89 -150h-217l-18 30q-82 -45 -176 -45q-76 0 -136.5 27.5t-94.5 79t-34 121.5q0 90 55 152.5t146 85.5q-4 21 -4 45q0 84 56.5 139t165.5 55q47 0 92 -11.5t98 -32.5l-73 -151q-37 16 -62 24t-45 8q-16 0 -25.5 -7.5t-9.5 -26.5q0 -16 9 -31l95 -162
q46 53 104 131l131 -102q-90 -119 -146 -179zM371 177l-83 138q-40 -6 -62.5 -28t-22.5 -51q0 -36 26.5 -55t68.5 -19q37 0 73 15z" />
    <glyph glyph-name="quotesingle" unicode="'" horiz-adv-x="239" 
d="M211 462h-93l26 253h139z" />
    <glyph glyph-name="parenleft" unicode="(" horiz-adv-x="360" 
d="M442 716q-68 -81 -114 -151.5t-79 -175.5t-33 -242q0 -89 18.5 -182t37.5 -135l-132 -45q-30 77 -49.5 171t-19.5 194q0 157 35 276t88 203t132 179z" />
    <glyph glyph-name="parenright" unicode=")" horiz-adv-x="359" 
d="M-64 -160q68 81 114 151.5t79 175.5t33 242q0 89 -18.5 182t-37.5 135l132 45q30 -77 49.5 -171t19.5 -194q0 -157 -35 -276t-88 -203t-132 -179z" />
    <glyph glyph-name="asterisk" unicode="*" horiz-adv-x="453" 
d="M358 506l85 -91l-98 -73l-61 110l-60 -109l-98 72l85 91l-123 24l38 114l113 -52l-15 123h122l-15 -124l112 53l38 -115z" />
    <glyph glyph-name="plus" unicode="+" 
d="M353 335h204v-75h-204v-206h-78v206h-206v75h206v206h78v-206z" />
    <glyph glyph-name="comma" unicode="," horiz-adv-x="257" 
d="M177 0l-141 -177h-80l103 177h-62l37 188h180z" />
    <glyph glyph-name="hyphen" unicode="-" horiz-adv-x="361" 
d="M57 346h291l-31 -160h-291z" />
    <glyph glyph-name="period" unicode="." horiz-adv-x="256" 
d="M176 0h-186l37 188h186z" />
    <glyph glyph-name="slash" unicode="/" horiz-adv-x="637" 
d="M713 724l-641 -867l-111 70l642 870z" />
    <glyph glyph-name="zero" unicode="0" horiz-adv-x="643" 
d="M565.5 618.5q73.5 -71.5 73.5 -217.5q0 -113 -35.5 -207.5t-107.5 -151.5t-177 -57q-126 0 -199.5 71.5t-73.5 217.5q0 113 35.5 207.5t107.5 151.5t177 57q126 0 199.5 -71.5zM268 450q-33 -73 -33 -172q0 -126 90 -126q59 0 92 73t33 172q0 126 -90 126q-59 0 -92 -73z
" />
    <glyph glyph-name="one" unicode="1" horiz-adv-x="351" 
d="M211 0h-180l97 500h-21l34 175h201z" />
    <glyph glyph-name="two" unicode="2" horiz-adv-x="582" 
d="M25 154l257 195l24 18q54 41 72 60.5t18 45.5q0 25 -14.5 38t-40.5 13q-33 0 -52.5 -20t-24.5 -51h-195q12 108 85 172.5t205 64.5q113 0 176.5 -51t63.5 -140q0 -66 -39 -117t-128 -117l-128 -95h236l-33 -170h-512z" />
    <glyph glyph-name="three" unicode="3" horiz-adv-x="567" 
d="M514.5 644q62.5 -46 62.5 -123q0 -65 -41 -106t-113 -60v-2q52 -6 85.5 -44.5t33.5 -104.5q0 -60 -29.5 -109.5t-94.5 -79.5t-166 -30q-108 0 -179 46t-71 134q0 26 6 56h178q-1 -5 -1 -14q0 -27 21 -43t62 -16q37 0 58.5 17.5t21.5 50.5q0 30 -31 43t-102 13l26 143
q81 0 112.5 19.5t31.5 45.5t-15.5 39.5t-42.5 13.5q-69 0 -83 -61h-181q14 107 84.5 162.5t191.5 55.5q113 0 175.5 -46z" />
    <glyph glyph-name="four" unicode="4" horiz-adv-x="584" 
d="M514 258h60l-30 -152h-59l-21 -106h-172l21 106h-327l26 135l406 434h178zM343 258l38 188h-4l-171 -188h137z" />
    <glyph glyph-name="five" unicode="5" horiz-adv-x="559" 
d="M519 505h-247l-27 -90h2q44 33 110 33q80 0 132.5 -49.5t52.5 -144.5q0 -76 -33 -137t-102 -96.5t-173 -35.5q-78 0 -145.5 20t-112.5 53l97 149q77 -51 162 -51q62 0 89 27t27 63q0 32 -20 50t-56 18q-55 0 -88 -43h-133l115 404h383z" />
    <glyph glyph-name="six" unicode="6" horiz-adv-x="567" 
d="M85 43q-72 58 -72 170q0 84 38.5 151.5t108.5 136.5l186 182h212l-295 -271l2 -2q51 43 118 43q48 0 87.5 -23.5t62.5 -69.5t23 -110q0 -62 -30 -123t-94 -101.5t-158 -40.5q-117 0 -189 58zM344.5 168.5q25.5 29.5 25.5 69.5q0 37 -21.5 56t-58.5 19q-47 0 -72.5 -29
t-25.5 -69q0 -38 21.5 -57t58.5 -19q47 0 72.5 29.5z" />
    <glyph glyph-name="seven" unicode="7" horiz-adv-x="483" 
d="M527 509l-357 -509h-210l362 498h-265l34 177h468z" />
    <glyph glyph-name="eight" unicode="8" horiz-adv-x="598" 
d="M80 31q-65 46 -65 130q0 71 43.5 119.5t118.5 66.5v2q-40 14 -59.5 48t-19.5 80q0 58 30 106t90.5 77.5t148.5 29.5q112 0 174 -47t62 -124q0 -56 -33.5 -106.5t-104.5 -68.5v-2q47 -14 72.5 -49.5t25.5 -90.5q0 -58 -30.5 -107.5t-96.5 -79.5t-167 -30q-124 0 -189 46z
M396.5 446q19.5 21 19.5 50q0 26 -17.5 40t-43.5 14q-33 0 -52.5 -20.5t-19.5 -49.5q0 -26 17 -40.5t43 -14.5q34 0 53.5 21zM356 158q25 25 25 59q0 31 -22.5 49.5t-56.5 18.5q-41 0 -66 -25t-25 -59q0 -31 22.5 -49.5t56.5 -18.5q41 0 66 25z" />
    <glyph glyph-name="nine" unicode="9" horiz-adv-x="578" 
d="M527 631q71 -58 71 -185q0 -77 -38.5 -152.5t-150.5 -173.5l-138 -120h-226l288 239l-2 2q-28 -20 -53.5 -29.5t-52.5 -9.5q-46 0 -85 26t-62 73.5t-23 108.5q0 70 31.5 134t98 104.5t165.5 40.5q106 0 177 -58zM391.5 381.5q25.5 29.5 25.5 69.5q0 37 -21.5 56t-58.5 19
q-47 0 -72.5 -29t-25.5 -70q0 -37 22 -56t58 -19q47 0 72.5 29.5z" />
    <glyph glyph-name="colon" unicode=":" horiz-adv-x="257" 
d="M176 0h-186l37 188h186zM230 274h-186l37 188h186z" />
    <glyph glyph-name="semicolon" unicode=";" horiz-adv-x="257" 
d="M177 0l-141 -177h-80l103 177h-62l37 188h180zM229 274h-186l37 188h186z" />
    <glyph glyph-name="less" unicode="&#x3c;" 
d="M533 466l-391 -167l392 -166l-1 -89l-480 214v84l480 214v-90z" />
    <glyph glyph-name="equal" unicode="=" 
d="M566 377h-506l1 74h506zM566 150h-506v74h506v-74z" />
    <glyph glyph-name="greater" unicode="&#x3e;" 
d="M574 342v-84l-480 -214l-1 89l392 166l-391 167v90z" />
    <glyph glyph-name="question" unicode="?" horiz-adv-x="531" 
d="M504.5 674q60.5 -41 60.5 -120q0 -51 -27 -92.5t-79 -81.5q-6 -4 -31.5 -23.5t-43.5 -46.5t-25 -60l-2 -10h-183l6 29q20 100 109 162l19 12q30 20 44.5 34.5t14.5 34.5q0 17 -12.5 26t-35.5 9q-30 0 -44.5 -16t-19.5 -44h-175q15 109 77.5 168.5t185.5 59.5
q101 0 161.5 -41zM312 0h-186l37 188h186z" />
    <glyph glyph-name="at" unicode="@" horiz-adv-x="975" 
d="M248.5 -108q-91.5 47 -146 137.5t-54.5 216.5q0 131 60 232t170.5 156.5t256.5 55.5q130 0 224 -44t144 -124t50 -186q0 -75 -25.5 -140.5t-78.5 -106t-130 -40.5q-55 0 -88 21.5t-48 65.5h-2q-53 -85 -147 -85q-74 0 -120.5 52.5t-46.5 145.5q0 69 26.5 123.5t74.5 84.5
t110 30q98 0 135 -78h3l12 63h132l-51 -263q-2 -12 -2 -21q0 -34 31 -34q25 0 47.5 22t37 62t14.5 93q0 124 -80.5 188t-217.5 64q-109 0 -194 -39.5t-133 -114t-48 -177.5q0 -93 39 -160.5t107 -103.5t153 -36q64 0 149 18l21 -103q-44 -10 -93 -16t-89 -6
q-111 0 -202.5 47zM558 219.5q22 25.5 22 60.5q0 33 -20 48.5t-48 15.5q-38 0 -60 -25.5t-22 -60.5q0 -33 20 -48.5t48 -15.5q38 0 60 25.5z" />
    <glyph glyph-name="A" unicode="A" horiz-adv-x="745" 
d="M481 131h-239l-68 -131h-219l408 700h202l135 -700h-202zM462 281l-29 220l-114 -220h143z" />
    <glyph glyph-name="B" unicode="B" horiz-adv-x="647" 
d="M614 215q0 -110 -82.5 -162.5t-212.5 -52.5h-309l136 700h288q101 0 158 -38.5t57 -116.5q0 -65 -39.5 -109.5t-115.5 -65.5v-2q120 -24 120 -153zM435.5 441q21.5 19 21.5 47q0 27 -20.5 41t-54.5 14h-76l-24 -121h86q46 0 67.5 19zM398.5 177.5q24.5 20.5 24.5 54.5
q0 32 -21.5 45.5t-66.5 13.5h-78l-26 -134h90q53 0 77.5 20.5z" />
    <glyph glyph-name="C" unicode="C" horiz-adv-x="682" 
d="M208.5 28q-80.5 43 -124 120.5t-43.5 177.5q0 109 51 197.5t146.5 140t222.5 51.5q80 0 149 -20.5t119 -53.5l-110 -159q-73 48 -160 48q-71 0 -121.5 -27t-76 -72.5t-25.5 -99.5q0 -74 46 -117.5t119 -43.5q76 0 163 47l78 -164q-119 -68 -247 -68q-106 0 -186.5 43z
" />
    <glyph glyph-name="D" unicode="D" horiz-adv-x="691" 
d="M547.5 662q73.5 -38 112.5 -108.5t39 -167.5q0 -108 -53.5 -196t-155.5 -139t-241 -51h-239l136 700h229q99 0 172.5 -38zM303 530l-70 -360h50q73 0 123.5 29t76 78.5t25.5 111.5q0 69 -41 105t-114 36h-50z" />
    <glyph glyph-name="E" unicode="E" horiz-adv-x="546" 
d="M302 526l-16 -83h225l-32 -165h-225l-20 -104h271l-34 -174h-461l136 700h446l-34 -174h-256z" />
    <glyph glyph-name="F" unicode="F" horiz-adv-x="532" 
d="M302 526l-21 -108h231l-33 -170h-231l-48 -248h-190l136 700h472l-34 -174h-282z" />
    <glyph glyph-name="G" unicode="G" horiz-adv-x="762" 
d="M778 417l-11 -78q-50 -354 -364 -354q-105 0 -187.5 40t-129 115.5t-46.5 179.5q0 110 51 200t147.5 142.5t227.5 52.5q83 0 157.5 -22t129.5 -65l-117 -154q-78 61 -175 61q-69 0 -120.5 -29.5t-78.5 -78.5t-27 -107q0 -73 48 -114t132 -41q66 0 104 24t48 65h-185
l33 163h363z" />
    <glyph glyph-name="H" unicode="H" horiz-adv-x="729" 
d="M765 700l-136 -700h-190l53 272h-239l-53 -272h-190l136 700h190l-49 -254h239l49 254h190z" />
    <glyph glyph-name="I" unicode="I" horiz-adv-x="300" 
d="M200 0h-190l136 700h190z" />
    <glyph glyph-name="J" unicode="J" horiz-adv-x="325" 
d="M260 180q-19 -95 -76.5 -139t-159.5 -44h-59l34 174h38q13 0 24 10t13 22l97 497h190z" />
    <glyph glyph-name="K" unicode="K" horiz-adv-x="752" 
d="M464 351l248 -351h-244l-205 324l-63 -324h-190l136 700h190l-60 -307l291 307h259z" />
    <glyph glyph-name="L" unicode="L" horiz-adv-x="514" 
d="M146 700h190l-102 -524h264l-34 -176h-454z" />
    <glyph glyph-name="M" unicode="M" horiz-adv-x="939" 
d="M894 0h-181l-30 359h-2l-164 -264h-123l-66 264h-2l-166 -359h-205l333 700h141l71 -315h1l191 315h141z" />
    <glyph glyph-name="N" unicode="N" horiz-adv-x="780" 
d="M680 0h-148l-251 406h-2l-79 -406h-190l136 700h148l251 -406h2l79 406h190z" />
    <glyph glyph-name="O" unicode="O" horiz-adv-x="787" 
d="M206 25.5q-79 40.5 -122.5 116t-43.5 176.5q0 109 51 200t143 144t211 53q103 0 182 -40.5t122.5 -116t43.5 -176.5q0 -109 -51 -200t-143 -144t-211 -53q-103 0 -182 40.5zM511.5 200.5q44.5 30.5 65.5 77.5t21 96q0 72 -43.5 114t-121.5 42q-67 0 -111.5 -30.5
t-65.5 -77.5t-21 -96q0 -72 43.5 -114t121.5 -42q67 0 111.5 30.5z" />
    <glyph glyph-name="P" unicode="P" horiz-adv-x="623" 
d="M594.5 642.5q66.5 -57.5 66.5 -161.5q0 -76 -34.5 -138.5t-106 -99.5t-177.5 -37h-103l-40 -206h-190l136 700h253q129 0 195.5 -57.5zM432.5 399.5q28.5 25.5 28.5 66.5q0 33 -22 49.5t-58 16.5h-78l-31 -158h79q53 0 81.5 25.5z" />
    <glyph glyph-name="Q" unicode="Q" horiz-adv-x="792" 
d="M625 -4l-33 38q-92 -49 -204 -49q-103 0 -182 40.5t-122.5 116t-43.5 176.5q0 109 51 200t143 144t211 53q103 0 182 -40.5t122.5 -116t43.5 -176.5q0 -74 -23.5 -140t-67.5 -119l109 -127h-186zM467 180l-107 124h186l28 -32q24 48 24 102q0 72 -43.5 114t-121.5 42
q-67 0 -111.5 -30.5t-65.5 -77.5t-21 -96q0 -72 43.5 -114t121.5 -42q38 0 67 10z" />
    <glyph glyph-name="R" unicode="R" horiz-adv-x="662" 
d="M621.5 345.5q-47.5 -64.5 -146.5 -89.5l142 -256h-216l-145 285l-1 1l-55 -286h-190l136 700h269q79 0 136 -26.5t87.5 -74.5t30.5 -111q0 -78 -47.5 -142.5zM274 382h87q53 0 79.5 23t26.5 59q0 35 -24 51.5t-61 16.5h-79z" />
    <glyph glyph-name="S" unicode="S" horiz-adv-x="544" 
d="M114.5 12.5q-69.5 26.5 -136.5 78.5l106 152q106 -82 181 -82q24 0 37.5 9t13.5 28q0 13 -8 24t-34 35l-88 82q-82 76 -82 178q0 90 60.5 144t167.5 54q129 0 253 -77l-97 -152q-34 23 -77 39t-77 16q-17 0 -27 -6.5t-10 -18.5t10 -24.5t21 -23t15 -13.5l92 -88
q39 -37 57.5 -80t18.5 -95q0 -103 -67 -154.5t-180 -51.5q-80 0 -149.5 26.5z" />
    <glyph glyph-name="T" unicode="T" horiz-adv-x="550" 
d="M602 526h-174l-102 -526h-192l102 526h-174l34 174h540z" />
    <glyph glyph-name="U" unicode="U" horiz-adv-x="707" 
d="M563.5 68q-83.5 -80 -227.5 -80q-146 0 -215.5 57.5t-69.5 172.5q0 49 14 116l72 366h203l-79 -404q-4 -17 -4 -37q0 -81 86 -81q56 0 86.5 32t41.5 86l79 404h203l-80 -409q-26 -143 -109.5 -223z" />
    <glyph glyph-name="V" unicode="V" horiz-adv-x="753" 
d="M436 0h-209l-136 700h210l58 -472h2l242 472h241z" />
    <glyph glyph-name="W" unicode="W" horiz-adv-x="1128" 
d="M826 0h-158l-70 403h-2l-226 -403h-158l-116 700h211l38 -383h2l215 383h160l69 -383h2l186 383h235z" />
    <glyph glyph-name="X" unicode="X" horiz-adv-x="800" 
d="M558 362l197 -362h-225l-117 222l-203 -222h-255l356 382l-179 318h225l99 -180l169 180h255z" />
    <glyph glyph-name="Y" unicode="Y" horiz-adv-x="723" 
d="M456 232l-45 -232h-190l46 236l-181 464h215l84 -281h2l193 281h239z" />
    <glyph glyph-name="Z" unicode="Z" horiz-adv-x="586" 
d="M605 526l-357 -352h312l-34 -174h-556l34 174l362 352h-266l34 174h505z" />
    <glyph glyph-name="bracketleft" unicode="[" horiz-adv-x="371" 
d="M442 650h-145l-145 -745h145l-23 -120h-290l191 985h290z" />
    <glyph glyph-name="backslash" unicode="\" horiz-adv-x="636" 
d="M552 -97l-131 -43l-304 870l131 43z" />
    <glyph glyph-name="bracketright" unicode="]" horiz-adv-x="371" 
d="M-53 -95h145l145 745h-145l23 120h290l-191 -985h-290z" />
    <glyph glyph-name="asciicircum" unicode="^" 
d="M580 393h-138l-111 253l-111 -253h-138l144 322h210z" />
    <glyph glyph-name="underscore" unicode="_" horiz-adv-x="533" 
d="M450 -145h-513l25 130h513z" />
    <glyph glyph-name="grave" unicode="`" horiz-adv-x="423" 
d="M436 553h-135l-158 154h194z" />
    <glyph glyph-name="a" unicode="a" horiz-adv-x="613" 
d="M67.5 44q-50.5 59 -50.5 160q0 80 31.5 142t89 96.5t131.5 34.5q57 0 96 -21.5t59 -62.5h2l12 69h185l-90 -462h-185l12 59h-2q-59 -74 -153 -74q-87 0 -137.5 59zM359 173q27 27 27 68q0 34 -21.5 54.5t-57.5 20.5q-41 0 -68 -27t-27 -68q0 -34 21.5 -54.5t57.5 -20.5
q41 0 68 27z" />
    <glyph glyph-name="b" unicode="b" horiz-adv-x="618" 
d="M550.5 418q50.5 -59 50.5 -160q0 -80 -31.5 -142t-89 -96.5t-131.5 -34.5q-57 0 -96 21.5t-59 62.5h-2l-12 -69h-185l90 462l46 238h185l-46 -238l-12 -59h2q59 74 153 74q87 0 137.5 -59zM379 173q27 27 27 68q0 34 -21.5 54.5t-57.5 20.5q-41 0 -68 -27t-27 -68
q0 -34 21.5 -54.5t57.5 -20.5q41 0 68 27z" />
    <glyph glyph-name="c" unicode="c" horiz-adv-x="469" 
d="M144 11.5q-58 26.5 -92 79.5t-34 128q0 72 32.5 130.5t96.5 93t156 34.5q108 0 196 -56l-87 -139q-26 16 -51 25.5t-55 9.5q-48 0 -73 -25.5t-25 -63.5q0 -37 23 -59.5t60 -22.5q17 0 39.5 4.5t41.5 13.5l50 -150q-79 -29 -149 -29q-71 0 -129 26.5z" />
    <glyph glyph-name="d" unicode="d" horiz-adv-x="618" 
d="M669 700l-136 -700h-185l12 59h-2q-59 -74 -153 -74q-87 0 -137.5 59t-50.5 160q0 80 31.5 142t89 96.5t131.5 34.5q57 0 96 -21.5t59 -62.5h2l58 307h185zM359 173q27 27 27 68q0 34 -21.5 54.5t-57.5 20.5q-41 0 -68 -27t-27 -68q0 -34 21.5 -54.5t57.5 -20.5
q41 0 68 27z" />
    <glyph glyph-name="e" unicode="e" horiz-adv-x="538" 
d="M514 188h-322q17 -61 99 -61q61 0 132 31l46 -135q-94 -38 -189 -38q-72 0 -131.5 24.5t-95.5 76t-36 128.5q0 67 30.5 126.5t94.5 97.5t157 38q104 0 167 -49t63 -138q0 -42 -15 -101zM359 303q0 25 -18 39t-49 14q-36 0 -60 -19.5t-36 -52.5h161q2 12 2 19z" />
    <glyph glyph-name="f" unicode="f" horiz-adv-x="398" 
d="M358 523.5q-22 -15.5 -31 -59.5v-2h103l-30 -152h-103l-60 -310h-185l60 310h-87l30 152h86l1 3q17 85 47 138t85 80t144 27h63l-33 -171h-19q-49 0 -71 -15.5z" />
    <glyph glyph-name="g" unicode="g" horiz-adv-x="613" 
d="M623 462l-86 -436q-24 -124 -98.5 -182.5t-209.5 -58.5q-119 0 -224 37l54 147q52 -19 92 -27.5t78 -8.5q54 0 84 22t40 70l7 34h-2q-59 -74 -153 -74q-87 0 -137.5 59t-50.5 160q0 80 31.5 142t89 96.5t131.5 34.5q57 0 96 -21.5t59 -62.5h2l12 69h185zM359 173
q27 27 27 68q0 34 -21.5 54.5t-57.5 20.5q-41 0 -68 -27t-27 -68q0 -34 21.5 -54.5t57.5 -20.5q41 0 68 27z" />
    <glyph glyph-name="h" unicode="h" horiz-adv-x="584" 
d="M258 398h2q30 39 68.5 59t89.5 20q65 0 104 -37t39 -113q0 -31 -8 -76l-49 -251h-185l44 224q4 20 4 39q0 65 -56 65q-37 0 -56.5 -25t-28.5 -71l-46 -232h-185l136 700h185z" />
    <glyph glyph-name="i" unicode="i" horiz-adv-x="265" 
d="M180 0h-185l90 462h185zM283 527h-189l34 173h189z" />
    <glyph glyph-name="j" unicode="j" horiz-adv-x="265" 
d="M-76 -31q34 0 53 15t25 47l84 431h184l-86 -441q-23 -121 -84 -172.5t-180 -51.5h-51l33 172h22zM283 527h-189l34 173h189z" />
    <glyph glyph-name="k" unicode="k" horiz-adv-x="593" 
d="M398 234l145 -234h-217l-107 203l-39 -203h-185l136 700h185l-80 -409l152 171h237z" />
    <glyph glyph-name="l" unicode="l" horiz-adv-x="265" 
d="M180 0h-185l136 700h185z" />
    <glyph glyph-name="m" unicode="m" horiz-adv-x="888" 
d="M486 0h-176l43 217q4 20 4 40q0 63 -57 63q-35 0 -54 -24t-27 -68l-44 -228h-185l90 462h179l-14 -73h2q56 88 161 88q64 0 98.5 -28t41.5 -71h2q58 99 170 99q69 0 107.5 -36.5t38.5 -109.5q0 -34 -9 -79l-51 -252h-185l43 217q4 20 4 39q0 64 -57 64q-35 0 -54 -24
t-27 -68z" />
    <glyph glyph-name="n" unicode="n" horiz-adv-x="579" 
d="M243 384h2q33 48 73 70.5t92 22.5q67 0 106.5 -36.5t39.5 -112.5q0 -35 -8 -77l-49 -251h-185l44 224q4 20 4 39q0 65 -56 65q-37 0 -56.5 -25t-28.5 -71l-46 -232h-185l90 462h179z" />
    <glyph glyph-name="o" unicode="o" horiz-adv-x="574" 
d="M86.5 42q-70.5 57 -70.5 166q0 75 35.5 136.5t101 97t152.5 35.5q112 0 182.5 -57t70.5 -166q0 -75 -35.5 -136.5t-101 -97t-152.5 -35.5q-112 0 -182.5 57zM349 175q25 29 25 66q0 38 -23 56.5t-56 18.5q-45 0 -70 -29t-25 -66q0 -38 23 -56.5t56 -18.5q45 0 70 29z" />
    <glyph glyph-name="p" unicode="p" horiz-adv-x="613" 
d="M543.5 420.5q52.5 -56.5 52.5 -162.5q0 -80 -31.5 -142t-89 -96.5t-131.5 -34.5q-57 0 -96.5 21t-58.5 63h-2l-50 -269h-185l128 662h185l-12 -59h2q59 74 153 74q83 0 135.5 -56.5zM376 175q25 29 25 66q0 38 -23 56.5t-56 18.5q-45 0 -70 -29t-25 -66q0 -38 23 -56.5
t56 -18.5q45 0 70 29z" />
    <glyph glyph-name="q" unicode="q" horiz-adv-x="614" 
d="M495 -200h-185l50 259h-2q-59 -74 -153 -74q-87 0 -137.5 59t-50.5 160q0 80 31.5 142t89 96.5t131.5 34.5q57 0 96 -21.5t59 -62.5h2l12 69h185zM359 173q27 27 27 68q0 34 -21.5 54.5t-57.5 20.5q-41 0 -68 -27t-27 -68q0 -34 21.5 -54.5t57.5 -20.5q41 0 68 27z" />
    <glyph glyph-name="r" unicode="r" horiz-adv-x="374" 
d="M383 302h-11q-77 0 -113.5 -31t-50.5 -102l-33 -169h-185l90 462h172l-17 -86h2q31 60 71.5 80t106.5 20h2z" />
    <glyph glyph-name="s" unicode="s" horiz-adv-x="441" 
d="M205 120q24 0 24 14q0 13 -23 26l-48 29q-50 30 -72 63t-22 78q0 73 50 110t141 37q53 0 103 -12.5t109 -38.5l-60 -126q-88 47 -134 47q-24 0 -24 -14q0 -7 4.5 -10.5t23.5 -14.5l42 -24q51 -29 73 -62t22 -83q0 -154 -195 -154q-68 0 -126.5 19t-120.5 59l77 123
q102 -66 156 -66z" />
    <glyph glyph-name="t" unicode="t" horiz-adv-x="386" 
d="M283 235q-4 -16 -4 -31q0 -18 9.5 -25t31.5 -7h16l-33 -172h-85q-65 0 -100 35.5t-35 97.5q0 20 5 48l25 129h-93l30 152h93l36 185h184l-36 -185h99l-30 -152h-98z" />
    <glyph glyph-name="u" unicode="u" horiz-adv-x="582" 
d="M62 21.5q-40 36.5 -40 113.5q0 29 8 72l51 255h193l-41 -211q-5 -22 -5 -47q0 -61 52 -61q33 0 51 24t28 77l42 218h186l-90 -462h-179l16 80h-2q-37 -52 -75.5 -73.5t-87.5 -21.5q-67 0 -107 36.5z" />
    <glyph glyph-name="v" unicode="v" horiz-adv-x="581" 
d="M626 462l-287 -462h-187l-107 462h187l39 -265l138 265h217z" />
    <glyph glyph-name="w" unicode="w" horiz-adv-x="855" 
d="M900 462l-267 -462h-154l-52 234l-141 -234h-153l-88 462h167l37 -229l130 229h166l43 -230l123 230h189z" />
    <glyph glyph-name="x" unicode="x" horiz-adv-x="596" 
d="M407 230l142 -230h-193l-69 112l-113 -112h-219l248 246l-134 216h194l60 -97l98 97h220z" />
    <glyph glyph-name="y" unicode="y" horiz-adv-x="581" 
d="M626 462l-411 -662h-197l165 252l-138 410h188l60 -232l138 232h195z" />
    <glyph glyph-name="z" unicode="z" horiz-adv-x="462" 
d="M461 337l-230 -188h205l-29 -149h-442l26 132l224 182h-169l29 148h409l-24 -125h1z" />
    <glyph glyph-name="braceleft" unicode="{" horiz-adv-x="426" 
d="M493 627h-30q-44 0 -67.5 -14t-30.5 -49l-24 -126q-12 -66 -50 -106.5t-105 -55.5v-2q96 -23 96 -118q0 -18 -5 -45l-22 -115q-2 -12 -2 -18q0 -24 18 -34.5t55 -10.5h32l-29 -148h-40q-80 0 -129 38.5t-49 119.5q0 22 5 47l20 106q3 14 3 26q0 39 -28.5 58t-81.5 22
l29 147q128 3 148 105l23 126q18 99 80 147t162 48h50z" />
    <glyph glyph-name="bar" unicode="|" horiz-adv-x="341" 
d="M207 727h120l-184 -942h-120z" />
    <glyph glyph-name="braceright" unicode="}" horiz-adv-x="426" 
d="M-48 -67h30q44 0 67.5 14t30.5 49l24 126q12 66 50 106.5t105 55.5v2q-96 23 -96 118q0 18 5 45l22 115q2 12 2 18q0 24 -18 34.5t-55 10.5h-32l29 148h40q80 0 129 -38.5t49 -119.5q0 -22 -5 -47l-20 -106q-3 -13 -3 -26q0 -39 28.5 -58t81.5 -22l-29 -147
q-128 -3 -148 -105l-23 -126q-18 -99 -80 -147t-162 -48h-50z" />
    <glyph glyph-name="asciitilde" unicode="~" 
d="M278.5 408.5q28.5 -9.5 64.5 -26.5q28 -13 45 -19t36 -6q27 0 46.5 9t48.5 30l17 12l75 -117q-50 -40 -96.5 -61t-94.5 -21q-34 0 -61 8.5t-64 25.5q-27 13 -46.5 19.5t-39.5 6.5q-29 0 -48.5 -9.5t-38.5 -23t-26 -18.5l-76 116q50 42 97 63t96 21q37 0 65.5 -9.5z" />
    <glyph glyph-name="exclamdown" unicode="&#xa1;" horiz-adv-x="349" 
d="M132 500h186l-37 -188h-186zM113 259h133l-51 -459h-209z" />
    <glyph glyph-name="cent" unicode="&#xa2;" horiz-adv-x="456" 
d="M286 156h10q40 0 116 22l-31 -171q-56 -22 -118 -22h-10l-10 -49h-28l10 51q-86 12 -142 71t-56 156q0 72 33 132t97 95.5t153 35.5h10l11 56h28l-11 -58q65 -5 120 -29l-41 -170q-38 17 -63.5 23.5t-48.5 6.5zM286 304q-39 -6 -56.5 -28t-17.5 -50q0 -53 47 -66z" />
    <glyph glyph-name="sterling" unicode="&#xa3;" horiz-adv-x="578" 
d="M422 459q2 14 2 20q0 28 -15 43t-43 15q-34 0 -51.5 -17t-17.5 -49q0 -18 7 -37t15.5 -36.5t11.5 -22.5h149l-6 -30h-129q13 -31 13 -56q0 -44 -31 -72t-97 -56l1 -6h277l-30 -155h-461l26 134q66 29 100.5 61t34.5 73q0 29 -22 77h-94l6 30h74q-12 28 -18.5 53.5
t-6.5 54.5q0 57 27.5 104t84.5 75t143 28q106 0 165.5 -43.5t59.5 -131.5q0 -23 -5 -56h-170z" />
    <glyph glyph-name="currency" unicode="&#xa4;" 
d="M84 110l57 57q-29 31 -44.5 71t-15.5 85t15.5 85t44.5 71l-57 57l20 20l57 -58q32 27 73 42t87 15q45 0 84.5 -13.5t70.5 -38.5l54 53l20 -20l-53 -52q31 -32 48 -73t17 -88t-17 -88t-48 -73l53 -53l-21 -19l-53 53q-32 -25 -71.5 -38.5t-83.5 -13.5q-93 0 -160 57
l-59 -58zM379 267q22 22 22 55q0 34 -22 56.5t-57 22.5t-57.5 -22t-22.5 -55q0 -34 22 -56.5t57 -22.5q36 0 58 22z" />
    <glyph glyph-name="yen" unicode="&#xa5;" horiz-adv-x="712" 
d="M504 303h115l-6 -30h-131l-41 -56h161l-6 -30h-169l-36 -187h-161l36 187h-168l6 30h162l-20 56h-131l6 30h115l-130 372h180l91 -293l187 293h214z" />
    <glyph glyph-name="brokenbar" unicode="&#xa6;" horiz-adv-x="341" 
d="M251 339h-120l76 388h120zM143 -215h-120l78 396h120z" />
    <glyph glyph-name="section" unicode="&#xa7;" horiz-adv-x="624" 
d="M358.5 510q18.5 -14 62.5 -38q48 -26 79.5 -48t54.5 -57t23 -83q0 -59 -35.5 -106t-96.5 -79q21 -36 21 -80q0 -51 -26 -91.5t-74.5 -63.5t-112.5 -23q-56 0 -108 18t-95 49l90 119q28 -19 59 -31t59 -12q22 0 33 8t11 22q0 19 -19.5 34.5t-61.5 38.5q-49 27 -80 49
t-54 57.5t-23 84.5q0 61 36 107.5t96 74.5q-21 36 -21 79q0 50 26.5 90t74.5 63t112 23q56 0 108 -18t95 -49l-90 -119q-28 19 -59 31t-59 12q-22 0 -33 -8t-11 -21q0 -19 18.5 -33zM241 250.5q14 -15.5 31.5 -25.5t60.5 -33q35 15 59 35.5t24 45.5q0 24 -21.5 41.5
t-65.5 42.5q-11 5 -19 10q-83 -33 -83 -81q0 -20 14 -35.5z" />
    <glyph glyph-name="dieresis" unicode="&#xa8;" horiz-adv-x="437" 
d="M139 690h139l-28 -145h-139zM337 690h139l-28 -145h-139z" />
    <glyph glyph-name="copyright" unicode="&#xa9;" horiz-adv-x="851" 
d="M637 668.5q84 -46.5 131.5 -130t47.5 -191.5q0 -104 -47.5 -186.5t-131.5 -129t-189 -46.5q-103 0 -187 46.5t-132 130.5t-48 191q0 104 48 186.5t132 129t188 46.5t188 -46.5zM306 597.5q-64 -35.5 -101 -100t-37 -145.5q0 -84 37 -148.5t101 -100t142 -35.5
q79 0 143 35.5t101 99.5t37 145q0 84 -37 148.5t-100.5 100.5t-142.5 36t-143 -35.5zM540 568.5q36 -12.5 71 -35.5l-50 -97q-34 18 -54.5 26.5t-49.5 8.5q-51 0 -83.5 -33t-32.5 -83q0 -52 32.5 -85t82.5 -33q29 0 50.5 8.5t54.5 26.5l50 -98q-36 -22 -72 -34.5t-80 -12.5
q-68 0 -122.5 30t-85.5 82t-31 116q0 63 31 114.5t85.5 81.5t122.5 30q45 0 81 -12.5z" />
    <glyph glyph-name="ordfeminine" unicode="&#xaa;" horiz-adv-x="432" 
d="M148 354q-29 16 -47 48.5t-18 80.5q0 49 20 90.5t57.5 66t86.5 24.5q41 0 67.5 -18t38.5 -48h1l10 56h120l-59 -306h-120l9 48h-1q-41 -58 -103 -58q-33 0 -62 16zM313 464q17 19 17 43q0 22 -14 36t-38 14q-28 0 -45 -19t-17 -43q0 -22 14 -36t38 -14q28 0 45 19z" />
    <glyph glyph-name="guillemotleft" unicode="&#xab;" horiz-adv-x="674" 
d="M203 222l128 -168h-176l-138 186l210 186h211zM467 222l128 -168h-176l-138 186l210 186h211z" />
    <glyph glyph-name="logicalnot" unicode="&#xac;" 
d="M470 167l-1 191h-385v74h457v-5l1 -260h-72z" />
    <glyph glyph-name="uni00AD" unicode="&#xad;" horiz-adv-x="361" 
d="M57 346h291l-31 -160h-291z" />
    <glyph glyph-name="registered" unicode="&#xae;" horiz-adv-x="609" 
d="M478 683q57 -32 89 -89.5t32 -129.5t-32 -129.5t-89 -89.5t-128 -32t-128 32t-89 89.5t-32 129.5t32 129.5t89 89.5t128 32t128 -32zM477 335q47 50 47 129t-47 129t-127 50t-127 -50t-47 -129t47 -129t127 -50t127 50zM406 437l60 -95h-74l-51 89h-13v-89h-65v260h105
q43 0 68 -22t25 -62q0 -63 -55 -81zM328 492h33q29 0 29 25q0 12 -8 18t-21 6h-33v-49z" />
    <glyph glyph-name="macron" unicode="&#xaf;" horiz-adv-x="433" 
d="M447 564h-332l23 116h332z" />
    <glyph glyph-name="degree" unicode="&#xb0;" horiz-adv-x="411" 
d="M374.5 647.5q43.5 -42.5 43.5 -109.5q0 -65 -43.5 -107.5t-108.5 -42.5q-66 0 -109.5 43t-43.5 109q0 65 43 107.5t110 42.5q65 0 108.5 -42.5zM214 591.5q-21 -20.5 -21 -52.5t21 -52.5t51 -20.5q31 0 52 20.5t21 52.5t-21 52.5t-51 20.5q-31 0 -52 -20.5z" />
    <glyph glyph-name="plusminus" unicode="&#xb1;" 
d="M342 400h199v-78h-199l1 -122h-81l-1 122h-199v78h199v122h81v-122zM541 79h-479v74h479v-74z" />
    <glyph glyph-name="uni00B2" unicode="&#xb2;" horiz-adv-x="418" 
d="M425.5 772.5q46.5 -30.5 46.5 -92.5q0 -35 -14.5 -61.5t-39.5 -47t-70 -51.5l-58 -39h143l-26 -133h-345l22 116l164 120q38 28 53.5 43.5t15.5 31.5q0 11 -8 16t-20 5q-16 0 -26 -9t-13 -24h-144q10 72 54 114t141 42q78 0 124.5 -30.5z" />
    <glyph glyph-name="uni00B3" unicode="&#xb3;" horiz-adv-x="392" 
d="M403 775q46 -28 46 -88q0 -42 -24.5 -70.5t-77.5 -35.5v-2q77 -7 77 -89q0 -60 -40.5 -106t-146.5 -46q-80 0 -127.5 31.5t-47.5 97.5q0 19 2 30h140v-4q0 -11 10.5 -18t29.5 -7q23 0 32 9t9 20q0 15 -15 21.5t-50 6.5l18 92q59 0 59 35q0 24 -30 24q-29 0 -34 -24h-140
q7 65 53.5 108t139.5 43q71 0 117 -28z" />
    <glyph glyph-name="acute" unicode="&#xb4;" horiz-adv-x="407" 
d="M253 553h-140l158 154h194z" />
    <glyph glyph-name="uni00B5" unicode="&#xb5;" 
d="M598 462l-90 -462h-179l16 80h-2q-37 -52 -75.5 -73.5t-87.5 -21.5h-9l-36 -185h-172l129 662h193l-41 -211q-5 -22 -5 -47q0 -61 52 -61q33 0 51 24t28 77l42 218h186z" />
    <glyph glyph-name="paragraph" unicode="&#xb6;" horiz-adv-x="697" 
d="M711 565h-69l-130 -671h-125l130 671h-80l-130 -671h-125l81 416q-71 0 -115.5 45t-44.5 118q0 108 66 167.5t180 59.5h389z" />
    <glyph glyph-name="periodcentered" unicode="&#xb7;" horiz-adv-x="256" 
d="M229 273h-186l37 188h186z" />
    <glyph glyph-name="cedilla" unicode="&#xb8;" horiz-adv-x="306" 
d="M111 -37q40 -5 60 -20.5t20 -38.5q0 -28 -21.5 -46.5t-57 -31t-104.5 -31.5q-5 -1 -11.5 -3t-13.5 -4l-11 43q54 21 71 30.5t17 20.5q0 10 -9.5 14.5t-32.5 8.5l83 138h59z" />
    <glyph glyph-name="uni00B9" unicode="&#xb9;" horiz-adv-x="311" 
d="M238 348h-149l59 303h-11l28 143h160z" />
    <glyph glyph-name="ordmasculine" unicode="&#xba;" horiz-adv-x="422" 
d="M399 623q45 -41 45 -109q0 -48 -23 -88t-67 -64t-103 -24q-78 0 -123 41t-45 109q0 48 23 88t67 64t103 24q78 0 123 -41zM223.5 536.5q-16.5 -18.5 -16.5 -43.5q0 -21 13.5 -33.5t36.5 -12.5q30 0 46.5 18.5t16.5 43.5q0 21 -13.5 33.5t-36.5 12.5q-30 0 -46.5 -18.5z
" />
    <glyph glyph-name="guillemotright" unicode="&#xbb;" horiz-adv-x="674" 
d="M211 258l-128 168h176l138 -186l-210 -186h-211zM475 258l-128 168h176l138 -186l-210 -186h-211z" />
    <glyph glyph-name="onequarter" unicode="&#xbc;" horiz-adv-x="788" 
d="M200 289h-102l56 286h-22l19 100h124zM608 675h90l-529 -675h-90zM709 149h38l-18 -91h-38l-11 -58h-93l11 58h-190l18 91l244 237h85zM616 149l21 108h-2l-114 -108h95z" />
    <glyph glyph-name="onehalf" unicode="&#xbd;" horiz-adv-x="824" 
d="M200 289h-102l56 286h-22l19 100h124zM608 675h90l-529 -675h-90zM756 369.5q38 -25.5 38 -76.5q0 -43 -27.5 -76t-80.5 -70l-73 -51h141l-19 -96h-282l14 74l155 127q38 31 51 47t13 29q0 28 -35 28q-41 0 -50 -43h-97q8 66 44.5 99.5t110.5 33.5q59 0 97 -25.5z" />
    <glyph glyph-name="threequarters" unicode="&#xbe;" horiz-adv-x="875" 
d="M334 658q36 -26 36 -72q0 -38 -23.5 -62t-67.5 -33v-2q34 -5 51.5 -26t17.5 -56q0 -51 -35.5 -89t-114.5 -38q-66 0 -104.5 28.5t-38.5 82.5q0 17 2 26h97v-8q0 -39 46 -39q25 0 39 10.5t14 32.5t-21 30t-64 8l12 74q84 1 84 39q0 15 -9 22.5t-25 7.5q-20 0 -33.5 -10.5
t-15.5 -29.5h-98q7 60 45.5 95t109.5 35q60 0 96 -26zM695 675h90l-529 -675h-90zM796 149h38l-18 -91h-38l-11 -58h-93l11 58h-190l18 91l244 237h85zM703 149l21 108h-2l-114 -108h95z" />
    <glyph glyph-name="questiondown" unicode="&#xbf;" horiz-adv-x="496" 
d="M216 501h186l-37 -188h-186zM23.5 -173q-60.5 41 -60.5 120q0 51 27 92.5t79 81.5q6 4 31.5 23.5t43.5 46.5t25 60l2 10h183l-6 -29q-20 -100 -109 -162l-19 -12q-30 -20 -44.5 -34.5t-14.5 -34.5q0 -17 12.5 -26t35.5 -9q30 0 44.5 16t19.5 44h175
q-15 -109 -77.5 -168.5t-185.5 -59.5q-101 0 -161.5 41z" />
    <glyph glyph-name="Agrave" unicode="&#xc0;" horiz-adv-x="745" 
d="M481 131h-239l-68 -131h-219l408 700h202l135 -700h-202zM462 281l-29 220l-114 -220h143zM559 743h-131l-164 120h190z" />
    <glyph glyph-name="Aacute" unicode="&#xc1;" horiz-adv-x="745" 
d="M481 131h-239l-68 -131h-219l408 700h202l135 -700h-202zM462 281l-29 220l-114 -220h143zM514 743h-131l151 120h190z" />
    <glyph glyph-name="Acircumflex" unicode="&#xc2;" horiz-adv-x="745" 
d="M481 131h-239l-68 -131h-219l408 700h202l135 -700h-202zM462 281l-29 220l-114 -220h143zM665 743h-150l-46 63l-69 -63h-150l143 120h175z" />
    <glyph glyph-name="Atilde" unicode="&#xc3;" horiz-adv-x="745" 
d="M481 131h-239l-68 -131h-219l408 700h202l135 -700h-202zM462 281l-29 220l-114 -220h143zM699 863q-29 -62 -62 -94.5t-80 -32.5q-24 0 -49 7t-65 21q-4 1 -29 9.5t-39 8.5q-17 0 -32 -11t-32 -30l-50 19q29 62 62 94.5t80 32.5q24 0 49 -7t65 -21q4 -1 29 -9.5t39 -8.5
q17 0 32 11t32 30z" />
    <glyph glyph-name="Adieresis" unicode="&#xc4;" horiz-adv-x="745" 
d="M481 131h-239l-68 -131h-219l408 700h202l135 -700h-202zM462 281l-29 220l-114 -220h143zM425 743h-151l23 120h151zM646 743h-151l23 120h151z" />
    <glyph glyph-name="Aring" unicode="&#xc5;" horiz-adv-x="745" 
d="M481 131h-239l-68 -131h-219l401 688q-9 21 -9 48q0 55 38.5 91.5t95.5 36.5q50 0 79.5 -28.5t29.5 -77.5q0 -41 -22 -72l132 -686h-202zM436 778q-15 -16 -15 -39q0 -18 11.5 -28.5t31.5 -10.5q22 0 37 16t15 39q0 18 -11.5 28.5t-31.5 10.5q-22 0 -37 -16zM462 281
l-29 220l-114 -220h143z" />
    <glyph glyph-name="AE" unicode="&#xc6;" horiz-adv-x="1060" 
d="M836 526l-16 -83h205l-32 -165h-205l-20 -104h251l-34 -174h-436l25 131h-268l-108 -131h-243l602 700h549l-34 -174h-236zM604 281l53 273l-226 -273h173z" />
    <glyph glyph-name="Ccedilla" unicode="&#xc7;" horiz-adv-x="682" 
d="M394 -15l-13 -22q40 -5 60 -20.5t20 -38.5q0 -28 -21.5 -46.5t-57 -31t-104.5 -31.5q-5 -1 -11.5 -3t-13.5 -4l-11 43q54 21 71 30.5t17 20.5q0 10 -9.5 14.5t-32.5 8.5l50 83q-90 11 -157 56.5t-103.5 118t-36.5 163.5q0 109 51 197.5t146.5 140t222.5 51.5
q80 0 149 -20.5t119 -53.5l-110 -159q-73 48 -160 48q-71 0 -121.5 -27t-76 -72.5t-25.5 -99.5q0 -74 46 -117.5t119 -43.5q76 0 163 47l78 -164q-119 -68 -247 -68h-1z" />
    <glyph glyph-name="Egrave" unicode="&#xc8;" horiz-adv-x="546" 
d="M302 526l-16 -83h225l-32 -165h-225l-20 -104h271l-34 -174h-461l136 700h446l-34 -174h-256zM481 743h-131l-164 120h190z" />
    <glyph glyph-name="Eacute" unicode="&#xc9;" horiz-adv-x="546" 
d="M302 526l-16 -83h225l-32 -165h-225l-20 -104h271l-34 -174h-461l136 700h446l-34 -174h-256zM436 743h-131l151 120h190z" />
    <glyph glyph-name="Ecircumflex" unicode="&#xca;" horiz-adv-x="546" 
d="M302 526l-16 -83h225l-32 -165h-225l-20 -104h271l-34 -174h-461l136 700h446l-34 -174h-256zM587 743h-150l-46 63l-69 -63h-150l143 120h175z" />
    <glyph glyph-name="Edieresis" unicode="&#xcb;" horiz-adv-x="546" 
d="M302 526l-16 -83h225l-32 -165h-225l-20 -104h271l-34 -174h-461l136 700h446l-34 -174h-256zM347 743h-151l23 120h151zM568 743h-151l23 120h151z" />
    <glyph glyph-name="Igrave" unicode="&#xcc;" horiz-adv-x="300" 
d="M200 0h-190l136 700h190zM336 743h-131l-164 120h190z" />
    <glyph glyph-name="Iacute" unicode="&#xcd;" horiz-adv-x="300" 
d="M200 0h-190l136 700h190zM291 743h-131l151 120h190z" />
    <glyph glyph-name="Icircumflex" unicode="&#xce;" horiz-adv-x="300" 
d="M200 0h-190l136 700h190zM442 743h-150l-46 63l-69 -63h-150l143 120h175z" />
    <glyph glyph-name="Idieresis" unicode="&#xcf;" horiz-adv-x="300" 
d="M200 0h-190l136 700h190zM202 743h-151l23 120h151zM423 743h-151l23 120h151z" />
    <glyph glyph-name="Eth" unicode="&#xd0;" horiz-adv-x="683" 
d="M539.5 662q73.5 -38 112.5 -108.5t39 -167.5q0 -108 -53.5 -196t-155.5 -139t-241 -51h-239l58 296h-62l26 136h62l52 268h229q99 0 172.5 -38zM398.5 199q50.5 29 76 78.5t25.5 111.5q0 69 -41 105t-114 36h-50l-19 -98h112l-26 -136h-112l-25 -126h50q73 0 123.5 29z
" />
    <glyph glyph-name="Ntilde" unicode="&#xd1;" horiz-adv-x="780" 
d="M680 0h-148l-251 406h-2l-79 -406h-190l136 700h148l251 -406h2l79 406h190zM714 863q-29 -62 -62 -94.5t-80 -32.5q-24 0 -49 7t-65 21q-4 1 -29 9.5t-39 8.5q-17 0 -32 -11t-32 -30l-50 19q29 62 62 94.5t80 32.5q24 0 49 -7t65 -21q4 -1 29 -9.5t39 -8.5q17 0 32 11
t32 30z" />
    <glyph glyph-name="Ograve" unicode="&#xd2;" horiz-adv-x="787" 
d="M206 25.5q-79 40.5 -122.5 116t-43.5 176.5q0 109 51 200t143 144t211 53q103 0 182 -40.5t122.5 -116t43.5 -176.5q0 -109 -51 -200t-143 -144t-211 -53q-103 0 -182 40.5zM511.5 200.5q44.5 30.5 65.5 77.5t21 96q0 72 -43.5 114t-121.5 42q-67 0 -111.5 -30.5
t-65.5 -77.5t-21 -96q0 -72 43.5 -114t121.5 -42q67 0 111.5 30.5zM552 743h-131l-164 120h190z" />
    <glyph glyph-name="Oacute" unicode="&#xd3;" horiz-adv-x="787" 
d="M206 25.5q-79 40.5 -122.5 116t-43.5 176.5q0 109 51 200t143 144t211 53q103 0 182 -40.5t122.5 -116t43.5 -176.5q0 -109 -51 -200t-143 -144t-211 -53q-103 0 -182 40.5zM511.5 200.5q44.5 30.5 65.5 77.5t21 96q0 72 -43.5 114t-121.5 42q-67 0 -111.5 -30.5
t-65.5 -77.5t-21 -96q0 -72 43.5 -114t121.5 -42q67 0 111.5 30.5zM507 743h-131l151 120h190z" />
    <glyph glyph-name="Ocircumflex" unicode="&#xd4;" horiz-adv-x="787" 
d="M206 25.5q-79 40.5 -122.5 116t-43.5 176.5q0 109 51 200t143 144t211 53q103 0 182 -40.5t122.5 -116t43.5 -176.5q0 -109 -51 -200t-143 -144t-211 -53q-103 0 -182 40.5zM511.5 200.5q44.5 30.5 65.5 77.5t21 96q0 72 -43.5 114t-121.5 42q-67 0 -111.5 -30.5
t-65.5 -77.5t-21 -96q0 -72 43.5 -114t121.5 -42q67 0 111.5 30.5zM658 743h-150l-46 63l-69 -63h-150l143 120h175z" />
    <glyph glyph-name="Otilde" unicode="&#xd5;" horiz-adv-x="787" 
d="M206 25.5q-79 40.5 -122.5 116t-43.5 176.5q0 109 51 200t143 144t211 53q103 0 182 -40.5t122.5 -116t43.5 -176.5q0 -109 -51 -200t-143 -144t-211 -53q-103 0 -182 40.5zM511.5 200.5q44.5 30.5 65.5 77.5t21 96q0 72 -43.5 114t-121.5 42q-67 0 -111.5 -30.5
t-65.5 -77.5t-21 -96q0 -72 43.5 -114t121.5 -42q67 0 111.5 30.5zM692 863q-29 -62 -62 -94.5t-80 -32.5q-24 0 -49 7t-65 21q-4 1 -29 9.5t-39 8.5q-17 0 -32 -11t-32 -30l-50 19q29 62 62 94.5t80 32.5q24 0 49 -7t65 -21q4 -1 29 -9.5t39 -8.5q17 0 32 11t32 30z" />
    <glyph glyph-name="Odieresis" unicode="&#xd6;" horiz-adv-x="787" 
d="M206 25.5q-79 40.5 -122.5 116t-43.5 176.5q0 109 51 200t143 144t211 53q103 0 182 -40.5t122.5 -116t43.5 -176.5q0 -109 -51 -200t-143 -144t-211 -53q-103 0 -182 40.5zM511.5 200.5q44.5 30.5 65.5 77.5t21 96q0 72 -43.5 114t-121.5 42q-67 0 -111.5 -30.5
t-65.5 -77.5t-21 -96q0 -72 43.5 -114t121.5 -42q67 0 111.5 30.5zM418 743h-151l23 120h151zM639 743h-151l23 120h151z" />
    <glyph glyph-name="multiply" unicode="&#xd7;" 
d="M540 469l-171 -171l171 -170l-56 -57l-171 171l-171 -170l-55 55l170 171l-171 171l57 56l170 -171l171 171z" />
    <glyph glyph-name="Oslash" unicode="&#xd8;" horiz-adv-x="787" 
d="M793 382q0 -109 -51 -200t-143 -144t-211 -53q-131 0 -222 65l-61 -64l-42 36l62 64q-41 43 -63 102t-22 130q0 109 51 200t143 144t211 53q132 0 222 -65l62 64l42 -36l-62 -65q84 -90 84 -231zM263 230l267 277q-40 23 -97 23q-67 0 -111.5 -30.5t-65.5 -77.5t-21 -96
q0 -57 28 -96zM511.5 200.5q44.5 30.5 65.5 77.5t21 96q0 58 -28 96l-266 -277q40 -23 96 -23q67 0 111.5 30.5z" />
    <glyph glyph-name="Ugrave" unicode="&#xd9;" horiz-adv-x="707" 
d="M563.5 68q-83.5 -80 -227.5 -80q-146 0 -215.5 57.5t-69.5 172.5q0 49 14 116l72 366h203l-79 -404q-4 -17 -4 -37q0 -81 86 -81q56 0 86.5 32t41.5 86l79 404h203l-80 -409q-26 -143 -109.5 -223zM540 743h-131l-164 120h190z" />
    <glyph glyph-name="Uacute" unicode="&#xda;" horiz-adv-x="707" 
d="M563.5 68q-83.5 -80 -227.5 -80q-146 0 -215.5 57.5t-69.5 172.5q0 49 14 116l72 366h203l-79 -404q-4 -17 -4 -37q0 -81 86 -81q56 0 86.5 32t41.5 86l79 404h203l-80 -409q-26 -143 -109.5 -223zM495 743h-131l151 120h190z" />
    <glyph glyph-name="Ucircumflex" unicode="&#xdb;" horiz-adv-x="707" 
d="M563.5 68q-83.5 -80 -227.5 -80q-146 0 -215.5 57.5t-69.5 172.5q0 49 14 116l72 366h203l-79 -404q-4 -17 -4 -37q0 -81 86 -81q56 0 86.5 32t41.5 86l79 404h203l-80 -409q-26 -143 -109.5 -223zM646 743h-150l-46 63l-69 -63h-150l143 120h175z" />
    <glyph glyph-name="Udieresis" unicode="&#xdc;" horiz-adv-x="707" 
d="M563.5 68q-83.5 -80 -227.5 -80q-146 0 -215.5 57.5t-69.5 172.5q0 49 14 116l72 366h203l-79 -404q-4 -17 -4 -37q0 -81 86 -81q56 0 86.5 32t41.5 86l79 404h203l-80 -409q-26 -143 -109.5 -223zM406 743h-151l23 120h151zM627 743h-151l23 120h151z" />
    <glyph glyph-name="Yacute" unicode="&#xdd;" horiz-adv-x="723" 
d="M456 232l-45 -232h-190l46 236l-181 464h215l84 -281h2l193 281h239zM491 743h-131l151 120h190z" />
    <glyph glyph-name="Thorn" unicode="&#xde;" horiz-adv-x="640" 
d="M320 607h86q124 0 185 -55t61 -146q0 -83 -37 -151.5t-114.5 -109.5t-192.5 -41h-86l-20 -104h-192l136 700h192zM288 443l-34 -175h86q54 0 87.5 27.5t33.5 78.5q0 34 -23 51.5t-64 17.5h-86z" />
    <glyph glyph-name="germandbls" unicode="&#xdf;" horiz-adv-x="642" 
d="M621 227q0 -98 -75.5 -165t-255.5 -67h-69l32 165h40q77 0 112.5 19.5t35.5 56.5q0 35 -31.5 49t-101.5 14l26 132q52 0 76.5 22.5t24.5 55.5q0 28 -18 44t-51 16q-39 0 -61.5 -23.5t-31.5 -71.5l-117 -604h-186l120 616q20 103 86 166t201 63q119 0 177.5 -48.5
t58.5 -122.5q0 -59 -37 -103.5t-105 -58.5v-2q150 -15 150 -153z" />
    <glyph glyph-name="agrave" unicode="&#xe0;" horiz-adv-x="613" 
d="M67.5 44q-50.5 59 -50.5 160q0 80 31.5 142t89 96.5t131.5 34.5q57 0 96 -21.5t59 -62.5h2l12 69h185l-90 -462h-185l12 59h-2q-59 -74 -153 -74q-87 0 -137.5 59zM359 173q27 27 27 68q0 34 -21.5 54.5t-57.5 20.5q-41 0 -68 -27t-27 -68q0 -34 21.5 -54.5t57.5 -20.5
q41 0 68 27zM449 553h-135l-158 154h194z" />
    <glyph glyph-name="aacute" unicode="&#xe1;" horiz-adv-x="613" 
d="M67.5 44q-50.5 59 -50.5 160q0 80 31.5 142t89 96.5t131.5 34.5q57 0 96 -21.5t59 -62.5h2l12 69h185l-90 -462h-185l12 59h-2q-59 -74 -153 -74q-87 0 -137.5 59zM359 173q27 27 27 68q0 34 -21.5 54.5t-57.5 20.5q-41 0 -68 -27t-27 -68q0 -34 21.5 -54.5t57.5 -20.5
q41 0 68 27zM430 553h-140l158 154h194z" />
    <glyph glyph-name="acircumflex" unicode="&#xe2;" horiz-adv-x="613" 
d="M67.5 44q-50.5 59 -50.5 160q0 80 31.5 142t89 96.5t131.5 34.5q57 0 96 -21.5t59 -62.5h2l12 69h185l-90 -462h-185l12 59h-2q-59 -74 -153 -74q-87 0 -137.5 59zM359 173q27 27 27 68q0 34 -21.5 54.5t-57.5 20.5q-41 0 -68 -27t-27 -68q0 -34 21.5 -54.5t57.5 -20.5
q41 0 68 27zM582 553h-140l-45 76l-77 -76h-154l151 154h174z" />
    <glyph glyph-name="atilde" unicode="&#xe3;" horiz-adv-x="613" 
d="M67.5 44q-50.5 59 -50.5 160q0 80 31.5 142t89 96.5t131.5 34.5q57 0 96 -21.5t59 -62.5h2l12 69h185l-90 -462h-185l12 59h-2q-59 -74 -153 -74q-87 0 -137.5 59zM359 173q27 27 27 68q0 34 -21.5 54.5t-57.5 20.5q-41 0 -68 -27t-27 -68q0 -34 21.5 -54.5t57.5 -20.5
q41 0 68 27zM429 684q45 -17 62 -17q33 0 64 46l62 -24q-34 -73 -69 -110t-85 -37q-23 0 -47 6.5t-57 18.5q-18 7 -35 12t-28 5q-18 0 -33 -12.5t-30 -33.5l-62 24q34 73 69.5 110t84.5 37q37 0 104 -25z" />
    <glyph glyph-name="adieresis" unicode="&#xe4;" horiz-adv-x="613" 
d="M67.5 44q-50.5 59 -50.5 160q0 80 31.5 142t89 96.5t131.5 34.5q57 0 96 -21.5t59 -62.5h2l12 69h185l-90 -462h-185l12 59h-2q-59 -74 -153 -74q-87 0 -137.5 59zM359 173q27 27 27 68q0 34 -21.5 54.5t-57.5 20.5q-41 0 -68 -27t-27 -68q0 -34 21.5 -54.5t57.5 -20.5
q41 0 68 27zM237 690h139l-28 -145h-139zM435 690h139l-28 -145h-139z" />
    <glyph glyph-name="aring" unicode="&#xe5;" horiz-adv-x="613" 
d="M67.5 44q-50.5 59 -50.5 160q0 80 31.5 142t89 96.5t131.5 34.5q57 0 96 -21.5t59 -62.5h2l12 69h185l-90 -462h-185l12 59h-2q-59 -74 -153 -74q-87 0 -137.5 59zM359 173q27 27 27 68q0 34 -21.5 54.5t-57.5 20.5q-41 0 -68 -27t-27 -68q0 -34 21.5 -54.5t57.5 -20.5
q41 0 68 27zM479.5 718.5q29.5 -28.5 29.5 -77.5q0 -55 -38.5 -91.5t-95.5 -36.5q-50 0 -79.5 28.5t-29.5 77.5q0 55 38.5 91.5t95.5 36.5q50 0 79.5 -28.5zM355 661q-15 -16 -15 -39q0 -18 11.5 -28.5t31.5 -10.5q22 0 37 16t15 39q0 18 -11.5 28.5t-31.5 10.5
q-22 0 -37 -16z" />
    <glyph glyph-name="ae" unicode="&#xe6;" horiz-adv-x="848" 
d="M49 26.5q-48 41.5 -48 113.5q0 78 55 125.5t143 47.5q55 0 93.5 -18.5t54.5 -49.5h2q0 6 1 12.5t2 11.5q2 16 2 22q0 31 -21.5 46t-70.5 15q-44 0 -128 -12l-25 121q104 16 172 16q77 0 121 -19.5t58 -66.5h2q25 41 70 63t105 22q86 0 143 -46.5t57 -144.5q0 -36 -13 -97
h-313q7 -41 32 -53.5t62 -12.5q32 0 62.5 6t65.5 20l42 -129q-92 -34 -182 -34q-66 0 -120 22t-83 72h-2q-73 -94 -203 -94q-88 0 -136 41.5zM668 283q1 5 1 15q0 27 -16.5 41.5t-45.5 14.5q-34 0 -55 -19.5t-26 -51.5h142zM316 126q17 15 17 36q0 20 -15 32.5t-42 12.5
q-30 0 -47 -15t-17 -36q0 -20 15 -32.5t42 -12.5q30 0 47 15z" />
    <glyph glyph-name="ccedilla" unicode="&#xe7;" horiz-adv-x="469" 
d="M294 -14l-14 -23q40 -5 60 -20.5t20 -38.5q0 -28 -21.5 -46.5t-57 -31t-104.5 -31.5q-5 -1 -11.5 -3t-13.5 -4l-11 43q54 21 71 30.5t17 20.5q0 10 -9.5 14.5t-32.5 8.5l49 82q-96 10 -157 70t-61 162q0 72 32.5 130.5t96.5 93t156 34.5q108 0 196 -56l-87 -139
q-26 16 -51 25.5t-55 9.5q-48 0 -73 -25.5t-25 -63.5q0 -37 23 -59.5t60 -22.5q17 0 39.5 4.5t41.5 13.5l50 -150q-66 -25 -128 -28z" />
    <glyph glyph-name="egrave" unicode="&#xe8;" horiz-adv-x="538" 
d="M514 188h-322q17 -61 99 -61q61 0 132 31l46 -135q-94 -38 -189 -38q-72 0 -131.5 24.5t-95.5 76t-36 128.5q0 67 30.5 126.5t94.5 97.5t157 38q104 0 167 -49t63 -138q0 -42 -15 -101zM359 303q0 25 -18 39t-49 14q-36 0 -60 -19.5t-36 -52.5h161q2 12 2 19zM408 553
h-135l-158 154h194z" />
    <glyph glyph-name="eacute" unicode="&#xe9;" horiz-adv-x="538" 
d="M514 188h-322q17 -61 99 -61q61 0 132 31l46 -135q-94 -38 -189 -38q-72 0 -131.5 24.5t-95.5 76t-36 128.5q0 67 30.5 126.5t94.5 97.5t157 38q104 0 167 -49t63 -138q0 -42 -15 -101zM359 303q0 25 -18 39t-49 14q-36 0 -60 -19.5t-36 -52.5h161q2 12 2 19zM389 553
h-140l158 154h194z" />
    <glyph glyph-name="ecircumflex" unicode="&#xea;" horiz-adv-x="538" 
d="M514 188h-322q17 -61 99 -61q61 0 132 31l46 -135q-94 -38 -189 -38q-72 0 -131.5 24.5t-95.5 76t-36 128.5q0 67 30.5 126.5t94.5 97.5t157 38q104 0 167 -49t63 -138q0 -42 -15 -101zM359 303q0 25 -18 39t-49 14q-36 0 -60 -19.5t-36 -52.5h161q2 12 2 19zM541 553
h-140l-45 76l-77 -76h-154l151 154h174z" />
    <glyph glyph-name="edieresis" unicode="&#xeb;" horiz-adv-x="538" 
d="M514 188h-322q17 -61 99 -61q61 0 132 31l46 -135q-94 -38 -189 -38q-72 0 -131.5 24.5t-95.5 76t-36 128.5q0 67 30.5 126.5t94.5 97.5t157 38q104 0 167 -49t63 -138q0 -42 -15 -101zM359 303q0 25 -18 39t-49 14q-36 0 -60 -19.5t-36 -52.5h161q2 12 2 19zM196 690
h139l-28 -145h-139zM394 690h139l-28 -145h-139z" />
    <glyph glyph-name="igrave" unicode="&#xec;" horiz-adv-x="265" 
d="M260 553h-134l-82 154h157zM180 0h-185l90 462h185z" />
    <glyph glyph-name="iacute" unicode="&#xed;" horiz-adv-x="265" 
d="M265 553h-150l118 154h174zM180 0h-185l90 462h185z" />
    <glyph glyph-name="icircumflex" unicode="&#xee;" horiz-adv-x="265" 
d="M368 553h-135l-14 86l-48 -86h-148l115 154h174zM180 0h-185l90 462h185z" />
    <glyph glyph-name="idieresis" unicode="&#xef;" horiz-adv-x="265" 
d="M74 690h128l-28 -145h-128zM252 690h128l-28 -145h-128zM180 0h-185l90 462h185z" />
    <glyph glyph-name="eth" unicode="&#xf0;" horiz-adv-x="585" 
d="M575 378q0 -128 -39 -216.5t-109.5 -132.5t-165.5 -44q-66 0 -121.5 27.5t-88.5 79.5t-33 124q0 73 31 132.5t87.5 94t129.5 34.5q49 0 93 -21.5t61 -64.5h2q2 22 2 32q0 17 -3 33q-13 73 -65 113l-82 -62l-52 67l46 34q-35 9 -80 15l40 139q106 -12 178 -50l92 68
l50 -68l-70 -52q97 -94 97 -282zM343 175q26 28 26 67t-24.5 58t-59.5 19q-44 0 -70 -28t-26 -67t24.5 -58t59.5 -19q44 0 70 28z" />
    <glyph glyph-name="ntilde" unicode="&#xf1;" horiz-adv-x="579" 
d="M243 384h2q33 48 73 70.5t92 22.5q67 0 106.5 -36.5t39.5 -112.5q0 -35 -8 -77l-49 -251h-185l44 224q4 20 4 39q0 65 -56 65q-37 0 -56.5 -25t-28.5 -71l-46 -232h-185l90 462h179zM386 684q45 -17 62 -17q33 0 64 46l62 -24q-34 -73 -69 -110t-85 -37q-23 0 -47 6.5
t-57 18.5q-18 7 -35 12t-28 5q-18 0 -33 -12.5t-30 -33.5l-62 24q34 73 69.5 110t84.5 37q37 0 104 -25z" />
    <glyph glyph-name="ograve" unicode="&#xf2;" horiz-adv-x="574" 
d="M86.5 42q-70.5 57 -70.5 166q0 75 35.5 136.5t101 97t152.5 35.5q112 0 182.5 -57t70.5 -166q0 -75 -35.5 -136.5t-101 -97t-152.5 -35.5q-112 0 -182.5 57zM349 175q25 29 25 66q0 38 -23 56.5t-56 18.5q-45 0 -70 -29t-25 -66q0 -38 23 -56.5t56 -18.5q45 0 70 29z
M411 553h-135l-158 154h194z" />
    <glyph glyph-name="oacute" unicode="&#xf3;" horiz-adv-x="574" 
d="M86.5 42q-70.5 57 -70.5 166q0 75 35.5 136.5t101 97t152.5 35.5q112 0 182.5 -57t70.5 -166q0 -75 -35.5 -136.5t-101 -97t-152.5 -35.5q-112 0 -182.5 57zM349 175q25 29 25 66q0 38 -23 56.5t-56 18.5q-45 0 -70 -29t-25 -66q0 -38 23 -56.5t56 -18.5q45 0 70 29z
M392 553h-140l158 154h194z" />
    <glyph glyph-name="ocircumflex" unicode="&#xf4;" horiz-adv-x="574" 
d="M86.5 42q-70.5 57 -70.5 166q0 75 35.5 136.5t101 97t152.5 35.5q112 0 182.5 -57t70.5 -166q0 -75 -35.5 -136.5t-101 -97t-152.5 -35.5q-112 0 -182.5 57zM349 175q25 29 25 66q0 38 -23 56.5t-56 18.5q-45 0 -70 -29t-25 -66q0 -38 23 -56.5t56 -18.5q45 0 70 29z
M544 553h-140l-45 76l-77 -76h-154l151 154h174z" />
    <glyph glyph-name="otilde" unicode="&#xf5;" horiz-adv-x="574" 
d="M86.5 42q-70.5 57 -70.5 166q0 75 35.5 136.5t101 97t152.5 35.5q112 0 182.5 -57t70.5 -166q0 -75 -35.5 -136.5t-101 -97t-152.5 -35.5q-112 0 -182.5 57zM349 175q25 29 25 66q0 38 -23 56.5t-56 18.5q-45 0 -70 -29t-25 -66q0 -38 23 -56.5t56 -18.5q45 0 70 29z
M391 684q45 -17 62 -17q33 0 64 46l62 -24q-34 -73 -69 -110t-85 -37q-23 0 -47 6.5t-57 18.5q-18 7 -35 12t-28 5q-18 0 -33 -12.5t-30 -33.5l-62 24q34 73 69.5 110t84.5 37q37 0 104 -25z" />
    <glyph glyph-name="odieresis" unicode="&#xf6;" horiz-adv-x="574" 
d="M86.5 42q-70.5 57 -70.5 166q0 75 35.5 136.5t101 97t152.5 35.5q112 0 182.5 -57t70.5 -166q0 -75 -35.5 -136.5t-101 -97t-152.5 -35.5q-112 0 -182.5 57zM349 175q25 29 25 66q0 38 -23 56.5t-56 18.5q-45 0 -70 -29t-25 -66q0 -38 23 -56.5t56 -18.5q45 0 70 29z
M199 690h139l-28 -145h-139zM397 690h139l-28 -145h-139z" />
    <glyph glyph-name="divide" unicode="&#xf7;" 
d="M367 416h-107v108h107v-108zM572 262h-518v74h518v-74zM367 73h-107v108h107v-108z" />
    <glyph glyph-name="oslash" unicode="&#xf8;" horiz-adv-x="574" 
d="M558 254q0 -75 -35.5 -136.5t-101 -97t-152.5 -35.5q-102 0 -169 46l-55 -51l-38 35l55 51q-46 57 -46 142q0 75 35.5 136.5t101 97t152.5 35.5q92 0 157 -39l48 45l37 -36l-44 -41q55 -58 55 -152zM203 197l123 114q-13 5 -31 5q-45 0 -70 -29t-25 -66q0 -13 3 -24z
M349 175q25 29 25 66q0 21 -8 37l-131 -122q19 -10 44 -10q45 0 70 29z" />
    <glyph glyph-name="ugrave" unicode="&#xf9;" horiz-adv-x="582" 
d="M62 21.5q-40 36.5 -40 113.5q0 29 8 72l51 255h193l-41 -211q-5 -22 -5 -47q0 -61 52 -61q33 0 51 24t28 77l42 218h186l-90 -462h-179l16 80h-2q-37 -52 -75.5 -73.5t-87.5 -21.5q-67 0 -107 36.5zM426 553h-135l-158 154h194z" />
    <glyph glyph-name="uacute" unicode="&#xfa;" horiz-adv-x="582" 
d="M62 21.5q-40 36.5 -40 113.5q0 29 8 72l51 255h193l-41 -211q-5 -22 -5 -47q0 -61 52 -61q33 0 51 24t28 77l42 218h186l-90 -462h-179l16 80h-2q-37 -52 -75.5 -73.5t-87.5 -21.5q-67 0 -107 36.5zM407 553h-140l158 154h194z" />
    <glyph glyph-name="ucircumflex" unicode="&#xfb;" horiz-adv-x="582" 
d="M62 21.5q-40 36.5 -40 113.5q0 29 8 72l51 255h193l-41 -211q-5 -22 -5 -47q0 -61 52 -61q33 0 51 24t28 77l42 218h186l-90 -462h-179l16 80h-2q-37 -52 -75.5 -73.5t-87.5 -21.5q-67 0 -107 36.5zM559 553h-140l-45 76l-77 -76h-154l151 154h174z" />
    <glyph glyph-name="udieresis" unicode="&#xfc;" horiz-adv-x="582" 
d="M62 21.5q-40 36.5 -40 113.5q0 29 8 72l51 255h193l-41 -211q-5 -22 -5 -47q0 -61 52 -61q33 0 51 24t28 77l42 218h186l-90 -462h-179l16 80h-2q-37 -52 -75.5 -73.5t-87.5 -21.5q-67 0 -107 36.5zM214 690h139l-28 -145h-139zM412 690h139l-28 -145h-139z" />
    <glyph glyph-name="yacute" unicode="&#xfd;" horiz-adv-x="581" 
d="M626 462l-411 -662h-197l165 252l-138 410h188l60 -232l138 232h195zM409 553h-140l158 154h194z" />
    <glyph glyph-name="thorn" unicode="&#xfe;" horiz-adv-x="618" 
d="M548.5 420.5q52.5 -56.5 52.5 -162.5q0 -80 -31.5 -142t-89 -96.5t-131.5 -34.5q-57 0 -96.5 21t-58.5 63h-2l-50 -269h-185l128 662h5l46 238h185l-46 -238h-5l-12 -59h2q59 74 153 74q83 0 135.5 -56.5zM381 175q25 29 25 66q0 38 -23 56.5t-56 18.5q-45 0 -70 -29
t-25 -66q0 -38 23 -56.5t56 -18.5q45 0 70 29z" />
    <glyph glyph-name="ydieresis" unicode="&#xff;" horiz-adv-x="581" 
d="M626 462l-411 -662h-197l165 252l-138 410h188l60 -232l138 232h195zM216 690h139l-28 -145h-139zM414 690h139l-28 -145h-139z" />
    <glyph glyph-name="Amacron" unicode="&#x100;" horiz-adv-x="745" 
d="M481 131h-239l-68 -131h-219l408 700h202l135 -700h-202zM462 281l-29 220l-114 -220h143zM644 742h-345l21 109h345z" />
    <glyph glyph-name="amacron" unicode="&#x101;" horiz-adv-x="613" 
d="M67.5 44q-50.5 59 -50.5 160q0 80 31.5 142t89 96.5t131.5 34.5q57 0 96 -21.5t59 -62.5h2l12 69h185l-90 -462h-185l12 59h-2q-59 -74 -153 -74q-87 0 -137.5 59zM359 173q27 27 27 68q0 34 -21.5 54.5t-57.5 20.5q-41 0 -68 -27t-27 -68q0 -34 21.5 -54.5t57.5 -20.5
q41 0 68 27zM543 564h-332l23 116h332z" />
    <glyph glyph-name="Abreve" unicode="&#x102;" horiz-adv-x="745" 
d="M481 131h-239l-68 -131h-219l408 700h202l135 -700h-202zM462 281l-29 220l-114 -220h143zM603 765q-55 -36 -133 -36q-79 0 -120.5 36t-36.5 99h122q-2 -18 12 -28.5t41 -10.5t45.5 10.5t23.5 28.5h121q-20 -63 -75 -99z" />
    <glyph glyph-name="abreve" unicode="&#x103;" horiz-adv-x="613" 
d="M67.5 44q-50.5 59 -50.5 160q0 80 31.5 142t89 96.5t131.5 34.5q57 0 96 -21.5t59 -62.5h2l12 69h185l-90 -462h-185l12 59h-2q-59 -74 -153 -74q-87 0 -137.5 59zM359 173q27 27 27 68q0 34 -21.5 54.5t-57.5 20.5q-41 0 -68 -27t-27 -68q0 -34 21.5 -54.5t57.5 -20.5
q41 0 68 27zM522 575q-50 -51 -144 -51q-67 0 -115 32.5t-48 100.5q0 18 5 43h106q-1 -5 -1 -15q0 -54 58 -54q40 0 57.5 19t25.5 50h119q-13 -74 -63 -125z" />
    <glyph glyph-name="Aogonek" unicode="&#x104;" horiz-adv-x="745" 
d="M514.5 -94.5q6.5 -4.5 16.5 -4.5q12 0 37 5v-108q-29 -7 -46.5 -10t-38.5 -3q-108 0 -108 85q0 41 28 73t93 72l-15 116h-239l-68 -131h-219l408 700h202l135 -700h-97q-52 -34 -73.5 -51.5t-21.5 -30.5q0 -8 6.5 -12.5zM462 281l-29 220l-114 -220h143z" />
    <glyph glyph-name="aogonek" unicode="&#x105;" horiz-adv-x="613" 
d="M383.5 -51.5q-21.5 -17.5 -21.5 -30.5q0 -8 6.5 -12.5t16.5 -4.5q12 0 37 5v-108q-29 -7 -46.5 -10t-38.5 -3q-108 0 -108 85q0 41 28.5 73.5t93.5 71.5l9 44h-2q-59 -74 -153 -74q-87 0 -137.5 59t-50.5 160q0 80 31.5 142t89 96.5t131.5 34.5q57 0 96 -21.5t59 -62.5h2
l12 69h185l-90 -462h-76q-52 -34 -73.5 -51.5zM359 173q27 27 27 68q0 34 -21.5 54.5t-57.5 20.5q-41 0 -68 -27t-27 -68q0 -34 21.5 -54.5t57.5 -20.5q41 0 68 27z" />
    <glyph glyph-name="Cacute" unicode="&#x106;" horiz-adv-x="682" 
d="M208.5 28q-80.5 43 -124 120.5t-43.5 177.5q0 109 51 197.5t146.5 140t222.5 51.5q80 0 149 -20.5t119 -53.5l-110 -159q-73 48 -160 48q-71 0 -121.5 -27t-76 -72.5t-25.5 -99.5q0 -74 46 -117.5t119 -43.5q76 0 163 47l78 -164q-119 -68 -247 -68q-106 0 -186.5 43z
M517 743h-131l151 120h190z" />
    <glyph glyph-name="cacute" unicode="&#x107;" horiz-adv-x="469" 
d="M144 11.5q-58 26.5 -92 79.5t-34 128q0 72 32.5 130.5t96.5 93t156 34.5q108 0 196 -56l-87 -139q-26 16 -51 25.5t-55 9.5q-48 0 -73 -25.5t-25 -63.5q0 -37 23 -59.5t60 -22.5q17 0 39.5 4.5t41.5 13.5l50 -150q-79 -29 -149 -29q-71 0 -129 26.5zM375 553h-140
l158 154h194z" />
    <glyph glyph-name="Ccircumflex" unicode="&#x108;" horiz-adv-x="682" 
d="M208.5 28q-80.5 43 -124 120.5t-43.5 177.5q0 109 51 197.5t146.5 140t222.5 51.5q80 0 149 -20.5t119 -53.5l-110 -159q-73 48 -160 48q-71 0 -121.5 -27t-76 -72.5t-25.5 -99.5q0 -74 46 -117.5t119 -43.5q76 0 163 47l78 -164q-119 -68 -247 -68q-106 0 -186.5 43z
M668 743h-150l-46 63l-69 -63h-150l143 120h175z" />
    <glyph glyph-name="ccircumflex" unicode="&#x109;" horiz-adv-x="469" 
d="M144 11.5q-58 26.5 -92 79.5t-34 128q0 72 32.5 130.5t96.5 93t156 34.5q108 0 196 -56l-87 -139q-26 16 -51 25.5t-55 9.5q-48 0 -73 -25.5t-25 -63.5q0 -37 23 -59.5t60 -22.5q17 0 39.5 4.5t41.5 13.5l50 -150q-79 -29 -149 -29q-71 0 -129 26.5zM527 553h-140l-45 76
l-77 -76h-154l151 154h174z" />
    <glyph glyph-name="Cdotaccent" unicode="&#x10a;" horiz-adv-x="682" 
d="M208.5 28q-80.5 43 -124 120.5t-43.5 177.5q0 109 51 197.5t146.5 140t222.5 51.5q80 0 149 -20.5t119 -53.5l-110 -159q-73 48 -160 48q-71 0 -121.5 -27t-76 -72.5t-25.5 -99.5q0 -74 46 -117.5t119 -43.5q76 0 163 47l78 -164q-119 -68 -247 -68q-106 0 -186.5 43z
M558 743h-166l28 143h166z" />
    <glyph glyph-name="cdotaccent" unicode="&#x10b;" horiz-adv-x="469" 
d="M144 11.5q-58 26.5 -92 79.5t-34 128q0 72 32.5 130.5t96.5 93t156 34.5q108 0 196 -56l-87 -139q-26 16 -51 25.5t-55 9.5q-48 0 -73 -25.5t-25 -63.5q0 -37 23 -59.5t60 -22.5q17 0 39.5 4.5t41.5 13.5l50 -150q-79 -29 -149 -29q-71 0 -129 26.5zM407 527h-189l34 173
h189z" />
    <glyph glyph-name="Ccaron" unicode="&#x10c;" horiz-adv-x="682" 
d="M208.5 28q-80.5 43 -124 120.5t-43.5 177.5q0 109 51 197.5t146.5 140t222.5 51.5q80 0 149 -20.5t119 -53.5l-110 -159q-73 48 -160 48q-71 0 -121.5 -27t-76 -72.5t-25.5 -99.5q0 -74 46 -117.5t119 -43.5q76 0 163 47l78 -164q-119 -68 -247 -68q-106 0 -186.5 43z
M378 743l-97 120h150l45 -62l70 62h150l-143 -120h-175z" />
    <glyph glyph-name="ccaron" unicode="&#x10d;" horiz-adv-x="469" 
d="M144 11.5q-58 26.5 -92 79.5t-34 128q0 72 32.5 130.5t96.5 93t156 34.5q108 0 196 -56l-87 -139q-26 16 -51 25.5t-55 9.5q-48 0 -73 -25.5t-25 -63.5q0 -37 23 -59.5t60 -22.5q17 0 39.5 4.5t41.5 13.5l50 -150q-79 -29 -149 -29q-71 0 -129 26.5zM139 700h140l43 -76
l79 76h154l-151 -154h-174z" />
    <glyph glyph-name="Dcaron" unicode="&#x10e;" horiz-adv-x="691" 
d="M547.5 662q73.5 -38 112.5 -108.5t39 -167.5q0 -108 -53.5 -196t-155.5 -139t-241 -51h-239l136 700h229q99 0 172.5 -38zM303 530l-70 -360h50q73 0 123.5 29t76 78.5t25.5 111.5q0 69 -41 105t-114 36h-50zM286 743l-97 120h150l45 -62l70 62h150l-143 -120h-175z" />
    <glyph glyph-name="dcaron" unicode="&#x10f;" horiz-adv-x="789" 
d="M878 715l-32 -161l-102 -62h-77l66 62h-49l32 161h162zM669 700l-136 -700h-185l12 59h-2q-59 -74 -153 -74q-87 0 -137.5 59t-50.5 160q0 80 31.5 142t89 96.5t131.5 34.5q57 0 96 -21.5t59 -62.5h2l58 307h185zM359 173q27 27 27 68q0 34 -21.5 54.5t-57.5 20.5
q-41 0 -68 -27t-27 -68q0 -34 21.5 -54.5t57.5 -20.5q41 0 68 27z" />
    <glyph glyph-name="Dcroat" unicode="&#x110;" horiz-adv-x="683" 
d="M519.5 662q73.5 -38 112.5 -108.5t39 -167.5q0 -108 -53.5 -196t-155.5 -139t-241 -51h-239l58 296h-62l26 136h62l52 268h229q99 0 172.5 -38zM378.5 199q50.5 29 76 78.5t25.5 111.5q0 69 -41 105t-114 36h-50l-19 -98h112l-26 -136h-112l-25 -126h50q73 0 123.5 29z
" />
    <glyph glyph-name="dcroat" unicode="&#x111;" horiz-adv-x="623" 
d="M713 539h-75l-105 -539h-185l12 59h-2q-59 -74 -153 -74q-87 0 -137.5 59t-50.5 160q0 80 31.5 142t89 96.5t131.5 34.5q57 0 96 -21.5t59 -62.5h2l28 146h-124l19 100h123l12 61h185l-12 -61h75zM359 173q27 27 27 68q0 34 -21.5 54.5t-57.5 20.5q-41 0 -68 -27t-27 -68
q0 -34 21.5 -54.5t57.5 -20.5q41 0 68 27z" />
    <glyph glyph-name="Emacron" unicode="&#x112;" horiz-adv-x="546" 
d="M302 526l-16 -83h225l-32 -165h-225l-20 -104h271l-34 -174h-461l136 700h446l-34 -174h-256zM566 742h-345l21 109h345z" />
    <glyph glyph-name="emacron" unicode="&#x113;" horiz-adv-x="538" 
d="M514 188h-322q17 -61 99 -61q61 0 132 31l46 -135q-94 -38 -189 -38q-72 0 -131.5 24.5t-95.5 76t-36 128.5q0 67 30.5 126.5t94.5 97.5t157 38q104 0 167 -49t63 -138q0 -42 -15 -101zM359 303q0 25 -18 39t-49 14q-36 0 -60 -19.5t-36 -52.5h161q2 12 2 19zM502 564
h-332l23 116h332z" />
    <glyph glyph-name="Ebreve" unicode="&#x114;" horiz-adv-x="546" 
d="M302 526l-16 -83h225l-32 -165h-225l-20 -104h271l-34 -174h-461l136 700h446l-34 -174h-256zM525 765q-55 -36 -133 -36q-79 0 -120.5 36t-36.5 99h122q-2 -18 12 -28.5t41 -10.5t45.5 10.5t23.5 28.5h121q-20 -63 -75 -99z" />
    <glyph glyph-name="ebreve" unicode="&#x115;" horiz-adv-x="538" 
d="M514 188h-322q17 -61 99 -61q61 0 132 31l46 -135q-94 -38 -189 -38q-72 0 -131.5 24.5t-95.5 76t-36 128.5q0 67 30.5 126.5t94.5 97.5t157 38q104 0 167 -49t63 -138q0 -42 -15 -101zM359 303q0 25 -18 39t-49 14q-36 0 -60 -19.5t-36 -52.5h161q2 12 2 19zM481 575
q-50 -51 -144 -51q-67 0 -115 32.5t-48 100.5q0 18 5 43h106q-1 -5 -1 -15q0 -54 58 -54q40 0 57.5 19t25.5 50h119q-13 -74 -63 -125z" />
    <glyph glyph-name="Edotaccent" unicode="&#x116;" horiz-adv-x="546" 
d="M302 526l-16 -83h225l-32 -165h-225l-20 -104h271l-34 -174h-461l136 700h446l-34 -174h-256zM477 743h-166l28 143h166z" />
    <glyph glyph-name="edotaccent" unicode="&#x117;" horiz-adv-x="538" 
d="M514 188h-322q17 -61 99 -61q61 0 132 31l46 -135q-94 -38 -189 -38q-72 0 -131.5 24.5t-95.5 76t-36 128.5q0 67 30.5 126.5t94.5 97.5t157 38q104 0 167 -49t63 -138q0 -42 -15 -101zM359 303q0 25 -18 39t-49 14q-36 0 -60 -19.5t-36 -52.5h161q2 12 2 19zM421 527
h-189l34 173h189z" />
    <glyph glyph-name="Eogonek" unicode="&#x118;" horiz-adv-x="546" 
d="M302 526l-16 -83h225l-32 -165h-225l-20 -104h271l-34 -174h-18q-52 -34 -73.5 -51.5t-21.5 -30.5q0 -8 6.5 -12.5t16.5 -4.5q12 0 37 5v-108q-29 -7 -46.5 -10t-38.5 -3q-108 0 -108 85q0 37 23 66.5t75 63.5h-313l136 700h446l-34 -174h-256z" />
    <glyph glyph-name="eogonek" unicode="&#x119;" horiz-adv-x="538" 
d="M514 188h-322q17 -61 99 -61q61 0 132 31l46 -135q-12 -5 -36 -13q-63 -39 -87 -58t-24 -34q0 -8 6.5 -12.5t16.5 -4.5q12 0 37 5v-108q-29 -7 -46.5 -10t-38.5 -3q-108 0 -108 85q0 33 18 60t58 55q-107 4 -177.5 61.5t-70.5 167.5q0 67 30.5 126.5t94.5 97.5t157 38
q104 0 167 -49t63 -138q0 -42 -15 -101zM359 303q0 25 -18 39t-49 14q-36 0 -60 -19.5t-36 -52.5h161q2 12 2 19z" />
    <glyph glyph-name="Ecaron" unicode="&#x11a;" horiz-adv-x="546" 
d="M302 526l-16 -83h225l-32 -165h-225l-20 -104h271l-34 -174h-461l136 700h446l-34 -174h-256zM297 743l-97 120h150l45 -62l70 62h150l-143 -120h-175z" />
    <glyph glyph-name="ecaron" unicode="&#x11b;" horiz-adv-x="538" 
d="M514 188h-322q17 -61 99 -61q61 0 132 31l46 -135q-94 -38 -189 -38q-72 0 -131.5 24.5t-95.5 76t-36 128.5q0 67 30.5 126.5t94.5 97.5t157 38q104 0 167 -49t63 -138q0 -42 -15 -101zM359 303q0 25 -18 39t-49 14q-36 0 -60 -19.5t-36 -52.5h161q2 12 2 19zM153 700
h140l43 -76l79 76h154l-151 -154h-174z" />
    <glyph glyph-name="Gcircumflex" unicode="&#x11c;" horiz-adv-x="762" 
d="M778 417l-11 -78q-50 -354 -364 -354q-105 0 -187.5 40t-129 115.5t-46.5 179.5q0 110 51 200t147.5 142.5t227.5 52.5q83 0 157.5 -22t129.5 -65l-117 -154q-78 61 -175 61q-69 0 -120.5 -29.5t-78.5 -78.5t-27 -107q0 -73 48 -114t132 -41q66 0 104 24t48 65h-185
l33 163h363zM666 743h-150l-46 63l-69 -63h-150l143 120h175z" />
    <glyph glyph-name="gcircumflex" unicode="&#x11d;" horiz-adv-x="613" 
d="M623 462l-86 -436q-24 -124 -98.5 -182.5t-209.5 -58.5q-119 0 -224 37l54 147q52 -19 92 -27.5t78 -8.5q54 0 84 22t40 70l7 34h-2q-59 -74 -153 -74q-87 0 -137.5 59t-50.5 160q0 80 31.5 142t89 96.5t131.5 34.5q57 0 96 -21.5t59 -62.5h2l12 69h185zM359 173
q27 27 27 68q0 34 -21.5 54.5t-57.5 20.5q-41 0 -68 -27t-27 -68q0 -34 21.5 -54.5t57.5 -20.5q41 0 68 27zM544 553h-140l-45 76l-77 -76h-154l151 154h174z" />
    <glyph glyph-name="Gbreve" unicode="&#x11e;" horiz-adv-x="762" 
d="M778 417l-11 -78q-50 -354 -364 -354q-105 0 -187.5 40t-129 115.5t-46.5 179.5q0 110 51 200t147.5 142.5t227.5 52.5q83 0 157.5 -22t129.5 -65l-117 -154q-78 61 -175 61q-69 0 -120.5 -29.5t-78.5 -78.5t-27 -107q0 -73 48 -114t132 -41q66 0 104 24t48 65h-185
l33 163h363zM604 765q-55 -36 -133 -36q-79 0 -120.5 36t-36.5 99h122q-2 -18 12 -28.5t41 -10.5t45.5 10.5t23.5 28.5h121q-20 -63 -75 -99z" />
    <glyph glyph-name="gbreve" unicode="&#x11f;" horiz-adv-x="613" 
d="M623 462l-86 -436q-24 -124 -98.5 -182.5t-209.5 -58.5q-119 0 -224 37l54 147q52 -19 92 -27.5t78 -8.5q54 0 84 22t40 70l7 34h-2q-59 -74 -153 -74q-87 0 -137.5 59t-50.5 160q0 80 31.5 142t89 96.5t131.5 34.5q57 0 96 -21.5t59 -62.5h2l12 69h185zM359 173
q27 27 27 68q0 34 -21.5 54.5t-57.5 20.5q-41 0 -68 -27t-27 -68q0 -34 21.5 -54.5t57.5 -20.5q41 0 68 27zM484 575q-50 -51 -144 -51q-67 0 -115 32.5t-48 100.5q0 18 5 43h106q-1 -5 -1 -15q0 -54 58 -54q40 0 57.5 19t25.5 50h119q-13 -74 -63 -125z" />
    <glyph glyph-name="Gdotaccent" unicode="&#x120;" horiz-adv-x="762" 
d="M778 417l-11 -78q-50 -354 -364 -354q-105 0 -187.5 40t-129 115.5t-46.5 179.5q0 110 51 200t147.5 142.5t227.5 52.5q83 0 157.5 -22t129.5 -65l-117 -154q-78 61 -175 61q-69 0 -120.5 -29.5t-78.5 -78.5t-27 -107q0 -73 48 -114t132 -41q66 0 104 24t48 65h-185
l33 163h363zM556 743h-166l28 143h166z" />
    <glyph glyph-name="gdotaccent" unicode="&#x121;" horiz-adv-x="613" 
d="M623 462l-86 -436q-24 -124 -98.5 -182.5t-209.5 -58.5q-119 0 -224 37l54 147q52 -19 92 -27.5t78 -8.5q54 0 84 22t40 70l7 34h-2q-59 -74 -153 -74q-87 0 -137.5 59t-50.5 160q0 80 31.5 142t89 96.5t131.5 34.5q57 0 96 -21.5t59 -62.5h2l12 69h185zM359 173
q27 27 27 68q0 34 -21.5 54.5t-57.5 20.5q-41 0 -68 -27t-27 -68q0 -34 21.5 -54.5t57.5 -20.5q41 0 68 27zM424 527h-189l34 173h189z" />
    <glyph glyph-name="Gcommaaccent" unicode="&#x122;" horiz-adv-x="762" 
d="M778 417l-11 -78q-50 -354 -364 -354q-105 0 -187.5 40t-129 115.5t-46.5 179.5q0 110 51 200t147.5 142.5t227.5 52.5q83 0 157.5 -22t129.5 -65l-117 -154q-78 61 -175 61q-69 0 -120.5 -29.5t-78.5 -78.5t-27 -107q0 -73 48 -114t132 -41q66 0 104 24t48 65h-185
l33 163h363zM449 -47l-20 -103l-93 -60h-63l53 60h-57l20 103h160z" />
    <glyph glyph-name="gcommaaccent" unicode="&#x123;" horiz-adv-x="613" 
d="M623 462l-86 -436q-24 -124 -98.5 -182.5t-209.5 -58.5q-119 0 -224 37l54 147q52 -19 92 -27.5t78 -8.5q54 0 84 22t40 70l7 34h-2q-59 -74 -153 -74q-87 0 -137.5 59t-50.5 160q0 80 31.5 142t89 96.5t131.5 34.5q57 0 96 -21.5t59 -62.5h2l12 69h185zM359 173
q27 27 27 68q0 34 -21.5 54.5t-57.5 20.5q-41 0 -68 -27t-27 -68q0 -34 21.5 -54.5t57.5 -20.5q41 0 68 27zM438 643l-20 -103h-160l20 103l93 60h63l-53 -60h57z" />
    <glyph glyph-name="Hcircumflex" unicode="&#x124;" horiz-adv-x="729" 
d="M765 700l-136 -700h-190l53 272h-239l-53 -272h-190l136 700h190l-49 -254h239l49 254h190zM657 743h-150l-46 63l-69 -63h-150l143 120h175z" />
    <glyph glyph-name="hcircumflex" unicode="&#x125;" horiz-adv-x="584" 
d="M258 398h2q30 39 68.5 59t89.5 20q65 0 104 -37t39 -113q0 -31 -8 -76l-49 -251h-185l44 224q4 20 4 39q0 65 -56 65q-37 0 -56.5 -25t-28.5 -71l-46 -232h-185l136 700h185zM425 743h-150l-46 63l-69 -63h-150l143 120h175z" />
    <glyph glyph-name="Hbar" unicode="&#x126;" horiz-adv-x="755" 
d="M809 508h-64l-99 -508h-190l53 272h-239l-53 -272h-190l99 508h-72l25 130h72l12 62h190l-12 -62h239l12 62h190l-12 -62h64zM555 508h-239l-12 -62h239z" />
    <glyph glyph-name="hbar" unicode="&#x127;" horiz-adv-x="585" 
d="M523 440q39 -37 39 -113q0 -31 -8 -76l-49 -251h-185l44 224q4 20 4 39q0 65 -56 65q-37 0 -56.5 -25t-28.5 -71l-46 -232h-185l105 539h-71l19 100h71l12 61h185l-12 -61h127l-19 -100h-127l-27 -141h2q30 39 68.5 59t89.5 20q65 0 104 -37z" />
    <glyph glyph-name="Itilde" unicode="&#x128;" horiz-adv-x="300" 
d="M200 0h-190l136 700h190zM476 863q-29 -62 -62 -94.5t-80 -32.5q-24 0 -49 7t-65 21q-4 1 -29 9.5t-39 8.5q-17 0 -32 -11t-32 -30l-50 19q29 62 62 94.5t80 32.5q24 0 49 -7t65 -21q4 -1 29 -9.5t39 -8.5q17 0 32 11t32 30z" />
    <glyph glyph-name="itilde" unicode="&#x129;" horiz-adv-x="265" 
d="M194.5 703q16.5 -6 43.5 -19q13 -7 25 -12t21 -5q15 0 26.5 12t24.5 34l62 -24q-31 -73 -60.5 -110t-70.5 -37q-18 0 -34 6t-45 19q-13 7 -25 12t-21 5q-15 0 -25.5 -11t-25.5 -35l-61 24q31 73 60.5 110t70.5 37q18 0 34.5 -6zM180 0h-185l90 462h185z" />
    <glyph glyph-name="Imacron" unicode="&#x12a;" horiz-adv-x="300" 
d="M200 0h-190l136 700h190zM421 742h-345l21 109h345z" />
    <glyph glyph-name="imacron" unicode="&#x12b;" horiz-adv-x="265" 
d="M323 564h-252l23 116h252zM180 0h-185l90 462h185z" />
    <glyph glyph-name="Ibreve" unicode="&#x12c;" horiz-adv-x="300" 
d="M200 0h-190l136 700h190zM380 765q-55 -36 -133 -36q-79 0 -120.5 36t-36.5 99h122q-2 -18 12 -28.5t41 -10.5t45.5 10.5t23.5 28.5h121q-20 -63 -75 -99z" />
    <glyph glyph-name="ibreve" unicode="&#x12d;" horiz-adv-x="265" 
d="M328 573.5q-44 -49.5 -130 -49.5q-66 0 -102.5 33t-36.5 99q0 21 4 44h106q-1 -6 -1.5 -10t-0.5 -9q0 -50 41 -50q30 0 40.5 18.5t16.5 50.5h119q-12 -77 -56 -126.5zM180 0h-185l90 462h185z" />
    <glyph glyph-name="Iogonek" unicode="&#x12e;" horiz-adv-x="300" 
d="M65.5 -51.5q-21.5 -17.5 -21.5 -30.5q0 -8 6.5 -12.5t16.5 -4.5q12 0 37 5v-108q-29 -7 -46.5 -10t-38.5 -3q-108 0 -108 85q0 37 23.5 67t75.5 64l136 699h190l-136 -700h-61q-52 -34 -73.5 -51.5z" />
    <glyph glyph-name="iogonek" unicode="&#x12f;" horiz-adv-x="265" 
d="M317 700l-34 -173h-189l34 173h189zM85 462h185l-90 -462h-71q-52 -34 -73.5 -51.5t-21.5 -30.5q0 -8 6.5 -12.5t16.5 -4.5q12 0 37 5v-108q-29 -7 -46.5 -10t-38.5 -3q-108 0 -108 85q0 40 27 72t89 70z" />
    <glyph glyph-name="Idotaccent" unicode="&#x130;" horiz-adv-x="300" 
d="M200 0h-190l136 700h190zM332 743h-166l28 143h166z" />
    <glyph glyph-name="dotlessi" unicode="&#x131;" horiz-adv-x="265" 
d="M180 0h-185l90 462h185z" />
    <glyph glyph-name="IJ" unicode="&#x132;" horiz-adv-x="625" 
d="M200 0h-190l136 700h190zM560 180q-19 -95 -76.5 -139t-159.5 -44h-59l34 174h38q13 0 24 10t13 22l97 497h190z" />
    <glyph glyph-name="ij" unicode="&#x133;" horiz-adv-x="530" 
d="M180 0h-185l90 462h185zM283 527h-189l34 173h189zM189 -31q34 0 53 15t25 47l84 431h184l-86 -441q-23 -121 -84 -172.5t-180 -51.5h-51l33 172h22zM548 527h-189l34 173h189z" />
    <glyph glyph-name="Jcircumflex" unicode="&#x134;" horiz-adv-x="325" 
d="M260 180q-19 -95 -76.5 -139t-159.5 -44h-59l34 174h38q13 0 24 10t13 22l97 497h190zM467 743h-150l-46 63l-69 -63h-150l143 120h175z" />
    <glyph glyph-name="jcircumflex" unicode="&#x135;" horiz-adv-x="265" 
d="M368 553h-135l-14 86l-48 -86h-148l115 154h174zM-76 -31q34 0 53 15t25 47l84 431h184l-86 -441q-23 -121 -84 -172.5t-180 -51.5h-51l33 172h22z" />
    <glyph glyph-name="Kcommaaccent" unicode="&#x136;" horiz-adv-x="752" 
d="M464 351l248 -351h-244l-205 324l-63 -324h-190l136 700h190l-60 -307l291 307h259zM394 -47l-20 -103l-93 -60h-63l53 60h-57l20 103h160z" />
    <glyph glyph-name="kcommaaccent" unicode="&#x137;" horiz-adv-x="593" 
d="M398 234l145 -234h-217l-107 203l-39 -203h-185l136 700h185l-80 -409l152 171h237zM318 -47l-20 -103l-93 -60h-63l53 60h-57l20 103h160z" />
    <glyph glyph-name="kgreenlandic" unicode="&#x138;" horiz-adv-x="588" 
d="M393 234l145 -234h-217l-106 203l-40 -203h-185l90 462h185l-33 -171l151 171h237z" />
    <glyph glyph-name="Lacute" unicode="&#x139;" horiz-adv-x="514" 
d="M146 700h190l-102 -524h264l-34 -176h-454zM271 743h-131l151 120h190z" />
    <glyph glyph-name="lacute" unicode="&#x13a;" horiz-adv-x="265" 
d="M180 0h-185l136 700h185zM274 743h-131l151 120h190z" />
    <glyph glyph-name="Lcommaaccent" unicode="&#x13b;" horiz-adv-x="514" 
d="M146 700h190l-102 -524h264l-34 -176h-454zM312 -47l-20 -103l-93 -60h-63l53 60h-57l20 103h160z" />
    <glyph glyph-name="lcommaaccent" unicode="&#x13c;" horiz-adv-x="265" 
d="M180 0h-185l136 700h185zM159 -47l-20 -103l-93 -60h-63l53 60h-57l20 103h160z" />
    <glyph glyph-name="Lcaron" unicode="&#x13d;" horiz-adv-x="527" 
d="M146 700h190l-102 -524h264l-34 -176h-454zM593 715l-32 -161l-152 -162h-67l115 162h-58l32 161h162z" />
    <glyph glyph-name="lcaron" unicode="&#x13e;" horiz-adv-x="436" 
d="M525 715l-32 -161l-102 -62h-77l66 62h-49l32 161h162zM316 700l-136 -700h-185l136 700h185z" />
    <glyph glyph-name="Ldot" unicode="&#x13f;" horiz-adv-x="514" 
d="M146 700h190l-102 -524h264l-34 -176h-454zM511 274h-186l37 188h186z" />
    <glyph glyph-name="ldot" unicode="&#x140;" horiz-adv-x="458" 
d="M180 0h-185l136 700h185zM456 274h-186l37 188h186z" />
    <glyph glyph-name="Lslash" unicode="&#x141;" horiz-adv-x="524" 
d="M508 176l-34 -176h-454l48 245l-71 -29l23 128l73 30l63 326h190l-47 -241l188 78l-23 -128l-190 -78l-30 -155h264z" />
    <glyph glyph-name="lslash" unicode="&#x142;" horiz-adv-x="357" 
d="M381 405l-81 -38l-71 -367h-185l53 271l-85 -40l23 128l87 41l58 300h185l-40 -204l79 37z" />
    <glyph glyph-name="Nacute" unicode="&#x143;" horiz-adv-x="780" 
d="M680 0h-148l-251 406h-2l-79 -406h-190l136 700h148l251 -406h2l79 406h190zM529 743h-131l151 120h190z" />
    <glyph glyph-name="nacute" unicode="&#x144;" horiz-adv-x="579" 
d="M243 384h2q33 48 73 70.5t92 22.5q67 0 106.5 -36.5t39.5 -112.5q0 -35 -8 -77l-49 -251h-185l44 224q4 20 4 39q0 65 -56 65q-37 0 -56.5 -25t-28.5 -71l-46 -232h-185l90 462h179zM387 553h-140l158 154h194z" />
    <glyph glyph-name="Ncommaaccent" unicode="&#x145;" horiz-adv-x="780" 
d="M680 0h-148l-251 406h-2l-79 -406h-190l136 700h148l251 -406h2l79 406h190zM414 -47l-20 -103l-93 -60h-63l53 60h-57l20 103h160z" />
    <glyph glyph-name="ncommaaccent" unicode="&#x146;" horiz-adv-x="579" 
d="M243 384h2q33 48 73 70.5t92 22.5q67 0 106.5 -36.5t39.5 -112.5q0 -35 -8 -77l-49 -251h-185l44 224q4 20 4 39q0 65 -56 65q-37 0 -56.5 -25t-28.5 -71l-46 -232h-185l90 462h179zM316 -47l-20 -103l-93 -60h-63l53 60h-57l20 103h160z" />
    <glyph glyph-name="Ncaron" unicode="&#x147;" horiz-adv-x="780" 
d="M680 0h-148l-251 406h-2l-79 -406h-190l136 700h148l251 -406h2l79 406h190zM390 743l-97 120h150l45 -62l70 62h150l-143 -120h-175z" />
    <glyph glyph-name="ncaron" unicode="&#x148;" horiz-adv-x="579" 
d="M243 384h2q33 48 73 70.5t92 22.5q67 0 106.5 -36.5t39.5 -112.5q0 -35 -8 -77l-49 -251h-185l44 224q4 20 4 39q0 65 -56 65q-37 0 -56.5 -25t-28.5 -71l-46 -232h-185l90 462h179zM151 700h140l43 -76l79 76h154l-151 -154h-174z" />
    <glyph glyph-name="napostrophe" unicode="&#x149;" horiz-adv-x="579" 
d="M243 384h2q33 48 73 70.5t92 22.5q67 0 106.5 -36.5t39.5 -112.5q0 -35 -8 -77l-49 -251h-185l44 224q4 20 4 39q0 65 -56 65q-37 0 -56.5 -25t-28.5 -71l-46 -232h-185l90 462h179zM128 715l-32 -161l-152 -162h-67l115 162h-58l32 161h162z" />
    <glyph glyph-name="Eng" unicode="&#x14a;" horiz-adv-x="780" 
d="M713 168l-33 -170q-21 -110 -84 -153.5t-163 -44.5l-83 -1l34 173h50q25 0 39 9t21 42l5 25l-224 328h-2l-73 -376h-190l136 700h148l257 -376h2l73 376h190z" />
    <glyph glyph-name="eng" unicode="&#x14b;" horiz-adv-x="579" 
d="M516.5 440.5q39.5 -36.5 39.5 -112.5q0 -35 -8 -77l-49 -251l-2 -8q-22 -110 -85 -151t-165 -41h-60l33 172h31q19 0 30 2t21.5 13.5t15.5 36.5l7 34l33 166q4 20 4 39q0 65 -56 65q-37 0 -56.5 -25t-28.5 -71l-46 -232h-185l90 462h179l-16 -78h2q33 48 73 70.5t92 22.5
q67 0 106.5 -36.5z" />
    <glyph glyph-name="Omacron" unicode="&#x14c;" horiz-adv-x="787" 
d="M206 25.5q-79 40.5 -122.5 116t-43.5 176.5q0 109 51 200t143 144t211 53q103 0 182 -40.5t122.5 -116t43.5 -176.5q0 -109 -51 -200t-143 -144t-211 -53q-103 0 -182 40.5zM511.5 200.5q44.5 30.5 65.5 77.5t21 96q0 72 -43.5 114t-121.5 42q-67 0 -111.5 -30.5
t-65.5 -77.5t-21 -96q0 -72 43.5 -114t121.5 -42q67 0 111.5 30.5zM637 742h-345l21 109h345z" />
    <glyph glyph-name="omacron" unicode="&#x14d;" horiz-adv-x="574" 
d="M86.5 42q-70.5 57 -70.5 166q0 75 35.5 136.5t101 97t152.5 35.5q112 0 182.5 -57t70.5 -166q0 -75 -35.5 -136.5t-101 -97t-152.5 -35.5q-112 0 -182.5 57zM349 175q25 29 25 66q0 38 -23 56.5t-56 18.5q-45 0 -70 -29t-25 -66q0 -38 23 -56.5t56 -18.5q45 0 70 29z
M505 564h-332l23 116h332z" />
    <glyph glyph-name="Obreve" unicode="&#x14e;" horiz-adv-x="787" 
d="M206 25.5q-79 40.5 -122.5 116t-43.5 176.5q0 109 51 200t143 144t211 53q103 0 182 -40.5t122.5 -116t43.5 -176.5q0 -109 -51 -200t-143 -144t-211 -53q-103 0 -182 40.5zM511.5 200.5q44.5 30.5 65.5 77.5t21 96q0 72 -43.5 114t-121.5 42q-67 0 -111.5 -30.5
t-65.5 -77.5t-21 -96q0 -72 43.5 -114t121.5 -42q67 0 111.5 30.5zM596 765q-55 -36 -133 -36q-79 0 -120.5 36t-36.5 99h122q-2 -18 12 -28.5t41 -10.5t45.5 10.5t23.5 28.5h121q-20 -63 -75 -99z" />
    <glyph glyph-name="obreve" unicode="&#x14f;" horiz-adv-x="574" 
d="M86.5 42q-70.5 57 -70.5 166q0 75 35.5 136.5t101 97t152.5 35.5q112 0 182.5 -57t70.5 -166q0 -75 -35.5 -136.5t-101 -97t-152.5 -35.5q-112 0 -182.5 57zM349 175q25 29 25 66q0 38 -23 56.5t-56 18.5q-45 0 -70 -29t-25 -66q0 -38 23 -56.5t56 -18.5q45 0 70 29z
M484 575q-50 -51 -144 -51q-67 0 -115 32.5t-48 100.5q0 18 5 43h106q-1 -5 -1 -15q0 -54 58 -54q40 0 57.5 19t25.5 50h119q-13 -74 -63 -125z" />
    <glyph glyph-name="Ohungarumlaut" unicode="&#x150;" horiz-adv-x="787" 
d="M206 25.5q-79 40.5 -122.5 116t-43.5 176.5q0 109 51 200t143 144t211 53q103 0 182 -40.5t122.5 -116t43.5 -176.5q0 -109 -51 -200t-143 -144t-211 -53q-103 0 -182 40.5zM511.5 200.5q44.5 30.5 65.5 77.5t21 96q0 72 -43.5 114t-121.5 42q-67 0 -111.5 -30.5
t-65.5 -77.5t-21 -96q0 -72 43.5 -114t121.5 -42q67 0 111.5 30.5zM468 743h-125l130 120h133zM643 743h-125l130 120h133z" />
    <glyph glyph-name="ohungarumlaut" unicode="&#x151;" horiz-adv-x="574" 
d="M86.5 42q-70.5 57 -70.5 166q0 75 35.5 136.5t101 97t152.5 35.5q112 0 182.5 -57t70.5 -166q0 -75 -35.5 -136.5t-101 -97t-152.5 -35.5q-112 0 -182.5 57zM349 175q25 29 25 66q0 38 -23 56.5t-56 18.5q-45 0 -70 -29t-25 -66q0 -38 23 -56.5t56 -18.5q45 0 70 29z
M300 553h-133l162 154h150zM500 553h-133l162 154h150z" />
    <glyph glyph-name="OE" unicode="&#x152;" horiz-adv-x="1107" 
d="M863 526l-16 -83h225l-32 -165h-225l-20 -104h271l-34 -174h-461l10 51q-91 -66 -204 -66q-99 0 -175.5 41t-119 116t-42.5 175q0 110 51.5 201t144 144t210.5 53q74 0 136.5 -26t107.5 -75l17 86h446l-34 -174h-256zM509 200.5q45 30.5 67 78t22 98.5q0 68 -43.5 110.5
t-120.5 42.5q-65 0 -110 -30.5t-67 -78t-22 -98.5q0 -68 43.5 -110.5t120.5 -42.5q65 0 110 30.5z" />
    <glyph glyph-name="oe" unicode="&#x153;" horiz-adv-x="914" 
d="M890 188h-322q17 -61 99 -61q61 0 132 31l46 -135q-94 -38 -189 -38q-57 0 -107 16t-86 47q-77 -63 -194 -63q-112 0 -182.5 57t-70.5 166q0 75 35.5 136.5t101 97t152.5 35.5q56 0 103 -14.5t81 -43.5q73 57 186 57q104 0 167 -49t63 -138q0 -42 -15 -101zM735 303
q0 25 -18 39t-49 14q-36 0 -60 -19.5t-36 -52.5h161q2 12 2 19zM349 175q25 29 25 66q0 38 -23 56.5t-56 18.5q-45 0 -70 -29t-25 -66q0 -38 23 -56.5t56 -18.5q45 0 70 29z" />
    <glyph glyph-name="Racute" unicode="&#x154;" horiz-adv-x="662" 
d="M621.5 345.5q-47.5 -64.5 -146.5 -89.5l142 -256h-216l-145 285l-1 1l-55 -286h-190l136 700h269q79 0 136 -26.5t87.5 -74.5t30.5 -111q0 -78 -47.5 -142.5zM274 382h87q53 0 79.5 23t26.5 59q0 35 -24 51.5t-61 16.5h-79zM423 743h-131l151 120h190z" />
    <glyph glyph-name="racute" unicode="&#x155;" horiz-adv-x="374" 
d="M383 302h-11q-77 0 -113.5 -31t-50.5 -102l-33 -169h-185l90 462h172l-17 -86h2q31 60 71.5 80t106.5 20h2zM317 553h-140l158 154h194z" />
    <glyph glyph-name="Rcommaaccent" unicode="&#x156;" horiz-adv-x="662" 
d="M621.5 345.5q-47.5 -64.5 -146.5 -89.5l142 -256h-216l-145 285l-1 1l-55 -286h-190l136 700h269q79 0 136 -26.5t87.5 -74.5t30.5 -111q0 -78 -47.5 -142.5zM274 382h87q53 0 79.5 23t26.5 59q0 35 -24 51.5t-61 16.5h-79zM370 -47l-20 -103l-93 -60h-63l53 60h-57
l20 103h160z" />
    <glyph glyph-name="rcommaaccent" unicode="&#x157;" horiz-adv-x="374" 
d="M383 302h-11q-77 0 -113.5 -31t-50.5 -102l-33 -169h-185l90 462h172l-17 -86h2q31 60 71.5 80t106.5 20h2zM153 -47l-20 -103l-93 -60h-63l53 60h-57l20 103h160z" />
    <glyph glyph-name="Rcaron" unicode="&#x158;" horiz-adv-x="662" 
d="M621.5 345.5q-47.5 -64.5 -146.5 -89.5l142 -256h-216l-145 285l-1 1l-55 -286h-190l136 700h269q79 0 136 -26.5t87.5 -74.5t30.5 -111q0 -78 -47.5 -142.5zM274 382h87q53 0 79.5 23t26.5 59q0 35 -24 51.5t-61 16.5h-79zM284 743l-97 120h150l45 -62l70 62h150
l-143 -120h-175z" />
    <glyph glyph-name="rcaron" unicode="&#x159;" horiz-adv-x="374" 
d="M383 302h-11q-77 0 -113.5 -31t-50.5 -102l-33 -169h-185l90 462h172l-17 -86h2q31 60 71.5 80t106.5 20h2zM81 700h140l43 -76l79 76h154l-151 -154h-174z" />
    <glyph glyph-name="Sacute" unicode="&#x15a;" horiz-adv-x="544" 
d="M114.5 12.5q-69.5 26.5 -136.5 78.5l106 152q106 -82 181 -82q24 0 37.5 9t13.5 28q0 13 -8 24t-34 35l-88 82q-82 76 -82 178q0 90 60.5 144t167.5 54q129 0 253 -77l-97 -152q-34 23 -77 39t-77 16q-17 0 -27 -6.5t-10 -18.5t10 -24.5t21 -23t15 -13.5l92 -88
q39 -37 57.5 -80t18.5 -95q0 -103 -67 -154.5t-180 -51.5q-80 0 -149.5 26.5zM424 743h-131l151 120h190z" />
    <glyph glyph-name="sacute" unicode="&#x15b;" horiz-adv-x="441" 
d="M205 120q24 0 24 14q0 13 -23 26l-48 29q-50 30 -72 63t-22 78q0 73 50 110t141 37q53 0 103 -12.5t109 -38.5l-60 -126q-88 47 -134 47q-24 0 -24 -14q0 -7 4.5 -10.5t23.5 -14.5l42 -24q51 -29 73 -62t22 -83q0 -154 -195 -154q-68 0 -126.5 19t-120.5 59l77 123
q102 -66 156 -66zM375 553h-140l158 154h194z" />
    <glyph glyph-name="Scircumflex" unicode="&#x15c;" horiz-adv-x="544" 
d="M114.5 12.5q-69.5 26.5 -136.5 78.5l106 152q106 -82 181 -82q24 0 37.5 9t13.5 28q0 13 -8 24t-34 35l-88 82q-82 76 -82 178q0 90 60.5 144t167.5 54q129 0 253 -77l-97 -152q-34 23 -77 39t-77 16q-17 0 -27 -6.5t-10 -18.5t10 -24.5t21 -23t15 -13.5l92 -88
q39 -37 57.5 -80t18.5 -95q0 -103 -67 -154.5t-180 -51.5q-80 0 -149.5 26.5zM575 743h-150l-46 63l-69 -63h-150l143 120h175z" />
    <glyph glyph-name="scircumflex" unicode="&#x15d;" horiz-adv-x="441" 
d="M205 120q24 0 24 14q0 13 -23 26l-48 29q-50 30 -72 63t-22 78q0 73 50 110t141 37q53 0 103 -12.5t109 -38.5l-60 -126q-88 47 -134 47q-24 0 -24 -14q0 -7 4.5 -10.5t23.5 -14.5l42 -24q51 -29 73 -62t22 -83q0 -154 -195 -154q-68 0 -126.5 19t-120.5 59l77 123
q102 -66 156 -66zM527 553h-140l-45 76l-77 -76h-154l151 154h174z" />
    <glyph glyph-name="Scedilla" unicode="&#x15e;" horiz-adv-x="544" 
d="M492.5 287q18.5 -43 18.5 -95q0 -103 -67 -154.5t-180 -51.5h-13l-14 -23q40 -5 60 -20.5t20 -38.5q0 -28 -21.5 -46.5t-57 -31t-104.5 -31.5q-5 -1 -11.5 -3t-13.5 -4l-11 43q54 21 71 30.5t17 20.5q0 10 -9.5 14.5t-32.5 8.5l52 86q-111 17 -218 100l106 152
q106 -82 181 -82q24 0 37.5 9t13.5 28q0 13 -8 24t-34 35l-88 82q-82 76 -82 178q0 90 60.5 144t167.5 54q129 0 253 -77l-97 -152q-34 23 -77 39t-77 16q-17 0 -27 -6.5t-10 -18.5t10 -24.5t21 -23t15 -13.5l92 -88q39 -37 57.5 -80z" />
    <glyph glyph-name="scedilla" unicode="&#x15f;" horiz-adv-x="441" 
d="M392 222q22 -33 22 -83q0 -154 -195 -154h-1l-13 -22q40 -5 60 -20.5t20 -38.5q0 -28 -21.5 -46.5t-57 -31t-104.5 -31.5q-5 -1 -11.5 -3t-13.5 -4l-11 43q54 21 71 30.5t17 20.5q0 10 -9.5 14.5t-32.5 8.5l50 84q-49 6 -94.5 24t-95.5 50l77 123q102 -66 156 -66
q24 0 24 14q0 13 -23 26l-48 29q-50 30 -72 63t-22 78q0 73 50 110t141 37q53 0 103 -12.5t109 -38.5l-60 -126q-88 47 -134 47q-24 0 -24 -14q0 -7 4.5 -10.5t23.5 -14.5l42 -24q51 -29 73 -62z" />
    <glyph glyph-name="Scaron" unicode="&#x160;" horiz-adv-x="544" 
d="M114.5 12.5q-69.5 26.5 -136.5 78.5l106 152q106 -82 181 -82q24 0 37.5 9t13.5 28q0 13 -8 24t-34 35l-88 82q-82 76 -82 178q0 90 60.5 144t167.5 54q129 0 253 -77l-97 -152q-34 23 -77 39t-77 16q-17 0 -27 -6.5t-10 -18.5t10 -24.5t21 -23t15 -13.5l92 -88
q39 -37 57.5 -80t18.5 -95q0 -103 -67 -154.5t-180 -51.5q-80 0 -149.5 26.5zM285 743l-97 120h150l45 -62l70 62h150l-143 -120h-175z" />
    <glyph glyph-name="scaron" unicode="&#x161;" horiz-adv-x="441" 
d="M205 120q24 0 24 14q0 13 -23 26l-48 29q-50 30 -72 63t-22 78q0 73 50 110t141 37q53 0 103 -12.5t109 -38.5l-60 -126q-88 47 -134 47q-24 0 -24 -14q0 -7 4.5 -10.5t23.5 -14.5l42 -24q51 -29 73 -62t22 -83q0 -154 -195 -154q-68 0 -126.5 19t-120.5 59l77 123
q102 -66 156 -66zM139 700h140l43 -76l79 76h154l-151 -154h-174z" />
    <glyph glyph-name="uni0162" unicode="&#x162;" horiz-adv-x="550" 
d="M602 526h-174l-102 -526h-68l-23 -37q40 -5 60 -20.5t20 -38.5q0 -28 -21.5 -46.5t-57 -31t-104.5 -31.5q-5 -1 -11.5 -3t-13.5 -4l-11 43q54 21 71 30.5t17 20.5q0 10 -9.5 14.5t-32.5 8.5l57 95h-65l102 526h-174l34 174h540z" />
    <glyph glyph-name="uni0163" unicode="&#x163;" horiz-adv-x="386" 
d="M283 235q-4 -16 -4 -31q0 -18 9.5 -25t31.5 -7h16l-33 -172h-67l-23 -37q40 -5 60 -20.5t20 -38.5q0 -28 -21.5 -46.5t-57 -31t-104.5 -31.5q-5 -1 -11.5 -3t-13.5 -4l-11 43q54 21 71 30.5t17 20.5q0 10 -9.5 14.5t-32.5 8.5l59 99q-47 10 -71.5 43.5t-24.5 85.5
q0 20 5 48l25 129h-93l30 152h93l36 185h184l-36 -185h99l-30 -152h-98z" />
    <glyph glyph-name="Tcaron" unicode="&#x164;" horiz-adv-x="550" 
d="M602 526h-174l-102 -526h-192l102 526h-174l34 174h540zM277 743l-97 120h150l45 -62l70 62h150l-143 -120h-175z" />
    <glyph glyph-name="tcaron" unicode="&#x165;" horiz-adv-x="518" 
d="M607 715l-32 -161l-102 -62h-77l66 62h-49l32 161h162zM327 462h99l-30 -152h-98l-15 -75q-4 -16 -4 -31q0 -18 9.5 -25t31.5 -7h16l-33 -172h-85q-65 0 -100 35.5t-35 97.5q0 20 5 48l25 129h-93l30 152h93l36 185h184z" />
    <glyph glyph-name="Tbar" unicode="&#x166;" horiz-adv-x="550" 
d="M428 526l-12 -64h93l-25 -130h-93l-65 -332h-192l65 332h-94l25 130h94l12 64h-174l34 174h540l-34 -174h-174z" />
    <glyph glyph-name="tbar" unicode="&#x167;" horiz-adv-x="386" 
d="M298 310l-6 -30h76l-11 -58h-77q-1 -7 -1 -18q0 -18 9.5 -25t31.5 -7h16l-33 -172h-85q-65 0 -100 35.5t-35 97.5q0 20 5 48l8 41h-72l11 58h72l6 30h-93l30 152h93l36 185h184l-36 -185h99l-30 -152h-98z" />
    <glyph glyph-name="Utilde" unicode="&#x168;" horiz-adv-x="707" 
d="M563.5 68q-83.5 -80 -227.5 -80q-146 0 -215.5 57.5t-69.5 172.5q0 49 14 116l72 366h203l-79 -404q-4 -17 -4 -37q0 -81 86 -81q56 0 86.5 32t41.5 86l79 404h203l-80 -409q-26 -143 -109.5 -223zM680 863q-29 -62 -62 -94.5t-80 -32.5q-24 0 -49 7t-65 21q-4 1 -29 9.5
t-39 8.5q-17 0 -32 -11t-32 -30l-50 19q29 62 62 94.5t80 32.5q24 0 49 -7t65 -21q4 -1 29 -9.5t39 -8.5q17 0 32 11t32 30z" />
    <glyph glyph-name="utilde" unicode="&#x169;" horiz-adv-x="582" 
d="M62 21.5q-40 36.5 -40 113.5q0 29 8 72l51 255h193l-41 -211q-5 -22 -5 -47q0 -61 52 -61q33 0 51 24t28 77l42 218h186l-90 -462h-179l16 80h-2q-37 -52 -75.5 -73.5t-87.5 -21.5q-67 0 -107 36.5zM406 684q45 -17 62 -17q33 0 64 46l62 -24q-34 -73 -69 -110t-85 -37
q-23 0 -47 6.5t-57 18.5q-18 7 -35 12t-28 5q-18 0 -33 -12.5t-30 -33.5l-62 24q34 73 69.5 110t84.5 37q37 0 104 -25z" />
    <glyph glyph-name="Umacron" unicode="&#x16a;" horiz-adv-x="707" 
d="M563.5 68q-83.5 -80 -227.5 -80q-146 0 -215.5 57.5t-69.5 172.5q0 49 14 116l72 366h203l-79 -404q-4 -17 -4 -37q0 -81 86 -81q56 0 86.5 32t41.5 86l79 404h203l-80 -409q-26 -143 -109.5 -223zM625 742h-345l21 109h345z" />
    <glyph glyph-name="umacron" unicode="&#x16b;" horiz-adv-x="582" 
d="M62 21.5q-40 36.5 -40 113.5q0 29 8 72l51 255h193l-41 -211q-5 -22 -5 -47q0 -61 52 -61q33 0 51 24t28 77l42 218h186l-90 -462h-179l16 80h-2q-37 -52 -75.5 -73.5t-87.5 -21.5q-67 0 -107 36.5zM520 564h-332l23 116h332z" />
    <glyph glyph-name="Ubreve" unicode="&#x16c;" horiz-adv-x="707" 
d="M563.5 68q-83.5 -80 -227.5 -80q-146 0 -215.5 57.5t-69.5 172.5q0 49 14 116l72 366h203l-79 -404q-4 -17 -4 -37q0 -81 86 -81q56 0 86.5 32t41.5 86l79 404h203l-80 -409q-26 -143 -109.5 -223zM584 765q-55 -36 -133 -36q-79 0 -120.5 36t-36.5 99h122
q-2 -18 12 -28.5t41 -10.5t45.5 10.5t23.5 28.5h121q-20 -63 -75 -99z" />
    <glyph glyph-name="ubreve" unicode="&#x16d;" horiz-adv-x="582" 
d="M62 21.5q-40 36.5 -40 113.5q0 29 8 72l51 255h193l-41 -211q-5 -22 -5 -47q0 -61 52 -61q33 0 51 24t28 77l42 218h186l-90 -462h-179l16 80h-2q-37 -52 -75.5 -73.5t-87.5 -21.5q-67 0 -107 36.5zM499 575q-50 -51 -144 -51q-67 0 -115 32.5t-48 100.5q0 18 5 43h106
q-1 -5 -1 -15q0 -54 58 -54q40 0 57.5 19t25.5 50h119q-13 -74 -63 -125z" />
    <glyph glyph-name="Uring" unicode="&#x16e;" horiz-adv-x="707" 
d="M753 700l-80 -409q-26 -143 -109.5 -223t-227.5 -80q-146 0 -215.5 57.5t-69.5 172.5q0 49 14 116l72 366h196q-5 18 -5 36q0 55 38.5 91.5t95.5 36.5q50 0 79.5 -28.5t29.5 -77.5q0 -32 -14 -58h196zM417 778q-15 -16 -15 -39q0 -18 11.5 -28.5t31.5 -10.5q22 0 37 16
t15 39q0 18 -11.5 28.5t-31.5 10.5q-22 0 -37 -16zM429.5 210q30.5 32 41.5 86l76 387q-18 -25 -47 -39t-63 -14q-36 0 -61.5 15t-37.5 42l-77 -391q-4 -17 -4 -37q0 -81 86 -81q56 0 86.5 32z" />
    <glyph glyph-name="uring" unicode="&#x16f;" horiz-adv-x="582" 
d="M62 21.5q-40 36.5 -40 113.5q0 29 8 72l51 255h193l-41 -211q-5 -22 -5 -47q0 -61 52 -61q33 0 51 24t28 77l42 218h186l-90 -462h-179l16 80h-2q-37 -52 -75.5 -73.5t-87.5 -21.5q-67 0 -107 36.5zM456.5 718.5q29.5 -28.5 29.5 -77.5q0 -55 -38.5 -91.5t-95.5 -36.5
q-50 0 -79.5 28.5t-29.5 77.5q0 55 38.5 91.5t95.5 36.5q50 0 79.5 -28.5zM332 661q-15 -16 -15 -39q0 -18 11.5 -28.5t31.5 -10.5q22 0 37 16t15 39q0 18 -11.5 28.5t-31.5 10.5q-22 0 -37 -16z" />
    <glyph glyph-name="Uhungarumlaut" unicode="&#x170;" horiz-adv-x="707" 
d="M563.5 68q-83.5 -80 -227.5 -80q-146 0 -215.5 57.5t-69.5 172.5q0 49 14 116l72 366h203l-79 -404q-4 -17 -4 -37q0 -81 86 -81q56 0 86.5 32t41.5 86l79 404h203l-80 -409q-26 -143 -109.5 -223zM456 743h-125l130 120h133zM631 743h-125l130 120h133z" />
    <glyph glyph-name="uhungarumlaut" unicode="&#x171;" horiz-adv-x="582" 
d="M62 21.5q-40 36.5 -40 113.5q0 29 8 72l51 255h193l-41 -211q-5 -22 -5 -47q0 -61 52 -61q33 0 51 24t28 77l42 218h186l-90 -462h-179l16 80h-2q-37 -52 -75.5 -73.5t-87.5 -21.5q-67 0 -107 36.5zM315 553h-133l162 154h150zM515 553h-133l162 154h150z" />
    <glyph glyph-name="Uogonek" unicode="&#x172;" horiz-adv-x="707" 
d="M753 700l-80 -409q-24 -133 -98 -211.5t-199 -89.5q-43 -28 -61 -43.5t-18 -28.5q0 -8 6.5 -12.5t16.5 -4.5q12 0 37 5v-108q-29 -7 -46.5 -10t-38.5 -3q-108 0 -108 85q0 35 20.5 64t67.5 60q-102 15 -151.5 71t-49.5 152q0 50 14 117l72 366h203l-79 -404
q-4 -17 -4 -37q0 -81 86 -81q56 0 86.5 32t41.5 86l79 404h203z" />
    <glyph glyph-name="uogonek" unicode="&#x173;" horiz-adv-x="582" 
d="M353.5 -51.5q-21.5 -17.5 -21.5 -30.5q0 -8 6.5 -12.5t16.5 -4.5q12 0 37 5v-108q-29 -7 -46.5 -10t-38.5 -3q-108 0 -108 85q0 41 28.5 73.5t93.5 71.5l13 65h-2q-37 -52 -75.5 -73.5t-87.5 -21.5q-67 0 -107 36.5t-40 113.5q0 29 8 72l51 255h193l-41 -211
q-5 -22 -5 -47q0 -61 52 -61q33 0 51 24t28 77l42 218h186l-90 -462h-70q-52 -34 -73.5 -51.5z" />
    <glyph glyph-name="Wcircumflex" unicode="&#x174;" horiz-adv-x="1128" 
d="M826 0h-158l-70 403h-2l-226 -403h-158l-116 700h211l38 -383h2l215 383h160l69 -383h2l186 383h235zM844 743h-150l-46 63l-69 -63h-150l143 120h175z" />
    <glyph glyph-name="wcircumflex" unicode="&#x175;" horiz-adv-x="855" 
d="M900 462l-267 -462h-154l-52 234l-141 -234h-153l-88 462h167l37 -229l130 229h166l43 -230l123 230h189zM690 553h-140l-45 76l-77 -76h-154l151 154h174z" />
    <glyph glyph-name="Ycircumflex" unicode="&#x176;" horiz-adv-x="723" 
d="M456 232l-45 -232h-190l46 236l-181 464h215l84 -281h2l193 281h239zM642 743h-150l-46 63l-69 -63h-150l143 120h175z" />
    <glyph glyph-name="ycircumflex" unicode="&#x177;" horiz-adv-x="581" 
d="M626 462l-411 -662h-197l165 252l-138 410h188l60 -232l138 232h195zM561 553h-140l-45 76l-77 -76h-154l151 154h174z" />
    <glyph glyph-name="Ydieresis" unicode="&#x178;" horiz-adv-x="723" 
d="M456 232l-45 -232h-190l46 236l-181 464h215l84 -281h2l193 281h239zM402 743h-151l23 120h151zM623 743h-151l23 120h151z" />
    <glyph glyph-name="Zacute" unicode="&#x179;" horiz-adv-x="586" 
d="M605 526l-357 -352h312l-34 -174h-556l34 174l362 352h-266l34 174h505zM432 743h-131l151 120h190z" />
    <glyph glyph-name="zacute" unicode="&#x17a;" horiz-adv-x="462" 
d="M461 337l-230 -188h205l-29 -149h-442l26 132l224 182h-169l29 148h409l-24 -125h1zM353 553h-140l158 154h194z" />
    <glyph glyph-name="Zdotaccent" unicode="&#x17b;" horiz-adv-x="586" 
d="M605 526l-357 -352h312l-34 -174h-556l34 174l362 352h-266l34 174h505zM473 743h-166l28 143h166z" />
    <glyph glyph-name="zdotaccent" unicode="&#x17c;" horiz-adv-x="462" 
d="M461 337l-230 -188h205l-29 -149h-442l26 132l224 182h-169l29 148h409l-24 -125h1zM385 527h-189l34 173h189z" />
    <glyph glyph-name="Zcaron" unicode="&#x17d;" horiz-adv-x="586" 
d="M605 526l-357 -352h312l-34 -174h-556l34 174l362 352h-266l34 174h505zM293 743l-97 120h150l45 -62l70 62h150l-143 -120h-175z" />
    <glyph glyph-name="zcaron" unicode="&#x17e;" horiz-adv-x="462" 
d="M461 337l-230 -188h205l-29 -149h-442l26 132l224 182h-169l29 148h409l-24 -125h1zM117 700h140l43 -76l79 76h154l-151 -154h-174z" />
    <glyph glyph-name="florin" unicode="&#x192;" horiz-adv-x="416" 
d="M335 462h88l-6 -30h-89l-81 -420q-22 -111 -80.5 -161.5t-150.5 -50.5h-79l31 162h42q28 0 47.5 17.5t26.5 50.5l79 402h-98l6 30h98v1q21 108 79 165t161 57h75l-31 -161h-37q-62 0 -81 -62z" />
    <glyph glyph-name="AEacute" unicode="&#x1fc;" horiz-adv-x="1060" 
d="M836 526l-16 -83h205l-32 -165h-205l-20 -104h251l-34 -174h-436l25 131h-268l-108 -131h-243l602 700h549l-34 -174h-236zM604 281l53 273l-226 -273h173zM875 743h-131l151 120h190z" />
    <glyph glyph-name="aeacute" unicode="&#x1fd;" horiz-adv-x="848" 
d="M49 26.5q-48 41.5 -48 113.5q0 78 55 125.5t143 47.5q55 0 93.5 -18.5t54.5 -49.5h2q0 6 1 12.5t2 11.5q2 16 2 22q0 31 -21.5 46t-70.5 15q-44 0 -128 -12l-25 121q104 16 172 16q77 0 121 -19.5t58 -66.5h2q25 41 70 63t105 22q86 0 143 -46.5t57 -144.5q0 -36 -13 -97
h-313q7 -41 32 -53.5t62 -12.5q32 0 62.5 6t65.5 20l42 -129q-92 -34 -182 -34q-66 0 -120 22t-83 72h-2q-73 -94 -203 -94q-88 0 -136 41.5zM668 283q1 5 1 15q0 27 -16.5 41.5t-45.5 14.5q-34 0 -55 -19.5t-26 -51.5h142zM316 126q17 15 17 36q0 20 -15 32.5t-42 12.5
q-30 0 -47 -15t-17 -36q0 -20 15 -32.5t42 -12.5q30 0 47 15zM546 553h-140l158 154h194z" />
    <glyph glyph-name="Oslashacute" unicode="&#x1fe;" horiz-adv-x="787" 
d="M793 382q0 -109 -51 -200t-143 -144t-211 -53q-131 0 -222 65l-61 -64l-42 36l62 64q-41 43 -63 102t-22 130q0 109 51 200t143 144t211 53q132 0 222 -65l62 64l42 -36l-62 -65q84 -90 84 -231zM263 230l267 277q-40 23 -97 23q-67 0 -111.5 -30.5t-65.5 -77.5t-21 -96
q0 -57 28 -96zM511.5 200.5q44.5 30.5 65.5 77.5t21 96q0 58 -28 96l-266 -277q40 -23 96 -23q67 0 111.5 30.5zM472 743h-131l151 120h190z" />
    <glyph glyph-name="oslashacute" unicode="&#x1ff;" horiz-adv-x="574" 
d="M558 254q0 -75 -35.5 -136.5t-101 -97t-152.5 -35.5q-102 0 -169 46l-55 -51l-38 35l55 51q-46 57 -46 142q0 75 35.5 136.5t101 97t152.5 35.5q92 0 157 -39l48 45l37 -36l-44 -41q55 -58 55 -152zM203 197l123 114q-13 5 -31 5q-45 0 -70 -29t-25 -66q0 -13 3 -24z
M349 175q25 29 25 66q0 21 -8 37l-131 -122q19 -10 44 -10q45 0 70 29zM381 553h-140l158 154h194z" />
    <glyph glyph-name="Scommaaccent" unicode="&#x218;" horiz-adv-x="544" 
d="M114.5 12.5q-69.5 26.5 -136.5 78.5l106 152q106 -82 181 -82q24 0 37.5 9t13.5 28q0 13 -8 24t-34 35l-88 82q-82 76 -82 178q0 90 60.5 144t167.5 54q129 0 253 -77l-97 -152q-34 23 -77 39t-77 16q-17 0 -27 -6.5t-10 -18.5t10 -24.5t21 -23t15 -13.5l92 -88
q39 -37 57.5 -80t18.5 -95q0 -103 -67 -154.5t-180 -51.5q-80 0 -149.5 26.5zM303 -47l-20 -103l-93 -60h-63l53 60h-57l20 103h160z" />
    <glyph glyph-name="scommaaccent" unicode="&#x219;" horiz-adv-x="441" 
d="M205 120q24 0 24 14q0 13 -23 26l-48 29q-50 30 -72 63t-22 78q0 73 50 110t141 37q53 0 103 -12.5t109 -38.5l-60 -126q-88 47 -134 47q-24 0 -24 -14q0 -7 4.5 -10.5t23.5 -14.5l42 -24q51 -29 73 -62t22 -83q0 -154 -195 -154q-68 0 -126.5 19t-120.5 59l77 123
q102 -66 156 -66zM271 -47l-20 -103l-93 -60h-63l53 60h-57l20 103h160z" />
    <glyph glyph-name="uni021A" unicode="&#x21a;" horiz-adv-x="550" 
d="M602 526h-174l-102 -526h-192l102 526h-174l34 174h540zM301 -47l-20 -103l-93 -60h-63l53 60h-57l20 103h160z" />
    <glyph glyph-name="uni021B" unicode="&#x21b;" horiz-adv-x="386" 
d="M283 235q-4 -16 -4 -31q0 -18 9.5 -25t31.5 -7h16l-33 -172h-85q-65 0 -100 35.5t-35 97.5q0 20 5 48l25 129h-93l30 152h93l36 185h184l-36 -185h99l-30 -152h-98zM279 -47l-20 -103l-93 -60h-63l53 60h-57l20 103h160z" />
    <glyph glyph-name="uni0237" unicode="&#x237;" horiz-adv-x="265" 
d="M-76 -31q34 0 53 15t25 47l84 431h184l-86 -441q-23 -121 -84 -172.5t-180 -51.5h-51l33 172h22z" />
    <glyph glyph-name="uni02BC" unicode="&#x2bc;" horiz-adv-x="233" 
d="M292 715l-32 -161l-152 -162h-67l115 162h-58l32 161h162z" />
    <glyph glyph-name="circumflex" unicode="&#x2c6;" horiz-adv-x="516" 
d="M529 553h-140l-45 76l-77 -76h-154l151 154h174z" />
    <glyph glyph-name="caron" unicode="&#x2c7;" horiz-adv-x="516" 
d="M141 700h140l43 -76l79 76h154l-151 -154h-174z" />
    <glyph glyph-name="breve" unicode="&#x2d8;" horiz-adv-x="465" 
d="M443 575q-50 -51 -144 -51q-67 0 -115 32.5t-48 100.5q0 18 5 43h106q-1 -5 -1 -15q0 -54 58 -54q40 0 57.5 19t25.5 50h119q-13 -74 -63 -125z" />
    <glyph glyph-name="dotaccent" unicode="&#x2d9;" horiz-adv-x="290" 
d="M297 527h-189l34 173h189z" />
    <glyph glyph-name="ring" unicode="&#x2da;" horiz-adv-x="336" 
d="M341.5 718.5q29.5 -28.5 29.5 -77.5q0 -55 -38.5 -91.5t-95.5 -36.5q-50 0 -79.5 28.5t-29.5 77.5q0 55 38.5 91.5t95.5 36.5q50 0 79.5 -28.5zM217 661q-15 -16 -15 -39q0 -18 11.5 -28.5t31.5 -10.5q22 0 37 16t15 39q0 18 -11.5 28.5t-31.5 10.5q-22 0 -37 -16z" />
    <glyph glyph-name="ogonek" unicode="&#x2db;" horiz-adv-x="319" 
d="M231 10q-63 -39 -87 -58t-24 -34q0 -8 6.5 -12.5t16.5 -4.5q12 0 37 5v-108q-29 -7 -46.5 -10t-38.5 -3q-108 0 -108 85q0 43 31.5 77t105.5 77z" />
    <glyph glyph-name="tilde" unicode="&#x2dc;" horiz-adv-x="521" 
d="M372 684q45 -17 62 -17q33 0 64 46l62 -24q-34 -73 -69 -110t-85 -37q-23 0 -47 6.5t-57 18.5q-18 7 -35 12t-28 5q-18 0 -33 -12.5t-30 -33.5l-62 24q34 73 69.5 110t84.5 37q37 0 104 -25z" />
    <glyph glyph-name="hungarumlaut" unicode="&#x2dd;" horiz-adv-x="572" 
d="M246 553h-133l162 154h150zM446 553h-133l162 154h150z" />
    <glyph glyph-name="gravecomb" unicode="&#x300;" horiz-adv-x="0" 
d="M13 553h-135l-158 154h194z" />
    <glyph glyph-name="acutecomb" unicode="&#x301;" horiz-adv-x="0" 
d="M-169 553h-140l158 154h194z" />
    <glyph glyph-name="uni0302" unicode="&#x302;" horiz-adv-x="0" 
d="M13 553h-140l-45 76l-77 -76h-154l151 154h174z" />
    <glyph glyph-name="tildecomb" unicode="&#x303;" horiz-adv-x="0" 
d="M-149 684q45 -17 62 -17q33 0 64 46l62 -24q-34 -73 -69 -110t-85 -37q-23 0 -47 6.5t-57 18.5q-18 7 -35 12t-28 5q-18 0 -33 -12.5t-30 -33.5l-62 24q34 73 69.5 110t84.5 37q37 0 104 -25z" />
    <glyph glyph-name="uni0304" unicode="&#x304;" horiz-adv-x="0" 
d="M14 564h-332l23 116h332z" />
    <glyph glyph-name="uni0306" unicode="&#x306;" horiz-adv-x="0" 
d="M-22 575q-50 -51 -144 -51q-67 0 -115 32.5t-48 100.5q0 18 5 43h106q-1 -5 -1 -15q0 -54 58 -54q40 0 57.5 19t25.5 50h119q-13 -74 -63 -125z" />
    <glyph glyph-name="uni0307" unicode="&#x307;" horiz-adv-x="0" 
d="M7 527h-189l34 173h189z" />
    <glyph glyph-name="uni0308" unicode="&#x308;" horiz-adv-x="0" 
d="M-298 690h139l-28 -145h-139zM-100 690h139l-28 -145h-139z" />
    <glyph glyph-name="uni030A" unicode="&#x30a;" horiz-adv-x="0" 
d="M-2.5 718.5q29.5 -28.5 29.5 -77.5q0 -55 -38.5 -91.5t-95.5 -36.5q-50 0 -79.5 28.5t-29.5 77.5q0 55 38.5 91.5t95.5 36.5q50 0 79.5 -28.5zM-127 661q-15 -16 -15 -39q0 -18 11.5 -28.5t31.5 -10.5q22 0 37 16t15 39q0 18 -11.5 28.5t-31.5 10.5q-22 0 -37 -16z" />
    <glyph glyph-name="uni030B" unicode="&#x30b;" horiz-adv-x="0" 
d="M-336 553h-133l162 154h150zM-136 553h-133l162 154h150z" />
    <glyph glyph-name="uni030C" unicode="&#x30c;" horiz-adv-x="0" 
d="M-375 700h140l43 -76l79 76h154l-151 -154h-174z" />
    <glyph glyph-name="uni0312" unicode="&#x312;" horiz-adv-x="0" 
d="M30 643l-20 -103h-160l20 103l93 60h63l-53 -60h57z" />
    <glyph glyph-name="uni0326" unicode="&#x326;" horiz-adv-x="0" 
d="M-104 -47l-20 -103l-93 -60h-63l53 60h-57l20 103h160z" />
    <glyph glyph-name="uni0327" unicode="&#x327;" horiz-adv-x="0" 
d="M-195 -37q40 -5 60 -20.5t20 -38.5q0 -28 -21.5 -46.5t-57 -31t-104.5 -31.5q-5 -1 -11.5 -3t-13.5 -4l-11 43q54 21 71 30.5t17 20.5q0 10 -9.5 14.5t-32.5 8.5l83 138h59z" />
    <glyph glyph-name="uni0328" unicode="&#x328;" horiz-adv-x="0" 
d="M-93 10q-63 -39 -87 -58t-24 -34q0 -8 6.5 -12.5t16.5 -4.5q12 0 37 5v-108q-29 -7 -46.5 -10t-38.5 -3q-108 0 -108 85q0 43 31.5 77t105.5 77z" />
    <glyph glyph-name="uni0394" unicode="&#x394;" horiz-adv-x="628" 
d="M563 0h-588l249 700h90zM186 135h166l-83 279z" />
    <glyph glyph-name="uni03A9" unicode="&#x3a9;" horiz-adv-x="814" 
d="M591.5 676q77.5 -39 119 -108.5t41.5 -157.5q0 -65 -26 -119.5t-69.5 -89t-96.5 -43.5l-1 -3h185v-155h-294l1 265q32 0 59 19t43 50t16 66q0 61 -42.5 99.5t-115.5 38.5q-74 0 -117 -38.5t-43 -98.5q0 -35 16 -66t43.5 -50.5t60.5 -19.5l-1 -265h-293v155h184l1 3
q-53 9 -97.5 44t-71 90t-26.5 122q0 86 42 154.5t119.5 107.5t181.5 39t181.5 -39z" />
    <glyph glyph-name="uni03BC" unicode="&#x3bc;" horiz-adv-x="581" 
d="M586 462l-90 -462h-179l16 80h-2q-37 -52 -75.5 -73.5t-87.5 -21.5h-9l-36 -185h-172l129 662h193l-41 -211q-5 -22 -5 -47q0 -61 52 -61q33 0 51 24t28 77l42 218h186z" />
    <glyph glyph-name="pi" unicode="&#x3c0;" horiz-adv-x="663" 
d="M651 323h-81l-63 -323h-163l63 323h-76l-132 -323h-166l131 321q-61 -3 -120 -18l30 154q62 20 172 20h435z" />
    <glyph glyph-name="uni0E3F" unicode="&#xe3f;" horiz-adv-x="572" 
d="M536 400q-38 -44 -109 -61l-1 -3q96 -27 96 -134q0 -93 -66 -147.5t-195 -54.5h-12l-17 -87h-28l17 87h-226l131 675h226l17 87h28l-17 -87q93 -2 143.5 -42.5t50.5 -121.5q0 -67 -38 -111zM263 532l-26 -136h61l26 136h-61zM386.5 417q20.5 20 20.5 52q0 52 -55 61
l-26 -134q40 1 60.5 21zM249 143l26 136h-61l-26 -136h61zM335.5 163.5q21.5 18.5 21.5 52.5q0 27 -14.5 42.5t-39.5 19.5l-26 -135q37 2 58.5 20.5z" />
    <glyph glyph-name="Wgrave" unicode="&#x1e80;" horiz-adv-x="1128" 
d="M826 0h-158l-70 403h-2l-226 -403h-158l-116 700h211l38 -383h2l215 383h160l69 -383h2l186 383h235zM738 743h-131l-164 120h190z" />
    <glyph glyph-name="wgrave" unicode="&#x1e81;" horiz-adv-x="855" 
d="M900 462l-267 -462h-154l-52 234l-141 -234h-153l-88 462h167l37 -229l130 229h166l43 -230l123 230h189zM557 553h-135l-158 154h194z" />
    <glyph glyph-name="Wacute" unicode="&#x1e82;" horiz-adv-x="1128" 
d="M826 0h-158l-70 403h-2l-226 -403h-158l-116 700h211l38 -383h2l215 383h160l69 -383h2l186 383h235zM693 743h-131l151 120h190z" />
    <glyph glyph-name="wacute" unicode="&#x1e83;" horiz-adv-x="855" 
d="M900 462l-267 -462h-154l-52 234l-141 -234h-153l-88 462h167l37 -229l130 229h166l43 -230l123 230h189zM538 553h-140l158 154h194z" />
    <glyph glyph-name="Wdieresis" unicode="&#x1e84;" horiz-adv-x="1128" 
d="M826 0h-158l-70 403h-2l-226 -403h-158l-116 700h211l38 -383h2l215 383h160l69 -383h2l186 383h235zM604 743h-151l23 120h151zM825 743h-151l23 120h151z" />
    <glyph glyph-name="wdieresis" unicode="&#x1e85;" horiz-adv-x="855" 
d="M900 462l-267 -462h-154l-52 234l-141 -234h-153l-88 462h167l37 -229l130 229h166l43 -230l123 230h189zM345 690h139l-28 -145h-139zM543 690h139l-28 -145h-139z" />
    <glyph glyph-name="Ygrave" unicode="&#x1ef2;" horiz-adv-x="723" 
d="M456 232l-45 -232h-190l46 236l-181 464h215l84 -281h2l193 281h239zM536 743h-131l-164 120h190z" />
    <glyph glyph-name="ygrave" unicode="&#x1ef3;" horiz-adv-x="581" 
d="M626 462l-411 -662h-197l165 252l-138 410h188l60 -232l138 232h195zM428 553h-135l-158 154h194z" />
    <glyph glyph-name="endash" unicode="&#x2013;" horiz-adv-x="733" 
d="M687 202h-652l27 140h652z" />
    <glyph glyph-name="emdash" unicode="&#x2014;" horiz-adv-x="1154" 
d="M1100 208h-1054l26 134h1054z" />
    <glyph glyph-name="quoteleft" unicode="&#x2018;" horiz-adv-x="233" 
d="M216 623h58l-32 -161h-162l32 161l152 162h67z" />
    <glyph glyph-name="quoteright" unicode="&#x2019;" horiz-adv-x="233" 
d="M292 715l-32 -161l-152 -162h-67l115 162h-58l32 161h162z" />
    <glyph glyph-name="quotesinglbase" unicode="&#x201a;" horiz-adv-x="234" 
d="M185 161l-32 -161l-152 -162h-67l115 162h-58l32 161h162z" />
    <glyph glyph-name="quotedblleft" unicode="&#x201c;" horiz-adv-x="437" 
d="M216 623h58l-32 -161h-162l32 161l152 162h67zM420 623h58l-32 -161h-162l32 161l152 162h67z" />
    <glyph glyph-name="quotedblright" unicode="&#x201d;" horiz-adv-x="437" 
d="M496 715l-32 -161l-152 -162h-67l115 162h-58l32 161h162zM292 715l-32 -161l-152 -162h-67l115 162h-58l32 161h162z" />
    <glyph glyph-name="quotedblbase" unicode="&#x201e;" horiz-adv-x="438" 
d="M389 161l-32 -161l-152 -162h-67l115 162h-58l32 161h162zM185 161l-32 -161l-152 -162h-67l115 162h-58l32 161h162z" />
    <glyph glyph-name="dagger" unicode="&#x2020;" horiz-adv-x="569" 
d="M542 349h-160l-86 -442h-148l86 442h-161l27 140h161l41 211h148l-41 -211h160z" />
    <glyph glyph-name="daggerdbl" unicode="&#x2021;" horiz-adv-x="570" 
d="M392 398l-33 -168h160l-27 -140h-160l-36 -183h-148l36 183h-161l27 140h161l33 168h-161l27 140h161l32 162h148l-32 -162h160l-27 -140h-160z" />
    <glyph glyph-name="bullet" unicode="&#x2022;" horiz-adv-x="422" 
d="M339.5 466q40.5 -41 40.5 -102q0 -60 -40.5 -100.5t-102.5 -40.5q-61 0 -102 40.5t-41 101.5t41 101.5t103 40.5q61 0 101.5 -41z" />
    <glyph glyph-name="ellipsis" unicode="&#x2026;" horiz-adv-x="810" 
d="M453 0h-186l37 188h186zM730 0h-186l37 188h186zM176 0h-186l37 188h186z" />
    <glyph glyph-name="perthousand" unicode="&#x2030;" horiz-adv-x="1212" 
d="M154 414q-44 39 -44 105q0 48 21 90.5t63.5 69t103.5 26.5q68 0 112 -39t44 -105q0 -48 -21 -90.5t-63.5 -69t-103.5 -26.5q-68 0 -112 39zM650 675h90l-529 -675h-90zM338.5 490q24.5 28 24.5 64q0 30 -18.5 47t-51.5 17q-43 0 -67.5 -28t-24.5 -64q0 -30 18.5 -47
t51.5 -17q43 0 67.5 28zM471 34q-44 39 -44 105q0 48 21 90.5t63.5 69t103.5 26.5q68 0 112 -39t44 -105q0 -48 -21 -90.5t-63.5 -69t-103.5 -26.5q-68 0 -112 39zM1104 286q44 -39 44 -105q0 -48 -21 -90.5t-63.5 -69t-103.5 -26.5q-68 0 -112 39t-44 105q0 48 21 90.5
t63.5 69t103.5 26.5q68 0 112 -39zM655.5 110q24.5 28 24.5 64q0 30 -18.5 47t-51.5 17q-43 0 -67.5 -28t-24.5 -64q0 -30 18.5 -47t51.5 -17q43 0 67.5 28zM919.5 210q-24.5 -28 -24.5 -64q0 -30 18.5 -47t51.5 -17q43 0 67.5 28t24.5 64q0 30 -18.5 47t-51.5 17
q-43 0 -67.5 -28z" />
    <glyph glyph-name="guilsinglleft" unicode="&#x2039;" horiz-adv-x="410" 
d="M203 222l128 -168h-176l-138 186l210 186h211z" />
    <glyph glyph-name="guilsinglright" unicode="&#x203a;" horiz-adv-x="410" 
d="M211 258l-128 168h176l138 -186l-210 -186h-211z" />
    <glyph glyph-name="fraction" unicode="&#x2044;" horiz-adv-x="148" 
d="M314 675h90l-529 -675h-90z" />
    <glyph glyph-name="uni2070" unicode="&#x2070;" horiz-adv-x="454" 
d="M443 751.5q51 -51.5 51 -150.5q0 -69 -23.5 -129t-71 -97t-116.5 -37q-89 0 -140 51.5t-51 150.5q0 69 23.5 129t71 97t116.5 37q89 0 140 -51.5zM251.5 622q-13.5 -40 -13.5 -80q0 -35 11.5 -49t32.5 -14q38 0 52 39.5t14 80.5q0 35 -12 49t-33 14q-38 0 -51.5 -40z" />
    <glyph glyph-name="uni2074" unicode="&#x2074;" horiz-adv-x="403" 
d="M410 532h37l-24 -122h-37l-12 -62h-134l12 62h-207l21 109l263 275h132zM276 532l19 97h-3l-97 -97h81z" />
    <glyph glyph-name="uni2075" unicode="&#x2075;" horiz-adv-x="361" 
d="M363 602.5q33 -33.5 33 -94.5q0 -73 -49.5 -121.5t-157.5 -48.5q-90 0 -152 31l47 124q19 -9 49.5 -16.5t55.5 -7.5q35 0 51.5 11t16.5 31q0 33 -30 33q-24 0 -36 -21h-115l70 271h268l-25 -129h-166l-12 -45h2q25 16 64 16q53 0 86 -33.5z" />
    <glyph glyph-name="uni2076" unicode="&#x2076;" horiz-adv-x="397" 
d="M112 379q-46 41 -46 117q0 65 33 117t106 121l71 68h175l-200 -173l2 -1q40 30 77 30q50 0 80 -38t30 -98q0 -49 -21.5 -91t-66 -67.5t-110.5 -25.5q-84 0 -130 41zM278.5 478q10.5 13 10.5 29q0 14 -9 24t-26 10q-21 0 -31.5 -13t-10.5 -29q0 -14 9 -24t26 -10
q21 0 31.5 13z" />
    <glyph glyph-name="uni2077" unicode="&#x2077;" horiz-adv-x="345" 
d="M418 664l-230 -316h-157l225 304h-169l28 142h329z" />
    <glyph glyph-name="uni2078" unicode="&#x2078;" horiz-adv-x="426" 
d="M116 371q-44 33 -44 90q0 50 33 83t83 38l1 2q-31 8 -46.5 32.5t-15.5 54.5q0 34 19.5 64.5t60.5 49t102 18.5q72 0 118 -27t46 -84q0 -40 -24.5 -69t-73.5 -39l-1 -2q33 -9 53 -35t20 -65q0 -61 -48 -102.5t-150 -41.5q-89 0 -133 33zM320.5 644.5q9.5 9.5 9.5 22.5
q0 11 -8.5 18.5t-21.5 7.5q-16 0 -25.5 -9.5t-9.5 -22.5q0 -11 8.5 -18.5t21.5 -7.5q16 0 25.5 9.5zM291.5 470q10.5 11 10.5 27q0 15 -10 22.5t-25 7.5q-20 0 -30.5 -11t-10.5 -27q0 -15 10 -22.5t25 -7.5q20 0 30.5 11z" />
    <glyph glyph-name="uni2079" unicode="&#x2079;" horiz-adv-x="404" 
d="M292 516l-1 1q-18 -13 -40.5 -21t-44.5 -8q-52 0 -81 43t-29 97q0 44 20.5 84t64.5 65.5t109 25.5q76 0 125 -38.5t49 -122.5q0 -73 -38.5 -131t-112.5 -115l-62 -48h-172zM310.5 615q10.5 13 10.5 29q0 14 -8.5 24t-26.5 10q-21 0 -31.5 -13t-10.5 -29q0 -14 9 -24
t26 -10q21 0 31.5 13z" />
    <glyph glyph-name="uni2080" unicode="&#x2080;" horiz-adv-x="454" 
d="M354 293.5q51 -51.5 51 -150.5q0 -69 -23.5 -129t-71 -97t-116.5 -37q-89 0 -140 51.5t-51 150.5q0 69 23.5 129t71 97t116.5 37q89 0 140 -51.5zM162.5 164q-13.5 -40 -13.5 -80q0 -35 11.5 -49t32.5 -14q38 0 52 39.5t14 80.5q0 35 -12 49t-33 14q-38 0 -51.5 -40z" />
    <glyph glyph-name="uni2081" unicode="&#x2081;" horiz-adv-x="311" 
d="M149 -110h-149l59 303h-11l28 143h160z" />
    <glyph glyph-name="uni2082" unicode="&#x2082;" horiz-adv-x="418" 
d="M336.5 314.5q46.5 -30.5 46.5 -92.5q0 -35 -14.5 -61.5t-39.5 -47t-70 -51.5l-58 -39h143l-26 -133h-345l22 116l164 120q38 28 53.5 43.5t15.5 31.5q0 11 -8 16t-20 5q-16 0 -26 -9t-13 -24h-144q10 72 54 114t141 42q78 0 124.5 -30.5z" />
    <glyph glyph-name="uni2083" unicode="&#x2083;" horiz-adv-x="392" 
d="M314 317q46 -28 46 -88q0 -42 -24.5 -70.5t-77.5 -35.5v-2q77 -7 77 -89q0 -60 -40.5 -106t-146.5 -46q-80 0 -127.5 31.5t-47.5 97.5q0 19 2 30h140v-4q0 -11 10.5 -18t29.5 -7q23 0 32 9t9 20q0 15 -15 21.5t-50 6.5l18 92q59 0 59 35q0 24 -30 24q-29 0 -34 -24h-140
q7 65 53.5 108t139.5 43q71 0 117 -28z" />
    <glyph glyph-name="uni2084" unicode="&#x2084;" horiz-adv-x="404" 
d="M321 74h37l-24 -122h-37l-12 -62h-134l12 62h-207l21 109l263 275h132zM187 74l19 97h-3l-97 -97h81z" />
    <glyph glyph-name="uni2085" unicode="&#x2085;" horiz-adv-x="361" 
d="M274 144.5q33 -33.5 33 -94.5q0 -73 -49.5 -121.5t-157.5 -48.5q-90 0 -152 31l47 124q19 -9 49.5 -16.5t55.5 -7.5q35 0 51.5 11t16.5 31q0 33 -30 33q-24 0 -36 -21h-115l70 271h268l-25 -129h-166l-12 -45h2q25 16 64 16q53 0 86 -33.5z" />
    <glyph glyph-name="uni2086" unicode="&#x2086;" horiz-adv-x="397" 
d="M23 -79q-46 41 -46 117q0 65 33 117t106 121l71 68h175l-200 -173l2 -1q40 30 77 30q50 0 80 -38t30 -98q0 -49 -21.5 -91t-66 -67.5t-110.5 -25.5q-84 0 -130 41zM189.5 20q10.5 13 10.5 29q0 14 -9 24t-26 10q-21 0 -31.5 -13t-10.5 -29q0 -14 9 -24t26 -10
q21 0 31.5 13z" />
    <glyph glyph-name="uni2087" unicode="&#x2087;" horiz-adv-x="345" 
d="M329 206l-230 -316h-157l225 304h-169l28 142h329z" />
    <glyph glyph-name="uni2088" unicode="&#x2088;" horiz-adv-x="426" 
d="M27 -87q-44 33 -44 90q0 50 33 83t83 38l1 2q-31 8 -46.5 32.5t-15.5 54.5q0 34 19.5 64.5t60.5 49t102 18.5q72 0 118 -27t46 -84q0 -40 -24.5 -69t-73.5 -39l-1 -2q33 -9 53 -35t20 -65q0 -61 -48 -102.5t-150 -41.5q-89 0 -133 33zM231.5 186.5q9.5 9.5 9.5 22.5
q0 11 -8.5 18.5t-21.5 7.5q-16 0 -25.5 -9.5t-9.5 -22.5q0 -11 8.5 -18.5t21.5 -7.5q16 0 25.5 9.5zM202.5 12q10.5 11 10.5 27q0 15 -10 22.5t-25 7.5q-20 0 -30.5 -11t-10.5 -27q0 -15 10 -22.5t25 -7.5q20 0 30.5 11z" />
    <glyph glyph-name="uni2089" unicode="&#x2089;" horiz-adv-x="404" 
d="M203 58l-1 1q-18 -13 -40.5 -21t-44.5 -8q-52 0 -81 43t-29 97q0 44 20.5 84t64.5 65.5t109 25.5q76 0 125 -38.5t49 -122.5q0 -73 -38.5 -131t-112.5 -115l-62 -48h-172zM221.5 157q10.5 13 10.5 29q0 14 -8.5 24t-26.5 10q-21 0 -31.5 -13t-10.5 -29q0 -14 9 -24
t26 -10q21 0 31.5 13z" />
    <glyph glyph-name="TRY" unicode="&#x20a4;" horiz-adv-x="623" 
d="M602 327q-29 -160 -121.5 -243.5t-257.5 -83.5h-111l57 294l-127 -51l6 31l127 51l11 56l-127 -51l6 31l127 51l51 263h165l-37 -192l191 77l-6 -31l-191 -77l-11 -56l191 77l-6 -31l-191 -77l-36 -182q45 0 84 40t51 104h155z" />
    <glyph glyph-name="uni20A9" unicode="&#x20a9;" horiz-adv-x="1097" 
d="M1022 431h74l-6 -30h-82l-31 -68h100l-6 -30h-107l-138 -303h-203l-14 303h-93l-132 -303h-203l-20 303h-107l6 30h99l-4 68h-82l6 30h74l-18 269h187l4 -269h97l115 269h187l10 -269h97l109 269h203zM571 431h33l-3 62h-3zM328 333h53l29 68h-83zM608 333l-3 68h-47
l-29 -68h79zM820 401h-84l3 -68h53zM369 303h-40l1 -86h2zM780 303h-40l3 -86h2z" />
    <glyph glyph-name="Euro" unicode="&#x20ac;" horiz-adv-x="669" 
d="M375 487q-47 -31 -69 -85h267l-21 -30h-256q-7 -31 -8 -59h224l-21 -30h-202q5 -60 39.5 -93t99.5 -33q74 0 168 39l-32 -182q-38 -14 -74.5 -21.5t-80.5 -7.5q-99 0 -167 39t-102 106.5t-37 152.5h-88l21 30h67q1 29 6 59h-72l21 30h56q29 125 124.5 206.5t258.5 81.5
q65 0 118 -14t103 -41l-88 -155q-40 20 -68 29t-67 9q-73 0 -120 -31z" />
    <glyph glyph-name="uni20AE" unicode="&#x20ae;" horiz-adv-x="580" 
d="M431 530l-24 -123l133 54l-6 -31l-133 -54l-11 -56l133 54l-6 -31l-133 -54l-57 -289h-165l43 217l-135 -54l6 31l135 54l11 56l-135 -54l6 31l135 54l38 195h-188l29 145h539l-29 -145h-186z" />
    <glyph glyph-name="uni20B4" unicode="&#x20b4;" horiz-adv-x="593" 
d="M515 395q-31 -28 -92 -68h149l-6 -30h-190l-71 -46q-4 -3 -20.5 -13.5t-25.5 -22.5t-9 -26q0 -17 14.5 -25t48.5 -8q41 0 89.5 12t114.5 38l-35 -179q-57 -21 -110 -31.5t-111 -10.5q-219 0 -219 166q0 46 17 81t49 65h-55l6 30h86q24 18 65 43l39 25h-177l6 30h219
l28 18l22 13q22 13 31.5 22t9.5 24q0 17 -12.5 23.5t-39.5 6.5q-70 0 -199 -34l30 162q111 30 211 30q109 0 158 -39.5t49 -112.5q0 -64 -40 -113h46l-6 -30h-70z" />
    <glyph glyph-name="uni20B8" unicode="&#x20b8;" horiz-adv-x="579" 
d="M645 675l-30 -155h-539l30 155h539zM66 468h539l-30 -155h-187l-61 -313h-165l61 313h-187z" />
    <glyph glyph-name="uni20B9" unicode="&#x20b9;" horiz-adv-x="560" 
d="M578 645h-211q43 -25 67.5 -67t24.5 -97h109l-28 -30h-83q-10 -78 -69 -131.5t-151 -62.5l183 -257h-203l-172 255l28 145h105q77 0 91 51h-186l6 30h182q-3 27 -23 38t-55 11h-95l29 145h479z" />
    <glyph glyph-name="uni20BD" unicode="&#x20bd;" horiz-adv-x="653" 
d="M313 261l-10 -51h174l-6 -30h-174l-35 -180h-165l35 180h-102l6 30h102l10 51h-102l28 145h102l52 269h208q106 0 168.5 -46t62.5 -147q0 -97 -64 -159t-198 -62h-92zM341 406h81q40 0 58.5 19.5t18.5 48.5q0 31 -20 43.5t-57 12.5h-57z" />
    <glyph glyph-name="uni2113" unicode="&#x2113;" horiz-adv-x="542" 
d="M488.5 340q-84.5 -67 -234.5 -106q2 -45 15.5 -66.5t48.5 -21.5q19 0 44.5 6.5t71.5 21.5l-31 -161q-44 -13 -71 -19t-61 -6q-92 0 -136 50.5t-52 159.5q-43 -8 -71 -11l33 171q12 1 45 5q22 149 98 238t199 89q88 0 137 -46.5t49 -129.5q0 -107 -84.5 -174zM413 514
q0 36 -33 36q-40 0 -68.5 -42t-43.5 -111q145 41 145 117z" />
    <glyph glyph-name="uni2116" unicode="&#x2116;" horiz-adv-x="1256" 
d="M680 0h-148l-251 406h-2l-79 -406h-190l136 700h148l251 -406h2l79 406h190zM872 241.5q-55 49.5 -55 139.5q0 61 26.5 112.5t77.5 82.5t121 31q89 0 144 -49.5t55 -139.5q0 -61 -26.5 -112.5t-77.5 -82.5t-121 -31q-89 0 -144 49.5zM1076 358q17 23 17 51q0 26 -17 40.5
t-43 14.5q-34 0 -51 -23t-17 -51q0 -26 17 -40.5t43 -14.5q34 0 51 23zM784 144h415l-28 -144h-415z" />
    <glyph glyph-name="trademark" unicode="&#x2122;" horiz-adv-x="979" 
d="M348 575l-55 -281h-143l55 281h-108l27 140h359l-27 -140h-108zM961 294h-134l-12 188l-83 -139h-107l-28 139l-87 -188h-154l201 421h115l29 -209l108 209h115z" />
    <glyph glyph-name="estimated" unicode="&#x212e;" horiz-adv-x="741" 
d="M82 462.5q47 72.5 128 115t176 42.5q96 0 177 -42.5t128 -115t47 -158.5v-9h-574v-140q0 -33 13.5 -60.5t38.5 -43.5q68 -45 172 -45q73 0 138.5 27.5t109.5 77.5h29q-50 -58 -123.5 -90.5t-155.5 -32.5q-95 0 -176 42.5t-128 115t-47 158.5t47 158.5zM388 602
q-106 0 -172 -46q-52 -35 -52 -85v-158h445v152q0 53 -44 87q-65 50 -177 50z" />
    <glyph glyph-name="uni2153" unicode="&#x2153;" horiz-adv-x="814" 
d="M200 289h-102l56 286h-22l19 100h124zM608 675h90l-529 -675h-90zM750 369q36 -26 36 -72q0 -38 -23.5 -62t-67.5 -33v-2q34 -5 51.5 -26t17.5 -56q0 -51 -35.5 -89t-114.5 -38q-66 0 -104.5 28.5t-38.5 82.5q0 17 2 26h97v-8q0 -39 46 -39q25 0 39 10.5t14 32.5t-21 30
t-64 8l12 74q84 1 84 39q0 15 -9 22.5t-25 7.5q-20 0 -33.5 -10.5t-15.5 -29.5h-98q7 60 45.5 95t109.5 35q60 0 96 -26z" />
    <glyph glyph-name="uni2154" unicode="&#x2154;" horiz-adv-x="922" 
d="M350 658.5q38 -25.5 38 -76.5q0 -43 -27.5 -76t-80.5 -70l-73 -51h141l-19 -96h-282l14 74l155 127q38 31 51 47t13 29q0 28 -35 28q-41 0 -50 -43h-97q8 66 44.5 99.5t110.5 33.5q59 0 97 -25.5zM716 675h90l-529 -675h-90zM858 369q36 -26 36 -72q0 -38 -23.5 -62
t-67.5 -33v-2q34 -5 51.5 -26t17.5 -56q0 -51 -35.5 -89t-114.5 -38q-66 0 -104.5 28.5t-38.5 82.5q0 17 2 26h97v-8q0 -39 46 -39q25 0 39 10.5t14 32.5t-21 30t-64 8l12 74q84 1 84 39q0 15 -9 22.5t-25 7.5q-20 0 -33.5 -10.5t-15.5 -29.5h-98q7 60 45.5 95t109.5 35
q60 0 96 -26z" />
    <glyph glyph-name="oneeighth" unicode="&#x215b;" horiz-adv-x="842" 
d="M200 289h-102l56 286h-22l19 100h124zM608 675h90l-529 -675h-90zM502.5 19q-38.5 28 -38.5 80q0 47 30 73t77 34v2q-25 6 -41.5 25t-16.5 49q0 46 38.5 79.5t122.5 33.5q59 0 96 -22t37 -74q0 -42 -26 -64t-66 -29v-2q30 -6 48.5 -29t18.5 -60q0 -50 -40.5 -87
t-128.5 -37q-72 0 -110.5 28zM689.5 261.5q13.5 9.5 13.5 26.5q0 15 -11.5 22.5t-29.5 7.5q-21 0 -34.5 -9.5t-13.5 -26.5q0 -15 11.5 -22.5t29.5 -7.5q21 0 34.5 9.5zM667.5 90.5q15.5 13.5 15.5 32.5q0 18 -14.5 28t-38.5 10q-30 0 -45.5 -13.5t-15.5 -32.5
q0 -18 14.5 -28t38.5 -10q30 0 45.5 13.5z" />
    <glyph glyph-name="threeeighths" unicode="&#x215c;" horiz-adv-x="929" 
d="M334 658q36 -26 36 -72q0 -38 -23.5 -62t-67.5 -33v-2q34 -5 51.5 -26t17.5 -56q0 -51 -35.5 -89t-114.5 -38q-66 0 -104.5 28.5t-38.5 82.5q0 17 2 26h97v-8q0 -39 46 -39q25 0 39 10.5t14 32.5t-21 30t-64 8l12 74q84 1 84 39q0 15 -9 22.5t-25 7.5q-20 0 -33.5 -10.5
t-15.5 -29.5h-98q7 60 45.5 95t109.5 35q60 0 96 -26zM695 675h90l-529 -675h-90zM589.5 19q-38.5 28 -38.5 80q0 47 30 73t77 34v2q-25 6 -41.5 25t-16.5 49q0 46 38.5 79.5t122.5 33.5q59 0 96 -22t37 -74q0 -42 -26 -64t-66 -29v-2q30 -6 48.5 -29t18.5 -60
q0 -50 -40.5 -87t-128.5 -37q-72 0 -110.5 28zM776.5 261.5q13.5 9.5 13.5 26.5q0 15 -11.5 22.5t-29.5 7.5q-21 0 -34.5 -9.5t-13.5 -26.5q0 -15 11.5 -22.5t29.5 -7.5q21 0 34.5 9.5zM754.5 90.5q15.5 13.5 15.5 32.5q0 18 -14.5 28t-38.5 10q-30 0 -45.5 -13.5
t-15.5 -32.5q0 -18 14.5 -28t38.5 -10q30 0 45.5 13.5z" />
    <glyph glyph-name="fiveeighths" unicode="&#x215d;" horiz-adv-x="917" 
d="M331 513.5q28 -30.5 28 -84.5q0 -64 -42 -106.5t-125 -42.5q-41 0 -82 11t-72 31l51 81q19 -13 47.5 -23t55.5 -10q35 0 51.5 17t16.5 41q0 23 -13.5 35.5t-32.5 12.5q-30 0 -49 -29h-79l61 228h224l-19 -94h-151l-17 -63h2q31 26 73 26q44 0 72 -30.5zM683 675h90
l-529 -675h-90zM577.5 19q-38.5 28 -38.5 80q0 47 30 73t77 34v2q-25 6 -41.5 25t-16.5 49q0 46 38.5 79.5t122.5 33.5q59 0 96 -22t37 -74q0 -42 -26 -64t-66 -29v-2q30 -6 48.5 -29t18.5 -60q0 -50 -40.5 -87t-128.5 -37q-72 0 -110.5 28zM764.5 261.5q13.5 9.5 13.5 26.5
q0 15 -11.5 22.5t-29.5 7.5q-21 0 -34.5 -9.5t-13.5 -26.5q0 -15 11.5 -22.5t29.5 -7.5q21 0 34.5 9.5zM742.5 90.5q15.5 13.5 15.5 32.5q0 18 -14.5 28t-38.5 10q-30 0 -45.5 -13.5t-15.5 -32.5q0 -18 14.5 -28t38.5 -10q30 0 45.5 13.5z" />
    <glyph glyph-name="seveneighths" unicode="&#x215e;" horiz-adv-x="861" 
d="M362 587l-214 -298h-107l213 289h-172l19 97h278zM627 675h90l-529 -675h-90zM521.5 19q-38.5 28 -38.5 80q0 47 30 73t77 34v2q-25 6 -41.5 25t-16.5 49q0 46 38.5 79.5t122.5 33.5q59 0 96 -22t37 -74q0 -42 -26 -64t-66 -29v-2q30 -6 48.5 -29t18.5 -60
q0 -50 -40.5 -87t-128.5 -37q-72 0 -110.5 28zM708.5 261.5q13.5 9.5 13.5 26.5q0 15 -11.5 22.5t-29.5 7.5q-21 0 -34.5 -9.5t-13.5 -26.5q0 -15 11.5 -22.5t29.5 -7.5q21 0 34.5 9.5zM686.5 90.5q15.5 13.5 15.5 32.5q0 18 -14.5 28t-38.5 10q-30 0 -45.5 -13.5
t-15.5 -32.5q0 -18 14.5 -28t38.5 -10q30 0 45.5 13.5z" />
    <glyph glyph-name="arrowleft" unicode="&#x2190;" horiz-adv-x="812" 
d="M759 216h-439l130 -146l-130 -111l-259 331l385 335l90 -115l-177 -146h428z" />
    <glyph glyph-name="arrowup" unicode="&#x2191;" horiz-adv-x="770" 
d="M596 188l-116 150l-84 -430h-148l84 431l-176 -151l-93 112l397 320l273 -320z" />
    <glyph glyph-name="arrowright" unicode="&#x2192;" horiz-adv-x="811" 
d="M773 291l-385 -335l-89 115l170 146h-422l29 148h434l-126 146l130 109z" />
    <glyph glyph-name="arrowdown" unicode="&#x2193;" horiz-adv-x="770" 
d="M730 281l-397 -320l-273 320l137 112l116 -154l84 434h148l-83 -428l175 148z" />
    <glyph glyph-name="arrowboth" unicode="&#x2194;" horiz-adv-x="1251" 
d="M1212 290l-385 -335l-89 115l170 146h-588l130 -146l-130 -111l-259 331l385 335l90 -115l-177 -146h590l-126 146l130 109z" />
    <glyph glyph-name="arrowupdn" unicode="&#x2195;" horiz-adv-x="771" 
d="M24 94l137 112l116 -154l95 490l-176 -151l-93 112l397 320l273 -320l-137 -112l-116 150l-94 -483l175 148l93 -112l-397 -320z" />
    <glyph glyph-name="uni2196" unicode="&#x2196;" horiz-adv-x="666" 
d="M461 -32l-243 301l-40 -206l-161 -2l101 463l464 6l-32 -156l-210 3l245 -304z" />
    <glyph glyph-name="uni2197" unicode="&#x2197;" horiz-adv-x="666" 
d="M663 523l-80 -463l-160 2l44 210l-363 -304l-85 104l363 304l-209 -3l29 161z" />
    <glyph glyph-name="uni2198" unicode="&#x2198;" horiz-adv-x="666" 
d="M672 519l-101 -463l-465 -10l33 160l210 -3l-245 304l124 105l246 -305l37 210z" />
    <glyph glyph-name="uni2199" unicode="&#x2199;" horiz-adv-x="666" 
d="M306 204l210 3l-29 -150h-461l80 463l160 -2l-45 -211l364 305l85 -104z" />
    <glyph glyph-name="partialdiff" unicode="&#x2202;" horiz-adv-x="619" 
d="M518 636.5q81 -78.5 81 -233.5q0 -103 -37 -199t-114 -157.5t-189 -61.5q-71 0 -126 26.5t-85 75.5t-30 116q0 64 28.5 120.5t86 92t140.5 35.5q101 0 160 -56v12q0 61 -39 100.5t-109 39.5q-30 0 -65 -7t-63 -18l-42 159q94 34 186 34q136 0 217 -78.5zM389 237
q-44 50 -103 50q-43 0 -65.5 -20t-22.5 -47q0 -31 20.5 -47.5t52.5 -16.5q73 0 118 81z" />
    <glyph glyph-name="emptyset" unicode="&#x2205;" 
d="M540 409.5q16 -40.5 16 -86.5q0 -65 -31 -118t-86 -83.5t-122 -30.5q-90 0 -158 55l-56 -56l-19 20l55 55q-29 31 -45 71.5t-16 86.5q0 65 31 118t86 83.5t122 30.5q93 0 157 -55l56 56l20 -20l-55 -55q29 -31 45 -71.5zM251 277l112 112q-22 12 -46 12q-36 0 -57.5 -22
t-21.5 -56q0 -25 13 -46zM374.5 267q21.5 22 21.5 56q0 25 -13 46l-112 -111q21 -13 46 -13q36 0 57.5 22z" />
    <glyph glyph-name="product" unicode="&#x220f;" horiz-adv-x="786" 
d="M811 545h-105v-623h-163v623h-164v-623h-163v623h-105v155h700v-155z" />
    <glyph glyph-name="summation" unicode="&#x2211;" horiz-adv-x="706" 
d="M620 530h-292l206 -235l-206 -235h292v-170h-509v170l213 235l-213 235v170h509v-170z" />
    <glyph glyph-name="minus" unicode="&#x2212;" 
d="M551 258h-477v80h477v-80z" />
    <glyph glyph-name="radical" unicode="&#x221a;" horiz-adv-x="662" 
d="M736 715l-255 -715h-166l-132 304l-2 -3h-116v161h233l95 -239l171 492h172z" />
    <glyph glyph-name="infinity" unicode="&#x221e;" horiz-adv-x="768" 
d="M712 406.5q46 -43.5 46 -110.5q0 -43 -21 -77.5t-58 -54.5t-85 -20q-59 0 -104.5 27.5t-91.5 77.5q-48 -50 -93.5 -77.5t-104.5 -27.5q-71 0 -117.5 43.5t-46.5 110.5q0 43 21 77.5t58.5 54.5t84.5 20q59 0 104.5 -27.5t93.5 -77.5q46 50 91.5 77.5t104.5 27.5
q72 0 118 -43.5zM131 359.5q-27 -25.5 -27 -61.5q0 -37 27 -62.5t68 -25.5q43 0 79 22.5t74 64.5q-38 42 -74 65t-79 23q-41 0 -68 -25.5zM517 362.5q-35 -22.5 -76 -65.5q41 -43 76 -65t77 -22t69 25.5t27 61.5q0 37 -27 62.5t-69 25.5t-77 -22.5z" />
    <glyph glyph-name="integral" unicode="&#x222b;" horiz-adv-x="475" 
d="M500 565q-66 0 -97 -24t-42 -83l-89 -458q-21 -105 -100.5 -160t-218.5 -55l29 150q64 1 94.5 24.5t41.5 82.5l89 458q21 106 98.5 160.5t223.5 54.5z" />
    <glyph glyph-name="approxequal" unicode="&#x2248;" 
d="M256 486q30 -13 72 -39q37 -23 60.5 -34t48.5 -11q58 0 84 78h73q-21 -84 -63.5 -121t-92.5 -37q-33 0 -63 13t-72 39q-39 23 -62 34t-48 11q-29 0 -50 -19t-35 -59h-73q22 84 64.5 121t93.5 37q33 0 63 -13zM257 283q30 -13 72 -39q37 -23 60.5 -34t48.5 -11
q31 0 50.5 20t32.5 58h73q-21 -84 -64 -121t-93 -37q-33 0 -63 13t-72 39q-39 23 -62 34t-48 11q-58 0 -84 -78h-73q22 84 65 121t94 37q33 0 63 -13z" />
    <glyph glyph-name="notequal" unicode="&#x2260;" 
d="M390 377l-96 -153h272v-74h-318l-51 -82h-78l51 82h-110v74h156l96 153h-252l1 74h297l49 78h78l-49 -78h131l-1 -74h-176z" />
    <glyph glyph-name="lessequal" unicode="&#x2264;" 
d="M539 417l-372 -73l373 -72v-83l-480 113l-1 84l480 113v-82zM542 88h-488v74h488v-74z" />
    <glyph glyph-name="greaterequal" unicode="&#x2265;" 
d="M576 386l-1 -84l-480 -113v83l373 72l-372 73v82zM581 162v-74h-488v74h488z" />
    <glyph glyph-name="uni2460" unicode="&#x2460;" horiz-adv-x="846" 
d="M257 32q-83 47 -129.5 130.5t-46.5 187.5t46.5 187.5t129.5 130.5t189 47t189 -47t129.5 -130.5t46.5 -187.5t-46.5 -187.5t-129.5 -130.5t-189 -47t-189 47zM581 114.5q59 34.5 92 96t33 139.5t-33 139.5t-92 96t-135 34.5t-135 -34.5t-92 -96t-33 -139.5t33 -139.5
t92 -96t135 -34.5t135 34.5zM408 444h-22v100h124v-386h-102v286z" />
    <glyph glyph-name="uni2461" unicode="&#x2461;" horiz-adv-x="846" 
d="M257 32q-83 47 -129.5 130.5t-46.5 187.5t46.5 187.5t129.5 130.5t189 47t189 -47t129.5 -130.5t46.5 -187.5t-46.5 -187.5t-129.5 -130.5t-189 -47t-189 47zM581 114.5q59 34.5 92 96t33 139.5t-33 139.5t-92 96t-135 34.5t-135 -34.5t-92 -96t-33 -139.5t33 -139.5
t92 -96t135 -34.5t135 34.5zM309 246l130 127q28 28 38.5 43.5t10.5 30.5t-9.5 22.5t-27.5 7.5q-21 0 -32.5 -11t-12.5 -32h-97q0 63 37.5 98t108.5 35q67 0 103 -29.5t36 -79.5q0 -39 -19.5 -67t-61.5 -68l-58 -55h136v-96h-282v74z" />
    <glyph glyph-name="uni2462" unicode="&#x2462;" horiz-adv-x="846" 
d="M257 32q-83 47 -129.5 130.5t-46.5 187.5t46.5 187.5t129.5 130.5t189 47t189 -47t129.5 -130.5t46.5 -187.5t-46.5 -187.5t-129.5 -130.5t-189 -47t-189 47zM581 114.5q59 34.5 92 96t33 139.5t-33 139.5t-92 96t-135 34.5t-135 -34.5t-92 -96t-33 -139.5t33 -139.5
t92 -96t135 -34.5t135 34.5zM348 185q-39 35 -40 102h97q2 -23 15 -35t40 -12q44 0 44 43q0 26 -19.5 34.5t-63.5 8.5v65q36 1 50.5 11t14.5 27t-10 26t-28 9q-19 0 -30.5 -10t-12.5 -30h-98q1 58 38.5 94t105.5 36q62 0 99 -29t37 -74q0 -31 -16.5 -56t-54.5 -34v-2
q84 -10 84 -93q0 -48 -35.5 -82t-108.5 -34q-69 0 -108 35z" />
    <glyph glyph-name="uni2463" unicode="&#x2463;" horiz-adv-x="846" 
d="M635 668q83 -47 129.5 -130.5t46.5 -187.5t-46.5 -187.5t-129.5 -130.5t-189 -47t-189 47t-129.5 130.5t-46.5 187.5t46.5 187.5t129.5 130.5t189 47t189 -47zM581 114.5q59 34.5 92 96t33 139.5t-33 139.5t-92 96t-135 34.5t-135 -34.5t-92 -96t-33 -139.5t33 -139.5
t92 -96t135 -34.5t135 34.5zM556 309h38v-91h-38v-58h-93v58h-190v91l198 237h85v-237zM463 309v108h-2l-93 -108h95z" />
    <glyph glyph-name="uni2464" unicode="&#x2464;" horiz-adv-x="846" 
d="M257 32q-83 47 -129.5 130.5t-46.5 187.5t46.5 187.5t129.5 130.5t189 47t189 -47t129.5 -130.5t46.5 -187.5t-46.5 -187.5t-129.5 -130.5t-189 -47t-189 47zM581 114.5q59 34.5 92 96t33 139.5t-33 139.5t-92 96t-135 34.5t-135 -34.5t-92 -96t-33 -139.5t33 -139.5
t92 -96t135 -34.5t135 34.5zM301 194l45 80q17 -13 44 -22.5t52 -9.5q29 0 46 15t17 42q0 24 -14.5 36.5t-34.5 12.5q-16 0 -29 -8t-19 -21h-79l16 228h224v-94h-151l-5 -63h2q26 26 70 26q50 0 84.5 -33t34.5 -93q0 -61 -43 -99.5t-119 -38.5q-83 0 -141 42z" />
    <glyph glyph-name="uni2465" unicode="&#x2465;" horiz-adv-x="846" 
d="M257 32q-83 47 -129.5 130.5t-46.5 187.5t46.5 187.5t129.5 130.5t189 47t189 -47t129.5 -130.5t46.5 -187.5t-46.5 -187.5t-129.5 -130.5t-189 -47t-189 47zM581 114.5q59 34.5 92 96t33 139.5t-33 139.5t-92 96t-135 34.5t-135 -34.5t-92 -96t-33 -139.5t33 -139.5
t92 -96t135 -34.5t135 34.5zM332.5 188.5q-43.5 39.5 -43.5 107.5q0 49 21 91t60 85l72 80h110l-154 -161l3 -1q14 16 33.5 24.5t40.5 8.5q49 0 84.5 -36t35.5 -101q0 -36 -17.5 -67.5t-51.5 -50.5t-81 -19q-69 0 -112.5 39.5zM483 252.5q15 13.5 15 36.5t-15 36.5t-39 13.5
t-39 -13.5t-15 -36.5t15 -36.5t39 -13.5t39 13.5z" />
    <glyph glyph-name="uni2466" unicode="&#x2466;" horiz-adv-x="846" 
d="M257 32q-83 47 -129.5 130.5t-46.5 187.5t46.5 187.5t129.5 130.5t189 47t189 -47t129.5 -130.5t46.5 -187.5t-46.5 -187.5t-129.5 -130.5t-189 -47t-189 47zM581 114.5q59 34.5 92 96t33 139.5t-33 139.5t-92 96t-135 34.5t-135 -34.5t-92 -96t-33 -139.5t33 -139.5
t92 -96t135 -34.5t135 34.5zM487 442h-177v97h278v-88l-160 -298h-103z" />
    <glyph glyph-name="uni2467" unicode="&#x2467;" horiz-adv-x="846" 
d="M257 32q-83 47 -129.5 130.5t-46.5 187.5t46.5 187.5t129.5 130.5t189 47t189 -47t129.5 -130.5t46.5 -187.5t-46.5 -187.5t-129.5 -130.5t-189 -47t-189 47zM581 114.5q59 34.5 92 96t33 139.5t-33 139.5t-92 96t-135 34.5t-135 -34.5t-92 -96t-33 -139.5t33 -139.5
t92 -96t135 -34.5t135 34.5zM329.5 185.5q-40.5 31.5 -40.5 79.5q0 43 24 69.5t61 33.5v2q-32 5 -52.5 28t-20.5 58q0 45 38.5 73.5t106.5 28.5t106.5 -28.5t38.5 -73.5q0 -34 -21 -57t-52 -29v-2q36 -7 60.5 -33.5t24.5 -69.5q0 -48 -40.5 -79.5t-116.5 -31.5t-116.5 31.5z
M478 423.5q12 8.5 12 24.5t-12 24.5t-32 8.5t-32 -8.5t-12 -24.5t12 -24.5t32 -8.5t32 8.5zM486.5 251q15.5 11 15.5 31t-15.5 31t-40.5 11t-40.5 -11t-15.5 -31t15.5 -31t40.5 -11t40.5 11z" />
    <glyph glyph-name="uni2468" unicode="&#x2468;" horiz-adv-x="846" 
d="M257 32q-83 47 -129.5 130.5t-46.5 187.5t46.5 187.5t129.5 130.5t189 47t189 -47t129.5 -130.5t46.5 -187.5t-46.5 -187.5t-129.5 -130.5t-189 -47t-189 47zM581 114.5q59 34.5 92 96t33 139.5t-33 139.5t-92 96t-135 34.5t-135 -34.5t-92 -96t-33 -139.5t33 -139.5
t92 -96t135 -34.5t135 34.5zM512 312h-3q-37 -27 -79 -27q-52 0 -88 35.5t-36 92.5q0 59 39.5 96.5t109.5 37.5t110.5 -40t40.5 -114q0 -51 -23.5 -97.5t-81.5 -105.5l-36 -37h-110zM491 375.5q15 13.5 15 36.5t-15 36.5t-39 13.5t-39 -13.5t-15 -36.5t15 -36.5t39 -13.5
t39 13.5z" />
    <glyph glyph-name="uni24EA" unicode="&#x24ea;" horiz-adv-x="846" 
d="M257 32q-83 47 -129.5 130.5t-46.5 187.5t46.5 187.5t129.5 130.5t189 47t189 -47t129.5 -130.5t46.5 -187.5t-46.5 -187.5t-129.5 -130.5t-189 -47t-189 47zM581 114.5q59 34.5 92 96t33 139.5t-33 139.5t-92 96t-135 34.5t-135 -34.5t-92 -96t-33 -139.5t33 -139.5
t92 -96t135 -34.5t135 34.5zM325 203q-46 53 -46 150t46 149t123 52q78 0 123.5 -52t45.5 -149q0 -98 -45.5 -150.5t-123.5 -52.5q-77 0 -123 53zM498.5 267.5q18.5 28.5 18.5 85.5t-18.5 84.5t-50.5 27.5t-50.5 -27.5t-18.5 -84.5q0 -58 18.5 -86t50.5 -28t50.5 28.5z" />
    <glyph glyph-name="uni24FF" unicode="&#x24ff;" horiz-adv-x="845" 
d="M259.5 32.5q-83.5 47.5 -131 131t-47.5 186.5t47.5 186.5t131 131t186.5 47.5t186.5 -47.5t131 -131t47.5 -186.5t-47.5 -186.5t-131 -131t-186.5 -47.5t-186.5 47.5zM569.5 202.5q45.5 52.5 45.5 150.5q0 97 -45.5 149t-123.5 52q-77 0 -123 -52t-46 -149t46 -150
t123 -53q78 0 123.5 52.5zM395.5 267q-18.5 28 -18.5 86q0 57 18.5 84.5t50.5 27.5t50.5 -27.5t18.5 -84.5t-18.5 -85.5t-50.5 -28.5t-50.5 28z" />
    <glyph glyph-name="lozenge" unicode="&#x25ca;" horiz-adv-x="644" 
d="M647 350l-247 -365h-110l-247 365l247 365h110zM238 350l107 -158l107 158l-107 159z" />
    <glyph glyph-name="uni2776" unicode="&#x2776;" horiz-adv-x="845" 
d="M259.5 32.5q-83.5 47.5 -131 131t-47.5 186.5t47.5 186.5t131 131t186.5 47.5t186.5 -47.5t131 -131t47.5 -186.5t-47.5 -186.5t-131 -131t-186.5 -47.5t-186.5 47.5zM503 163v386h-124v-100h22v-286h102z" />
    <glyph glyph-name="uni2777" unicode="&#x2777;" horiz-adv-x="845" 
d="M259.5 32.5q-83.5 47.5 -131 131t-47.5 186.5t47.5 186.5t131 131t186.5 47.5t186.5 -47.5t131 -131t47.5 -186.5t-47.5 -186.5t-131 -131t-186.5 -47.5t-186.5 47.5zM591 172v96h-136l58 55q42 40 61.5 68t19.5 67q0 50 -36 79.5t-103 29.5q-71 0 -108.5 -35t-37.5 -98
h97q1 21 12.5 32t32.5 11q37 0 37 -33q0 -13 -10.5 -28t-38.5 -43l-130 -127v-74h282z" />
    <glyph glyph-name="uni2778" unicode="&#x2778;" horiz-adv-x="845" 
d="M259.5 32.5q-83.5 47.5 -131 131t-47.5 186.5t47.5 186.5t131 131t186.5 47.5t186.5 -47.5t131 -131t47.5 -186.5t-47.5 -186.5t-131 -131t-186.5 -47.5t-186.5 47.5zM554.5 194q35.5 34 35.5 82q0 83 -84 93v2q38 9 54.5 34t16.5 56q0 45 -37 74t-99 29
q-68 0 -105.5 -36t-38.5 -94h98q1 20 12.5 30t30.5 10q18 0 28 -9t10 -26t-14.5 -27t-50.5 -11v-65q44 0 63.5 -8.5t19.5 -34.5q0 -43 -44 -43q-27 0 -40 12t-15 35h-97q1 -67 40 -102t108 -35q73 0 108.5 34z" />
    <glyph glyph-name="uni2779" unicode="&#x2779;" horiz-adv-x="845" 
d="M259.5 32.5q-83.5 47.5 -131 131t-47.5 186.5t47.5 186.5t131 131t186.5 47.5t186.5 -47.5t131 -131t47.5 -186.5t-47.5 -186.5t-131 -131t-186.5 -47.5t-186.5 47.5zM546 170v58h38v91h-38v237h-85l-198 -237v-91h190v-58h93zM451 427h2v-108h-95z" />
    <glyph glyph-name="uni277A" unicode="&#x277a;" horiz-adv-x="845" 
d="M259.5 32.5q-83.5 47.5 -131 131t-47.5 186.5t47.5 186.5t131 131t186.5 47.5t186.5 -47.5t131 -131t47.5 -186.5t-47.5 -186.5t-131 -131t-186.5 -47.5t-186.5 47.5zM561 190.5q43 38.5 43 99.5q0 60 -34.5 93t-84.5 33q-44 0 -70 -26h-2l5 63h151v94h-224l-16 -228h79
q6 13 19 21t29 8q20 0 34.5 -12.5t14.5 -36.5q0 -27 -17 -42t-46 -15q-25 0 -52 9.5t-44 22.5l-45 -80q58 -42 141 -42q76 0 119 38.5z" />
    <glyph glyph-name="uni277B" unicode="&#x277b;" horiz-adv-x="845" 
d="M259.5 32.5q-83.5 47.5 -131 131t-47.5 186.5t47.5 186.5t131 131t186.5 47.5t186.5 -47.5t131 -131t47.5 -186.5t-47.5 -186.5t-131 -131t-186.5 -47.5t-186.5 47.5zM536 176q34 19 51.5 50.5t17.5 67.5q0 65 -35.5 101t-84.5 36q-21 0 -40.5 -8.5t-33.5 -24.5l-3 1
l154 161h-110l-72 -80q-39 -43 -60 -85t-21 -91q0 -68 43.5 -107.5t112.5 -39.5q47 0 81 19zM415 260.5q-15 13.5 -15 36.5t15 36.5t39 13.5t39 -13.5t15 -36.5t-15 -36.5t-39 -13.5t-39 13.5z" />
    <glyph glyph-name="uni277C" unicode="&#x277c;" horiz-adv-x="845" 
d="M259.5 32.5q-83.5 47.5 -131 131t-47.5 186.5t47.5 186.5t131 131t186.5 47.5t186.5 -47.5t131 -131t47.5 -186.5t-47.5 -186.5t-131 -131t-186.5 -47.5t-186.5 47.5zM428 153l160 298v88h-278v-97h177l-162 -289h103z" />
    <glyph glyph-name="uni277D" unicode="&#x277d;" horiz-adv-x="845" 
d="M259.5 32.5q-83.5 47.5 -131 131t-47.5 186.5t47.5 186.5t131 131t186.5 47.5t186.5 -47.5t131 -131t47.5 -186.5t-47.5 -186.5t-131 -131t-186.5 -47.5t-186.5 47.5zM562.5 185.5q40.5 31.5 40.5 79.5q0 43 -24.5 69.5t-60.5 33.5v2q31 6 52 29t21 57q0 45 -38.5 73.5
t-106.5 28.5t-106.5 -28.5t-38.5 -73.5q0 -35 20.5 -58t52.5 -28v-2q-37 -7 -61 -33.5t-24 -69.5q0 -48 40.5 -79.5t116.5 -31.5t116.5 31.5zM414 423.5q-12 8.5 -12 24.5t12 24.5t32 8.5t32 -8.5t12 -24.5t-12 -24.5t-32 -8.5t-32 8.5zM405.5 251q-15.5 11 -15.5 31
t15.5 31t40.5 11t40.5 -11t15.5 -31t-15.5 -31t-40.5 -11t-40.5 11z" />
    <glyph glyph-name="uni277E" unicode="&#x277e;" horiz-adv-x="845" 
d="M259.5 32.5q-83.5 47.5 -131 131t-47.5 186.5t47.5 186.5t131 131t186.5 47.5t186.5 -47.5t131 -131t47.5 -186.5t-47.5 -186.5t-131 -131t-186.5 -47.5t-186.5 47.5zM455 154l36 37q58 59 81.5 105.5t23.5 97.5q0 74 -40.5 114t-110.5 40t-109.5 -37.5t-39.5 -96.5
q0 -57 36 -92.5t88 -35.5q42 0 79 27h3l-157 -159h110zM403 376.5q-15 13.5 -15 36.5t15 36.5t39 13.5t39 -13.5t15 -36.5t-15 -36.5t-39 -13.5t-39 13.5z" />
    <glyph glyph-name="uniF8FF" unicode="&#xf8ff;" horiz-adv-x="972" 
d="M147.5 702q10.5 10 26.5 10q15 0 26 -10.5t11 -25.5q0 -10 -4.5 -19.5t-13.5 -14.5v-24q49 20 88.5 31t84.5 11t76 -21.5t31 -61.5v-25q55 12 104 12q57 0 96.5 -19t39.5 -64v-48q48 12 81 12q55 0 81.5 -21.5t26.5 -57.5v-240q-52 32 -107 32q-16 0 -34 -3.5t-33 -7.5
q-32 -9 -53 -9q-51 0 -51 46v86q-23 5 -47 5q-26 0 -76 -10q-46 -8 -64 -8q-54 0 -54 46v68h-14q-62 0 -176 -44v-327h-39v643q-8 5 -12.5 14t-4.5 19q0 16 10.5 26zM421.5 618.5q-22.5 13.5 -54.5 13.5q-43 0 -81.5 -11.5t-92.5 -33.5v-230q110 42 175 42q45 0 76 -14v192
q0 28 -22.5 41.5zM334 485v-68h-30v68l-65 95h38l42 -64l42 64h38zM665.5 517.5q-19.5 18.5 -86.5 18.5q-44 0 -106 -12v-171q0 -12 -8.5 -18t-25.5 -12q-15 -5 -22.5 -10t-7.5 -14q0 -7 6.5 -10.5t20.5 -3.5q16 0 60 8q56 9 81 9q28 0 57.5 -6.5t50.5 -18.5v197
q0 25 -19.5 43.5zM509.5 472q22.5 23 57.5 23t57.5 -23t22.5 -58t-22.5 -58t-57.5 -23t-57.5 23t-22.5 58t22.5 58zM603 451.5q-14 14.5 -36 14.5t-36 -14.5t-14 -37.5t14 -37.5t36 -14.5t36 14.5t14 37.5t-14 37.5zM854 404.5q-21 11.5 -59 11.5q-34 0 -82 -12v-167
q0 -13 -8.5 -19t-25.5 -14q-14 -5 -21 -9.5t-7 -13.5q0 -16 25 -16q17 0 48 9q44 12 70 12q39 0 81 -15v194q0 28 -21 39.5zM786 273h-16l-10 100h36zM434 361.5q-9 4.5 -23 6.5v-32q5 3 13.5 5.5t13.5 4.5t5 6q0 5 -9 9.5zM651 264v-47q6 4 15 7.5t14 7t5 8.5q0 13 -34 24z
M763.5 244.5q5.5 5.5 14.5 5.5t14.5 -5.5t5.5 -13.5q0 -9 -5.5 -14.5t-14.5 -5.5t-14.5 5.5t-5.5 14.5q0 8 5.5 13.5z" />
    <glyph glyph-name="i.loclTRK" horiz-adv-x="265" 
d="M180 0h-185l90 462h185zM283 527h-189l34 173h189z" />
    <glyph glyph-name="XBT" horiz-adv-x="564" 
d="M536 397.5q-38 -42.5 -109 -58.5l-1 -3q86 -28 86 -133q0 -93 -62.5 -147.5t-184.5 -55.5l-17 -87h-28l17 87h-49l-17 -87h-28l17 87h-165l131 675h165l17 87h28l-17 -87h49l17 87h28l-17 -88q77 -6 127.5 -49t50.5 -120q0 -65 -38 -107.5zM386 417q21 21 21 55
q0 60 -79 60h-65l-26 -136h87q41 0 62 21zM332.5 161.5q24.5 18.5 24.5 53.5q0 64 -75 64h-68l-26 -136h78q42 0 66.5 18.5z" />
    <glyph glyph-name="dollar.tf" 
d="M407 463q1 5 1 15q0 38 -29 48l-20 -104l21 -9q53 -24 87.5 -45.5t59.5 -60.5t25 -98q0 -65 -29.5 -115.5t-88.5 -79.5t-143 -29h-17l-12 -62h-28l12 64q-100 11 -155.5 65.5t-55.5 134.5q0 14 4 42h170v-11q0 -35 18.5 -51t50.5 -18l24 122l-12 6t-11 5q-51 24 -84 45.5
t-57 59t-24 92.5q0 95 61.5 153t178.5 58q19 0 29 -1l14 73h28l-15 -76q78 -13 124.5 -59.5t46.5 -120.5q0 -23 -4 -43h-170zM352 530h-1q-32 0 -47 -12.5t-15 -30.5q0 -29 44 -53zM362 230.5q-12 14.5 -35 27.5l-21 -110q37 2 52.5 16t15.5 33t-12 33.5z" />
    <glyph glyph-name="cent.tf" 
d="M360 156h10q40 0 116 22l-31 -171q-56 -22 -118 -22h-10l-10 -49h-28l10 51q-86 12 -142 71t-56 156q0 72 33 132t97 95.5t153 35.5h10l11 56h28l-11 -58q65 -5 120 -29l-41 -170q-38 17 -63.5 23.5t-48.5 6.5zM360 304q-39 -6 -56.5 -28t-17.5 -50q0 -53 47 -66z" />
    <glyph glyph-name="sterling.tf" 
d="M428 459q2 14 2 20q0 28 -15 43t-43 15q-34 0 -51.5 -17t-17.5 -49q0 -18 7 -37t15.5 -36.5t11.5 -22.5h149l-6 -30h-129q13 -31 13 -56q0 -44 -31 -72t-97 -56l1 -6h277l-30 -155h-461l26 134q66 29 100.5 61t34.5 73q0 29 -22 77h-94l6 30h74q-12 28 -18.5 53.5
t-6.5 54.5q0 57 27.5 104t84.5 75t143 28q106 0 165.5 -43.5t59.5 -131.5q0 -23 -5 -56h-170z" />
    <glyph glyph-name="florin.tf" 
d="M427 462h88l-6 -30h-89l-81 -420q-22 -111 -80.5 -161.5t-150.5 -50.5h-79l31 162h42q28 0 47.5 17.5t26.5 50.5l79 402h-98l6 30h98v1q21 108 79 165t161 57h75l-31 -161h-37q-62 0 -81 -62z" />
    <glyph glyph-name="yen.tf" 
d="M396 249h157l-6 -30h-170l-10 -56h169l-6 -30h-169l-26 -133h-161l26 133h-168l6 30h168l10 56h-167l6 30h156l-121 426h191l41 -276l147 276h213z" />
    <glyph glyph-name="Euro.tf" 
d="M354 491q-47 -33 -71 -89h220l-21 -30h-209q-7 -28 -9 -59h184l-21 -30h-164q4 -135 136 -135q71 0 154 48l-33 -179q-64 -33 -143 -33q-145 0 -220 80t-75 216v3h-58l21 30h38q1 19 7 59h-44l21 30h29q32 127 125.5 207.5t247.5 80.5q56 0 107.5 -14t87.5 -38l-88 -144
q-30 16 -53 23t-53 7q-69 0 -116 -33z" />
    <glyph glyph-name="Indianrupeesign.tf" 
d="M598 645h-211q43 -25 67.5 -67t24.5 -97h109l-28 -30h-83q-10 -78 -69 -131.5t-151 -62.5l183 -257h-203l-172 255l28 145h105q77 0 91 51h-186l6 30h182q-3 27 -23 38t-55 11h-95l29 145h479z" />
    <glyph glyph-name="THB.tf" 
d="M550 400q-38 -44 -109 -61l-1 -3q96 -27 96 -134q0 -93 -66 -147.5t-195 -54.5h-12l-17 -87h-28l17 87h-226l131 675h226l17 87h28l-17 -87q93 -2 143.5 -42.5t50.5 -121.5q0 -67 -38 -111zM277 532l-26 -136h61l26 136h-61zM400.5 417q20.5 20 20.5 52q0 52 -55 61
l-26 -134q40 1 60.5 21zM263 143l26 136h-61l-26 -136h61zM349.5 163.5q21.5 18.5 21.5 52.5q0 27 -14.5 42.5t-39.5 19.5l-26 -135q37 2 58.5 20.5z" />
    <glyph glyph-name="RUB.tf" 
d="M281 261l-10 -51h174l-6 -30h-174l-35 -180h-165l35 180h-102l6 30h102l10 51h-102l28 145h102l52 269h208q106 0 168.5 -46t62.5 -147q0 -97 -64 -159t-198 -62h-92zM309 406h81q40 0 58.5 19.5t18.5 48.5q0 31 -20 43.5t-57 12.5h-57z" />
    <glyph glyph-name="TRY.tf" 
d="M590 327q-29 -160 -121.5 -243.5t-257.5 -83.5h-111l57 294l-127 -51l6 31l127 51l11 56l-127 -51l6 31l127 51l51 263h165l-37 -192l191 77l-6 -31l-191 -77l-11 -56l191 77l-6 -31l-191 -77l-36 -182q45 0 84 40t51 104h155z" />
    <glyph glyph-name="uni20A9.tf" 
d="M605 431h34l-6 -30h-37l-19 -68h43l-6 -30h-45l-86 -303h-183l34 303h-40l-84 -303h-183l32 303h-45l6 30h42l7 68h-36l6 30h34l28 269h145l-44 -269h34l76 269h158l-29 -269h34l61 269h145zM330 431h18l9 82h-4zM187 333h21l19 68h-29zM337 333l8 68h-23l-19 -68h34z
M468 401h-30l-7 -68h21zM200 303h-18l-19 -116h4zM445 303h-18l-12 -116h4z" />
    <glyph glyph-name="uni20B4.tf" 
d="M518 395q-31 -28 -92 -68h149l-6 -30h-190l-71 -46q-4 -3 -20.5 -13.5t-25.5 -22.5t-9 -26q0 -17 14.5 -25t48.5 -8q41 0 89.5 12t114.5 38l-35 -179q-57 -21 -110 -31.5t-111 -10.5q-219 0 -219 166q0 46 17 81t49 65h-55l6 30h86q24 18 65 43l39 25h-177l6 30h219
l28 18l22 13q22 13 31.5 22t9.5 24q0 17 -12.5 23.5t-39.5 6.5q-70 0 -199 -34l30 162q111 30 211 30q109 0 158 -39.5t49 -112.5q0 -64 -40 -113h46l-6 -30h-70z" />
    <glyph glyph-name="XBT.tf" 
d="M554 397.5q-38 -42.5 -109 -58.5l-1 -3q86 -28 86 -133q0 -93 -62.5 -147.5t-184.5 -55.5l-17 -87h-28l17 87h-49l-17 -87h-28l17 87h-165l131 675h165l17 87h28l-17 -87h49l17 87h28l-17 -88q77 -6 127.5 -49t50.5 -120q0 -65 -38 -107.5zM404 417q21 21 21 55
q0 60 -79 60h-65l-26 -136h87q41 0 62 21zM350.5 161.5q24.5 18.5 24.5 53.5q0 64 -75 64h-68l-26 -136h78q42 0 66.5 18.5z" />
    <glyph glyph-name="uni20B8.tf" 
d="M655 675l-30 -155h-539l30 155h539zM76 468h539l-30 -155h-187l-61 -313h-165l61 313h-187z" />
    <glyph glyph-name="uni20AE.tf" 
d="M441 530l-24 -123l133 54l-6 -31l-133 -54l-11 -56l133 54l-6 -31l-133 -54l-57 -289h-165l43 217l-135 -54l6 31l135 54l11 56l-135 -54l6 31l135 54l38 195h-188l29 145h539l-29 -145h-186z" />
    <glyph glyph-name="perthousand.tf" 
d="M109 415q-34 35 -34 96q0 43 18 84.5t52.5 68t80.5 26.5q53 0 87 -35t34 -96q0 -43 -18 -84.5t-52.5 -68t-80.5 -26.5q-53 0 -87 35zM174.5 581q-18.5 -31 -18.5 -68q0 -27 11.5 -41t30.5 -14q31 0 49.5 31t18.5 68q0 27 -11.5 41t-30.5 14q-31 0 -49.5 -31zM596 479
l-545 -232l-7 25l545 232zM532 260q34 -35 34 -96q0 -43 -18 -84.5t-52.5 -68t-80.5 -26.5q-28 0 -52 10.5t-40 30.5q-41 -41 -97 -41q-53 0 -87 35t-34 96q0 43 18 84.5t52.5 68t80.5 26.5q28 0 52 -10.5t40 -30.5q41 41 97 41q53 0 87 -35zM277.5 94q18.5 31 18.5 68
q0 27 -11.5 41t-30.5 14q-31 0 -49.5 -31t-18.5 -68q0 -27 11.5 -41t30.5 -14q31 0 49.5 31zM466.5 94q18.5 31 18.5 68q0 27 -11.5 41t-30.5 14q-31 0 -49.5 -31t-18.5 -68q0 -27 11.5 -41t30.5 -14q31 0 49.5 31z" />
    <glyph glyph-name="zero.zero" horiz-adv-x="643" 
d="M608 558q31 -63 31 -157q0 -113 -35.5 -207.5t-107.5 -151.5t-177 -57q-71 0 -124 22l-19 -38l-26 11l20 39q-60 33 -92 96t-32 159q0 113 35.5 207.5t107.5 151.5t177 57q72 0 129 -24l15 30l26 -11l-16 -31q57 -33 88 -96zM254 188l160 318q-20 17 -54 17
q-59 0 -92 -73t-33 -172q0 -58 19 -90zM417 225q33 73 33 172q0 53 -16 85l-159 -316q20 -14 50 -14q59 0 92 73z" />
    <glyph glyph-name="zero.tf.zero" 
d="M575 556.5q27 -60.5 27 -145.5q0 -127 -38 -223.5t-107 -149.5t-160 -53q-70 0 -123 24l-20 -40l-26 11l21 42q-54 33 -82 94t-28 148q0 127 38 223.5t107 149.5t160 53q73 0 128 -26l16 32l26 -11l-17 -35q51 -33 78 -93.5zM238 198l152 303q-18 22 -52 22
q-32 0 -57 -32.5t-39 -90.5t-14 -132q0 -44 10 -70zM360 184.5q25 32.5 39 90.5t14 132q0 40 -7 62l-151 -299q18 -18 48 -18q32 0 57 32.5z" />
    <glyph glyph-name="zero.tf" 
d="M535.5 618q66.5 -72 66.5 -207q0 -127 -38 -223.5t-107 -149.5t-160 -53q-125 0 -191.5 72t-66.5 207q0 127 38 223.5t107 149.5t160 53q125 0 191.5 -72zM281 490.5q-25 -32.5 -39 -90.5t-14 -132q0 -59 18.5 -87.5t56.5 -28.5q32 0 57 32.5t39 90.5t14 132
q0 59 -18.5 87.5t-56.5 28.5q-32 0 -57 -32.5z" />
    <glyph glyph-name="one.tf" 
d="M518 168l-33 -168h-461l33 168h142l64 332h-75l34 175h255l-98 -507h139z" />
    <glyph glyph-name="two.tf" 
d="M36 154l257 195l24 18q54 41 72 60.5t18 45.5q0 25 -14.5 38t-40.5 13q-33 0 -52.5 -20t-24.5 -51h-195q12 108 85 172.5t205 64.5q113 0 176.5 -51t63.5 -140q0 -66 -39 -117t-128 -117l-128 -95h236l-33 -170h-512z" />
    <glyph glyph-name="three.tf" 
d="M533.5 644q62.5 -46 62.5 -123q0 -65 -41 -106t-113 -60v-2q52 -6 85.5 -44.5t33.5 -104.5q0 -60 -29.5 -109.5t-94.5 -79.5t-166 -30q-108 0 -179 46t-71 134q0 26 6 56h178q-1 -5 -1 -14q0 -27 21 -43t62 -16q37 0 58.5 17.5t21.5 50.5q0 30 -31 43t-102 13l26 143
q81 0 112.5 19.5t31.5 45.5t-15.5 39.5t-42.5 13.5q-69 0 -83 -61h-181q14 107 84.5 162.5t191.5 55.5q113 0 175.5 -46z" />
    <glyph glyph-name="four.tf" 
d="M524 258h60l-30 -152h-59l-21 -106h-172l21 106h-327l26 135l406 434h178zM353 258l38 188h-4l-171 -188h137z" />
    <glyph glyph-name="five.tf" 
d="M542 505h-247l-27 -90h2q44 33 110 33q80 0 132.5 -49.5t52.5 -144.5q0 -76 -33 -137t-102 -96.5t-173 -35.5q-78 0 -145.5 20t-112.5 53l97 149q77 -51 162 -51q62 0 89 27t27 63q0 32 -20 50t-56 18q-55 0 -88 -43h-133l115 404h383z" />
    <glyph glyph-name="six.tf" 
d="M101 43q-72 58 -72 170q0 84 38.5 151.5t108.5 136.5l186 182h212l-295 -271l2 -2q51 43 118 43q48 0 87.5 -23.5t62.5 -69.5t23 -110q0 -62 -30 -123t-94 -101.5t-158 -40.5q-117 0 -189 58zM360.5 168.5q25.5 29.5 25.5 69.5q0 37 -21.5 56t-58.5 19q-47 0 -72.5 -29
t-25.5 -69q0 -38 21.5 -57t58.5 -19q47 0 72.5 29.5z" />
    <glyph glyph-name="seven.tf" 
d="M588 509l-357 -509h-210l362 498h-265l34 177h468z" />
    <glyph glyph-name="eight.tf" 
d="M81 31q-65 46 -65 130q0 71 43.5 119.5t118.5 66.5v2q-40 14 -59.5 48t-19.5 80q0 58 30 106t90.5 77.5t148.5 29.5q112 0 174 -47t62 -124q0 -56 -33.5 -106.5t-104.5 -68.5v-2q47 -14 72.5 -49.5t25.5 -90.5q0 -58 -30.5 -107.5t-96.5 -79.5t-167 -30q-124 0 -189 46z
M397.5 446q19.5 21 19.5 50q0 26 -17.5 40t-43.5 14q-33 0 -52.5 -20.5t-19.5 -49.5q0 -26 17 -40.5t43 -14.5q34 0 53.5 21zM357 158q25 25 25 59q0 31 -22.5 49.5t-56.5 18.5q-41 0 -66 -25t-25 -59q0 -31 22.5 -49.5t56.5 -18.5q41 0 66 25z" />
    <glyph glyph-name="nine.tf" 
d="M538 631q71 -58 71 -185q0 -77 -38.5 -152.5t-150.5 -173.5l-138 -120h-226l288 239l-2 2q-28 -20 -53.5 -29.5t-52.5 -9.5q-46 0 -85 26t-62 73.5t-23 108.5q0 70 31.5 134t98 104.5t165.5 40.5q106 0 177 -58zM402.5 381.5q25.5 29.5 25.5 69.5q0 37 -21.5 56t-58.5 19
q-47 0 -72.5 -29t-25.5 -70q0 -37 22 -56t58 -19q47 0 72.5 29.5z" />
    <glyph glyph-name="dot" horiz-adv-x="286" 
d="M191 0h-186l37 188h186z" />
    <glyph glyph-name="Adieresis.ss01" horiz-adv-x="745" 
d="M481 131h-239l-68 -131h-219l408 700h202l135 -700h-202zM462 281l-29 220l-114 -220h143zM416 874.5q25 -25.5 25 -61.5t-25 -61.5t-62 -25.5t-62.5 25t-25.5 62q0 36 25.5 61.5t62.5 25.5t62 -25.5zM656 874.5q25 -25.5 25 -61.5t-25 -61.5t-62 -25.5t-62.5 25
t-25.5 62q0 36 25.5 61.5t62.5 25.5t62 -25.5z" />
    <glyph glyph-name="Cdotaccent.ss01" horiz-adv-x="682" 
d="M208.5 28q-80.5 43 -124 120.5t-43.5 177.5q0 109 51 197.5t146.5 140t222.5 51.5q80 0 149 -20.5t119 -53.5l-110 -159q-73 48 -160 48q-71 0 -121.5 -27t-76 -72.5t-25.5 -99.5q0 -74 46 -117.5t119 -43.5q76 0 163 47l78 -164q-119 -68 -247 -68q-106 0 -186.5 43z
M547 874.5q25 -25.5 25 -61.5t-25 -61.5t-62 -25.5t-62.5 25t-25.5 62q0 36 25.5 61.5t62.5 25.5t62 -25.5z" />
    <glyph glyph-name="Edieresis.ss01" horiz-adv-x="546" 
d="M302 526l-16 -83h225l-32 -165h-225l-20 -104h271l-34 -174h-461l136 700h446l-34 -174h-256zM338 874.5q25 -25.5 25 -61.5t-25 -61.5t-62 -25.5t-62.5 25t-25.5 62q0 36 25.5 61.5t62.5 25.5t62 -25.5zM578 874.5q25 -25.5 25 -61.5t-25 -61.5t-62 -25.5t-62.5 25
t-25.5 62q0 36 25.5 61.5t62.5 25.5t62 -25.5z" />
    <glyph glyph-name="Edotaccent.ss01" horiz-adv-x="546" 
d="M302 526l-16 -83h225l-32 -165h-225l-20 -104h271l-34 -174h-461l136 700h446l-34 -174h-256zM466 874.5q25 -25.5 25 -61.5t-25 -61.5t-62 -25.5t-62.5 25t-25.5 62q0 36 25.5 61.5t62.5 25.5t62 -25.5z" />
    <glyph glyph-name="Gcommaaccent.ss01" horiz-adv-x="762" 
d="M778 417l-11 -78q-50 -354 -364 -354q-105 0 -187.5 40t-129 115.5t-46.5 179.5q0 110 51 200t147.5 142.5t227.5 52.5q83 0 157.5 -22t129.5 -65l-117 -154q-78 61 -175 61q-69 0 -120.5 -29.5t-78.5 -78.5t-27 -107q0 -73 48 -114t132 -41q66 0 104 24t48 65h-185
l33 163h363zM400 -168l-59 -42h-60l47 50q-17 10 -26 25.5t-9 34.5q0 29 20 49.5t51 20.5t52.5 -20.5t21.5 -50.5q0 -39 -38 -67z" />
    <glyph glyph-name="Gdotaccent.ss01" horiz-adv-x="762" 
d="M778 417l-11 -78q-50 -354 -364 -354q-105 0 -187.5 40t-129 115.5t-46.5 179.5q0 110 51 200t147.5 142.5t227.5 52.5q83 0 157.5 -22t129.5 -65l-117 -154q-78 61 -175 61q-69 0 -120.5 -29.5t-78.5 -78.5t-27 -107q0 -73 48 -114t132 -41q66 0 104 24t48 65h-185
l33 163h363zM545 874.5q25 -25.5 25 -61.5t-25 -61.5t-62 -25.5t-62.5 25t-25.5 62q0 36 25.5 61.5t62.5 25.5t62 -25.5z" />
    <glyph glyph-name="Idieresis.ss01" horiz-adv-x="300" 
d="M200 0h-190l136 700h190zM193 874.5q25 -25.5 25 -61.5t-25 -61.5t-62 -25.5t-62.5 25t-25.5 62q0 36 25.5 61.5t62.5 25.5t62 -25.5zM433 874.5q25 -25.5 25 -61.5t-25 -61.5t-62 -25.5t-62.5 25t-25.5 62q0 36 25.5 61.5t62.5 25.5t62 -25.5z" />
    <glyph glyph-name="Idotaccent.ss01" horiz-adv-x="300" 
d="M200 0h-190l136 700h190zM321 874.5q25 -25.5 25 -61.5t-25 -61.5t-62 -25.5t-62.5 25t-25.5 62q0 36 25.5 61.5t62.5 25.5t62 -25.5z" />
    <glyph glyph-name="Kcommaaccent.ss01" horiz-adv-x="752" 
d="M464 351l248 -351h-244l-205 324l-63 -324h-190l136 700h190l-60 -307l291 307h259zM345 -168l-59 -42h-60l47 50q-17 10 -26 25.5t-9 34.5q0 29 20 49.5t51 20.5t52.5 -20.5t21.5 -50.5q0 -39 -38 -67z" />
    <glyph glyph-name="Lcaron.ss01" horiz-adv-x="514" 
d="M146 700h190l-102 -524h264l-34 -176h-454zM546 693.5q27 -26.5 27 -67.5t-45 -92l-131 -146h-69l104 144q-27 12 -42 35t-15 55q0 43 28 70.5t73 27.5q43 0 70 -26.5z" />
    <glyph glyph-name="Lcommaaccent.ss01" horiz-adv-x="514" 
d="M146 700h190l-102 -524h264l-34 -176h-454zM263 -168l-59 -42h-60l47 50q-17 10 -26 25.5t-9 34.5q0 29 20 49.5t51 20.5t52.5 -20.5t21.5 -50.5q0 -39 -38 -67z" />
    <glyph glyph-name="Ldot.ss01" horiz-adv-x="514" 
d="M146 700h190l-102 -524h264l-34 -176h-454zM502 455.5q31 -30.5 31 -77.5t-31 -77.5t-78 -30.5t-78 30.5t-31 77.5t31 77.5t78 30.5t78 -30.5z" />
    <glyph glyph-name="Ncommaaccent.ss01" horiz-adv-x="780" 
d="M680 0h-148l-251 406h-2l-79 -406h-190l136 700h148l251 -406h2l79 406h190zM365 -168l-59 -42h-60l47 50q-17 10 -26 25.5t-9 34.5q0 29 20 49.5t51 20.5t52.5 -20.5t21.5 -50.5q0 -39 -38 -67z" />
    <glyph glyph-name="Odieresis.ss01" horiz-adv-x="787" 
d="M206 25.5q-79 40.5 -122.5 116t-43.5 176.5q0 109 51 200t143 144t211 53q103 0 182 -40.5t122.5 -116t43.5 -176.5q0 -109 -51 -200t-143 -144t-211 -53q-103 0 -182 40.5zM511.5 200.5q44.5 30.5 65.5 77.5t21 96q0 72 -43.5 114t-121.5 42q-67 0 -111.5 -30.5
t-65.5 -77.5t-21 -96q0 -72 43.5 -114t121.5 -42q67 0 111.5 30.5zM409 874.5q25 -25.5 25 -61.5t-25 -61.5t-62 -25.5t-62.5 25t-25.5 62q0 36 25.5 61.5t62.5 25.5t62 -25.5zM649 874.5q25 -25.5 25 -61.5t-25 -61.5t-62 -25.5t-62.5 25t-25.5 62q0 36 25.5 61.5
t62.5 25.5t62 -25.5z" />
    <glyph glyph-name="Rcommaaccent.ss01" horiz-adv-x="662" 
d="M621.5 345.5q-47.5 -64.5 -146.5 -89.5l142 -256h-216l-145 285l-1 1l-55 -286h-190l136 700h269q79 0 136 -26.5t87.5 -74.5t30.5 -111q0 -78 -47.5 -142.5zM274 382h87q53 0 79.5 23t26.5 59q0 35 -24 51.5t-61 16.5h-79zM321 -168l-59 -42h-60l47 50q-17 10 -26 25.5
t-9 34.5q0 29 20 49.5t51 20.5t52.5 -20.5t21.5 -50.5q0 -39 -38 -67z" />
    <glyph glyph-name="Scommaaccent.ss01" horiz-adv-x="544" 
d="M114.5 12.5q-69.5 26.5 -136.5 78.5l106 152q106 -82 181 -82q24 0 37.5 9t13.5 28q0 13 -8 24t-34 35l-88 82q-82 76 -82 178q0 90 60.5 144t167.5 54q129 0 253 -77l-97 -152q-34 23 -77 39t-77 16q-17 0 -27 -6.5t-10 -18.5t10 -24.5t21 -23t15 -13.5l92 -88
q39 -37 57.5 -80t18.5 -95q0 -103 -67 -154.5t-180 -51.5q-80 0 -149.5 26.5zM254 -168l-59 -42h-60l47 50q-17 10 -26 25.5t-9 34.5q0 29 20 49.5t51 20.5t52.5 -20.5t21.5 -50.5q0 -39 -38 -67z" />
    <glyph glyph-name="uni021A.ss01" horiz-adv-x="550" 
d="M602 526h-174l-102 -526h-192l102 526h-174l34 174h540zM252 -168l-59 -42h-60l47 50q-17 10 -26 25.5t-9 34.5q0 29 20 49.5t51 20.5t52.5 -20.5t21.5 -50.5q0 -39 -38 -67z" />
    <glyph glyph-name="Udieresis.ss01" horiz-adv-x="707" 
d="M563.5 68q-83.5 -80 -227.5 -80q-146 0 -215.5 57.5t-69.5 172.5q0 49 14 116l72 366h203l-79 -404q-4 -17 -4 -37q0 -81 86 -81q56 0 86.5 32t41.5 86l79 404h203l-80 -409q-26 -143 -109.5 -223zM397 874.5q25 -25.5 25 -61.5t-25 -61.5t-62 -25.5t-62.5 25t-25.5 62
q0 36 25.5 61.5t62.5 25.5t62 -25.5zM637 874.5q25 -25.5 25 -61.5t-25 -61.5t-62 -25.5t-62.5 25t-25.5 62q0 36 25.5 61.5t62.5 25.5t62 -25.5z" />
    <glyph glyph-name="Wdieresis.ss01" horiz-adv-x="1128" 
d="M826 0h-158l-70 403h-2l-226 -403h-158l-116 700h211l38 -383h2l215 383h160l69 -383h2l186 383h235zM595 874.5q25 -25.5 25 -61.5t-25 -61.5t-62 -25.5t-62.5 25t-25.5 62q0 36 25.5 61.5t62.5 25.5t62 -25.5zM835 874.5q25 -25.5 25 -61.5t-25 -61.5t-62 -25.5
t-62.5 25t-25.5 62q0 36 25.5 61.5t62.5 25.5t62 -25.5z" />
    <glyph glyph-name="Ydieresis.ss01" horiz-adv-x="723" 
d="M456 232l-45 -232h-190l46 236l-181 464h215l84 -281h2l193 281h239zM393 874.5q25 -25.5 25 -61.5t-25 -61.5t-62 -25.5t-62.5 25t-25.5 62q0 36 25.5 61.5t62.5 25.5t62 -25.5zM633 874.5q25 -25.5 25 -61.5t-25 -61.5t-62 -25.5t-62.5 25t-25.5 62q0 36 25.5 61.5
t62.5 25.5t62 -25.5z" />
    <glyph glyph-name="Zdotaccent.ss01" horiz-adv-x="586" 
d="M605 526l-357 -352h312l-34 -174h-556l34 174l362 352h-266l34 174h505zM462 874.5q25 -25.5 25 -61.5t-25 -61.5t-62 -25.5t-62.5 25t-25.5 62q0 36 25.5 61.5t62.5 25.5t62 -25.5z" />
    <glyph glyph-name="adieresis.ss01" horiz-adv-x="613" 
d="M67.5 44q-50.5 59 -50.5 160q0 80 31.5 142t89 96.5t131.5 34.5q57 0 96 -21.5t59 -62.5h2l12 69h185l-90 -462h-185l12 59h-2q-59 -74 -153 -74q-87 0 -137.5 59zM359 173q27 27 27 68q0 34 -21.5 54.5t-57.5 20.5q-41 0 -68 -27t-27 -68q0 -34 21.5 -54.5t57.5 -20.5
q41 0 68 27zM328.5 675q25.5 -25 25.5 -63t-25 -63.5t-64 -25.5q-38 0 -64 25.5t-26 63.5t25.5 63t64.5 25q38 0 63.5 -25zM553.5 675q25.5 -25 25.5 -63t-25 -63.5t-64 -25.5q-38 0 -64 25.5t-26 63.5t25.5 63t64.5 25q38 0 63.5 -25z" />
    <glyph glyph-name="cdotaccent.ss01" horiz-adv-x="469" 
d="M144 11.5q-58 26.5 -92 79.5t-34 128q0 72 32.5 130.5t96.5 93t156 34.5q108 0 196 -56l-87 -139q-26 16 -51 25.5t-55 9.5q-48 0 -73 -25.5t-25 -63.5q0 -37 23 -59.5t60 -22.5q17 0 39.5 4.5t41.5 13.5l50 -150q-79 -29 -149 -29q-71 0 -129 26.5zM395 685
q30 -30 30 -73t-30 -73t-73 -30q-44 0 -74 30t-30 73t30.5 73t73.5 30t73 -30z" />
    <glyph glyph-name="dcaron.ss01" horiz-adv-x="789" 
d="M859 693.5q28 -26.5 28 -64.5q0 -35 -25.5 -62.5t-77.5 -55.5l-47 -26h-75l70 60q-17 5 -30 25.5t-13 50.5q0 43 27.5 71t71.5 28q43 0 71 -26.5zM669 700l-136 -700h-185l12 59h-2q-59 -74 -153 -74q-87 0 -137.5 59t-50.5 160q0 80 31.5 142t89 96.5t131.5 34.5
q57 0 96 -21.5t59 -62.5h2l58 307h185zM359 173q27 27 27 68q0 34 -21.5 54.5t-57.5 20.5q-41 0 -68 -27t-27 -68q0 -34 21.5 -54.5t57.5 -20.5q41 0 68 27z" />
    <glyph glyph-name="edieresis.ss01" horiz-adv-x="538" 
d="M514 188h-322q17 -61 99 -61q61 0 132 31l46 -135q-94 -38 -189 -38q-72 0 -131.5 24.5t-95.5 76t-36 128.5q0 67 30.5 126.5t94.5 97.5t157 38q104 0 167 -49t63 -138q0 -42 -15 -101zM359 303q0 25 -18 39t-49 14q-36 0 -60 -19.5t-36 -52.5h161q2 12 2 19zM287.5 675
q25.5 -25 25.5 -63t-25 -63.5t-64 -25.5q-38 0 -64 25.5t-26 63.5t25.5 63t64.5 25q38 0 63.5 -25zM512.5 675q25.5 -25 25.5 -63t-25 -63.5t-64 -25.5q-38 0 -64 25.5t-26 63.5t25.5 63t64.5 25q38 0 63.5 -25z" />
    <glyph glyph-name="edotaccent.ss01" horiz-adv-x="538" 
d="M514 188h-322q17 -61 99 -61q61 0 132 31l46 -135q-94 -38 -189 -38q-72 0 -131.5 24.5t-95.5 76t-36 128.5q0 67 30.5 126.5t94.5 97.5t157 38q104 0 167 -49t63 -138q0 -42 -15 -101zM359 303q0 25 -18 39t-49 14q-36 0 -60 -19.5t-36 -52.5h161q2 12 2 19zM409 685
q30 -30 30 -73t-30 -73t-73 -30q-44 0 -74 30t-30 73t30.5 73t73.5 30t73 -30z" />
    <glyph glyph-name="gcommaaccent.ss01" horiz-adv-x="613" 
d="M623 462l-86 -436q-24 -124 -98.5 -182.5t-209.5 -58.5q-119 0 -224 37l54 147q52 -19 92 -27.5t78 -8.5q54 0 84 22t40 70l7 34h-2q-59 -74 -153 -74q-87 0 -137.5 59t-50.5 160q0 80 31.5 142t89 96.5t131.5 34.5q57 0 96 -21.5t59 -62.5h2l12 69h185zM359 173
q27 27 27 68q0 34 -21.5 54.5t-57.5 20.5q-41 0 -68 -27t-27 -68q0 -34 21.5 -54.5t57.5 -20.5q41 0 68 27zM299 672l59 42h60l-47 -50q17 -10 26 -25.5t9 -34.5q0 -29 -20 -49.5t-51 -20.5t-52.5 20.5t-21.5 50.5q0 39 38 67z" />
    <glyph glyph-name="gdotaccent.ss01" horiz-adv-x="613" 
d="M623 462l-86 -436q-24 -124 -98.5 -182.5t-209.5 -58.5q-119 0 -224 37l54 147q52 -19 92 -27.5t78 -8.5q54 0 84 22t40 70l7 34h-2q-59 -74 -153 -74q-87 0 -137.5 59t-50.5 160q0 80 31.5 142t89 96.5t131.5 34.5q57 0 96 -21.5t59 -62.5h2l12 69h185zM359 173
q27 27 27 68q0 34 -21.5 54.5t-57.5 20.5q-41 0 -68 -27t-27 -68q0 -34 21.5 -54.5t57.5 -20.5q41 0 68 27zM412 685q30 -30 30 -73t-30 -73t-73 -30q-44 0 -74 30t-30 73t30.5 73t73.5 30t73 -30z" />
    <glyph glyph-name="i.ss01" horiz-adv-x="265" 
d="M180 0h-185l90 462h185zM271 685q30 -30 30 -73t-30 -73t-73 -30q-44 0 -74 30t-30 73t30.5 73t73.5 30t73 -30z" />
    <glyph glyph-name="idieresis.ss01" horiz-adv-x="265" 
d="M159.5 675q25.5 -25 25.5 -63t-25 -63.5t-64 -25.5q-38 0 -64 25.5t-26 63.5t25.5 63t64.5 25q38 0 63.5 -25zM364.5 675q25.5 -25 25.5 -63t-25 -63.5t-64 -25.5q-38 0 -64 25.5t-26 63.5t25.5 63t64.5 25q38 0 63.5 -25zM180 0h-185l90 462h185z" />
    <glyph glyph-name="i.loclTRK.ss01" horiz-adv-x="265" 
d="M180 0h-185l90 462h185zM271 685q30 -30 30 -73t-30 -73t-73 -30q-44 0 -74 30t-30 73t30.5 73t73.5 30t73 -30z" />
    <glyph glyph-name="ij.ss01" horiz-adv-x="530" 
d="M180 0h-185l90 462h185zM271 685q30 -30 30 -73t-30 -73t-73 -30q-44 0 -74 30t-30 73t30.5 73t73.5 30t73 -30zM189 -31q34 0 53 15t25 47l84 431h184l-86 -441q-23 -121 -84 -172.5t-180 -51.5h-51l33 172h22zM536 685q30 -30 30 -73t-30 -73t-73 -30q-44 0 -74 30
t-30 73t30.5 73t73.5 30t73 -30z" />
    <glyph glyph-name="iogonek.ss01" horiz-adv-x="265" 
d="M271 685q30 -30 30 -73t-30 -73t-73 -30q-44 0 -74 30t-30 73t30.5 73t73.5 30t73 -30zM85 462h185l-90 -462h-71q-52 -34 -73.5 -51.5t-21.5 -30.5q0 -8 6.5 -12.5t16.5 -4.5q12 0 37 5v-108q-29 -7 -46.5 -10t-38.5 -3q-108 0 -108 85q0 40 27 72t89 70z" />
    <glyph glyph-name="j.ss01" horiz-adv-x="265" 
d="M-76 -31q34 0 53 15t25 47l84 431h184l-86 -441q-23 -121 -84 -172.5t-180 -51.5h-51l33 172h22zM271 685q30 -30 30 -73t-30 -73t-73 -30q-44 0 -74 30t-30 73t30.5 73t73.5 30t73 -30z" />
    <glyph glyph-name="kcommaaccent.ss01" horiz-adv-x="593" 
d="M398 234l145 -234h-217l-107 203l-39 -203h-185l136 700h185l-80 -409l152 171h237zM269 -168l-59 -42h-60l47 50q-17 10 -26 25.5t-9 34.5q0 29 20 49.5t51 20.5t52.5 -20.5t21.5 -50.5q0 -39 -38 -67z" />
    <glyph glyph-name="lcaron.ss01" horiz-adv-x="436" 
d="M506 693.5q28 -26.5 28 -64.5q0 -35 -25.5 -62.5t-77.5 -55.5l-47 -26h-75l70 60q-17 5 -30 25.5t-13 50.5q0 43 27.5 71t71.5 28q43 0 71 -26.5zM180 0h-185l136 700h185z" />
    <glyph glyph-name="lcommaaccent.ss01" horiz-adv-x="265" 
d="M180 0h-185l136 700h185zM110 -168l-59 -42h-60l47 50q-17 10 -26 25.5t-9 34.5q0 29 20 49.5t51 20.5t52.5 -20.5t21.5 -50.5q0 -39 -38 -67z" />
    <glyph glyph-name="ldot.ss01" horiz-adv-x="458" 
d="M180 0h-185l136 700h185zM460 455.5q31 -30.5 31 -77.5t-31 -77.5t-78 -30.5t-78 30.5t-31 77.5t31 77.5t78 30.5t78 -30.5z" />
    <glyph glyph-name="napostrophe.ss01" horiz-adv-x="579" 
d="M243 384h2q33 48 73 70.5t92 22.5q67 0 106.5 -36.5t39.5 -112.5q0 -35 -8 -77l-49 -251h-185l44 224q4 20 4 39q0 65 -56 65q-37 0 -56.5 -25t-28.5 -71l-46 -232h-185l90 462h179zM125 693.5q27 -26.5 27 -67.5t-45 -92l-131 -146h-69l104 144q-27 12 -42 35t-15 55
q0 43 28 70.5t73 27.5q43 0 70 -26.5z" />
    <glyph glyph-name="ncommaaccent.ss01" horiz-adv-x="579" 
d="M243 384h2q33 48 73 70.5t92 22.5q67 0 106.5 -36.5t39.5 -112.5q0 -35 -8 -77l-49 -251h-185l44 224q4 20 4 39q0 65 -56 65q-37 0 -56.5 -25t-28.5 -71l-46 -232h-185l90 462h179zM267 -168l-59 -42h-60l47 50q-17 10 -26 25.5t-9 34.5q0 29 20 49.5t51 20.5
t52.5 -20.5t21.5 -50.5q0 -39 -38 -67z" />
    <glyph glyph-name="odieresis.ss01" horiz-adv-x="574" 
d="M86.5 42q-70.5 57 -70.5 166q0 75 35.5 136.5t101 97t152.5 35.5q112 0 182.5 -57t70.5 -166q0 -75 -35.5 -136.5t-101 -97t-152.5 -35.5q-112 0 -182.5 57zM349 175q25 29 25 66q0 38 -23 56.5t-56 18.5q-45 0 -70 -29t-25 -66q0 -38 23 -56.5t56 -18.5q45 0 70 29z
M290.5 675q25.5 -25 25.5 -63t-25 -63.5t-64 -25.5q-38 0 -64 25.5t-26 63.5t25.5 63t64.5 25q38 0 63.5 -25zM515.5 675q25.5 -25 25.5 -63t-25 -63.5t-64 -25.5q-38 0 -64 25.5t-26 63.5t25.5 63t64.5 25q38 0 63.5 -25z" />
    <glyph glyph-name="rcommaaccent.ss01" horiz-adv-x="374" 
d="M383 302h-11q-77 0 -113.5 -31t-50.5 -102l-33 -169h-185l90 462h172l-17 -86h2q31 60 71.5 80t106.5 20h2zM104 -168l-59 -42h-60l47 50q-17 10 -26 25.5t-9 34.5q0 29 20 49.5t51 20.5t52.5 -20.5t21.5 -50.5q0 -39 -38 -67z" />
    <glyph glyph-name="scommaaccent.ss01" horiz-adv-x="441" 
d="M205 120q24 0 24 14q0 13 -23 26l-48 29q-50 30 -72 63t-22 78q0 73 50 110t141 37q53 0 103 -12.5t109 -38.5l-60 -126q-88 47 -134 47q-24 0 -24 -14q0 -7 4.5 -10.5t23.5 -14.5l42 -24q51 -29 73 -62t22 -83q0 -154 -195 -154q-68 0 -126.5 19t-120.5 59l77 123
q102 -66 156 -66zM222 -168l-59 -42h-60l47 50q-17 10 -26 25.5t-9 34.5q0 29 20 49.5t51 20.5t52.5 -20.5t21.5 -50.5q0 -39 -38 -67z" />
    <glyph glyph-name="tcaron.ss01" horiz-adv-x="518" 
d="M583 694q28 -26 28 -65q0 -33 -24 -60.5t-79 -57.5l-47 -26h-75l70 60q-19 5 -31 26.5t-12 49.5q0 44 28 71.5t71 27.5t71 -26zM327 462h99l-30 -152h-98l-15 -75q-4 -16 -4 -31q0 -18 9.5 -25t31.5 -7h16l-33 -172h-85q-65 0 -100 35.5t-35 97.5q0 20 5 48l25 129h-93
l30 152h93l36 185h184z" />
    <glyph glyph-name="uni021B.ss01" horiz-adv-x="386" 
d="M283 235q-4 -16 -4 -31q0 -18 9.5 -25t31.5 -7h16l-33 -172h-85q-65 0 -100 35.5t-35 97.5q0 20 5 48l25 129h-93l30 152h93l36 185h184l-36 -185h99l-30 -152h-98zM230 -168l-59 -42h-60l47 50q-17 10 -26 25.5t-9 34.5q0 29 20 49.5t51 20.5t52.5 -20.5t21.5 -50.5
q0 -39 -38 -67z" />
    <glyph glyph-name="udieresis.ss01" horiz-adv-x="582" 
d="M62 21.5q-40 36.5 -40 113.5q0 29 8 72l51 255h193l-41 -211q-5 -22 -5 -47q0 -61 52 -61q33 0 51 24t28 77l42 218h186l-90 -462h-179l16 80h-2q-37 -52 -75.5 -73.5t-87.5 -21.5q-67 0 -107 36.5zM305.5 675q25.5 -25 25.5 -63t-25 -63.5t-64 -25.5q-38 0 -64 25.5
t-26 63.5t25.5 63t64.5 25q38 0 63.5 -25zM530.5 675q25.5 -25 25.5 -63t-25 -63.5t-64 -25.5q-38 0 -64 25.5t-26 63.5t25.5 63t64.5 25q38 0 63.5 -25z" />
    <glyph glyph-name="wdieresis.ss01" horiz-adv-x="855" 
d="M900 462l-267 -462h-154l-52 234l-141 -234h-153l-88 462h167l37 -229l130 229h166l43 -230l123 230h189zM436.5 675q25.5 -25 25.5 -63t-25 -63.5t-64 -25.5q-38 0 -64 25.5t-26 63.5t25.5 63t64.5 25q38 0 63.5 -25zM661.5 675q25.5 -25 25.5 -63t-25 -63.5t-64 -25.5
q-38 0 -64 25.5t-26 63.5t25.5 63t64.5 25q38 0 63.5 -25z" />
    <glyph glyph-name="ydieresis.ss01" horiz-adv-x="581" 
d="M626 462l-411 -662h-197l165 252l-138 410h188l60 -232l138 232h195zM307.5 675q25.5 -25 25.5 -63t-25 -63.5t-64 -25.5q-38 0 -64 25.5t-26 63.5t25.5 63t64.5 25q38 0 63.5 -25zM532.5 675q25.5 -25 25.5 -63t-25 -63.5t-64 -25.5q-38 0 -64 25.5t-26 63.5t25.5 63
t64.5 25q38 0 63.5 -25z" />
    <glyph glyph-name="zdotaccent.ss01" horiz-adv-x="462" 
d="M461 337l-230 -188h205l-29 -149h-442l26 132l224 182h-169l29 148h409l-24 -125h1zM373 685q30 -30 30 -73t-30 -73t-73 -30q-44 0 -74 30t-30 73t30.5 73t73.5 30t73 -30z" />
    <glyph glyph-name="fi.ss01" horiz-adv-x="663" 
d="M358 523.5q-22 -15.5 -31 -59.5v-2h103l-30 -152h-103l-60 -310h-185l60 310h-87l30 152h86l1 3q17 85 47 138t85 80t144 27h63l-33 -171h-19q-49 0 -71 -15.5zM578 0h-185l90 462h185zM669 685q30 -30 30 -73t-30 -73t-73 -30q-44 0 -74 30t-30 73t30.5 73t73.5 30
t73 -30z" />
    <glyph glyph-name="f_f_i.ss01" horiz-adv-x="1066" 
d="M358 523.5q-22 -15.5 -31 -59.5v-2h103l-30 -152h-103l-60 -310h-185l60 310h-87l30 152h86l1 3q17 85 47 138t85 80t144 27h63l-33 -171h-19q-49 0 -71 -15.5zM761 523.5q-22 -15.5 -31 -59.5v-2h103l-30 -152h-103l-60 -310h-185l60 310h-87l30 152h86l1 3
q17 85 47 138t85 80t144 27h63l-33 -171h-19q-49 0 -71 -15.5zM981 0h-185l90 462h185zM1072 685q30 -30 30 -73t-30 -73t-73 -30q-44 0 -74 30t-30 73t30.5 73t73.5 30t73 -30z" />
    <glyph glyph-name="periodcentered.ss01" horiz-adv-x="256" 
d="M234 455.5q31 -30.5 31 -77.5t-31 -77.5t-78 -30.5t-78 30.5t-31 77.5t31 77.5t78 30.5t78 -30.5z" />
    <glyph glyph-name="colon.ss01" horiz-adv-x="257" 
d="M176 170.5q31 -30.5 31 -77.5t-31 -77.5t-78 -30.5t-78 30.5t-31 77.5t31 77.5t78 30.5t78 -30.5zM230 446.5q31 -30.5 31 -77.5t-31 -77.5t-78 -30.5t-78 30.5t-31 77.5t31 77.5t78 30.5t78 -30.5z" />
    <glyph glyph-name="comma.ss01" horiz-adv-x="257" 
d="M158 -6l-154 -168h-63l119 168q-29 11 -46.5 38t-17.5 62q0 45 30.5 75t75.5 30q48 0 77 -28.5t29 -75.5q0 -45 -50 -101z" />
    <glyph glyph-name="ellipsis.ss01" horiz-adv-x="810" 
d="M190 170.5q31 -30.5 31 -77.5t-31 -77.5t-78 -30.5t-78 30.5t-31 77.5t31 77.5t78 30.5t78 -30.5zM722 170.5q31 -30.5 31 -77.5t-31 -77.5t-78 -30.5t-78 30.5t-31 77.5t31 77.5t78 30.5t78 -30.5zM456 170.5q31 -30.5 31 -77.5t-31 -77.5t-78 -30.5t-78 30.5t-31 77.5
t31 77.5t78 30.5t78 -30.5z" />
    <glyph glyph-name="exclam.ss01" horiz-adv-x="349" 
d="M235 241h-133l51 459h209zM226 170.5q31 -30.5 31 -77.5t-31 -77.5t-78 -30.5t-78 30.5t-31 77.5t31 77.5t78 30.5t78 -30.5z" />
    <glyph glyph-name="exclamdown.ss01" horiz-adv-x="349" 
d="M129 328.5q-31 30.5 -31 77.5t31 77.5t78 30.5t78 -30.5t31 -77.5t-31 -77.5t-78 -30.5t-78 30.5zM120 258h133l-51 -459h-209z" />
    <glyph glyph-name="period.ss01" horiz-adv-x="256" 
d="M179 170.5q31 -30.5 31 -77.5t-31 -77.5t-78 -30.5t-78 30.5t-31 77.5t31 77.5t78 30.5t78 -30.5z" />
    <glyph glyph-name="question.ss01" horiz-adv-x="531" 
d="M504.5 674q60.5 -41 60.5 -120q0 -51 -27 -92.5t-79 -81.5q-6 -4 -31.5 -23.5t-43.5 -46.5t-25 -60l-2 -10h-183l6 29q20 100 109 162l19 12q30 20 44.5 34.5t14.5 34.5q0 17 -12.5 26t-35.5 9q-30 0 -44.5 -16t-19.5 -44h-175q15 109 77.5 168.5t185.5 59.5
q101 0 161.5 -41zM322 170.5q31 -30.5 31 -77.5t-31 -77.5t-78 -30.5t-78 30.5t-31 77.5t31 77.5t78 30.5t78 -30.5z" />
    <glyph glyph-name="questiondown.ss01" horiz-adv-x="496" 
d="M206 328.5q-31 30.5 -31 77.5t31 77.5t78 30.5t78 -30.5t31 -77.5t-31 -77.5t-78 -30.5t-78 30.5zM23.5 -175q-60.5 41 -60.5 120q0 51 27 92.5t79 81.5q6 4 31.5 23.5t43.5 46.5t25 60l2 10h183l-6 -29q-20 -100 -109 -162l-19 -12q-30 -20 -44.5 -34.5t-14.5 -34.5
q0 -17 12.5 -26t35.5 -9q30 0 44.5 16t19.5 44h175q-15 -109 -77.5 -168.5t-185.5 -59.5q-101 0 -161.5 41z" />
    <glyph glyph-name="semicolon.ss01" horiz-adv-x="257" 
d="M168 -6l-154 -168h-63l119 168q-29 11 -46.5 38t-17.5 62q0 45 30.5 75t75.5 30q48 0 77 -28.5t29 -75.5q0 -45 -50 -101zM236 446.5q31 -30.5 31 -77.5t-31 -77.5t-78 -30.5t-78 30.5t-31 77.5t31 77.5t78 30.5t78 -30.5z" />
    <glyph glyph-name="quotedblbase.ss01" horiz-adv-x="438" 
d="M153 149.5q27 -26.5 27 -67.5t-45 -92l-131 -146h-69l104 144q-27 12 -42 35t-15 55q0 43 28 70.5t73 27.5q43 0 70 -26.5zM369 149.5q27 -26.5 27 -67.5t-45 -92l-131 -146h-69l104 144q-27 12 -42 35t-15 55q0 43 28 70.5t73 27.5q43 0 70 -26.5z" />
    <glyph glyph-name="quotedblleft.ss01" horiz-adv-x="437" 
d="M97 488.5q-27 26.5 -27 67.5t45 92l131 146h69l-104 -144q27 -12 42 -35t15 -55q0 -43 -28 -70.5t-73 -27.5q-43 0 -70 26.5zM313 488.5q-27 26.5 -27 67.5t45 92l131 146h69l-104 -144q27 -12 42 -35t15 -55q0 -43 -28 -70.5t-73 -27.5q-43 0 -70 26.5z" />
    <glyph glyph-name="quotedblright.ss01" horiz-adv-x="437" 
d="M251 693.5q27 -26.5 27 -67.5t-45 -92l-131 -146h-69l104 144q-27 12 -42 35t-15 55q0 43 28 70.5t73 27.5q43 0 70 -26.5zM467 693.5q27 -26.5 27 -67.5t-45 -92l-131 -146h-69l104 144q-27 12 -42 35t-15 55q0 43 28 70.5t73 27.5q43 0 70 -26.5z" />
    <glyph glyph-name="quoteleft.ss01" horiz-adv-x="233" 
d="M103 488.5q-27 26.5 -27 67.5t45 92l131 146h69l-104 -144q27 -12 42 -35t15 -55q0 -43 -28 -70.5t-73 -27.5q-43 0 -70 26.5z" />
    <glyph glyph-name="quoteright.ss01" horiz-adv-x="233" 
d="M254 693.5q27 -26.5 27 -67.5t-45 -92l-131 -146h-69l104 144q-27 12 -42 35t-15 55q0 43 28 70.5t73 27.5q43 0 70 -26.5z" />
    <glyph glyph-name="quotesinglbase.ss01" horiz-adv-x="234" 
d="M153 149.5q27 -26.5 27 -67.5t-45 -92l-131 -146h-69l104 144q-27 12 -42 35t-15 55q0 43 28 70.5t73 27.5q43 0 70 -26.5z" />
    <glyph glyph-name="divide.ss01" 
d="M358.5 508.5q17.5 -17.5 17.5 -45.5q0 -26 -17.5 -43.5t-45.5 -17.5q-27 0 -44.5 18t-17.5 45q0 26 17.5 43.5t44.5 17.5q28 0 45.5 -17.5zM572 262h-518v74h518v-74zM358.5 178.5q17.5 -17.5 17.5 -44.5q0 -26 -17.5 -44t-45.5 -18q-27 0 -44.5 18t-17.5 45
q0 26 17.5 43.5t44.5 17.5q28 0 45.5 -17.5z" />
    <glyph glyph-name="uni02BC.ss01" horiz-adv-x="233" 
d="M254 693.5q27 -26.5 27 -67.5t-45 -92l-131 -146h-69l104 144q-27 12 -42 35t-15 55q0 43 28 70.5t73 27.5q43 0 70 -26.5z" />
    <glyph glyph-name="dot.ss01" horiz-adv-x="322" 
d="M212 170.5q31 -30.5 31 -77.5t-31 -77.5t-78 -30.5t-78 30.5t-31 77.5t31 77.5t78 30.5t78 -30.5z" />
    <glyph glyph-name="Adieresis.ss02" horiz-adv-x="745" 
d="M315 690h-131l23 120h131zM759 810l-23 -120h-131l23 120h131zM565 700l135 -700h-202l-17 131h-239l-68 -131h-219l408 700h202zM462 281l-29 220l-114 -220h143z" />
    <glyph glyph-name="Idieresis.ss02" horiz-adv-x="300" 
d="M16 810h131l-23 -120h-131zM377 810h131l-23 -120h-131zM200 0h-190l136 700h190z" />
    <glyph glyph-name="Odieresis.ss02" horiz-adv-x="787" 
d="M127 810h129l-23 -120h-131zM686 810h131l-23 -120h-131zM206 25.5q-79 40.5 -122.5 116t-43.5 176.5q0 109 51 200t143 144t211 53q103 0 182 -40.5t122.5 -116t43.5 -176.5q0 -109 -51 -200t-143 -144t-211 -53q-103 0 -182 40.5zM511.5 200.5q44.5 30.5 65.5 77.5
t21 96q0 72 -43.5 114t-121.5 42q-67 0 -111.5 -30.5t-65.5 -77.5t-21 -96q0 -72 43.5 -114t121.5 -42q67 0 111.5 30.5z" />
    <glyph glyph-name="Udieresis.ss02" horiz-adv-x="707" 
d="M381 810h76l-23 -120h-76zM477 810h76l-23 -120h-76zM563.5 68q-83.5 -80 -227.5 -80q-146 0 -215.5 57.5t-69.5 172.5q0 49 14 116l72 366h203l-79 -404q-4 -17 -4 -37q0 -81 86 -81q56 0 86.5 32t41.5 86l79 404h203l-80 -409q-26 -143 -109.5 -223z" />
    <glyph glyph-name="Wdieresis.ss02" horiz-adv-x="1128" 
d="M394 810h141l-23 -120h-141zM785 810h141l-23 -120h-141zM826 0h-158l-70 403h-2l-226 -403h-158l-116 700h211l38 -383h2l215 383h160l69 -383h2l186 383h235z" />
    <glyph glyph-name="Ydieresis.ss02" horiz-adv-x="723" 
d="M429 690h-111l23 120h111zM449 690l23 120h111l-23 -120h-111zM456 232l-45 -232h-190l46 236l-181 464h215l84 -281h2l193 281h239z" />
    <glyph glyph-name="Adieresis.ss01.ss02" horiz-adv-x="745" 
d="M177.5 675q-25.5 25 -25.5 62q0 36 25.5 61.5t62.5 25.5t62 -25.5t25 -61.5t-25 -61.5t-62 -25.5t-62.5 25zM746 798.5q25 -25.5 25 -61.5t-25 -61.5t-62 -25.5t-62.5 25t-25.5 62q0 36 25.5 61.5t62.5 25.5t62 -25.5zM565 700l135 -700h-202l-17 131h-239l-68 -131h-219
l408 700h202zM462 281l-29 220l-114 -220h143z" />
    <glyph glyph-name="Idieresis.ss01.ss02" horiz-adv-x="300" 
d="M100 798.5q25 -25.5 25 -61.5t-25 -61.5t-62 -25.5t-62.5 25t-25.5 62q0 36 25.5 61.5t62.5 25.5t62 -25.5zM506 798.5q25 -25.5 25 -61.5t-25 -61.5t-62 -25.5t-62.5 25t-25.5 62q0 36 25.5 61.5t62.5 25.5t62 -25.5zM200 0h-190l136 700h190z" />
    <glyph glyph-name="Odieresis.ss01.ss02" horiz-adv-x="787" 
d="M214 798.5q25 -25.5 25 -61.5t-25 -61.5t-62 -25.5t-62.5 25t-25.5 62q0 36 25.5 61.5t62.5 25.5t62 -25.5zM794 798.5q25 -25.5 25 -61.5t-25 -61.5t-62 -25.5t-62.5 25t-25.5 62q0 36 25.5 61.5t62.5 25.5t62 -25.5zM206 25.5q-79 40.5 -122.5 116t-43.5 176.5
q0 109 51 200t143 144t211 53q103 0 182 -40.5t122.5 -116t43.5 -176.5q0 -109 -51 -200t-143 -144t-211 -53q-103 0 -182 40.5zM511.5 200.5q44.5 30.5 65.5 77.5t21 96q0 72 -43.5 114t-121.5 42q-67 0 -111.5 -30.5t-65.5 -77.5t-21 -96q0 -72 43.5 -114t121.5 -42
q67 0 111.5 30.5z" />
    <glyph glyph-name="Udieresis.ss01.ss02" horiz-adv-x="717" 
d="M514 798.5q25 -25.5 25 -61.5t-25 -61.5t-62 -25.5t-62.5 25t-25.5 62q0 36 25.5 61.5t62.5 25.5t62 -25.5zM568.5 68q-83.5 -80 -227.5 -80q-146 0 -215.5 57.5t-69.5 172.5q0 49 14 116l72 366h203l-79 -404q-4 -17 -4 -37q0 -81 86 -81q56 0 86.5 32t41.5 86l79 404
h203l-80 -409q-26 -143 -109.5 -223z" />
    <glyph glyph-name="Wdieresis.ss01.ss02" horiz-adv-x="1128" 
d="M494 798.5q25 -25.5 25 -61.5t-25 -61.5t-62 -25.5t-62.5 25t-25.5 62q0 36 25.5 61.5t62.5 25.5t62 -25.5zM904 798.5q25 -25.5 25 -61.5t-25 -61.5t-62 -25.5t-62.5 25t-25.5 62q0 36 25.5 61.5t62.5 25.5t62 -25.5zM826 0h-158l-70 403h-2l-226 -403h-158l-116 700
h211l38 -383h2l215 383h160l69 -383h2l186 383h235z" />
    <glyph glyph-name="Ydieresis.ss01.ss02" horiz-adv-x="723" 
d="M283.5 728q-25.5 25 -25.5 62q0 36 25.5 61.5t62.5 25.5t62 -25.5t25 -61.5t-25 -61.5t-62 -25.5t-62.5 25zM483.5 728q-25.5 25 -25.5 62q0 36 25.5 61.5t62.5 25.5t62 -25.5t25 -61.5t-25 -61.5t-62 -25.5t-62.5 25zM456 232l-45 -232h-190l46 236l-181 464h215
l84 -281h2l193 281h239z" />
    <glyph glyph-name="germandbls.ss03" horiz-adv-x="607" 
d="M549 223.5q20 -31.5 20 -81.5q0 -74 -42 -136.5t-97.5 -106t-135.5 -96.5l-28 -18l-81 133q114 76 159.5 116.5t45.5 72.5q0 17 -19 40.5t-60 45.5l-20 10l86 106h-137l-60 -309h-185l90 465q17 85 47 138t85 80t144 27h63l-33 -171h-19q-49 0 -71 -15.5t-31 -59.5
l-22 -115l95 113h294l-138 -183q30 -24 50 -55.5z" />
    <glyph glyph-name="a.subs" horiz-adv-x="422" 
d="M44 -104q-29 16 -47 48.5t-18 80.5q0 49 20 90.5t57.5 66t86.5 24.5q41 0 67.5 -18t38.5 -48h1l10 56h120l-59 -306h-120l9 48h-1q-41 -58 -103 -58q-33 0 -62 16zM209 6q17 19 17 43q0 22 -14 36t-38 14q-28 0 -45 -19t-17 -43q0 -22 14 -36t38 -14q28 0 45 19z" />
    <glyph glyph-name="b.subs" horiz-adv-x="427" 
d="M310 190q29 -16 47 -48.5t18 -80.5q0 -49 -20 -90.5t-57.5 -66t-86.5 -24.5q-79 0 -105 66h-1l-11 -56h-120l90 462h120l-40 -204h1q41 58 103 58q33 0 62 -16zM225 6q17 19 17 43q0 22 -14 36t-38 14q-28 0 -45 -19t-17 -43q0 -22 14 -36t38 -14q28 0 45 19z" />
    <glyph glyph-name="c.subs" horiz-adv-x="325" 
d="M245 196.5q34 -9.5 59 -24.5l-61 -99q-38 20 -68 20q-31 0 -47.5 -15t-16.5 -39q0 -23 14.5 -34.5t36.5 -11.5q26 0 66 14l28 -105q-55 -22 -107 -22q-46 0 -84.5 18.5t-61.5 53.5t-23 82q0 46 22.5 85.5t66 63t104.5 23.5q38 0 72 -9.5z" />
    <glyph glyph-name="d.subs" horiz-adv-x="422" 
d="M410 352l-89 -462h-120l9 48h-1q-41 -58 -103 -58q-33 0 -62 16t-47 48.5t-18 80.5q0 49 20 90.5t57.5 66t86.5 24.5q41 0 67.5 -18t38.5 -48h1l40 212h120zM209 6q17 19 17 43q0 22 -14 36t-38 14q-28 0 -45 -19t-17 -43q0 -22 14 -36t38 -14q28 0 45 19z" />
    <glyph glyph-name="e.subs" horiz-adv-x="365" 
d="M308 19h-214q11 -43 68 -43q40 0 91 19l26 -93q-62 -22 -130 -22q-76 0 -122.5 39.5t-46.5 110.5q0 46 20 86t61 65t100 25q66 0 110.5 -32t44.5 -99q0 -21 -8 -56zM201 86q0 18 -11.5 29t-31.5 11q-22 0 -37.5 -12.5t-23.5 -34.5h104v7z" />
    <glyph glyph-name="f.subs" horiz-adv-x="254" 
d="M192 240q-13 -12 -19 -44h58l-18 -93h-58l-41 -213h-120l41 213h-50l18 93h50l5 27q13 69 56 102t117 33h38l-21 -106h-20q-23 0 -36 -12z" />
    <glyph glyph-name="g.subs" horiz-adv-x="422" 
d="M380 196l-59 -306q-13 -66 -57 -104t-142 -38q-62 0 -132 18l28 100q25 -8 56.5 -12.5t50.5 -4.5q35 0 53.5 12t24.5 41l7 36h-1q-41 -58 -103 -58q-33 0 -62 16t-47 48.5t-18 80.5q0 49 20 90.5t57.5 66t86.5 24.5q41 0 67.5 -18t38.5 -48h1l10 56h120zM209 6
q17 19 17 43q0 22 -14 36t-38 14q-28 0 -45 -19t-17 -43q0 -22 14 -36t38 -14q28 0 45 19z" />
    <glyph glyph-name="h.subs" horiz-adv-x="401" 
d="M140 154h3q21 25 50 38.5t62 13.5q89 0 89 -93q0 -24 -6 -53l-33 -170h-120l29 150q3 18 3 30q0 41 -39 41q-24 0 -38 -15.5t-19 -41.5l-32 -164h-120l90 462h120z" />
    <glyph glyph-name="i.subs" horiz-adv-x="204" 
d="M165 236h-124l23 116h124zM96 -110h-120l59 306h120z" />
    <glyph glyph-name="j.subs" horiz-adv-x="205" 
d="M166 236h-124l23 116h124zM94 -124q-12 -60 -50.5 -90t-97.5 -30h-28l20 102h8q15 0 21.5 6t8.5 19l61 313h119z" />
    <glyph glyph-name="k.subs" horiz-adv-x="412" 
d="M130 75l98 121h160l-149 -150l102 -156h-148l-72 137l-27 -137h-120l90 462h120z" />
    <glyph glyph-name="l.subs" horiz-adv-x="200" 
d="M94 -110h-120l90 462h120z" />
    <glyph glyph-name="m.subs" horiz-adv-x="601" 
d="M516.5 181.5q27.5 -24.5 27.5 -72.5q0 -17 -5 -44l-34 -175h-120l28 148q3 17 3 29q0 21 -10.5 31t-27.5 10q-23 0 -34.5 -15.5t-16.5 -42.5l-31 -160h-118l28 148q3 18 3 30q0 41 -37 41q-41 0 -52 -58l-31 -161h-120l59 306h119l-9 -52h2q19 29 47 45.5t63 16.5
q33 0 57 -15.5t31 -50.5h1q20 32 45.5 49t61.5 17q43 0 70.5 -24.5z" />
    <glyph glyph-name="n.subs" horiz-adv-x="403" 
d="M317 179q27 -27 27 -78q0 -21 -6 -50l-33 -161h-120l29 143q4 17 4 33q0 44 -39 44q-47 0 -58 -57l-32 -163h-120l59 306h120l-9 -47h3q39 57 102 57q46 0 73 -27z" />
    <glyph glyph-name="o.subs" horiz-adv-x="392" 
d="M295 165q45 -41 45 -109q0 -48 -23 -88t-67 -64t-103 -24q-78 0 -123 41t-45 109q0 48 23 88t67 64t103 24q78 0 123 -41zM119.5 78.5q-16.5 -18.5 -16.5 -43.5q0 -21 13.5 -33.5t36.5 -12.5q30 0 46.5 18.5t16.5 43.5q0 21 -13.5 33.5t-36.5 12.5q-30 0 -46.5 -18.5z
" />
    <glyph glyph-name="p.subs" horiz-adv-x="421" 
d="M304 190q29 -16 47 -48.5t18 -80.5q0 -49 -20 -90.5t-57.5 -66t-86.5 -24.5q-79 0 -105 66h-1l-36 -188h-120l85 438h120l-9 -48h1q41 58 102 58q33 0 62 -16zM219 6q17 19 17 43q0 22 -14 36t-38 14q-28 0 -45 -19t-17 -43q0 -22 14 -36t38 -14q28 0 45 19z" />
    <glyph glyph-name="q.subs" horiz-adv-x="423" 
d="M381 196l-85 -438h-120l35 180h-1q-41 -58 -104 -58q-33 0 -62 16t-47 48.5t-18 80.5q0 49 20 90.5t57.5 66t86.5 24.5q41 0 67.5 -18t38.5 -48h1l11 56h120zM209 6q17 19 17 43q0 22 -14 36t-38 14q-28 0 -45 -19t-17 -43q0 -22 14 -36t38 -14q28 0 45 19z" />
    <glyph glyph-name="r.subs" horiz-adv-x="269" 
d="M235 80h-21q-43 0 -68.5 -18.5t-34.5 -61.5l-22 -110h-120l59 306h119l-13 -69h1q18 42 45 60.5t74 18.5h5z" />
    <glyph glyph-name="s.subs" horiz-adv-x="307" 
d="M272 178l-43 -86q-23 11 -46.5 18.5t-39.5 7.5q-14 0 -14 -7q0 -4 11 -10l46 -23q29 -14 45 -34.5t16 -57.5q0 -106 -147 -106q-43 0 -79 9.5t-71 31.5l55 87q64 -41 104 -41q16 0 16 8q0 3 -3.5 6t-9.5 6l-41 22q-31 17 -47.5 39.5t-16.5 55.5q0 48 34 75t95 27
q66 0 136 -28z" />
    <glyph glyph-name="t.subs" horiz-adv-x="251" 
d="M140 22q-1 -3 -1 -9q0 -14 21 -14h12l-21 -109h-44q-97 0 -97 73q0 11 3 25l22 115h-50l18 93h50l24 121h120l-23 -121h55l-18 -93h-55z" />
    <glyph glyph-name="u.subs" horiz-adv-x="397" 
d="M296 -110h-120l10 54h-2q-22 -31 -48 -47.5t-64 -16.5q-40 0 -64.5 21.5t-24.5 68.5q0 20 4 41l36 185h121l-29 -148q-3 -18 -3 -29q0 -40 38 -40q26 0 38 18.5t19 54.5l29 144h119z" />
    <glyph glyph-name="v.subs" horiz-adv-x="378" 
d="M186 -110h-126l-67 306h122l25 -185l97 185h134z" />
    <glyph glyph-name="w.subs" horiz-adv-x="561" 
d="M386 -110h-120l-20 168l-83 -168h-120l-50 306h118l12 -170l85 170h119l22 -170l77 170h128z" />
    <glyph glyph-name="x.subs" horiz-adv-x="390" 
d="M229 40l90 -150h-126l-42 70l-69 -70h-148l161 164l-85 142h126l37 -63l62 63h148z" />
    <glyph glyph-name="y.subs" horiz-adv-x="390" 
d="M383 195l-289 -438h-130l111 168l-82 270h130l33 -147l97 147h130z" />
    <glyph glyph-name="z.subs" horiz-adv-x="328" 
d="M275 107l-151 -120h137l-19 -97h-288l17 90l148 118h-121l19 98h275z" />
    <glyph glyph-name="t_z" horiz-adv-x="739" 
d="M681 223.5q20 -31.5 20 -81.5q0 -74 -42 -136.5t-97.5 -106t-135.5 -96.5l-28 -18l-81 133q114 76 159.5 116.5t45.5 72.5q0 17 -19 40.5t-60 45.5l-20 10l86 106h-158v1h-53l-15 -75q-4 -16 -4 -31q0 -18 9.5 -25t31.5 -7h16l-33 -172h-85q-65 0 -100 35.5t-35 97.5
q0 20 5 48l25 129h-93l30 152h93l36 185h184l-36 -185h442l-138 -183q30 -24 50 -55.5z" />
    <glyph glyph-name="a.sups" horiz-adv-x="422" 
d="M133 354q-29 16 -47 48.5t-18 80.5q0 49 20 90.5t57.5 66t86.5 24.5q41 0 67.5 -18t38.5 -48h1l10 56h120l-59 -306h-120l9 48h-1q-41 -58 -103 -58q-33 0 -62 16zM298 464q17 19 17 43q0 22 -14 36t-38 14q-28 0 -45 -19t-17 -43q0 -22 14 -36t38 -14q28 0 45 19z" />
    <glyph glyph-name="b.sups" horiz-adv-x="427" 
d="M399 648q29 -16 47 -48.5t18 -80.5q0 -49 -20 -90.5t-57.5 -66t-86.5 -24.5q-79 0 -105 66h-1l-11 -56h-120l90 462h120l-40 -204h1q41 58 103 58q33 0 62 -16zM314 464q17 19 17 43q0 22 -14 36t-38 14q-28 0 -45 -19t-17 -43q0 -22 14 -36t38 -14q28 0 45 19z" />
    <glyph glyph-name="c.sups" horiz-adv-x="325" 
d="M334 654.5q34 -9.5 59 -24.5l-61 -99q-38 20 -68 20q-31 0 -47.5 -15t-16.5 -39q0 -23 14.5 -34.5t36.5 -11.5q26 0 66 14l28 -105q-55 -22 -107 -22q-46 0 -84.5 18.5t-61.5 53.5t-23 82q0 46 22.5 85.5t66 63t104.5 23.5q38 0 72 -9.5z" />
    <glyph glyph-name="d.sups" horiz-adv-x="422" 
d="M499 810l-89 -462h-120l9 48h-1q-41 -58 -103 -58q-33 0 -62 16t-47 48.5t-18 80.5q0 49 20 90.5t57.5 66t86.5 24.5q41 0 67.5 -18t38.5 -48h1l40 212h120zM298 464q17 19 17 43q0 22 -14 36t-38 14q-28 0 -45 -19t-17 -43q0 -22 14 -36t38 -14q28 0 45 19z" />
    <glyph glyph-name="e.sups" horiz-adv-x="365" 
d="M397 477h-214q11 -43 68 -43q40 0 91 19l26 -93q-62 -22 -130 -22q-76 0 -122.5 39.5t-46.5 110.5q0 46 20 86t61 65t100 25q66 0 110.5 -32t44.5 -99q0 -21 -8 -56zM290 544q0 18 -11.5 29t-31.5 11q-22 0 -37.5 -12.5t-23.5 -34.5h104v7z" />
    <glyph glyph-name="f.sups" horiz-adv-x="254" 
d="M281 698q-13 -12 -19 -44h58l-18 -93h-58l-41 -213h-120l41 213h-50l18 93h50l5 27q13 69 56 102t117 33h38l-21 -106h-20q-23 0 -36 -12z" />
    <glyph glyph-name="g.sups" horiz-adv-x="422" 
d="M469 654l-59 -306q-13 -66 -57 -104t-142 -38q-62 0 -132 18l28 100q25 -8 56.5 -12.5t50.5 -4.5q35 0 53.5 12t24.5 41l7 36h-1q-41 -58 -103 -58q-33 0 -62 16t-47 48.5t-18 80.5q0 49 20 90.5t57.5 66t86.5 24.5q41 0 67.5 -18t38.5 -48h1l10 56h120zM298 464
q17 19 17 43q0 22 -14 36t-38 14q-28 0 -45 -19t-17 -43q0 -22 14 -36t38 -14q28 0 45 19z" />
    <glyph glyph-name="h.sups" horiz-adv-x="401" 
d="M229 612h3q21 25 50 38.5t62 13.5q89 0 89 -93q0 -24 -6 -53l-33 -170h-120l29 150q3 18 3 30q0 41 -39 41q-24 0 -38 -15.5t-19 -41.5l-32 -164h-120l90 462h120z" />
    <glyph glyph-name="i.sups" horiz-adv-x="204" 
d="M254 694h-124l23 116h124zM185 348h-120l59 306h120z" />
    <glyph glyph-name="j.sups" horiz-adv-x="205" 
d="M255 694h-124l23 116h124zM183 334q-12 -60 -50.5 -90t-97.5 -30h-28l20 102h8q15 0 21.5 6t8.5 19l61 313h119z" />
    <glyph glyph-name="k.sups" horiz-adv-x="412" 
d="M219 533l98 121h160l-149 -150l102 -156h-148l-72 137l-27 -137h-120l90 462h120z" />
    <glyph glyph-name="l.sups" horiz-adv-x="200" 
d="M183 348h-120l90 462h120z" />
    <glyph glyph-name="m.sups" horiz-adv-x="601" 
d="M605.5 639.5q27.5 -24.5 27.5 -72.5q0 -17 -5 -44l-34 -175h-120l28 148q3 17 3 29q0 21 -10.5 31t-27.5 10q-23 0 -34.5 -15.5t-16.5 -42.5l-31 -160h-118l28 148q3 18 3 30q0 41 -37 41q-41 0 -52 -58l-31 -161h-120l59 306h119l-9 -52h2q19 29 47 45.5t63 16.5
q33 0 57 -15.5t31 -50.5h1q20 32 45.5 49t61.5 17q43 0 70.5 -24.5z" />
    <glyph glyph-name="n.sups" horiz-adv-x="403" 
d="M406 637q27 -27 27 -78q0 -21 -6 -50l-33 -161h-120l29 143q4 17 4 33q0 44 -39 44q-47 0 -58 -57l-32 -163h-120l59 306h120l-9 -47h3q39 57 102 57q46 0 73 -27z" />
    <glyph glyph-name="o.sups" horiz-adv-x="392" 
d="M384 623q45 -41 45 -109q0 -48 -23 -88t-67 -64t-103 -24q-78 0 -123 41t-45 109q0 48 23 88t67 64t103 24q78 0 123 -41zM208.5 536.5q-16.5 -18.5 -16.5 -43.5q0 -21 13.5 -33.5t36.5 -12.5q30 0 46.5 18.5t16.5 43.5q0 21 -13.5 33.5t-36.5 12.5q-30 0 -46.5 -18.5z
" />
    <glyph glyph-name="p.sups" horiz-adv-x="421" 
d="M393 648q29 -16 47 -48.5t18 -80.5q0 -49 -20 -90.5t-57.5 -66t-86.5 -24.5q-79 0 -105 66h-1l-36 -188h-120l85 438h120l-9 -48h1q41 58 102 58q33 0 62 -16zM308 464q17 19 17 43q0 22 -14 36t-38 14q-28 0 -45 -19t-17 -43q0 -22 14 -36t38 -14q28 0 45 19z" />
    <glyph glyph-name="q.sups" horiz-adv-x="423" 
d="M470 654l-85 -438h-120l35 180h-1q-41 -58 -104 -58q-33 0 -62 16t-47 48.5t-18 80.5q0 49 20 90.5t57.5 66t86.5 24.5q41 0 67.5 -18t38.5 -48h1l11 56h120zM298 464q17 19 17 43q0 22 -14 36t-38 14q-28 0 -45 -19t-17 -43q0 -22 14 -36t38 -14q28 0 45 19z" />
    <glyph glyph-name="r.sups" horiz-adv-x="269" 
d="M324 538h-21q-43 0 -68.5 -18.5t-34.5 -61.5l-22 -110h-120l59 306h119l-13 -69h1q18 42 45 60.5t74 18.5h5z" />
    <glyph glyph-name="s.sups" horiz-adv-x="307" 
d="M361 636l-43 -86q-23 11 -46.5 18.5t-39.5 7.5q-14 0 -14 -7q0 -4 11 -10l46 -23q29 -14 45 -34.5t16 -57.5q0 -106 -147 -106q-43 0 -79 9.5t-71 31.5l55 87q64 -41 104 -41q16 0 16 8q0 3 -3.5 6t-9.5 6l-41 22q-31 17 -47.5 39.5t-16.5 55.5q0 48 34 75t95 27
q66 0 136 -28z" />
    <glyph glyph-name="t.sups" horiz-adv-x="251" 
d="M229 480q-1 -3 -1 -9q0 -14 21 -14h12l-21 -109h-44q-97 0 -97 73q0 11 3 25l22 115h-50l18 93h50l24 121h120l-23 -121h55l-18 -93h-55z" />
    <glyph glyph-name="u.sups" horiz-adv-x="397" 
d="M385 348h-120l10 54h-2q-22 -31 -48 -47.5t-64 -16.5q-40 0 -64.5 21.5t-24.5 68.5q0 20 4 41l36 185h121l-29 -148q-3 -18 -3 -29q0 -40 38 -40q26 0 38 18.5t19 54.5l29 144h119z" />
    <glyph glyph-name="v.sups" horiz-adv-x="378" 
d="M275 348h-126l-67 306h122l25 -185l97 185h134z" />
    <glyph glyph-name="w.sups" horiz-adv-x="561" 
d="M475 348h-120l-20 168l-83 -168h-120l-50 306h118l12 -170l85 170h119l22 -170l77 170h128z" />
    <glyph glyph-name="x.sups" horiz-adv-x="390" 
d="M318 498l90 -150h-126l-42 70l-69 -70h-148l161 164l-85 142h126l37 -63l62 63h148z" />
    <glyph glyph-name="y.sups" horiz-adv-x="390" 
d="M472 653l-289 -438h-130l111 168l-82 270h130l33 -147l97 147h130z" />
    <glyph glyph-name="z.sups" horiz-adv-x="328" 
d="M364 565l-151 -120h137l-19 -97h-288l17 90l148 118h-121l19 98h275z" />
    <glyph glyph-name="uni0443.loclBGR" horiz-adv-x="450" 
d="M45 16q-56 31 -56 116q0 117 129 154l116 33q16 5 22 8.5t6 10.5q0 6 -5 8t-16 2q-27 0 -68 -6t-79 -17l-26 133q98 19 173 19q91 0 142.5 -32t51.5 -116q0 -60 -36.5 -98t-118.5 -62l-96 -28q-9 -3 -13 -6t-4 -9q0 -5 5 -7.5t17 -2.5q32 0 79.5 13t90.5 34l47 -133
q-58 -24 -119 -34.5t-109 -10.5q-77 0 -133 31z" />
    <glyph glyph-name="zero.dnom" horiz-adv-x="417" 
d="M28 162q0 63 20.5 116t63.5 85t106 32q156 0 156 -171q0 -63 -20.5 -116t-63.5 -85t-106 -32q-156 0 -156 171zM254.5 124q20.5 44 20.5 99q0 48 -17 65.5t-47 17.5q-43 0 -63.5 -44t-20.5 -99q0 -48 17 -65.5t47 -17.5q43 0 63.5 44z" />
    <glyph glyph-name="one.dnom" horiz-adv-x="294" 
d="M144 0h-102l56 286h-22l19 100h124z" />
    <glyph glyph-name="two.dnom" horiz-adv-x="362" 
d="M294 369.5q38 -25.5 38 -76.5q0 -43 -27.5 -76t-80.5 -70l-73 -51h141l-19 -96h-282l14 74l155 127q38 31 51 47t13 29q0 28 -35 28q-41 0 -50 -43h-97q8 66 44.5 99.5t110.5 33.5q59 0 97 -25.5z" />
    <glyph glyph-name="three.dnom" horiz-adv-x="342" 
d="M278 369q36 -26 36 -72q0 -38 -23.5 -62t-67.5 -33v-2q34 -5 51.5 -26t17.5 -56q0 -51 -35.5 -89t-114.5 -38q-66 0 -104.5 28.5t-38.5 82.5q0 17 2 26h97v-8q0 -39 46 -39q25 0 39 10.5t14 32.5t-21 30t-64 8l12 74q84 1 84 39q0 15 -9 22.5t-25 7.5q-20 0 -33.5 -10.5
t-15.5 -29.5h-98q7 60 45.5 95t109.5 35q60 0 96 -26z" />
    <glyph glyph-name="four.dnom" horiz-adv-x="366" 
d="M287 149h38l-18 -91h-38l-11 -58h-93l11 58h-190l18 91l244 237h85zM194 149l21 108h-2l-114 -108h95z" />
    <glyph glyph-name="five.dnom" horiz-adv-x="349" 
d="M275 224.5q28 -30.5 28 -84.5q0 -64 -42 -106.5t-125 -42.5q-41 0 -82 11t-72 31l51 81q19 -13 47.5 -23t55.5 -10q35 0 51.5 17t16.5 41q0 23 -13.5 35.5t-32.5 12.5q-30 0 -49 -29h-79l61 228h224l-19 -94h-151l-17 -63h2q31 26 73 26q44 0 72 -30.5z" />
    <glyph glyph-name="six.dnom" horiz-adv-x="354" 
d="M45.5 25q-42.5 34 -42.5 99q0 39 15 71t39 58.5t66 64.5l85 77h122l-196 -162l3 -1q19 16 36.5 24.5t38.5 8.5q37 0 69.5 -26.5t32.5 -90.5q0 -42 -18.5 -78t-55 -57.5t-87.5 -21.5q-65 0 -107.5 34zM199 97q16 16 16 39q0 21 -13.5 33t-37.5 12q-28 0 -43.5 -16
t-15.5 -39q0 -21 13 -33t37 -12q28 0 44 16z" />
    <glyph glyph-name="seven.dnom" horiz-adv-x="313" 
d="M306 298l-214 -298h-107l213 289h-172l19 97h278z" />
    <glyph glyph-name="eight.dnom" horiz-adv-x="390" 
d="M50.5 19q-38.5 28 -38.5 80q0 47 30 73t77 34v2q-25 6 -41.5 25t-16.5 49q0 46 38.5 79.5t122.5 33.5q59 0 96 -22t37 -74q0 -42 -26 -64t-66 -29v-2q30 -6 48.5 -29t18.5 -60q0 -50 -40.5 -87t-128.5 -37q-72 0 -110.5 28zM237.5 261.5q13.5 9.5 13.5 26.5
q0 15 -11.5 22.5t-29.5 7.5q-21 0 -34.5 -9.5t-13.5 -26.5q0 -15 11.5 -22.5t29.5 -7.5q21 0 34.5 9.5zM215.5 90.5q15.5 13.5 15.5 32.5q0 18 -14.5 28t-38.5 10q-30 0 -45.5 -13.5t-15.5 -32.5q0 -18 14.5 -28t38.5 -10q30 0 45.5 13.5z" />
    <glyph glyph-name="nine.dnom" horiz-adv-x="357" 
d="M294.5 362q39.5 -33 39.5 -100q0 -43 -14.5 -76t-38.5 -59.5t-64 -62.5l-75 -64h-119l197 159h-3q-41 -27 -82 -27q-42 0 -73 30t-31 85q0 61 40.5 104.5t120.5 43.5q63 0 102.5 -33zM140.5 294q-15.5 -16 -15.5 -39q0 -21 13 -33.5t37 -12.5q28 0 44 16.5t16 39.5
q0 21 -13.5 33t-37.5 12q-28 0 -43.5 -16z" />
    <glyph glyph-name="zero.numr" horiz-adv-x="417" 
d="M84 451q0 63 20.5 116t63.5 85t106 32q156 0 156 -171q0 -63 -20.5 -116t-63.5 -85t-106 -32q-156 0 -156 171zM310.5 413q20.5 44 20.5 99q0 48 -17 65.5t-47 17.5q-43 0 -63.5 -44t-20.5 -99q0 -48 17 -65.5t47 -17.5q43 0 63.5 44z" />
    <glyph glyph-name="one.numr" horiz-adv-x="294" 
d="M200 289h-102l56 286h-22l19 100h124z" />
    <glyph glyph-name="two.numr" horiz-adv-x="362" 
d="M350 658.5q38 -25.5 38 -76.5q0 -43 -27.5 -76t-80.5 -70l-73 -51h141l-19 -96h-282l14 74l155 127q38 31 51 47t13 29q0 28 -35 28q-41 0 -50 -43h-97q8 66 44.5 99.5t110.5 33.5q59 0 97 -25.5z" />
    <glyph glyph-name="three.numr" horiz-adv-x="341" 
d="M334 658q36 -26 36 -72q0 -38 -23.5 -62t-67.5 -33v-2q34 -5 51.5 -26t17.5 -56q0 -51 -35.5 -89t-114.5 -38q-66 0 -104.5 28.5t-38.5 82.5q0 17 2 26h97v-8q0 -39 46 -39q25 0 39 10.5t14 32.5t-21 30t-64 8l12 74q84 1 84 39q0 15 -9 22.5t-25 7.5q-20 0 -33.5 -10.5
t-15.5 -29.5h-98q7 60 45.5 95t109.5 35q60 0 96 -26z" />
    <glyph glyph-name="four.numr" horiz-adv-x="367" 
d="M344 438h38l-18 -91h-38l-11 -58h-93l11 58h-190l18 91l244 237h85zM251 438l21 108h-2l-114 -108h95z" />
    <glyph glyph-name="five.numr" horiz-adv-x="349" 
d="M331 513.5q28 -30.5 28 -84.5q0 -64 -42 -106.5t-125 -42.5q-41 0 -82 11t-72 31l51 81q19 -13 47.5 -23t55.5 -10q35 0 51.5 17t16.5 41q0 23 -13.5 35.5t-32.5 12.5q-30 0 -49 -29h-79l61 228h224l-19 -94h-151l-17 -63h2q31 26 73 26q44 0 72 -30.5z" />
    <glyph glyph-name="six.numr" horiz-adv-x="353" 
d="M101.5 314q-42.5 34 -42.5 99q0 39 15 71t39 58.5t66 64.5l85 77h122l-196 -162l3 -1q19 16 36.5 24.5t38.5 8.5q37 0 69.5 -26.5t32.5 -90.5q0 -42 -18.5 -78t-55 -57.5t-87.5 -21.5q-65 0 -107.5 34zM255 386q16 16 16 39q0 21 -13.5 33t-37.5 12q-28 0 -43.5 -16
t-15.5 -39q0 -21 13 -33t37 -12q28 0 44 16z" />
    <glyph glyph-name="seven.numr" horiz-adv-x="313" 
d="M362 587l-214 -298h-107l213 289h-172l19 97h278z" />
    <glyph glyph-name="eight.numr" horiz-adv-x="390" 
d="M106.5 308q-38.5 28 -38.5 80q0 47 30 73t77 34v2q-25 6 -41.5 25t-16.5 49q0 46 38.5 79.5t122.5 33.5q59 0 96 -22t37 -74q0 -42 -26 -64t-66 -29v-2q30 -6 48.5 -29t18.5 -60q0 -50 -40.5 -87t-128.5 -37q-72 0 -110.5 28zM293.5 550.5q13.5 9.5 13.5 26.5
q0 15 -11.5 22.5t-29.5 7.5q-21 0 -34.5 -9.5t-13.5 -26.5q0 -15 11.5 -22.5t29.5 -7.5q21 0 34.5 9.5zM271.5 379.5q15.5 13.5 15.5 32.5q0 18 -14.5 28t-38.5 10q-30 0 -45.5 -13.5t-15.5 -32.5q0 -18 14.5 -28t38.5 -10q30 0 45.5 13.5z" />
    <glyph glyph-name="nine.numr" horiz-adv-x="357" 
d="M350.5 651q39.5 -33 39.5 -100q0 -43 -14.5 -76t-38.5 -59.5t-64 -62.5l-75 -64h-119l197 159h-3q-41 -27 -82 -27q-42 0 -73 30t-31 85q0 61 40.5 104.5t120.5 43.5q63 0 102.5 -33zM196.5 583q-15.5 -16 -15.5 -39q0 -21 13 -33.5t37 -12.5q28 0 44 16.5t16 39.5
q0 21 -13.5 33t-37.5 12q-28 0 -43.5 -16z" />
    <glyph glyph-name="colon.case" horiz-adv-x="257" 
d="M242 334h-186l37 188h186zM176 0h-186l37 188h186z" />
    <glyph glyph-name="exclamdown.case" horiz-adv-x="349" 
d="M171 701h186l-37 -188h-186zM152 460h133l-51 -459h-209z" />
    <glyph glyph-name="questiondown.case" horiz-adv-x="496" 
d="M255 700h186l-37 -188h-186zM62.5 26q-60.5 41 -60.5 120q0 51 27 92.5t79 81.5q6 4 31.5 23.5t43.5 46.5t25 60l2 10h183l-6 -29q-20 -100 -109 -162l-19 -12q-30 -20 -44.5 -34.5t-14.5 -34.5q0 -17 12.5 -26t35.5 -9q30 0 44.5 16t19.5 44h175q-15 -109 -77.5 -168.5
t-185.5 -59.5q-101 0 -161.5 41z" />
    <glyph glyph-name="semicolon.case" horiz-adv-x="257" 
d="M179 0l-141 -177h-80l103 177h-62l37 188h180zM241 334h-186l37 188h186z" />
    <glyph glyph-name="colon.case.ss01" horiz-adv-x="257" 
d="M188 170.5q31 -30.5 31 -77.5t-31 -77.5t-78 -30.5t-78 30.5t-31 77.5t31 77.5t78 30.5t78 -30.5zM248 507.5q31 -30.5 31 -77.5t-31 -77.5t-78 -30.5t-78 30.5t-31 77.5t31 77.5t78 30.5t78 -30.5z" />
    <glyph glyph-name="exclamdown.case.ss01" horiz-adv-x="349" 
d="M184 529.5q-31 30.5 -31 77.5t31 77.5t78 30.5t78 -30.5t31 -77.5t-31 -77.5t-78 -30.5t-78 30.5zM175 459h133l-51 -459h-209z" />
    <glyph glyph-name="questiondown.case.ss01" horiz-adv-x="496" 
d="M245 529.5q-31 30.5 -31 77.5t31 77.5t78 30.5t78 -30.5t31 -77.5t-31 -77.5t-78 -30.5t-78 30.5zM62.5 26q-60.5 41 -60.5 120q0 51 27 92.5t79 81.5q6 4 31.5 23.5t43.5 46.5t25 60l2 10h183l-6 -29q-20 -100 -109 -162l-19 -12q-30 -20 -44.5 -34.5t-14.5 -34.5
q0 -17 12.5 -26t35.5 -9q30 0 44.5 16t19.5 44h175q-15 -109 -77.5 -168.5t-185.5 -59.5q-101 0 -161.5 41z" />
    <glyph glyph-name="semicolon.case.ss01" horiz-adv-x="257" 
d="M248 507.5q31 -30.5 31 -77.5t-31 -77.5t-78 -30.5t-78 30.5t-31 77.5t31 77.5t78 30.5t78 -30.5zM175 -6l-154 -168h-63l119 168q-29 11 -46.5 38t-17.5 62q0 45 30.5 75t75.5 30q48 0 77 -28.5t29 -75.5q0 -45 -50 -101z" />
    <glyph glyph-name="braceleft.case" horiz-adv-x="426" 
d="M505 687h-30q-44 0 -67.5 -14t-30.5 -49l-24 -126q-12 -66 -50 -106.5t-105 -55.5v-2q96 -23 96 -118q0 -18 -5 -45l-22 -115q-2 -12 -2 -18q0 -24 18 -34.5t55 -10.5h32l-29 -148h-40q-80 0 -129 38.5t-49 119.5q0 22 5 47l20 106q3 14 3 26q0 39 -28.5 58t-81.5 22
l29 147q128 3 148 105l23 126q18 99 80 147t162 48h50z" />
    <glyph glyph-name="braceright.case" horiz-adv-x="427" 
d="M-36 -7h30q44 0 67.5 14t30.5 49l24 126q12 66 50 106.5t105 55.5v2q-96 23 -96 118q0 18 5 45l22 115q2 12 2 18q0 24 -18 34.5t-55 10.5h-32l29 148h40q80 0 129 -38.5t49 -119.5q0 -22 -5 -47l-20 -106q-3 -13 -3 -26q0 -39 28.5 -58t81.5 -22l-29 -147
q-128 -3 -148 -105l-23 -126q-18 -99 -80 -147t-162 -48h-50z" />
    <glyph glyph-name="bracketleft.case" horiz-adv-x="370" 
d="M455 720h-145l-145 -745h145l-23 -120h-290l191 985h290z" />
    <glyph glyph-name="bracketright.case" horiz-adv-x="370" 
d="M-40 -25h145l145 745h-145l23 120h290l-191 -985h-290z" />
    <glyph glyph-name="parenleft.case" horiz-adv-x="359" 
d="M455 786q-68 -81 -114 -151.5t-79 -175.5t-33 -242q0 -89 18.5 -182t37.5 -135l-132 -45q-30 77 -49.5 171t-19.5 194q0 157 35 276t88 203t132 179z" />
    <glyph glyph-name="parenright.case" horiz-adv-x="360" 
d="M-52 -100q68 81 114 151.5t79 175.5t33 242q0 89 -18.5 182t-37.5 135l132 45q30 -77 49.5 -171t19.5 -194q0 -157 -35 -276t-88 -203t-132 -179z" />
    <glyph glyph-name="emdash.case" horiz-adv-x="1154" 
d="M1115 288h-1054l26 134h1054z" />
    <glyph glyph-name="endash.case" horiz-adv-x="732" 
d="M702 282h-652l27 140h652z" />
    <glyph glyph-name="hyphen.case" horiz-adv-x="361" 
d="M73 426h291l-31 -160h-291z" />
    <glyph glyph-name="guillemotleft.case" horiz-adv-x="674" 
d="M218 302l128 -168h-176l-138 186l210 186h211zM482 302l128 -168h-176l-138 186l210 186h211z" />
    <glyph glyph-name="guillemotright.case" horiz-adv-x="674" 
d="M226 338l-128 168h176l138 -186l-210 -186h-211zM490 338l-128 168h176l138 -186l-210 -186h-211z" />
    <glyph glyph-name="guilsinglleft.case" horiz-adv-x="410" 
d="M218 302l128 -168h-176l-138 186l210 186h211z" />
    <glyph glyph-name="guilsinglright.case" horiz-adv-x="410" 
d="M226 338l-128 168h176l138 -186l-210 -186h-211z" />
    <glyph glyph-name="approxequal.case" 
d="M264 526q30 -13 72 -39q37 -23 60.5 -34t48.5 -11q58 0 84 78h73q-21 -84 -63.5 -121t-92.5 -37q-33 0 -63 13t-72 39q-39 23 -62 34t-48 11q-29 0 -50 -19t-35 -59h-73q22 84 64.5 121t93.5 37q33 0 63 -13zM265 323q30 -13 72 -39q37 -23 60.5 -34t48.5 -11
q31 0 50.5 20t32.5 58h73q-21 -84 -64 -121t-93 -37q-33 0 -63 13t-72 39q-39 23 -62 34t-48 11q-58 0 -84 -78h-73q22 84 65 121t94 37q33 0 63 -13z" />
    <glyph glyph-name="divide.case" 
d="M375 456h-107v108h107v-108zM580 302h-518v74h518v-74zM375 113h-107v108h107v-108z" />
    <glyph glyph-name="equal.case" 
d="M574 417h-506l1 74h506zM574 190h-506v74h506v-74z" />
    <glyph glyph-name="greater.case" 
d="M582 382v-84l-480 -214l-1 89l392 166l-391 167v90z" />
    <glyph glyph-name="less.case" 
d="M540 506l-391 -167l392 -166l-1 -89l-480 214v84l480 214v-90z" />
    <glyph glyph-name="logicalnot.case" 
d="M478 207l-1 191h-385v74h457v-5l1 -260h-72z" />
    <glyph glyph-name="minus.case" 
d="M559 298h-477v80h477v-80z" />
    <glyph glyph-name="multiply.case" 
d="M548 509l-171 -171l171 -170l-56 -57l-171 171l-171 -170l-55 55l170 171l-171 171l57 56l170 -171l171 171z" />
    <glyph glyph-name="notequal.case" 
d="M398 417l-96 -153h272v-74h-318l-51 -82h-78l51 82h-110v74h156l96 153h-252l1 74h297l49 78h78l-49 -78h131l-1 -74h-176z" />
    <glyph glyph-name="plus.case" 
d="M360 375h204v-75h-204v-206h-78v206h-206v75h206v206h78v-206z" />
    <glyph glyph-name="divide.case.ss01" 
d="M366.5 548.5q17.5 -17.5 17.5 -45.5q0 -26 -17.5 -43.5t-45.5 -17.5q-27 0 -44.5 18t-17.5 45q0 26 17.5 43.5t44.5 17.5q28 0 45.5 -17.5zM580 302h-518v74h518v-74zM366.5 218.5q17.5 -17.5 17.5 -44.5q0 -26 -17.5 -44t-45.5 -18q-27 0 -44.5 18t-17.5 45
q0 26 17.5 43.5t44.5 17.5q28 0 45.5 -17.5z" />
    <glyph glyph-name="arrowup.case" horiz-adv-x="770" 
d="M612 268l-116 150l-84 -430h-148l84 431l-176 -151l-93 112l397 320l273 -320z" />
    <glyph glyph-name="uni2197.case" horiz-adv-x="667" 
d="M679 603l-80 -463l-160 2l44 210l-363 -304l-85 104l363 304l-209 -3l29 161z" />
    <glyph glyph-name="arrowright.case" horiz-adv-x="812" 
d="M789 371l-385 -335l-89 115l170 146h-422l29 148h434l-126 146l130 109z" />
    <glyph glyph-name="uni2198.case" horiz-adv-x="665" 
d="M687 599l-101 -463l-465 -10l33 160l210 -3l-245 304l124 105l246 -305l37 210z" />
    <glyph glyph-name="arrowdown.case" horiz-adv-x="770" 
d="M745 361l-397 -320l-273 320l137 112l116 -154l84 434h148l-83 -428l175 148z" />
    <glyph glyph-name="uni2199.case" horiz-adv-x="667" 
d="M322 284l210 3l-29 -150h-461l80 463l160 -2l-45 -211l364 305l85 -104z" />
    <glyph glyph-name="arrowleft.case" horiz-adv-x="812" 
d="M775 296h-439l130 -146l-130 -111l-259 331l385 335l90 -115l-177 -146h428z" />
    <glyph glyph-name="uni2196.case" horiz-adv-x="666" 
d="M477 48l-243 301l-40 -206l-161 -2l101 463l464 6l-32 -156l-210 3l245 -304z" />
    <glyph glyph-name="arrowboth.case" horiz-adv-x="1252" 
d="M1229 370l-385 -335l-89 115l170 146h-589l130 -146l-130 -111l-259 331l385 335l90 -115l-177 -146h591l-126 146l130 109z" />
    <glyph glyph-name="bar.case" horiz-adv-x="341" 
d="M223 807h120l-184 -942h-120z" />
    <glyph glyph-name="brokenbar.case" horiz-adv-x="341" 
d="M267 419h-120l76 388h120zM159 -135h-120l78 396h120z" />
    <glyph glyph-name="at.case" horiz-adv-x="975" 
d="M261.5 -38q-91.5 47 -146 137.5t-54.5 216.5q0 131 60 232t170.5 156.5t256.5 55.5q130 0 224 -44t144 -124t50 -186q0 -75 -25.5 -140.5t-78.5 -106t-130 -40.5q-55 0 -88 21.5t-48 65.5h-2q-53 -85 -147 -85q-74 0 -120.5 52.5t-46.5 145.5q0 69 26.5 123.5t74.5 84.5
t110 30q98 0 135 -78h3l12 63h132l-51 -263q-2 -12 -2 -21q0 -34 31 -34q25 0 47.5 22t37 62t14.5 93q0 124 -80.5 188t-217.5 64q-109 0 -194 -39.5t-133 -114t-48 -177.5q0 -93 39 -160.5t107 -103.5t153 -36q64 0 149 18l21 -103q-44 -10 -93 -16t-89 -6
q-111 0 -202.5 47zM571 289.5q22 25.5 22 60.5q0 33 -20 48.5t-48 15.5q-38 0 -60 -25.5t-22 -60.5q0 -33 20 -48.5t48 -15.5q38 0 60 25.5z" />
    <glyph glyph-name="uniF8FF.ss01" horiz-adv-x="786" 
d="M228 32q-83 47 -130 130.5t-47 187.5t47 187.5t130 130.5t188 47t188 -47t130 -130.5t47 -187.5t-47 -187.5t-130 -130.5t-188 -47t-188 47zM589.5 54q78.5 44 123.5 122.5t45 178.5l-51 65l-70 -30l-68 90l-79 -44l-74 118l-74 -118l-79 44l-68 -90l-70 30l-51 -65
q0 -100 45 -178.5t123.5 -122.5t173.5 -44t173.5 44zM288 328q-10 10 -10 25t10 25t25 10t25 -10t10 -25t-10 -25t-25 -10t-25 10zM493 328q-10 10 -10 25t10 25t25 10t25 -10t10 -25t-10 -25t-25 -10t-25 10zM410 356q1 4 4 5.5t7 -0.5q3 -1 4.5 -4t0.5 -7l-28 -78h34
q4 0 6.5 -2.5t2.5 -6.5q0 -3 -2.5 -5.5t-6.5 -2.5h-58zM169.5 190.5q-19.5 19.5 -19.5 49.5t19.5 49.5t49.5 19.5t49.5 -19.5t19.5 -49.5t-19.5 -49.5t-49.5 -19.5t-49.5 19.5zM562.5 190.5q-19.5 19.5 -19.5 49.5t19.5 49.5t49.5 19.5t49.5 -19.5t19.5 -49.5t-19.5 -49.5
t-49.5 -19.5t-49.5 19.5zM478 225q3 6 9 6q8 0 8 -9q0 -8 -8.5 -18.5t-26.5 -18.5t-44 -8t-44 8t-26.5 18.5t-8.5 18.5q0 9 8 9q6 0 9 -6q17 -30 62 -30t62 30z" />
    <glyph glyph-name="uni0308.case" horiz-adv-x="0" 
d="M-171 743h-151l23 120h151zM50 743h-151l23 120h151z" />
    <glyph glyph-name="uni0307.case" horiz-adv-x="0" 
d="M49 743h-166l28 143h166z" />
    <glyph glyph-name="gravecomb.case" horiz-adv-x="0" 
d="M50 743h-131l-164 120h190z" />
    <glyph glyph-name="acutecomb.case" horiz-adv-x="0" 
d="M-137 743h-131l151 120h190z" />
    <glyph glyph-name="uni030B.case" horiz-adv-x="0" 
d="M-240 743h-125l130 120h133zM-65 743h-125l130 120h133z" />
    <glyph glyph-name="uni0302.case" horiz-adv-x="0" 
d="M50 743h-150l-46 63l-69 -63h-150l143 120h175z" />
    <glyph glyph-name="uni030C.case" horiz-adv-x="0" 
d="M-245 743l-97 120h150l45 -62l70 62h150l-143 -120h-175z" />
    <glyph glyph-name="uni0306.case" horiz-adv-x="0" 
d="M-2 764q-55 -36 -133 -36q-79 0 -120.5 36t-36.5 99h122q-2 -18 12 -28.5t41 -10.5t45.5 10.5t23.5 28.5h121q-20 -63 -75 -99z" />
    <glyph glyph-name="uni030A.case" horiz-adv-x="0" 
d="M20.5 835.5q29.5 -28.5 29.5 -77.5q0 -55 -38.5 -91.5t-95.5 -36.5q-50 0 -79.5 28.5t-29.5 77.5q0 55 38.5 91.5t95.5 36.5q50 0 79.5 -28.5zM-104 778q-15 -16 -15 -39q0 -18 11.5 -28.5t31.5 -10.5q22 0 37 16t15 39q0 18 -11.5 28.5t-31.5 10.5q-22 0 -37 -16z" />
    <glyph glyph-name="tildecomb.case" horiz-adv-x="0" 
d="M73 863q-29 -62 -62 -94.5t-80 -32.5q-24 0 -49 7t-65 21q-4 1 -29 9.5t-39 8.5q-17 0 -32 -11t-32 -30l-50 19q29 62 62 94.5t80 32.5q24 0 49 -7t65 -21q4 -1 29 -9.5t39 -8.5q17 0 32 11t32 30z" />
    <glyph glyph-name="uni0304.case" horiz-adv-x="0" 
d="M49 742h-345l21 109h345z" />
    <glyph glyph-name="uni0308.ss01" horiz-adv-x="0" 
d="M-228.5 675q25.5 -25 25.5 -63t-25 -63.5t-64 -25.5q-38 0 -64 25.5t-26 63.5t25.5 63t64.5 25q38 0 63.5 -25zM-3.5 675q25.5 -25 25.5 -63t-25 -63.5t-64 -25.5q-38 0 -64 25.5t-26 63.5t25.5 63t64.5 25q38 0 63.5 -25z" />
    <glyph glyph-name="uni0307.ss01" horiz-adv-x="0" 
d="M-8 685q30 -30 30 -73t-30 -73t-73 -30q-44 0 -74 30t-30 73t30.5 73t73.5 30t73 -30z" />
    <glyph glyph-name="uni0312.ss01" horiz-adv-x="0" 
d="M-86 672l59 42h60l-47 -50q17 -10 26 -25.5t9 -34.5q0 -29 -20 -49.5t-51 -20.5t-52.5 20.5t-21.5 50.5q0 39 38 67z" />
    <glyph glyph-name="uni0326.ss01" horiz-adv-x="0" 
d="M-154 -168l-59 -42h-60l47 50q-17 10 -26 25.5t-9 34.5q0 29 20 49.5t51 20.5t52.5 -20.5t21.5 -50.5q0 -39 -38 -67z" />
    </font>
</defs>
</svg>
