<?xml version="1.0" standalone="no"?>
<!DOCTYPE svg PUBLIC "-//W3C//DTD SVG 1.1//EN" "http://www.w3.org/Graphics/SVG/1.1/DTD/svg11.dtd" >
<svg xmlns="http://www.w3.org/2000/svg" xmlns:xlink="http://www.w3.org/1999/xlink" version="1.1">
<metadata>
Created by FontForge 20170731 at Fri Dec  2 17:23:41 2016
 By Aleksey,,,
Copyright (c) 2016 by Red Hat, Inc. All rights reserved.
</metadata>
<defs>
<font id="Overpass-SemiBold" horiz-adv-x="565" >
  <font-face 
    font-family="Overpass SemiBold"
    font-weight="600"
    font-stretch="normal"
    units-per-em="1000"
    panose-1="0 0 7 0 0 0 0 0 0 0"
    ascent="750"
    descent="-250"
    x-height="511"
    cap-height="700"
    bbox="-267 -378 1196 1062"
    underline-thickness="90"
    underline-position="-267"
    unicode-range="U+0020-1F427"
  />
<missing-glyph horiz-adv-x="240" 
 />
    <glyph glyph-name="fi" unicode="fi" horiz-adv-x="591" 
d="M463 591q-26 0 -44.5 18.5t-18.5 44.5t18.5 44.5t44.5 18.5t44.5 -18.5t18.5 -44.5t-18.5 -44.5t-44.5 -18.5zM215 421v-421h-104v421h-76v90h76v82q0 65 33 92t84 27q54 0 102 -24v-86q-43 18 -73 18q-42 0 -42 -46v-63h115v-90h-115zM411 0v511h104v-511h-104z" />
    <glyph glyph-name="fl" unicode="fl" horiz-adv-x="599" 
d="M415 0v673l104 49v-722h-104zM215 421v-421h-104v421h-76v90h76v82q0 65 33 92t84 27q54 0 102 -24v-86q-43 18 -73 18q-42 0 -42 -46v-63h115v-90h-115z" />
    <glyph glyph-name=".notdef" horiz-adv-x="240" 
 />
    <glyph glyph-name=".null" horiz-adv-x="0" 
 />
    <glyph glyph-name="nonmarkingreturn" horiz-adv-x="333" 
 />
    <glyph glyph-name="space" unicode=" " horiz-adv-x="240" 
 />
    <glyph glyph-name="exclam" unicode="!" horiz-adv-x="276" 
d="M115 193l-29 297v222h104v-222l-29 -297h-46zM138 -12q-32 0 -53.5 21.5t-21.5 51.5t21.5 52t53.5 22q31 0 53.5 -22t22.5 -52t-22.5 -51.5t-53.5 -21.5z" />
    <glyph glyph-name="quotedbl" unicode="&#x22;" horiz-adv-x="420" 
d="M45 700h130l-21 -280h-88zM245 700h130l-21 -280h-88z" />
    <glyph glyph-name="numbersign" unicode="#" horiz-adv-x="680" 
d="M127 0l29 189h-114l13 86h114l25 165h-114l13 86h114l27 174h89l-27 -174h139l27 174h89l-27 -174h114l-13 -86h-114l-25 -165h114l-13 -86h-114l-29 -189h-89l29 189h-139l-29 -189h-89zM258 275h139l25 165h-139z" />
    <glyph glyph-name="dollar" unicode="$" horiz-adv-x="584" 
d="M239 -98v91q-69 13 -118.5 56.5t-70.5 108.5l98 36q21 -49 60 -77.5t90 -28.5q54 0 86 28t32 80q0 27 -11 47.5t-36 36.5t-44.5 25t-57.5 23q-37 14 -56.5 22.5t-50 26.5t-46 36.5t-28 48.5t-12.5 67q0 67 44 116.5t121 62.5v81h104v-82q58 -12 96.5 -47.5t53.5 -86.5
l-96 -32q-13 32 -43 51.5t-74 19.5q-46 0 -72 -22t-26 -62q0 -27 21 -48t42 -30.5t69 -27.5q32 -12 49.5 -19.5t46.5 -22t45.5 -30t34.5 -37.5t26 -51.5t8 -64.5q0 -85 -50.5 -138.5t-130.5 -66.5v-90h-104z" />
    <glyph glyph-name="percent" unicode="%" horiz-adv-x="851" 
d="M209 356q-83 0 -123.5 53t-40.5 125q0 69 40.5 123.5t123.5 54.5t123.5 -53t40.5 -125q0 -43 -14.5 -81t-53 -67.5t-96.5 -29.5zM234 -12h-95l478 724h95zM209 436q39 0 59.5 28t20.5 70q0 44 -20.5 71t-59.5 27t-59.5 -27.5t-20.5 -70.5q0 -44 20.5 -71t59.5 -27z
M642 -12q-83 0 -123.5 53t-40.5 125q0 69 40.5 123.5t123.5 54.5t123.5 -53t40.5 -125q0 -43 -14.5 -81t-53 -67.5t-96.5 -29.5zM642 68q39 0 59.5 28t20.5 70q0 44 -20.5 71t-59.5 27t-59.5 -27.5t-20.5 -70.5q0 -44 20.5 -71t59.5 -27z" />
    <glyph glyph-name="ampersand" unicode="&#x26;" horiz-adv-x="701" 
d="M268 -12q-92 0 -150 54t-58 143q0 76 41.5 124t114.5 90q-39 48 -55.5 81.5t-16.5 73.5q0 72 49 115t123 43q72 0 120.5 -45.5t48.5 -114.5q0 -58 -32 -98.5t-89 -75.5l110 -132q19 51 19 93h101q-2 -95 -49 -179l133 -160h-138l-60 74q-89 -86 -212 -86zM313 620
q-30 0 -49.5 -18t-19.5 -47q0 -16 11 -37t19.5 -32t31.5 -38q79 49 79 100q0 33 -20.5 52.5t-51.5 19.5zM282 86q76 0 135 66l-141 173q-50 -31 -77 -61.5t-27 -73.5q0 -47 30 -75.5t80 -28.5z" />
    <glyph glyph-name="quotesingle" unicode="'" horiz-adv-x="220" 
d="M45 700h130l-21 -280h-88z" />
    <glyph glyph-name="parenleft" unicode="(" horiz-adv-x="345" 
d="M192 -130q-122 160 -122 414q0 140 38 250t95 178h102q-44 -52 -87.5 -168.5t-43.5 -259.5q0 -76 13.5 -148t34.5 -124.5t38 -85.5t34 -56h-102z" />
    <glyph glyph-name="parenright" unicode=")" horiz-adv-x="345" 
d="M51 -130q17 23 34 56t38 85.5t34.5 124.5t13.5 148q0 143 -43.5 259.5t-87.5 168.5h102q57 -68 95 -178t38 -250q0 -254 -122 -414h-102z" />
    <glyph glyph-name="asterisk" unicode="*" horiz-adv-x="530" 
d="M288 386l-23 69l-23 -69l-69 -93l-75 55l68 93l56 42h-69l-103 34l29 89l103 -33l55 -39l-19 65v113h94v-113l-20 -66l56 40l103 33l29 -89l-103 -34h-70l57 -42l68 -93l-75 -55z" />
    <glyph glyph-name="plus" unicode="+" horiz-adv-x="630" 
d="M367 293v-185h-104v185h-183v100h183v185h104v-185h183v-100h-183z" />
    <glyph glyph-name="comma" unicode="," horiz-adv-x="223" 
d="M41 -116q18 16 37.5 45.5t23.5 58.5q-27 2 -47 21.5t-20 48.5q0 33 22 54.5t52 21.5q34 0 56.5 -23.5t22.5 -67.5q0 -55 -30.5 -105t-77.5 -79z" />
    <glyph glyph-name="hyphen" unicode="-" horiz-adv-x="395" 
d="M75 247v100h245v-100h-245z" />
    <glyph glyph-name="period" unicode="." horiz-adv-x="223" 
d="M111 -12q-32 0 -53.5 21.5t-21.5 51.5t21.5 52t53.5 22q31 0 53.5 -22t22.5 -52t-22.5 -51.5t-53.5 -21.5z" />
    <glyph glyph-name="slash" unicode="/" horiz-adv-x="493" 
d="M-15 -130l393 842h105l-393 -842h-105z" />
    <glyph glyph-name="zero" unicode="0" horiz-adv-x="648" 
d="M324 -12q-69 0 -120 31.5t-78 85.5t-39.5 114.5t-12.5 130.5q0 66 12 125.5t38.5 115t77.5 88.5t122 33q69 0 120 -31.5t78 -85.5t39.5 -114.5t12.5 -130.5q0 -66 -12 -125.5t-38.5 -115t-77.5 -88.5t-122 -33zM324 88q41 0 70.5 23t44 63t21 83t6.5 93q0 53 -6.5 96.5
t-22 82.5t-44.5 61t-69 22q-41 0 -70.5 -23t-44 -63t-21 -83t-6.5 -93q0 -53 6.5 -96.5t22 -82.5t44.5 -61t69 -22z" />
    <glyph glyph-name="one" unicode="1" horiz-adv-x="402" 
d="M149 0v543h-115v77q113 0 139 80h80v-700h-104z" />
    <glyph glyph-name="two" unicode="2" horiz-adv-x="614" 
d="M64 0q0 241 252 371q55 28 86 59.5t31 77.5q0 44 -34.5 74t-87.5 30q-105 0 -141 -93l-95 43q26 68 89.5 109t147.5 41q105 0 167 -57.5t62 -149.5q0 -57 -25.5 -100t-59.5 -68t-96 -58q-146 -78 -169 -177h356v-102h-483z" />
    <glyph glyph-name="three" unicode="3" horiz-adv-x="603" 
d="M294 -12q-90 0 -153 43t-93 118l97 39q44 -100 149 -100q60 0 98.5 28.5t38.5 85.5q0 49 -33.5 80.5t-100.5 31.5h-54v100h54q49 0 78.5 26.5t29.5 68.5q0 49 -29 76t-82 27q-84 0 -124 -79l-97 37q25 66 83 104t141 38q94 0 155 -56.5t61 -136.5q0 -106 -90 -152
q116 -46 116 -161q0 -103 -68 -160.5t-177 -57.5z" />
    <glyph glyph-name="four" unicode="4" horiz-adv-x="645" 
d="M391 0v159h-377v67l358 474h123v-445h91v-96h-91v-159h-104zM391 255v319l-239 -319h239z" />
    <glyph glyph-name="five" unicode="5" horiz-adv-x="604" 
d="M273 -12q-141 0 -214 64l62 83q22 -14 37.5 -22.5t46.5 -16.5t68 -8q72 0 116 40t44 104q0 62 -35 95t-94 33q-69 0 -112 -48l-113 42l24 346h393v-100h-296l-15 -178q52 38 134 38q106 0 164 -66.5t58 -158.5q0 -111 -75 -179t-193 -68z" />
    <glyph glyph-name="six" unicode="6" horiz-adv-x="598" 
d="M307 -12q-118 0 -180.5 75.5t-62.5 195.5q0 181 95.5 300.5t287.5 152.5v-100q-94 -15 -163.5 -70t-95.5 -152q52 50 144 50q96 0 156.5 -63t60.5 -164q0 -100 -67 -162.5t-175 -62.5zM307 88q60 0 97 33.5t37 91.5q0 60 -37 93.5t-97 33.5t-97.5 -34t-37.5 -93
q0 -58 37.5 -91.5t97.5 -33.5z" />
    <glyph glyph-name="seven" unicode="7" horiz-adv-x="535" 
d="M180 0q1 173 50 312.5t151 285.5h-357v102h472v-113q-107 -124 -157 -286t-51 -301h-108z" />
    <glyph glyph-name="eight" unicode="8" horiz-adv-x="613" 
d="M306 -12q-108 0 -175 61t-67 156q0 120 117 178q-87 49 -87 146q0 79 58.5 131t153.5 52t154 -52t59 -131q0 -96 -88 -146q118 -57 118 -178q0 -95 -67.5 -156t-175.5 -61zM306 432q47 0 77 26.5t30 64.5q0 40 -29.5 64.5t-77.5 24.5q-47 0 -76.5 -24.5t-29.5 -64.5
q0 -38 30 -64.5t76 -26.5zM306 88q59 0 97 33.5t38 86.5q0 52 -38.5 88t-96.5 36t-96 -36t-38 -88q0 -53 37.5 -86.5t96.5 -33.5z" />
    <glyph glyph-name="nine" unicode="9" horiz-adv-x="598" 
d="M171 -12v106q205 11 242 217q-18 -21 -54.5 -36t-84.5 -15q-99 0 -162 62.5t-63 164.5q0 100 67.5 162.5t175.5 62.5q121 0 181.5 -74.5t60.5 -196.5q0 -203 -91 -323.5t-272 -129.5zM291 366q61 0 97 32.5t36 89.5q0 53 -37 85.5t-95 32.5q-59 0 -96 -32.5t-37 -86.5
q0 -57 35.5 -89t96.5 -32z" />
    <glyph glyph-name="colon" unicode=":" horiz-adv-x="223" 
d="M111 337q-32 0 -53.5 21.5t-21.5 51.5t21.5 52t53.5 22q31 0 53.5 -22t22.5 -52t-22.5 -51.5t-53.5 -21.5zM111 -12q-32 0 -53.5 21.5t-21.5 51.5t21.5 52t53.5 22q31 0 53.5 -22t22.5 -52t-22.5 -51.5t-53.5 -21.5z" />
    <glyph glyph-name="semicolon" unicode=";" horiz-adv-x="223" 
d="M110 337q-32 0 -53.5 21.5t-21.5 51.5t21.5 52t53.5 22q31 0 53.5 -22t22.5 -52t-22.5 -51.5t-53.5 -21.5zM41 -116q18 16 37.5 45.5t23.5 58.5q-27 2 -47 21.5t-20 48.5q0 33 22 54.5t52 21.5q34 0 56.5 -23.5t22.5 -67.5q0 -55 -30.5 -105t-77.5 -79z" />
    <glyph glyph-name="less" unicode="&#x3c;" horiz-adv-x="630" 
d="M550 108l-470 191v88l470 191v-105l-328 -130l328 -130v-105z" />
    <glyph glyph-name="equal" unicode="=" horiz-adv-x="630" 
d="M80 390v100h470v-100h-470zM80 196v100h470v-100h-470z" />
    <glyph glyph-name="greater" unicode="&#x3e;" horiz-adv-x="630" 
d="M550 299l-470 -191v105l328 130l-328 130v105l470 -191v-88z" />
    <glyph glyph-name="question" unicode="?" horiz-adv-x="501" 
d="M189 190v20q0 53 18 92t43.5 62t50.5 43t43 46.5t18 60.5q0 45 -29 72.5t-81 27.5q-61 0 -94.5 -35.5t-33.5 -100.5h-104q0 108 64 171t168 63q101 0 157.5 -55.5t56.5 -142.5q0 -45 -18 -80t-43 -57t-50.5 -44t-43.5 -53t-18 -71v-19h-104zM240 -12q-32 0 -53.5 21.5
t-21.5 51.5t21.5 52t53.5 22q31 0 53.5 -22t22.5 -52t-22.5 -51.5t-53.5 -21.5z" />
    <glyph glyph-name="at" unicode="@" horiz-adv-x="819" 
d="M416 -12q-158 0 -257 92.5t-99 256.5q0 163 106 269t260 106q149 0 241 -87t92 -214q0 -106 -56 -177.5t-133 -71.5q-27 0 -48 16t-25 43q-40 -63 -117 -63q-64 0 -104 47t-40 124q0 79 51.5 143t129.5 64q69 0 99 -58l8 45h89l-32 -169q-14 -75 -14 -92q0 -25 17 -25
q34 0 62.5 52t28.5 121q0 95 -66 157.5t-179 62.5q-122 0 -200 -84.5t-78 -209.5q0 -126 71 -196t197 -70q65 0 123 14l-21 -89q-45 -7 -106 -7zM395 244q43 0 70.5 38.5t27.5 84.5q0 38 -18 60.5t-50 22.5q-43 0 -71 -36t-28 -86q0 -38 18.5 -61t50.5 -23z" />
    <glyph glyph-name="A" unicode="A" horiz-adv-x="696" 
d="M546 0l-56 161h-283l-57 -161h-108l253 700h107l252 -700h-108zM458 253l-85 238q-18 49 -24 79q-9 -36 -24 -79l-86 -238h219z" />
    <glyph glyph-name="B" unicode="B" horiz-adv-x="666" 
d="M90 700h265q116 0 168.5 -53t52.5 -134q0 -45 -24.5 -83.5t-71.5 -61.5q62 -22 91.5 -66t29.5 -97q0 -38 -12.5 -72.5t-38.5 -65t-72.5 -49t-107.5 -18.5h-280v700zM338 411q64 0 98 26.5t34 70.5q0 96 -112 96h-164v-193h144zM378 96q63 0 90 30t27 74q0 115 -147 115
h-154v-219h184z" />
    <glyph glyph-name="C" unicode="C" horiz-adv-x="650" 
d="M356 -12q-63 0 -113.5 21t-83 56t-54.5 83t-31 98t-9 104q0 64 16 125t48.5 115.5t91 88t135.5 33.5q92 0 153 -40.5t85 -98.5l-95 -44q-27 43 -59.5 63t-83.5 20q-50 0 -87 -24t-57 -64t-29.5 -83.5t-9.5 -90.5q0 -104 47 -183t136 -79q88 0 142 90l97 -37
q-66 -153 -239 -153z" />
    <glyph glyph-name="D" unicode="D" horiz-adv-x="685" 
d="M90 700h196q88 0 154.5 -30t104.5 -81t56.5 -111t18.5 -128q0 -65 -17.5 -123.5t-54.5 -111t-105.5 -84t-160.5 -31.5h-192v700zM299 98q57 0 100 22.5t67 60t35 80t11 89.5q0 105 -51 178.5t-151 73.5h-116v-504h105z" />
    <glyph glyph-name="E" unicode="E" horiz-adv-x="601" 
d="M90 0v700h434v-98h-330v-192h213v-98h-213v-214h352v-98h-456z" />
    <glyph glyph-name="F" unicode="F" horiz-adv-x="559" 
d="M90 0v700h434v-98h-330v-192h213v-98h-213v-312h-104z" />
    <glyph glyph-name="G" unicode="G" horiz-adv-x="690" 
d="M370 -12q-78 0 -138.5 30.5t-95.5 82.5t-53 115t-18 134q0 66 19 129t55 116t96 85t135 32q92 0 146.5 -35.5t92.5 -97.5l-94 -54q-59 85 -145 85q-44 0 -78.5 -16t-56.5 -42t-36.5 -60.5t-20 -69.5t-5.5 -72q0 -110 49.5 -185t147.5 -75q65 0 106.5 42.5t41.5 105.5v14
h-126v98h233v-91q0 -128 -71.5 -199.5t-183.5 -71.5z" />
    <glyph glyph-name="H" unicode="H" horiz-adv-x="707" 
d="M513 0v312h-319v-312h-104v700h104v-290h319v290h104v-700h-104z" />
    <glyph glyph-name="I" unicode="I" horiz-adv-x="294" 
d="M95 0v700h104v-700h-104z" />
    <glyph glyph-name="J" unicode="J" 
d="M247 -12q-76 0 -134 34t-88 98l90 44q37 -76 132 -76q58 0 93.5 34.5t35.5 126.5v451h104v-465q0 -70 -21 -120.5t-56.5 -77t-74 -38t-81.5 -11.5z" />
    <glyph glyph-name="K" unicode="K" horiz-adv-x="677" 
d="M515 0l-197 366l-124 -150v-216h-104v700h104v-339l270 339h120l-196 -246l249 -454h-122z" />
    <glyph glyph-name="L" unicode="L" horiz-adv-x="561" 
d="M90 0v700h104v-600h342v-100h-446z" />
    <glyph glyph-name="M" unicode="M" horiz-adv-x="804" 
d="M714 0h-104v383q0 76 5 113q-23 -68 -43 -116l-169 -392l-170 395q-27 61 -44 113q5 -37 5 -113v-383h-104v700h105l188 -437q10 -24 19 -55q7 22 20 55l187 437h105v-700z" />
    <glyph glyph-name="N" unicode="N" horiz-adv-x="710" 
d="M620 0h-98l-303 475q-14 22 -28 52q3 -48 3 -52v-475h-104v700h105l295 -467q11 -18 29 -54q-3 30 -3 53v468h104v-700z" />
    <glyph glyph-name="O" unicode="O" horiz-adv-x="740" 
d="M370 -12q-65 0 -118 21t-87 56t-57 83t-33 98t-10 104t10 104t33 98t57 83t87 56t118 21t118 -21t87 -56t57 -83t33 -98t10 -104t-10 -104t-33 -98t-57 -83t-87 -56t-118 -21zM370 88q52 0 92 24.5t62 64.5t32.5 83.5t10.5 89.5q0 48 -10.5 92.5t-32.5 83.5t-62 62.5
t-92 23.5t-92 -24.5t-62 -64.5t-32.5 -83.5t-10.5 -89.5q0 -48 10.5 -92.5t32.5 -83.5t62 -62.5t92 -23.5z" />
    <glyph glyph-name="P" unicode="P" horiz-adv-x="632" 
d="M90 0v700h281q119 0 175 -62t56 -152q0 -84 -58 -149t-173 -65h-177v-272h-104zM377 372q60 0 88.5 33.5t28.5 80.5q0 45 -27.5 79.5t-89.5 34.5h-183v-228h183z" />
    <glyph glyph-name="Q" unicode="Q" horiz-adv-x="740" 
d="M370 -12q-65 0 -118 21t-87 56t-57 83t-33 98t-10 104t10 104t33 98t57 83t87 56t118 21t118 -21t87 -56t57 -83t33 -98t10 -104q0 -87 -26.5 -164.5t-82.5 -128.5l47 -70l-80 -54l-50 74q-52 -19 -113 -19zM370 88q31 0 53 7l-53 80l82 54l52 -79q63 74 63 200
q0 48 -10.5 92.5t-32.5 83.5t-62 62.5t-92 23.5t-92 -24.5t-62 -64.5t-32.5 -83.5t-10.5 -89.5q0 -48 10.5 -92.5t32.5 -83.5t62 -62.5t92 -23.5z" />
    <glyph glyph-name="R" unicode="R" horiz-adv-x="676" 
d="M90 0v700h295q119 0 172.5 -59t53.5 -148q0 -67 -38.5 -122.5t-113.5 -75.5l144 -295h-119l-138 286h-152v-286h-104zM194 386h193q60 0 88 30.5t28 76.5q0 44 -26.5 75.5t-89.5 31.5h-193v-214z" />
    <glyph glyph-name="S" unicode="S" horiz-adv-x="604" 
d="M305 -12q-93 0 -161 45.5t-94 124.5l98 36q22 -49 64 -77.5t97 -28.5q58 0 92.5 28t34.5 80q0 22 -9.5 40.5t-21.5 30.5t-37 24.5t-41.5 19t-48.5 17.5q-40 14 -60 22t-52.5 26.5t-49 37t-29.5 48.5t-13 67q0 77 60 130t163 53q86 0 141.5 -38t74.5 -101l-96 -32
q-14 32 -46.5 51.5t-81.5 19.5q-50 0 -78.5 -22t-28.5 -62q0 -27 22 -48t46 -31t73 -27q30 -11 44.5 -16.5t42.5 -18.5t43 -23.5t35 -28.5t30.5 -36.5t18 -45t7.5 -56.5q0 -98 -67 -153.5t-172 -55.5z" />
    <glyph glyph-name="T" unicode="T" horiz-adv-x="590" 
d="M347 600v-600h-104v600h-198v100h500v-100h-198z" />
    <glyph glyph-name="U" unicode="U" horiz-adv-x="697" 
d="M348 -12q-119 0 -191 65.5t-72 211.5v435h104v-435q0 -98 42 -137.5t117 -39.5t117.5 39.5t42.5 137.5v435h104v-435q0 -146 -71 -211.5t-193 -65.5z" />
    <glyph glyph-name="V" unicode="V" horiz-adv-x="663" 
d="M280 0l-240 700h112l159 -488q15 -46 22 -80q7 34 22 80l157 488h111l-239 -700h-104z" />
    <glyph glyph-name="W" unicode="W" horiz-adv-x="852" 
d="M195 0l-150 700h107l87 -431q13 -67 15 -81q1 13 18 81l110 431h87l113 -430q15 -56 18 -80q3 26 14 80l88 430h105l-151 -700h-94l-121 454q-15 54 -17 76q-2 -22 -17 -76l-118 -454h-94z" />
    <glyph glyph-name="X" unicode="X" horiz-adv-x="650" 
d="M480 0l-155 261l-155 -261h-120l215 362l-200 338h120l140 -237l140 237h120l-200 -338l215 -362h-120z" />
    <glyph glyph-name="Y" unicode="Y" horiz-adv-x="666" 
d="M281 0v274l-246 426h119l179 -320l179 320h119l-246 -425v-275h-104z" />
    <glyph glyph-name="Z" unicode="Z" horiz-adv-x="662" 
d="M55 0v84l404 516h-381v100h519v-84l-405 -516h405v-100h-542z" />
    <glyph glyph-name="bracketleft" unicode="[" horiz-adv-x="372" 
d="M100 -130v842h232v-98h-128v-646h128v-98h-232z" />
    <glyph glyph-name="backslash" unicode="\" horiz-adv-x="493" 
d="M378 -130l-393 842h105l393 -842h-105z" />
    <glyph glyph-name="bracketright" unicode="]" horiz-adv-x="372" 
d="M272 -130h-232v98h128v646h-128v98h232v-842z" />
    <glyph glyph-name="asciicircum" unicode="^" horiz-adv-x="630" 
d="M453 350l-138 230l-138 -230h-107l201 362h88l201 -362h-107z" />
    <glyph glyph-name="underscore" unicode="_" horiz-adv-x="500" 
d="M-5 -177v90h510v-90h-510z" />
    <glyph glyph-name="grave" unicode="`" horiz-adv-x="400" 
d="M220 576l-178 156h142l142 -156h-106z" />
    <glyph glyph-name="a" unicode="a" horiz-adv-x="532" 
d="M367 0v44q-54 -56 -140 -56q-81 0 -131.5 44.5t-50.5 126.5q0 83 57 126t139 43q75 0 126 -30v28q0 57 -26 81t-83 24q-84 0 -146 -46l-31 85q77 53 191 53q38 0 68 -6.5t61 -25t48.5 -59.5t17.5 -101v-331h-100zM246 80q72 0 121 55v78q-47 25 -109 25
q-50 0 -81.5 -19.5t-31.5 -59.5q0 -37 26 -58t75 -21z" />
    <glyph glyph-name="b" unicode="b" horiz-adv-x="562" 
d="M300 -12q-73 0 -121 53v-41h-104v674l104 48v-250q46 51 121 51q95 0 153.5 -71.5t58.5 -195.5q0 -128 -56.5 -198t-155.5 -70zM287 86q58 0 89.5 45.5t31.5 124.5q0 82 -31 125.5t-90 43.5q-36 0 -65 -17.5t-43 -40.5v-223q36 -58 108 -58z" />
    <glyph glyph-name="c" unicode="c" horiz-adv-x="518" 
d="M273 -12q-103 0 -163 71t-60 196t60 196.5t163 71.5q149 0 193 -132l-99 -34q-25 66 -90 66q-58 0 -89.5 -44.5t-31.5 -123.5q0 -78 31 -122.5t86 -44.5q74 0 96 75l99 -31q-41 -144 -195 -144z" />
    <glyph glyph-name="d" unicode="d" horiz-adv-x="562" 
d="M262 -12q-97 0 -154.5 71.5t-57.5 196.5q0 124 58.5 195.5t153.5 71.5q75 0 121 -48v199l104 48v-722h-104v36q-43 -48 -121 -48zM277 86q70 0 106 58v225q-14 23 -41.5 39.5t-64.5 16.5q-59 0 -91 -44t-32 -125q0 -76 33 -123t90 -47z" />
    <glyph glyph-name="e" unicode="e" horiz-adv-x="547" 
d="M282 -12q-107 0 -169.5 71.5t-62.5 196.5t63 196t169 71q96 0 158 -61t62 -178q0 -43 -4 -67h-344q1 -61 39.5 -99t89.5 -38q66 0 106 52l68 -70q-62 -74 -175 -74zM154 301h244q-1 66 -35 98t-81 32q-53 0 -88.5 -31.5t-39.5 -98.5z" />
    <glyph glyph-name="f" unicode="f" horiz-adv-x="335" 
d="M215 421v-421h-104v421h-76v90h76v82q0 65 33 92t84 27q54 0 102 -24v-86q-43 18 -73 18q-42 0 -42 -46v-63h115v-90h-115z" />
    <glyph glyph-name="g" unicode="g" horiz-adv-x="562" 
d="M246 -200l-52 80q106 6 147.5 35.5t41.5 80.5v45q-43 -53 -123 -53q-92 0 -151 69.5t-59 198.5q0 124 58.5 195.5t153.5 71.5q75 0 121 -48v36h104v-478q0 -118 -59 -171t-182 -62zM279 86q68 0 104 60v221q-16 26 -44.5 42t-59.5 16q-61 0 -93 -43.5t-32 -125.5
q0 -78 33.5 -124t91.5 -46z" />
    <glyph glyph-name="h" unicode="h" 
d="M75 0v674l104 48v-260q48 61 132 61q184 0 184 -218v-305h-104v305q0 61 -28 90.5t-74 29.5q-110 0 -110 -118v-307h-104z" />
    <glyph glyph-name="i" unicode="i" horiz-adv-x="256" 
d="M128 591q-26 0 -44.5 18.5t-18.5 44.5t18.5 44.5t44.5 18.5t44.5 -18.5t18.5 -44.5t-18.5 -44.5t-44.5 -18.5zM76 0v511h104v-511h-104z" />
    <glyph glyph-name="j" unicode="j" horiz-adv-x="256" 
d="M128 591q-26 0 -44.5 18.5t-18.5 44.5t18.5 44.5t44.5 18.5t44.5 -18.5t18.5 -44.5t-18.5 -44.5t-44.5 -18.5zM-13 -214l-50 77q79 17 109 44t30 82v522h104v-487q0 -112 -48 -162q-53 -56 -145 -76z" />
    <glyph glyph-name="k" unicode="k" horiz-adv-x="550" 
d="M510 0h-114l-151 294l-66 -66v-228h-104v673l104 49v-369l151 158h128l-140 -142z" />
    <glyph glyph-name="l" unicode="l" horiz-adv-x="264" 
d="M80 0v673l104 49v-722h-104z" />
    <glyph glyph-name="m" unicode="m" horiz-adv-x="849" 
d="M675 0v306q0 119 -94 119q-44 0 -73 -32.5t-29 -91.5v-301h-104v306q0 119 -94 119q-44 0 -73 -32.5t-29 -91.5v-301h-104v511h104v-47q41 59 129 59q95 0 136 -73q47 73 151 73q83 0 133.5 -48t50.5 -145v-330h-104z" />
    <glyph glyph-name="n" unicode="n" 
d="M391 0v305q0 61 -28 90.5t-74 29.5q-110 0 -110 -118v-307h-104v511h104v-49q48 61 132 61q184 0 184 -218v-305h-104z" />
    <glyph glyph-name="o" unicode="o" horiz-adv-x="567" 
d="M283 -12q-108 0 -170.5 71t-62.5 196t62.5 196.5t170.5 71.5t171 -71.5t63 -196.5t-63 -196t-171 -71zM283 86q60 0 95 45t35 124t-35 124.5t-95 45.5q-59 0 -94 -45.5t-35 -124.5q0 -78 35 -123.5t94 -45.5z" />
    <glyph glyph-name="p" unicode="p" horiz-adv-x="562" 
d="M302 -12q-78 0 -123 56v-197l-104 -48v712h104v-41q48 53 123 53q97 0 153.5 -71.5t56.5 -196.5q0 -124 -57.5 -195.5t-152.5 -71.5zM287 86q59 0 90 43.5t31 125.5q0 76 -32 123t-89 47q-72 0 -108 -58v-222q44 -59 108 -59z" />
    <glyph glyph-name="q" unicode="q" horiz-adv-x="562" 
d="M262 -12q-95 0 -153.5 71.5t-58.5 195.5q0 125 57.5 196.5t154.5 71.5q73 0 121 -53v41h104v-664l-104 -47v244q-46 -56 -121 -56zM275 86q65 0 108 59v222q-36 58 -108 58q-57 0 -89 -47t-32 -123q0 -82 31 -125.5t90 -43.5z" />
    <glyph glyph-name="r" unicode="r" horiz-adv-x="397" 
d="M75 0v511h104v-62q34 74 114 74q50 0 86 -31l-15 -96q-37 25 -81 25q-42 0 -73 -31.5t-31 -102.5v-287h-104z" />
    <glyph glyph-name="s" unicode="s" horiz-adv-x="475" 
d="M233 -12q-60 0 -113 22.5t-80 60.5l74 63q55 -52 117 -52q90 0 90 55q0 19 -17 35t-34 23.5t-55 22.5q-84 28 -123.5 66t-39.5 98q0 66 50.5 103.5t127.5 37.5q115 0 179 -77l-75 -60q-41 43 -104 43q-33 0 -52.5 -12.5t-19.5 -34.5q0 -23 23.5 -37.5t75.5 -34.5
q87 -29 127.5 -68t40.5 -105q0 -72 -51.5 -110.5t-140.5 -38.5z" />
    <glyph glyph-name="t" unicode="t" horiz-adv-x="379" 
d="M223 -12q-114 0 -114 127v306h-79v90h79v161l104 50v-211h121v-90h-121v-279q0 -58 50 -58q37 0 76 24l-13 -97q-46 -23 -103 -23z" />
    <glyph glyph-name="u" unicode="u" 
d="M386 0v49q-48 -61 -132 -61q-184 0 -184 218v305h104v-305q0 -61 28 -90.5t74 -29.5q110 0 110 118v307h104v-511h-104z" />
    <glyph glyph-name="v" unicode="v" horiz-adv-x="521" 
d="M212 0l-187 511h104l118 -335q11 -33 14 -45q3 12 14 45l117 335h104l-187 -511h-97z" />
    <glyph glyph-name="w" unicode="w" horiz-adv-x="726" 
d="M171 0l-136 511h102l72 -318q7 -30 10 -52q3 19 11 52l85 318h96l85 -318q8 -33 11 -52q3 22 10 52l72 318h102l-136 -511h-92l-85 297q-12 41 -16 64q-5 -32 -15 -65l-84 -296h-92z" />
    <glyph glyph-name="x" unicode="x" horiz-adv-x="530" 
d="M35 0l170 266l-156 245h119l71 -111q19 -32 26 -46q19 35 26 46l71 111h119l-157 -245l171 -266h-119l-85 132q-7 11 -26 46q-9 -20 -26 -46l-85 -132h-119z" />
    <glyph glyph-name="y" unicode="y" horiz-adv-x="538" 
d="M137 -194l79 203l-191 502h103l126 -334q9 -23 14 -45q5 22 14 45l127 334h104l-270 -705h-106z" />
    <glyph glyph-name="z" unicode="z" horiz-adv-x="511" 
d="M55 0v85l271 334h-251v92h376v-82l-271 -337h270v-92h-395z" />
    <glyph glyph-name="braceleft" unicode="{" horiz-adv-x="366" 
d="M326 -130q-98 2 -154.5 61.5t-56.5 171.5v59q0 38 -15.5 61t-44.5 23h-15v91h15q29 0 44.5 23t15.5 61v58q0 112 56.5 171.5t154.5 61.5v-92q-107 -5 -107 -123v-65q0 -71 -23 -102t-72 -39q49 -8 72 -39t23 -102v-65q0 -118 107 -123v-92z" />
    <glyph glyph-name="bar" unicode="|" horiz-adv-x="274" 
d="M85 -378v1440h104v-1440h-104z" />
    <glyph glyph-name="braceright" unicode="}" horiz-adv-x="366" 
d="M40 -130v92q107 5 107 123v65q0 71 23 102t72 39q-49 8 -72 39t-23 102v65q0 118 -107 123v92q98 -2 154.5 -61.5t56.5 -171.5v-58q0 -38 15.5 -61t44.5 -23h15v-91h-15q-29 0 -44.5 -23t-15.5 -61v-59q0 -112 -56.5 -171.5t-154.5 -61.5z" />
    <glyph glyph-name="asciitilde" unicode="~" horiz-adv-x="630" 
d="M416 264q-46 0 -110.5 29t-90.5 29t-42 -16t-18 -42h-75q0 68 33 113t101 45q46 0 110.5 -29t90.5 -29t42 16t18 42h75q0 -68 -33 -113t-101 -45z" />
    <glyph glyph-name="uni00A0" unicode="&#xa0;" horiz-adv-x="240" 
 />
    <glyph glyph-name="exclamdown" unicode="&#xa1;" horiz-adv-x="276" 
d="M138 376q-32 0 -53.5 21.5t-21.5 51.5t21.5 52t53.5 22q31 0 53.5 -22t22.5 -52t-22.5 -51.5t-53.5 -21.5zM190 -200h-104v221l29 297h46l29 -297v-221z" />
    <glyph glyph-name="cent" unicode="&#xa2;" horiz-adv-x="518" 
d="M212 -12v102q-77 20 -119.5 87.5t-42.5 172.5t43 172.5t119 87.5v102h100v-97q117 -17 154 -129l-99 -34q-25 66 -90 66q-58 0 -89.5 -44.5t-31.5 -123.5q0 -78 31 -122.5t86 -44.5q74 0 96 75l99 -31q-36 -124 -156 -141v-98h-100z" />
    <glyph glyph-name="sterling" unicode="&#xa3;" horiz-adv-x="589" 
d="M80 0v104q73 35 84 154q1 9 1 25h-90v92h66q-36 74 -36 136q0 83 60 142t172 59q117 0 213 -70l-41 -99q-24 21 -39.5 32t-52.5 24t-80 13q-62 0 -93 -29.5t-31 -71.5q0 -22 6.5 -43t19 -49t18.5 -44h167v-92h-151q0 -17 -1 -25q-8 -91 -73 -158h360v-100h-479z" />
    <glyph glyph-name="currency" unicode="&#xa4;" horiz-adv-x="630" 
d="M315 86q-79 0 -134 36l-67 -68l-78 78l71 71q-30 54 -30 130q0 74 31 131l-72 72l75 75l68 -68q59 38 136 38t134 -37l67 67l78 -78l-70 -70q30 -58 30 -130q0 -77 -32 -133l72 -71l-75 -75l-69 69q-57 -37 -135 -37zM315 186q59 0 96 41.5t37 105.5t-37 106t-96 42
t-95.5 -42t-36.5 -106t36.5 -105.5t95.5 -41.5z" />
    <glyph glyph-name="yen" unicode="&#xa5;" horiz-adv-x="573" 
d="M343 329h138v-90h-143v-66h143v-90h-143v-83h-104v83h-147v90h147v66h-147v90h141l-213 371h118l153 -275l153 275h119z" />
    <glyph glyph-name="brokenbar" unicode="&#xa6;" horiz-adv-x="274" 
d="M85 366v459h104v-459h-104zM85 -225v459h104v-459h-104z" />
    <glyph glyph-name="section" unicode="&#xa7;" horiz-adv-x="523" 
d="M265 -120q-70 0 -126.5 25.5t-88.5 67.5l76 65q58 -58 138 -58q101 0 101 68q0 11 -4 21t-14.5 19.5t-19.5 16t-27 15.5t-28.5 13.5t-33 14t-32.5 13.5q-35 15 -54 25t-43.5 28.5t-35.5 43.5t-11 58q0 74 67 108q-67 45 -67 129q0 74 55.5 116.5t140.5 42.5
q126 0 195 -84l-79 -63q-45 47 -116 47q-41 0 -64.5 -15.5t-23.5 -43.5q0 -16 10 -29t35.5 -26.5t42 -20.5t55.5 -22q31 -12 48.5 -20t42 -23t37.5 -31t22.5 -40.5t9.5 -54.5q0 -74 -58 -108q58 -48 58 -127q0 -81 -55 -126t-153 -45zM330 226q35 14 35 52q0 17 -10 31
t-34 26.5t-41 19.5t-54 20q-56 -10 -56 -52q0 -7 2.5 -14t8 -13t11.5 -11t16.5 -10.5t18.5 -9.5t23 -9.5t24.5 -9t27.5 -10t28 -10.5z" />
    <glyph glyph-name="dieresis" unicode="&#xa8;" horiz-adv-x="400" 
d="M110 591q-26 0 -44.5 18.5t-18.5 44.5t18.5 44.5t44.5 18.5t44.5 -18.5t18.5 -44.5t-18.5 -44.5t-44.5 -18.5zM290 591q-26 0 -44.5 18.5t-18.5 44.5t18.5 44.5t44.5 18.5t44.5 -18.5t18.5 -44.5t-18.5 -44.5t-44.5 -18.5z" />
    <glyph glyph-name="copyright" unicode="&#xa9;" horiz-adv-x="844" 
d="M422 -12q-154 0 -258 104t-104 258t104 258t258 104t258 -104t104 -258t-104 -258t-258 -104zM422 60q123 0 204 83t81 207t-81 207t-204 83t-204 -83t-81 -207t81 -207t204 -83zM426 132q-47 0 -82.5 19t-55 51.5t-29 69.5t-9.5 78q0 85 43.5 151.5t132.5 66.5
q56 0 94 -26.5t53 -63.5l-66 -31q-17 26 -35 37.5t-46 11.5q-51 0 -75 -44t-24 -102t25.5 -102t73.5 -44q46 0 81 52l67 -24q-42 -100 -148 -100z" />
    <glyph glyph-name="ordfeminine" unicode="&#xaa;" horiz-adv-x="437" 
d="M294 283v30q-44 -40 -110 -40t-107.5 36.5t-41.5 104.5t48 104t113 36q54 0 98 -21v17q0 45 -20 64t-64 19q-66 0 -118 -39l-26 74q62 44 155 44q32 0 56.5 -5.5t50.5 -20.5t40 -48.5t14 -83.5v-271h-88zM200 352q53 0 94 39v66q-40 19 -84 19q-36 0 -60.5 -15.5
t-24.5 -46.5q0 -29 20 -45.5t55 -16.5z" />
    <glyph glyph-name="guillemotleft" unicode="&#xab;" horiz-adv-x="524" 
d="M182 0l-152 256l152 255h113l-152 -255l152 -256h-113zM396 0l-152 256l152 255h113l-152 -255l152 -256h-113z" />
    <glyph glyph-name="logicalnot" unicode="&#xac;" horiz-adv-x="630" 
d="M446 168v205h-366v100h470v-305h-104z" />
    <glyph glyph-name="uni00AD" unicode="&#xad;" horiz-adv-x="395" 
d="M75 247v100h245v-100h-245z" />
    <glyph glyph-name="registered" unicode="&#xae;" horiz-adv-x="844" 
d="M422 -12q-154 0 -258 104t-104 258t104 258t258 104t258 -104t104 -258t-104 -258t-258 -104zM422 60q123 0 204 83t81 207t-81 207t-204 83t-204 -83t-81 -207t81 -207t204 -83zM279 139v422h166q73 0 106 -36t33 -90q0 -40 -22.5 -73.5t-65.5 -46.5l96 -176h-88
l-85 169h-66v-169h-74zM353 379h92q61 0 61 56q0 55 -61 55h-92v-111z" />
    <glyph glyph-name="macron" unicode="&#xaf;" horiz-adv-x="400" 
d="M35 597v86h330v-86h-330z" />
    <glyph glyph-name="degree" unicode="&#xb0;" horiz-adv-x="400" 
d="M200 453q-74 0 -125 50.5t-51 123.5q0 74 51 123.5t125 49.5t124.5 -49.5t50.5 -123.5q0 -73 -50.5 -123.5t-124.5 -50.5zM200 549q31 0 52 22.5t21 55.5q0 34 -20.5 55.5t-52.5 21.5t-53 -21.5t-21 -55.5q0 -33 21.5 -55.5t52.5 -22.5z" />
    <glyph glyph-name="plusminus" unicode="&#xb1;" horiz-adv-x="630" 
d="M367 353v-155h-104v155h-183v100h183v155h104v-155h183v-100h-183zM80 0v100h470v-100h-470z" />
    <glyph glyph-name="uni00B2" unicode="&#xb2;" horiz-adv-x="357" 
d="M25 444q0 84 41 143.5t106 93.5q21 11 31 17.5t19.5 19.5t9.5 28q0 21 -15 35t-42 14q-57 0 -70 -65l-81 19q11 54 53 89t98 35q66 0 105 -36t39 -93q0 -27 -8 -47t-26 -36.5t-34 -26.5t-46 -25q-58 -30 -83 -87h196v-78h-293z" />
    <glyph glyph-name="uni00B3" unicode="&#xb3;" horiz-adv-x="347" 
d="M165 436q-57 0 -96.5 32.5t-56.5 90.5l82 22q8 -33 28.5 -50t45.5 -17q26 0 43 14.5t17 39.5q0 23 -16 38.5t-48 15.5h-31v78h30q25 0 37.5 13t12.5 34t-12.5 34.5t-35.5 13.5q-41 0 -58 -49l-80 29q19 45 55 71.5t85 26.5q60 0 96 -35.5t36 -86.5q0 -55 -49 -87
q30 -13 47 -39.5t17 -57.5q0 -60 -41 -95.5t-108 -35.5z" />
    <glyph glyph-name="acute" unicode="&#xb4;" horiz-adv-x="400" 
d="M75 576l142 156h142l-178 -156h-106z" />
    <glyph glyph-name="uni00B5" unicode="&#xb5;" 
d="M386 0v49q-48 -61 -122 -61q-59 0 -90 41v-180l-104 -49v711h104v-305q0 -67 26 -93.5t76 -26.5q110 0 110 118v307h104v-511h-104z" />
    <glyph glyph-name="paragraph" unicode="&#xb6;" horiz-adv-x="628" 
d="M254 -200v476q-117 0 -175.5 64t-58.5 148q0 89 56 150.5t175 61.5h297v-772l-104 -47v719h-86v-753z" />
    <glyph glyph-name="periodcentered" unicode="&#xb7;" horiz-adv-x="223" 
d="M111 276q-32 0 -53.5 21.5t-21.5 51.5t21.5 52t53.5 22q31 0 53.5 -22t22.5 -52t-22.5 -51.5t-53.5 -21.5z" />
    <glyph glyph-name="cedilla" unicode="&#xb8;" horiz-adv-x="400" 
d="M195 -239q-65 0 -100 38l51 37q12 -15 39 -15q22 0 36 12t14 32q0 19 -15.5 31t-38.5 12q-24 0 -40 -10l-20 25l70 87h57l-37 -60q55 0 82.5 -24.5t27.5 -61.5q0 -46 -34.5 -74.5t-91.5 -28.5z" />
    <glyph glyph-name="uni00B9" unicode="&#xb9;" horiz-adv-x="200" 
d="M65 444v334h-55v61q54 0 71 27h66v-422h-82z" />
    <glyph glyph-name="ordmasculine" unicode="&#xba;" horiz-adv-x="464" 
d="M231 273q-88 0 -139.5 58t-51.5 161t51.5 161.5t139.5 58.5t140.5 -58.5t52.5 -161.5t-52 -161t-141 -58zM231 358q49 0 75.5 35.5t26.5 98.5q0 64 -26.5 99.5t-75.5 35.5q-47 0 -74 -35.5t-27 -99.5q0 -63 27 -98.5t74 -35.5z" />
    <glyph glyph-name="guillemotright" unicode="&#xbb;" horiz-adv-x="524" 
d="M15 0l152 256l-152 255h113l152 -255l-152 -256h-113zM229 0l152 256l-152 255h113l152 -255l-152 -256h-113z" />
    <glyph glyph-name="onequarter" unicode="&#xbc;" horiz-adv-x="686" 
d="M10 -12l478 724h95l-478 -724h-95zM70 283v334h-55v61q54 0 71 27h66v-422h-82zM529 0v86h-212v53l215 284h77v-260h54v-77h-54v-86h-80zM529 163v142l-109 -142h109z" />
    <glyph glyph-name="onehalf" unicode="&#xbd;" horiz-adv-x="730" 
d="M10 -12l478 724h95l-478 -724h-95zM70 283v334h-55v61q54 0 71 27h66v-422h-82zM398 0q0 84 41 143.5t106 93.5q21 11 31 17.5t19.5 19.5t9.5 28q0 21 -15 35t-42 14q-57 0 -70 -65l-81 19q11 54 53 89t98 35q66 0 105 -36t39 -93q0 -27 -8 -47t-26 -36.5t-34 -26.5
t-46 -25q-58 -30 -83 -87h196v-78h-293z" />
    <glyph glyph-name="threequarters" unicode="&#xbe;" horiz-adv-x="806" 
d="M165 275q-57 0 -96.5 32.5t-56.5 90.5l82 22q8 -33 28.5 -50t45.5 -17q26 0 43 14.5t17 39.5q0 23 -16 38.5t-48 15.5h-31v78h30q25 0 37.5 13t12.5 34t-12.5 34.5t-35.5 13.5q-41 0 -58 -49l-80 29q19 45 55 71.5t85 26.5q60 0 96 -35.5t36 -86.5q0 -55 -49 -87
q30 -13 47 -39.5t17 -57.5q0 -60 -41 -95.5t-108 -35.5zM130 -12l478 724h95l-478 -724h-95zM649 0v86h-212v53l215 284h77v-260h54v-77h-54v-86h-80zM649 163v142l-109 -142h109z" />
    <glyph glyph-name="questiondown" unicode="&#xbf;" horiz-adv-x="501" 
d="M261 376q-32 0 -53.5 21.5t-21.5 51.5t21.5 52t53.5 22q31 0 53.5 -22t22.5 -52t-22.5 -51.5t-53.5 -21.5zM249 -200q-101 0 -157.5 55.5t-56.5 142.5q0 45 18 80t43 57t50.5 44t43.5 53t18 71v19h104v-20q0 -53 -18 -92t-43 -62t-50.5 -43t-43.5 -46.5t-18 -60.5
q0 -45 29 -72.5t81 -27.5q61 0 94.5 35.5t33.5 100.5h104q0 -108 -64 -171t-168 -63z" />
    <glyph glyph-name="Agrave" unicode="&#xc0;" horiz-adv-x="696" 
d="M368 765l-178 156h142l142 -156h-106zM546 0l-56 161h-283l-57 -161h-108l253 700h107l252 -700h-108zM458 253l-85 238q-18 49 -24 79q-9 -36 -24 -79l-86 -238h219z" />
    <glyph glyph-name="Aacute" unicode="&#xc1;" horiz-adv-x="696" 
d="M223 765l142 156h142l-178 -156h-106zM546 0l-56 161h-283l-57 -161h-108l253 700h107l252 -700h-108zM458 253l-85 238q-18 49 -24 79q-9 -36 -24 -79l-86 -238h219z" />
    <glyph glyph-name="Acircumflex" unicode="&#xc2;" horiz-adv-x="696" 
d="M442 765l-94 79l-94 -79h-100l142 156h105l141 -156h-100zM546 0l-56 161h-283l-57 -161h-108l253 700h107l252 -700h-108zM458 253l-85 238q-18 49 -24 79q-9 -36 -24 -79l-86 -238h219z" />
    <glyph glyph-name="Atilde" unicode="&#xc3;" horiz-adv-x="696" 
d="M427 776q-38 0 -90.5 24t-74.5 24q-44 0 -47 -44h-51q0 130 105 130q38 0 90.5 -24t74.5 -24q44 0 47 44h51q0 -130 -105 -130zM546 0l-56 161h-283l-57 -161h-108l253 700h107l252 -700h-108zM458 253l-85 238q-18 49 -24 79q-9 -36 -24 -79l-86 -238h219z" />
    <glyph glyph-name="Adieresis" unicode="&#xc4;" horiz-adv-x="696" 
d="M258 780q-26 0 -44.5 18.5t-18.5 44.5t18.5 44.5t44.5 18.5t44.5 -18.5t18.5 -44.5t-18.5 -44.5t-44.5 -18.5zM438 780q-26 0 -44.5 18.5t-18.5 44.5t18.5 44.5t44.5 18.5t44.5 -18.5t18.5 -44.5t-18.5 -44.5t-44.5 -18.5zM546 0l-56 161h-283l-57 -161h-108l253 700h107
l252 -700h-108zM458 253l-85 238q-18 49 -24 79q-9 -36 -24 -79l-86 -238h219z" />
    <glyph glyph-name="Aring" unicode="&#xc5;" horiz-adv-x="696" 
d="M42 0l232 643q-49 38 -49 98q0 50 36.5 85.5t86.5 35.5t86.5 -35.5t36.5 -85.5q0 -60 -49 -97l232 -644h-108l-56 161h-283l-57 -161h-108zM348 694q19 0 32 13.5t13 33.5t-13 33.5t-32 13.5t-32 -13.5t-13 -33.5t13 -33.5t32 -13.5zM239 253h219l-85 238q-18 49 -24 79
q-9 -36 -24 -79z" />
    <glyph glyph-name="AE" unicode="&#xc6;" horiz-adv-x="848" 
d="M-12 0l406 700h391v-98h-274v-192h157v-98h-157v-214h296v-98h-400v161h-216l-91 -161h-112zM245 254h162v292q-16 -34 -41 -79z" />
    <glyph glyph-name="Ccedilla" unicode="&#xc7;" horiz-adv-x="650" 
d="M346 -239q-65 0 -100 38l51 37q12 -15 39 -15q22 0 36 12t14 32q0 19 -15.5 31t-38.5 12q-24 0 -40 -10l-20 25l53 67q-69 6 -121.5 39.5t-81.5 85.5t-43 111t-14 124q0 64 16 125t48.5 115.5t91 88t135.5 33.5q92 0 153 -40.5t85 -98.5l-95 -44q-27 43 -59.5 63
t-83.5 20q-50 0 -87 -24t-57 -64t-29.5 -83.5t-9.5 -90.5q0 -104 47 -183t136 -79q88 0 142 90l97 -37q-59 -138 -209 -151l-24 -40q55 0 82.5 -24.5t27.5 -61.5q0 -46 -34.5 -74.5t-91.5 -28.5z" />
    <glyph glyph-name="Egrave" unicode="&#xc8;" horiz-adv-x="601" 
d="M306 765l-178 156h142l142 -156h-106zM90 0v700h434v-98h-330v-192h213v-98h-213v-214h352v-98h-456z" />
    <glyph glyph-name="Eacute" unicode="&#xc9;" horiz-adv-x="601" 
d="M197 765l142 156h142l-178 -156h-106zM90 0v700h434v-98h-330v-192h213v-98h-213v-214h352v-98h-456z" />
    <glyph glyph-name="Ecircumflex" unicode="&#xca;" horiz-adv-x="601" 
d="M404 765l-94 79l-94 -79h-100l142 156h105l141 -156h-100zM90 0v700h434v-98h-330v-192h213v-98h-213v-214h352v-98h-456z" />
    <glyph glyph-name="Edieresis" unicode="&#xcb;" horiz-adv-x="601" 
d="M226 780q-26 0 -44.5 18.5t-18.5 44.5t18.5 44.5t44.5 18.5t44.5 -18.5t18.5 -44.5t-18.5 -44.5t-44.5 -18.5zM406 780q-26 0 -44.5 18.5t-18.5 44.5t18.5 44.5t44.5 18.5t44.5 -18.5t18.5 -44.5t-18.5 -44.5t-44.5 -18.5zM90 0v700h434v-98h-330v-192h213v-98h-213v-214
h352v-98h-456z" />
    <glyph glyph-name="Igrave" unicode="&#xcc;" horiz-adv-x="294" 
d="M167 765l-178 156h142l142 -156h-106zM95 0v700h104v-700h-104z" />
    <glyph glyph-name="Iacute" unicode="&#xcd;" horiz-adv-x="294" 
d="M32 765l142 156h142l-178 -156h-106zM95 0v700h104v-700h-104z" />
    <glyph glyph-name="Icircumflex" unicode="&#xce;" horiz-adv-x="294" 
d="M241 765l-94 79l-94 -79h-100l142 156h105l141 -156h-100zM95 0v700h104v-700h-104z" />
    <glyph glyph-name="Idieresis" unicode="&#xcf;" horiz-adv-x="294" 
d="M57 780q-26 0 -44.5 18.5t-18.5 44.5t18.5 44.5t44.5 18.5t44.5 -18.5t18.5 -44.5t-18.5 -44.5t-44.5 -18.5zM237 780q-26 0 -44.5 18.5t-18.5 44.5t18.5 44.5t44.5 18.5t44.5 -18.5t18.5 -44.5t-18.5 -44.5t-44.5 -18.5zM95 0v700h104v-700h-104z" />
    <glyph glyph-name="Eth" unicode="&#xd0;" horiz-adv-x="685" 
d="M90 302h-65v96h65v302h196q88 0 154.5 -30t104.5 -81t56.5 -111t18.5 -128q0 -65 -17.5 -123.5t-54.5 -111t-105.5 -84t-160.5 -31.5h-192v302zM299 98q57 0 100 22.5t67 60t35 80t11 89.5q0 105 -51 178.5t-151 73.5h-116v-204h151v-96h-151v-204h105z" />
    <glyph glyph-name="Ntilde" unicode="&#xd1;" horiz-adv-x="710" 
d="M444 776q-38 0 -90.5 24t-74.5 24q-44 0 -47 -44h-51q0 130 105 130q38 0 90.5 -24t74.5 -24q44 0 47 44h51q0 -130 -105 -130zM620 0h-98l-303 475q-14 22 -28 52q3 -48 3 -52v-475h-104v700h105l295 -467q11 -18 29 -54q-3 30 -3 53v468h104v-700z" />
    <glyph glyph-name="Ograve" unicode="&#xd2;" horiz-adv-x="740" 
d="M371 766l-178 156h142l142 -156h-106zM370 -12q-65 0 -118 21t-87 56t-57 83t-33 98t-10 104t10 104t33 98t57 83t87 56t118 21t118 -21t87 -56t57 -83t33 -98t10 -104t-10 -104t-33 -98t-57 -83t-87 -56t-118 -21zM370 88q52 0 92 24.5t62 64.5t32.5 83.5t10.5 89.5
q0 48 -10.5 92.5t-32.5 83.5t-62 62.5t-92 23.5t-92 -24.5t-62 -64.5t-32.5 -83.5t-10.5 -89.5q0 -48 10.5 -92.5t32.5 -83.5t62 -62.5t92 -23.5z" />
    <glyph glyph-name="Oacute" unicode="&#xd3;" horiz-adv-x="740" 
d="M245 765l142 156h142l-178 -156h-106zM370 -12q-65 0 -118 21t-87 56t-57 83t-33 98t-10 104t10 104t33 98t57 83t87 56t118 21t118 -21t87 -56t57 -83t33 -98t10 -104t-10 -104t-33 -98t-57 -83t-87 -56t-118 -21zM370 88q52 0 92 24.5t62 64.5t32.5 83.5t10.5 89.5
q0 48 -10.5 92.5t-32.5 83.5t-62 62.5t-92 23.5t-92 -24.5t-62 -64.5t-32.5 -83.5t-10.5 -89.5q0 -48 10.5 -92.5t32.5 -83.5t62 -62.5t92 -23.5z" />
    <glyph glyph-name="Ocircumflex" unicode="&#xd4;" horiz-adv-x="740" 
d="M464 765l-94 79l-94 -79h-100l142 156h105l141 -156h-100zM370 -12q-65 0 -118 21t-87 56t-57 83t-33 98t-10 104t10 104t33 98t57 83t87 56t118 21t118 -21t87 -56t57 -83t33 -98t10 -104t-10 -104t-33 -98t-57 -83t-87 -56t-118 -21zM370 88q52 0 92 24.5t62 64.5
t32.5 83.5t10.5 89.5q0 48 -10.5 92.5t-32.5 83.5t-62 62.5t-92 23.5t-92 -24.5t-62 -64.5t-32.5 -83.5t-10.5 -89.5q0 -48 10.5 -92.5t32.5 -83.5t62 -62.5t92 -23.5z" />
    <glyph glyph-name="Otilde" unicode="&#xd5;" horiz-adv-x="740" 
d="M449 776q-38 0 -90.5 24t-74.5 24q-44 0 -47 -44h-51q0 130 105 130q38 0 90.5 -24t74.5 -24q44 0 47 44h51q0 -130 -105 -130zM370 -12q-65 0 -118 21t-87 56t-57 83t-33 98t-10 104t10 104t33 98t57 83t87 56t118 21t118 -21t87 -56t57 -83t33 -98t10 -104t-10 -104
t-33 -98t-57 -83t-87 -56t-118 -21zM370 88q52 0 92 24.5t62 64.5t32.5 83.5t10.5 89.5q0 48 -10.5 92.5t-32.5 83.5t-62 62.5t-92 23.5t-92 -24.5t-62 -64.5t-32.5 -83.5t-10.5 -89.5q0 -48 10.5 -92.5t32.5 -83.5t62 -62.5t92 -23.5z" />
    <glyph glyph-name="Odieresis" unicode="&#xd6;" horiz-adv-x="740" 
d="M280 780q-26 0 -44.5 18.5t-18.5 44.5t18.5 44.5t44.5 18.5t44.5 -18.5t18.5 -44.5t-18.5 -44.5t-44.5 -18.5zM460 780q-26 0 -44.5 18.5t-18.5 44.5t18.5 44.5t44.5 18.5t44.5 -18.5t18.5 -44.5t-18.5 -44.5t-44.5 -18.5zM370 -12q-65 0 -118 21t-87 56t-57 83t-33 98
t-10 104t10 104t33 98t57 83t87 56t118 21t118 -21t87 -56t57 -83t33 -98t10 -104t-10 -104t-33 -98t-57 -83t-87 -56t-118 -21zM370 88q52 0 92 24.5t62 64.5t32.5 83.5t10.5 89.5q0 48 -10.5 92.5t-32.5 83.5t-62 62.5t-92 23.5t-92 -24.5t-62 -64.5t-32.5 -83.5
t-10.5 -89.5q0 -48 10.5 -92.5t32.5 -83.5t62 -62.5t92 -23.5z" />
    <glyph glyph-name="multiply" unicode="&#xd7;" horiz-adv-x="630" 
d="M316 270l-158 -159l-75 75l159 158l-158 158l72 72l158 -158l158 159l75 -75l-159 -158l158 -158l-72 -72z" />
    <glyph glyph-name="Oslash" unicode="&#xd8;" horiz-adv-x="730" 
d="M65 -12l71 104q-76 99 -76 258q0 54 10 104t33 98t57 83t87 56t118 21q95 0 164 -45l31 45h105l-72 -105q77 -100 77 -257q0 -54 -10 -104t-33 -98t-57 -83t-87 -56t-118 -21q-95 0 -164 45l-31 -45h-105zM203 189l267 391q-45 32 -105 32q-52 0 -92 -24.5t-62 -64.5
t-32.5 -83.5t-10.5 -89.5q0 -94 35 -161zM365 88q52 0 92 24.5t62 64.5t32.5 83.5t10.5 89.5q0 94 -35 160l-267 -390q45 -32 105 -32z" />
    <glyph glyph-name="Ugrave" unicode="&#xd9;" horiz-adv-x="697" 
d="M369 765l-178 156h142l142 -156h-106zM348 -12q-119 0 -191 65.5t-72 211.5v435h104v-435q0 -98 42 -137.5t117 -39.5t117.5 39.5t42.5 137.5v435h104v-435q0 -146 -71 -211.5t-193 -65.5z" />
    <glyph glyph-name="Uacute" unicode="&#xda;" horiz-adv-x="697" 
d="M241 765l142 156h142l-178 -156h-106zM348 -12q-119 0 -191 65.5t-72 211.5v435h104v-435q0 -98 42 -137.5t117 -39.5t117.5 39.5t42.5 137.5v435h104v-435q0 -146 -71 -211.5t-193 -65.5z" />
    <glyph glyph-name="Ucircumflex" unicode="&#xdb;" horiz-adv-x="697" 
d="M443 765l-94 79l-94 -79h-100l142 156h105l141 -156h-100zM348 -12q-119 0 -191 65.5t-72 211.5v435h104v-435q0 -98 42 -137.5t117 -39.5t117.5 39.5t42.5 137.5v435h104v-435q0 -146 -71 -211.5t-193 -65.5z" />
    <glyph glyph-name="Udieresis" unicode="&#xdc;" horiz-adv-x="697" 
d="M259 780q-26 0 -44.5 18.5t-18.5 44.5t18.5 44.5t44.5 18.5t44.5 -18.5t18.5 -44.5t-18.5 -44.5t-44.5 -18.5zM439 780q-26 0 -44.5 18.5t-18.5 44.5t18.5 44.5t44.5 18.5t44.5 -18.5t18.5 -44.5t-18.5 -44.5t-44.5 -18.5zM348 -12q-119 0 -191 65.5t-72 211.5v435h104
v-435q0 -98 42 -137.5t117 -39.5t117.5 39.5t42.5 137.5v435h104v-435q0 -146 -71 -211.5t-193 -65.5z" />
    <glyph glyph-name="Yacute" unicode="&#xdd;" horiz-adv-x="666" 
d="M226 765l142 156h142l-178 -156h-106zM281 0v274l-246 426h119l179 -320l179 320h119l-246 -425v-275h-104z" />
    <glyph glyph-name="Thorn" unicode="&#xde;" horiz-adv-x="642" 
d="M90 0v700h104v-130h177q119 0 175 -62t56 -152q0 -84 -58 -149t-173 -65h-177v-142h-104zM377 242q60 0 88.5 33.5t28.5 80.5q0 45 -27.5 79.5t-89.5 34.5h-183v-228h183z" />
    <glyph glyph-name="germandbls" unicode="&#xdf;" horiz-adv-x="558" 
d="M65 -200v673q0 121 61.5 180t150.5 59q92 0 148.5 -50.5t56.5 -132.5q0 -50 -23.5 -88.5t-70.5 -55.5q62 -19 96 -65t34 -109q0 -103 -59.5 -163t-152.5 -60q-53 0 -95 16l53 86q21 -6 43 -6q42 0 74.5 32t32.5 92q0 52 -34.5 88t-103.5 36h-22v96h22q46 0 74 24.5
t28 70.5q0 43 -26 68t-74 25q-109 0 -109 -140v-628z" />
    <glyph glyph-name="agrave" unicode="&#xe0;" horiz-adv-x="532" 
d="M262 576l-178 156h142l142 -156h-106zM367 0v44q-54 -56 -140 -56q-81 0 -131.5 44.5t-50.5 126.5q0 83 57 126t139 43q75 0 126 -30v28q0 57 -26 81t-83 24q-84 0 -146 -46l-31 85q77 53 191 53q38 0 68 -6.5t61 -25t48.5 -59.5t17.5 -101v-331h-100zM246 80
q72 0 121 55v78q-47 25 -109 25q-50 0 -81.5 -19.5t-31.5 -59.5q0 -37 26 -58t75 -21z" />
    <glyph glyph-name="aacute" unicode="&#xe1;" horiz-adv-x="532" 
d="M167 576l142 156h142l-178 -156h-106zM367 0v44q-54 -56 -140 -56q-81 0 -131.5 44.5t-50.5 126.5q0 83 57 126t139 43q75 0 126 -30v28q0 57 -26 81t-83 24q-84 0 -146 -46l-31 85q77 53 191 53q38 0 68 -6.5t61 -25t48.5 -59.5t17.5 -101v-331h-100zM246 80
q72 0 121 55v78q-47 25 -109 25q-50 0 -81.5 -19.5t-31.5 -59.5q0 -37 26 -58t75 -21z" />
    <glyph glyph-name="acircumflex" unicode="&#xe2;" horiz-adv-x="532" 
d="M366 576l-94 79l-94 -79h-100l142 156h105l141 -156h-100zM367 0v44q-54 -56 -140 -56q-81 0 -131.5 44.5t-50.5 126.5q0 83 57 126t139 43q75 0 126 -30v28q0 57 -26 81t-83 24q-84 0 -146 -46l-31 85q77 53 191 53q38 0 68 -6.5t61 -25t48.5 -59.5t17.5 -101v-331h-100
zM246 80q72 0 121 55v78q-47 25 -109 25q-50 0 -81.5 -19.5t-31.5 -59.5q0 -37 26 -58t75 -21z" />
    <glyph glyph-name="atilde" unicode="&#xe3;" horiz-adv-x="532" 
d="M351 587q-38 0 -90.5 24t-74.5 24q-44 0 -47 -44h-51q0 130 105 130q38 0 90.5 -24t74.5 -24q44 0 47 44h51q0 -130 -105 -130zM367 0v44q-54 -56 -140 -56q-81 0 -131.5 44.5t-50.5 126.5q0 83 57 126t139 43q75 0 126 -30v28q0 57 -26 81t-83 24q-84 0 -146 -46l-31 85
q77 53 191 53q38 0 68 -6.5t61 -25t48.5 -59.5t17.5 -101v-331h-100zM246 80q72 0 121 55v78q-47 25 -109 25q-50 0 -81.5 -19.5t-31.5 -59.5q0 -37 26 -58t75 -21z" />
    <glyph glyph-name="adieresis" unicode="&#xe4;" horiz-adv-x="532" 
d="M182 591q-26 0 -44.5 18.5t-18.5 44.5t18.5 44.5t44.5 18.5t44.5 -18.5t18.5 -44.5t-18.5 -44.5t-44.5 -18.5zM362 591q-26 0 -44.5 18.5t-18.5 44.5t18.5 44.5t44.5 18.5t44.5 -18.5t18.5 -44.5t-18.5 -44.5t-44.5 -18.5zM367 0v44q-54 -56 -140 -56q-81 0 -131.5 44.5
t-50.5 126.5q0 83 57 126t139 43q75 0 126 -30v28q0 57 -26 81t-83 24q-84 0 -146 -46l-31 85q77 53 191 53q38 0 68 -6.5t61 -25t48.5 -59.5t17.5 -101v-331h-100zM246 80q72 0 121 55v78q-47 25 -109 25q-50 0 -81.5 -19.5t-31.5 -59.5q0 -37 26 -58t75 -21z" />
    <glyph glyph-name="aring" unicode="&#xe5;" horiz-adv-x="532" 
d="M272 567q-50 0 -86.5 36t-36.5 86t36.5 85.5t86.5 35.5t86.5 -35.5t36.5 -85.5t-36.5 -86t-86.5 -36zM272 642q19 0 32 13.5t13 33.5t-13 33.5t-32 13.5t-32 -13.5t-13 -33.5t13 -33.5t32 -13.5zM367 0v44q-54 -56 -140 -56q-81 0 -131.5 44.5t-50.5 126.5q0 83 57 126
t139 43q75 0 126 -30v28q0 57 -26 81t-83 24q-84 0 -146 -46l-31 85q77 53 191 53q38 0 68 -6.5t61 -25t48.5 -59.5t17.5 -101v-331h-100zM246 80q72 0 121 55v78q-47 25 -109 25q-50 0 -81.5 -19.5t-31.5 -59.5q0 -37 26 -58t75 -21z" />
    <glyph glyph-name="ae" unicode="&#xe6;" horiz-adv-x="858" 
d="M227 -12q-81 0 -131.5 44.5t-50.5 126.5q0 83 57 126t139 43q75 0 126 -30v28q0 57 -26 81t-83 24q-84 0 -146 -46l-31 85q77 53 191 53q112 0 156 -66q63 66 165 66q96 0 158 -61t62 -178q0 -43 -4 -67h-343q1 -61 39 -99t89 -38q66 0 106 52l68 -70q-62 -74 -175 -74
q-115 0 -179 81q-78 -81 -187 -81zM466 305h242q-1 63 -35 94.5t-80 31.5q-53 0 -88 -31t-39 -95zM246 80q72 0 121 55v78q-47 25 -109 25q-50 0 -81.5 -19.5t-31.5 -59.5q0 -37 26 -58t75 -21z" />
    <glyph glyph-name="ccedilla" unicode="&#xe7;" horiz-adv-x="518" 
d="M258 -239q-65 0 -100 38l51 37q12 -15 39 -15q22 0 36 12t14 32q0 19 -15.5 31t-38.5 12q-24 0 -40 -10l-20 25l54 68q-88 11 -138 80.5t-50 183.5q0 125 60 196.5t163 71.5q149 0 193 -132l-99 -34q-25 66 -90 66q-58 0 -89.5 -44.5t-31.5 -123.5q0 -78 31 -122.5
t86 -44.5q74 0 96 75l99 -31q-38 -131 -170 -143l-24 -39q55 0 82.5 -24.5t27.5 -61.5q0 -46 -34.5 -74.5t-91.5 -28.5z" />
    <glyph glyph-name="egrave" unicode="&#xe8;" horiz-adv-x="547" 
d="M302 576l-178 156h142l142 -156h-106zM282 -12q-107 0 -169.5 71.5t-62.5 196.5t63 196t169 71q96 0 158 -61t62 -178q0 -43 -4 -67h-344q1 -61 39.5 -99t89.5 -38q66 0 106 52l68 -70q-62 -74 -175 -74zM154 301h244q-1 66 -35 98t-81 32q-53 0 -88.5 -31.5t-39.5 -98.5
z" />
    <glyph glyph-name="eacute" unicode="&#xe9;" horiz-adv-x="547" 
d="M157 576l142 156h142l-178 -156h-106zM282 -12q-107 0 -169.5 71.5t-62.5 196.5t63 196t169 71q96 0 158 -61t62 -178q0 -43 -4 -67h-344q1 -61 39.5 -99t89.5 -38q66 0 106 52l68 -70q-62 -74 -175 -74zM154 301h244q-1 66 -35 98t-81 32q-53 0 -88.5 -31.5t-39.5 -98.5
z" />
    <glyph glyph-name="ecircumflex" unicode="&#xea;" horiz-adv-x="547" 
d="M376 576l-94 79l-94 -79h-100l142 156h105l141 -156h-100zM282 -12q-107 0 -169.5 71.5t-62.5 196.5t63 196t169 71q96 0 158 -61t62 -178q0 -43 -4 -67h-344q1 -61 39.5 -99t89.5 -38q66 0 106 52l68 -70q-62 -74 -175 -74zM154 301h244q-1 66 -35 98t-81 32
q-53 0 -88.5 -31.5t-39.5 -98.5z" />
    <glyph glyph-name="edieresis" unicode="&#xeb;" horiz-adv-x="547" 
d="M192 591q-26 0 -44.5 18.5t-18.5 44.5t18.5 44.5t44.5 18.5t44.5 -18.5t18.5 -44.5t-18.5 -44.5t-44.5 -18.5zM372 591q-26 0 -44.5 18.5t-18.5 44.5t18.5 44.5t44.5 18.5t44.5 -18.5t18.5 -44.5t-18.5 -44.5t-44.5 -18.5zM282 -12q-107 0 -169.5 71.5t-62.5 196.5
t63 196t169 71q96 0 158 -61t62 -178q0 -43 -4 -67h-344q1 -61 39.5 -99t89.5 -38q66 0 106 52l68 -70q-62 -74 -175 -74zM154 301h244q-1 66 -35 98t-81 32q-53 0 -88.5 -31.5t-39.5 -98.5z" />
    <glyph glyph-name="igrave" unicode="&#xec;" horiz-adv-x="256" 
d="M128 576l-178 156h142l142 -156h-106zM76 0v511h104v-511h-104z" />
    <glyph glyph-name="iacute" unicode="&#xed;" horiz-adv-x="256" 
d="M22 576l142 156h142l-178 -156h-106zM76 0v511h104v-511h-104z" />
    <glyph glyph-name="icircumflex" unicode="&#xee;" horiz-adv-x="256" 
d="M222 576l-94 79l-94 -79h-100l142 156h105l141 -156h-100zM76 0v511h104v-511h-104z" />
    <glyph glyph-name="idieresis" unicode="&#xef;" horiz-adv-x="256" 
d="M38 591q-26 0 -44.5 18.5t-18.5 44.5t18.5 44.5t44.5 18.5t44.5 -18.5t18.5 -44.5t-18.5 -44.5t-44.5 -18.5zM218 591q-26 0 -44.5 18.5t-18.5 44.5t18.5 44.5t44.5 18.5t44.5 -18.5t18.5 -44.5t-18.5 -44.5t-44.5 -18.5zM76 0v511h104v-511h-104z" />
    <glyph glyph-name="eth" unicode="&#xf0;" horiz-adv-x="567" 
d="M283 -12q-101 0 -167 66t-66 167q0 102 65 168.5t158 66.5q45 0 82.5 -19.5t54.5 -50.5q-24 115 -101 177l-62 -65l-55 52l50 52q-48 19 -108 22v88q98 -3 174 -40l58 60l55 -53l-47 -49q143 -116 143 -361q0 -124 -59.5 -202.5t-174.5 -78.5zM283 86q55 0 92.5 38.5
t37.5 95.5q0 60 -37 99t-94 39q-56 0 -92 -38t-36 -99q0 -57 37.5 -96t91.5 -39z" />
    <glyph glyph-name="ntilde" unicode="&#xf1;" 
d="M368 587q-38 0 -90.5 24t-74.5 24q-44 0 -47 -44h-51q0 130 105 130q38 0 90.5 -24t74.5 -24q44 0 47 44h51q0 -130 -105 -130zM391 0v305q0 61 -28 90.5t-74 29.5q-110 0 -110 -118v-307h-104v511h104v-49q48 61 132 61q184 0 184 -218v-305h-104z" />
    <glyph glyph-name="ograve" unicode="&#xf2;" horiz-adv-x="567" 
d="M304 576l-178 156h142l142 -156h-106zM283 -12q-108 0 -170.5 71t-62.5 196t62.5 196.5t170.5 71.5t171 -71.5t63 -196.5t-63 -196t-171 -71zM283 86q60 0 95 45t35 124t-35 124.5t-95 45.5q-59 0 -94 -45.5t-35 -124.5q0 -78 35 -123.5t94 -45.5z" />
    <glyph glyph-name="oacute" unicode="&#xf3;" horiz-adv-x="567" 
d="M159 576l142 156h142l-178 -156h-106zM283 -12q-108 0 -170.5 71t-62.5 196t62.5 196.5t170.5 71.5t171 -71.5t63 -196.5t-63 -196t-171 -71zM283 86q60 0 95 45t35 124t-35 124.5t-95 45.5q-59 0 -94 -45.5t-35 -124.5q0 -78 35 -123.5t94 -45.5z" />
    <glyph glyph-name="ocircumflex" unicode="&#xf4;" horiz-adv-x="567" 
d="M378 576l-94 79l-94 -79h-100l142 156h105l141 -156h-100zM283 -12q-108 0 -170.5 71t-62.5 196t62.5 196.5t170.5 71.5t171 -71.5t63 -196.5t-63 -196t-171 -71zM283 86q60 0 95 45t35 124t-35 124.5t-95 45.5q-59 0 -94 -45.5t-35 -124.5q0 -78 35 -123.5t94 -45.5z
" />
    <glyph glyph-name="otilde" unicode="&#xf5;" horiz-adv-x="567" 
d="M363 587q-38 0 -90.5 24t-74.5 24q-44 0 -47 -44h-51q0 130 105 130q38 0 90.5 -24t74.5 -24q44 0 47 44h51q0 -130 -105 -130zM283 -12q-108 0 -170.5 71t-62.5 196t62.5 196.5t170.5 71.5t171 -71.5t63 -196.5t-63 -196t-171 -71zM283 86q60 0 95 45t35 124t-35 124.5
t-95 45.5q-59 0 -94 -45.5t-35 -124.5q0 -78 35 -123.5t94 -45.5z" />
    <glyph glyph-name="odieresis" unicode="&#xf6;" horiz-adv-x="567" 
d="M194 591q-26 0 -44.5 18.5t-18.5 44.5t18.5 44.5t44.5 18.5t44.5 -18.5t18.5 -44.5t-18.5 -44.5t-44.5 -18.5zM374 591q-26 0 -44.5 18.5t-18.5 44.5t18.5 44.5t44.5 18.5t44.5 -18.5t18.5 -44.5t-18.5 -44.5t-44.5 -18.5zM283 -12q-108 0 -170.5 71t-62.5 196
t62.5 196.5t170.5 71.5t171 -71.5t63 -196.5t-63 -196t-171 -71zM283 86q60 0 95 45t35 124t-35 124.5t-95 45.5q-59 0 -94 -45.5t-35 -124.5q0 -78 35 -123.5t94 -45.5z" />
    <glyph glyph-name="divide" unicode="&#xf7;" horiz-adv-x="630" 
d="M314 471q-28 0 -46.5 18.5t-18.5 44.5t18.5 45t46.5 19t47 -19t19 -45t-19 -44.5t-47 -18.5zM80 293v100h470v-100h-470zM314 88q-28 0 -46.5 18.5t-18.5 44.5q0 27 18.5 45.5t46.5 18.5t47 -19t19 -45t-19 -44.5t-47 -18.5z" />
    <glyph glyph-name="oslash" unicode="&#xf8;" horiz-adv-x="567" 
d="M517 523l-56 -80q56 -72 56 -188q0 -125 -63 -196t-171 -71q-67 0 -119 29l-20 -29h-94l55 80q-55 71 -55 187q0 125 62.5 196.5t170.5 71.5q67 0 119 -29l20 29h95zM154 255q0 -54 17 -93l172 248q-25 15 -60 15q-59 0 -94 -45.5t-35 -124.5zM413 255q0 54 -17 94
l-173 -248q25 -15 60 -15q60 0 95 45t35 124z" />
    <glyph glyph-name="ugrave" unicode="&#xf9;" 
d="M298 576l-178 156h142l142 -156h-106zM386 0v49q-48 -61 -132 -61q-184 0 -184 218v305h104v-305q0 -61 28 -90.5t74 -29.5q110 0 110 118v307h104v-511h-104z" />
    <glyph glyph-name="uacute" unicode="&#xfa;" 
d="M153 576l142 156h142l-178 -156h-106zM386 0v49q-48 -61 -132 -61q-184 0 -184 218v305h104v-305q0 -61 28 -90.5t74 -29.5q110 0 110 118v307h104v-511h-104z" />
    <glyph glyph-name="ucircumflex" unicode="&#xfb;" 
d="M372 576l-94 79l-94 -79h-100l142 156h105l141 -156h-100zM386 0v49q-48 -61 -132 -61q-184 0 -184 218v305h104v-305q0 -61 28 -90.5t74 -29.5q110 0 110 118v307h104v-511h-104z" />
    <glyph glyph-name="udieresis" unicode="&#xfc;" 
d="M188 591q-26 0 -44.5 18.5t-18.5 44.5t18.5 44.5t44.5 18.5t44.5 -18.5t18.5 -44.5t-18.5 -44.5t-44.5 -18.5zM368 591q-26 0 -44.5 18.5t-18.5 44.5t18.5 44.5t44.5 18.5t44.5 -18.5t18.5 -44.5t-18.5 -44.5t-44.5 -18.5zM386 0v49q-48 -61 -132 -61q-184 0 -184 218
v305h104v-305q0 -61 28 -90.5t74 -29.5q110 0 110 118v307h104v-511h-104z" />
    <glyph glyph-name="yacute" unicode="&#xfd;" horiz-adv-x="538" 
d="M143 576l142 156h142l-178 -156h-106zM137 -194l79 203l-191 502h103l126 -334q9 -23 14 -45q5 22 14 45l127 334h104l-270 -705h-106z" />
    <glyph glyph-name="thorn" unicode="&#xfe;" horiz-adv-x="562" 
d="M302 -12q-78 0 -123 56v-197l-104 -48v864l104 49v-242q48 53 123 53q97 0 153.5 -71.5t56.5 -196.5q0 -124 -57.5 -195.5t-152.5 -71.5zM287 86q59 0 90 43.5t31 125.5q0 76 -32 123t-89 47q-72 0 -108 -58v-222q44 -59 108 -59z" />
    <glyph glyph-name="ydieresis" unicode="&#xff;" horiz-adv-x="538" 
d="M178 591q-26 0 -44.5 18.5t-18.5 44.5t18.5 44.5t44.5 18.5t44.5 -18.5t18.5 -44.5t-18.5 -44.5t-44.5 -18.5zM358 591q-26 0 -44.5 18.5t-18.5 44.5t18.5 44.5t44.5 18.5t44.5 -18.5t18.5 -44.5t-18.5 -44.5t-44.5 -18.5zM137 -194l79 203l-191 502h103l126 -334
q9 -23 14 -45q5 22 14 45l127 334h104l-270 -705h-106z" />
    <glyph glyph-name="Amacron" unicode="&#x100;" horiz-adv-x="696" 
d="M183 786v86h330v-86h-330zM546 0l-56 161h-283l-57 -161h-108l253 700h107l252 -700h-108zM458 253l-85 238q-18 49 -24 79q-9 -36 -24 -79l-86 -238h219z" />
    <glyph glyph-name="amacron" unicode="&#x101;" horiz-adv-x="532" 
d="M107 597v86h330v-86h-330zM367 0v44q-54 -56 -140 -56q-81 0 -131.5 44.5t-50.5 126.5q0 83 57 126t139 43q75 0 126 -30v28q0 57 -26 81t-83 24q-84 0 -146 -46l-31 85q77 53 191 53q38 0 68 -6.5t61 -25t48.5 -59.5t17.5 -101v-331h-100zM246 80q72 0 121 55v78
q-47 25 -109 25q-50 0 -81.5 -19.5t-31.5 -59.5q0 -37 26 -58t75 -21z" />
    <glyph glyph-name="Abreve" unicode="&#x102;" horiz-adv-x="696" 
d="M348 765q-91 0 -138 47t-47 119h88q0 -36 26 -59t71 -23t71.5 23.5t26.5 58.5h88q0 -72 -47.5 -119t-138.5 -47zM546 0l-56 161h-283l-57 -161h-108l253 700h107l252 -700h-108zM458 253l-85 238q-18 49 -24 79q-9 -36 -24 -79l-86 -238h219z" />
    <glyph glyph-name="abreve" unicode="&#x103;" horiz-adv-x="532" 
d="M272 576q-91 0 -138 47t-47 119h88q0 -36 26 -59t71 -23t71.5 23.5t26.5 58.5h88q0 -72 -47.5 -119t-138.5 -47zM367 0v44q-54 -56 -140 -56q-81 0 -131.5 44.5t-50.5 126.5q0 83 57 126t139 43q75 0 126 -30v28q0 57 -26 81t-83 24q-84 0 -146 -46l-31 85q77 53 191 53
q38 0 68 -6.5t61 -25t48.5 -59.5t17.5 -101v-331h-100zM246 80q72 0 121 55v78q-47 25 -109 25q-50 0 -81.5 -19.5t-31.5 -59.5q0 -37 26 -58t75 -21z" />
    <glyph glyph-name="Aogonek" unicode="&#x104;" horiz-adv-x="696" 
d="M547 -239q-55 0 -88 27.5t-33 75.5q0 92 120 136l-56 161h-283l-57 -161h-108l253 700h107l252 -700q-53 0 -97.5 -39.5t-44.5 -87.5q0 -25 14 -38.5t36 -13.5q26 0 41 19l51 -37q-38 -42 -107 -42zM239 253h219l-85 238q-18 49 -24 79q-9 -36 -24 -79z" />
    <glyph glyph-name="aogonek" unicode="&#x105;" horiz-adv-x="532" 
d="M376 -239q-55 0 -88 27.5t-33 75.5q0 90 112 136v44q-54 -56 -140 -56q-81 0 -131.5 44.5t-50.5 126.5q0 83 57 126t139 43q75 0 126 -30v28q0 57 -26 81t-83 24q-84 0 -146 -46l-31 85q77 53 191 53q38 0 68 -6.5t61 -25t48.5 -59.5t17.5 -101v-331q-59 -12 -92.5 -50
t-33.5 -77q0 -25 14 -38.5t36 -13.5q26 0 41 19l51 -37q-38 -42 -107 -42zM246 80q72 0 121 55v78q-47 25 -109 25q-50 0 -81.5 -19.5t-31.5 -59.5q0 -37 26 -58t75 -21z" />
    <glyph glyph-name="Cacute" unicode="&#x106;" horiz-adv-x="650" 
d="M249 765l142 156h142l-178 -156h-106zM356 -12q-63 0 -113.5 21t-83 56t-54.5 83t-31 98t-9 104q0 64 16 125t48.5 115.5t91 88t135.5 33.5q92 0 153 -40.5t85 -98.5l-95 -44q-27 43 -59.5 63t-83.5 20q-50 0 -87 -24t-57 -64t-29.5 -83.5t-9.5 -90.5q0 -104 47 -183
t136 -79q88 0 142 90l97 -37q-66 -153 -239 -153z" />
    <glyph glyph-name="cacute" unicode="&#x107;" horiz-adv-x="518" 
d="M147 576l142 156h142l-178 -156h-106zM273 -12q-103 0 -163 71t-60 196t60 196.5t163 71.5q149 0 193 -132l-99 -34q-25 66 -90 66q-58 0 -89.5 -44.5t-31.5 -123.5q0 -78 31 -122.5t86 -44.5q74 0 96 75l99 -31q-41 -144 -195 -144z" />
    <glyph glyph-name="Ccircumflex" unicode="&#x108;" horiz-adv-x="650" 
d="M449 765l-94 79l-94 -79h-100l142 156h105l141 -156h-100zM356 -12q-63 0 -113.5 21t-83 56t-54.5 83t-31 98t-9 104q0 64 16 125t48.5 115.5t91 88t135.5 33.5q92 0 153 -40.5t85 -98.5l-95 -44q-27 43 -59.5 63t-83.5 20q-50 0 -87 -24t-57 -64t-29.5 -83.5t-9.5 -90.5
q0 -104 47 -183t136 -79q88 0 142 90l97 -37q-66 -153 -239 -153z" />
    <glyph glyph-name="ccircumflex" unicode="&#x109;" horiz-adv-x="518" 
d="M366 576l-94 79l-94 -79h-100l142 156h105l141 -156h-100zM273 -12q-103 0 -163 71t-60 196t60 196.5t163 71.5q149 0 193 -132l-99 -34q-25 66 -90 66q-58 0 -89.5 -44.5t-31.5 -123.5q0 -78 31 -122.5t86 -44.5q74 0 96 75l99 -31q-41 -144 -195 -144z" />
    <glyph glyph-name="Cdotaccent" unicode="&#x10a;" horiz-adv-x="650" 
d="M355 780q-26 0 -44.5 18.5t-18.5 44.5t18.5 44.5t44.5 18.5t44.5 -18.5t18.5 -44.5t-18.5 -44.5t-44.5 -18.5zM356 -12q-63 0 -113.5 21t-83 56t-54.5 83t-31 98t-9 104q0 64 16 125t48.5 115.5t91 88t135.5 33.5q92 0 153 -40.5t85 -98.5l-95 -44q-27 43 -59.5 63
t-83.5 20q-50 0 -87 -24t-57 -64t-29.5 -83.5t-9.5 -90.5q0 -104 47 -183t136 -79q88 0 142 90l97 -37q-66 -153 -239 -153z" />
    <glyph glyph-name="cdotaccent" unicode="&#x10b;" horiz-adv-x="518" 
d="M272 591q-26 0 -44.5 18.5t-18.5 44.5t18.5 44.5t44.5 18.5t44.5 -18.5t18.5 -44.5t-18.5 -44.5t-44.5 -18.5zM273 -12q-103 0 -163 71t-60 196t60 196.5t163 71.5q149 0 193 -132l-99 -34q-25 66 -90 66q-58 0 -89.5 -44.5t-31.5 -123.5q0 -78 31 -122.5t86 -44.5
q74 0 96 75l99 -31q-41 -144 -195 -144z" />
    <glyph glyph-name="Ccaron" unicode="&#x10c;" horiz-adv-x="650" 
d="M407 765h-105l-141 156h100l94 -79l94 79h100zM356 -12q-63 0 -113.5 21t-83 56t-54.5 83t-31 98t-9 104q0 64 16 125t48.5 115.5t91 88t135.5 33.5q92 0 153 -40.5t85 -98.5l-95 -44q-27 43 -59.5 63t-83.5 20q-50 0 -87 -24t-57 -64t-29.5 -83.5t-9.5 -90.5
q0 -104 47 -183t136 -79q88 0 142 90l97 -37q-66 -153 -239 -153z" />
    <glyph glyph-name="ccaron" unicode="&#x10d;" horiz-adv-x="518" 
d="M324 576h-105l-141 156h100l94 -79l94 79h100zM273 -12q-103 0 -163 71t-60 196t60 196.5t163 71.5q149 0 193 -132l-99 -34q-25 66 -90 66q-58 0 -89.5 -44.5t-31.5 -123.5q0 -78 31 -122.5t86 -44.5q74 0 96 75l99 -31q-41 -144 -195 -144z" />
    <glyph glyph-name="Dcaron" unicode="&#x10e;" horiz-adv-x="685" 
d="M361 765h-105l-141 156h100l94 -79l94 79h100zM90 700h196q88 0 154.5 -30t104.5 -81t56.5 -111t18.5 -128q0 -65 -17.5 -123.5t-54.5 -111t-105.5 -84t-160.5 -31.5h-192v700zM299 98q57 0 100 22.5t67 60t35 80t11 89.5q0 105 -51 178.5t-151 73.5h-116v-504h105z" />
    <glyph glyph-name="dcaron" unicode="&#x10f;" horiz-adv-x="722" 
d="M262 -12q-97 0 -154.5 71.5t-57.5 196.5q0 124 58.5 195.5t153.5 71.5q75 0 121 -48v199l104 48v-722h-104v36q-43 -48 -121 -48zM697 712v-8q0 -141 -98 -237l-32 24q29 60 29 221h101zM277 86q70 0 106 58v225q-14 23 -41.5 39.5t-64.5 16.5q-59 0 -91 -44t-32 -125
q0 -76 33 -123t90 -47z" />
    <glyph glyph-name="Dcroat" unicode="&#x110;" horiz-adv-x="685" 
d="M90 302h-65v96h65v302h196q88 0 154.5 -30t104.5 -81t56.5 -111t18.5 -128q0 -65 -17.5 -123.5t-54.5 -111t-105.5 -84t-160.5 -31.5h-192v302zM299 98q57 0 100 22.5t67 60t35 80t11 89.5q0 105 -51 178.5t-151 73.5h-116v-204h151v-96h-151v-204h105z" />
    <glyph glyph-name="dcroat" unicode="&#x111;" horiz-adv-x="562" 
d="M487 542v-542h-104v36q-43 -48 -121 -48q-97 0 -154.5 69t-57.5 184q0 114 58.5 182t153.5 68q75 0 121 -48v99h-127v88h127v44l104 48v-92h60v-88h-60zM277 86q70 0 106 58v193q-14 23 -41.5 39.5t-64.5 16.5q-58 0 -90.5 -40.5t-32.5 -111.5q0 -65 33.5 -110t89.5 -45z
" />
    <glyph glyph-name="Emacron" unicode="&#x112;" horiz-adv-x="601" 
d="M142 786v86h330v-86h-330zM90 0v700h434v-98h-330v-192h213v-98h-213v-214h352v-98h-456z" />
    <glyph glyph-name="emacron" unicode="&#x113;" horiz-adv-x="547" 
d="M117 597v86h330v-86h-330zM282 -12q-107 0 -169.5 71.5t-62.5 196.5t63 196t169 71q96 0 158 -61t62 -178q0 -43 -4 -67h-344q1 -61 39.5 -99t89.5 -38q66 0 106 52l68 -70q-62 -74 -175 -74zM154 301h244q-1 66 -35 98t-81 32q-53 0 -88.5 -31.5t-39.5 -98.5z" />
    <glyph glyph-name="Ebreve" unicode="&#x114;" horiz-adv-x="601" 
d="M307 765q-91 0 -138 47t-47 119h88q0 -36 26 -59t71 -23t71.5 23.5t26.5 58.5h88q0 -72 -47.5 -119t-138.5 -47zM90 0v700h434v-98h-330v-192h213v-98h-213v-214h352v-98h-456z" />
    <glyph glyph-name="ebreve" unicode="&#x115;" horiz-adv-x="547" 
d="M282 576q-91 0 -138 47t-47 119h88q0 -36 26 -59t71 -23t71.5 23.5t26.5 58.5h88q0 -72 -47.5 -119t-138.5 -47zM282 -12q-107 0 -169.5 71.5t-62.5 196.5t63 196t169 71q96 0 158 -61t62 -178q0 -43 -4 -67h-344q1 -61 39.5 -99t89.5 -38q66 0 106 52l68 -70
q-62 -74 -175 -74zM154 301h244q-1 66 -35 98t-81 32q-53 0 -88.5 -31.5t-39.5 -98.5z" />
    <glyph glyph-name="Edotaccent" unicode="&#x116;" horiz-adv-x="601" 
d="M307 780q-26 0 -44.5 18.5t-18.5 44.5t18.5 44.5t44.5 18.5t44.5 -18.5t18.5 -44.5t-18.5 -44.5t-44.5 -18.5zM90 0v700h434v-98h-330v-192h213v-98h-213v-214h352v-98h-456z" />
    <glyph glyph-name="edotaccent" unicode="&#x117;" horiz-adv-x="547" 
d="M282 591q-26 0 -44.5 18.5t-18.5 44.5t18.5 44.5t44.5 18.5t44.5 -18.5t18.5 -44.5t-18.5 -44.5t-44.5 -18.5zM282 -12q-107 0 -169.5 71.5t-62.5 196.5t63 196t169 71q96 0 158 -61t62 -178q0 -43 -4 -67h-344q1 -61 39.5 -99t89.5 -38q66 0 106 52l68 -70
q-62 -74 -175 -74zM154 301h244q-1 66 -35 98t-81 32q-53 0 -88.5 -31.5t-39.5 -98.5z" />
    <glyph glyph-name="Eogonek" unicode="&#x118;" horiz-adv-x="601" 
d="M406 -239q-55 0 -88 27.5t-33 75.5q0 44 29.5 79.5t80.5 56.5h-305v700h434v-98h-330v-192h213v-98h-213v-214h352v-98h-27q-66 0 -107 -42.5t-41 -84.5q0 -25 14 -38.5t36 -13.5q26 0 41 19l51 -37q-38 -42 -107 -42z" />
    <glyph glyph-name="eogonek" unicode="&#x119;" horiz-adv-x="547" 
d="M298 -239q-55 0 -88 27.5t-33 75.5q0 79 88 124q-100 7 -157.5 77.5t-57.5 190.5q0 125 63 196t169 71q96 0 158 -61t62 -178q0 -43 -4 -67h-344q1 -61 39.5 -99t89.5 -38q66 0 106 52l68 -70q-22 -27 -86 -64q-28 -16 -40.5 -24.5t-32 -25t-27.5 -35t-8 -40.5
q0 -25 14 -38.5t36 -13.5q26 0 41 19l51 -37q-38 -42 -107 -42zM282 431q-53 0 -88.5 -31.5t-39.5 -98.5h244q-1 66 -35 98t-81 32z" />
    <glyph glyph-name="Ecaron" unicode="&#x11a;" horiz-adv-x="601" 
d="M359 765h-105l-141 156h100l94 -79l94 79h100zM90 0v700h434v-98h-330v-192h213v-98h-213v-214h352v-98h-456z" />
    <glyph glyph-name="ecaron" unicode="&#x11b;" horiz-adv-x="547" 
d="M334 576h-105l-141 156h100l94 -79l94 79h100zM282 -12q-107 0 -169.5 71.5t-62.5 196.5t63 196t169 71q96 0 158 -61t62 -178q0 -43 -4 -67h-344q1 -61 39.5 -99t89.5 -38q66 0 106 52l68 -70q-62 -74 -175 -74zM154 301h244q-1 66 -35 98t-81 32q-53 0 -88.5 -31.5
t-39.5 -98.5z" />
    <glyph glyph-name="Gcircumflex" unicode="&#x11c;" horiz-adv-x="690" 
d="M464 765l-94 79l-94 -79h-100l142 156h105l141 -156h-100zM370 -12q-78 0 -138.5 30.5t-95.5 82.5t-53 115t-18 134q0 66 19 129t55 116t96 85t135 32q92 0 146.5 -35.5t92.5 -97.5l-94 -54q-59 85 -145 85q-44 0 -78.5 -16t-56.5 -42t-36.5 -60.5t-20 -69.5t-5.5 -72
q0 -110 49.5 -185t147.5 -75q65 0 106.5 42.5t41.5 105.5v14h-126v98h233v-91q0 -128 -71.5 -199.5t-183.5 -71.5z" />
    <glyph glyph-name="gcircumflex" unicode="&#x11d;" horiz-adv-x="562" 
d="M384 576l-94 79l-94 -79h-100l142 156h105l141 -156h-100zM246 -200l-52 80q106 6 147.5 35.5t41.5 80.5v45q-43 -53 -123 -53q-92 0 -151 69.5t-59 198.5q0 124 58.5 195.5t153.5 71.5q75 0 121 -48v36h104v-478q0 -118 -59 -171t-182 -62zM279 86q68 0 104 60v221
q-16 26 -44.5 42t-59.5 16q-61 0 -93 -43.5t-32 -125.5q0 -78 33.5 -124t91.5 -46z" />
    <glyph glyph-name="Gbreve" unicode="&#x11e;" horiz-adv-x="690" 
d="M370 765q-91 0 -138 47t-47 119h88q0 -36 26 -59t71 -23t71.5 23.5t26.5 58.5h88q0 -72 -47.5 -119t-138.5 -47zM370 -12q-78 0 -138.5 30.5t-95.5 82.5t-53 115t-18 134q0 66 19 129t55 116t96 85t135 32q92 0 146.5 -35.5t92.5 -97.5l-94 -54q-59 85 -145 85
q-44 0 -78.5 -16t-56.5 -42t-36.5 -60.5t-20 -69.5t-5.5 -72q0 -110 49.5 -185t147.5 -75q65 0 106.5 42.5t41.5 105.5v14h-126v98h233v-91q0 -128 -71.5 -199.5t-183.5 -71.5z" />
    <glyph glyph-name="gbreve" unicode="&#x11f;" horiz-adv-x="562" 
d="M290 576q-91 0 -138 47t-47 119h88q0 -36 26 -59t71 -23t71.5 23.5t26.5 58.5h88q0 -72 -47.5 -119t-138.5 -47zM246 -200l-52 80q106 6 147.5 35.5t41.5 80.5v45q-43 -53 -123 -53q-92 0 -151 69.5t-59 198.5q0 124 58.5 195.5t153.5 71.5q75 0 121 -48v36h104v-478
q0 -118 -59 -171t-182 -62zM279 86q68 0 104 60v221q-16 26 -44.5 42t-59.5 16q-61 0 -93 -43.5t-32 -125.5q0 -78 33.5 -124t91.5 -46z" />
    <glyph glyph-name="Gdotaccent" unicode="&#x120;" horiz-adv-x="690" 
d="M370 780q-26 0 -44.5 18.5t-18.5 44.5t18.5 44.5t44.5 18.5t44.5 -18.5t18.5 -44.5t-18.5 -44.5t-44.5 -18.5zM370 -12q-78 0 -138.5 30.5t-95.5 82.5t-53 115t-18 134q0 66 19 129t55 116t96 85t135 32q92 0 146.5 -35.5t92.5 -97.5l-94 -54q-59 85 -145 85
q-44 0 -78.5 -16t-56.5 -42t-36.5 -60.5t-20 -69.5t-5.5 -72q0 -110 49.5 -185t147.5 -75q65 0 106.5 42.5t41.5 105.5v14h-126v98h233v-91q0 -128 -71.5 -199.5t-183.5 -71.5z" />
    <glyph glyph-name="gdotaccent" unicode="&#x121;" horiz-adv-x="562" 
d="M290 591q-26 0 -44.5 18.5t-18.5 44.5t18.5 44.5t44.5 18.5t44.5 -18.5t18.5 -44.5t-18.5 -44.5t-44.5 -18.5zM246 -200l-52 80q106 6 147.5 35.5t41.5 80.5v45q-43 -53 -123 -53q-92 0 -151 69.5t-59 198.5q0 124 58.5 195.5t153.5 71.5q75 0 121 -48v36h104v-478
q0 -118 -59 -171t-182 -62zM279 86q68 0 104 60v221q-16 26 -44.5 42t-59.5 16q-61 0 -93 -43.5t-32 -125.5q0 -78 33.5 -124t91.5 -46z" />
    <glyph glyph-name="Gcommaaccent" unicode="&#x122;" horiz-adv-x="690" 
d="M370 -12q-78 0 -138.5 30.5t-95.5 82.5t-53 115t-18 134q0 66 19 129t55 116t96 85t135 32q92 0 146.5 -35.5t92.5 -97.5l-94 -54q-59 85 -145 85q-44 0 -78.5 -16t-56.5 -42t-36.5 -60.5t-20 -69.5t-5.5 -72q0 -110 49.5 -185t147.5 -75q65 0 106.5 42.5t41.5 105.5v14
h-126v98h233v-91q0 -128 -71.5 -199.5t-183.5 -71.5zM320 -242q36 31 50 70q-27 0 -46 17.5t-19 43.5q0 29 19 47.5t45 18.5q29 0 48 -19.5t19 -52.5q0 -82 -82 -147z" />
    <glyph glyph-name="gcommaaccent" unicode="&#x123;" horiz-adv-x="562" 
d="M291 591q-29 0 -48 19.5t-19 52.5q0 82 82 147l34 -22q-36 -31 -50 -70q27 0 46 -17.5t19 -43.5q0 -29 -19 -47.5t-45 -18.5zM246 -200l-52 80q106 6 147.5 35.5t41.5 80.5v45q-43 -53 -123 -53q-92 0 -151 69.5t-59 198.5q0 124 58.5 195.5t153.5 71.5q75 0 121 -48v36
h104v-478q0 -118 -59 -171t-182 -62zM279 86q68 0 104 60v221q-16 26 -44.5 42t-59.5 16q-61 0 -93 -43.5t-32 -125.5q0 -78 33.5 -124t91.5 -46z" />
    <glyph glyph-name="Hcircumflex" unicode="&#x124;" horiz-adv-x="707" 
d="M448 765l-94 79l-94 -79h-100l142 156h105l141 -156h-100zM513 0v312h-319v-312h-104v700h104v-290h319v290h104v-700h-104z" />
    <glyph glyph-name="hcircumflex" unicode="&#x125;" 
d="M383 765l-94 79l-94 -79h-100l142 156h105l141 -156h-100zM75 0v674l104 48v-260q48 61 132 61q184 0 184 -218v-305h-104v305q0 61 -28 90.5t-74 29.5q-110 0 -110 -118v-307h-104z" />
    <glyph glyph-name="Hbar" unicode="&#x126;" horiz-adv-x="707" 
d="M513 0v312h-319v-312h-104v514h-90v98h90v88h104v-88h319v88h104v-88h90v-98h-90v-514h-104zM513 410v104h-319v-104h319z" />
    <glyph glyph-name="hbar" unicode="&#x127;" 
d="M75 0v542h-60v88h60v44l104 48v-92h142v-88h-142v-110q48 61 132 61q184 0 184 -218v-275h-104v275q0 61 -28 90.5t-74 29.5q-110 0 -110 -118v-277h-104z" />
    <glyph glyph-name="Itilde" unicode="&#x128;" horiz-adv-x="294" 
d="M226 776q-38 0 -90.5 24t-74.5 24q-44 0 -47 -44h-51q0 130 105 130q38 0 90.5 -24t74.5 -24q44 0 47 44h51q0 -130 -105 -130zM95 0v700h104v-700h-104z" />
    <glyph glyph-name="itilde" unicode="&#x129;" horiz-adv-x="256" 
d="M207 587q-38 0 -90.5 24t-74.5 24q-44 0 -47 -44h-51q0 130 105 130q38 0 90.5 -24t74.5 -24q44 0 47 44h51q0 -130 -105 -130zM76 0v511h104v-511h-104z" />
    <glyph glyph-name="Imacron" unicode="&#x12a;" horiz-adv-x="294" 
d="M-18 786v86h330v-86h-330zM95 0v700h104v-700h-104z" />
    <glyph glyph-name="imacron" unicode="&#x12b;" horiz-adv-x="256" 
d="M-37 597v86h330v-86h-330zM76 0v511h104v-511h-104z" />
    <glyph glyph-name="Ibreve" unicode="&#x12c;" horiz-adv-x="294" 
d="M147 765q-91 0 -138 47t-47 119h88q0 -36 26 -59t71 -23t71.5 23.5t26.5 58.5h88q0 -72 -47.5 -119t-138.5 -47zM95 0v700h104v-700h-104z" />
    <glyph glyph-name="ibreve" unicode="&#x12d;" horiz-adv-x="256" 
d="M128 576q-91 0 -138 47t-47 119h88q0 -36 26 -59t71 -23t71.5 23.5t26.5 58.5h88q0 -72 -47.5 -119t-138.5 -47zM76 0v511h104v-511h-104z" />
    <glyph glyph-name="Iogonek" unicode="&#x12e;" horiz-adv-x="294" 
d="M103 -239q-55 0 -88 27.5t-33 75.5q0 44 30 79.5t83 56.5v700h104v-700q-67 -19 -99 -53.5t-32 -73.5q0 -25 14 -38.5t36 -13.5q26 0 41 19l51 -37q-38 -42 -107 -42z" />
    <glyph glyph-name="iogonek" unicode="&#x12f;" horiz-adv-x="256" 
d="M128 591q-26 0 -44.5 18.5t-18.5 44.5t18.5 44.5t44.5 18.5t44.5 -18.5t18.5 -44.5t-18.5 -44.5t-44.5 -18.5zM86 -239q-55 0 -88 27.5t-33 75.5q0 90 111 136v511h104v-511q-65 -19 -97 -53.5t-32 -73.5q0 -25 14 -38.5t36 -13.5q26 0 41 19l51 -37q-38 -42 -107 -42z
" />
    <glyph glyph-name="Idotaccent" unicode="&#x130;" horiz-adv-x="294" 
d="M147 780q-26 0 -44.5 18.5t-18.5 44.5t18.5 44.5t44.5 18.5t44.5 -18.5t18.5 -44.5t-18.5 -44.5t-44.5 -18.5zM95 0v700h104v-700h-104z" />
    <glyph glyph-name="dotlessi" unicode="&#x131;" horiz-adv-x="256" 
d="M76 0v511h104v-511h-104z" />
    <glyph glyph-name="IJ" unicode="&#x132;" horiz-adv-x="859" 
d="M95 0v700h104v-700h-104zM541 -12q-76 0 -134 34t-88 98l90 44q37 -76 132 -76q58 0 93.5 34.5t35.5 126.5v451h104v-465q0 -70 -21 -120.5t-56.5 -77t-74 -38t-81.5 -11.5z" />
    <glyph glyph-name="ij" unicode="&#x133;" horiz-adv-x="512" 
d="M128 591q-26 0 -44.5 18.5t-18.5 44.5t18.5 44.5t44.5 18.5t44.5 -18.5t18.5 -44.5t-18.5 -44.5t-44.5 -18.5zM384 591q-26 0 -44.5 18.5t-18.5 44.5t18.5 44.5t44.5 18.5t44.5 -18.5t18.5 -44.5t-18.5 -44.5t-44.5 -18.5zM76 0v511h104v-511h-104zM243 -214l-50 77
q79 17 109 44t30 82v522h104v-487q0 -112 -48 -162q-53 -56 -145 -76z" />
    <glyph glyph-name="Jcircumflex" unicode="&#x134;" 
d="M523 765l-94 79l-94 -79h-100l142 156h105l141 -156h-100zM247 -12q-76 0 -134 34t-88 98l90 44q37 -76 132 -76q58 0 93.5 34.5t35.5 126.5v451h104v-465q0 -70 -21 -120.5t-56.5 -77t-74 -38t-81.5 -11.5z" />
    <glyph glyph-name="jcircumflex" unicode="&#x135;" horiz-adv-x="256" 
d="M222 576l-94 79l-94 -79h-100l142 156h105l141 -156h-100zM-13 -214l-50 77q79 17 109 44t30 82v522h104v-487q0 -112 -48 -162q-53 -56 -145 -76z" />
    <glyph glyph-name="Kcommaaccent" unicode="&#x136;" horiz-adv-x="677" 
d="M515 0l-197 366l-124 -150v-216h-104v700h104v-339l270 339h120l-196 -246l249 -454h-122zM290 -242q36 31 50 70q-27 0 -46 17.5t-19 43.5q0 29 19 47.5t45 18.5q29 0 48 -19.5t19 -52.5q0 -82 -82 -147z" />
    <glyph glyph-name="kcommaaccent" unicode="&#x137;" horiz-adv-x="550" 
d="M510 0h-114l-151 294l-66 -66v-228h-104v673l104 49v-369l151 158h128l-140 -142zM226 -242q36 31 50 70q-27 0 -46 17.5t-19 43.5q0 29 19 47.5t45 18.5q29 0 48 -19.5t19 -52.5q0 -82 -82 -147z" />
    <glyph glyph-name="kgreenlandic" unicode="&#x138;" horiz-adv-x="545" 
d="M390 0l-127 237l-84 -102v-135h-104v511h104v-237l189 237h118l-155 -191l174 -320h-115z" />
    <glyph glyph-name="Lacute" unicode="&#x139;" horiz-adv-x="561" 
d="M39 765l142 156h142l-178 -156h-106zM90 0v700h104v-600h342v-100h-446z" />
    <glyph glyph-name="lacute" unicode="&#x13a;" horiz-adv-x="264" 
d="M7 756l142 156h142l-178 -156h-106zM80 0v673l104 49v-722h-104z" />
    <glyph glyph-name="Lcommaaccent" unicode="&#x13b;" horiz-adv-x="561" 
d="M90 0v700h104v-600h342v-100h-446zM266 -242q36 31 50 70q-27 0 -46 17.5t-19 43.5q0 29 19 47.5t45 18.5q29 0 48 -19.5t19 -52.5q0 -82 -82 -147z" />
    <glyph glyph-name="lcommaaccent" unicode="&#x13c;" horiz-adv-x="264" 
d="M80 0v673l104 49v-722h-104zM83 -242q36 31 50 70q-27 0 -46 17.5t-19 43.5q0 29 19 47.5t45 18.5q29 0 48 -19.5t19 -52.5q0 -82 -82 -147z" />
    <glyph glyph-name="Lcaron" unicode="&#x13d;" horiz-adv-x="561" 
d="M195 765h-105l-141 156h100l94 -79l94 79h100zM90 0v700h104v-600h342v-100h-446z" />
    <glyph glyph-name="lcaron" unicode="&#x13e;" horiz-adv-x="419" 
d="M80 0v673l104 49v-722h-104zM394 712v-8q0 -141 -98 -237l-32 24q29 60 29 221h101z" />
    <glyph glyph-name="Ldot" unicode="&#x13f;" horiz-adv-x="561" 
d="M90 0v700h104v-600h342v-100h-446zM433 276q-32 0 -53.5 21.5t-21.5 51.5t21.5 52t53.5 22q31 0 53.5 -22t22.5 -52t-22.5 -51.5t-53.5 -21.5z" />
    <glyph glyph-name="ldot" unicode="&#x140;" horiz-adv-x="383" 
d="M80 0v673l104 49v-722h-104zM317 243q-32 0 -53.5 21.5t-21.5 51.5t21.5 52t53.5 22q31 0 53.5 -22t22.5 -52t-22.5 -51.5t-53.5 -21.5z" />
    <glyph glyph-name="Lslash" unicode="&#x141;" horiz-adv-x="561" 
d="M90 0v238l-70 -53v115l70 53v347h104v-267l131 100v-115l-131 -100v-218h342v-100h-446z" />
    <glyph glyph-name="lslash" unicode="&#x142;" horiz-adv-x="264" 
d="M80 0v239l-60 -46v97l60 46v337l104 49v-307l60 46v-97l-60 -46v-318h-104z" />
    <glyph glyph-name="Nacute" unicode="&#x143;" horiz-adv-x="710" 
d="M260 766l142 156h142l-178 -156h-106zM620 0h-98l-303 475q-14 22 -28 52q3 -48 3 -52v-475h-104v700h105l295 -467q11 -18 29 -54q-3 30 -3 53v468h104v-700z" />
    <glyph glyph-name="nacute" unicode="&#x144;" 
d="M164 576l142 156h142l-178 -156h-106zM391 0v305q0 61 -28 90.5t-74 29.5q-110 0 -110 -118v-307h-104v511h104v-49q48 61 132 61q184 0 184 -218v-305h-104z" />
    <glyph glyph-name="Ncommaaccent" unicode="&#x145;" horiz-adv-x="710" 
d="M620 0h-98l-303 475q-14 22 -28 52q3 -48 3 -52v-475h-104v700h105l295 -467q11 -18 29 -54q-3 30 -3 53v468h104v-700zM306 -242q36 31 50 70q-27 0 -46 17.5t-19 43.5q0 29 19 47.5t45 18.5q29 0 48 -19.5t19 -52.5q0 -82 -82 -147z" />
    <glyph glyph-name="ncommaaccent" unicode="&#x146;" 
d="M391 0v305q0 61 -28 90.5t-74 29.5q-110 0 -110 -118v-307h-104v511h104v-49q48 61 132 61q184 0 184 -218v-305h-104zM234 -242q36 31 50 70q-27 0 -46 17.5t-19 43.5q0 29 19 47.5t45 18.5q29 0 48 -19.5t19 -52.5q0 -82 -82 -147z" />
    <glyph glyph-name="Ncaron" unicode="&#x147;" horiz-adv-x="710" 
d="M417 765h-105l-141 156h100l94 -79l94 79h100zM620 0h-98l-303 475q-14 22 -28 52q3 -48 3 -52v-475h-104v700h105l295 -467q11 -18 29 -54q-3 30 -3 53v468h104v-700z" />
    <glyph glyph-name="ncaron" unicode="&#x148;" 
d="M341 576h-105l-141 156h100l94 -79l94 79h100zM391 0v305q0 61 -28 90.5t-74 29.5q-110 0 -110 -118v-307h-104v511h104v-49q48 61 132 61q184 0 184 -218v-305h-104z" />
    <glyph glyph-name="napostrophe" unicode="&#x149;" horiz-adv-x="753" 
d="M41 462q18 16 37.5 45.5t23.5 58.5q-27 2 -47 21.5t-20 48.5q0 33 22 54.5t52 21.5q34 0 56.5 -23.5t22.5 -67.5q0 -55 -30.5 -105t-77.5 -79zM579 0v305q0 61 -28 90.5t-74 29.5q-110 0 -110 -118v-307h-104v511h104v-49q48 61 132 61q184 0 184 -218v-305h-104z" />
    <glyph glyph-name="Eng" unicode="&#x14a;" horiz-adv-x="710" 
d="M421 -244l-50 77q79 17 109 44t30 82v60l-292 458q-14 22 -27 50q3 -48 3 -52v-475h-104v700h105l295 -467q11 -18 29 -54q-3 30 -3 53v468h104v-706q0 -108 -51 -162q-53 -55 -148 -76z" />
    <glyph glyph-name="eng" unicode="&#x14b;" 
d="M302 -244l-50 77q79 17 109 44t30 82v346q0 61 -28 90.5t-74 29.5q-110 0 -110 -118v-307h-104v511h104v-49q48 61 132 61q184 0 184 -218v-311q0 -112 -48 -162q-53 -56 -145 -76z" />
    <glyph glyph-name="Omacron" unicode="&#x14c;" horiz-adv-x="740" 
d="M205 786v86h330v-86h-330zM370 -12q-65 0 -118 21t-87 56t-57 83t-33 98t-10 104t10 104t33 98t57 83t87 56t118 21t118 -21t87 -56t57 -83t33 -98t10 -104t-10 -104t-33 -98t-57 -83t-87 -56t-118 -21zM370 88q52 0 92 24.5t62 64.5t32.5 83.5t10.5 89.5
q0 48 -10.5 92.5t-32.5 83.5t-62 62.5t-92 23.5t-92 -24.5t-62 -64.5t-32.5 -83.5t-10.5 -89.5q0 -48 10.5 -92.5t32.5 -83.5t62 -62.5t92 -23.5z" />
    <glyph glyph-name="omacron" unicode="&#x14d;" horiz-adv-x="567" 
d="M119 597v86h330v-86h-330zM283 -12q-108 0 -170.5 71t-62.5 196t62.5 196.5t170.5 71.5t171 -71.5t63 -196.5t-63 -196t-171 -71zM283 86q60 0 95 45t35 124t-35 124.5t-95 45.5q-59 0 -94 -45.5t-35 -124.5q0 -78 35 -123.5t94 -45.5z" />
    <glyph glyph-name="Obreve" unicode="&#x14e;" horiz-adv-x="740" 
d="M370 765q-91 0 -138 47t-47 119h88q0 -36 26 -59t71 -23t71.5 23.5t26.5 58.5h88q0 -72 -47.5 -119t-138.5 -47zM370 -12q-65 0 -118 21t-87 56t-57 83t-33 98t-10 104t10 104t33 98t57 83t87 56t118 21t118 -21t87 -56t57 -83t33 -98t10 -104t-10 -104t-33 -98t-57 -83
t-87 -56t-118 -21zM370 88q52 0 92 24.5t62 64.5t32.5 83.5t10.5 89.5q0 48 -10.5 92.5t-32.5 83.5t-62 62.5t-92 23.5t-92 -24.5t-62 -64.5t-32.5 -83.5t-10.5 -89.5q0 -48 10.5 -92.5t32.5 -83.5t62 -62.5t92 -23.5z" />
    <glyph glyph-name="obreve" unicode="&#x14f;" horiz-adv-x="567" 
d="M284 576q-91 0 -138 47t-47 119h88q0 -36 26 -59t71 -23t71.5 23.5t26.5 58.5h88q0 -72 -47.5 -119t-138.5 -47zM283 -12q-108 0 -170.5 71t-62.5 196t62.5 196.5t170.5 71.5t171 -71.5t63 -196.5t-63 -196t-171 -71zM283 86q60 0 95 45t35 124t-35 124.5t-95 45.5
q-59 0 -94 -45.5t-35 -124.5q0 -78 35 -123.5t94 -45.5z" />
    <glyph glyph-name="Ohungarumlaut" unicode="&#x150;" horiz-adv-x="740" 
d="M284 765h-106l142 156h142zM494 765h-106l142 156h142zM370 -12q-65 0 -118 21t-87 56t-57 83t-33 98t-10 104t10 104t33 98t57 83t87 56t118 21t118 -21t87 -56t57 -83t33 -98t10 -104t-10 -104t-33 -98t-57 -83t-87 -56t-118 -21zM370 88q52 0 92 24.5t62 64.5
t32.5 83.5t10.5 89.5q0 48 -10.5 92.5t-32.5 83.5t-62 62.5t-92 23.5t-92 -24.5t-62 -64.5t-32.5 -83.5t-10.5 -89.5q0 -48 10.5 -92.5t32.5 -83.5t62 -62.5t92 -23.5z" />
    <glyph glyph-name="ohungarumlaut" unicode="&#x151;" horiz-adv-x="567" 
d="M196 576h-106l142 156h142zM406 576h-106l142 156h142zM283 -12q-108 0 -170.5 71t-62.5 196t62.5 196.5t170.5 71.5t171 -71.5t63 -196.5t-63 -196t-171 -71zM283 86q60 0 95 45t35 124t-35 124.5t-95 45.5q-59 0 -94 -45.5t-35 -124.5q0 -78 35 -123.5t94 -45.5z" />
    <glyph glyph-name="OE" unicode="&#x152;" horiz-adv-x="894" 
d="M475 0v5q-48 -17 -105 -17q-65 0 -118 21t-87 56t-57 83t-33 98t-10 104q0 51 9 99.5t31.5 97t56.5 84.5t87.5 58.5t120.5 22.5q52 0 105 -17v5h384v-98h-280v-192h163v-98h-163v-214h302v-98h-406zM370 88q59 0 105 33v459q-44 32 -105 32q-69 0 -115.5 -43.5t-64 -100
t-17.5 -118.5q0 -49 10.5 -93.5t32.5 -83.5t62 -62t92 -23z" />
    <glyph glyph-name="oe" unicode="&#x153;" horiz-adv-x="908" 
d="M283 -12q-108 0 -170.5 71t-62.5 196t62.5 196.5t170.5 71.5q117 0 181 -84q62 84 179 84q96 0 158 -61t62 -178q0 -43 -4 -67h-344q1 -61 39 -99t90 -38q66 0 106 52l68 -70q-62 -74 -175 -74q-116 0 -179 83q-63 -83 -181 -83zM515 301h244q-1 66 -35 98t-81 32
q-53 0 -88.5 -31.5t-39.5 -98.5zM283 86q60 0 95 45t35 124t-35 124.5t-95 45.5q-59 0 -94 -45.5t-35 -124.5q0 -78 35 -123.5t94 -45.5z" />
    <glyph glyph-name="Racute" unicode="&#x154;" horiz-adv-x="676" 
d="M203 765l142 156h142l-178 -156h-106zM90 0v700h295q119 0 172.5 -59t53.5 -148q0 -67 -38.5 -122.5t-113.5 -75.5l144 -295h-119l-138 286h-152v-286h-104zM194 386h193q60 0 88 30.5t28 76.5q0 44 -26.5 75.5t-89.5 31.5h-193v-214z" />
    <glyph glyph-name="racute" unicode="&#x155;" horiz-adv-x="397" 
d="M114 576l142 156h142l-178 -156h-106zM75 0v511h104v-62q34 74 114 74q50 0 86 -31l-15 -96q-37 25 -81 25q-42 0 -73 -31.5t-31 -102.5v-287h-104z" />
    <glyph glyph-name="Rcommaaccent" unicode="&#x156;" horiz-adv-x="676" 
d="M90 0v700h295q119 0 172.5 -59t53.5 -148q0 -67 -38.5 -122.5t-113.5 -75.5l144 -295h-119l-138 286h-152v-286h-104zM194 386h193q60 0 88 30.5t28 76.5q0 44 -26.5 75.5t-89.5 31.5h-193v-214zM289 -242q36 31 50 70q-27 0 -46 17.5t-19 43.5q0 29 19 47.5t45 18.5
q29 0 48 -19.5t19 -52.5q0 -82 -82 -147z" />
    <glyph glyph-name="rcommaaccent" unicode="&#x157;" horiz-adv-x="397" 
d="M75 0v511h104v-62q34 74 114 74q50 0 86 -31l-15 -96q-37 25 -81 25q-42 0 -73 -31.5t-31 -102.5v-287h-104zM77 -262q36 31 50 70q-27 0 -46 17.5t-19 43.5q0 29 19 47.5t45 18.5q29 0 48 -19.5t19 -52.5q0 -82 -82 -147z" />
    <glyph glyph-name="Rcaron" unicode="&#x158;" horiz-adv-x="676" 
d="M380 765h-105l-141 156h100l94 -79l94 79h100zM90 0v700h295q119 0 172.5 -59t53.5 -148q0 -67 -38.5 -122.5t-113.5 -75.5l144 -295h-119l-138 286h-152v-286h-104zM194 386h193q60 0 88 30.5t28 76.5q0 44 -26.5 75.5t-89.5 31.5h-193v-214z" />
    <glyph glyph-name="rcaron" unicode="&#x159;" horiz-adv-x="397" 
d="M291 576h-105l-141 156h100l94 -79l94 79h100zM75 0v511h104v-62q34 74 114 74q50 0 86 -31l-15 -96q-37 25 -81 25q-42 0 -73 -31.5t-31 -102.5v-287h-104z" />
    <glyph glyph-name="Sacute" unicode="&#x15a;" horiz-adv-x="604" 
d="M191 765l142 156h142l-178 -156h-106zM305 -12q-93 0 -161 45.5t-94 124.5l98 36q22 -49 64 -77.5t97 -28.5q58 0 92.5 28t34.5 80q0 22 -9.5 40.5t-21.5 30.5t-37 24.5t-41.5 19t-48.5 17.5q-40 14 -60 22t-52.5 26.5t-49 37t-29.5 48.5t-13 67q0 77 60 130t163 53
q86 0 141.5 -38t74.5 -101l-96 -32q-14 32 -46.5 51.5t-81.5 19.5q-50 0 -78.5 -22t-28.5 -62q0 -27 22 -48t46 -31t73 -27q30 -11 44.5 -16.5t42.5 -18.5t43 -23.5t35 -28.5t30.5 -36.5t18 -45t7.5 -56.5q0 -98 -67 -153.5t-172 -55.5z" />
    <glyph glyph-name="sacute" unicode="&#x15b;" horiz-adv-x="475" 
d="M115 576l142 156h142l-178 -156h-106zM233 -12q-60 0 -113 22.5t-80 60.5l74 63q55 -52 117 -52q90 0 90 55q0 19 -17 35t-34 23.5t-55 22.5q-84 28 -123.5 66t-39.5 98q0 66 50.5 103.5t127.5 37.5q115 0 179 -77l-75 -60q-41 43 -104 43q-33 0 -52.5 -12.5t-19.5 -34.5
q0 -23 23.5 -37.5t75.5 -34.5q87 -29 127.5 -68t40.5 -105q0 -72 -51.5 -110.5t-140.5 -38.5z" />
    <glyph glyph-name="Scircumflex" unicode="&#x15c;" horiz-adv-x="604" 
d="M392 765l-94 79l-94 -79h-100l142 156h105l141 -156h-100zM305 -12q-93 0 -161 45.5t-94 124.5l98 36q22 -49 64 -77.5t97 -28.5q58 0 92.5 28t34.5 80q0 22 -9.5 40.5t-21.5 30.5t-37 24.5t-41.5 19t-48.5 17.5q-40 14 -60 22t-52.5 26.5t-49 37t-29.5 48.5t-13 67
q0 77 60 130t163 53q86 0 141.5 -38t74.5 -101l-96 -32q-14 32 -46.5 51.5t-81.5 19.5q-50 0 -78.5 -22t-28.5 -62q0 -27 22 -48t46 -31t73 -27q30 -11 44.5 -16.5t42.5 -18.5t43 -23.5t35 -28.5t30.5 -36.5t18 -45t7.5 -56.5q0 -98 -67 -153.5t-172 -55.5z" />
    <glyph glyph-name="scircumflex" unicode="&#x15d;" horiz-adv-x="475" 
d="M324 576l-94 79l-94 -79h-100l142 156h105l141 -156h-100zM233 -12q-60 0 -113 22.5t-80 60.5l74 63q55 -52 117 -52q90 0 90 55q0 19 -17 35t-34 23.5t-55 22.5q-84 28 -123.5 66t-39.5 98q0 66 50.5 103.5t127.5 37.5q115 0 179 -77l-75 -60q-41 43 -104 43
q-33 0 -52.5 -12.5t-19.5 -34.5q0 -23 23.5 -37.5t75.5 -34.5q87 -29 127.5 -68t40.5 -105q0 -72 -51.5 -110.5t-140.5 -38.5z" />
    <glyph glyph-name="Scedilla" unicode="&#x15e;" horiz-adv-x="604" 
d="M300 -239q-65 0 -100 38l51 37q12 -15 39 -15q22 0 36 12t14 32q0 19 -15.5 31t-38.5 12q-24 0 -40 -10l-20 25l53 66q-84 7 -144.5 51.5t-84.5 117.5l98 36q22 -49 64 -77.5t97 -28.5q58 0 92.5 28t34.5 80q0 22 -9.5 40.5t-21.5 30.5t-37 24.5t-41.5 19t-48.5 17.5
q-40 14 -60 22t-52.5 26.5t-49 37t-29.5 48.5t-13 67q0 77 60 130t163 53q86 0 141.5 -38t74.5 -101l-96 -32q-14 32 -46.5 51.5t-81.5 19.5q-50 0 -78.5 -22t-28.5 -62q0 -27 22 -48t46 -31t73 -27q30 -11 44.5 -16.5t42.5 -18.5t43 -23.5t35 -28.5t30.5 -36.5t18 -45
t7.5 -56.5q0 -89 -56.5 -144t-147.5 -63l-24 -40q55 0 82.5 -24.5t27.5 -61.5q0 -46 -34.5 -74.5t-91.5 -28.5z" />
    <glyph glyph-name="scedilla" unicode="&#x15f;" horiz-adv-x="475" 
d="M219 -239q-65 0 -100 38l51 37q12 -15 39 -15q22 0 36 12t14 32q0 19 -15.5 31t-38.5 12q-24 0 -40 -10l-20 25l54 67q-111 13 -159 81l74 63q55 -52 117 -52q90 0 90 55q0 14 -7 25t-24.5 21t-30 16t-40.5 17t-40 16q-30 13 -48 23.5t-38.5 28t-30.5 42t-10 56.5
q0 66 50.5 103.5t127.5 37.5q115 0 179 -77l-75 -60q-41 43 -104 43q-33 0 -52.5 -12.5t-19.5 -34.5q0 -8 3 -15t11 -14t14.5 -11.5t20.5 -11t22.5 -9.5t27.5 -10.5t27 -10.5q32 -13 53 -24t43.5 -30t33.5 -46t11 -63q0 -67 -44 -105t-122 -43l-24 -39q55 0 82.5 -24.5
t27.5 -61.5q0 -46 -34.5 -74.5t-91.5 -28.5z" />
    <glyph glyph-name="Scaron" unicode="&#x160;" horiz-adv-x="604" 
d="M350 765h-105l-141 156h100l94 -79l94 79h100zM305 -12q-93 0 -161 45.5t-94 124.5l98 36q22 -49 64 -77.5t97 -28.5q58 0 92.5 28t34.5 80q0 22 -9.5 40.5t-21.5 30.5t-37 24.5t-41.5 19t-48.5 17.5q-40 14 -60 22t-52.5 26.5t-49 37t-29.5 48.5t-13 67q0 77 60 130
t163 53q86 0 141.5 -38t74.5 -101l-96 -32q-14 32 -46.5 51.5t-81.5 19.5q-50 0 -78.5 -22t-28.5 -62q0 -27 22 -48t46 -31t73 -27q30 -11 44.5 -16.5t42.5 -18.5t43 -23.5t35 -28.5t30.5 -36.5t18 -45t7.5 -56.5q0 -98 -67 -153.5t-172 -55.5z" />
    <glyph glyph-name="scaron" unicode="&#x161;" horiz-adv-x="475" 
d="M282 576h-105l-141 156h100l94 -79l94 79h100zM233 -12q-60 0 -113 22.5t-80 60.5l74 63q55 -52 117 -52q90 0 90 55q0 19 -17 35t-34 23.5t-55 22.5q-84 28 -123.5 66t-39.5 98q0 66 50.5 103.5t127.5 37.5q115 0 179 -77l-75 -60q-41 43 -104 43q-33 0 -52.5 -12.5
t-19.5 -34.5q0 -23 23.5 -37.5t75.5 -34.5q87 -29 127.5 -68t40.5 -105q0 -72 -51.5 -110.5t-140.5 -38.5z" />
    <glyph glyph-name="uni0162" unicode="&#x162;" horiz-adv-x="590" 
d="M278 -239q-65 0 -100 38l51 37q12 -15 39 -15q22 0 36 12t14 32q0 19 -15.5 31t-38.5 12q-24 0 -40 -10l-20 25l62 77h-23v600h-198v100h500v-100h-198v-600h-22l-31 -50q55 0 82.5 -24.5t27.5 -61.5q0 -46 -34.5 -74.5t-91.5 -28.5z" />
    <glyph glyph-name="uni0163" unicode="&#x163;" horiz-adv-x="379" 
d="M195 -239q-65 0 -100 38l51 37q12 -15 39 -15q22 0 36 12t14 32q0 19 -15.5 31t-38.5 12q-24 0 -40 -10l-20 25l57 72q-69 21 -69 120v306h-79v90h79v161l104 50v-211h121v-90h-121v-279q0 -58 50 -58q37 0 76 24l-13 -97q-37 -18 -79 -22q-9 -1 -13 -1l-23 -38
q55 0 82.5 -24.5t27.5 -61.5q0 -46 -34.5 -74.5t-91.5 -28.5z" />
    <glyph glyph-name="Tcaron" unicode="&#x164;" horiz-adv-x="590" 
d="M347 765h-105l-141 156h100l94 -79l94 79h100zM347 600v-600h-104v600h-198v100h500v-100h-198z" />
    <glyph glyph-name="tcaron" unicode="&#x165;" horiz-adv-x="444" 
d="M419 840v-8q0 -141 -98 -237l-32 24q29 60 29 221h101zM223 -12q-114 0 -114 127v306h-79v90h79v161l104 50v-211h121v-90h-121v-279q0 -58 50 -58q37 0 76 24l-13 -97q-46 -23 -103 -23z" />
    <glyph glyph-name="Tbar" unicode="&#x166;" horiz-adv-x="580" 
d="M535 600h-193v-233h120v-98h-120v-269h-104v269h-121v98h121v233h-193v100h490v-100z" />
    <glyph glyph-name="tbar" unicode="&#x167;" horiz-adv-x="389" 
d="M228 -12q-114 0 -114 127v100h-79v90h79v116h-79v90h79v161l104 50v-211h121v-90h-121v-116h121v-90h-121v-73q0 -58 50 -58q37 0 76 24l-13 -97q-46 -23 -103 -23z" />
    <glyph glyph-name="Utilde" unicode="&#x168;" horiz-adv-x="697" 
d="M428 776q-38 0 -90.5 24t-74.5 24q-44 0 -47 -44h-51q0 130 105 130q38 0 90.5 -24t74.5 -24q44 0 47 44h51q0 -130 -105 -130zM348 -12q-119 0 -191 65.5t-72 211.5v435h104v-435q0 -98 42 -137.5t117 -39.5t117.5 39.5t42.5 137.5v435h104v-435q0 -146 -71 -211.5
t-193 -65.5z" />
    <glyph glyph-name="utilde" unicode="&#x169;" 
d="M357 587q-38 0 -90.5 24t-74.5 24q-44 0 -47 -44h-51q0 130 105 130q38 0 90.5 -24t74.5 -24q44 0 47 44h51q0 -130 -105 -130zM386 0v49q-48 -61 -132 -61q-184 0 -184 218v305h104v-305q0 -61 28 -90.5t74 -29.5q110 0 110 118v307h104v-511h-104z" />
    <glyph glyph-name="Umacron" unicode="&#x16a;" horiz-adv-x="697" 
d="M184 786v86h330v-86h-330zM348 -12q-119 0 -191 65.5t-72 211.5v435h104v-435q0 -98 42 -137.5t117 -39.5t117.5 39.5t42.5 137.5v435h104v-435q0 -146 -71 -211.5t-193 -65.5z" />
    <glyph glyph-name="umacron" unicode="&#x16b;" 
d="M113 597v86h330v-86h-330zM386 0v49q-48 -61 -132 -61q-184 0 -184 218v305h104v-305q0 -61 28 -90.5t74 -29.5q110 0 110 118v307h104v-511h-104z" />
    <glyph glyph-name="Ubreve" unicode="&#x16c;" horiz-adv-x="697" 
d="M349 765q-91 0 -138 47t-47 119h88q0 -36 26 -59t71 -23t71.5 23.5t26.5 58.5h88q0 -72 -47.5 -119t-138.5 -47zM348 -12q-119 0 -191 65.5t-72 211.5v435h104v-435q0 -98 42 -137.5t117 -39.5t117.5 39.5t42.5 137.5v435h104v-435q0 -146 -71 -211.5t-193 -65.5z" />
    <glyph glyph-name="ubreve" unicode="&#x16d;" 
d="M278 576q-91 0 -138 47t-47 119h88q0 -36 26 -59t71 -23t71.5 23.5t26.5 58.5h88q0 -72 -47.5 -119t-138.5 -47zM386 0v49q-48 -61 -132 -61q-184 0 -184 218v305h104v-305q0 -61 28 -90.5t74 -29.5q110 0 110 118v307h104v-511h-104z" />
    <glyph glyph-name="Uring" unicode="&#x16e;" horiz-adv-x="697" 
d="M349 721q-50 0 -86.5 36t-36.5 86t36.5 85.5t86.5 35.5t86.5 -35.5t36.5 -85.5t-36.5 -86t-86.5 -36zM349 796q19 0 32 13.5t13 33.5t-13 33.5t-32 13.5t-32 -13.5t-13 -33.5t13 -33.5t32 -13.5zM348 -12q-119 0 -191 65.5t-72 211.5v435h104v-435q0 -98 42 -137.5
t117 -39.5t117.5 39.5t42.5 137.5v435h104v-435q0 -146 -71 -211.5t-193 -65.5z" />
    <glyph glyph-name="uring" unicode="&#x16f;" 
d="M278 532q-50 0 -86.5 36t-36.5 86t36.5 85.5t86.5 35.5t86.5 -35.5t36.5 -85.5t-36.5 -86t-86.5 -36zM278 607q19 0 32 13.5t13 33.5t-13 33.5t-32 13.5t-32 -13.5t-13 -33.5t13 -33.5t32 -13.5zM386 0v49q-48 -61 -132 -61q-184 0 -184 218v305h104v-305q0 -61 28 -90.5
t74 -29.5q110 0 110 118v307h104v-511h-104z" />
    <glyph glyph-name="Uhungarumlaut" unicode="&#x170;" horiz-adv-x="697" 
d="M263 765h-106l142 156h142zM473 765h-106l142 156h142zM348 -12q-119 0 -191 65.5t-72 211.5v435h104v-435q0 -98 42 -137.5t117 -39.5t117.5 39.5t42.5 137.5v435h104v-435q0 -146 -71 -211.5t-193 -65.5z" />
    <glyph glyph-name="uhungarumlaut" unicode="&#x171;" 
d="M192 576h-106l142 156h142zM402 576h-106l142 156h142zM386 0v49q-48 -61 -132 -61q-184 0 -184 218v305h104v-305q0 -61 28 -90.5t74 -29.5q110 0 110 118v307h104v-511h-104z" />
    <glyph glyph-name="Uogonek" unicode="&#x172;" horiz-adv-x="697" 
d="M375 -239q-55 0 -88 27.5t-33 75.5q0 78 86 124h-7q-113 4 -180.5 70t-67.5 207v435h104v-435q0 -98 42 -137.5t117 -39.5t117.5 39.5t42.5 137.5v435h104v-435q0 -111 -39.5 -172t-112.5 -90q-120 -48 -120 -130q0 -25 14 -38.5t36 -13.5q26 0 41 19l51 -37
q-38 -42 -107 -42z" />
    <glyph glyph-name="uogonek" unicode="&#x173;" 
d="M396 -239q-55 0 -88 27.5t-33 75.5q0 90 111 136v49q-48 -61 -132 -61q-184 0 -184 218v305h104v-305q0 -61 28 -90.5t74 -29.5q110 0 110 118v307h104v-511q-65 -19 -97 -53.5t-32 -73.5q0 -25 14 -38.5t36 -13.5q26 0 41 19l51 -37q-38 -42 -107 -42z" />
    <glyph glyph-name="Wcircumflex" unicode="&#x174;" horiz-adv-x="852" 
d="M520 765l-94 79l-94 -79h-100l142 156h105l141 -156h-100zM195 0l-150 700h107l87 -431q13 -67 15 -81q1 13 18 81l110 431h87l113 -430q15 -56 18 -80q3 26 14 80l88 430h105l-151 -700h-94l-121 454q-15 54 -17 76q-2 -22 -17 -76l-118 -454h-94z" />
    <glyph glyph-name="wcircumflex" unicode="&#x175;" horiz-adv-x="726" 
d="M457 576l-94 79l-94 -79h-100l142 156h105l141 -156h-100zM171 0l-136 511h102l72 -318q7 -30 10 -52q3 19 11 52l85 318h96l85 -318q8 -33 11 -52q3 22 10 52l72 318h102l-136 -511h-92l-85 297q-12 41 -16 64q-5 -32 -15 -65l-84 -296h-92z" />
    <glyph glyph-name="Ycircumflex" unicode="&#x176;" horiz-adv-x="666" 
d="M427 765l-94 79l-94 -79h-100l142 156h105l141 -156h-100zM281 0v274l-246 426h119l179 -320l179 320h119l-246 -425v-275h-104z" />
    <glyph glyph-name="ycircumflex" unicode="&#x177;" horiz-adv-x="538" 
d="M362 576l-94 79l-94 -79h-100l142 156h105l141 -156h-100zM137 -194l79 203l-191 502h103l126 -334q9 -23 14 -45q5 22 14 45l127 334h104l-270 -705h-106z" />
    <glyph glyph-name="Ydieresis" unicode="&#x178;" horiz-adv-x="666" 
d="M243 780q-26 0 -44.5 18.5t-18.5 44.5t18.5 44.5t44.5 18.5t44.5 -18.5t18.5 -44.5t-18.5 -44.5t-44.5 -18.5zM423 780q-26 0 -44.5 18.5t-18.5 44.5t18.5 44.5t44.5 18.5t44.5 -18.5t18.5 -44.5t-18.5 -44.5t-44.5 -18.5zM281 0v274l-246 426h119l179 -320l179 320h119
l-246 -425v-275h-104z" />
    <glyph glyph-name="Zacute" unicode="&#x179;" horiz-adv-x="662" 
d="M228 765l142 156h142l-178 -156h-106zM55 0v84l404 516h-381v100h519v-84l-405 -516h405v-100h-542z" />
    <glyph glyph-name="zacute" unicode="&#x17a;" horiz-adv-x="511" 
d="M151 576l142 156h142l-178 -156h-106zM55 0v85l271 334h-251v92h376v-82l-271 -337h270v-92h-395z" />
    <glyph glyph-name="Zdotaccent" unicode="&#x17b;" horiz-adv-x="662" 
d="M338 780q-26 0 -44.5 18.5t-18.5 44.5t18.5 44.5t44.5 18.5t44.5 -18.5t18.5 -44.5t-18.5 -44.5t-44.5 -18.5zM55 0v84l404 516h-381v100h519v-84l-405 -516h405v-100h-542z" />
    <glyph glyph-name="zdotaccent" unicode="&#x17c;" horiz-adv-x="511" 
d="M256 591q-26 0 -44.5 18.5t-18.5 44.5t18.5 44.5t44.5 18.5t44.5 -18.5t18.5 -44.5t-18.5 -44.5t-44.5 -18.5zM55 0v85l271 334h-251v92h376v-82l-271 -337h270v-92h-395z" />
    <glyph glyph-name="Zcaron" unicode="&#x17d;" horiz-adv-x="662" 
d="M405 765h-105l-141 156h100l94 -79l94 79h100zM55 0v84l404 516h-381v100h519v-84l-405 -516h405v-100h-542z" />
    <glyph glyph-name="zcaron" unicode="&#x17e;" horiz-adv-x="511" 
d="M308 576h-105l-141 156h100l94 -79l94 79h100zM55 0v85l271 334h-251v92h376v-82l-271 -337h270v-92h-395z" />
    <glyph glyph-name="longs" unicode="&#x17f;" horiz-adv-x="304" 
d="M80 0v593q0 65 33 92t84 27q54 0 102 -24v-86q-43 18 -73 18q-42 0 -42 -46v-574h-104z" />
    <glyph glyph-name="florin" unicode="&#x192;" horiz-adv-x="365" 
d="M37 -244l-54 83q79 17 111 48t32 88v446h-76v90h76v82q0 65 33 92t84 27q54 0 102 -24v-84q-45 16 -73 16q-42 0 -42 -46v-63h115v-90h-115v-437q0 -96 -47 -150.5t-146 -77.5z" />
    <glyph glyph-name="uni01CD" unicode="&#x1cd;" horiz-adv-x="696" 
d="M400 765h-105l-141 156h100l94 -79l94 79h100zM546 0l-56 161h-283l-57 -161h-108l253 700h107l252 -700h-108zM458 253l-85 238q-18 49 -24 79q-9 -36 -24 -79l-86 -238h219z" />
    <glyph glyph-name="uni01CE" unicode="&#x1ce;" horiz-adv-x="532" 
d="M324 576h-105l-141 156h100l94 -79l94 79h100zM367 0v44q-54 -56 -140 -56q-81 0 -131.5 44.5t-50.5 126.5q0 83 57 126t139 43q75 0 126 -30v28q0 57 -26 81t-83 24q-84 0 -146 -46l-31 85q77 53 191 53q38 0 68 -6.5t61 -25t48.5 -59.5t17.5 -101v-331h-100zM246 80
q72 0 121 55v78q-47 25 -109 25q-50 0 -81.5 -19.5t-31.5 -59.5q0 -37 26 -58t75 -21z" />
    <glyph glyph-name="uni01CF" unicode="&#x1cf;" horiz-adv-x="294" 
d="M199 765h-105l-141 156h100l94 -79l94 79h100zM95 0v700h104v-700h-104z" />
    <glyph glyph-name="uni01D0" unicode="&#x1d0;" horiz-adv-x="256" 
d="M180 576h-105l-141 156h100l94 -79l94 79h100zM76 0v511h104v-511h-104z" />
    <glyph glyph-name="uni01D1" unicode="&#x1d1;" horiz-adv-x="740" 
d="M422 765h-105l-141 156h100l94 -79l94 79h100zM370 -12q-65 0 -118 21t-87 56t-57 83t-33 98t-10 104t10 104t33 98t57 83t87 56t118 21t118 -21t87 -56t57 -83t33 -98t10 -104t-10 -104t-33 -98t-57 -83t-87 -56t-118 -21zM370 88q52 0 92 24.5t62 64.5t32.5 83.5
t10.5 89.5q0 48 -10.5 92.5t-32.5 83.5t-62 62.5t-92 23.5t-92 -24.5t-62 -64.5t-32.5 -83.5t-10.5 -89.5q0 -48 10.5 -92.5t32.5 -83.5t62 -62.5t92 -23.5z" />
    <glyph glyph-name="uni01D2" unicode="&#x1d2;" horiz-adv-x="567" 
d="M336 576h-105l-141 156h100l94 -79l94 79h100zM283 -12q-108 0 -170.5 71t-62.5 196t62.5 196.5t170.5 71.5t171 -71.5t63 -196.5t-63 -196t-171 -71zM283 86q60 0 95 45t35 124t-35 124.5t-95 45.5q-59 0 -94 -45.5t-35 -124.5q0 -78 35 -123.5t94 -45.5z" />
    <glyph glyph-name="uni01D3" unicode="&#x1d3;" horiz-adv-x="697" 
d="M401 765h-105l-141 156h100l94 -79l94 79h100zM348 -12q-119 0 -191 65.5t-72 211.5v435h104v-435q0 -98 42 -137.5t117 -39.5t117.5 39.5t42.5 137.5v435h104v-435q0 -146 -71 -211.5t-193 -65.5z" />
    <glyph glyph-name="uni01D4" unicode="&#x1d4;" 
d="M330 576h-105l-141 156h100l94 -79l94 79h100zM386 0v49q-48 -61 -132 -61q-184 0 -184 218v305h104v-305q0 -61 28 -90.5t74 -29.5q110 0 110 118v307h104v-511h-104z" />
    <glyph glyph-name="AEacute" unicode="&#x1fc;" horiz-adv-x="848" 
d="M385 765l142 156h142l-178 -156h-106zM-12 0l406 700h391v-98h-274v-192h157v-98h-157v-214h296v-98h-400v161h-216l-91 -161h-112zM245 254h162v292q-16 -34 -41 -79z" />
    <glyph glyph-name="aeacute" unicode="&#x1fd;" horiz-adv-x="858" 
d="M328 576l142 156h142l-178 -156h-106zM227 -12q-81 0 -131.5 44.5t-50.5 126.5q0 83 57 126t139 43q75 0 126 -30v28q0 57 -26 81t-83 24q-84 0 -146 -46l-31 85q77 53 191 53q112 0 156 -66q63 66 165 66q96 0 158 -61t62 -178q0 -43 -4 -67h-343q1 -61 39 -99t89 -38
q66 0 106 52l68 -70q-62 -74 -175 -74q-115 0 -179 81q-78 -81 -187 -81zM466 305h242q-1 63 -35 94.5t-80 31.5q-53 0 -88 -31t-39 -95zM246 80q72 0 121 55v78q-47 25 -109 25q-50 0 -81.5 -19.5t-31.5 -59.5q0 -37 26 -58t75 -21z" />
    <glyph glyph-name="Oslashacute" unicode="&#x1fe;" horiz-adv-x="730" 
d="M239 765l142 156h142l-178 -156h-106zM65 -12l71 104q-76 99 -76 258q0 54 10 104t33 98t57 83t87 56t118 21q95 0 164 -45l31 45h105l-72 -105q77 -100 77 -257q0 -54 -10 -104t-33 -98t-57 -83t-87 -56t-118 -21q-95 0 -164 45l-31 -45h-105zM203 189l267 391
q-45 32 -105 32q-52 0 -92 -24.5t-62 -64.5t-32.5 -83.5t-10.5 -89.5q0 -94 35 -161zM365 88q52 0 92 24.5t62 64.5t32.5 83.5t10.5 89.5q0 94 -35 160l-267 -390q45 -32 105 -32z" />
    <glyph glyph-name="oslashacute" unicode="&#x1ff;" horiz-adv-x="567" 
d="M442 732l-178 -156h-106l142 156h142zM517 523l-56 -80q56 -72 56 -188q0 -125 -63 -196t-171 -71q-67 0 -119 29l-20 -29h-94l55 80q-55 71 -55 187q0 125 62.5 196.5t170.5 71.5q67 0 119 -29l20 29h95zM154 255q0 -54 17 -93l172 248q-25 15 -60 15q-59 0 -94 -45.5
t-35 -124.5zM413 255q0 54 -17 94l-173 -248q25 -15 60 -15q60 0 95 45t35 124z" />
    <glyph glyph-name="Scommaaccent" unicode="&#x218;" horiz-adv-x="604" 
d="M305 -12q-93 0 -161 45.5t-94 124.5l98 36q22 -49 64 -77.5t97 -28.5q58 0 92.5 28t34.5 80q0 22 -9.5 40.5t-21.5 30.5t-37 24.5t-41.5 19t-48.5 17.5q-40 14 -60 22t-52.5 26.5t-49 37t-29.5 48.5t-13 67q0 77 60 130t163 53q86 0 141.5 -38t74.5 -101l-96 -32
q-14 32 -46.5 51.5t-81.5 19.5q-50 0 -78.5 -22t-28.5 -62q0 -27 22 -48t46 -31t73 -27q30 -11 44.5 -16.5t42.5 -18.5t43 -23.5t35 -28.5t30.5 -36.5t18 -45t7.5 -56.5q0 -98 -67 -153.5t-172 -55.5zM253 -242q36 31 50 70q-27 0 -46 17.5t-19 43.5q0 29 19 47.5t45 18.5
q29 0 48 -19.5t19 -52.5q0 -82 -82 -147z" />
    <glyph glyph-name="scommaaccent" unicode="&#x219;" horiz-adv-x="475" 
d="M233 -12q-60 0 -113 22.5t-80 60.5l74 63q55 -52 117 -52q90 0 90 55q0 19 -17 35t-34 23.5t-55 22.5q-84 28 -123.5 66t-39.5 98q0 66 50.5 103.5t127.5 37.5q115 0 179 -77l-75 -60q-41 43 -104 43q-33 0 -52.5 -12.5t-19.5 -34.5q0 -23 23.5 -37.5t75.5 -34.5
q87 -29 127.5 -68t40.5 -105q0 -72 -51.5 -110.5t-140.5 -38.5zM187 -242q36 31 50 70q-27 0 -46 17.5t-19 43.5q0 29 19 47.5t45 18.5q29 0 48 -19.5t19 -52.5q0 -82 -82 -147z" />
    <glyph glyph-name="uni021A" unicode="&#x21a;" horiz-adv-x="590" 
d="M347 600v-600h-104v600h-198v100h500v-100h-198zM246 -242q36 31 50 70q-27 0 -46 17.5t-19 43.5q0 29 19 47.5t45 18.5q29 0 48 -19.5t19 -52.5q0 -82 -82 -147z" />
    <glyph glyph-name="uni021B" unicode="&#x21b;" horiz-adv-x="379" 
d="M223 -12q-114 0 -114 127v306h-79v90h79v161l104 50v-211h121v-90h-121v-279q0 -58 50 -58q37 0 76 24l-13 -97q-46 -23 -103 -23zM168 -242q36 31 50 70q-27 0 -46 17.5t-19 43.5q0 29 19 47.5t45 18.5q29 0 48 -19.5t19 -52.5q0 -82 -82 -147z" />
    <glyph glyph-name="uni0237" unicode="&#x237;" horiz-adv-x="256" 
d="M-13 -214l-50 77q79 17 109 44t30 82v522h104v-487q0 -112 -48 -162q-53 -56 -145 -76z" />
    <glyph glyph-name="circumflex" unicode="&#x2c6;" horiz-adv-x="400" 
d="M294 576l-94 79l-94 -79h-100l142 156h105l141 -156h-100z" />
    <glyph glyph-name="caron" unicode="&#x2c7;" horiz-adv-x="400" 
d="M252 576h-105l-141 156h100l94 -79l94 79h100z" />
    <glyph glyph-name="uni02C9" unicode="&#x2c9;" horiz-adv-x="400" 
d="M35 597v86h330v-86h-330z" />
    <glyph glyph-name="breve" unicode="&#x2d8;" horiz-adv-x="400" 
d="M200 576q-91 0 -138 47t-47 119h88q0 -36 26 -59t71 -23t71.5 23.5t26.5 58.5h88q0 -72 -47.5 -119t-138.5 -47z" />
    <glyph glyph-name="dotaccent" unicode="&#x2d9;" horiz-adv-x="400" 
d="M200 591q-26 0 -44.5 18.5t-18.5 44.5t18.5 44.5t44.5 18.5t44.5 -18.5t18.5 -44.5t-18.5 -44.5t-44.5 -18.5z" />
    <glyph glyph-name="ring" unicode="&#x2da;" horiz-adv-x="400" 
d="M200 532q-50 0 -86.5 36t-36.5 86t36.5 85.5t86.5 35.5t86.5 -35.5t36.5 -85.5t-36.5 -86t-86.5 -36zM200 607q19 0 32 13.5t13 33.5t-13 33.5t-32 13.5t-32 -13.5t-13 -33.5t13 -33.5t32 -13.5z" />
    <glyph glyph-name="ogonek" unicode="&#x2db;" horiz-adv-x="400" 
d="M207 -239q-55 0 -88 27.5t-33 75.5q0 49 36 87t101 59h75q-64 -26 -95 -62.5t-31 -74.5q0 -25 14 -38.5t36 -13.5q26 0 41 19l51 -37q-38 -42 -107 -42z" />
    <glyph glyph-name="tilde" unicode="&#x2dc;" horiz-adv-x="400" 
d="M279 587q-38 0 -90.5 24t-74.5 24q-44 0 -47 -44h-51q0 130 105 130q38 0 90.5 -24t74.5 -24q44 0 47 44h51q0 -130 -105 -130z" />
    <glyph glyph-name="hungarumlaut" unicode="&#x2dd;" horiz-adv-x="400" 
d="M114 576h-106l142 156h142zM324 576h-106l142 156h142z" />
    <glyph glyph-name="uni0312" unicode="&#x312;" horiz-adv-x="0" 
d="M-200 591q-29 0 -48 19.5t-19 52.5q0 82 82 147l34 -22q-36 -31 -50 -70q27 0 46 -17.5t19 -43.5q0 -29 -19 -47.5t-45 -18.5z" />
    <glyph glyph-name="uni0326" unicode="&#x326;" horiz-adv-x="0" 
d="M-249 -242q36 31 50 70q-27 0 -46 17.5t-19 43.5q0 29 19 47.5t45 18.5q29 0 48 -19.5t19 -52.5q0 -82 -82 -147z" />
    <glyph glyph-name="uni03A9" unicode="&#x3a9;" horiz-adv-x="750" 
d="M427 0v91q69 74 99.5 139.5t30.5 158.5q0 43 -9.5 81t-30 70.5t-57 52t-85.5 19.5q-94 0 -138 -65.5t-44 -158.5q0 -92 30.5 -157.5t99.5 -139.5v-91h-243v100h142q-137 102 -137 290q0 47 9.5 91t31 86.5t54 74.5t83 51t112.5 19t112.5 -19t83 -51t54 -74.5t31 -86.5
t9.5 -91q0 -187 -138 -290h143v-100h-243z" />
    <glyph glyph-name="uni03BC" unicode="&#x3bc;" 
d="M386 0v49q-48 -61 -122 -61q-59 0 -90 41v-180l-104 -49v711h104v-305q0 -67 26 -93.5t76 -26.5q110 0 110 118v307h104v-511h-104z" />
    <glyph glyph-name="pi" unicode="&#x3c0;" horiz-adv-x="659" 
d="M508 -12q-114 0 -114 127v288h-139v-38q0 -154 -27.5 -247.5t-109.5 -139.5l-88 69q29 18 47.5 35t38.5 47.5t30 79.5t10 116v78h-93v108h554v-108h-119v-263q0 -58 50 -58q37 0 76 24l-15 -95q-46 -23 -101 -23z" />
    <glyph glyph-name="Wgrave" unicode="&#x1e80;" horiz-adv-x="852" 
d="M446 765l-178 156h142l142 -156h-106zM195 0l-150 700h107l87 -431q13 -67 15 -81q1 13 18 81l110 431h87l113 -430q15 -56 18 -80q3 26 14 80l88 430h105l-151 -700h-94l-121 454q-15 54 -17 76q-2 -22 -17 -76l-118 -454h-94z" />
    <glyph glyph-name="wgrave" unicode="&#x1e81;" horiz-adv-x="726" 
d="M383 576l-178 156h142l142 -156h-106zM171 0l-136 511h102l72 -318q7 -30 10 -52q3 19 11 52l85 318h96l85 -318q8 -33 11 -52q3 22 10 52l72 318h102l-136 -511h-92l-85 297q-12 41 -16 64q-5 -32 -15 -65l-84 -296h-92z" />
    <glyph glyph-name="Wacute" unicode="&#x1e82;" horiz-adv-x="852" 
d="M301 765l142 156h142l-178 -156h-106zM195 0l-150 700h107l87 -431q13 -67 15 -81q1 13 18 81l110 431h87l113 -430q15 -56 18 -80q3 26 14 80l88 430h105l-151 -700h-94l-121 454q-15 54 -17 76q-2 -22 -17 -76l-118 -454h-94z" />
    <glyph glyph-name="wacute" unicode="&#x1e83;" horiz-adv-x="726" 
d="M238 576l142 156h142l-178 -156h-106zM171 0l-136 511h102l72 -318q7 -30 10 -52q3 19 11 52l85 318h96l85 -318q8 -33 11 -52q3 22 10 52l72 318h102l-136 -511h-92l-85 297q-12 41 -16 64q-5 -32 -15 -65l-84 -296h-92z" />
    <glyph glyph-name="Wdieresis" unicode="&#x1e84;" horiz-adv-x="852" 
d="M336 780q-26 0 -44.5 18.5t-18.5 44.5t18.5 44.5t44.5 18.5t44.5 -18.5t18.5 -44.5t-18.5 -44.5t-44.5 -18.5zM516 780q-26 0 -44.5 18.5t-18.5 44.5t18.5 44.5t44.5 18.5t44.5 -18.5t18.5 -44.5t-18.5 -44.5t-44.5 -18.5zM195 0l-150 700h107l87 -431q13 -67 15 -81
q1 13 18 81l110 431h87l113 -430q15 -56 18 -80q3 26 14 80l88 430h105l-151 -700h-94l-121 454q-15 54 -17 76q-2 -22 -17 -76l-118 -454h-94z" />
    <glyph glyph-name="wdieresis" unicode="&#x1e85;" horiz-adv-x="726" 
d="M273 591q-26 0 -44.5 18.5t-18.5 44.5t18.5 44.5t44.5 18.5t44.5 -18.5t18.5 -44.5t-18.5 -44.5t-44.5 -18.5zM453 591q-26 0 -44.5 18.5t-18.5 44.5t18.5 44.5t44.5 18.5t44.5 -18.5t18.5 -44.5t-18.5 -44.5t-44.5 -18.5zM171 0l-136 511h102l72 -318q7 -30 10 -52
q3 19 11 52l85 318h96l85 -318q8 -33 11 -52q3 22 10 52l72 318h102l-136 -511h-92l-85 297q-12 41 -16 64q-5 -32 -15 -65l-84 -296h-92z" />
    <glyph glyph-name="Ygrave" unicode="&#x1ef2;" horiz-adv-x="666" 
d="M320 765l-178 156h142l142 -156h-106zM281 0v274l-246 426h119l179 -320l179 320h119l-246 -425v-275h-104z" />
    <glyph glyph-name="ygrave" unicode="&#x1ef3;" horiz-adv-x="538" 
d="M288 576l-178 156h142l142 -156h-106zM137 -194l79 203l-191 502h103l126 -334q9 -23 14 -45q5 22 14 45l127 334h104l-270 -705h-106z" />
    <glyph glyph-name="endash" unicode="&#x2013;" horiz-adv-x="495" 
d="M50 242v90h395v-90h-395z" />
    <glyph glyph-name="emdash" unicode="&#x2014;" horiz-adv-x="575" 
d="M-5 242v90h585v-90h-585z" />
    <glyph glyph-name="uni2015" unicode="&#x2015;" horiz-adv-x="575" 
d="M-5 242v90h585v-90h-585z" />
    <glyph glyph-name="quoteleft" unicode="&#x2018;" horiz-adv-x="223" 
d="M114 437q-34 0 -56.5 23.5t-22.5 67.5q0 55 30.5 105t77.5 79l39 -25q-18 -16 -37.5 -45.5t-23.5 -58.5q27 -2 47 -21.5t20 -48.5q0 -33 -22 -54.5t-52 -21.5z" />
    <glyph glyph-name="quoteright" unicode="&#x2019;" horiz-adv-x="223" 
d="M41 462q18 16 37.5 45.5t23.5 58.5q-27 2 -47 21.5t-20 48.5q0 33 22 54.5t52 21.5q34 0 56.5 -23.5t22.5 -67.5q0 -55 -30.5 -105t-77.5 -79z" />
    <glyph glyph-name="quotesinglbase" unicode="&#x201a;" horiz-adv-x="223" 
d="M41 -116q18 16 37.5 45.5t23.5 58.5q-27 2 -47 21.5t-20 48.5q0 33 22 54.5t52 21.5q34 0 56.5 -23.5t22.5 -67.5q0 -55 -30.5 -105t-77.5 -79z" />
    <glyph glyph-name="quotereversed" unicode="&#x201b;" horiz-adv-x="223" 
d="M143 437q-47 29 -77.5 79t-30.5 105q0 44 22.5 67.5t56.5 23.5q30 0 52 -21.5t22 -54.5q0 -29 -20 -48.5t-47 -21.5q4 -29 23.5 -58.5t37.5 -45.5z" />
    <glyph glyph-name="quotedblleft" unicode="&#x201c;" horiz-adv-x="446" 
d="M114 437q-34 0 -56.5 23.5t-22.5 67.5q0 55 30.5 105t77.5 79l39 -25q-18 -16 -37.5 -45.5t-23.5 -58.5q27 -2 47 -21.5t20 -48.5q0 -33 -22 -54.5t-52 -21.5zM337 437q-34 0 -56.5 23.5t-22.5 67.5q0 55 30.5 105t77.5 79l39 -25q-18 -16 -37.5 -45.5t-23.5 -58.5
q27 -2 47 -21.5t20 -48.5q0 -33 -22 -54.5t-52 -21.5z" />
    <glyph glyph-name="quotedblright" unicode="&#x201d;" horiz-adv-x="446" 
d="M41 462q18 16 37.5 45.5t23.5 58.5q-27 2 -47 21.5t-20 48.5q0 33 22 54.5t52 21.5q34 0 56.5 -23.5t22.5 -67.5q0 -55 -30.5 -105t-77.5 -79zM264 462q18 16 37.5 45.5t23.5 58.5q-27 2 -47 21.5t-20 48.5q0 33 22 54.5t52 21.5q34 0 56.5 -23.5t22.5 -67.5
q0 -55 -30.5 -105t-77.5 -79z" />
    <glyph glyph-name="quotedblbase" unicode="&#x201e;" horiz-adv-x="446" 
d="M41 -116q18 16 37.5 45.5t23.5 58.5q-27 2 -47 21.5t-20 48.5q0 33 22 54.5t52 21.5q34 0 56.5 -23.5t22.5 -67.5q0 -55 -30.5 -105t-77.5 -79zM264 -116q18 16 37.5 45.5t23.5 58.5q-27 2 -47 21.5t-20 48.5q0 33 22 54.5t52 21.5q34 0 56.5 -23.5t22.5 -67.5
q0 -55 -30.5 -105t-77.5 -79z" />
    <glyph glyph-name="dagger" unicode="&#x2020;" horiz-adv-x="560" 
d="M322 439l10 -103l-31 -477h-40l-33 477l9 103l-117 -16h-55v100h55l116 -17l-8 81v125h104v-125l-9 -81l117 17h55v-100h-55z" />
    <glyph glyph-name="daggerdbl" unicode="&#x2021;" horiz-adv-x="560" 
d="M495 48h-55l-117 17l9 -81v-125h-104v125l8 81l-116 -17h-55v100h55l117 -16l-9 103v101l9 103l-117 -16h-55v100h55l116 -17l-8 81v125h104v-125l-9 -81l117 17h55v-100h-55l-118 16l10 -103v-101l-10 -103l118 16h55v-100z" />
    <glyph glyph-name="bullet" unicode="&#x2022;" horiz-adv-x="406" 
d="M202 213q-60 0 -101 40t-41 97q0 58 41 98.5t101 40.5t102 -41t42 -98t-41.5 -97t-102.5 -40z" />
    <glyph glyph-name="ellipsis" unicode="&#x2026;" horiz-adv-x="933" 
d="M155 -12q-28 0 -46.5 18.5t-18.5 44.5q0 27 19 45.5t46 18.5q28 0 47 -19t19 -45t-19 -44.5t-47 -18.5zM466 -12q-28 0 -46.5 18.5t-18.5 44.5q0 27 18.5 45.5t46.5 18.5t47 -19t19 -45t-19 -44.5t-47 -18.5zM777 -12q-28 0 -46.5 18.5t-18.5 44.5q0 27 19 45.5t46 18.5
q28 0 47 -19t19 -45t-19 -44.5t-47 -18.5z" />
    <glyph glyph-name="perthousand" unicode="&#x2030;" horiz-adv-x="1241" 
d="M209 356q-83 0 -123.5 53t-40.5 125q0 69 40.5 123.5t123.5 54.5t123.5 -53t40.5 -125q0 -43 -14.5 -81t-53 -67.5t-96.5 -29.5zM234 -12h-95l478 724h95zM209 436q39 0 59.5 28t20.5 70q0 44 -20.5 71t-59.5 27t-59.5 -27.5t-20.5 -70.5q0 -44 20.5 -71t59.5 -27z
M642 -12q-83 0 -123.5 53t-40.5 125q0 69 40.5 123.5t123.5 54.5t123.5 -53t40.5 -125q0 -43 -14.5 -81t-53 -67.5t-96.5 -29.5zM1032 -12q-83 0 -123.5 53t-40.5 125q0 69 40.5 123.5t123.5 54.5t123.5 -53t40.5 -125q0 -43 -14.5 -81t-53 -67.5t-96.5 -29.5zM642 68
q39 0 59.5 28t20.5 70q0 44 -20.5 71t-59.5 27t-59.5 -27.5t-20.5 -70.5q0 -44 20.5 -71t59.5 -27zM1032 68q39 0 59.5 28t20.5 70q0 44 -20.5 71t-59.5 27t-59.5 -27.5t-20.5 -70.5q0 -44 20.5 -71t59.5 -27z" />
    <glyph glyph-name="minute" unicode="&#x2032;" horiz-adv-x="220" 
d="M35 410l20 320h130l-62 -320h-88z" />
    <glyph glyph-name="second" unicode="&#x2033;" horiz-adv-x="420" 
d="M35 410l20 320h130l-62 -320h-88zM235 410l20 320h130l-62 -320h-88z" />
    <glyph glyph-name="guilsinglleft" unicode="&#x2039;" horiz-adv-x="310" 
d="M182 0l-152 256l152 255h113l-152 -255l152 -256h-113z" />
    <glyph glyph-name="guilsinglright" unicode="&#x203a;" horiz-adv-x="310" 
d="M15 0l152 256l-152 255h113l152 -255l-152 -256h-113z" />
    <glyph glyph-name="fraction" unicode="&#x2044;" horiz-adv-x="333" 
d="M-120 -12l478 724h95l-478 -724h-95z" />
    <glyph glyph-name="uni207F" unicode="&#x207f;" horiz-adv-x="459" 
d="M313 283v246q0 98 -77 98q-84 0 -84 -96v-248h-92v419h92v-44q39 54 112 54q140 0 140 -179v-250h-91z" />
    <glyph glyph-name="afii08941" unicode="&#x20a4;" horiz-adv-x="589" 
d="M80 0v93q63 33 77 115h-82v88h89q-2 29 -17 66h-72v88h37q-7 24 -7 61q0 83 60 142t172 59q117 0 213 -70l-41 -99q-24 21 -39.5 32t-52.5 24t-80 13q-62 0 -93 -29.5t-31 -71.5q0 -30 13 -61h198v-88h-163q10 -32 11 -66h152v-88h-161q-19 -63 -74 -108h370v-100h-479z
" />
    <glyph glyph-name="Euro" unicode="&#x20ac;" horiz-adv-x="630" 
d="M381 -12q-204 0 -250 229h-92l37 88h44q-1 15 -1 45q0 20 1 31h-80l37 88h54q22 106 85.5 174.5t174.5 68.5q100 0 183 -60l-41 -99q-67 59 -142 59q-116 0 -151 -143h258l-37 -88h-233q-1 -11 -1 -31q0 -30 1 -45h204l-37 -88h-153q33 -129 139 -129q73 0 122 72l87 -54
q-70 -118 -209 -118z" />
    <glyph glyph-name="uni2105" unicode="&#x2105;" horiz-adv-x="1038" 
d="M235 272q-88 0 -136.5 58t-48.5 162q0 103 49.5 161.5t134.5 58.5q125 0 162 -111l-87 -29q-18 55 -70 55q-47 0 -73 -36t-26 -99q0 -62 25.5 -98t68.5 -36q58 0 77 61l84 -26q-34 -121 -160 -121zM218 -12l478 724h95l-478 -724h-95zM795 -12q-88 0 -139.5 58t-51.5 161
t51.5 161.5t139.5 58.5t140.5 -58.5t52.5 -161.5t-52 -161t-141 -58zM795 73q49 0 75.5 35.5t26.5 98.5q0 64 -26.5 99.5t-75.5 35.5q-47 0 -74 -35.5t-27 -99.5q0 -63 27 -98.5t74 -35.5z" />
    <glyph glyph-name="uni2113" unicode="&#x2113;" horiz-adv-x="465" 
d="M245 -12q-50 0 -81 30t-31 94v110q-19 -11 -45 -23l-33 83q42 17 78 41v180q0 114 36.5 161.5t106.5 47.5q63 0 103.5 -39.5t40.5 -111.5q0 -35 -7.5 -67t-24.5 -60t-31 -47.5t-41 -43t-39.5 -33.5t-39.5 -31v-130q0 -39 12.5 -52t39.5 -13q39 0 68 38l29 -68
q-24 -30 -62 -48t-79 -18zM277 627q-23 0 -31.5 -23.5t-8.5 -94.5v-124q79 73 79 161q0 81 -39 81z" />
    <glyph glyph-name="uni2116" unicode="&#x2116;" horiz-adv-x="1184" 
d="M916 273q-88 0 -139.5 58t-51.5 161t51.5 161.5t139.5 58.5t140.5 -58.5t52.5 -161.5t-52 -161t-141 -58zM620 0h-98l-303 475q-14 22 -28 52q3 -48 3 -52v-475h-104v700h105l295 -467q11 -18 29 -54q-3 30 -3 53v468h104v-700zM916 358q49 0 75.5 35.5t26.5 98.5
q0 64 -26.5 99.5t-75.5 35.5q-47 0 -74 -35.5t-27 -99.5q0 -63 27 -98.5t74 -35.5zM725 118v78h384v-78h-384z" />
    <glyph glyph-name="trademark" unicode="&#x2122;" horiz-adv-x="801" 
d="M132 278v350h-112v72h298v-72h-111v-350h-75zM731 278h-74v246l-9 -25l-104 -227l-105 227l-10 28v-249h-75v422h73l109 -235l7 -20l7 20l109 235h72v-422z" />
    <glyph glyph-name="uni2126" unicode="&#x2126;" horiz-adv-x="750" 
d="M427 0v91q69 74 99.5 139.5t30.5 158.5q0 43 -9.5 81t-30 70.5t-57 52t-85.5 19.5q-94 0 -138 -65.5t-44 -158.5q0 -92 30.5 -157.5t99.5 -139.5v-91h-243v100h142q-137 102 -137 290q0 47 9.5 91t31 86.5t54 74.5t83 51t112.5 19t112.5 -19t83 -51t54 -74.5t31 -86.5
t9.5 -91q0 -187 -138 -290h143v-100h-243z" />
    <glyph glyph-name="estimated" unicode="&#x212e;" horiz-adv-x="810" 
d="M410 -12q-145 0 -245 100t-100 262q0 89 29 160t78 115t111 67t130 23q135 0 229.5 -96.5t102.5 -274.5h-509v-216q24 -30 69.5 -50.5t105.5 -20.5q149 0 235 134l57 -35q-54 -83 -123 -125.5t-170 -42.5zM236 413l343 1v160q-27 31 -72.5 51.5t-96.5 20.5
q-107 0 -174 -64v-169z" />
    <glyph glyph-name="uni2153" unicode="&#x2153;" horiz-adv-x="725" 
d="M10 -12l478 724h95l-478 -724h-95zM70 283v334h-55v61q54 0 71 27h66v-422h-82zM543 -8q-57 0 -96.5 32.5t-56.5 90.5l82 22q8 -33 28.5 -50t45.5 -17q26 0 43 14.5t17 39.5q0 23 -16 38.5t-48 15.5h-31v78h30q25 0 37.5 13t12.5 34t-12.5 34.5t-35.5 13.5q-41 0 -58 -49
l-80 29q19 45 55 71.5t85 26.5q60 0 96 -35.5t36 -86.5q0 -55 -49 -87q30 -13 47 -39.5t17 -57.5q0 -60 -41 -95.5t-108 -35.5z" />
    <glyph glyph-name="uni2154" unicode="&#x2154;" horiz-adv-x="885" 
d="M25 283q0 84 41 143.5t106 93.5q21 11 31 17.5t19.5 19.5t9.5 28q0 21 -15 35t-42 14q-57 0 -70 -65l-81 19q11 54 53 89t98 35q66 0 105 -36t39 -93q0 -27 -8 -47t-26 -36.5t-34 -26.5t-46 -25q-58 -30 -83 -87h196v-78h-293zM170 -12l478 724h95l-478 -724h-95zM703 -8
q-57 0 -96.5 32.5t-56.5 90.5l82 22q8 -33 28.5 -50t45.5 -17q26 0 43 14.5t17 39.5q0 23 -16 38.5t-48 15.5h-31v78h30q25 0 37.5 13t12.5 34t-12.5 34.5t-35.5 13.5q-41 0 -58 -49l-80 29q19 45 55 71.5t85 26.5q60 0 96 -35.5t36 -86.5q0 -55 -49 -87q30 -13 47 -39.5
t17 -57.5q0 -60 -41 -95.5t-108 -35.5z" />
    <glyph glyph-name="oneeighth" unicode="&#x215b;" horiz-adv-x="725" 
d="M10 -12l478 724h95l-478 -724h-95zM70 283v334h-55v61q54 0 71 27h66v-422h-82zM542 -8q-67 0 -108.5 37.5t-41.5 98.5q0 65 61 102q-43 31 -43 82q0 53 36.5 85t95.5 32q60 0 96 -32t36 -85q0 -51 -42 -82q60 -37 60 -102q0 -61 -41 -98.5t-109 -37.5zM542 267
q23 0 37 13t14 32t-14 32t-37 13q-21 0 -36 -13.5t-15 -31.5q0 -19 14.5 -32t36.5 -13zM542 68q30 0 48.5 17t18.5 43q0 27 -18.5 45t-48.5 18q-29 0 -48 -18t-19 -45q0 -26 19 -43t48 -17z" />
    <glyph glyph-name="threeeighths" unicode="&#x215c;" horiz-adv-x="845" 
d="M165 275q-57 0 -96.5 32.5t-56.5 90.5l82 22q8 -33 28.5 -50t45.5 -17q26 0 43 14.5t17 39.5q0 23 -16 38.5t-48 15.5h-31v78h30q25 0 37.5 13t12.5 34t-12.5 34.5t-35.5 13.5q-41 0 -58 -49l-80 29q19 45 55 71.5t85 26.5q60 0 96 -35.5t36 -86.5q0 -55 -49 -87
q30 -13 47 -39.5t17 -57.5q0 -60 -41 -95.5t-108 -35.5zM130 -12l478 724h95l-478 -724h-95zM662 -8q-67 0 -108.5 37.5t-41.5 98.5q0 65 61 102q-43 31 -43 82q0 53 36.5 85t95.5 32q60 0 96 -32t36 -85q0 -51 -42 -82q60 -37 60 -102q0 -61 -41 -98.5t-109 -37.5zM662 267
q23 0 37 13t14 32t-14 32t-37 13q-21 0 -36 -13.5t-15 -31.5q0 -19 14.5 -32t36.5 -13zM662 68q30 0 48.5 17t18.5 43q0 27 -18.5 45t-48.5 18q-29 0 -48 -18t-19 -45q0 -26 19 -43t48 -17z" />
    <glyph glyph-name="fiveeighths" unicode="&#x215d;" horiz-adv-x="845" 
d="M130 -12l478 724h95l-478 -724h-95zM159 276q-85 0 -138 44l47 68q47 -34 91 -34q35 0 57 19.5t22 50.5q0 30 -17 46t-45 16q-41 0 -66 -46l-74 38l12 227h248v-78h-173l-5 -80q28 17 63 17q67 0 104 -41.5t37 -96.5q0 -68 -45 -109t-118 -41zM662 -8q-67 0 -108.5 37.5
t-41.5 98.5q0 65 61 102q-43 31 -43 82q0 53 36.5 85t95.5 32q60 0 96 -32t36 -85q0 -51 -42 -82q60 -37 60 -102q0 -61 -41 -98.5t-109 -37.5zM662 267q23 0 37 13t14 32t-14 32t-37 13q-21 0 -36 -13.5t-15 -31.5q0 -19 14.5 -32t36.5 -13zM662 68q30 0 48.5 17t18.5 43
q0 27 -18.5 45t-48.5 18q-29 0 -48 -18t-19 -45q0 -26 19 -43t48 -17z" />
    <glyph glyph-name="seveneighths" unicode="&#x215e;" horiz-adv-x="755" 
d="M40 -12l478 724h95l-478 -724h-95zM93 283q1 184 104 344h-192v78h288v-73q-61 -71 -88.5 -167.5t-28.5 -181.5h-83zM572 -8q-67 0 -108.5 37.5t-41.5 98.5q0 65 61 102q-43 31 -43 82q0 53 36.5 85t95.5 32q60 0 96 -32t36 -85q0 -51 -42 -82q60 -37 60 -102
q0 -61 -41 -98.5t-109 -37.5zM572 267q23 0 37 13t14 32t-14 32t-37 13q-21 0 -36 -13.5t-15 -31.5q0 -19 14.5 -32t36.5 -13zM572 68q30 0 48.5 17t18.5 43q0 27 -18.5 45t-48.5 18q-29 0 -48 -18t-19 -45q0 -26 19 -43t48 -17z" />
    <glyph glyph-name="arrowleft" unicode="&#x2190;" horiz-adv-x="780" 
d="M311 166q-4 0 -17 8l-248 169q-11 7 -11 17q0 9 11 17l248 170q13 8 17 8q12 0 12 -11q0 -5 -6 -21l-42 -122l460 12v-105l-460 12l42 -122q6 -16 6 -21q0 -11 -12 -11z" />
    <glyph glyph-name="arrowup" unicode="&#x2191;" horiz-adv-x="459" 
d="M177 0l12 460l-122 -42q-16 -6 -21 -6q-11 0 -11 12q0 4 8 17l170 248q8 11 17 11q10 0 17 -11l169 -248q8 -13 8 -17q0 -12 -11 -12q-5 0 -21 6l-122 42l12 -460h-105z" />
    <glyph glyph-name="arrowright" unicode="&#x2192;" horiz-adv-x="780" 
d="M469 166q-12 0 -12 11q0 5 6 21l42 122l-460 -12v105l460 -12l-42 122q-6 16 -6 21q0 11 12 11q4 0 17 -8l248 -170q11 -8 11 -17q0 -10 -11 -17l-248 -169q-13 -8 -17 -8z" />
    <glyph glyph-name="arrowdown" unicode="&#x2193;" horiz-adv-x="488" 
d="M244 0q-10 0 -17 11l-178 260q-8 13 -8 17q0 12 11 12q5 0 21 -6l130 -45l-12 451h105l-12 -451l130 45q16 6 21 6q11 0 11 -12q0 -4 -8 -17l-177 -260q-7 -11 -17 -11z" />
    <glyph glyph-name="arrowboth" unicode="&#x2194;" horiz-adv-x="945" 
d="M634 166q-12 0 -12 11q0 5 6 21l41 119h-393l41 -119q6 -16 6 -21q0 -11 -12 -11q-4 0 -17 8l-248 169q-11 7 -11 17q0 9 11 17l248 170q13 8 17 8q12 0 12 -11q0 -5 -6 -21l-41 -119h393l-41 119q-6 16 -6 21q0 11 12 11q4 0 17 -8l248 -170q11 -8 11 -17q0 -10 -11 -17
l-248 -169q-13 -8 -17 -8z" />
    <glyph glyph-name="arrowupdn" unicode="&#x2195;" horiz-adv-x="488" 
d="M243 -170q-10 0 -17 11l-169 248q-8 13 -8 17q0 12 11 12q5 0 21 -6l119 -41v454l-119 -41q-16 -6 -21 -6q-11 0 -11 12q0 4 8 17l169 248q7 11 17 11q9 0 17 -11l170 -248q8 -13 8 -17q0 -12 -11 -12q-5 0 -21 6l-119 41v-454l119 41q16 6 21 6q11 0 11 -12q0 -4 -8 -17
l-170 -248q-8 -11 -17 -11z" />
    <glyph glyph-name="uni2196" unicode="&#x2196;" horiz-adv-x="613" 
d="M514 65l-317 334l-56 -116q-11 -22 -19 -22q-11 0 -16 26l-52 274q-4 22 -4 25q0 7 5 11.5t12 4.5q1 0 19 -3l285 -53q22 -4 22 -14q0 -8 -23 -19l-116 -57l334 -316z" />
    <glyph glyph-name="uni2197" unicode="&#x2197;" horiz-adv-x="613" 
d="M99 65l-74 75l334 316l-116 57q-23 11 -23 19q0 10 22 14l285 53q18 3 19 3q7 0 12 -4.5t5 -11.5q0 -3 -4 -25l-52 -274q-5 -26 -16 -26q-8 0 -19 22l-56 116z" />
    <glyph glyph-name="uni2198" unicode="&#x2198;" horiz-adv-x="613" 
d="M546 65q-1 0 -19 3l-285 53q-22 4 -22 14q0 7 23 19l116 57l-334 316l74 75l317 -334l56 116q11 22 19 22q11 0 16 -26l52 -274q4 -22 4 -25q0 -7 -5 -11.5t-12 -4.5z" />
    <glyph glyph-name="uni2199" unicode="&#x2199;" horiz-adv-x="613" 
d="M67 65q-7 0 -12 4.5t-5 11.5q0 3 4 25l52 274q5 26 16 26q8 0 19 -22l56 -116l317 334l74 -75l-334 -316l116 -57q23 -12 23 -19q0 -10 -22 -14l-285 -53q-18 -3 -19 -3z" />
    <glyph glyph-name="uni21B3" unicode="&#x21b3;" horiz-adv-x="724" 
d="M678 231q11 -8 11 -17q0 -10 -11 -17l-248 -169q-13 -8 -17 -8q-12 0 -12 11q0 5 6 21l41 119h-372v529h87v-442h285l-41 119q-6 16 -6 21q0 11 12 11q4 0 17 -8z" />
    <glyph glyph-name="uni21B4" unicode="&#x21b4;" horiz-adv-x="724" 
d="M678 322q11 0 11 -12q0 -4 -8 -17l-169 -248q-7 -11 -17 -11q-9 0 -17 11l-170 248q-8 13 -8 17q0 12 11 12q5 0 21 -6l117 -40v342h-373v82h464v-424l117 40q16 6 21 6z" />
    <glyph glyph-name="uni21B5" unicode="&#x21b5;" horiz-adv-x="724" 
d="M561 700h87v-529h-372l41 -119q6 -16 6 -21q0 -11 -12 -11q-4 0 -17 8l-248 169q-11 7 -11 17q0 9 11 17l248 170q13 8 17 8q12 0 12 -11q0 -5 -6 -21l-41 -119h285v442z" />
    <glyph glyph-name="uni21B6" unicode="&#x21b6;" horiz-adv-x="801" 
d="M450 712q119 0 192.5 -77t73.5 -207v-428h-91v428q0 92 -47.5 145t-127.5 53q-81 0 -128 -52.5t-47 -145.5v-35l117 40q16 6 21 6q11 0 11 -12q0 -4 -8 -17l-169 -248q-7 -11 -17 -11q-9 0 -17 11l-170 248q-8 13 -8 17q0 12 11 12q5 0 21 -6l117 -40v35q0 130 73.5 207
t192.5 77z" />
    <glyph glyph-name="uni21B7" unicode="&#x21b7;" horiz-adv-x="801" 
d="M755 439q11 0 11 -12q0 -4 -8 -17l-170 -248q-8 -11 -17 -11q-10 0 -17 11l-169 248q-8 13 -8 17q0 12 11 12q5 0 21 -6l117 -40v35q0 93 -47 145.5t-128 52.5q-80 0 -127.5 -53t-47.5 -145v-428h-91v428q0 130 73.5 207t192.5 77t192.5 -77t73.5 -207v-35l117 40
q16 6 21 6z" />
    <glyph glyph-name="uni21B8" unicode="&#x21b8;" horiz-adv-x="613" 
d="M50 618v82h538v-82h-538zM514 -17l-317 334l-56 -116q-11 -22 -19 -22q-11 0 -16 26l-52 274q-4 22 -4 25q0 7 5 11.5t12 4.5q1 0 19 -3l285 -53q22 -4 22 -14q0 -8 -23 -19l-116 -57l334 -316z" />
    <glyph glyph-name="uni21B9" unicode="&#x21b9;" horiz-adv-x="917" 
d="M511 341q-4 0 -17 8l-248 169q-11 7 -11 17q0 9 11 17l248 170q13 8 17 8q12 0 12 -11q0 -5 -6 -21l-42 -122l366 12v-105l-366 12l42 -122q6 -16 6 -21q0 -11 -12 -11zM76 351v369h104v-369h-104zM406 -230q-12 0 -12 11q0 5 6 21l42 122l-366 -12v105l366 -12l-42 122
q-6 16 -6 21q0 11 12 11q4 0 17 -8l248 -170q11 -8 11 -17q0 -10 -11 -17l-248 -169q-13 -8 -17 -8zM737 -220v369h104v-369h-104z" />
    <glyph glyph-name="uni21BA" unicode="&#x21ba;" horiz-adv-x="846" 
d="M776 656q22 -4 22 -14q0 -8 -23 -19l-113 -56q84 -90 84 -217q0 -134 -95 -228.5t-228 -94.5t-228 94.5t-95 228.5q0 135 95 228l63 -63q-69 -69 -69 -165q0 -97 69 -166t165 -69t165 69t69 166q0 87 -58 153l-53 -110q-11 -22 -19 -22q-11 0 -16 26l-52 274q-4 22 -4 25
q0 7 5 11.5t12 4.5q1 0 19 -3z" />
    <glyph glyph-name="uni21DA" unicode="&#x21da;" horiz-adv-x="780" 
d="M735 426h-452l-13 -40h465v-50h-465l13 -40h452v-50h-434l16 -48q6 -16 6 -21q0 -11 -12 -11q-4 0 -17 8l-248 169q-11 7 -11 17q0 9 11 17l248 170q13 8 17 8q12 0 12 -11q0 -5 -6 -21l-16 -47h434v-50z" />
    <glyph glyph-name="uni21DB" unicode="&#x21db;" horiz-adv-x="780" 
d="M734 377q11 -8 11 -17q0 -10 -11 -17l-248 -169q-13 -8 -17 -8q-12 0 -12 11q0 5 6 21l16 48h-434v50h452l13 40h-465v50h465l-13 40h-452v50h434l-16 47q-6 16 -6 21q0 11 12 11q4 0 17 -8z" />
    <glyph glyph-name="uni21DC" unicode="&#x21dc;" horiz-adv-x="780" 
d="M665 404h70v-87h-106l-17 53l-39 -120h-64l-39 121l-39 -121h-64l-22 67h-69l41 -119q6 -16 6 -21q0 -11 -12 -11q-4 0 -17 8l-248 169q-11 7 -11 17q0 9 11 17l248 170q13 8 17 8q12 0 12 -11q0 -5 -6 -21l-41 -119h105l18 -54l39 120h64l39 -120l39 120h64z" />
    <glyph glyph-name="uni21DD" unicode="&#x21dd;" horiz-adv-x="780" 
d="M734 377q11 -8 11 -17q0 -10 -11 -17l-248 -169q-13 -8 -17 -8q-12 0 -12 11q0 5 6 21l41 119h-69l-22 -67h-64l-39 121l-39 -121h-64l-39 120l-17 -53h-106v87h70l21 66h64l39 -120l39 120h64l39 -120l18 54h105l-41 119q-6 16 -6 21q0 11 12 11q4 0 17 -8z" />
    <glyph glyph-name="uni21DE" unicode="&#x21de;" horiz-adv-x="459" 
d="M416 441q8 -13 8 -17q0 -12 -11 -12q-5 0 -21 6l-119 41v-101h140v-82h-140v-76h140v-82h-140v-118h-87v118h-140v82h140v76h-140v82h140v101l-119 -41q-16 -6 -21 -6q-11 0 -11 12q0 4 8 17l170 248q8 11 17 11q10 0 17 -11z" />
    <glyph glyph-name="uni21DF" unicode="&#x21df;" horiz-adv-x="459" 
d="M413 288q11 0 11 -12q0 -4 -8 -17l-169 -248q-7 -11 -17 -11q-9 0 -17 11l-170 248q-8 13 -8 17q0 12 11 12q5 0 21 -6l119 -41v101h-140v82h140v76h-140v82h140v118h87v-118h140v-82h-140v-76h140v-82h-140v-101l119 41q16 6 21 6z" />
    <glyph glyph-name="uni21E0" unicode="&#x21e0;" horiz-adv-x="780" 
d="M317 523l-41 -119h79v-87h-79l41 -119q6 -16 6 -21q0 -11 -12 -11q-4 0 -17 8l-248 169q-11 7 -11 17q0 9 11 17l248 170q13 8 17 8q12 0 12 -11q0 -5 -6 -21zM435 317v87h110v-87h-110zM625 404h110v-87h-110v87z" />
    <glyph glyph-name="uni21E1" unicode="&#x21e1;" horiz-adv-x="459" 
d="M416 441q8 -13 8 -17q0 -12 -11 -12q-5 0 -21 6l-119 41v-83h-87v83l-119 -41q-16 -6 -21 -6q-11 0 -11 12q0 4 8 17l170 248q8 11 17 11q10 0 17 -11zM186 188v108h87v-108h-87zM186 0v108h87v-108h-87z" />
    <glyph glyph-name="uni21E2" unicode="&#x21e2;" horiz-adv-x="780" 
d="M734 377q11 -8 11 -17q0 -10 -11 -17l-248 -169q-13 -8 -17 -8q-12 0 -12 11q0 5 6 21l41 119h-79v87h79l-41 119q-6 16 -6 21q0 11 12 11q4 0 17 -8zM45 317v87h110v-87h-110zM235 317v87h110v-87h-110z" />
    <glyph glyph-name="uni21E3" unicode="&#x21e3;" horiz-adv-x="459" 
d="M273 700v-112h-87v112h87zM273 508v-112h-87v112h87zM413 288q11 0 11 -12q0 -4 -8 -17l-169 -248q-7 -11 -17 -11q-9 0 -17 11l-170 248q-8 13 -8 17q0 12 11 12q5 0 21 -6l119 -41v75h87v-75l119 41q16 6 21 6z" />
    <glyph glyph-name="uni21E4" unicode="&#x21e4;" horiz-adv-x="855" 
d="M76 104v511h104v-511h-104zM511 166q-4 0 -17 8l-248 169q-11 7 -11 17q0 9 11 17l248 170q13 8 17 8q12 0 12 -11q0 -5 -6 -21l-42 -122l335 12v-105l-335 12l42 -122q6 -16 6 -21q0 -11 -12 -11z" />
    <glyph glyph-name="uni21E5" unicode="&#x21e5;" horiz-adv-x="855" 
d="M675 104v511h104v-511h-104zM344 166q-12 0 -12 11q0 5 6 21l42 122l-335 -12v105l335 -12l-42 122q-6 16 -6 21q0 11 12 11q4 0 17 -8l248 -170q11 -8 11 -17q0 -10 -11 -17l-248 -169q-13 -8 -17 -8z" />
    <glyph glyph-name="partialdiff" unicode="&#x2202;" horiz-adv-x="583" 
d="M249 -12q-99 0 -159 57t-60 153q0 107 71.5 174.5t169.5 67.5q100 0 153 -72q0 26 -3 48q-13 98 -75.5 146t-150.5 52l25 98q162 -17 235 -111t73 -268q0 -70 -15.5 -129.5t-47.5 -109t-87.5 -78t-128.5 -28.5zM253 88q68 0 109 38.5t41 99.5q0 56 -32.5 85t-91.5 29
q-64 0 -103.5 -37t-39.5 -97q0 -55 32 -86.5t85 -31.5z" />
    <glyph glyph-name="uni2206" unicode="&#x2206;" horiz-adv-x="696" 
d="M42 0l253 700h107l252 -700h-612zM185 100h327l-139 391q-20 60 -24 79q-11 -45 -24 -79z" />
    <glyph glyph-name="product" unicode="&#x220f;" horiz-adv-x="717" 
d="M523 -140v740h-329v-740h-104v840h537v-840h-104z" />
    <glyph glyph-name="summation" unicode="&#x2211;" horiz-adv-x="612" 
d="M45 -140v94l246 336l-232 316v94h499v-100h-366l229 -310l-242 -330h398v-100h-532z" />
    <glyph glyph-name="minus" unicode="&#x2212;" horiz-adv-x="630" 
d="M80 293v100h470v-100h-470z" />
    <glyph glyph-name="uni2215" unicode="&#x2215;" horiz-adv-x="333" 
d="M-120 -12l478 724h95l-478 -724h-95z" />
    <glyph glyph-name="uni2219" unicode="&#x2219;" horiz-adv-x="223" 
d="M111 276q-32 0 -53.5 21.5t-21.5 51.5t21.5 52t53.5 22q31 0 53.5 -22t22.5 -52t-22.5 -51.5t-53.5 -21.5z" />
    <glyph glyph-name="radical" unicode="&#x221a;" horiz-adv-x="556" 
d="M526 700l-213 -700h-88l-180 342h110l103 -200l161 558h107z" />
    <glyph glyph-name="infinity" unicode="&#x221e;" horiz-adv-x="1000" 
d="M727 118q-145 0 -227 143q-84 -143 -227 -143q-103 0 -170.5 62t-67.5 170t67.5 170.5t170.5 62.5q142 0 227 -144q83 144 225 144q104 0 172 -62.5t68 -170.5t-67.5 -170t-170.5 -62zM278 216q102 0 177 134q-76 135 -177 135q-61 0 -100 -36.5t-39 -98.5t39 -98
t100 -36zM722 216q61 0 100 36t39 98t-39 98.5t-100 36.5q-101 0 -177 -135q75 -134 177 -134z" />
    <glyph glyph-name="integral" unicode="&#x222b;" horiz-adv-x="420" 
d="M145 -140q-57 0 -105 24v82q45 -16 73 -16q45 0 45 46v597q0 119 117 119q57 0 105 -24v-82q-45 16 -73 16q-45 0 -45 -46v-597q0 -119 -117 -119z" />
    <glyph glyph-name="approxequal" unicode="&#x2248;" horiz-adv-x="630" 
d="M416 367q-46 0 -110.5 29t-90.5 29t-42 -16t-18 -42h-75q0 68 33 113t101 45q46 0 110.5 -29t90.5 -29t42 16t18 42h75q0 -68 -33 -113t-101 -45zM416 162q-46 0 -110.5 29t-90.5 29t-42 -16t-18 -42h-75q0 68 33 113t101 45q46 0 110.5 -29t90.5 -29t42 16t18 42h75
q0 -68 -33 -113t-101 -45z" />
    <glyph glyph-name="notequal" unicode="&#x2260;" horiz-adv-x="630" 
d="M300 195l-40 -87h-110l40 87h-110v102h158l43 92h-201v102h248l41 87h110l-41 -87h112v-102h-159l-43 -92h202v-102h-250z" />
    <glyph glyph-name="lessequal" unicode="&#x2264;" horiz-adv-x="630" 
d="M550 172l-470 171v88l470 171v-105l-328 -110l328 -110v-105zM80 0v100h470v-100h-470z" />
    <glyph glyph-name="greaterequal" unicode="&#x2265;" horiz-adv-x="630" 
d="M80 172v105l328 110l-328 110v105l470 -171v-88zM80 0v100h470v-100h-470z" />
    <glyph glyph-name="lozenge" unicode="&#x25ca;" horiz-adv-x="600" 
d="M256 -12l-201 362l201 362h88l201 -362l-201 -362h-88zM300 580l-138 -230l138 -230l138 230z" />
    <glyph glyph-name="uni25CC" unicode="&#x25cc;" horiz-adv-x="644" 
d="M292 594q0 14 8.5 23t21.5 9t21.5 -9t8.5 -23t-8 -22t-22 -8t-22 8t-8 22zM201 576q0 14 8.5 23t22.5 9q13 0 21.5 -9t8.5 -23q0 -13 -8.5 -21.5t-21.5 -8.5t-22 8.5t-9 21.5zM381 576q0 13 9 22t21 9q14 0 23 -8.5t9 -22.5q0 -13 -9 -21.5t-23 -8.5q-13 0 -21.5 8.5
t-8.5 21.5zM125 526q0 13 8.5 21.5t22.5 8.5t22 -8t8 -22t-8 -22.5t-22 -8.5t-22.5 8.5t-8.5 22.5zM458 526q0 14 8 22t22 8t22.5 -8.5t8.5 -21.5q0 -14 -8.5 -22.5t-22.5 -8.5t-22 8.5t-8 22.5zM509 449q0 13 8.5 22.5t21.5 9.5t22 -9.5t9 -22.5t-9 -21.5t-22 -8.5
t-21.5 8.5t-8.5 21.5zM74 449q0 13 9 22t22 9t22 -9t9 -22t-9.5 -22t-21.5 -9q-13 0 -22 9t-9 22zM55 359q0 14 9 22.5t23 8.5t22 -8.5t8 -22.5q0 -13 -8.5 -21.5t-21.5 -8.5q-14 0 -23 8.5t-9 21.5zM527 359q0 14 8 22.5t22 8.5q13 0 22.5 -8.5t9.5 -22.5q0 -13 -9.5 -21.5
t-22.5 -8.5t-21.5 8.5t-8.5 21.5zM74 269q0 13 9 22t22 9t21.5 -9t8.5 -22t-8.5 -22t-21.5 -9t-22 9t-9 22zM508 270q0 13 9 21.5t22 8.5t22 -8.5t9 -21.5q0 -14 -9 -22.5t-22 -8.5t-22 8.5t-9 22.5zM125 193q0 13 8.5 22t22.5 9q13 0 21.5 -8.5t8.5 -22.5q0 -13 -8 -21.5
t-22 -8.5t-22.5 8.5t-8.5 21.5zM458 193q0 14 8.5 22.5t21.5 8.5q14 0 22.5 -9t8.5 -22t-8.5 -21.5t-22.5 -8.5t-22 8.5t-8 21.5zM201 143q0 13 9 21.5t23 8.5q13 0 21.5 -8.5t8.5 -21.5t-9 -22.5t-21 -9.5q-14 0 -23 9t-9 23zM382 142q0 13 8.5 22t21.5 9q14 0 22.5 -8.5
t8.5 -22.5t-8.5 -22.5t-22.5 -8.5q-13 0 -21.5 9t-8.5 22zM292 124q0 14 8.5 22.5t21.5 8.5t21.5 -8.5t8.5 -22.5t-8.5 -22.5t-21.5 -8.5t-21.5 8.5t-8.5 22.5z" />
    <glyph glyph-name="uniF6C3" unicode="&#xf6c3;" horiz-adv-x="0" 
d="M-135 730v-8q0 -141 -98 -237l-32 24q29 60 29 221h101z" />
    <glyph glyph-name="u1F3A9" unicode="&#x1f3a9;" horiz-adv-x="935" 
d="M459 9q-169 0 -294 88t-125 201q0 30 13.5 54t40.5 42.5t55.5 31t70.5 27.5q20 75 68 190q24 55 61 55q31 0 65 -16.5t55 -16.5q18 0 54 16.5t65 16.5q38 0 53 -43q65 -177 72 -202q182 -52 182 -159q0 -109 -128 -197t-308 -88zM469 207q62 0 115 20.5t84 50t48.5 58.5
t17.5 49q0 11 -7 30l-14 37q-30 -56 -102 -91t-145 -35q-64 0 -136.5 31t-109.5 95l-19 -55q-2 -8 -2 -11q0 -11 8.5 -31t30 -46t51 -48.5t77 -38t103.5 -15.5z" />
    <glyph glyph-name="u1F427" unicode="&#x1f427;" horiz-adv-x="706" 
d="M232 -5q-4 0 -19 4.5t-35.5 11.5t-34.5 10q-12 3 -34 7.5t-29 6.5q-3 1 -8 2.5t-6 1.5q-16 4 -16 20q0 7 6 20t6 22q0 10 -4.5 23t-4.5 18q0 16 17 18q5 2 27 4q29 6 29 34q2 -12 2 -14q0 -13 -10.5 -22t-24.5 -9h-19q-12 0 -12 -9q0 -7 6 -22t6 -24q0 -7 -5.5 -19.5
t-5.5 -19.5t7 -10q3 -1 54 -12.5t83 -21.5q9 -3 19 -3q44 0 44 33q0 24 -20 57q-74 116 -100 116q-5 0 -8 -1.5t-4 -3t-2 -1.5q-4 0 -4 19q0 16 7 30q8 12 16.5 33t11.5 27q10 35 21 52q3 7 11 17l19.5 26t20.5 27q13 25 13 36q0 1 -0.5 4t-0.5 5q-4 51 -4 125q0 45 28 68.5
t66 23.5q37 0 63.5 -13.5t38.5 -34.5t17 -40t5 -38v-16q0 -87 57 -149q35 -37 59 -104q12 -35 13 -62q2 -10 2 -15q0 -25 -24 -41q-23 -33 -46 -33q-9 0 -17 4q-10 3 -19.5 21t-15.5 18q-15 0 -15 -30q0 -9 3.5 -29.5t3.5 -33.5q0 -10 -2.5 -29.5t-2.5 -30.5q0 -14 11.5 -25
t27.5 -11q17 0 31 14q36 30 76 43q1 0 10 3.5t14.5 5.5t11 7t5.5 10q0 7 -9 12.5t-19 9.5t-19 15.5t-9 28.5q0 16 5 23q2 -18 4 -26q7 -22 31 -36.5t24 -24.5q0 -16 -41 -37q-34 -17 -55 -31l-31 -26q-9 -9 -36 -9q-28 0 -42.5 17.5t-23.5 17.5q-7 0 -23 1t-24 1
q-9 0 -27.5 -1t-28.5 -1q-28 0 -55.5 -17.5t-36.5 -17.5zM286 33q9 5 9 16q0 7 -4 14.5t-8 12.5l-4 5q0 5 8 5q2 0 7 -4t17.5 -8t33.5 -4q25 0 50.5 9.5t34.5 28.5q5 10 12 10q4 0 4 -14q0 -23 -8 -43q-3 -15 -3 -16q0 -6 10 -6q3 23 6 39.5t4 23t1 14.5q0 7 -2 18.5
t-4 20.5l-1 9q0 44 28 44q3 0 3 3q1 11 12 17.5t24 6.5q7 0 16 -4t14 -5q-3 5 -11.5 10.5t-10.5 6.5q6 18 6 36q0 28 -14 65.5t-38 48.5q45 -58 45 -118q0 -8 -2 -20q-4 -19 -27 -19q-11 0 -11 22q0 87 -37 127q-8 39 -31 73q-8 8 -8 24v6q6 15 6 22t-5.5 11t-16.5 6.5
t-14 4.5q-3 3 -8.5 4.5t-8.5 5t-3 11.5q0 28 21 28q9 0 14.5 -7t5.5 -17q0 -8 -2 -13t-2 -6q0 -4 13 -4q6 2 7 6q0 34 -7 47q-11 17 -26 17q-14 0 -26 -9.5t-12 -23.5q0 -17 2 -25q-5 4 -18 4h-8q-6 0 -6 5q0 45 -25 45q-9 0 -16.5 -12t-7.5 -25q0 -8 4 -19.5t10 -11.5l7 6
q-12 0 -12 22q0 20 15 20t15 -27q0 -6 -5 -9q-7 -9 -23 -21q-5 -4 -7 -11q-3 -2 -3 -3q0 -4 6 -6q4 -6 8 -10t7 -6t4 -3q4 -4 16 -4h7q11 0 39 7q15 3 24.5 8.5t13.5 9.5l4 4l1 -1h2q3 0 3 -4t-6 -8q-32 -12 -42 -16q-26 -11 -44 -11q-1 0 -4.5 1t-5.5 1h-9q13 -17 29 -17
q23 0 61 25q1 0 3 0.5t4.5 1.5t5.5 2q1 0 4 -3q0 -5 -11 -11q-16 -7 -44 -27q-14 -14 -26 -14q-15 0 -22 12l-21 29q-3 -3 -3 -4t0.5 -3t0.5 -3q0 -3 -7 -17q-20 -40 -20 -52q0 -4 2 -10t2 -8q-7 -4 -13 -18q-30 -52 -30 -91q0 -10 1 -16q0 -1 -1.5 -7t-1.5 -11q-1 -5 -6 -5
q-3 0 -5 2t-5.5 8t-5.5 9q-5 11 -5 26q0 5 2 19v4q-8 -4 -8 -25q0 -17 8 -33q1 -10 12 -19q18 -15 33 -31l53 -42q9 -8 9 -19q0 -8 -6 -15t-10 -7q-8 0 -8 -3q0 -1 2.5 -4t6 -7.5t5.5 -7.5q11 -17 12 -46zM387 557h4q1 1 1 6q0 3 -6 9q-2 2 -4 2t-3 -2q8 -5 8 -15zM295 553
q2 2 2 4q0 4 -2 9t-4 5q-3 0 -3 -5q4 0 4 -9q0 -4 3 -4zM302 534q-2 0 -3 4q8 4 9 6q-2 -6 -3 -7zM342 536q-3 3 -4 8q2 -2 7 -2v-4q0 -2 -3 -2z" />
    <glyph glyph-name="i.TRK" horiz-adv-x="256" 
d="M128 591q-26 0 -44.5 18.5t-18.5 44.5t18.5 44.5t44.5 18.5t44.5 -18.5t18.5 -44.5t-18.5 -44.5t-44.5 -18.5zM76 0v511h104v-511h-104z" />
    <glyph glyph-name="Jacute" 
d="M304 765l142 156h142l-178 -156h-106zM247 -12q-76 0 -134 34t-88 98l90 44q37 -76 132 -76q58 0 93.5 34.5t35.5 126.5v451h104v-465q0 -70 -21 -120.5t-56.5 -77t-74 -38t-81.5 -11.5z" />
    <glyph glyph-name="jacute" horiz-adv-x="256" 
d="M22 576l142 156h142l-178 -156h-106zM-13 -214l-50 77q79 17 109 44t30 82v522h104v-487q0 -112 -48 -162q-53 -56 -145 -76z" />
    <glyph glyph-name="zero.dnom" horiz-adv-x="384" 
d="M192 -7q-82 0 -118 63.5t-36 154.5q0 40 7.5 76t24 69.5t48 53t74.5 19.5q82 0 118 -63.5t36 -154.5q0 -40 -7 -75.5t-23.5 -69t-48 -53.5t-75.5 -20zM192 73q26 0 42.5 22.5t22 51.5t5.5 64q0 58 -16.5 98t-53.5 40q-26 0 -42.5 -22t-22 -51t-5.5 -65q0 -58 16.5 -98
t53.5 -40z" />
    <glyph glyph-name="one.dnom" horiz-adv-x="200" 
d="M65 0v334h-55v61q54 0 71 27h66v-422h-82z" />
    <glyph glyph-name="two.dnom" horiz-adv-x="357" 
d="M25 0q0 84 41 143.5t106 93.5q21 11 31 17.5t19.5 19.5t9.5 28q0 21 -15 35t-42 14q-57 0 -70 -65l-81 19q11 54 53 89t98 35q66 0 105 -36t39 -93q0 -27 -8 -47t-26 -36.5t-34 -26.5t-46 -25q-58 -30 -83 -87h196v-78h-293z" />
    <glyph glyph-name="three.dnom" horiz-adv-x="347" 
d="M165 -8q-57 0 -96.5 32.5t-56.5 90.5l82 22q8 -33 28.5 -50t45.5 -17q26 0 43 14.5t17 39.5q0 23 -16 38.5t-48 15.5h-31v78h30q25 0 37.5 13t12.5 34t-12.5 34.5t-35.5 13.5q-41 0 -58 -49l-80 29q19 45 55 71.5t85 26.5q60 0 96 -35.5t36 -86.5q0 -55 -49 -87
q30 -13 47 -39.5t17 -57.5q0 -60 -41 -95.5t-108 -35.5z" />
    <glyph glyph-name="four.dnom" horiz-adv-x="376" 
d="M219 0v86h-212v53l215 284h77v-260h54v-77h-54v-86h-80zM219 163v142l-109 -142h109z" />
    <glyph glyph-name="five.dnom" horiz-adv-x="350" 
d="M159 -7q-85 0 -138 44l47 68q47 -34 91 -34q35 0 57 19.5t22 50.5q0 30 -17 46t-45 16q-41 0 -66 -46l-74 38l12 227h248v-78h-173l-5 -80q28 17 63 17q67 0 104 -41.5t37 -96.5q0 -68 -45 -109t-118 -41z" />
    <glyph glyph-name="six.dnom" horiz-adv-x="354" 
d="M185 -7q-74 0 -112 46t-38 123q0 108 60 178t181 89v-78q-112 -19 -142 -99q27 15 67 15q58 0 95.5 -37t37.5 -100q0 -62 -41 -99.5t-108 -37.5zM185 71q30 0 48.5 16t18.5 43q0 28 -18.5 43.5t-48.5 15.5t-47.5 -15.5t-17.5 -43.5q0 -27 18 -43t47 -16z" />
    <glyph glyph-name="seven.dnom" horiz-adv-x="303" 
d="M93 0q1 184 104 344h-192v78h288v-73q-61 -71 -88.5 -167.5t-28.5 -181.5h-83z" />
    <glyph glyph-name="eight.dnom" horiz-adv-x="365" 
d="M182 -8q-67 0 -108.5 37.5t-41.5 98.5q0 65 61 102q-43 31 -43 82q0 53 36.5 85t95.5 32q60 0 96 -32t36 -85q0 -51 -42 -82q60 -37 60 -102q0 -61 -41 -98.5t-109 -37.5zM182 267q23 0 37 13t14 32t-14 32t-37 13q-21 0 -36 -13.5t-15 -31.5q0 -19 14.5 -32t36.5 -13z
M182 68q30 0 48.5 17t18.5 43q0 27 -18.5 45t-48.5 18q-29 0 -48 -18t-19 -45q0 -26 19 -43t48 -17z" />
    <glyph glyph-name="nine.dnom" horiz-adv-x="354" 
d="M91 -7v78q104 8 133 101q-25 -18 -64 -18q-63 0 -101.5 37t-38.5 100q0 62 42 100t108 38q75 0 114 -45t39 -119q0 -121 -58.5 -193.5t-173.5 -78.5zM169 232q32 0 50 16t18 44q0 27 -18.5 43t-48.5 16t-48 -16.5t-18 -43.5q0 -28 17.5 -43.5t47.5 -15.5z" />
    <glyph glyph-name="zero.numr" horiz-adv-x="384" 
d="M192 276q-82 0 -118 63.5t-36 154.5q0 40 7.5 76t24 69.5t48 53t74.5 19.5q82 0 118 -63.5t36 -154.5q0 -40 -7 -75.5t-23.5 -69t-48 -53.5t-75.5 -20zM192 356q26 0 42.5 22.5t22 51.5t5.5 64q0 58 -16.5 98t-53.5 40q-26 0 -42.5 -22t-22 -51t-5.5 -65q0 -58 16.5 -98
t53.5 -40z" />
    <glyph glyph-name="one.numr" horiz-adv-x="200" 
d="M65 283v334h-55v61q54 0 71 27h66v-422h-82z" />
    <glyph glyph-name="two.numr" horiz-adv-x="357" 
d="M25 283q0 84 41 143.5t106 93.5q21 11 31 17.5t19.5 19.5t9.5 28q0 21 -15 35t-42 14q-57 0 -70 -65l-81 19q11 54 53 89t98 35q66 0 105 -36t39 -93q0 -27 -8 -47t-26 -36.5t-34 -26.5t-46 -25q-58 -30 -83 -87h196v-78h-293z" />
    <glyph glyph-name="three.numr" horiz-adv-x="347" 
d="M165 275q-57 0 -96.5 32.5t-56.5 90.5l82 22q8 -33 28.5 -50t45.5 -17q26 0 43 14.5t17 39.5q0 23 -16 38.5t-48 15.5h-31v78h30q25 0 37.5 13t12.5 34t-12.5 34.5t-35.5 13.5q-41 0 -58 -49l-80 29q19 45 55 71.5t85 26.5q60 0 96 -35.5t36 -86.5q0 -55 -49 -87
q30 -13 47 -39.5t17 -57.5q0 -60 -41 -95.5t-108 -35.5z" />
    <glyph glyph-name="four.numr" horiz-adv-x="376" 
d="M219 283v86h-212v53l215 284h77v-260h54v-77h-54v-86h-80zM219 446v142l-109 -142h109z" />
    <glyph glyph-name="five.numr" horiz-adv-x="350" 
d="M159 276q-85 0 -138 44l47 68q47 -34 91 -34q35 0 57 19.5t22 50.5q0 30 -17 46t-45 16q-41 0 -66 -46l-74 38l12 227h248v-78h-173l-5 -80q28 17 63 17q67 0 104 -41.5t37 -96.5q0 -68 -45 -109t-118 -41z" />
    <glyph glyph-name="six.numr" horiz-adv-x="354" 
d="M185 276q-74 0 -112 46t-38 123q0 108 60 178t181 89v-78q-112 -19 -142 -99q27 15 67 15q58 0 95.5 -37t37.5 -100q0 -62 -41 -99.5t-108 -37.5zM185 354q30 0 48.5 16t18.5 43q0 28 -18.5 43.5t-48.5 15.5t-47.5 -15.5t-17.5 -43.5q0 -27 18 -43t47 -16z" />
    <glyph glyph-name="seven.numr" horiz-adv-x="303" 
d="M93 283q1 184 104 344h-192v78h288v-73q-61 -71 -88.5 -167.5t-28.5 -181.5h-83z" />
    <glyph glyph-name="eight.numr" horiz-adv-x="365" 
d="M182 275q-67 0 -108.5 37.5t-41.5 98.5q0 65 61 102q-43 31 -43 82q0 53 36.5 85t95.5 32q60 0 96 -32t36 -85q0 -51 -42 -82q60 -37 60 -102q0 -61 -41 -98.5t-109 -37.5zM182 550q23 0 37 13t14 32t-14 32t-37 13q-21 0 -36 -13.5t-15 -31.5q0 -19 14.5 -32t36.5 -13z
M182 351q30 0 48.5 17t18.5 43q0 27 -18.5 45t-48.5 18q-29 0 -48 -18t-19 -45q0 -26 19 -43t48 -17z" />
    <glyph glyph-name="nine.numr" horiz-adv-x="354" 
d="M91 276v78q104 8 133 101q-25 -18 -64 -18q-63 0 -101.5 37t-38.5 100q0 62 42 100t108 38q75 0 114 -45t39 -119q0 -121 -58.5 -193.5t-173.5 -78.5zM169 515q32 0 50 16t18 44q0 27 -18.5 43t-48.5 16t-48 -16.5t-18 -43.5q0 -28 17.5 -43.5t47.5 -15.5z" />
    </font>
</defs>
</svg>
