<svg version="1.1" id="MAP" xmlns="http://www.w3.org/2000/svg" xmlns:xlink="http://www.w3.org/1999/xlink" x="0px" y="0px"
	 width="800px" height="400px" viewBox="0 0 800 400" style="enable-background:new 0 0 800 400;" xml:space="preserve">
<style type="text/css">
	.st0{fill:#3399FF;}
	.st1{fill:#33CC66;}
</style>
<rect id="SEA" x="-1" y="-1" class="st0" width="802" height="402"/>
<path id="LAND" class="st1" d="M741.5,268.2l-6.7,15.2l-8.8,4.6l-2.8-1.3l-0.2-0.8l0,0l0,0.1L723,286l-3.6,1.6l-9.9-7.2l-1.4,0.3
	l-1.2-0.9l0-0.4l-1.8,0.4l-1-1.4l1.2-1.4l0-0.4l-3.1,2.6l-2.9-4.1l-0.1,0l-1.5-1.2l0.1-0.8l-42,4.3l-0.6-2.3l1.4-0.9l0,0l-5.6-16.4
	l1.2-1.3l0.6-7.6l1.7-0.6l0,0l9.4-3.9l0,0l7.4-4.3l0.4-2.4l2.2-1.6l0.4,0.3l1.2-0.8l0.6,0l0.1-0.3l0,0.1l0-0.4l3.2-3.2l0.4,0
	l1.6-1.3l0.3,0l1-0.6l4.7,2.5l0-0.2l1.9-2.6l0-0.2l3-3l1.7,0.2l-0.7-1l1.1-1.3l1.9,0.6l-0.5,0l10.1,2.5l-2.9,5.7l7.9,4.7l0.1,0.2
	l1.1,0.6l0.9-0.3l3.4-14.7l1.1-0.2l1.6,2.5l0.2,0l1.6,5.4l0.5-0.2l12.5,17.8l0.2-0.1L741.5,268.2L741.5,268.2z M722.9,295.9l0.1,0.1
	l0,0l3.7,2.2l3.4-2.5l0.6-5l-9.4-0.4l-0.2,1.1l1.3,2.6l-0.1,0.4L722.9,295.9L722.9,295.9z M664,176.6l-4,5l1.2,0.7l4.8-4.3l-0.1,0.1
	l1.3-1.6l-0.4-1.5l-1.4-0.8L664,176.6l0.2-0.2L664,176.6L664,176.6z M796.9,287.3l1.4-1.5l-0.7-2.5l-4.7,0l-1.9-2.1l-0.7,0.2
	l-5.8-5.5l-1,0.7l4.5,9.5l-1.7,0.9l-0.2,1.4l3,1.8l-0.7,1.4l-4.4-1.8l-14.1,12.4l0.2-0.2l-0.1,1.6l2.3,0.5l0.3-0.2l5.4,0.7l5.7-6
	l0.8,0.2l1.4-1.2l-0.3-0.8l2.3-2.1l0,0.1l0.8-2l-0.1-0.2l0-0.1l2,1.1l4.7-4.6l0-0.7l0.3,0L796.9,287.3L796.9,287.3z M644.5,207.5
	l3.3,0.4l0.6,1.1l3.1-0.8l1.7,0.9l0.7-0.2l0.4,1.3l4.5-2l0.9-3.6l2.3-1.7l0.5-3.6l2.4-0.1l0.3-1.4l-3-4.7l3.5-3.7l0.1-1.4l-6.3-4.1
	l-3.9,4.2l-0.1,0l-1.2,0.8l0,0.1l-0.7,0.3l0,0l0,0l-7.4,6.6l-1.5-0.5l0,0l-1-0.5l-2.2,3.8L644.5,207.5L644.5,207.5z M665.6,163.9
	l1.9,4.7l0,0l0.1,0.9l-0.4,0.5l1.9,3.8l1.5-0.5l0.4-2.9l1.6,1l0.8-0.4l1.9,1.3l0.5-0.1l0,0.1l1.4,1.9l-0.1,0.3l1.6,1.6l0.6,0
	l0.9-0.7l-0.4-3.3l-1.7-1.1l-1.6,0.2l-0.2-2.3l-1.6-1.1l-0.5,0.1l-1.5-0.9l-1.1,0.4l-0.6-1.6l2.4-4.4l-0.7-1l0.1-1.9l-3.7-1
	l-1.4,0.6l-1,4.3l0,0L665.6,163.9L665.6,163.9z M452.4,122.6l2.4,0.4l-0.3-0.8l1,1.3l3-0.2l1.4-1.5l-1.1-1.1l-6.7-0.2l-0.3,1.4
	L452.4,122.6L452.4,122.6z M424.7,24.6l1.5,0.6l-0.1,0.5l6.2,2.7l0.1,0.8l6.8,1.3l0.9-1.2l0,0l21.9-6.8l-1.1-1.3l-7.7-0.3l-0.1-0.3
	l-12.2,1.2l0.1,0.6l-0.2-0.5l-3.5-0.5l-2,1.2l-1.2-0.6l-3.1,0.8l0.3,0.3l-1.1-1.2l-6,1.5L424.7,24.6L424.7,24.6z M377.3,134.1
	l9.1-13.7l-0.7-1l0.1,0.2l-0.6-0.9l-5.5-0.3l0.1-2.7l-1.2-1l1.6-8.7l-1.1-0.8l0.2-1.4l2.2-0.8l0.3-0.5l14.4,0.5l0.8-4.9l-5.4-3.2
	l-0.6,0.1l-2-2l0.7-1.4l2.7-0.3l-0.3-0.1l3.8,0.1l-0.5-1.5l1.2-0.8l0.8,0.1l-0.2,0.1l2.7,0.7L403,88l0-0.2l-7.8,0.7l0.6-0.4l-7,1.8
	l-1.9-1.2l2.9-2.6l-1.3-0.5l-0.4-0.6l1.7-1.7l-0.3-1.1l3.4-1.5l0-0.2l-1.1-1.3l-2.8-0.1l-1.1,1.7l0.3,2.1l-1,1.6l-8.3,2.1l-0.6-0.8
	l-0.5,0l-1.4-1.8l1.3-1.1l0.5,0l0.3-0.5l-1.1-0.6l0.1-3l9.4-2.5l0.3-0.9l-0.8-0.8l0.8-1.9l0,0.5l0.2-0.6l-0.4-1.4l2.8-2.5l4.5,0.3
	l0.6,1.2l-0.4,0.7l1.8,0l0.9,1l-1.5,2.8l6.5,6.5l2,0.3l1.2,1.4l-0.2,1.4l-0.7,0.7l0.2,0.5l14.1-5.8l0.1-2.1l-1.2-1l0.4-3.7l6-2.5
	l0.9,0.5l-0.3,2.4l1.3,1.3l0,0.3l2-0.5l-1-1.2l0.4,0.2l-1-1.4l0,0.5l-0.6-1.4l-0.2-0.1l0.1,0.1l-1-1.7l-11.7,1.4l-0.7-9.4l7-2.8
	l-0.1,0.1l10.2-6.2l-0.1-0.6l1.6-1.2l0.2,0l0-0.4l1.8-0.5l0-0.5l25.4-8l0.2,0.5l1.2-0.5l1.2,0.6l2.3-0.9l1.2,0.4l0,0.2l5.9,2
	l-0.1,0.5l22.7,5.5l0.7,1.4l-0.5,1.2l5.1,0l0.2-0.4l-1.2-1l0.8-1.6L497,48l1.1-1l6.9,2.1l-0.7,1.6l-1.3,0.1l2.9-0.1l1.1-1.5l9.3-2.3
	l1.3,0.8l-0.4-0.4l1.7-1l2.2,0.5l0.1,0.9l0.9,0.1l0.6-0.6l10.2-0.6l-0.1,0.8l0.1,0l-0.1,0.1l0,0.1l0,0l-0.1,0.2l0.1-0.1l-0.1,0.7
	l0.7-1.6l0.7-0.1l-0.4-0.8l1.3-1.4l13.4,1.6l-0.1-0.1l-0.2-1.2l0.7-0.8l-1-0.8l0-0.8l12.9-4.9l2.7,1.1l-0.6,2l3.6-1.2l0.1-1.1
	l1.4-0.5l-0.1,0l1.9,1.2l-0.8,2l0.5,0.1l0-0.4l2.1-1.2l1.8,0.2l0.2-0.3l6-0.1l-0.9-2.3l14.1-1.9l-0.1-0.2l22.4-4.4l0.1,0.2l9.3-1.4
	L625,28l13.9,0.1l0.9,0.8l0,0.3l13.7,1l0.7,1.2l-0.5,0.9l0.2,0.7l-5.7,2.1l5,0.6l0.1,0.3l10.6-0.4l0.6,1.1l9.1,0.5l0.4-0.3l0.2-0.9
	l13,1.7l-2.2,1.4l6.6,2.8l3.6-2.5l11.3,1.6l2.1-1.2l0-0.3l16.4-0.8l0,0.1l9.2,1.4l0,0.1l22.1,3.4l0,0.6l1.6,0.1l0.6,0.9l19.8,0.9
	l-0.6-0.7l0.5-1.2l22.9,1.4l1.1,10l-0.6,0.9l-3.9,0.9l0.8,1.4l-0.1,0l1,0.8l0,0.3l0.7,0.6l-31,7.6l-0.6-0.8l-0.6,0.2l-0.2,0.4
	l-1.2,0.5l-1.3-0.6l-0.7,0.3l-0.1-0.1l0,0.2l-2.5,2.7l2.2,0.7l0,1.2l-0.7,0.6l0.9,0.9l-0.3,1.9l-1.3,0.6l-1.2-0.4l-0.7,0.7l0.8,0.7
	l0,1.1l-4.8,1.7l0.4,1l-8,6l-3.2-13.5l2.5-2l0.1,0.6l0.5-1.7l14.4-7.2l0.7-1.6l-0.2,0l-0.5,0.6l0,0.1l-6.9,3.3l-1.8-2.2l-7.2,1.3
	l0.1-0.4l-0.7,1.3l-2.3,0.8l1.2,1.3l-10.1,1.6l-0.4-1.1l0-0.2l-32.3,9l1.1,0l0.9,1.2l0,0.2l0.3-0.1l1.7,0.9l0.3-0.1l0.3-0.9l1.9-0.5
	l5.5,2.4l3.7-1l4.3,10.8l-1.3,1.4l-2.5-1l-0.6,2.1l1.9,3.6l-1.2,1.4l-1.4-1.4l-0.8,1.3l5,3.1l1.7-0.9l1.1,1.2l-0.5,0.8l0.6,1.5
	l-6.1,3.5l-3.5-1.3l-0.1,0.1l2.2,5.3l-3.2,7.8l0.6,1l-3,2.9l-1-0.5l-1.4,1.1l-0.3,0l-0.4-0.4l-5.4,2.7l-2.9-0.5l-1.7,1.3l-1.1-0.5
	l-1.4,1.8l-0.8,0l-0.8-0.6l-3.1,4.4l-2.5-1.4l0.1-2.5l-1.7-2.3l13.5-6.3l0.8,0.6l-0.1,0l0.1,0l0.5,0.4l-0.1-0.3l-0.4-0.1l2.4-4
	l1.7-0.6l1.2,0.9l4-4.4l-0.6-6.6l1.8-1.6l-0.1-0.7l1.2-0.7l0.7,0.2l1.5-9.7l0,0l-0.2-7.3l-0.2-0.2l-17.4,20.2l-4.4-0.4l0,0l-3.3,2.6
	l-0.3,1.7l-4.7,2.9l2.9,2.8l1,6.5l-1.8,1.3l-0.4-0.1l-0.9,0.6l-1.1-0.2l-2.8,1.4l-1.3-2l0.5-2.3l-1.2-1.8l0.4-1.1l-0.3-0.2l-1,0.3
	l-0.8-0.8l0.1,0.1l-1.1-0.9l0.6-2.9l-7.6,1.8l-1.2-0.8l1.8-3.8l-0.5-0.1l-3.8,2.4l0,0.1l-2.7,1.5l-0.8-0.3l-0.1,0.2l3,1.3l0,1.2
	l3-1.5l3.8,0.9l0.7,1.7l0.1-0.2l-7,4.8l5.5,7.1l-0.1,2.5l-0.7,0.7l1.2,0.9l-2.2,4.9l-0.2,0l-2.2,3.1l-0.4,0.1l-0.2,1.6l-11.6,7.9
	l-0.9-0.4l-7.9,3l0.3,0.6l-0.1,0.5l0.2,0l0.8,1.7l-3,3.4h0l-0.3,0.5l-1.2,0.3l-1.8-0.9l-0.6-1.2l0.7-2.3l1.9-1.3l-0.4-1.5l-2.9,0.1
	l0,0.3l-4,4.1l7.4,17l-10.1,7.2l-0.5-0.1l-0.3-3.9l-9-6.5l-2,6.8l0.4-0.1l10.8,18l-1.1,1.4l-3.9-1.4l4.1,3.5l-0.7,1.5l2,1.4l0.1,0.9
	l0.2,0l2.1-1.1l2.2,4.1l-1.1,1.2l-0.1,0l-0.3,4.6l0.3,0.1l-0.3,0.1l8.5,2l1.5-1.2l4,1.3l1,1.5l3.6,0.7l0.1,0.4l0.9-0.2l1.9,1.3
	l-1.1,1.6l-1.8-0.2l-0.7,0.5l-18.1-3l-0.1-0.9l-2.9-0.9l0.1-1.1l1.1-0.6l-0.2-0.1l-1.5,0.6l-1.4-1l0.1,0.1l-20.5-25.8l1.5-1.1
	l7.1,3.8l0,0.1l4.6,3.8l0.5-0.2l-5.4-11.5l-0.4,0l-1.3-1.1l-1.3-17.5l-0.5-0.5l-3.5,2.5L609,165l0-6.1l-1.4-0.7l-0.2-0.7l0.4-0.7
	l-3.2-2.8l0,0l-1.1-3.1L581,166l-1.1-0.1l-1,11.6l-0.3,0.2l0.1,0l4.8,6.9l-3.8,3.3l-0.1,0l-2.7-6.1l0.3-1.2l-0.2,0.7l-0.3-0.8
	l-4,2.8l-11.4-27.6l0.6-1.5l-0.3-0.4l-3.2,1.4l-5.5-4.1l0.5-1.1l-5.4-4.3l-0.2-1.1l-20.4-0.9l-0.5-0.8l0.1,1.8l7.6,5.7l-4.3,5.5
	l-0.2,0l-0.5,2.9l-2,0.4L526,161l-1.6,0.2l-1.1,1.9l-5.9,2.1l-0.2,0.6l-19,7.2l-0.4,1l1.6,1.9l14.3-3.3l1.8,1.7l-21.5,30.5h-0.2
	l-5.6,8.9l2.2,8.2l0,0l1,0.8l0.5,9.1l0.3,0.2l-13.4,12.9l1.1,4.2l-0.7-0.4l-0.4,0.1l1.7,0.6l-0.1,4.8l-6.2,3.8l0.4,2.2l-0.1,0.1
	l0.1,0.1l-30,18.6l-4.1-1.8l-0.4-2.3l0.1,0.2l-0.6-2.1l0.8-0.4l-13.2-58.1l0.1-0.1l-7.4-11.1l0.1,0.3l1.3-10.7l-1.7,1.6l-1.2-0.7
	l0.4-2.1l0.9-0.5l-0.1-0.2l0,0.1l-5.2,0.6l-2.7-3l0-0.1l-2.3-1.7l-2.4,0.4l0,0l-32.4-1.4l0,0l-4.1-3.9l0.4-0.9l0.2-0.1l-0.5,0.1
	l0-0.6l-6.7-6.4l0,0l-1-0.6l0.3-18.6l0.3,0.1l0.3-0.1l-1.8-0.6l0-1.2l0,0l8.7-14.2l0,0L377.3,134.1L377.3,134.1z M714.7,82.4l0,0.3
	L714.7,82.4L714.7,82.4z M623.8,171.1L623.8,171.1L623.8,171.1L623.8,171.1L623.8,171.1z M577.2,178.8l0.2,0.6l0.2-0.1l0.2-1l-0.3,0
	L577.2,178.8L577.2,178.8z M561.9,41.2l0.4,0.3l0.2-0.9L561.9,41.2L561.9,41.2z M561.7,51.3l3.8-2l-0.6-1.2l0.2-0.7l-0.1,0l-1.2-1.1
	l0,0.1l-0.3-2.3l0.7-0.9l-1.2-0.9l0.2,1.3l-0.6,0.8l0.1,1.9l1.8,1.3L561.7,51.3L561.7,51.3z M560.4,52.1l0.9-0.6l-0.9,0.4
	L560.4,52.1L560.4,52.1z M549.8,46.5L551,47l0-0.4L549.8,46.5L549.8,46.5z M519.7,141.7l-8.2-7.3l-3.3,0.1l2.9,4.7l0,0l1.8,1.4
	l-0.2,1.8l0.2,0.1l0.3-0.7l1.2-0.7l0.7,0.2l0.5,0.6l0,0l0.1,3.8l8.4-3.1l-0.5,0l2.1-1.8l0.3,0.1l0-0.1l-4,1.5L519.7,141.7
	L519.7,141.7z M519.2,108.2l0.1,0.3l0.7-0.1l-0.3-0.9l-0.5,0.1L519.2,108.2L519.2,108.2z M506,101.1l0.9,1.1l0.4,0l-0.2,1.6
	l-0.1-0.5l0,0.1l-0.1,0l0.1,1.3l0-0.8l4.5,5l0.3,0l1.8,1.6l-1.1,1.1l-0.9,0L510,116l9.7,1.6l-0.1-0.3l0,0l0-3.3l-0.4-0.3l-0.3,0
	l-2.4-6.6l-0.1-0.1l0.1-1.1l-1.4-0.8l0.1,0l-3.8-3.8l0.4-1l6.1-3.1l-0.1-0.5l-6.8,0.9l0.2-0.1l-2.6,1.5l0.2-0.1L506,101.1L506,101.1
	z M446.3,255.3l-0.4,0.3L446.3,255.3L446.3,255.3z M491.3,158.7l-13.1-20l-0.5-0.1l-1.4,0.8l12.7,25.4l0.2,0l6.3,5.4l0,0l-0.1,0
	l0.3,0.2l-0.9-5.8l-0.1,0.2l0-0.7l0,0L491.3,158.7L491.3,158.7z M478.7,54.4l-0.5,0.8l0.6,1l2.3,0.4l0-1.2l1.7-1l5.7,1.3l-0.4-0.8
	l0.1-0.7l-9.6-0.7L478.7,54.4L478.7,54.4z M483.5,96.8l-4.6,1.1l0.1,0.1l0.1,0.3l2.9-0.1l0.2,0.5l1.3-0.3l0.5-0.9L483.5,96.8
	L483.5,96.8z M463.2,105.7l0.7,1.3l15.4-0.7l0.2,0.3l0.2,0l-0.1,0l12.3,0.8l0.2-0.4l-0.4-1.3l-9.7-5.2l-7.5,1.5l-0.6-1.5l0.1-0.1
	l-1.8-0.4l-0.1-1.4l-1.4-1l0.1-0.2l-3.2,1.9l0,0.2L463.2,105.7L463.2,105.7z M459.6,67l2.1,0.2l0.4-0.5L459.6,67L459.6,67z
	 M428.3,78.4l4.1,0.8v0.1l14.2-2.1l-0.5-2.7l2.7-3.2l1.8-0.3l1.1,0.8l-0.2-0.3l1.3,1.1l0,0l0.7-0.1l-0.1-0.8l-1.7-1.6l0.2-2.1
	l-4.6-2.5l-1-4.3l2.3-2.6l0.7,0.1l1.3-1.3l0.5,0.1l3.9-2.3l-1.4-0.6l0,0.2l-2.8-0.2l-1.8,1.2l0.1,0.4l-0.2,0.3l0.1,0.6l-9.4,6.8
	l0.1,0.4l3.8,2l0.4,1.1l-2.3,1.9l0.6-0.6l-0.6,0.2l-0.3,0.7l0.2,0l-2.6,1l-3.2,5.9l-2.4,0.1l-0.1,0.7L428.3,78.4L428.3,78.4z
	 M422.9,77.5L426,79l0.1,0.2l1.1-0.3l-0.9-0.4l0.1,0.1l-0.5,0l-1.5-1.9l0-0.1l-0.3,0L422.9,77.5L422.9,77.5z M389.5,120.2l36.5-2.8
	l-1,2.4l0.9,0.7l-0.2,2.5l-1.6,1.4L443,132l1.2-0.8l0.8-3.4l3.5-1.5l3.9,0.9l0.2,0.6l4.2,0.9l0.3,0.5l14.3,0.2l0.8,0.7l3.8-0.1
	l1.6-3.2l0,0.1l1.8-2.7l-0.6,0.4l0.4-4.4l-1.5-0.5l-0.2,0.1l0.5,0.8l-1.3,1.5l0.1,0.7l-2.9,1.3l0,0.1l-1.7-0.3l-1.2-1.3l0.1-1
	l1.4-0.7l-3-1.5l-0.4,1l-2.6,0.5l-2.7-1.4l-0.9,0.3l-2.5-1.4l0.2-0.5l-0.8-1.5l-0.2,0.1l-1.2-1.4l0.9-1.6l-0.2-0.2l-0.6,0l-0.7-1.6
	l-0.1,0.1l0.2-1.5l-0.1-0.2l-2.4,0l0.1,0.8l-2.4,1.2l0,1.3l1.8,1.3l-0.1,2l-0.9,0.5l-0.3-0.1l-0.9,0.6l-0.3,1.5l-1.2,0.1l-0.1,0.1
	l-0.6,0.2l-1.1-0.7l-0.3,0l-1.5-1.3l0.1-0.6l-0.8-1.7l0-0.2l-0.8-1l0.1-0.3l-3.6-4l0.3-1.2l0.2,0.7l-0.1-1.4l-0.1,0.4l-0.1-0.9
	l-5.9-3.4l-0.5,0.1l-3.7-3.6l-1.2,0.7l-1.7-1.8l-0.6,0.2l0.1,0.9l-0.4,0.3l5.3,4.8l2.1,0.1l1.1,1l0,0.5l4.1,2l-0.1-0.1l1.2,1.3
	l0,0.5l-1.4,1.5l-2.7-1.4l0,0l1.1,1.6l-0.1,0.9l-3.6,3l-0.7-0.1l0,0.1l0.3,0.7l-0.9,1.6l-0.1,0l-0.6,0.3l0,0l-5.5-1.9l-1-1.6
	l7.5-1.7l0.4-0.9l-2.4-2.6l-0.9-0.1l0-0.4l-0.4,0.1l-11.3-8l-12,2.8l0,2.4l-7.5,4.9l0.2,0.3l0.5,0.2l0.5,1.1L389.5,120.2
	L389.5,120.2z M418.4,110.8l0,2.6l1.7,1.1l3-2.3l-0.8-8.1l-1-0.6l-2.5,1.6l-0.1,1.1l-0.1-0.4l0.6,2.3l-0.1,0l-1.3,1L418.4,110.8
	L418.4,110.8z M514.3,41.4l4.7,0.9l0,0.9l8.2,0.9l1.5-1.1l-3.8-3.6l29-8.4l0.8-1.3L523.5,34l0.1,0.4l-3.8,1.9l0,0.3l-2.6,0.9
	l-0.3,1.4l-2.8,0.9L514.3,41.4L514.3,41.4z M166.3,25.1L166.3,25.1l0.7,1.4l13.9,1.2l0.5-1.1l-0.2-0.6l8.6,0.8l0.4-1.2l-0.8-0.9
	l-7-0.9l-1.5,1.1l0.1,0.7L165.5,23l-0.3,1.1L166,25L166.3,25.1L166.3,25.1z M302.3,373.3l-15.6,1.4l-0.6,1.2l-9.1,3.5l0.9,1.5
	l24.3-2l1.7-2.8L302.3,373.3L302.3,373.3z M235.7,160.6l4.6-0.1l1.6,1.2l1.5-1.5l4.5,0.4l1.6-1.3l-0.3-1.4L242,155l0.3,0.1l-5.7,0.3
	l-0.1,1.2l1.5,0.8l0,0.4l-2.3-0.3l-1.5,1.2l0.1,0.5L235.7,160.6L235.7,160.6z M106.9,79.1l-2.5,0.1l-0.6,0.8l1.4,2.5l1.4,0.1
	l1.4-1.5l0.1-1.4L106.9,79.1L106.9,79.1z M252.1,157.9l-0.5,0l-1.4,1.2l0,0.5l1.5,1.6l3.7-1.6l-0.2-1L252.1,157.9l0.2,0L252.1,157.9
	L252.1,157.9z M230.4,158.6l-3.9-0.4l-0.9,1.2l3.3,2.2l0.9-0.4l0.9,0.3l1.1-0.6l0.1-0.8L230.4,158.6L230.4,158.6z M667.7,151.8
	l0.1,0.1l1.5,0.3l2.7-7.9l-1.6-1l-3.9,3.7L667.7,151.8L667.7,151.8z M234,156.6l1.9-0.4l0.8-1l-7.3-3.8l0,0l-16.7-2.1l-0.6,1.3
	l-0.1,0l-0.5,1.4l1.1,0.7l5-2l-0.1,0.6l7.6,1.7l0.7,1.3l1.7,0.6l-0.3,0.4l0.6,1.5L234,156.6L234,156.6z M-0.1,56.9l1.1-0.2l1.5-2.4
	l0.1,0.1l0-0.1l0.1,0v0l0.6,1.1l13.5,1.9l0.1-0.7l1.2-0.6l0.2-0.7l1.5,0.1l0.2-0.3l3.9-1.6L-1,46l-1.2,1v9.1l1.2,1L-0.1,56.9
	L-0.1,56.9z M26.7,55.1l-0.3-1.9l9.7-2L29.6,49l-0.4-1.7l25.5-6l-0.1,0.3l32.6,2.8l0,0l0.7,0l-0.2,0.1l9.4,1.4l0-0.1l14.9-2.7l0.4,1
	l2-0.5l0,0l0.8-1.7l24.5,3.8l-1.3-1.2l0.3-0.7l-1.7-0.5l-0.7-1.1l0.4-0.8l-1.4-1.2l0-0.4l-1.3,0.4l0,0.3l-5.1,2.2l-8.8-2.4l0.7-1.7
	l0.5-0.2l0-1.1l2.2-1.2l-1.2-1.8l21.7,1l0.1,0.9l3.2,0l0.4,1.1l5.6,0.3l0.2,0.5l0.7-0.2l0.1-0.6l1.1-0.7l3.8,0.9l0.2-0.9l1.3-0.8
	l8.9,4.5l-0.1,1.1l7.9,2.8L177,46l-1.7,0.3l0,0.2l-4.1,1.5l9.7,0.3l0.1-0.4l-1.4-0.2l-0.5-1.7l2.2-0.9l0.4-0.7l3.6,0l0-0.8l-0.5-0.7
	l0.4-1.2l-3.2,0.8v0l-9.9-3.4l-0.1-1.7l1.6-0.8l2.9,0.9l0,0l-1.2-1.4l1.1-1.1l9.2,0.2l0.4,1.6l-0.5,0.4l1.7,0.8l1.4-3l1.6-0.7l0.1,1
	v-1l5.5,0.3l-1.4-2l0.2-0.7l-9.4-1.8l-0.6-1.5l8.2,0.3l0.2,0.5l11.2-1.8l-0.2-0.9l0.8-0.6l-0.5-0.1l0,0l-13.9-1.4l0,0l-5.3-1.9
	l0.9-1.6l1.3,0.1l1.1-1l0-0.2l8.5-1.1l0-0.9l21.5-1.5l-0.1-0.7l11.4-0.8l0.1-0.4l33.5,1.1l0.7,1.3l-7.6,1.6l0,0.6l7.4-0.5l0-0.6
	l0.7-0.8l6.5,0.4l0.3-0.9l9.7-0.5l1.2,1.2l1.2-0.9l3.3,0.4l0.4-0.8l14.5,1.2l0-0.1l-1.7-0.7l-0.1-1.9L314,15l0.5-1l36.7,1.4l0.9,1.4
	l-0.1,0.4l1.1,1.3l0,0.2l19.8-0.7l0.7,1.4l-11.5,3.1l-0.2,1l-5.4,2.6l2.6,1l0,0.5l2.1,0.4l0.4,1.7l-1.4,0.9l-2.5-0.2l1.2,2.4
	l-0.4,0.8l0.2,0.1l0.8,1.5l-3.1,1.3l-0.2,1.2l-4.1,0.9l0.6,0.5l0.1,1.5l-0.2,0.2l1,3.5l-2,0.6l0.1,0.7l-17.2,4l-0.3-0.1l-2.1,0.9
	l-2.1-0.6l-12.7,5.8l-0.8-0.9l-3.3,0.9l-0.5,1.1l-1,0.3l-0.6,2.3l-3.7,2.7l0,0.1l-0.8,2.7l-0.4,0.3l0,0.8l-0.5,0.7l0.1,0.5l-1.3,1.4
	l-1.9-0.6l-1.1,0.7l-3.4-2.4l0-0.2l-3.6,0.7l-6.6-5.1l0-0.4l-7.1-8.7l0.2-0.3l-0.4-1.8l0.5-1l1.6-0.5l-0.5-1.2l0.3-0.4l-4.6-1.7
	l0.4-1.8l0.8-0.4l0-0.4l-1.8-0.3l-1.5-1.7l0.9-2.8L247,31.6l-0.1-1.1l-5.3-0.8l-0.4-1.8l-2.8-1.2l0.2-1.4l13.3-2l-1.6-0.4l-0.5-1.5
	l0.1-0.2l-4.7,1l-0.1,0.3l-7.6,1l0,0.8l-2.7,0.1l0,0.5l-1.4,1.3l-0.3,0l-1.1,0.8l0,0.2l-4.4,0.6l-0.1,0.4l0.9,0.8l0,1.1l-5.1,1.4
	l0.2,0l1.2,1.4l-1.9,1.3l-0.1,0.6l-3.4,0.6l3,1.8l0.3,1.2l-0.1,0.1l13.4,0.7l0.3,0.7l6.5,0.8l0,0.6l1.6,0.5l0.2,0.5l4.4,0.3l0,0.5
	l3.2,1.2l-0.2,0.7l1.1,0.7l0.2,0.9l-1.3,0.9l9.3,2.8l0.1,0.3l3.5,0.6l0,1.8l-1.3,0.8l0,0.1l-2.9,1.5l-0.2,0.9l-3.4-0.4l-0.1-0.1
	l-4.8-2.4l-0.2,0.7l4.3,2l-0.1,0.7l2.3,2l-0.2,1.3l-0.6,0.3l-0.2,1.3l-1,0.7l-2.4-1.1l0.9,1.3l-1,1.4l-10.4-2.5l0.2,0l0.3-0.6
	l-3.2-0.2l-0.6-1.2l-3-1.4l-0.1-0.3l-10.6,0.1L226,57l0.3-1.6l7.7-1.4l-0.1,0l0.8-0.2l-0.2-0.3l0.2-1.2l3.9-2l-4.4-2.5l-0.2,0.1
	l0.5,1.3l-1,1.9l-3.3,0.5l-2.2-1.4l1.6-4.2l-7.7-0.7l-1,0.7l-0.5-0.1l0,2l-1.1,0.7l1.5,1.3l-3.9,3.2l-2.2,0.1l-0.1,0.5l-2.2,0
	l0.1,0.2l7.1,2.5l0.1,0.4l3.2,0.7l-0.4,1.9l-6.4-0.9l-0.1,0.2l-4.9,1.9l-1.3-1.2l-2.6,0.3l-1.1-1l0.6-1.3l-4.8,1.3l-0.3,0.6
	l-1.4,0.4l0,0l-8.9,6.6l-0.3,2.2l3,0.3l2.1,3.4l22.3,4.7l0.4,4.8l4.2,3.4l2-1.2l-2.1-5.9l1.6-0.7l-0.2,0.1l5.2-3.6l-4.4-4.4l2.4-2.6
	l-0.3-0.6l-1.3-0.7l1-1.7l-0.7-1.7l2.7-1.8l18.5,4.5l0.1,3.8l4.4,0.7l1.2-0.8l0.5,0.1l0.5-0.5l-0.1-0.7l3-1.9l4.7,3.8l-0.1,0.3
	l0.7,0.9l0.1,0l2.8,3.6l-0.3,0.5l8.7,3.7l0.8,1.6l2.4,0.8l0.4,2.1l-0.1,0.1l0-0.1l-0.1,0.1l0.6,1.5l-0.1,0.2l0.2,0.1l0.5,1.3
	l-1.5,1.9l0.5,0.1l0.4,1.3l4.9,1.2l-0.1,0.5l1,1l-0.3,1l1.1,1.1l-1.8,3.1l-3.2-1.6l-2.2,1.2l-1.4-0.5l-0.2-1l-7.4-0.7l-0.4-1.2
	l4.7-6.6l-20.4,3.4l6.3,0.7l0.2,1.6l-1.1,0.9l0.1,0.3l-0.6,1.4l0.3,0.4l0,0.3l5.8,1.3l2.7-2.8l1.5,0.8l0.1,1l1,0.9l-0.3,1.5
	l-5.1,2.2l0.1-0.1l-6.4,2.5l0.4-0.9l-0.4-0.3l-0.3,1.5l-2,0.7l-1.8-1.3l-0.3-1.9l-3.1,1.2l-0.6-0.2l-4.6,2.9l0-0.3l-0.6-0.4l-0.2,0
	l0.9,1.4l0.3-0.2l0.9,0.3l0.6,1.8l-9.2,2.6l0.3,0.3l-4.4,7.5l0.8,1.9l-0.3,0.3l0,0.5l-0.9,1.1l0,0l0-0.1l-11.6,9.2l1.5,14.3
	l-1.5-1.2l0,0.8l0.7,0.3l-0.7,0.1l-3.2-3.5l0.4,0.3l-4.5-7.9l-10.7-0.7l0.7,2.1l-18.2,2.9l-0.8,1.5l0.8,2.3l-0.2,0.3l2.9,14.8
	l9.5-0.8l1.9-4.3l6.9-1.1l2,1.5l-1.6,2.9l0,0l-0.5,3.9l-0.5,0.2l-0.4,1.2l-0.1-0.4l-0.3,3.4l9.1,0.3l0.2,0.9l1.7,1.1l-0.8,9.2
	l4.7,4.2l0,0l4.2-1.7l4.9,2.4l2.3-1.9l0.3-1.6l9.7-5.2l2.1,1.2l1.4-0.8l17.8,3.5l0,0l2.2-0.4l0.5,1.8l0.1-0.2l-0.1,1.4l0.7,0.5
	l-0.2,1.5l20.3,9.5l2.9,5.6l1.3,0.6l0.3,1.9l-1.5,1.9l4.2,0.5l0.2,0.9l28.3,9.8l1.5,2.7l-8,16.5l-0.3,0l-6.3,20.5l0.1-0.1l-1.2,1.6
	l-8.9,1.9L287,271.5l-1.2-0.7l-3.2,5.3l0,0l-6.8,2.8l-1.7-0.8l0.3,0.9l-0.4,1l0,0l0,0l1.3,0.9l-3.9,5.7l-7.9,1.1l-0.8,1.9l0.2,0.2
	l0.1,1.2l-5.9,1l0,0.9l1.4-0.4l1.4,1.7l-0.1,1.2l-1.6,0.8l-0.2-0.1l-0.1,0.4l-1.6,0.7l-0.7,2.3l0-0.4l-0.2-0.3l-0.2,1.9l-3.8,1.7
	l3.8,2.2l-0.3,2.3l-3.9,2.8l-0.5,1.9l-2.5,1.2l-0.2,1l1.6,2.7l-0.2,0.2l7.2,4.9l-0.4,1.1l-12.7,0.5l-0.8-1.7l-0.1,0.1l0.3-1l-1,0.2
	l-1.9-1.1l0-0.7l-2.9-0.5l-2.7-13.4l-2-0.6l-0.5-1.1l1.8-1.5h0l0.7-0.8l2,0.1l0.3-1.3l1-0.7l-0.4-1.7l-1,0.2l0,0l-1.6-0.8l8.3-46.1
	l0.5-0.4l-0.1-8.4L219,213.1l0.6-0.7l-0.9-2.2l2.9-3.2l-1.7-1.4l0.2-1.1l0.1-0.1l0-3l1.6-2.1l0-1.4l2.4-1.2l0.2-1.2l2.5-2.1l0.3,0
	l1-1.8l-0.2-0.2l-1.6-8l0.1,0.1l-1.7-2.9l0.1,0.2l-1.3,1.2l0.5,1.3l-2.6,1.5l-4.1-2.4l-0.9,0.5l-2.3-1.4l-0.2-1.3l-5-3.1l0-1.3
	l-44.1-20.6l0.9-2.5l-0.8-1.4l0.1-0.4l-8.4-8.2l0.2-0.9l-10.4-10.9l9.1,14.5l0.9-0.1l2,2.3l-0.4,1.5l-1.7,1.1l-12-11.3l1-1.7
	l0.9,0.1l-5.9-7.6l0-0.1L124.5,113l0,0.3L124,97.6l0,0l0.1,0.2l0.1-0.1l-1.7-5l-0.6-0.3l-0.1-0.4l-1.8-0.4L120,91l-5.6-3.2l0-1.1
	l1.5-0.6l0-0.1l-0.6-0.6l-0.2-2l-5-4.3l0,0l-0.7-0.5l-0.2-1.5l-0.5-0.4l-1,0.2l0.2,1.4l-1.6,0.9l-2.6-1.9l-0.2-1l0,0.3l-0.6-1.3
	l0.7-1l1.1,0.1l-3.7-3.2l0.9,3.5l-1.3,1l-4.5-4.1l0-0.3l-6.6-2.4l0-0.6l-3.5-0.2l-0.3-0.5l-14.1-2.2l0.3,0.4l0,1.3l-8.8,2.7l-1-1.1
	l0.5-1l-0.2-1l-0.5,0.2l0,0.2l-1.8,1.4l0.4,0.8l-2.1,2l0.6,0.2l0.7-0.7l3,0.8l0.3,0.6l-0.3,0.9l-4,1.6L56,73l0.2-0.8l-16.3,6.5
	l-1.2-0.5l-0.3,1.2l-3.5,1L33,79.2l1.2-1.7l4-1.2v1l0.1,0.1l11-5.8l0.2-0.9l-0.9-0.1l-1.1,0.7l-7.5-1l-0.5-2.6l-4,0.5l-2.7-2.2
	l0.2-0.9l-1.3-0.2l-1.2-1.9l11.3-5L41.1,57l-11.6-0.4l-0.2-1.1L26.7,55.1L26.7,55.1z M237.9,295.1l0-0.2l0,0L237.9,295.1
	L237.9,295.1z M238,295.3L238,295.3L238,295.3L238,295.3L238,295.3z M286.9,201.6L286.9,201.6l0.2,0l0-0.3L286.9,201.6L286.9,201.6z
	 M245.5,267.2l0.9,0L245.5,267.2L245.5,267.2z M243.8,320l-0.1,0.2l0.2,0L243.8,320L243.8,320z M243.3,174.1l0.1,0l0-0.1
	L243.3,174.1L243.3,174.1z M345.3,37.8l1.5,0.6l1.1-0.8l-0.7-0.3L345.3,37.8L345.3,37.8z M340.2,43.1l5.8-0.2l-1.7-0.8l-1.6,0.8
	l0.1-0.1L340.2,43.1L340.2,43.1z M284.8,46.6l1.7,0.3l0.4-1.2L284.8,46.6L284.8,46.6z M281.8,41.8l2.1,0.3l-0.1-0.3l-1.5-0.3
	L281.8,41.8L281.8,41.8z M211.4,35.3l0.1,1.5l0.2,0l0-0.5l4.9-1l-0.9-0.5L211.4,35.3L211.4,35.3z M203.5,21L203.5,21L203.5,21
	L203.5,21L203.5,21z M208.7,54.7l-1.4,0.8l0.3,0.6l-0.9,1.4L208,57L208.7,54.7L208.7,54.7z M205.8,20.5l1.7,2l0.4,0l-0.1-0.7
	l1.5-1.1l0.3,0l0.1-0.5L205.8,20.5L205.8,20.5z M209.3,38.2l0.2,0.1l0-0.2L209.3,38.2L209.3,38.2z M209.4,31.2l-2.2-0.1l1.6,0.4
	L209.4,31.2L209.4,31.2z M209.6,34.9l-0.1,0l0,0L209.6,34.9L209.6,34.9z M206.4,26l0.1-0.4l-0.6,0.4L206.4,26L206.4,26L206.4,26z
	 M204.3,31l1.6-0.1l-0.8-0.2L204.3,31L204.3,31z M202.3,30.9l0.6,0.5l0.5-0.3L202.3,30.9L202.3,30.9z M193.3,39.5l-0.4,0.5l7.4,6.1
	l-0.1,0.2l0.3,0.5l2.2-1.6l3.6,2.4l-0.6,1.6l0.8,0.6l3.4-3.2l-0.3-0.5l0.1-0.8l-1.4-0.2l-0.4-0.7l-5.9-0.5l-0.7-1.5l-1-0.2l-0.8-1.2
	l0.5-1.2l-0.1-0.4l5.1-3.9l-1.6-0.9l-3.3,0.7l0.4,0.6l-4.4,3.4l-2.8,0L193.3,39.5L193.3,39.5z M188.5,46.1l0.7,1.1l-0.2,0.7l1,0
	l-0.4-0.6l0.2-1L188.5,46.1L188.5,46.1z M186.2,40.8l2.1-1.3l-0.9-0.9L186.2,40.8L186.2,40.8z M156.6,48.4l3.6,0.9l0.3-0.8l4.6-1.3
	L156.6,48.4L156.6,48.4z M149.8,48.7l1.6-0.1L149.8,48.7L149.8,48.7z M147.8,48.6l1.4,0.1l-1.3-0.3L147.8,48.6L147.8,48.6z
	 M126.9,91.9l0,0.1l0.2,0L126.9,91.9L126.9,91.9z M37,51.7l0.2,0.4l3.2,0l-0.3-0.2l0,0L37,51.7L37,51.7z M802.2,388.6l0,12.6l-1,1
	l-802.4,0.1l-1-1v-13.8l1.1-1l64.5,2.2l-4.4-2.5l0.9-2.1l-4.6-1.6l0-0.4l-4.5-1l-0.1-0.9l22.6-1.1l-19.5-3l0-0.9l-5.3-1.2l-0.5-1.5
	l1-1.5l15.6,0.5l0-1.3l3.1-0.1l0-1.2l81.5-4.5l0.5,1l3.6-1.3l2.9,1.6l-0.1,0.9l18.2-0.2l-2.5-0.9l-2.4-3.8l3.1-0.7l0-1.5l15.3,0.6
	l-0.2,1.9l-0.6,0.1l16.7-1l0.8,1.1l33.4,0.4l-0.8-1.2l0.1-0.2l-2.4,0.3l-2.2-1.3l0.6-1.8l5.9-0.9l0.9-1.6l-1.3-1.8l0.5-1.1l3.2-1
	l4.4,2.7l3.5-2.3l-1.5-2.6l23.9-10l1.3,0.6l0.1,1.6l-18.1,8.3l-0.2,0.5l5.6,3.1l3.8,10.3l-28.2,7.1l2,1.5l-0.6,1.1l-9.8,0.2l0.1,0.8
	l-0.1,0.1l2.8,1.3l0.1,1.2L335,378l0.1,0.7l-0.1-0.7l0.6-0.1l-0.7-0.7l-15.4-0.2l-1-1.2l1.7-2.5l41.9-8.1l-0.6-0.8l0.2-1l10.9-3.2
	l-0.7-1.7l1.8-1l1.4,0.6l3.7-1.2l2.3,1.6l1.4-0.1l1.1-1.6l2.7-0.9l2,1.2l-0.1,0.3l9.9,0.2l0.6,0.5l88.5-4.1l0.5-1.6l18.9-3.1
	l0.4-1.2l3.5,0l0.5-1.2l17,0.4l0.1,0.7l27.7,3.1l-1.8,4.8l0.5,0.7l-3.5,2.9l45.2-13.8l1.4,1.4l99.4-1.2l0.2-1.7l1.7-0.8l1.9,2.6
	l23.3,2.3l0,0.8l11.4,1.9l0.7,1.5l0.1-0.6l-0.3-0.4l4.6,0.4l0.2-0.5l0.9-0.5l38.6,8.1l-0.1,1l-1.3,0.7l0,0.5l-0.1,0l0.1,0.4l-11,3.4
	l0,1.1l-5,1.4l-0.4,2.8l7.9,3.1l0.3,2l-13.6,0.9l-1.5,1.7l18.4,5.6l-0.7,0.6l27.3,2L802.2,388.6L802.2,388.6z M248.1,361.3l2.4-1
	l-1.1-1.2L248.1,361.3L248.1,361.3z M73.4,371.2l-4-0.3l0.1,0.6L73.4,371.2L73.4,371.2z M227.5,370.1l7,1.1L227.5,370.1L227.5,370.1
	z M22.8,57.8l-4.2-0.4l-1.3,1.2l7.6,1.8l0.7-1.2L22.8,57.8L22.8,57.8z M40,374.3l-4.5,1.3l0.3,1.8l12.5,0.5l-0.3-1.8L40,374.3
	L40,374.3z M27.9,80.4L26.8,80l-1.6,0.9l-0.1,1l1.4,0.9l0.9-0.2l1-1.5L27.9,80.4L27.9,80.4z M50.1,153.7l0.6-1.3L49,151l-1.4,0.9
	l0.2,1.2L50.1,153.7L50.1,153.7z M29.7,82.3l1.6-1l0.3-1.3l-2.2-0.9l-1.1,0.6l0.3,1.6l0-0.3L29.7,82.3L29.7,82.3z M52.8,157l1.3,1.9
	l3-2l-0.8-1.6l0.1,0.1l-1.8-1.2l-0.1-0.6l-2.7-1.1l-0.7,1l0.8,1.4l-0.1-0.3l1.1,0.8L52.8,157L52.8,157z M688.8,205.7l-4.5,0.8
	l0.3,1.5l1.2,0.8l1-0.4l1.5,0.6l0.8-0.4l2,1l1-0.6l-0.1-1.5L688.8,205.7L688.8,205.7z M731,211.7l-1.7,0.6l0,1.2l3,1.2l-0.3,0.1
	l7-1.6l0.3-1.1l0,0l0.1,0l0-2.5l-1-0.5l-0.7,0.2l0.3,0.1l-1.4-0.1l-1.6,2.4l-0.5,0.1l-1-0.6l-1,0.6L731,211.7L731,211.7L731,211.7z
	 M681.9,206.3l-0.2,0v1l-0.1-1l-1.8,1.1l0,0.7l2.2,1.6l2.1-1.2l0-0.4l-1.5-1.7L681.9,206.3L681.9,206.3z M680.7,178.5l-1.4-1
	l-0.8,0.3l-0.2,1.5l-0.3,0l-2.1,1.4l-0.9-0.4l-0.4-6.2l-2.2-0.8l-1.7,0.7l-0.3,2.8l1.3,1l-0.3,1l1.8,2l-2.8,4.3l1,0.8l1.1-0.4
	l0.6-1.1l0.2,0.2l1.8-0.6l0,0l-0.3,1.1l3,3.2l0,0l0.8,0.6l1.1-0.3l0.7-2.4l1.2-0.3L680.7,178.5L680.7,178.5z M668.4,221l-0.1,0
	l1.2,1.5l0,0.4l-1.6,1.3l-3.2-1.5l-0.7-1.4l0.2-0.4l-4.2,0.5l-1-1l0.4-1.7l3.2-1.4l2.2,0.6l1.2,1.5l0.6-1l5.5-0.1l1.4-1.1l1,0.4
	l0.5,1.1l0-0.2L668.4,221L668.4,221z M666.1,220.2l-0.2-0.8l-0.6,0.9L666.1,220.2L666.1,220.2z M699.6,203.8l-1-2.3l-4.7-1.1
	l-2.9,2.7l0.5-0.5l0.2,1.9l1,0.1l0.5,1.1l-0.4,0.8l1.5,1.5l-0.1-0.1l0.3,0.3l-0.1,0.5l1.1,1.8l2.1-0.9l1.7,0.5l0.2,0.5l8.3,5.2
	l-2.3,3.4l1.7,0.9v0l1.7-0.7l0.2,0.2l1.9-0.2l2.6,2.3l5.7-0.7l0.6-1.3l-0.1-0.2l0,0l0-0.3l0.6-0.1l0.3-0.4l15,5.9l0.2-1.1l-3.3-3.8
	l-1.6-0.2l-2.8-3.2l1.3-0.6l0.1-1.2l-21-11.1l-7.6,3.6l-1.7-2.5L699.6,203.8L699.6,203.8z M687.3,197l-0.3-0.7l-2.5-1.3l-1.3,1.2
	l0.7,5.8l1.8,1.3l0.8-0.4l0.2-1.1l-0.8-1.3l0.5,0.1l1-0.5L687.3,197L687.3,197z M675,224.1l8.9-4.4l0-1l-6.3,0.6l-3.4,3.3l0.1-0.1
	L675,224.1L675,224.1z M176.4,33l6.8,0.9l1.2-3.7l-11.1-0.2l0,0.2l-1,0.3l-0.5,1l1.6,1.4v0l3-0.2L176.4,33L176.4,33z M150.2,28.8
	l7-1l-0.3-1.9l-8.3,0.5l-0.2,0.3l0,1.3L150.2,28.8L150.2,28.8z M349.7,58.4l21.6-2.1l-0.1-2.2l-2.3-0.6l-0.2-0.7l-4.1-1.3l-1.2,0.5
	l-0.2,0.5l-1.7,0l0.2,0l-6.8,0.4l-0.2,0.8l-0.4,0.1l-0.8-1.4l-5.3-0.2l-2.3,1.7l-0.1,1.1l1.4,0.9l-0.1,0.3l0.5,1.3l2.3,0.2
	L349.7,58.4L349.7,58.4z M664.1,205.1l-0.6,2.5l1.3,1.6l0.3,0l-0.3,3.4l1.5,1.3l2.4-1.3l0-3.5l0.7,0.6l-0.1,1l1.8,1.3l1.3-0.9l0-0.1
	l0.7,0l1-0.9l-2.3-5.1l1.8-1.4l1.2,0l0.5-1.8l-1.5-1.1l-4.7,1.8l-1.1-1.2l0.3-0.9l9.1-0.3l1.8-4.1l-1-0.6l-1.9,1.9l-6.8-0.8l-1.5,1
	l-0.4-0.1l-2.1,4l0,0L664.1,205.1L664.1,205.1z M127.4,31.4l9.7-1.2l1.8,1.2l2.3-0.8l0,0.4l-2.3,0.9l0.3,1.5l6.6,0.6l0.8,1l19.4-1.3
	l0.8-1.6l-0.1,0.2l-0.2-1.7L155,29.3l0,1.7l-11.9-1.5l-0.1-0.3l1.4-1l-1-1.1l-16.5,2.8L127.4,31.4L127.4,31.4z M513.2,235.8
	l-1.9-8.5l-1.3-0.9l-1.4,1l-0.6,2l-0.5-0.2l-8.7,6.4l-0.4,7.5l0.5,0.5l-0.4,13.1l3,1.3l1.7-0.8l-0.1,0l2.8-0.7l6.7-20.5l0.6-0.1
	L513.2,235.8L513.2,235.8z"/>
</svg>
