<svg id="Tiki" xmlns="http://www.w3.org/2000/svg" width="254.8" height="558.5" viewBox="0 0 254.8 558.5"><title>tiki-sticker</title><path d="M253.6,484.3a50.4,50.4,0,0,0-8.2-18.9c7.6-41.1-8.5-77.3-16.4-90.4.1-1.7.1-3.4.1-5.1v-1c-3.5-34.8-13.9-94.9-26.5-152.9-6.1-28.1-12.1-52.6-17.3-70.8-8.7-30.4-13.4-37.8-20-41.9a29.5,29.5,0,0,0-11-3.8c-.2-3.9-.6-8.2-1.2-12.8C149.4,62.4,134.7,50.2,133,49a10.9,10.9,0,0,0-1.7-1.3c-7.8-16.7-18.1-25.2-19.5-26.3a19,19,0,0,0-11.5-3.9A80.4,80.4,0,0,0,93,6.5,18.7,18.7,0,0,0,77.8,0l-2,.2A19.1,19.1,0,0,0,62.9,7.7c-.8,1-4.6,6.6-8.5,16.1H53a19.7,19.7,0,0,0-12.9,7.5c-1,1.5-8.7,12.5-11.7,30.7-.4.5-.9,1-1.3,1.6S15,81.1,18,105.6c.5,3.9,1.2,7.7,1.9,11.1-7.1,3.1-12.3,7.1-15,12.8-.1.1-.1.3-.2.4-2,4.3-3.5,10.7-2.8,41.8C2.2,191,3.3,215.9,5,244c2.9,48,8.3,113.3,14.5,153.1.2,2.3.6,4.7,1,6.9s-.5,2.7-.8,4.1c-2.2,10.5-8,46.3,7.5,82.2.9,1.8,1.7,3.8,2.7,5.6a129.6,129.6,0,0,0-4.2,17c0,.6-.1,1.2-.1,1.7-.2,7.1,2.7,13.1,7.1,18a14.8,14.8,0,0,0-.1,2.1l.3,8.2a15.2,15.2,0,0,0,6.4,12,20.4,20.4,0,0,0,14.2,3.5l88.6-12.5a22.3,22.3,0,0,0,3.9-.9,26.7,26.7,0,0,0,4-.1l88.7-12a20,20,0,0,0,12.7-7.2,15.7,15.7,0,0,0,2.9-13.3l-1.9-8a11.8,11.8,0,0,0-.7-2C253.9,496.8,255.2,490.6,253.6,484.3Z" opacity="0.3" style="isolation:isolate"/><path d="M248,482.5c-1.4-8-5.1-14.2-8.1-18.8,7.4-40.9-8.5-76.9-16.1-90,0-1.7.1-3.4,0-5.1v-1c-3.4-34.7-13.7-94.3-26.3-152.1-6-28.1-12-52.5-17.1-70.5-8.6-30.3-13.2-37.5-19.7-41.7a29.1,29.1,0,0,0-10.8-3.8c-.2-3.9-.6-8.1-1.2-12.7-3.7-24.2-18.1-36.3-19.8-37.6a10.9,10.9,0,0,0-1.7-1.3c-7.6-16.6-17.8-25.1-19.2-26.2a18.4,18.4,0,0,0-11.3-3.9A103.4,103.4,0,0,0,89.3,6.6C85.9,2.3,80.3,0,74.4.1a6.8,6.8,0,0,0-2,.2A18.8,18.8,0,0,0,59.7,7.7c-.8,1-4.5,6.5-8.3,15.9l-1.4.2a18.8,18.8,0,0,0-12.7,7.4c-1,1.4-8.5,12.4-11.4,30.4l-1.3,1.7c-1.3,1.7-11.9,17.3-8.8,41.5.5,4,1.2,7.7,1.9,11.1-7,3.1-12.1,7-14.7,12.7-.1.1-.1.3-.2.4C.9,133.2-.5,139.7.2,170.6c.4,19.2,1.4,43.9,3.2,71.8,3,47.7,8.3,112.7,14.6,152.5a38.5,38.5,0,0,0,1,6.8c-.3,1.4-.6,2.8-.8,4.1-2.3,10.3-7.9,46,7.5,81.7.8,1.9,1.7,3.7,2.5,5.6a113.4,113.4,0,0,0-4,16.9,11.1,11.1,0,0,0-.2,1.7c-.2,7.2,2.8,13.1,7,18a7.4,7.4,0,0,0,0,2.1l.3,8.1a15.5,15.5,0,0,0,6.3,11.9,18.9,18.9,0,0,0,13.9,3.5l86.9-12.2a23.4,23.4,0,0,0,3.8-.9,25.4,25.4,0,0,0,3.9-.1L233,530.3a18.5,18.5,0,0,0,12.4-7.1,15.8,15.8,0,0,0,2.9-13.2l-2-7.8-.6-2C248.3,494.8,249.6,488.8,248,482.5Z" fill="#fff"/><g id="layer1"><path id="path526-7-7-7" d="M130.7,120.6s2.9-12,.1-30.9-14-27.7-14-27.7-5.1,11.9-2.4,29.3a155.3,155.3,0,0,0,7.8,30.5Z" fill="#0a0"/><path id="path526-7-0" d="M120.6,122.3s.4-18-3.9-46.3S95.9,34.4,95.9,34.4s-7.5,17.9-3.6,44A230.5,230.5,0,0,0,104,124.1Z" fill="#00d400"/><path id="path526-7-7" d="M42.3,132.8s-6-10.8-8.4-29.8,5.9-30.4,5.9-30.4,8.1,10,10.2,27.5a156.3,156.3,0,0,1,.8,31.5Z" fill="#0a0"/><path id="path526-7" d="M51.3,130.6s-4-16.1-7.6-44.5,8.8-45.6,8.8-45.6S64.6,55.7,67.9,81.8A233.9,233.9,0,0,1,69.1,129Z" fill="#00d400"/><path id="path526" d="M73,137.8S67.9,116.1,63,78,74.8,16.9,74.8,16.9,91.1,37.2,95.4,72.2s7.5,63.1,7.5,63.1Z" fill="lime"/><path id="rect132" d="M37.2,402.6c-7.1,30.5-3.6,65.8,10.3,89.2-1.9,5.9-4.4,14.1-5.4,20.7-.3,10,19.5,17.9,19.5,17.9L49,531.6l.3,8.1,86.8-12.3v-5.8c-1.8.6-14.7-23.5-10.4-27.5a157.7,157.7,0,0,0,19.2-2.5c5.8,3.6-.7,29.5-2.5,29.2l1.5,5.5,86.9-11.7-1.9-7.9-12.4,2.4s16.8-13,13.9-22.6c-1.3-8.2-6.3-13.9-9.3-18.7,3.5-29.7,1.2-66.2-16-88.4Z" fill="#66381f"/><g id="g1463"><path id="path526-7-7-7-7" d="M175.6,466.7a13.4,13.4,0,0,1,5.7,9.3c.7,6.2-8.6,10.9-8.6,10.9s-7.1-2.7-7.6-8.5a20.1,20.1,0,0,1,2.1-10.6Z" fill="#0a0"/><path id="path526-7-0-3" d="M161.6,468.7a20.2,20.2,0,0,1,8.4,14c.9,9.3-12.9,16.3-12.9,16.3s-10.6-4.1-11.4-12.6a30.7,30.7,0,0,1,3.1-16Z" fill="#00d400"/><path id="path526-7-7-1" d="M87.2,478.9a13.4,13.4,0,0,0-2.8,10.5c1.1,6.2,11.2,8.1,11.2,8.1s6.1-4.5,5.1-10.1a20.2,20.2,0,0,0-5-9.7Z" fill="#0a0"/><path id="path526-7-6" d="M101.3,477A20,20,0,0,0,97,492.8c1.7,9.2,16.7,12.2,16.7,12.2s9.2-6.8,7.6-15.3a30.5,30.5,0,0,0-7.4-14.4Z" fill="#00d400"/><path id="path526-4" d="M123,470.6s-7.8,8.8-5.7,21.1S139.7,508,139.7,508s12.2-9,10.2-20.4-9.9-19.3-9.9-19.3Z" fill="lime"/></g><path id="path136" d="M129.4,481l2.4-11.7-2.1-8.3-20.2,1.1-1.2-8.4s-14.1-.3-17.9,1.3-11.9,9.3-14.7,11.8-10,.3-10,.3c4.9-1.1,5.9-35.3-6.3-43,0,0-20.4-22.1-21.6-21.7s-14,48.1,9.8,89.7c7.1,8.2,82-8.5,81.8-11.1Z" fill="#a05a2c"/><path id="path136-1" d="M139.1,479.6l-5.5-10.5-.4-8.6,19.9-4.3-1.1-8.5s13.5-4.1,17.7-3.6,14,5.6,17.4,7.3,9.7-2.4,9.7-2.4c-5,.2-15.2-32.3-5.6-43.2,0,0,13.7-26.8,14.9-26.6s26.5,42.4,14.9,88.9c-4.7,10-81.5,14.1-81.9,11.5Z" fill="#a05a2c"/><path id="rect10" d="M19.7,135.2c5.4-11.7,118.4-25.6,130.5-18s48.5,180.6,55.6,252.6C208.5,446.1,40,459.6,36,393.3,24.5,321.2,14.2,147,19.7,135.2Z" fill="#824a26"/><path id="path14" d="M46,184.2c-10,1.5-17.4,4.8-17.6,7.9s-.8,12.5,7.2,6.5c9.5-7.2,31.1-13.2,55.8.4-.3,3.2-.6,75.5-3.9,76-6.1.7-5.3,10.7-5.5,17.1s8.3,3.6,8.3,3.6c5-1.7,7.2,2.3,11.2,4.2a10.5,10.5,0,0,0,6,.8c10-1.4,6.6-10.8,18.1-11.1,3.1-.1,5.6-.8,4.3-4.4-1.7-5.2-2.3-15.1-9.9-14.5-1.9,0-12.3-50.1-18.8-73.6,20-19.2,42.1-19.2,53.1-14.9,9.2,3.7,5.6-6.8,5.1-8.2-2.5-7.1-45.4-4.2-59.6,19.8-2.3,1.6-4.1,4.4-8,1.1C79.1,186.7,62,182.1,46,184.2Z" fill="#a05a2c"/><path id="path89-0" d="M87.3,227.3c1.3-3.5-6-42.8-46.7-25.4s26.6,59.3,46.7,25.4Z" fill="#a05a2c"/><path id="path109" d="M81.7,231.1c-2.1-4-6.8-39-48.4-18.9C33.3,212.2,45.1,242,81.7,231.1Z" fill="#382923"/><path id="rect524" d="M18.5,145.7a1172.2,1172.2,0,0,0,136.8-18.9l3.7,10.7c-46.6,16-93.5,21.8-140.6,19.4Z" fill="#a05a2c"/><path id="path89-0-0" d="M110.7,224.1c-2.3-3.1-6-42.9,38-37.1s-9.5,64.2-38,37.1Z" fill="#a05a2c"/><path id="path109-2" d="M118.1,225.9c.9-4.3-4.1-39.4,41.4-31.3,0,0-3.3,32-41.4,31.3Z" fill="#382923"/></g><rect x="69.8" y="322.4" width="92.9" height="44" rx="10.4" transform="translate(-43.3 17.8) rotate(-7.4)" fill="#382923" stroke="#a05a2c" stroke-width="16.47"/></svg>