<?xml version="1.0" encoding="utf-8"?>
<!-- Generator: Adobe Illustrator 23.0.0, SVG Export Plug-In . SVG Version: 6.00 Build 0)  -->
<svg version="1.1" id="Ebene_1" xmlns="http://www.w3.org/2000/svg" xmlns:xlink="http://www.w3.org/1999/xlink" x="0px" y="0px"
	 width="1191.1px" height="98.4px" viewBox="0 0 1191.1 98.4" style="enable-background:new 0 0 1191.1 98.4;" xml:space="preserve"
	>
<style type="text/css">
	.st0{fill:#444444;}
</style>
<title>animals</title>
<path class="st0" d="M307.2,58.3c11.5-7.7,26.6-13.1,40.1-7.5c3.6,0.5,7,2.1,9.7,4.5c-5.5,1.5-11.3-0.2-16.8,1.4s-9.4,2.2-13.2,5.1
	c3.5,1,7.2,1.4,10.9,1c3.8-0.4,6.5,3.5,10.4,2.9s4.6-3,7.2-4.1s7.4-1.1,10.7-3s5.6,1.7,7.9,3.4c5.3,2,17.5-2.2,20.2,4.6
	c-1.9,0.7-8,1.3-9.8,2.2c-2.3,0.5-4.7,0.9-7.1,1.1l8.7-0.7l7.4-0.5c0,0.9,0.4,1.9,0,2.7c-3.7,2.2-13.8,1.2-17.4,3.5
	c-2,1.3-4.7-0.1-6.5,1.8s-2.7,2.4-3.9,3.9c1.7,0.2,3.2-0.8,4.9-0.1c-0.8,0.4-1.7,0.7-2.6,0.9l1.6,1c-6.1-0.5-11.2,3.5-17.3,3.4
	c1.6,3.2,5.5,4.3,8.1,6.6c-1.6,0.2-2,0.8-0.8,2.2c-1-0.8-2.1-1.4-3.1-2.1c0,1.1,0.3,2.2,0.7,3.2c-1.3-0.6-2.5-1.2-3.7-2
	c-0.5,1.1-1.1,2.2-1.8,3.3c-1.2-1,0.1-2.8-0.8-3.9s-2.6,0.7-3.8,1.1v-0.6c0.5-0.5,1.2-0.9,1.5-1.6c-2.8-1.8-6.4-2.3-9.6-2.9
	c-0.4-0.8-0.7-1.6-1-2.3c-8,2-15.9-1.2-23.3-3.9c0,3.7,4.2,5.8,4.5,9.6l-2.8-1.3l-0.6,2.8c-0.4-0.7-0.8-1.3-1.3-1.9
	c-0.2,0.8-0.4,1.6-0.6,2.4l-2.1-1.8c0,3.2-1.4,1.4-1.9-0.3c-0.5,0.4-0.8,1-1,1.6h-0.7c0.2-1.8,0.8-3.6,1-5.4s-2.2-3.5-3-5.5
	s-0.8-5.3-1.2-8s-2.1-3.4-2.7-5.2v-1.4C303.3,64.9,304.1,60.8,307.2,58.3z"/>
<path class="st0" d="M268.1,7.8c5.7-4.2,11.9,1.1,15.2,6.3c1.5,4.9-5.3,3.9-8,5.2c-1.4,5-1.9,5.7-2.2,8.8
	c-1.3,11.9,3.7,22.2-1.3,27.7c-4.7,5.2-10.6,3.9-12.6,8.1s0.5,9.2-2.4,14.2s-0.6,8.9,0.9,13c0.7,1.6,3.7,2.5,2.2,4.6
	c-1.8-0.9-4.2-1.1-5.2,0.9c-1.2-1-2.5-1.9-3.8-2.7c-1.4-10.8-0.5-19.9-1.7-30.8c-6,2-12.1,0.1-17.3-3.1c-1.9,5.7-4.4,9.2-5.9,15
	c-0.7,7.7,3.2,15.3,8.2,20.9c-1.1,0-2.2-0.3-3.2-0.7l-0.3,1.4c-4.1-5.7-6.6-12.3-9.6-18.6c-0.8,6.3,0.3,12.6,2.1,18.6l-2.4-0.7v0.7
	c-0.7,0-1.5,0-1.5-0.8c-0.3-6.7-1.7-13.4-3.1-20c-1.1-4.6,5.1-6.8,1.6-11.1s-9.3-11.3-6.6-18.4c0.8-2.1-1-2.6,1.2-4.3
	c0.5-0.4,1.9-2.8,2.4-3c2.7-1.1,7.6-1.5,11.2-1.6c12.1-0.4,22.2,1.7,34.2,1.9c2.1-0.7,2.2-5.3,2.7-6.9c1.3-6.5,2.4-14,2.5-20.6
	c-1-2-0.2-5.9,1-8c2.2-2.3,3.6-2.1,4.2-1.5c0.4,0.4-1.1,1.7-1.4,2.2C268.4,5.2,268.5,6.2,268.1,7.8z"/>
<path class="st0" d="M641.6,3.7c-0.7,0.4-1.6,0.7-1.9,1.6c1.6,7.3,3,14.8,2.9,22.4c0.9,3.7,3.4,6.8,6.8,8.5c2.5,2.7,5.1,5.7,8.7,6.7
	c5.8,0.8,11.2,3.7,14.3,9.1s0.6,12.3,4.3,17.5c1.6,1.9-0.1,4.7-2.3,5c0.9-4.2-0.9-8.2-1.8-12.2c-0.8,3.1-1.7,6.4-1.5,9.6
	c2.1,6-0.7,12.4,0.3,18.6c1,2.9-2.3,4.6-2.2,7.2c-1.7,0.9-3.7,0.1-5.2-0.8c4.8-5.7,4.6-13.4,3.8-20.5c-2.4-4.5-6.9-7.8-8.6-12.9
	c-5.1,0.6-10.5,0.1-14.9-2.6c0,4.4,1.2,8.7,1.1,13.1c-0.4,7,2.4,14.3-0.6,20.9c-0.8,0.3-1.6,0.4-2.5,0.4c0-0.4,0.1-1.1,0.1-1.5
	c2.1-1.8,2.7-4.7,1.6-7.2c-0.8-1.6,1.4-5.8-1.5-5.4c1.7,5-1.2,9.5-1.3,14.4c-1.2,0.5-5.6,1.9-3.6-0.9s3.7-6.1,3.7-9.7
	c-0.6-8.3-0.6-16.8-2.8-24.9c-0.3-3.5-3.3-6.1-3-9.7c0-2-0.3-4.5,0.2-6.4c0.2-4.1-2.5-5.6-2.2-9.9c1.3-7.7,0.9-15.6,0.9-23.4
	c-1.5-5.1-7.8-3.3-10.8-6.7l0.5-0.4l-1-0.8c1.3-1.3,2.6-1.5,5.1-1.5s6.2,0.2,7.4-0.2s2.5-1.8,3.7-0.6C636.1,2.3,640.5,2.6,641.6,3.7
	z"/>
<path class="st0" d="M193.3,90c-0.9-1.3-0.7-4-1.1-5.8s-0.4-5-0.9-7.3s-2.1-3.9-2.7-6s-0.2-1.7-0.5-2.7l0,0c-0.6-1.9-1.6-4-1.6-5.9
	l0,0c-0.5-4.4-0.4-8.4-4.3-11.1s-9.5-5.1-15.2-6.6s-10.3-2-15.5-2.9c-3.6-0.6-7.5-1.5-11.1-1.1l0,0c-3.8,0-7.7,0.5-11.4,1.3
	c-2.6,0.5-5.4,0.9-7.3,2.7c-1.8,1.8-3.1,4.1-3.8,6.5c-0.3,1.3-0.4,2.6-1.7,2.9c-1.1,0.1-2.2-0.4-2.8-1.3c-1.1,0.4-1.3-0.8-2-0.8
	s-0.2,0.8-1.4,0.1c0.2,0.6,0.3,1.3,0.3,2l-0.5-0.6c-0.1-0.4-0.3-0.7-0.6-0.9c0.1,0.2,0.2,0.6-0.1,0.6h-0.4l0.3,0.6l0,0
	c0.1,1.2-1,0.9-1.6,0.4s0.2,2.5-0.8,2.5s0.1-1.1-0.3-1.1s-0.4,0.4-0.4,0.6l0,0c-1.1,2.9-3.3,6.4-3,9.6s0.9,3.6,1.1,5.4
	c0.1,2.7,0.6,5.5,1.3,8.1c0.5,0.6,1.1,1.1,1.7,1.5c1.2,0.7,3.3,0.3,3.5,1.9l0,0c0.4,0.8,0.7,1.7,0.9,2.6h0.1
	c0.6,0.5,1.4,0.7,2.1,0.4c0,0.1,0,0.2,0.1,0.3c0.2,0.6,0.5,1,1,1.4h0.1c0.3,0.2,0.8,0,0.9-0.3c0-0.1,0.1-0.2,0.1-0.3l0,0
	c0.5-0.8,1.3-1.6,1.7-2.4s1-3.4,2.4-4.8s5.9,0.2,8.4,1.1c1.9,0.7,4,1.2,6,1.5c0.6,1,1.7,1.1,2.3,1.8s0.2,2.3,0.6,3.1
	c1.1,2.3,3.3,2.9,2.8,5.5s-1.3,2-2.2,3.1c2.5,0.5,5-0.4,7.5-0.7c-1-1.3-0.6-1.9-0.4-3.3c1.5,0.3,3.4,0.4,4.7,1.1l0,0
	c0.4,0.1,3.1,0.1,3.4-0.2c1.9-2.3-2.7-3.8-3.5-4.5c-0.5-0.3-0.8-0.7-0.9-1.2c-0.3-0.9,0.1-0.4,0.2-1s0.3-1.2,0.5-1.3l0,0
	c1-1.1,0.6-2.9,0.8-4.1s0.1-2.8,1.9-2.9c1,0,2,0.2,2.9,0.6c1.4,0.3,2.9,0.4,4.3,0.4c2.2,0,3.1-0.9,4.4,0.8c0.8,1.1,1.3,2.4,1.5,3.7
	c0,0.9-1.2,3-1.2,3.2l0,0c-0.4,0.9-1,1.7-1.7,2.4c-0.3,0.4-1.7,1.8-1.6,2.3s-1.2,1.2-1.4,1.3c-3.5,1.4,1.8,1.4,2.6,1.4
	s3.1,0.5,3.4-2c0.1,0,0.1,0,0.1,0.1c0.7-2,2.8-3.4,3.8-5.3c1.2-1.8,2.2-3.8,3-5.8c-0.9-1-0.1-1.5,0.1-2.6c0-0.7,0-1.4,0.1-2.1
	c0.3-0.4,0.7-0.5,0.9-1.1s0.7-1,1.3-1.9s1.1-1.7,1.9-1.9s0.4,0.3,0.9,0l0,0c0.2,1,2.8,3.6,3.2,4c1.4,1.5,2.9,2.9,4.4,4.2
	c-0.4,0.8,1.6,2.6,2,2.5s1.4,2.7,1.5,3.1c0.3,1.1,0.5,2.3,0.4,3.4c0.1,1.3-0.1,2.5-0.5,3.7c-0.2,0.4-0.8,0.5-0.9,0.9
	c-0.7,2-0.4,1.3,1.7,1.2s3.4-0.4,3.9-1.9l0,0C193.5,91.5,193.7,90.7,193.3,90z"/>
<g id="layer1">
	<path id="path6591" class="st0" d="M42.6,96.3c-0.8-0.3-1.1-0.9-1.8-1.2l-0.5-0.4c-0.1-0.1-0.5,0.3-0.7,0.1s2.4-2.2,2.3-2.5
		s-0.7,0.2-0.8,0.2c0.6-0.4,1.3-0.8,2-1.1c1.3-0.4,2.5,0.4,3.4-0.9c0.6-1,0.7-2.3,0.4-3.4c0-0.4-0.1-0.9-0.3-1.3
		c-0.3-0.4-0.6-0.3-0.6-0.3c-0.4-0.8-0.7-1.6-0.9-2.5c-0.3-0.8-0.7-1.6-1.1-2.3c-0.3-0.6-1.6-4.8-2.4-4.6s0.1,0.6,0,0.7L40.9,77
		c-0.4,0.2-0.8,0.4-1.2,0.5l-2.4,1.4c-0.9,0.6-2,1-3.1,1.2c-0.1,0-0.1-0.3-0.3-0.3h-1.4c-0.8,0.3-1.5,0.9-2.3,1.2s-0.6,0.2-1.5,0
		s-3.1,0.7-4.5,1.5c-1.3,0.7-2.5,1.5-3.6,2.5c-0.6,0.6-0.9,1.3-1.6,1.7s-1.8,0.9-1.7,1c0.1,0.1,0.1-1.2-0.3-1.3s-1.3,1.3-1.6,1.1
		s0.7-1.2,0.1-1.6c-0.6-0.4-1.2,1-1.8,1s0.4-2.3,0.3-2.5s-0.3-0.2-0.4-0.3S13,84.4,13,84.2c0-2.3,2.2-4.4,3.8-5.7
		c1.7-1.5,3.4-2.8,5.3-4c1.7-1.2,5.3-2.5,5.7-4.9c0.2-0.8-0.2-0.8-0.2-1.5s0.8-2.7-0.9-2.6s-1.1,0.8-1.5,1.1c-0.5,0.5-1.2,0.9-1.9,1
		c-1.3,0.5-1.6,1.3-2.3,2.6c-0.2,0.7-0.5,1.3-0.9,1.8c-0.6,0.5-2.2,0.2-2.9,0.6s-2,4.3-3.7,5.9s-1.3,0.3-2.4,0.2s-2.8,0.9-3.9,0.2
		s-0.4-1.2-0.4-2c0-1.3-0.1-2.7-0.3-4c-0.5-3.2-1.8-6.3-2.2-9.6c-0.1-1.2,0-2.3,0.1-3.5C4.6,58,3.8,58,2.9,56.7S1.5,54,2.4,53.2
		s1.8,0.8,2.7,1s0.4-0.9,0.7-1.6C6,51.7,7,51.2,7.9,51.4c0.3,0.1,0.5,0.2,0.7,0.4c1.4,0.9,1.1,0.9,2.2-0.5s1.5-2.2,2.3-3.2
		c2.8-3.3,6.4-5.9,10.4-7.6c4.2-2,8.1-4.7,12.6-5.4c2.2-0.3,4.4-0.3,6.6-0.5c1.8-0.2,3.6-0.5,5.3-0.9c0.9-0.2,2.2-0.8,2.8-0.6
		s1.8-1,2.1-0.8l-0.3,0.3l1.9-0.7c0.2,0.5,0.9,0,1.5-0.2c1.2-0.4,2.5-0.7,3.8-0.8c2.5-0.4,5.1-0.6,7.6-0.4
		c5.6,0.6,10.9,2.8,15.3,6.3c1.7,1.3,3.1,2.9,4.7,4.3c1.6,1.2,2.9,2.7,3.8,4.5c2,4.1,3.8,8.9,2.8,13.6c-0.4,2.1-0.3,4.3-0.8,6.4
		c-0.5,2.1-0.8,4.9-1.9,7v2.1c0.1,0.7,0.2,1.4,0.4,2.1c0.3,2.4,0.2,4.7,1,7s2,3.6,1,5.2s-3.5,2.7-5.1,3.4c-2.1,0.9-4.3,1.4-6.6,1.3
		c-1-0.1-4.4-0.2-4.8-1.2s1.2-2.2,1.9-2.5c0.4-0.3,0.9-0.4,1.4-0.5s1.9,0.1,2.2-0.2s-0.1-1.2-0.7-1.8c-0.4-0.4-0.8-0.8-1.1-1.2
		c-0.2-0.3-0.3-1.1-0.6-1.2L80,85.4c-0.1-0.2-0.2-0.5-0.4-0.7c-0.6-0.4-3.2,6.2-3.5,7.1s-0.8,2.7-2.2,3.4s-2.7,0.4-3.8,0.5
		c-3.6,0.5-9.3,2.3-12-0.8c-0.1-0.2,1-1,0.8-1.1L58.2,94c-0.3-0.1,1.3-1.3,1.6-1.4c1-0.2,2-0.2,3-0.2c1.5-0.2,2.8-0.8,3.2-2.4
		c0.7-3.3-0.7-6.9-0.2-10.3c0.1-1.8,0.3-3.6,0.6-5.4c0.1-0.6,0.7-1.7,0.6-2.2s-0.3-0.5-1-0.5s-3.4-0.1-5.2-0.4l-2.6-0.6
		c-0.8-0.3-1.6-0.5-2.5-0.6c-0.1,0.1,0.9,3.5,0.9,3.8s0.4,3.3,0.8,4.9c0.2,0.8,0.1,1.6-0.2,2.3c-0.2,0.9-0.4,1.8-0.6,2.7
		c-0.1,0.7-0.2,1.4-0.3,2.1C56.2,86,56,86.1,56,86.3s0.3,0.7,0.3,1.2c-0.3,0.8-0.8,1.6-1.4,2.2c-0.5,0.8-1.1,1.5-1.6,2.2
		s-1.1,1.2-1.5,1.8s-0.1,1-0.4,1.4s-3.7,1.1-5,1.2C45.1,96.6,43.9,96.6,42.6,96.3L42.6,96.3z"/>
</g>
<path id="path8055" class="st0" d="M868.4,20c-0.2,1.4,0.3,2.4,0.5,3.8c0.1,1.2,0.1,2.3,0,3.5c-0.2,2.2-0.1,5.9-1.5,7.9
	s-3.8,2-6.4-0.1s-3.7-5.8-5.2-8.3s-4.3-4.1-5.2-7c-1-2.9-3.2-5.9-5.5-6.5s-6.3,0.6-6.9,1.6c-0.6,1.1-3,11.5-5.3,7.1
	c-1-1.9-1.5-5.3-3.4-6.5c-1.8-1.2-4-0.4-5.9,0.9s-2.5,3.5-3.3,5.6c-0.4,1.2-0.9,2.4-1.5,3.6c-0.7,1.2-1.8,1.8-2.7,2.9
	c-2,2.5-3.6,5.3-4.4,8.4c-0.9,2.6-0.7,5.4-0.7,8.1c0,1.3-0.4,2.5-1.3,3.5c-0.5,0.4-5.4,4.1-4.3,4.8c1.2,0.8,4.9-2.6,5.8-2.8
	c0.9-0.2,0.4-0.4,0.9,0.2c0.3,0.7,0.4,1.5,0.5,2.2c0.9,5,1.5,11,0.6,14.9s-0.1,9.1-0.3,12s-0.9,7.2-1.1,8.6
	c-0.2,1.5-1.3,3.6-1.3,4.8c-0.1,0.9,0.6,1.7,1.5,1.8c1.2,0.4,2.5,0.4,3.7,0.1c0.5-0.3,0.2-0.6,0.6-0.9c0.4-0.3,1.1,0.1,1.4-0.4
	c0.3-0.5,0.3-0.1-0.4-1.4s-2.2-1.7-2.7-3.2c-0.2-0.9-0.2-1.9,0-2.8c0.1-3,0.6-6,1-9c0.1-1.3,0.3-2.6,0.8-3.9
	c0.5-1.1,0.8-2.2,0.9-3.4c-0.1-0.9-0.2-1.7-0.3-2.6c0.1-1.3,0.4-2.6,1-3.8c1.2-2.9,3.1-4.9,3.2-8.2c0-1.1,1-3.7,1.7-2.7
	s0.9,3.3,1.2,4.5l1.2,4.1c0.7,2.6,1.2,5.3,1.5,7.9c0,2,0.4,4,1,5.9c1.1,3.1,2.7,5.8,3.5,9c0.4,1.5,1,4.4,1.1,4.6s0.3,0.2,0.6,1
	s0.1,0,0.2,1.1s0.9,1.7,1.3,1.8c0.4,0.1,3.5-0.8,3.4,0.5s-1.5,1.1-0.4,2.5c0.4,0.5,1,0.9,1.6,1.1c1.1,0.4,2.2,0.6,3.3,0.5
	c1.4-0.4,0.1-0.4,0.8-1s1.8-0.2,1.7-1.1s-1.3-1.6-1.8-2.1c-1-0.5-1.6-1.6-1.6-2.7c-0.3-3.6-0.2-7.2,0.4-10.7c0.3-1,0.8-2,1.3-2.9
	c0.6-1.5,0.3-2.5,1.1-4.6s1.8-4,2.9-6.1c1.1-2.1,2-4.6,3-6.4c1-1.7,1.6-1.7,2.5,0.1c0.9,2.1,1.5,4.4,1.8,6.7
	c0.4,1.9,0.9,3.8,1.5,5.6c0.7,2,0.4,4.2,1.4,6.1c1.8,3.6,2,7.9,3,11.9c0.3,1.5-0.4,4,0.8,5c1.2,1.1,4.1,1.1,5.3,0.9
	c0.6,0,1.1-0.2,1.5-0.7l0.2-0.6c0.2-0.2-0.3,1.7,0.8-0.3s-1.2-1.5-2.9-2s-1.7-0.9-2.3-2.7s-1.6-3.4-2.1-5.1c-0.6-2-1.1-4.2-1.3-6.3
	c-0.1-1.6,0.4-3.3,0.1-4.9c-0.4-3.5,0.7-6.9,1.3-10.3c0.1-0.8,0-2.7,0.5-3.3s2.3-0.7,3-0.9c3.6-1.1,5.9-1.7,8.6-5.4
	c2.7-3.7,4.4-9.3,5.3-13s0.4-7.9,2.5-11.2c1-1.5,2-3.6,2.9-4s2.4-1.6,3.6-1.5c1.2,0.1,3.9,1.7,4.4-0.6c0-0.4-0.2-0.6-0.2-0.9
	s0.2,0.6,0.3-0.7c0.1-1.3,0.6-0.5-0.5-2.3s-1.6-3.2-3.6-3.4c-1.9-0.2-4.6-0.1-6-0.6s-2.6-1.6-3.5-1.7s-1.8,0.2-2.7,0.1
	c-0.9-0.1-1.6-0.8-2.6-0.9C871.2,13,868.5,18.7,868.4,20z M836.4,59.9c1.3,0.2,3.5-0.4,3.3-0.4s0,8.7,0.1,9.5c0.1,2.7-1,4-0.8,7.8
	c0.2,3.9,0.7,7.2-0.2,10.9c-0.3,1.1-0.5,2.5-1.3,2.5s-1.8-1.8-2.2-2.4c-1.1-1.7-1.9-3.7-2.2-5.7c-0.8-3.1-1.2-6.2-1.4-9.4
	c0-1.3,0.5-14.3,1.1-14.3C833.9,58.3,835.2,59.7,836.4,59.9z"/>
<path class="st0" d="M1127.9,62.5c1.2-1.2,4.3-0.5,5.4-1.8c-0.5-1.5-3.2-3.6-3.4-5.4s0.5-1.1,0.8-2s0-1.3,0.2-1.7s1.9-2,2.2-3.1
	c-1.1-5.2,3.6-6.3,6.7-8c3.3,0.1,7.6-0.8,10.5,0.7c0.1,0.6-0.5,0.5-0.6,1s1.2,0.1,1.2,0.9s-3.5-0.1-4.3,1.3s1.3,0.6,1.8,1.1v2
	c-0.5,0.1-1,0.3-1.4,0.6c1.2,2.8-4.4,1.8-2.6,4.6c1,0,3.8-0.1,5.2-0.9s2-4.9,4.2-6.3c0.5,0,1.2,0.1,1.5-0.2c1.2-2.7,3.9-4.4,6.8-4.4
	c2.2-0.2,6.5-1.5,8.4,0.2s0.6,2.5,1.6,3.5s1.7,0.6,1.7,1.6s-1.4,1.1-0.4,1.7c-0.6,0.9-1.5,1.6-2.4,2.2c-0.1,0.9,1.2,0.4,1.1,1.3
	s-0.9,3-2,2.8s-0.3-0.6-0.4-0.9s-1.1,0.5-1.6,0c-0.2,0.6-0.6,1.1-1,1.5c1.3,1.1,3.1,1.7,4.3,2.9c2.5-1,5.5-4,8.3-1.5
	c0.2,0.8-0.3,1-0.2,1.7s0.8-0.6,1.5-0.6s1,0.8,1.7,1s-0.2,0.9-0.2,1.5s1.8,0.2,2.2,0.9s-0.8,1.7-0.7,2.9c0.1,1.2,1.5-0.8,2.8-0.7
	s0.3,3.4,1.6,3.9c0.5,2.4-2,2.9-3.3,1.8c-0.4,0.4-0.2,1.2-0.6,1.5s-1.1-0.4-1.8-0.5s1.2,1.4,0.5,2.7c-1.3-0.3-1.8,1-2.5,1.7
	s-1.1-0.8-1.7-1.1s-0.7,0.3-0.8,0.7s1.4,1,0.6,1.9s-2.6-0.8-4.4,0s-1-0.8-1.2-1.5s-2.3-0.6-3.3-1.1s-3.3,1.3-5.7,0.7
	c0.1,1.8,2.5,1.9,4.1,1.7c2.1,2.2,2.6,6.2,5.1,8c0.4-2.5,3.5,4.7,7.1,7.9c2.2-0.2,4.3,0.2,6.3,1.1c0,1-1.6,0.3-2.1,0.8
	c1,2.1,3.9-0.7,5.4-0.2c-0.4,4.9-9.6,6-11.5,1.6c-5.1-2.9-7.2-9-11.6-12.5c-1.6-0.4-2.5-1.5-3.7-2.3c-4.2,0.1-8.1,0.3-10.8-1.4
	c-1.6,0.9-2.4,3.6-4.6,4.2s-4.6-0.1-6.3,1.5c-5.7,0.8-11.2,1.9-15.2,4.4c-0.9,0.4-1.9-0.1-2.4,0.4s1.3,3,1.5,5
	c-0.3,0.7-0.8,1.2-1.5,1.5c0.1,1.3,2.2,0.6,2.4,1.8c-3.1,1.6-5-1.2-6.1-2.9c0.4-3.3-0.2-7.3,1.7-8.9s2.2-0.4,3.3-1.3
	c3.4,0.3,6.7-2.2,10-3s7.4-0.8,8.7-4c-1.1-1.3-2.5-0.7-4.2-1.1s-1.2-0.9-1.9-1.3s-1.1-0.3-1.7-0.6s-2.5-2.5-4.8-3
	c-1,0-2.1-0.1-3.1-0.3c-5.9-1.9-8.2-8-10.2-14.1c-0.2-2.5-0.7-4.9-1.5-7.2c-0.6-6.6-5.4-9-10.5-11.1c-1.6-0.2-2.6,0.3-4.1,0.2
	s-1.9-0.8-1.7-2.4s2.8-1.2,4.3-0.8s1.1-1.2,2-1.6s3.1-0.5,4.3-1.5c1.2-0.1,2.3-0.1,3.5,0c2.2,0.5,2.2,3.1,3.9,4.4
	c-1,3.7,2.1,6.3,2.8,9.5c0.1,0.7-0.1,1.4,0,2.2c0.3,3.8,1.8,8.8,3.7,11.5C1125.6,60.9,1126.7,61.9,1127.9,62.5L1127.9,62.5z"/>
<g id="layer1-2">
	<path id="path2831-1" class="st0" d="M929.8,4.9L929.8,4.9c-0.4,0,2.2,6,1.2,7.2s-3.8-5.9-4.7-2.5L926,8.3c0.3,1-4.3,7.5-5.7,7.6
		c-3.5,0.2,1-8.7-2.4-8.9c-0.6-0.1,0.1,6.6-0.3,7.1c-3.1,3.9-1.8-4.3-1.9-4.4s-1.8,3.9-1.7,4.4s1.9,3,1.3,3.6s-2-3-2.6-3
		s5.3,10.6,5.7,11.3c1.8,2.4,8.7,10.1,6.3,13.2s-6.7-1.7-7.3-3.9s0.9-4.9-1-4.9s0.1,4.2-1.2,4.1s-0.7-2-1.6-2s0.8,3.3,0.2,3.4
		s-1.5-1-1.8-1.5l0.7,2c-0.9-0.2-1.6-1-1.7-1.9c-0.7,0.9-2.3,2.3-3.5,1.9s0-2.1-1.2-2.7c0.1,1.3-2.1,2.9-2,3.5s3.7,1.9,4.5,2.6
		c2.8,2.3,3.5,6.4,7.8,6.4c-1.5,3.7-15.8,4.6-11,10.5c1.7,2.1,2.3,0.8,4.1,0.5c2.5-0.4,5.1-0.2,7.5,0.8c2.8,1,5.5,2.2,8.1,3.5
		c4.1,2.1,11.3,6.1,13.4,10.1s-0.5,9-0.8,12.5s-0.5,8.5-3.5,9.5v2.6l4.6-0.7c-2.6-5.7,3.5-15.5,5-21c0.4-1.5-0.3-3.2,1.8-2.5
		s3.8,6.8,4.3,8.4c1.7,5.1,5.7,8.8,6.3,14.4l0.9-0.6l-0.9,2.4l4.5-0.4c-0.8-1.3-0.6-2.7-1.1-3.9s-3.3-4.6-4.6-6.9
		c-2.4-4.2-2.5-9.5-3.6-14.2c6.1,0.5,11.4,2.8,17.6,0.8c3.3-1.1,2.6-1.7,4.8,0.5s3.2,3,3.6,4.4c1.3,3.8-5.5,8.1-7.4,10.7
		s-2.2,5.2-3.9,7.6c2.8,0.3,4.2-0.1,5.3-2.9c0.9-2.3,2.2-4.4,4-6.2c1.1-1.2,2.1-2.6,3.2-3.8s4.6-3.2,4.7-4.8s-2.9-4.2-3.4-5.9
		c2.2,2.1,4.6,4,6.4,6.4s2.1,6.9,2,10.7c0,0.5-1.2,9.7-1.6,9.2c1.6,0,3.2-0.3,4.7-0.8c0.5-0.4,0.6-2.2,0.6-3c0-3.2-0.8-6.3-1-9.5
		s0.7-6.5-0.1-9.1s-5.2-5.2-5.8-8.7s4.8-11.5,2.2-13.2c0.7-0.4,2.2-2.3,0.8-2.7l2.2,0.5c-0.9-2.4-2.8-3-5.2-3.1s-4.7-0.9-7.5-1.4
		s-7.5,0.4-11.2,0.1s-5.4-0.3-8.1-0.3c-6,0-13.1-2.1-18.8-0.3c-3.4,1.1-4.9,2.5-8.4,1.6l-5.6-1.1c0-2.6-0.3-3.8,2.7-4.2
		c1.5-0.1,3.1-0.2,4.6-0.1c-0.7,0-1.3-0.4-2-0.4c1.9-0.3,5.7-0.1,5.9-2l-2.1,0.2c5.5-3.9,3.8-9,3.2-14.5c-0.4-4,0.7-4.1,3-6.6
		c0.7-0.7,4.9-6.1,2.3-6.9c0.5,0.2-4.5,9.7-6.6,6.3c-0.8-1.3,3.7-9.5-1-9.4c0.8,0,0.1,10.4-2.5,2.7C932.8,10.8,932,4.6,929.8,4.9
		L929.8,4.9z M926.5,10.3c1.3,1.3,1.2,2.8-0.7,2.1L926.5,10.3z M924.7,14.4c1.7,0.4,3.2,1.4,4.4,2.7c-1.2,0.5-5.7,3.6-6.8,3.2
		C919.4,19.2,923.6,15.2,924.7,14.4L924.7,14.4z M931.4,19.3c2.4,1.9,3.8,8.3,4.5,11.1c1.4,6.2-2.9,8.5-8.5,10
		c2-3.6-4.1-10.3-4.4-13.9S927.5,20.9,931.4,19.3z M910.3,35.8c2.6,2.9,6.9,3.9,10.4,5.8c-2.4,1.4-4.1,1.6-6.3-0.2
		S910.1,37.8,910.3,35.8L910.3,35.8z"/>
</g>
<path class="st0" d="M581.1,70c-0.3-0.9,0.1-1.9,0-2.9c0-0.4,0-0.7-0.1-1.1s-0.8-1.4-0.8-1.7s1.5-1.9,1.8-2.6s0.9-2.2,0.4-2.5
	s-1.2,1.1-2.1,0.3S580,58,578.9,58c-1,0-1.9,0.6-2.3,1.6c-0.4,0.5,0,0.7-0.6,0.7l-0.9-0.6c-0.7-0.8-0.4-1.3-0.7-2.3
	c-0.4-1.5-1.4-2.7-2.7-3.5c-1.6-1-2.5-2.6-4.3-3.6l-5.5-2.2c-1.5-0.7-3.1-1.1-4.7-1.3c-2.8-0.1-5.2,0.8-7.8,1.6s-7,0.7-10.3,0.3
	c-1.8-0.1-3.6-0.4-5.4-0.7c-1.5-0.3-2.9-0.9-4.3-0.6s-4,1.4-6.1,1.7s-3.7,0.7-5.6,0.8s-4.3,2.2-6.2,4.4c-0.4,0.5-1,0.8-1.6,0.9
	c-0.2,0-0.7-0.2-0.9,0.1s0.2,0.9,0.1,1.3s-1.7,2-2.2,2.8c-2.4,3.3-3.1,7.6-1.9,11.5c0.3,0.9,0.6,1.9,1,2.8s0.2,2.4,0.7,3.6
	c0.2,0.3,0.4,0.7,0.5,1.1c0.1,0.7,0.1,1.3,0,2c-0.3,1.1-0.3,2.1,0,3.2c0.5,1.6,1.4,3.4,0.4,4.9c-0.6,0.6-0.9,1.5-0.9,2.3
	c-0.1,0.7,0,1.4,0.2,2c0.5,1.2,1,0.9,1.8,1.4s0.7,0.9,1.2,1.1c2.4,0.9,3.4-1.1,3.4-3c-0.2-1.3-0.4-2.5-0.8-3.7
	c-0.4-1.8-0.3-3.6,0.1-5.4c0.1-0.9,0.2-1.9,0.4-2.8c0.2-0.6,1.5-3,1.9-2.8s0.9,1.6,1,1.8c0,1.1-0.1,2.2-0.4,3.3
	c-0.4,2.2-2.2,4.6-0.7,6.5s2.4,2.3,2.6,3.3s-2.1,3,0.9,2.8s4.3,0.3,6-0.3s-1.8-2.3-2.4-3.1c-1-1.7-1-3.8-0.1-5.5
	c0.8-2.1,0.5-4.4,1.8-6.3s0.8-1.7,1.9-1.3s2.5,1.3,3.8,1.8c0.9,0.3,1.9,0.6,2.9,0.7c2.7,0.6,5,1.2,7.7,0.9c2-0.3,4-0.8,6-1.3
	c2.5-0.5,3.8,3.2,3.8,5.3s-0.6,2.6-0.6,4c0,0.5,0.1,1.1,0.3,1.6s1,0.7,1.1,0.9c-0.2,0.7-0.4,1.3-0.7,1.9c-0.1,0.3-0.5-0.1-0.5,0.5
	s0.4,0.7,0.8,0.9s3.4,0.1,4.8,0.2c0.8,0.1,1.6,0,2.4-0.1c0.4,0,1.7-0.1,1.9-0.6s-2.6-2.7-3-4.3s0.1-1,1.2-1.2
	c1.2-0.1,2.2-0.7,2.9-1.7c0.9-1.1,1.7-2.2,2.4-3.5c0.5-1.1,0.7-2.4,0.6-3.6c0-0.5-0.2-1.5,0.2-1.9s1.4,0.1,1.9,0.2s0.6,0.4,1,0.4
	s1-1,1.4-1s1.1,1.7,1.3,2.4c0.5,1.2,1,2.4,1.6,3.5c0.4,0.9,0.3,1.8,1,2.6c0.5,0.6,1.1,1.2,1.7,1.7c0.9,0.8,1.9,1.4,2.7,2.2
	s3.3,1.2,5.3,2c0.4,0.2,0.5,0.5,1.1,0.6s1.7-0.7,2.1-1c0.6-0.5,1.1-1.1,1.5-1.8c0.5-0.8,0.8-2,1.5-2.6s2.3-1.2,3.3-2.2
	c1.5-1.6,2.7-3.5,3.5-5.6c1.2-3.2-1.8-0.1-3,0.4s-5,0.6-4.1-1.9c0.2-0.7,1.1-1.6,0.3-2c-0.9-0.1-1.8-0.1-2.7,0
	C581.5,76.4,581.7,72.7,581.1,70z"/>
<path id="path4696" class="st0" d="M794.5,81.9c-0.1-0.5,0.7-1.8,0.6-2.4s-0.5-0.7-0.6-1.2c-0.1-0.6-0.1-1.2,0-1.8
	c-0.1-2.8-0.9-5.5-0.9-8.3c0-2.2,0.4-4.4,1.2-6.5c0.6-2.7,0.6-5.5,0-8.2c-2.1-8.8-9.4-17.4-17.6-21.1c-1.9-1.1-4-1.8-6.2-2.1
	c-3-0.3-5.4,0.5-8.2,1.2c-2.7,0.7-5.5,1-8.3,0.7c-1.3-0.1-3,0.1-3.9-0.8s-1-1.7-2-2.3c-4-2.7-8.9-2.6-13.6-2.5c-1,0.1-2,0.3-3,0.6
	c-0.5,0.1-1,0.3-1.5,0.6l-0.7,0.3l-0.8,0.5c-0.2,0.3-0.5,0.2-0.7-0.1c-1-0.2-2-0.5-2.9-0.9c-1.1-0.4-2.3-0.6-3.5-0.5l-1.6,0.3
	c-0.7,0-1.4-0.2-2.1-0.4c-1.3-0.5-2.7-0.6-4.1-0.3c-2.6,0.7-3.4,3.8-4.2,6c-0.9,2.9-1,6-0.3,9c0.4,2.4,1.2,5.1,1.1,7.6
	c-0.3,0.6-1.6,2.2-0.6,2.7c-1.1,1.4-1.5,2.9-3.1,4.1c-0.5,0.4-1.1,0.7-1.7,1c-0.5,0.2-2.3,0.4-2.5,0.9s1.5,1.4,2.1,1.5
	c0.9,0,1.8-0.2,2.6-0.6c0.8-0.3,3.1-1.8,3.1-2.9c-0.1,0.7-0.2,1.5-0.4,2.2c0,0.7-0.2,1.8-0.2,2.7s-0.2,2.4-0.3,3.6
	c-0.1,1.2,0.3,2.6,0.3,4s0.1,4.3,0,6.4s-0.4,5.6-2.2,6.9s-2.4-0.9-3.2-0.1s0,0.6,0.1,1c0.1,0.3,0.1,0.6,0,0.9c0,0.3-0.4-0.1-0.3,0.4
	s0.4,0.6,0.5,0.7c0.4,0.1,0.9,0.2,1.3,0.1c1.1-0.1,2.3,0.2,3.3-0.2s3-2.4,3.9-3.8c0.8-1.7,1.5-3.5,2-5.4h0.1c0.4,0,0.8-5.4,0.9-5.8
	c0.2-2.6,0.4-5.2,0.8-7.8c0-0.5,0.1-1.1,0.3-1.6c0.4-0.9,0.2-0.6,1.2-0.8c1.3-0.3,2.4-0.9,3.5-1.6c0.4-0.4,1.1-0.7,1.5-1.1
	s0.8-1.3,1.5-1.5h1.1l1-0.4l1.3-0.7c0.1,0.7,0.1,1.5,0,2.2l0.3,1.5c0.1,0.4,0,1,0.3,1.3l1.1,1.4c0.8,0.6,0.1,1.1,0.1,1.9
	c0.1,2.7,0.5,5.4,1.1,8c0.8,3.3,2,6.4,2.8,9.5c0.3,1.5,0.7,2.9,0.9,4.4s-0.4,3.3,0,4.8s1.1,3,0.1,4.3s-1.5,0.6-2,1.5
	c-0.4,0.6-0.6,1.4-0.7,2.1c1.2,1.4,3.5,1,5.1,1.3l0,0c1.4,0.3,3.6-0.5,4.9-1.1s1.9-1.8,1.2-3.7s-0.7-4.1-0.9-6.1s-0.4-3.5-0.5-5.3
	c-0.2-3.6-0.8-7.4,0.1-11c0.3-1.3,0.5-2.6,0.6-3.9c-0.1-1.2-0.6-2.8-0.6-4l2.2,0.4c0.7,0.1,1.2,0.6,1.4,1.3c0.5,1.3,0.6,2.8,1.1,4.2
	s2,4.2,2.9,6.3c1.1,2.2,2,4.5,2.8,6.9c0.2,1.2,0.5,2.3,0.8,3.5c0.5,1.2,1.5,2.1,2,3.2c0.5,1,0.6,2.1,0.4,3.2c-0.4,1.2-2.1,2.8-0.6,4
	c0.6,0.3,1.3,0.6,2,0.8c0.6,0.2,1.3,0.2,1.9,0h1.5l0.5,0.2l1.2-0.6c1.8-0.6,3.1-2.4,3-4.3c-0.2-2.4-2.7-4.1-3.5-6.2
	s-1.1-6.4-1.7-9.5c-0.5-1.7-0.7-3.5-0.6-5.3c0-0.3,1.1-3.8,1-3.8l0.7,0.4l1.5,0.2l2.2,0.5l4.9,0.5c-0.2,1.5,2.4,3.3,3.3,4.3
	c1.2,1.3,2.1,2.9,2.5,4.7c0.2,1.7-0.6,4.2-0.9,5.9c-0.3,2.4-1.2,4.6-2.7,6.5c-1.1,1.2-4.1,3.5-3.4,5.2s1.1,0.6,1.6,0.8
	c1.1,0.3,2.2,0.3,3.3,0.2c1.6,0,4.5,0,5.7-1.4s0.3-0.7,0.8-1c0.6-0.2,1.2-0.3,1.8-0.3c0.9-0.1,1.7-0.5,2.4-1.1
	c0.9-0.9,0.7-2.1,0.5-3.3c-0.2-0.9-0.3-1.8-0.3-2.7c0.1-1.8-0.8-3.2-1.3-4.7c-0.6-1.4-1-2.9-1-4.5c0.1-1.7,1-3.1,1.7-4.6
	c1.5-3.3,3.1-6.7,4.3-10.1s1.7-3.5,2.3-5.4c0.2-0.4,0.6-2.6,0.9-2.7s0.9,1.6,1,2.1c0.7,2.2,0.3,4.4-0.2,6.6c-0.3,2-0.3,4.1,0,6.1
	c0.3,2.2,0.8,4.5,1,6.7c0.2,1,0.1,2-0.1,3c-0.1,0.5-0.5,1.3-0.4,1.7s0.7,1.1,0.7,1.2L794.5,81.9z"/>
<path id="path96" class="st0" d="M1086.2,24.5l-2.3,0.9c-1-1.5-1.5,0.8-1.9,1.6s-2.8,2.9-2.1,5.3c-2.8,1.4-2,6.3-5.3,7.6
	s-8.5,0.5-12.8,0.9c-8.4,0.9-18.4,5.8-22.9,13.2c-2.3,3.7-1.9,7.7-2.1,11.7c-0.3,7.3-2,15.8-7.4,21.2c-1.7,1.7-3.3,2.9-5.5,3.7
	c-4.7,1.9-9.5,3.3-14.5,4.1c-1.8,0.2-7,0.5-7.1,2.5c8-1,16.6-1.3,24.3-4c2.2-0.8,4.9-1.4,6.9-2.8s5.1-5.8,7-9s2.6-3.9,3.3-6
	c3,0.5,6.1,0.9,9.1,0c0.9,3.8-1.3,8.7,4.5,8.7c0,1.1-0.3,2.8,0.7,3.6s3.9,0.4,5.3,0.4c4.9-0.1,9.7-1.2,14.5-0.9
	c-0.5-1.9-3-2.1-4.7-2c-3.2,0.2-9,2.1-11.4-0.9l11-0.2c-1.7-3.5-7.4-2.3-10.5-2.3c-0.9-5.5,1.6-10.5,2-15.8c3.5-0.5,5.9-3,8.3-5.3
	s2-1.3,2.6-2.5h0.3c0.9,1.9,2.3,3.7,1.6,6s-2.1,1.1-1.9,2.5l0.7-0.2l-0.7,1.5l1.4,0.2l-0.3,0.9c2.4-0.6,3-3.6,3.2-5.8h0.2L1079,70
	l1.4-0.4l-0.7,1.5c3-0.3,3.2-4.8,2.8-7.1s-2.7-6.2-2.3-9.4s3.8-3.2,4.7-5.6s-0.5-3.9-0.5-6s1.1-4.3,1.3-6.7c2.3-0.3,7.6-0.3,7.8-3.5
	c0.1-0.7-0.4-1.4-1.1-1.5c-0.9-0.3-1.8,0-2.7-0.3s-2.9-1.8-5.1-1.8L1086.2,24.5 M1079.2,63.1l0.3,0.2L1079.2,63.1"/>
<path class="st0" d="M478.6,38.7c-0.2,0.1,0.1,0.9,0.2,1c-0.5-0.2-0.7-0.7-1-0.1c-0.3-0.3-0.6-0.5-0.9-0.7c-0.1,0.3-0.1,0.5,0,0.8
	c-1,0.1-1.6-0.5-1.2,0.7c-1,0.1-2-0.1-2.9,0.1c-0.4,0.1-1.9,0.1-2.2,0.4c0.2,0.5,0.8,0.7,1,1.2c-0.8,0.1-1.4-0.4-2.1,0.1
	c-0.1,0.3-0.2,0.5-0.3,0.8c-0.2,0.3-0.5,0.4-0.8,0.2c-0.4-0.2-0.7-0.1-1,0.3c-0.1,0.4-0.3,0.8-0.4,1.2c-0.4,0.4-1.4,0.1-0.8,0.8
	c-0.8-0.2-0.9-0.2-1.2,0.2c-0.1,0.2,0.3,0.5,0.2,0.7c-0.2,0.2-0.8,0.1-1,0.2c0.1,0.2,0.3,0.3,0.5,0.4c-1.4,0.8-0.7,0.7,0.2,1.8
	c-0.2,0-1.5-0.6-1.6-0.4c0.1,0.2,0.1,0.4,0.2,0.6c-0.2-0.1-0.4-0.1-0.6,0c1,1.4-1.2,1.5-2.3,1.7c-2.2,0.3-4.2,0.2-6.4,0.1
	c-2-0.1-4.1-0.1-6.1-0.2c-2,0-4.1,0.2-6.1,0.2c-1.8-0.1-3.2-0.5-5-0.3c-2,0.2-3.5,0.5-5.5,0.1c-3.2-0.7-7.8-2.1-10.9-0.3
	c-1.5,0.8-3.4,2.3-4.2,3.8c-0.8,1.4-0.8,3.2-1.3,4.8c-1.4,3.7-2.4,7.3-3.4,11.1c-1,4.1-2.1,8.2-3.2,12.3c-0.5,1.8-0.7,4.1-1.8,5.7
	c-0.4,0.6-1.1,1.2-1.7,1.7c-0.3,0.2-1.3,0.5-1.4,0.8c0.6-0.1,1.2-0.3,1.8-0.4c-0.8,0.8-1.9,1.4-2.7,2.2c-1,1-0.6,0.6,0,1.7
	c-0.2,0.3-1,0.3-1.1,0.7c0.7,0.2,1.5,0.2,2.3,0.4c-0.5,0.3-1,0.3-1.5,0.6c0.3,0.8,3.4,0.3,3.9,0c1.2-0.6,1.9-2.1,2.4-3.3
	c0.5-1.4,0.6-2.9,1-4.3c0.4-1.6,0.9-3.2,1.4-4.9c1-3.5,1.8-7.1,2.7-10.7c0.3-1.1,2.2-10.8,2.8-10.6c0.4,4-0.3,8.2-1,12.1
	c-0.3,1.8-0.7,3.6-1.3,5.3c-0.5,1.6-1.8,3-2.2,4.6c-0.3,1.4,0.8,3.6,1.1,5c0.5,2,1.1,4.1,1.8,6c0.6,1.6,1,2.5,2.8,2.8
	c1.8,0.2,4.3,0.7,5-1.5c0.6-1.9-0.8-1.6-2.2-2c-0.2-0.1-2-0.4-2.1-0.5c-0.5-0.4-0.5-2.3-0.6-2.9c-0.1-1.9,0.3-3.4,1.3-5
	c0.5-0.8,1.7-2.9,2.1-1.3c0.2,0.8-0.1,1.7,0,2.5c0.2,0.8,0.6,1.5,1.1,2.2c1,1.6,2.3,3,3.4,4.5c1.1,1.5,1.9,2.1,3.8,2.2
	c1,0.1,4.8,0.2,5.5-0.8c0.6-1-1.3-1.7-2-2c-0.8-0.2-1.6,0.1-2.3-0.3c-0.8-0.4-1.4-1.4-1.8-2.1c-2.1-3.8-0.2-7.1,1.1-10.8
	c0.6-1.8,1.2-3.6,1.7-5.4c0.4-1.2,0.5-3.8,1.4-4.7c1.2-1.2,3.9-1.1,5.4-0.6c1.7,0.6,3.1,1.8,4.8,2.5c3.8,1.7,7.1,2.2,11.2,1.7
	c1-0.1,2-0.3,3-0.4c0.5-0.1,2.1-0.5,2.6-0.3c1,0.5,1,3.2,1.5,4.1c0.9,1.4,2.5,1.1,3.5,2.2c1,1.1,1.1,3.7,1.1,5.1
	c0.1,1.4-0.1,2.7,0.1,4c0.1,1.6,0.1,2.9,0.5,4.5c0.4,1.6,1.3,2.3,3,2.6c1.4,0.2,4.4,0.5,5.6-0.3c1.7-1.3,0.8-2.9-0.8-3.5
	c-0.6-0.3-1.5-0.1-2-0.7c-0.3-0.4-0.1-1.7-0.1-2.2c0-2,0.7-4.1,1.1-6.1c0.5-2.3,0.9-4.6,1.4-7c0.2-0.8,0.2-2.3,0.6-2.9
	c0.4-0.6,0.8-0.3,1.1-0.5c0.5-0.3,0.7-0.6,1.1-0.8c0.2-0.1,0.6,0.3,0.8,0.2c0.3-0.1,0.4-1.2,0.5-1.5c0.2,0.1,0.4,0.2,0.6,0.4
	c0.2-0.3,0.1-0.9,0.1-1.1c0,0,0.1,0.1,0.2,0.1c0.3-0.8,0.3-1.8,0.5-2.6c0.1,0.1,0.2,0.3,0.3,0.4c0.4-0.1,0.7-1.6,0.8-2
	c0.1,0.2,0,0.5,0.2,0.6c0.6-0.8,0.9-2,1.3-3c0.9,0.6,0.6-0.7,1.3-0.6c0.4,0.1,0.3,1,0.6,1.2c0.3-0.3,0.3-0.8,0.5-1.1
	c0.1,0.1,0.2,0.3,0.3,0.4c0.3-0.1,1.2-1.1,1.4-1.4c0.3-0.3,1-2.4,1.2-2.5c0.4-0.2,2.2,3.2,3.7,3c1-0.1,0.9-1,1.3-1.7
	c0.5-0.9,1.5-0.7,2.1-1.5c0.2-0.2,0.2-0.8,0.3-1.1c0.2-0.4,0.6-0.6,0.9-0.9c0.8-0.8,1.1-0.9,0.6-2c-1-2.1-3.1-3.2-3.5-5.6
	c-0.2-1.2-0.4-1.2-1.2-2.2c-0.7-0.8-1.3-1.7-2-2.6c-0.7-0.8-1.1-1.8-1.7-2.6c-0.6-0.9-1.7-1-2.7-1.3c-1.1-0.3-5.3-2.3-6.2-1.5
	c0,0.1,0.1,0.2,0.1,0.2c-0.7-0.3-0.7-0.4-1.1-0.1C478.8,39,478.7,38.8,478.6,38.7z"/>
</svg>
